<?xml version="1.0" encoding="utf-8"?>
<!-- Generator: Adobe Illustrator 25.0.0, SVG Export Plug-In . SVG Version: 6.00 Build 0)  -->
<svg version="1.1" id="chico" xmlns="http://www.w3.org/2000/svg" xmlns:xlink="http://www.w3.org/1999/xlink" x="0px" y="0px"
	 viewBox="0 0 512 512" style="enable-background:new 0 0 512 512;" xml:space="preserve">
<style type="text/css">
	#chico .st0{fill:#A10F2A;}
</style>
<g>
	<path class="st0" d="M361,512V319.5c-9.6-4.9-19.5-9.2-30-12.3V346c0,41.4-33.6,75-75,75s-75-33.6-75-75v-38.7
		c-10.5,3-20.4,7.3-30,12.3V512H361z"/>
	<path class="st0" d="M220.4,91.1c5.5-2.2,11.9-0.9,16.2,3.3c0.2,0.2,32.6,28.1,139.4,25.3c0-19.7-5.1-39.1-15-57V15
		c0-8.4-6.6-15-15-15h-90c-66.3,0-120,53.7-120,120v4.8L220.4,91.1z"/>
	<path class="st0" d="M223.7,122.1L136,157.2V181c0,38.7,18.3,73.5,48,95.1c8.1,6.6,17.1,11.7,27,15.6c0,3.2,0,57.4,0,54.3
		c0,24.9,20.1,45,45,45s45-20.1,45-45c0-3.6,0-57.4,0-54.3c9-3.6,17.4-8.4,24.9-14.1c30.9-21.3,50.1-57,50.1-96.6v-31.2
		C283.5,152.2,240.3,133,223.7,122.1z M296.2,225.5c-22.9,20.7-57.6,20.7-80.4,0c-6.1-5.6-6.6-15-1.1-21.2
		c5.6-6.1,15.1-6.6,21.2-1.1c11,10,29.1,10,40.2,0c6.1-5.6,15.6-5.1,21.2,1.1C302.8,210.4,302.4,219.9,296.2,225.5z"/>
	<path class="st0" d="M391,339.6V512h45c8.4,0,15-6.6,15-15v-31C451,415.1,427.5,369.9,391,339.6z"/>
	<path class="st0" d="M121,339.6C84.5,369.9,61,415.1,61,466v31c0,8.4,6.6,15,15,15h45V339.6z"/>
</g>
</svg>
