<?xml version="1.0" encoding="utf-8"?>
<!-- Generator: Adobe Illustrator 25.0.0, SVG Export Plug-In . SVG Version: 6.00 Build 0)  -->
<svg version="1.1" id="etnia" xmlns="http://www.w3.org/2000/svg" xmlns:xlink="http://www.w3.org/1999/xlink" x="0px" y="0px"
	 viewBox="0 0 512 512" style="enable-background:new 0 0 512 512;" xml:space="preserve">
<style type="text/css">
	#etnia .st0{fill:#A10F2A;}
</style>
<g>
	<path class="st0" d="M256.2,384c60.4,0,81.1-26.3,88.1-47.2l-15.6-1.4c1.5,4.2-0.4,8.9-4.3,11c-4.5,2.3-10,0.5-12.3-4
		c-2.3-4.6-4.4-9.4-6.1-14.3l-0.1-0.3l0-0.1c-4.4-11.9-7.6-24.2-9.7-36.7c-24.8,14.1-55.1,14.2-80,0.1c-2.1,12.6-5.3,25.1-9.8,37.1
		c-1.7,4.8-3.8,9.6-6.1,14.2c-2.3,4.5-7.8,6.3-12.3,4c-4-2.1-5.8-6.8-4.4-11l-15.6,1.4C175,357.7,195.7,384,256.2,384z"/>
	<path class="st0" d="M387.2,340.5l-24.3-2.1c-6.7,24.1-29.5,63.9-106.7,63.9c-77.2,0-100-39.8-106.7-63.9l-24.4,2.1
		c-36.7,3.2-66,32-69.7,68.6s19.1,70.8,54.5,81.2v-51.6c0-5.1,4.1-9.1,9.1-9.1c5.1,0,9.1,4.1,9.1,9.1v54.9
		c0,10.1,8.2,18.3,18.3,18.3h219.4c10.1,0,18.3-8.2,18.3-18.3v-54.9c0-5.1,4.1-9.1,9.1-9.1c5.1,0,9.1,4.1,9.1,9.1v51.6
		c35.3-10.5,58.2-44.6,54.5-81.3C453.2,372.5,423.9,343.7,387.2,340.5z"/>
	<path class="st0" d="M190,233.8c15.5,32.9,37.7,49.6,66.2,49.6c28.2,0,50.4-16.7,66-49.6c13.6-28.5,16.3-59.5,16.3-100.1
		c0-0.6,0-1.2,0-1.8c-8.2-8.7-17.6-16.2-28-22.2c-3.6,0.6-7.2,1.4-10.7,2.5c-14.1,4.2-28.8,6.5-43.5,6.7
		c-14.7-0.2-29.4-2.4-43.5-6.7c-3.7-1.2-7.5-2-11.3-2.5c-10.1,6.2-19.3,13.6-27.4,22.1c0,0.6,0,1.2,0,1.8c0,3.4,0,6.7,0.1,9.9
		c-0.3,21.5,1.9,42.9,6.7,63.8C182.9,216.5,186,225.3,190,233.8z"/>
	<path class="st0" d="M100.7,121.1c-4.3,0.9-7.4,4.7-7.3,9.1c0.1,4.4,3.2,8.1,7.6,8.9c4,0.7,7.1,4,7.5,8.1c0.4,4.1-1.9,7.9-5.7,9.4
		c-3.8,1.6-6.1,5.5-5.6,9.7c0.6,4.1,3.8,7.3,8,7.8c3.6,0.4,6.6,3,7.7,6.5c1,3.5-0.1,7.3-2.9,9.6c-3,2.5-4.1,6.5-2.8,10.2
		c1.3,3.6,4.7,6.1,8.6,6.1c0.7,0,1.3-0.1,2-0.3c3.1-0.7,6.4,0.3,8.5,2.6c2.2,2.3,3,5.6,2.2,8.7c-0.2,0.7-0.2,1.4-0.2,2.1
		c0,5,4.1,9.1,9.1,9.1c1.9,0,3.7-0.6,5.2-1.6c2.4-1.5,5.3-1.9,8-1c2.7,0.9,4.8,3,5.7,5.7c1,2.9,3.4,5.1,6.3,5.8
		c3,0.7,6.1-0.1,8.3-2.2c-3.2-7.6-5.9-15.4-7.9-23.3c-5.1-22.3-7.6-45.1-7.2-68c-0.1-3.2-0.1-6.7-0.1-10.3c0-1.7,0-3.5,0.1-5.2
		c0-0.3,0-0.6,0-0.9v0l0,0c0.1-1.2,0.4-2.3,0.9-3.4c0.1-0.1,0.1-0.2,0.2-0.3c0.4-0.8,0.9-1.6,1.5-2.2c13.7-13.7,32.3-30.1,43-30.1
		c5.5,0.4,10.9,1.4,16.1,3.1c12.6,3.8,25.6,5.8,38.8,6.1c13.1-0.2,26.2-2.3,38.8-6.1c5.2-1.7,10.6-2.7,16.1-3.1
		c10.7,0,29.3,16.4,43,30.1c0.4,0.5,0.8,1,1,1.6c0.3,0.3,0.5,0.7,0.7,1c0.5,1,0.8,2.2,0.8,3.3l0,0v0c0,0.3,0,0.6,0,0.9
		c0.1,1.7,0.1,3.5,0.1,5.2c0,40.3-2.8,71.8-15.3,101.5c2.2,2.2,5.4,3,8.3,2.3c3-0.7,5.4-2.9,6.4-5.8c0.9-2.7,3-4.8,5.7-5.7
		c2.7-0.9,5.6-0.5,8,1c1.6,1,3.4,1.6,5.2,1.6c5,0,9.1-4.1,9.1-9.1c0-0.7-0.1-1.4-0.2-2.1c-0.8-3.1,0-6.4,2.2-8.7
		c2.2-2.3,5.4-3.3,8.5-2.6c0.7,0.2,1.3,0.2,2,0.3c3.9,0,7.3-2.4,8.6-6.1c1.3-3.6,0.2-7.7-2.8-10.2c-2.8-2.3-3.9-6.1-2.9-9.6
		s4-6,7.7-6.5c4.1-0.5,7.4-3.7,8-7.8c0.6-4.1-1.7-8.1-5.6-9.7c-3.8-1.5-6.1-5.3-5.7-9.4c0.4-4.1,3.5-7.4,7.5-8.1
		c4.3-0.8,7.5-4.5,7.6-8.9s-3-8.2-7.3-9.1c-3.7-0.8-6.6-3.8-7.2-7.5s1.2-7.5,4.5-9.4c2.8-1.6,4.6-4.7,4.6-8c0-4.7-3.5-8.6-8.2-9.1
		c-3.2-0.3-6.1-2.3-7.4-5.3c-1.4-3-1-6.4,0.9-9.1c1.2-1.7,1.9-3.6,1.9-5.7c0-5-4.1-9.1-9.1-9.1l-0.9,0c-3.2,0.2-6.3-1.1-8.3-3.6
		c-1.9-2.5-2.5-5.8-1.4-8.7c0.3-0.9,0.5-1.9,0.5-2.9c0-2.4-0.9-4.8-2.7-6.5c-1.7-1.7-4.1-2.7-6.5-2.7c-1.9,0-3.8,0.6-5.4,1.7
		c-3,2.1-7.1,2.2-10.2,0.2c-3.1-2-4.7-5.7-4.1-9.3c0.1-0.4,0.1-0.9,0.1-1.3c0-4.2-2.8-7.8-6.9-8.9c-4-1-8.3,0.8-10.3,4.5
		c-2.1,3.9-6.7,5.7-10.9,4.3c-4.2-1.4-6.8-5.6-6.2-9.9c0-4.3-3.1-8-7.4-8.9c-4.2-0.8-8.5,1.4-10.2,5.4c-1.6,3.9-5.8,6.2-9.9,5.5
		c-4.2-0.7-7.3-4.2-7.6-8.4C283.1,3.5,279-0.2,274,0c-4.9,0.2-8.8,4.3-8.8,9.2c0,5-4.1,9.1-9.1,9.1c-5.1,0-9.1-4.1-9.1-9.1
		c0-4.9-3.9-8.9-8.7-9.1c-4.9-0.2-9.1,3.5-9.5,8.4c-0.3,4.2-3.4,7.7-7.6,8.4c-4.2,0.7-8.3-1.6-9.9-5.5c-1.7-4-5.9-6.2-10.2-5.4
		c-4.2,0.8-7.3,4.5-7.4,8.9c0.6,4.4-2,8.6-6.1,10c-4.2,1.4-8.8-0.4-10.9-4.3c-2-3.7-6.2-5.5-10.3-4.5c-4,1-6.9,4.7-6.9,8.9
		c0,0.4,0,0.9,0.1,1.3c0.7,3.6-0.9,7.3-4.1,9.3c-3.1,2-7.1,1.9-10.2-0.2c-1.6-1.1-3.4-1.7-5.4-1.7c-2.4,0-4.8,0.9-6.5,2.7
		c-1.7,1.7-2.7,4.1-2.6,6.5c0,1,0.2,1.9,0.5,2.9c1.2,3,0.6,6.4-1.4,9c-2,2.5-5.2,3.8-8.4,3.4h-0.8c-5,0-9.1,4.1-9.1,9.1
		c0,2,0.7,4,1.9,5.7c1.9,2.7,2.2,6.1,0.9,9.1c-1.4,3-4.2,5-7.4,5.3c-4.7,0.5-8.2,4.4-8.2,9.1c0,3.3,1.8,6.3,4.6,8
		c3.3,1.9,5.1,5.6,4.5,9.4C107.3,117.3,104.4,120.3,100.7,121.1z"/>
</g>
</svg>
