<?xml version="1.0" encoding="utf-8"?>
<!-- Generator: Adobe Illustrator 25.0.0, SVG Export Plug-In . SVG Version: 6.00 Build 0)  -->
<svg version="1.1" id="hombre" xmlns="http://www.w3.org/2000/svg" xmlns:xlink="http://www.w3.org/1999/xlink" x="0px" y="0px"
	 viewBox="0 0 512 512" style="enable-background:new 0 0 512 512;" xml:space="preserve">
<style type="text/css">
	#hombre .st0{fill:#A10F2A;}
</style>
<path class="st0" d="M361.9,145.1c-57.5-1.9-112.6-20.2-159.7-52.9c-5.7-3.9-13.4,0.1-13.4,7.1c0,0.2-0.1,21.4-16.1,31
	c-8.2,4.9-16.8,4.7-21.2,4.2c-5.2-0.6-9.6,3.4-9.6,8.5v81.2c0,62.9,51.2,114.1,114.1,114.1s114.1-51.2,114.1-114.1v-70.5
	C370.1,149,366.5,145.2,361.9,145.1z M270.8,512h-29.6c-5.1,0-9.1-4.5-8.5-9.6l9.8-78.6c0.7-5.2,5.9-8.7,10.9-7.1
	c1.5,0.5,3.6,0.5,5.1,0c5-1.6,10.2,1.9,10.9,7.1l9.8,78.6C279.9,507.5,275.9,512,270.8,512L270.8,512z M225.8,393.4l-12.9,14.9
	c-2.3,2.6-6.6,1.5-7.4-1.9l-10.8-49.2c-0.3-1.4,1.5-2.4,2.5-1.3l28.6,31.8C227.2,389.3,227.2,391.7,225.8,393.4L225.8,393.4z
	 M299.1,408.3l-12.9-14.9c-1.4-1.6-1.4-4.1,0.1-5.7l28.6-31.8c1-1.1,2.8-0.1,2.5,1.3l-10.8,49.2
	C305.7,409.8,301.4,410.9,299.1,408.3L299.1,408.3z M215.3,504.5c-0.5,4.3-4.2,7.5-8.5,7.5H91.7c-4.7,0-8.5-3.8-8.5-8.5v-50.4
	c0-48.7,39.4-88.1,88.1-88.1c2.1,0,4.1-0.2,6.1-0.5c0.8-0.1,1.5,0.3,1.7,1.1l15.3,69.3c1.5,6.8,10.2,9.1,14.8,3.8l7.6-8.8
	c2.8-3.2,8-0.9,7.5,3.3L215.3,504.5z M428.8,453.1v50.4c0,4.7-3.8,8.5-8.5,8.5H305.2c-4.3,0-7.9-3.2-8.5-7.5l-8.9-71.3
	c-0.5-4.2,4.7-6.5,7.5-3.3l7.6,8.8c4.6,5.3,13.3,3.1,14.8-3.8l15.3-69.3c0.2-0.8,0.9-1.2,1.7-1.1c2,0.3,4,0.5,6.1,0.5
	C389.4,365,428.8,404.4,428.8,453.1L428.8,453.1z M396.8,93.4c0,108.4,0,101.6,0,102.8c-0.3,6.2-9.6,5.9-9.6-0.3v-42.2
	c0-13.8-10.9-25.1-24.7-25.6c-52.7-1.8-105-18.2-150.5-49.8c-16.9-11.7-40.1,0.3-40.2,21c0,0.7-0.6,12.1-7.9,16.5
	c-3.8,2.3-8.1,2.2-10.3,1.9c-15.4-1.9-28.8,10.2-28.8,25.4v52.9c0,6.2-9.3,6.5-9.6,0.3c-0.1-1.1,0,5.8,0-105.5
	c0-18.6,13.7-34.1,31.5-36.9C162.1,20.9,194.7,0,231.3,0h72.1C355,0,396.8,41.8,396.8,93.4L396.8,93.4z M284.8,352.1
	c4.1-0.9,6.9,3.9,4.1,7l-26.6,29.6c-3.4,3.8-9.3,3.8-12.7,0L223,359.1c-2.8-3.1,0.1-7.9,4.1-7C246,356.4,265.9,356.4,284.8,352.1z"
	/>
</svg>
