<?xml version="1.0" encoding="utf-8"?>
<!-- Generator: Adobe Illustrator 25.0.1, SVG Export Plug-In . SVG Version: 6.00 Build 0)  -->
<svg version="1.1" id="Capa_1" xmlns="http://www.w3.org/2000/svg" xmlns:xlink="http://www.w3.org/1999/xlink" x="0px" y="0px"
	 viewBox="0 0 92.1 93.1" style="enable-background:new 0 0 92.1 93.1;" xml:space="preserve">
<style type="text/css">
	.st0{fill:#A10F2A;}
</style>
<path class="st0" d="M37.9,52.2c-0.1-0.1-0.2-0.2-0.2-0.3C35,49.5,35,49.5,38,47.7c1.9-1.1,2-2.4,0.4-3.8c-1-0.4-1.8,0.1-2.7,0.6
	c-1.4,0.8-2.2,0.4-2.3-1.2c0-2.1-0.2-4.2,0.1-6.3c0.2-0.6,0.8-0.7,1.3-0.8c3.2-0.7,5.8-2.2,8.1-4.6c1.3-1.4,1.6-1.3,3.2-0.1
	c0.7,0.8,1.4,1.5,2.3,2.1c1.9,1.6,4.2,2.2,6.6,2.8c0.7,0.3,0.9,1,1,1.7c0,1.7,0.1,3.4,0,5.1c-0.1,1.6-0.8,2-2.3,1.5
	c-0.2-0.1-0.5-0.2-0.7-0.3c-1-0.3-2-0.4-2.5,0.7c-0.5,1.1,0.3,1.8,1.2,2.3c0.2,0.1,0.3,0.2,0.5,0.3c2.1,1.2,2.1,1.6,0.7,3.5
	c-3.3,3.4-7.3,4.2-11.8,3C39.8,53.8,38.6,53.3,37.9,52.2z"/>
<g>
	<path class="st0" d="M42.7,69.6v13.5H26.7l0-23.1c0,0,4.9-2.4,9.6-2.6C36.4,57.4,34.9,66.7,42.7,69.6z"/>
	<path class="st0" d="M46.6,69.6v13.5h15.9l0-23.1c0,0-4.9-2.4-9.6-2.6C52.9,57.4,54.4,66.7,46.6,69.6z"/>
</g>
<g>
	<path class="st0" d="M66.6,61.2v21.9h9.6C76.2,83.1,77.8,66.5,66.6,61.2z"/>
	<path class="st0" d="M22.6,61.2v21.9H13C13,83.1,11.5,66.5,22.6,61.2z"/>
</g>
<path class="st0" d="M40.3,57.3c0,0,0,2.3,0,4.2c0,1.9,2.1,3.8,4.4,3.8s4.4-1.9,4.4-4c0-2.1,0-4.1,0-4.1H40.3z"/>
<g>
	<path class="st0" d="M41.5,28H23.2v29c0,0,4.8-3.7,10.6-2.8c0,0-3.6-3.2-3.6-7.1s0-9.7,0-11.5s0.8-3,3.8-3C37,32.6,41.5,28,41.5,28
		z"/>
	<path class="st0" d="M47.8,28h18.3v29c0,0-4.8-3.7-10.6-2.8c0,0,3.6-3.2,3.6-7.1s0-9.7,0-11.5s-0.8-3-3.8-3
		C52.3,32.6,47.8,28,47.8,28z"/>
</g>
<path class="st0" d="M23.4,25h42.4c0,0-5.2-14.4-20.4-14.4S23.4,25,23.4,25z"/>
<path class="st0" d="M64,16.5c0,0,2.7,3.4,4,8c0,0,9.7-5.1,8.7-14.6C76.7,9.9,68.9,7.7,64,16.5z"/>
</svg>
