<?xml version="1.0" encoding="utf-8"?>
<!-- Generator: Adobe Illustrator 25.0.0, SVG Export Plug-In . SVG Version: 6.00 Build 0)  -->
<svg version="1.1" id="mujer" xmlns="http://www.w3.org/2000/svg" xmlns:xlink="http://www.w3.org/1999/xlink" x="0px" y="0px"
	 viewBox="0 0 512 512" style="enable-background:new 0 0 512 512;" xml:space="preserve">
<style type="text/css">
	#mujer .st0{fill:#A10F2A;}
</style>
<path class="st0" d="M440.7,393.7c-4.8,4.8-10.8,3.4-13.6-0.7c-18.4-26.5-49.7-45.1-86.4-45.1c-14.1,0-15.8-11.9-9.3-16.5
	c33.7-23.8,55.8-63,55.8-107.3c0-0.3,0-59.1,0-59.3c-0.2-11.1-7.7-21-18.6-24.1c-17.2-4.9-31.8-17.5-38.7-34.9
	c-7.3-18.5-32.1-21.9-44.1-6.1c-35.2,46.1-88.2,73-144.9,75.3c-23,0.9-33.1,29.4-16,44.7v4.5c0,44.3,22.1,83.5,55.8,107.3
	c6.5,4.6,4.8,16.5-9.3,16.5c-36.2,0-67.6,18.2-86.4,45.1c-3.1,4.4-9.3,5-13.1,1.2c-14.3-14.3-14.7-34.7-2.6-49.9
	c6.3-8,5.5-19.2-1.9-26.2C53.6,305.3,52,283.7,63.7,269L76,253.5c3.9-4.9,5.2-11.5,3.4-17.6L71.5,209c-5.3-18,3.8-37,21.2-44.1
	l10.5-4.3c7.3-3,12.1-10.1,12.1-18v-27.5C115.2,51.6,166.8,0,230.4,0h51.2c63.6,0,115.2,51.6,115.2,115.2v27.5c0,7.9,4.7,15,12.1,18
	l10.5,4.3c17.4,7.1,26.5,26.1,21.2,44.1l-7.9,26.9c-1.8,6.1-0.5,12.7,3.4,17.6l12.3,15.4c11.7,14.7,10.2,36.4-3.5,49.3
	c-7.4,7-8.2,18.2-1.9,26.2C456.1,361.4,452.8,381.6,440.7,393.7L440.7,393.7z M244.2,423l-42.8-33.1c-6.5-5-15.7,1.2-13.4,9.1
	l30.7,106.9c1,3.7,4.4,6.2,8.2,6.2h12.1c4.7,0,8.5-3.8,8.5-8.5v-73.8C247.5,427.1,246.2,424.6,244.2,423L244.2,423z M264.5,429.7
	v73.8c0,4.7,3.8,8.5,8.5,8.5h12.1c3.8,0,7.2-2.5,8.2-6.2L324,398.9c2.3-7.9-6.9-14.1-13.4-9.1L267.8,423
	C265.8,424.6,264.5,427.1,264.5,429.7L264.5,429.7z M162.7,372.9c-1.2-4.3-5.6-6.9-10-6c-39.3,8.4-69.5,43.4-69.5,86.1v50.4
	c0,4.7,3.8,8.5,8.5,8.5h110.9L162.7,372.9z M314.5,353.5c-1-1.1-2-2.3-2.9-3.5c-2.2-3.1-6.3-4.2-9.8-2.9c-29.4,11-62.1,11-91.6,0
	c-3.6-1.3-7.6-0.2-9.8,2.9c-0.9,1.2-1.8,2.4-2.9,3.5c-3.4,3.7-2.9,9.5,1,12.5l52.2,40.4c3.1,2.4,7.4,2.4,10.5,0l52.2-40.4
	C317.4,363,317.9,357.2,314.5,353.5z M359.3,367c-4.4-0.9-8.8,1.7-10,6l-36.8,128.2c-1.6,5.5,2.5,10.9,8.2,10.9h99.6
	c4.7,0,8.5-3.8,8.5-8.5v-50.4C428.8,410.4,398.7,375.3,359.3,367L359.3,367z M363.9,157.1c-22.4-6.3-41-22.8-49.9-45.1
	c-2.5-6.2-10.7-7.3-14.7-2c-38.3,50.3-96.2,79.5-157.8,82c-4.7,0.2-8.4,4.1-8.2,8.9c0.2,4.6,3.9,8.2,8.5,8.2v15.1
	c0,62.9,51.2,114.1,114.1,114.1s114.1-51.2,114.1-114.1v-58.8C370.1,161.5,367.6,158.2,363.9,157.1L363.9,157.1z"/>
</svg>
