<?xml version="1.0" encoding="utf-8"?>
<!-- Generator: Adobe Illustrator 25.0.1, SVG Export Plug-In . SVG Version: 6.00 Build 0)  -->
<svg version="1.1" id="Capa_1" xmlns="http://www.w3.org/2000/svg" xmlns:xlink="http://www.w3.org/1999/xlink" x="0px" y="0px"
	 viewBox="0 0 258 258" style="enable-background:new 0 0 258 258;" xml:space="preserve">
<style type="text/css">
	.st0{fill:#A10F2A;}
</style>
<g>
	<g>
		<path class="st0" d="M77.3,131.3c19.9,0,36-16.1,36-36c0-12.4,4.3-23.8-5.2-30.3c-5.7-3.9-31-5.7-38.5-5.7
			c-8.9,0-20.4,7.2-26.7,12.5c-7.8,6.6-1.7,12.4-1.7,23.5C41.3,115.2,57.4,131.3,77.3,131.3z M52.2,91.7c6.6-1.2,11.1,1,11.1,1
			l11.1-5.4c0,0-5.6,8.1-0.6,5.4c11.2-3.8,23.8-2.2,30.3-1c0.2,1.4,0.4,2.8,0.4,4.3c0,14.8-11.8,26.8-26.4,26.8
			c-14.6,0-26.4-12-26.4-26.8C51.8,94.6,52,93.2,52.2,91.7z"/>
		<path class="st0" d="M139.2,137.1c-2-18.2,6.7-29.2,10-32.7c3.1,18.8,19.4,33.3,39.1,33.3c18.7,0,34.2-13,38.5-30.4
			c3.2,5.7,8.6,17.3,7.3,29.8c33.1-0.3,16.8-38.1-6.4-42.3c-0.2-1.9-0.3-3.9-0.8-5.7c-1.4-12-12.1-36.3-42.7-35.5
			c-26.5,0.6-32.2,20.5-33.6,32.7c-0.9,3-1.5,6.1-1.7,9.3C114.4,101.6,118.2,136.6,139.2,137.1z M169.7,86.8c0,0,3.4,1.2,3.4,12.2
			c5.8,2,16-17.2,16-17.2V97c6.5,1.8,26.8-0.6,26.8-0.6l0.8,0.7c0,0.3,0.1,0.6,0.1,1c0,15.7-12.8,28.5-28.5,28.5
			c-15.5,0-28.1-12.4-28.4-27.9C165.5,96.6,169.7,86.8,169.7,86.8z"/>
		<polygon class="st0" points="197.1,143 180.4,143 166.5,143 135.9,179.7 102.7,138.8 55,138.8 5.2,193.6 15.6,204.4 51.3,173.9 
			52.1,197.7 107.1,196.8 107.3,175 129.7,198.1 134.4,204.4 135.1,203.6 135.8,204.3 137.8,200.4 164.9,169.4 166.7,183.2 
			161.2,195.4 216.7,194.5 209.4,183.2 210.7,166.1 234.6,198.2 250.5,194.2 212.6,143 		"/>
	</g>
</g>
</svg>
