<?xml version="1.0" encoding="utf-8"?>
<!-- Generator: Adobe Illustrator 25.0.0, SVG Export Plug-In . SVG Version: 6.00 Build 0)  -->
<svg version="1.1" id="Capa_1" xmlns="http://www.w3.org/2000/svg" xmlns:xlink="http://www.w3.org/1999/xlink" x="0px" y="0px"
	 viewBox="0 0 448 448" style="enable-background:new 0 0 448 448;" xml:space="preserve">
<style type="text/css">
	.st0{fill:#717171;}
</style>
<path class="st0" d="M224,128c35.3,0,64-28.7,64-64S259.3,0,224,0s-64,28.7-64,64C160,99.3,188.7,128,224,128z M224,72
	c-11.7,0-21.7-8.4-23.6-19.9c-2-11.5,4.6-22.8,15.6-26.6V16h16v9.5c9.6,3.4,16,12.4,16,22.5h-16c0-4.4-3.6-8-8-8s-8,3.6-8,8
	s3.6,8,8,8c11.7,0,21.7,8.4,23.6,19.9c2,11.5-4.6,22.8-15.6,26.6v9.5h-16v-9.5c-9.6-3.4-16-12.4-16-22.5h16c0,4.4,3.6,8,8,8
	s8-3.6,8-8S228.4,72,224,72z"/>
<path class="st0" d="M288,176c-30.9,0-56,25.1-56,56v-88h-16v88c0-30.9-25.1-56-56-56h-40v8c0,30.9,25.1,56,56,56h40v48h16v-48h40
	c30.9,0,56-25.1,56-56v-8H288z"/>
<path class="st0" d="M112,304h224v16H112V304z"/>
<path class="st0" d="M304.9,448l14-112H129.1l14,112H304.9z M272,416h16v16h-16V416z M240,416h16v16h-16V416z"/>
</svg>
