<?xml version="1.0" encoding="utf-8"?>
<!-- Generator: Adobe Illustrator 25.0.0, SVG Export Plug-In . SVG Version: 6.00 Build 0)  -->
<svg version="1.1" id="Capa_1" xmlns="http://www.w3.org/2000/svg" xmlns:xlink="http://www.w3.org/1999/xlink" x="0px" y="0px"
	 viewBox="0 0 512 512" style="enable-background:new 0 0 512 512;" xml:space="preserve">
<style type="text/css">
	.st0{fill:#717171;}
</style>
<g>
	<g>
		<path class="st0" d="M376,151c-39.2,0-136-5.5-136-45v60c0,42.9,113.5,45,136,45s136-2.1,136-45v-60C512,145.5,415.2,151,376,151z
			"/>
	</g>
</g>
<g>
	<g>
		<path class="st0" d="M376,31c-22.5,0-136,2.2-136,45s113.5,45,136,45s136-2.2,136-45S398.5,31,376,31z"/>
	</g>
</g>
<g>
	<g>
		<path class="st0" d="M376,241c-39.2,0-136-5.5-136-45v22.8c23.3,19.3,41.1,44.9,51.1,74c32.9,7.5,72.7,8.1,84.9,8.1
			c22.5,0,136-2.1,136-45v-60C512,235.5,415.2,241,376,241z"/>
	</g>
</g>
<g>
	<g>
		<path class="st0" d="M376,331c-11.4,0-46.5-0.5-77.6-6.5c0.9,7.1,1.6,14.2,1.6,21.5c0,13-1.7,25.6-4.5,37.8
			c31.9,6.6,68.9,7.2,80.5,7.2c22.5,0,136-2.1,136-45v-60C512,325.5,415.2,331,376,331z"/>
	</g>
</g>
<g>
	<g>
		<path class="st0" d="M376,421c-12.9,0-55.9-0.7-89.7-9.3c-7.7,17.6-18.4,33.6-31.4,47.4c31.2,20.6,103.7,22,121.1,22
			c22.5,0,136-2.1,136-45v-60C512,415.5,415.2,421,376,421z"/>
	</g>
</g>
<g>
	<g>
		<path class="st0" d="M135,211C60.6,211,0,271.6,0,346s60.6,135,135,135s135-60.6,135-135S209.4,211,135,211z M150.4,418.3
			c-0.1,0-0.3,0-0.4,0.1V436c0,8.3-6.7,15-15,15s-15-6.7-15-15v-17.7c-9.9-3.3-19.3-9.7-27.4-19.3c-5.3-6.3-4.5-15.8,1.8-21.1
			c6.3-5.3,15.8-4.5,21.1,1.8c7.9,9.4,17,13.2,24.6,10.4c5.9-2.2,9.9-7.8,9.9-14.1c0-8.3-6.7-15-15-15c-24.8,0-45-20.2-45-45
			c0-17.7,10-34.9,30-42.1V256c0-8.3,6.7-15,15-15s15,6.7,15,15v17.9c7.8,2.6,15.3,6.8,22.1,13.3c5.9,5.8,6.1,15.2,0.3,21.2
			c-5.7,5.9-15.3,6.1-21.2,0.3c-7.3-7.1-15.4-9.5-22-6.6c-5.6,2.4-9.2,7.8-9.2,13.8c0,8.3,6.7,15,15,15c24.8,0,45,20.2,45,45
			C180,394.9,168.1,411.8,150.4,418.3z"/>
	</g>
</g>
</svg>
