<svg data-id="5" id="Capa_1" data-name="Capa 1" xmlns="http://www.w3.org/2000/svg" viewBox="0 0 176.41 155.51">
    <defs>
        <style>
            .cls-1 {
            fill: #ebebef;;
            stroke: #fff;
            stroke-miterlimit: 3.86;
            stroke-width: 0.25px;
            }
        </style>
    </defs>
    <path name="El Espino" data-id="248" id="path6200" class="cls-1" d="M237.35,205.86l-.06-.78.61-.57.32-.15.18-.42.58-.43.16-.53,1.32-.87.74.11h1l.25.5439,0,.5.57.58.37.59.2-.85,1.7h0l-.61.28h-.69l-.37.5-.56.26-.3.48,0,.36-.56.21-1-.81-1.22-.12-.42-.2-.48-.42Z" transform="translate(-99.01 -169.43)" disabled="disabled" style="pointer-events: none;"></path>
    <path name="Panqueba" data-id="282" id="path6202" class="cls-1" d="M240.38,212.32l-.69-.59.6-.46-.08-.71.08-.72.35-.56.63-.62.1-.34-.87-.61.56-.21,0-.36.3-.48.56-.26.37-.5H243l.61-.28-.07.57-.21.65-.22.26.07.2-.11.31.19.34.42,0,.24.63,0,.54-1.29,1.19-.6,0,.13.42-.79.72-.08.44-.43.48-.32-.25-.2.14Z" transform="translate(-99.01 -169.43)" disabled="disabled" style="pointer-events: none;"></path>
    <path name="Guacamayas" data-id="254" id="path6204" class="cls-1" d="M236.84,206.39h-.4l-.44.17-.08.53.09.77-.19.51,0,.59.29.34.17.8.63.11.43.3.41.5.56.24.74.51.27-.09.35.06h0l.6-.46-.08-.71.08-.72.35-.56.63-.62.1-.34-.87-.61-1-.81-1.22-.12-.42-.2-.47-.42Z" transform="translate(-99.01 -169.43)" disabled="disabled" style="pointer-events: none;"></path>
    <path name="San Mateo" data-id="299" id="path6206" class="cls-1" d="M235.92,207.09l.09.77-.19.51,0,.59.29.34.17.8.63.11.43.3.41.5.56.24.74.51.27-.09.35.06.71.58v.41l.11.42.31.41-1.25.34-.42.05-.29-.13v.53l-.63.74h0l-.26-.42-.25-.67h-.16l-.31.48-.38.27-.66.22-.58,0-.36.34L235,215l-.48-.34-.59-.05-.29-.32,0-.35-.53-.8L233,213v-.59l-.66-.72-.24-.53-.55-.09-.27-.51,0-.4.14-.37,0-.22,1.42-.76.39-.74,1-.95,1.28-.54h.6Z" transform="translate(-99.01 -169.43)" disabled="disabled" style="pointer-events: none;"></path>
    <path name="La Uvita" data-id="264" id="path6208" class="cls-1" d="M230.74,224.37l-.18-.44.07-.62.65,0,.73-.43-.06-.64.26-.37-.3-.37.23-.26.27-.06.11-.68.3-.55.78.61.28-.06.35-.81-.15-1-.42-.63.16-.26.32,0,.2-.24.35.06.19-.22,0-.22.35-.45-.07-.35-.54-.64-.22-.56-.15-.54.34,0,.48.34.24.32.36-.34.58,0,.66-.22.38-.27.31-.48h.16l.25.67.26.42.4,1,0,.82.11.33-.08.29.52.05.32.64v.4l.24.07-.18.54-.14,2-.84.48-.43,1.09-.37.2-.23.87-.67.69-.85,1.53-.61-.62-.92-.24-1.33-.78-.68.22-.74-.33Z" transform="translate(-99.01 -169.43)" disabled="disabled" style="pointer-events: none;"></path>
    <path name="Boavita" data-id="222" id="path6210" class="cls-1" d="M231.25,209.59l-.27,0-.62.27-.73,0-.78-.64-.29.3.11.75.52,1,0,.59.15.7,0,.66-.13.74,0,.54.24.94,0,.88.21.67.31.42v.67l-.17.64.28.37.07.45.13.37-.11.35.07.7-.13.46.08.65.15.68.27.52h0l.65,0,.73-.43-.06-.64.26-.37-.3-.37.23-.26.27-.06.11-.68.3-.55.78.61.28-.06.35-.81-.15-1-.42-.63.16-.26.32,0,.2-.24.35.06.19-.22,0-.22.35-.45-.07-.35-.54-.64-.22-.56-.15-.54-.25,0-.29-.32,0-.35-.64-1v-.59l-.66-.72-.24-.53-.55-.09-.27-.51,0-.4.14-.37,0-.23Z" transform="translate(-99.01 -169.43)" disabled="disabled" style="pointer-events: none;"></path>
    <path name="Covarachia" data-id="240" id="path6218" class="cls-1" d="M224.35,209.28l.37-.19.54,0,.31-.61.6-.39.31-.66,1.16-1.18,0-.22-.23-.24,0-.38-1.18-1.75.06-.29L226,203l-.54-.17-.23-.56-.58.17-1-.58.14-.47-.34-.07-.72-.35-.09-.51H222l-.15.16h-.32l-.12-.19-.5.35.12.32-.51.12-.16-.06-1.1.81v.16l.32.19-.08.61-.24.26.66.65.78-.09s.84.25.91.25a4.42,4.42,0,0,1-.05,1l.47.81.47.1.33.44.22-.24.38.06.13.22.6-.25.06.21-.23.2.17,1.11.85.73,0,.26-.54.34Z" transform="translate(-99.01 -169.43)" disabled="disabled" style="pointer-events: none;"></path>
    <path name="El cocuy" data-id="247" id="path6198-6" class="cls-1" d="M248.38,217.74l.14-.37.59-.35.23-1.05.48-.52.54.35.62.15.53-.3,0-.76-.23-.32.18-.33h-.18l-.34-.35.17-.22-.33-.61-.13-.63-.23-.33v-.52l-.17-.27-.46-.11,0,.33-.21.11-.39-.24-.11-.26-.37.11v.28l-.16.11-.89-.15-.6-.42-.15-.35-.51-.08-.58.28-.28-.3-.53-.09-.25-.22-.31-.17-.2-.39v-.38l-.21-.22h0l-1.29,1.19-.6,0,.13.42-.79.72-.08.44-.43.48-.32-.25-.18.13v.41l.11.42.31.41-1.25.34a2.19,2.19,0,0,1-.42.05,3.15,3.15,0,0,1-.29-.13v.53l-.63.74.4,1,0,.82.11.33-.08.29.52.05.32.64v.4l.24.07.7-.67.9-.25,1.15.28.73,1.26.32-.28.81.57,1.38.42.6-.15,0-.41.31-.67.65-.2.41-.71.26-.12Z" transform="translate(-99.01 -169.43)" disabled="disabled" style="pointer-events: none;"></path>
    <path name="Guican" data-id="257" id="path6648" class="cls-1" d="M265.21,189.21l0,.46.44.72-.23.36-.54.22-.27.58.25.13-.23,1-.52.93.27,1.22-.56.75-.16,1.35.33.55,0,1.93-.5.93v1l.21,1.86-.44.27-.44,1.1-.85.35-.69,0-.29.35-.56,0-.35.44.58.24.24.61-.2.26v.38l-.59.26-.91-.49-.47.14h-.36l-.29.24v.79l.09.26-.77,1.26-.53.35-.26,0-.5.18-.24-.21.15-.52-.29-.09-.18-.3-.47,0-.24.43-.94.68-.17.61L254,212l-.32,1.06-.74.41-.5.67-1,.14h-.18l-.34-.35.17-.22-.33-.61-.13-.63-.23-.33v-.52l-.17-.27-.46-.11,0,.33-.21.11-.39-.24-.11-.26-.37.11v.28l-.16.11-.89-.15-.6-.42-.15-.35-.51-.08-.58.28-.28-.3-.53-.09-.25-.22-.31-.17-.2-.38v-.39l-.21-.22,0-.54-.24-.63-.42,0-.19-.34.11-.31-.07-.2.22-.26.21-.65.07-.57.85-1.7.8.3.17-.37.42.31.37-.52.19.5.59-.83.15-.85-.15-.66,1.15.09.72,0-.22-.92-.39-.67-.48-.52-.17-.05-.24-.46-.05-.5-.6-.43-.09-.4.32-.21h.72l.56-.35.51-.16V197l.54-.11.37-.41.1-.42-.12-.46.36-.47.2,0,.35-.33.3-.39.22-.78.28-.31.43,0L252,193l.18-.48,0-.77.2-.45.46.12.23.67,0,.58.36,0,1.46-.79.64.31L256,192l.38.46.28,0,.21-.94v-.67l.28-.36.39.08.38-.25v-.39l.36-.2.33.07.34-.45.51.2h.66l.54-.46.49-.1.56.2,1.05-.15.82.56Z" transform="translate(-99.01 -169.43)" disabled="disabled" style="pointer-events: none;"></path>
    <path name="Cubara" data-id="241" id="path6677" class="cls-1" d="M265.22,189.21l-1.6.39-.82-.56-1.05.15-.56-.2-.49.1-.54.46h-.66l-.51-.2-.34.45-.33-.07-.36.2v.39l-.38.25-.39-.08-.28.36v.66l-.21,1-.28,0L256,192l-.41.16-.64-.31-1.46.79-.36,0,0-.58-.23-.67-.46-.12.15-1.2-.15-1-.54-.46.25-.28.46.05.21-.31-.31-1.22-.79-.64-.62-1.35-.54-.1-.66-.41-.21-.36-.07-1.07-.57-.26-.46.13-.26.36-.61.23-.54-.1-.67.15-.43-.28-.64.18-.46-.13-.62-.38-.46.28-.8-.47-1.11,0-.15.51-.53-.18-.79.39-.33-.27-.06-1-.27-.29-.42.1-.48-.43.4-.6.21.06.18-.2-.16-.19,0-.8-.26-.39.33-.64-.22-.2v-.29l.87-.2.06.28.37.48.48.12.5.74,1.6.51.06.31,1.64.75.56,0,.09.13.87,0,.27-.39,1.2-.86.48-.1.21.14.41-.08.07-.58.54-.22,1.06-1.36.6-.2.75-1.66,0-.94,1.25-2.46.77-.31.21.2h.62l.56.19,0,.29-.14.12-.11.5-.18.35.18.18.34.09.2.24,1.12,0,0-.37.4-.25.31-.88.54-.37.21.06.27-.17-.25-.39v-.81l.5-.64,0-.74.66-.43.88-.06.87.55,0,.25.37.39,1.33.1.33.27.5-.25h.33l.07.17.6,0,.46-.48.43,0,.65-.51h.41l.15.25,1.7.54,0,.37,2.25,1.13a3.07,3.07,0,0,1,.48-.14c.17,0,1.79-.13,1.79-.13l.13.1L275,172l-.88.67-.09,1.2-.87.83-.07,1.12-.53.71L272,178l-.26,1.21-1,1.88-.33.25-.63,1.64-.08.68-.56.94.06,1.51-.52.49-.06.67-.54.72h-.38l-.81.54-.19.56-.27-.08-.16-.23-.67.08-.14.29Z" transform="translate(-99.01 -169.43)" disabled="disabled" style="pointer-events: none;"></path>
    <path name="Chiscas" data-id="232" id="path6190" class="cls-1" d="M237.29,205.08l.61-.57.32-.15.18-.42.58-.43.16-.53,1.32-.87.74.11h1l.25.54.39,0,.5.57.58.37.59.2.8.3.17-.37.42.31.37-.52.19.5.59-.83.15-.85-.15-.66,1.15.09.72,0-.22-.92-.39-.67-.48-.52-.17-.05-.24-.46-.05-.5-.6-.43-.09-.4.32-.21h.72l.56-.35.51-.16V197l.54-.11.37-.41.1-.42-.12-.46.36-.47.2,0,.35-.34.3-.38.22-.78.28-.31.43,0L252,193l.18-.48,0-.77.2-.45h0l.15-1.2-.15-1-.54-.46.25-.28.46.05.21-.31-.31-1.22-.79-.64-.62-1.35-.54-.1-.66-.41-.21-.36-.07-1.07-.57-.26-.46.13-.26.36-.61.23-.54-.1-.66.15-.44-.28-.64.18-.46-.13-.62-.38-.46.28-.8-.47-1.11,0-.15.51-.53-.18-.56.25-.24.13.32.28,0,.64-.5.47,0,.44.23.49-.44.07-.54.68-.16.27.21.16v1.72l.64.24-.31.11.29,1.3-.85.41V191l.83.65,0,.55.25.5-.13.72-.33.19v.41l.33.27v1.45l-.2,0-.11.51-.56.19-.1.27.33.23-.15.18-.95.27-.37.58-.09,1.24-.74.7-.34,0-.41.47,0,.6-.13.09,0,.47.73.83-.27.93-.66.51-.11.38.31.2,0,1.14.85.33Z" transform="translate(-99.01 -169.43)" disabled="disabled" style="pointer-events: none;"></path>
    <path name="Susacon" data-id="317" id="path6212" class="cls-1" d="M224.42,218.79l-.59.41-.08,1-.24.17-.13,1.35.35,1-.19.42-.28.08-.48-.09-.82.6-.3.71-.47-.13-.28-.3-1.16,0,0,.46-.47.35-.07.76-.61.75.22.42-.49.48,0,.27.94-.17,0-.45.37-.33,1.19-.5.5.19.68-.06.34.27-.39.54v1l.41-.26.8.21.52-.46,1.74,0,.56-.44.63-.09.29-.7,1.15-.48,1.1.23,1.41-.12.16-.8-.06-.78-.18-.44.07-.62-.27-.52-.15-.68-.08-.65.13-.46-.07-.7.11-.35-.13-.37h0l-.44.44-.15.48-.5.2-.21-.72-.52.43L228,221l-.39-.12-.37.21-.33-.45v-.55l-.35-.41h-.43l-.18-.43-.32-.09-.46,0-.21-.26Z" transform="translate(-99.01 -169.43)" disabled="disabled" style="pointer-events: none;"></path>
    <path name="Soata" data-id="309" id="path6214" class="cls-1" d="M224.88,213.81l-.06.31-.32.2-.17.25.17.48-1,.4-.22,1,0,.74.71.5.55.07,0,.53.36.39,0,.31.21.27.46,0,.32.09.18.43h.43l.35.41v.55l.33.45.37-.21.39.12.37-.63.52-.43.21.72.5-.2.15-.48.44-.44-.07-.45-.28-.37.17-.64v-.67l-.31-.42-.2-.67,0-.88-.24-.94,0-.54.13-.74h0l-.8-.07-.31-.09-.34.11-.55-.39-.32.11-.61-.07-.46.29-.47-.15-.42.6-.26-.11Z" transform="translate(-99.01 -169.43)" disabled="disabled" style="pointer-events: none;"></path>
    <path name="Tipacoque" data-id="325" id="path6216" class="cls-1" d="M224.23,209.63l-.31.88L224,212l.27.23,0,.82.44.28.06.13.26.11.42-.6.47.15.46-.29.61.07.32-.11.55.39.34-.11.31.09.8.07,0-.66-.15-.7,0-.59-.52-1-.11-.75.29-.3-.23-.21,0-.6-.56-.58v-.2l-.29-.33-.16-1.07-1.15,1.18-.31.66-.6.39-.31.61-.54,0-.38.19Z" transform="translate(-99.01 -169.43)" disabled="disabled" style="pointer-events: none;"></path>
    <path name="Puerto Boyaca" data-id="288" id="path7773" class="cls-1" d="M126.75,247.16l0-.55.12-.32.18-.82.39-.24.19-.61.12-1,.17-.24,0-.32-.1-.08v-.27l-.15-.25v-.26l-.11-.16-.19-.06-.34.28h-.22l-.09-.28-.14-.14v-.3l.17-.17.11-.36.59-.59.08-.22h.14l.09-.22-.45-.48-.14-.33-.45-.11-.17-.5-.64-.28v-.36l-.42-.48-.22-.41-.12-.37.26-.11v-.11l-.26-.19V236l-.19-.22.17-.23,0-.25-.14-.14.09-.3.11-.06,0-.22-.14,0h-.11l.14-.31.31-.19,0-.45-.39-.08-.2-.17h-.3l-.28-.22.08-.56-.39.11-.28-.19h-.09l0,.22h-.28l-.17-.28h-.23l-.08.11-.25,0V233l-.23.26,0-.28-.14.19-.14,0-.11.22-.2.14-.11-.26-.18.06-.08.24,0-.1-.22.06-.17.24-.26-.15-.25.06-.19.48-.24.24-.18.9-.33.11-.15-.2-.09.2-.35,0-.26-.18,0-.15-.09-.24-.22,0-.13.17-.24,0-.33.24-.2,0,0-.31.22-.15-.17-.19-.16,0,0-.17-.62-.24-.21-.2-.09-.33-.2-.08.11-.13.07-.38-.09-.39-.33-.09-.22-.34-.07-.14-.21.09,0,.13-.26,0-.24.2-.13-.24h-.11l-.29,0-.15-.2-.39,0-.29-.28-.46-.16-.2-.3.16-.26v-.38l-.22-.26-.05-.65-.15-.05,0-.3.22-.18-.13-.28-.85-.61,0-.37-.49-.13-.22-.5.22-.46.31-.57-.15-.83.35-.46-.48-.19-.22.09h-.49l-.68-.77-.57,0-.37-.57,0-.63-.29-.11-.43-.74.1-.64-.17-.41-.33-.13.14-.44.4-.38-.58.07-.27.12-.26.43-.14.39-.28.13-.66,1.1s0,.36,0,.43-.2.25-.2.25l-.51.3-.48,1.28-.07,1.33-.16.26-.24.1-.25.52,0,.49-.16.39-.76.42-.26.66-.07,1.67-.21.17v.76l.17.36.68.36.71.5h.9l.56.42,0,.44-.17.13-.38.9,0,.46.35.57.05.77-.21.66.33.79-.08.85-.14.1V239l-.35.3-.12,0-.06-.12-.23-.1h-1l-.15-.13-.15,0-.17.22-.31,0-.43.46-.25.5.28.45.21,0,.11.52.25.25,0,.46.32.52,0,.33.19.06.3.51,0,.43.2.14-.07.29-.36.43-.13.24-.42.15-.8-.06-.16.11-.22,0-.21.18-.21.07-.21.16-.54.77,0,.49-.57,1.75,0,.5L100,249l.2,1.34-.22.49v.34l-.22.18,0,.21-.13.2h-.11l-.21.26.06.29-.09.17.15.19-.06.29-.08.19.12.12v.54l-.27.71.35.19.35-.09.27-.19h.21l.08-.12-.12-.24.31-.38.25,0,.7-.34,0-.1h.25l0,.36.08.12,0,.3.38-.32.27,0,.14.22.35.12.42,0,.1.14.17,0,0-.48.16-.22.46-.06.06.1.15,0v-.2L105,253l.39.61.17-.28.62.16.21-.33-.46-.28.12-.44.54-.24,0,.28.25.16.25-.32-.29-.28.87-.53.42,0,0,.65.38.16.29-.32-.29-.29.37-.2.25.49,1,.24,0,.56.33.08.25-.36.16-.2h1.29l.08.56.21.16,0-.28.54,0,.41.36.62.29.13-.37.53-.28.42.08v-.44l.54-.12.58-.73h.45l.13.45.25-.45,1-1.21,1-.24.75-1.21.7-.32v.56l1.17.76,0,.81,0,.35.36-.14.55.3-.35.88.16.57.6.72.45-.18v-.53l.37-.37.13-.47.36-.13.31-.57-.11-.52.63-.51.08-1.08-.24-.26.38-.74.45,0,1.22-.61Z" transform="translate(-99.01 -169.43)" disabled="disabled" style="pointer-events: none;"></path>
    <path name="La victoria" data-id="263" id="path7812" class="cls-1" d="M126.25,268.79l-.64,1.62.19.92.37.36.58-.76h1l.82-.58-.65-.51,0-.71.69-.38.32.24.41-.06-.18-.55.26-.42-.18-.33-.41,0,0-.32.28-.16.17.22.42-.2-.54-.51h-.73l-.46.59h-.49l-.75.45-.57.05Z" transform="translate(-99.01 -169.43)" style="fill: rgb(210, 210, 230);"></path>
    <path name="Quipama" data-id="289" id="path7828" class="cls-1" d="M130.66,272.37l.36-.4.3-.18.27.08.92-.65.25-.85.62-.24.16-.85.25-.13,0-.83-.45.1-.58-.44-.61-.85h-.5V267l.28-.19-.42-.56-.1-1.24.4-.93-.79-.18-.34.28h-.34l0,.26-.81.93-.42-.06-.29-.5.08-.63-.1-.73-.46-.3-.22.18-.37-.18-.38-.45,0-.14h.18l.57-.65.06-.73-.16-1.07h-.23l-.28.38-.52,0-.22-.73h-.45l-.16.81-.28-.16h-.24v.3H125l-.12.31.24.2-.46.24.08.63-.3-.3-1.21-.08-.13-.27-.64,0,0,.19-.62.29-.25.36H122l.2.4-.2.35.49.94,0,.74.27.68.48.25.89.67,1.06.09.78,1,.07.4.57-.06.75-.45h.49l.46-.59h.73l.54.51-.42.2-.18-.22-.27.16,0,.32.41,0,.18.33-.26.42.18.55-.41.06-.32-.24-.69.38,0,.71.65.51.34-.23h.29V271l1.14,1.56Z" transform="translate(-99.01 -169.43)" style="fill: rgb(210, 210, 230);"></path>
    <path name="Otanche" data-id="277" id="path7763" class="cls-1" d="M122.8,254l.54.52-.44.89-.58.4-.25.41.41.16.29.48,1.16.52.18.87-.5.38-.08,1.22-.55,0-.82.86.38.39-.05.25.64,0,.13.27,1.21.08.3.3-.08-.63.46-.24-.24-.2.12-.31h.69v-.3H126l.28.16.16-.81h.45l.22.73.52,0,.28-.38h.23l.16,1.07-.06.73-.57.65h-.18l0,.14.38.45.37.18.22-.18.46.3.1.73-.08.63.29.5.42.06.81-.93,0-.26h.34l.34-.28.8.18.41,0,.2-.18.17.18h.62l0-.33-.64-.34v-.22h-.23l-.1.14-.78-.37,0-.16.3-.06,0-.65.24,0v-.24l-.24-.06,0-.25h-.51l-.24-.3.2-.38,1-.63.87-.17.08-.28-.38-.63-.27-1.8-.32-.51-.18,0-.32-.77-.1-.63.28-.79h.38l.24-.4L133,254l.28.18.93,0,.32-.41.28.21.17-.17.58-.2h.48l.24-.57-.21-.21v-.23l.22-.06.14-.38-.28-.19,0-.77h.31l.21-.91.38-.11-.15-.85-.28-.12-.36-.92-.11-1.67.11-.47-.28-.25h-1.51l-.92-.17-1.78-1.86v-.3l-.37,0-.61.53.11,1-.64.78.05,1.23-.36.38-1,.2-.39.58h-.34l-.33-.33-.7-.12-.21-.29-1.22.61-.45,0-.38.74.24.26-.08,1.08-.63.51.11.52-.31.57-.36.13-.13.47-.37.37v.53l-.44.18Z" transform="translate(-99.01 -169.43)" style="fill: rgb(210, 210, 230);"></path>
    <path name="San Pablo de Borbur" data-id="301" id="path6680" class="cls-1" d="M138.31,260.57l-.19.09-.22.35,0,.57-.34.2-.24.69-.93.75,0,.38.32.2-.1.15h-.37l-.48-.53-.46-.16v.26h-.37l-.28-.38-.26,0-.75.64-.1.25-.23,0-.05-.33-.64-.34v-.22h-.23l-.1.14-.78-.37,0-.16.3-.06,0-.65.24,0v-.24l-.24-.06,0-.25h-.51l-.24-.3.2-.38,1-.63.87-.17.08-.28-.38-.63-.27-1.8-.32-.51-.18,0-.32-.77-.1-.63.28-.79h.38l.24-.4L133,254l.28.18.93,0,.32-.41.28.21.17-.17.58-.2h.48v.28l.52.47,0,.55H137l1.52,1,.46-.06.08.33.67.54.08.23-.37.28,0,.36.25.21-.15.24h-.2l-.44.51.14.52-.64,1-.08.51Z" transform="translate(-99.01 -169.43)" style="fill: rgb(210, 210, 230);"></path>
    <path name="Muzo" data-id="273" id="path7842" class="cls-1" d="M134.37,272.9l.62-1.33.42.12V272h.49l0-.32.39-.35h.48l.73-.42.34-.51.51-.3.36.42.29-.34-.23-.22-.1-.73-.22-.11,0-.1.26-.12v-.2l-.43-.2,0-.35-1.11-.55.19-.14,0-.38-.29-.49-.06-.49-.48-.4-.38-.08.1-.53-.23-.18v-.26l.29-.11-.22-.24.18-.14-.07-.21-.48-.54-.46-.16v.26h-.37l-.28-.38-.26,0-.75.64-.1.25-.24,0h-.62l-.17-.18-.2.18-.42,0-.4.93.1,1.24.42.56-.28.19v.16h.5l.61.85.58.43.45-.09,0,.82-.25.14-.16.85-.62.24-.25.85-.92.65-.27-.08L131,272l-.34.39.58.56,1,.77.54-.36.43.69.79.59.42-.83Z" transform="translate(-99.01 -169.43)" style="fill: rgb(210, 210, 230);"></path>
    <path name="Coper" data-id="238" id="path7858" class="cls-1" d="M137.88,277l1,.69h.67l.53.44-.08,1,.58.48,1-1,.64,0,1.14-.77.33-1.16-.16-.28.41-.2.13-.32-.42-.41,0-.56.5-.36.16.28.6-.66-.12-.39h0l-.89-.1,0-.32-.34-.06-.59.08-.32-.47-.58-.4-.53.08-.6-.47v-.12l.3-.06.36-.79.16-.73.33-.3.18-.51.44,0,.18-.88-.64-.22-.91.05-.58.36.1.73-.75.89-.18-.22-.32.08-.09-.2-.18,0-.25.12-.29.34-.36-.42-.51.3-.34.51-.73.42h-.48l-.39.35,0,.33.09.72.58,0,.08.36-.46.32.46.53v.56l-.29.72.25.45.69,0,.5.77.08.44,1,.69h.66l.54.44-.08,1,.58.48,1-1,.64,0" transform="translate(-99.01 -169.43)" style="fill: rgb(210, 210, 230);"></path>
    <path name="Pauna" data-id="283" id="path7800" class="cls-1" d="M143.45,254.77h-.36l-.73-.7-.05-1-.53-2-.34-.73-.64-.44-1,.08-.28-.33-.36-.28-.89.22-.09.25-1.31-.57.15.85-.38.11-.21.91h-.31l0,.77.28.19-.14.38-.22.06v.23l.21.21-.24.56v.29l.52.47,0,.55H137l1.52,1,.46-.06.08.33.67.54.08.23-.37.28,0,.36.25.21-.15.24h-.2l-.44.51.14.52-.64,1-.08.51.48.15-.06.53.58.47.51-.63.56.42v1.59l-.14.16.14.32.65,0,.16.18.44-.14.45-.61.56.15,1.29,1.19.06.53.43,0,1.11.59.24.28.91,0,.48-.22h0l.32-.36,0-.37.46-.61h.17l.14-.71.27-.18,0-.38.34-.24,0-.32-.37-.17v-.48l-.43-.33-.43.4h-.39l-.27-.4-.23-.83-1.05-.35-.33-.38.24-.14.08-1.09-.3-.19,0-.39.22-.15.05-.26-.47-.31-1,0-.55-.54-.07-.46.15-.76Z" transform="translate(-99.01 -169.43)" style="fill: rgb(210, 210, 230);"></path>
    <path name="Maripi" data-id="267" id="path6684" class="cls-1" d="M148,267l-.18-.41-.55-.53-.07-.51-.51.23-.91,0-.24-.28-1.11-.59-.43,0-.06-.53-1.29-1.19-.56-.15-.45.61-.44.14-.16-.18-.65,0-.14-.32.14-.16v-1.59l-.56-.42-.51.63-.58-.47.06-.53-.46-.15-.21.09-.22.35,0,.57-.34.2-.24.69-.93.75,0,.38.32.2-.1.15h-.36l.06.21-.18.14.22.24-.29.11v.26l.23.18-.1.53.38.08.48.4.06.49.29.49,0,.38-.19.14,1.11.55,0,.35.43.2v.2l-.26.12,0,.1.22.11.1.73.23.21.25-.11.18,0,.09.2.32-.08.18.22.75-.89-.09-.73.57-.36.91-.05.63.23.34,0,.66-.31.14.19.33,0V268l.64-.55.16.22.83,0,.65-.38H147l0,.16h.38l.2-.4.41-.08" transform="translate(-99.01 -169.43)" style="fill: rgb(210, 210, 230);"></path>
    <path name="Buenavista" data-id="225" id="path7886" class="cls-1" d="M145.36,274.11l.38-.52.16.24h.46l.62-.12.21.36.53.37.71-.65v-1.37l-.37-1.53.12-.48-.37-.49-.38-1,.09-.49h.37l-.13-.41.31-.36.06-.54-.16-.16-.41.08-.2.4H147l0-.16h-.38l-.65.38-.83,0-.16-.22-.64.55v.49l-.33,0-.14-.19-.66.31h-.34l-.17.88-.44,0-.18.51-.33.3-.16.73-.36.79-.3.06v.12l.6.47.53-.08.58.4.32.47.59-.08.34.06,0,.32.89.1.13.4Z" transform="translate(-99.01 -169.43)" style="fill: rgb(210, 210, 230);"></path>
    <path name="Tunungua" data-id="330" id="path7864-2" class="cls-1" d="M143.76,255.55l-.15.75.07.46.55.54,1,0,.47.31,0,.25.55.14,2.4-1.09,1.36,0,.32-.32v-.92l-.17-.53-.47-.14-.64.14-1.6.09-.87-.44v-.28h-.3l-.92.53-.93.39-.3.44Z" transform="translate(-99.01 -169.43)" style="fill: rgb(210, 210, 230);"></path>
    <path name="Bricerio" data-id="224" id="path6707" class="cls-1" d="M151,261.33h-.5l-.33.29v.4l-.24.27h-.24l-.08-.17-.2.08-.14.13h-.38l-.36-.16v-.48l-.43-.33-.43.4h-.39l-.27-.4-.23-.83-1.05-.35-.33-.38.24-.14.08-1.09-.3-.19,0-.39.23-.16.55.14,2.4-1.09,1.38,0-.28.56-.13.51-.62,1.06-.21,0,.16.39.22.07.13.16-.05.49-.21,0,.17.29.21.07.14.17.51.1,0,.11h.28l.07-.31,1,.1V261h-.2l-.16.37Z" transform="translate(-99.01 -169.43)" disabled="disabled" style="pointer-events: none;"></path>
    <path name="Caldas" data-id="227" id="path7918" class="cls-1" d="M152.26,266.9l-.12-.44.27-.3.09-.41-.09-.15v-.71l-.36-.3,0-.33.25-.21v-.44l-.42.21-.28-.23-.08-.59.19-.14.15-.76-.7-.39-.25-.39-.48,0-.33.29v.4l-.24.27h-.24l-.08-.17-.2.08-.14.13h-.36v.33l-.34.24,0,.38-.27.18-.14.71H148l-.46.61,0,.37-.29.35.07.51.55.53.17.4.15.15-.06.54-.31.36.14.41,0,.35.75.73.24-.54.23-.14.41.51.26-.14v-.46l1-.77.68.32.62-.95Z" transform="translate(-99.01 -169.43)" style="fill: rgb(210, 210, 230);"></path>
    <path name="Chiquinquira" data-id="231" id="path7926" class="cls-1" d="M152.84,267.32l.52-.46H154l.41-.57.41-.68h.7v.4l.38.36.28-.29.26-.61-.11-.6.36-.63h.55l.92.88,0,.19.36.1.94-.42.57.11.17.27.13-.34h.21l.08-.51h0l-.25-.34.1-.17,1.1-.9.8-1.14-.72-.51-.27,0-.28.21-1.11,0-.5-.63-.59-.15-.34,0-.29-.27-.53.25-.44.36h-.5l-.36.17h-.32l-.21-.3-.42-.16-.35,0-.22.16h-.14l-.67-.52-.07-.34-.73-.62-.32-.09-.19-.33,0-.73.25-.65v-.48l.21-.32-.31-.35-.47-.05-.12-.18h-.21l-.09.18-.63.19-.31.44,0,.36-1.26.31-.25-.06-.62,1.06-.21,0,.16.39.22.07.13.16-.05.49-.21,0,.17.29.21.07.14.17.51.1,0,.11h.28l.07-.31,1,.1V261h-.2l-.16.38.23.37.7.39-.15.76-.19.14.08.59.28.23.42-.21v.44l-.25.21,0,.33.36.3v.71l.09.15-.09.41-.27.3.13.45-.16.4Z" transform="translate(-99.01 -169.43)" disabled="disabled" style="pointer-events: none;"></path>
    <path name="La Brazagrande" data-id="261" id="path7227-6" class="cls-1" d="M243.13,268.76v-.38l-.69-1.07-.32,0-.23-.56.1-.25.32-.19,0-.4-.71-.48-.66.1-.77-.56-.09-.38-.59-.58h-.61l-.52-.28,0-.33.2-.39-.76-.56-.66-.08-.62-.67v-.29l.34-.2v-.09l-.34-.17-.11-.68-.13-.1v-.23l.28-.43.29-.12.08-.24-.16-.15,0-.1.23-.14,0-.22-.41-.08-.16.4-.72.4-.84-.06-.07-.11-.41.1-.25.37-.39.25-.27.53-.32.07,0,.34h.12l0,.25-.2.27v.42l-.14.06,0,.16.13.12-.18.27-.2-.26.1-.28-.27-.26h-.22l-.09.12-1.13,0v-.24l.17-.16-.38,0-.17-.58-.44-.19,0-.22-1.29-.85-.58-.16-.42-.34h-.85l-.46.11,0,.47.16.06,0,.46-.18.06.06.68-.12.39-.7.62,0,.21-.33.06-.43.39-.82.29-.22.32h-.17l-.08.49.2.08-.08.22-.18.11-.2.88-.23.23-.16-.06L223,265l0,.2.36.13.45.79-.17.81h.19l.11-.19,1,.56.29,0,0,.19-.35.8v.61l.27.17.17.24.69-.21.31,0,0,.35.33.55.4.16.43.44.12.53-.14.19v.52l.24.23.66,0,.4.56,0,.4-.32.22.07.23.19.17,0,.24-.19.18.17.17.63,0,1.31.66.74,0,.06.17.17,0,.49-.6h.42l.22.24.47-.1.38.15v.5l-.23.18,0,.52-.47.45.14.29.36.25v.32l1,.43.63-.8.36.1.95-.76.36-.07.87-1,.25-.46s.87-.64,1-.68a4.21,4.21,0,0,1,.56-.1l1-2,0-.87,1.13-.79.23,0,.47-.41a2.09,2.09,0,0,1,.11-.44,7.14,7.14,0,0,1,.83-.58Z" transform="translate(-99.01 -169.43)" disabled="disabled" style="pointer-events: none;"></path>
    <path name="Santa Maria" data-id="303" id="path7318" class="cls-1" d="M193.71,322.56l.25-1,1.33-1.17h.21l.61-.61,0-.33h-.51l-.29-.36.21-.16.08-.65-.46-.21-.25-.44,0-.57-1-.56-.38.21-.12-.13H193l-.26.15H192l-.34-.34,0-.42.7-.54h.88l.5-.56.19-.57.13,0,.08-.55-.63-.85-.29,0,0-.3-.59-.21-.23-.35.94-.5.24.06.86-.36.82-.92.44-.15v-.5l.29-.42-.46-.48-.46-.1v-.19l-.4-.44-.42,0-.3.31h-.33v.21l-.23-.06-.11-.59h-.36l0-.31.21-.06,0-.34h.21l.19-.23,0-.31-.19-.13.12-.44h.17l-.13-.35h-.23l-.17-.15,0-.71-.36-.21-.34,0-.4.3-1.47,1.65-.48.19-.69-.05-.66.44-.08.3-.44.44-.13.46-.23.19-.23.31v.63l.29.39-.1.32-.17.06-1.09,1.13-.09.46-.27,0-.34.44-.23.67-.38.71.09.57.46.27-.15.48-.48.36V316l.88.86.52.53.22.66.27.58.22.33-.27.54.46.5.36,0,.57.38.39-.05,1-1.08.3.17.41-.11.14.27.6.09.66-.22.41.27.47-.08.14.52-.52.6-.09.64-.33.74.47.46.22.61.3.19.75-.22Z" transform="translate(-99.01 -169.43)" style="fill: rgb(210, 210, 230);"></path>
    <path name="San Luis de Gaceno" data-id="298" id="path7329" class="cls-1" d="M194.66,323.71h.49l.36.3.6,0,.35.27.58.08.52.44,1-.66h.52l.32-.41.37.61.63.21.47-1,.52-.3.13-1.16.58-.57,0-.5.46-.55-.41-.41.63-1.1.71.53.52-.29.22-.21-.16-.24,0-.29.17-.11.11-.42-.39-.66-.25,0s.07-.24,0-.33l-.2-.33-.2-.4-.26-.15-.62-.46.16-.29-.42-.68.11-.49.35-.22v-.39s.2-.13.2-.24v-.49l.71-.66.15-.57.33,0,.09-.31-.22-.18-.09-.42.42-.13.31-.28-.07-.42.23-.09-.2-.37-.4-.75-.09-1.26.75-.9-.15-.81.48-1,.14,0,.33-.75-.27-.15,0-.33.24-.13,0-.43h-.22l-.42.26-.55,0-.38-.17-.08-.23h-.47l-.23.21.07.23-.4.23-.72.25-.54.5v.27h-.26l-.69.38,0,.38-.38.08h-.4l-.15.17.11.31-.17.13-.25,0,0,.25-.4.42-.4,0-.44.67,0,.42-.38.23-.86.12-.4.55-.09.35-.44.23-.29.44v.5l-.44.15-.82.92-.86.36-.24-.06-.94.5.23.35.59.21,0,.3.29,0,.63.85-.08.55-.13,0-.19.57-.5.56h-.88l-.7.54,0,.42.34.34h.75l.26-.15h.38l.12.13.38-.21,1,.56,0,.57.25.44.46.21-.08.65-.21.16.29.36h.51l0,.33-.61.61h-.21L194,321.53l-.25,1,0,.62Z" transform="translate(-99.01 -169.43)" disabled="disabled" style="pointer-events: none;"></path>
    <path name="Macanal" data-id="266" id="path6765" class="cls-1" d="M187.88,308.51l-.33-.47-.33-.23v-.15h-.46l-.55.33,0,.53-.49.37-.12-.1-.25.08-.24.44-.88-.12-.1-.95-.47-.69-.37,0-.44-.52.19-.49.38-.32.24,0,.66-.63v-1.07l.15-.4.28-.12.13-.31h-.28l-.26-.26v-.36l-.21-.19v-.74l-.38-.46-.31-.21.1-.35.46-.3.71-.06.4-.35,0-.34.38-.42.18.15.8,0,.47-.33h.29l.23.25.23-.17h.09l.21.26h.34l.33.39,0,1.15.54-.56.18-.09,1.38-1.52.12-1,.16-.07.11-.33.46.43.46,0,.38,1V300l-.21.19v.16l.44.28.11.46.42.14v.53l.21.14,0,.86-.49.61,0,1.19-.36,0-.4.3-1.47,1.65-.48.19-.69,0-.66.43-.08.3-.44.44-.13.46-.24.2Z" transform="translate(-99.01 -169.43)" style="fill: rgb(210, 210, 230);"></path>
    <path name="Chivor" data-id="245" id="path7311-5" class="cls-1" d="M185.2,315.32l.48-.36.15-.48-.46-.27-.09-.57.38-.71.23-.67.34-.44.27,0,.09-.46,1.09-1.13.17-.06.1-.32-.29-.39v-.63l.22-.31-.33-.46-.33-.23v-.15h-.46l-.55.33,0,.53-.49.37-.12-.1-.25.08-.24.44-.88-.12-.1-.95-.47-.69-.37,0-.44-.52-.54.1-.22.34h-.23l-.1-.18-.54.12-.19.4,0,.34-.42.37-.88,0-.44.11-.15.33-.31.22-.37,0-.49.4.94.6.77.17,1-.11.43.77.39,1.26.44.11.65.44-.16.6.88.5-.66.88.55.88.87.11,1.14.31Z" transform="translate(-99.01 -169.43)" disabled="disabled" style="pointer-events: none;"></path>
    <path name="Guayata" data-id="256" id="path7278" class="cls-1" d="M173.59,303.06l-.06.66-.66.71-.38.82-.77.83.06.44-.39.55.39.55.16,1,.55.77.44.06.38.71.77-.05.88-.17.71-.6,1,.05,1.09.77.22-.65.5-.41.37,0,.31-.22.15-.34-.18-.22-.33.16-.28-.23H178l-.14-.17.17,0,0-.34.16-.09.09-.33-.39-.17-.14-.85-.45-.12-.24.17-.19-.18,0-.47.29-.3v-.43l-.7-.63-.05-.29.21-.37-.41-.41H176l-.29.15-.95-.4-.5-.37Z" transform="translate(-99.01 -169.43)" style="fill: rgb(210, 210, 230);"></path>
    <path name="Guateque" data-id="255" id="path7267" class="cls-1" d="M176.41,298.53l.21.51-.09.23h-.31l0,.32-.26.2v.3l.95.74.24.87v.39l.31.2.61,0,.16.16v.29l-.4.11-.54.56h-.42l-.15.22-.42-.41H176l-.29.15-.95-.4-.49-.38-1-1.36.05-.77.39-.44,1.53-.61.55-.65.05-.3Z" transform="translate(-99.01 -169.43)" style="fill: rgb(210, 210, 230);"></path>
    <path name="Tenza" data-id="321" id="path6874" class="cls-1" d="M175.83,298.48l.07-.41.63.05.6-.28.61,0,.49-.27.36-.66.37-.14.94-1.71.62.09,1,.83.07.5.32.35.49,0-.29.87-.18,0v.41l.16.15-.47.91-.63,0-.07.2-.66-.12-.32-.38-.24.09,0,.56-.28.46-.55,0-.17.14-.52-.25v-.21l-.4-.41-1.09-.17-.21-.5Z" transform="translate(-99.01 -169.43)" disabled="disabled" style="pointer-events: none;"></path>
    <path name="Sutatenza" data-id="319" id="path6754-3" class="cls-1" d="M182,301.42l-.27-.46.1-.65-.22-.18-.12-.25.21-.09,0-.58-.65,0-.07.2-.66-.12-.32-.38-.24.09,0,.56-.28.46-.55,0-.17.14-.52-.25v-.21l-.4-.41-1.09-.16-.09.23h-.31l0,.32-.26.2v.3l.95.74.24.87v.39l.31.2.61,0,.16.16v.29l.26,0,.36-.55.37-.16.08-.24h.35l.08.09h.44l.21-.14.21,0,.07.14h.57l.76-.49Z" transform="translate(-99.01 -169.43)" disabled="disabled" style="pointer-events: none;"></path>
    <path name="Somondoce" data-id="313" id="path6746" class="cls-1" d="M179.11,308.34l-.32.15-.28-.23H178l-.14-.17.17,0,0-.34.16-.09.09-.33-.39-.17-.14-.85-.45-.12-.24.17-.19-.18,0-.47.29-.3v-.43l-.7-.63-.05-.29.21-.36.16-.23h.42l.54-.56.4-.11.26,0,.36-.55.37-.16.08-.24h.35l.08.09h.44l.21-.14.21,0,.07.13h.57l.77-.49.43-.15.33,0v.49l-.27.14-.07.49-.34.17-.17,1-.25.19-.25.7-.42.66-.7.55-.27.06-.56.86,0,.56.12.07v.29l-.34.34-.07.48Z" transform="translate(-99.01 -169.43)" disabled="disabled" style="pointer-events: none;"></path>
    <path name="Rimeida" data-id="" id="path6762" class="cls-1" d="M182.73,301.32l.24,0,.11.12h.33l.32.21.38.46v.74l.21.19v.36l.26.26h.28l-.13.31-.28.12-.15.4v1.07l-.66.63-.24,0-.38.32-.18.48-.55.11-.22.34h-.23l-.1-.18-.54.12-.19.4,0,.34-.42.37-.88,0-.44.1-.19-.22.07-.47.34-.34v-.28l-.12-.08,0-.56.56-.86.27-.06.7-.55.42-.66.25-.7.25-.19.17-1,.34-.17.07-.49.27-.14v-.48Z" transform="translate(-99.01 -169.43)" disabled="disabled" style="pointer-events: none;"></path>
    <path name="Garagoa" data-id="253" id="path6752" class="cls-1" d="M182.36,296.86l-.28.85-.18,0v.41l.16.15-.45.9,0,.59-.21.09.12.25.22.18-.1.65.27.45.44-.14.57.06.1.13h.34l.11-.35.46-.3.71-.06.4-.35,0-.34.38-.42.18.15.8,0,.47-.33h.29l.23.25.23-.18h.09l.21.27h.34l.33.39,0,1.15.54-.56.18-.09,1.38-1.52.12-1,.16-.08.1-.32-.35-.21.15-.22-.08-.44.12-.21-.32-.36-.17-.17.18-.25.27-.09.09-.24h.16l.54-.62.09-.87.33-.12-.32-.52.19-.21,0-.32h-.58l-.44-.44h-.6l-.2-.23h-.43l-.62-.2-.12-.19-.51.09,0,.14-.65.3-.63,0-.2.21-1.9.28-.4.37-.51,0-.27-.11-.27.33-.13,1.16-.76.93,0,.13.23.12-.3.32-.33.65Z" transform="translate(-99.01 -169.43)" style="fill: rgb(210, 210, 230);"></path>
    <path name="Campohermoso" data-id="228" id="path6728" class="cls-1" d="M196,309.13l-.45-.47-.46-.1v-.19l-.4-.44-.42,0-.3.31h-.33v.21l-.23-.06-.11-.59h-.36l0-.31.21-.06,0-.34h.21l.19-.23,0-.31-.19-.13.12-.44h.17l-.13-.35h-.23l-.17-.15,0-.71-.34-.21,0-1.19.49-.61,0-.86-.21-.14v-.53l-.42-.14-.11-.46-.44-.28v-.16l.21-.19v-.75l-.38-1-.46,0-.48-.45.63-.28.12-.2.56-.05.22.36.82.22H194l.48.41h.46l.32-.26h.61l.48-.49.58-.15.21.06.38-.13.15-.4.25-.15.14.09.37-.22.49-.57.27-.07.76-.78.13-.37.41.11.27.52.61.46.93,0,.4.29,0,.44.31.32,0,.14h-.23l-.21.21-.17.5.19.07-.08.46-.22.16v.42l-.27.27h-.25l-.17.4.15.23.19,0,.31.36.74.12.44.51-.25.52-.32.13.28.33.46-.06.63-.63.21,0,.57-.4.42,0,0,1.38.23.28-.27.2.19.23h-.21l-.42.26-.55,0-.38-.17-.08-.23h-.47l-.23.21.07.23-.4.23-.72.25-.54.5v.27h-.26l-.69.38,0,.38-.38.08h-.4l-.15.17.11.31-.17.13-.25,0,0,.25-.4.42-.4,0-.44.67,0,.42-.38.23-.86.12-.4.55-.09.35-.45.24Z" transform="translate(-99.01 -169.43)" style="fill: rgb(210, 210, 230);"></path>
    <path name="Paez" data-id="279" id="path7342" class="cls-1" d="M205.54,302.85l-.2-.26.27-.2-.23-.28,0-1.38-.42,0-.57.4-.21,0-.63.63-.46.06-.28-.33.32-.13.25-.52-.44-.51-.74-.12-.31-.36-.19,0-.15-.23.17-.4h.25l.27-.27v-.42l.22-.16.08-.46-.19-.07.17-.5.21-.21h.23l0-.14-.31-.32,0-.44-.4-.29-.93,0-.61-.46-.27-.53-.38-.09.06-.41.51-.81.21-.05.27-.6.23-.11V292h.18l.14.18.25,0,.39-.35.21-.41.25.05.33.5h.46l1-.62h.27l.37-.46v-.39l.86-1.52.48-.48,1.19.24.46.46.07.44.44.11.46-.57,1.11-.63h.44l.14.23.51.12-.16.52-.54.28-.12.62.09.25-.18.5h-.32l-.09.49-.25.13.19.28-.5.31-.32,0-.25.31.18.55.47.57.34.07.79.69h.24l.49.39v.47l.54.59.37.11.55-.42h.3l.2.26.14,2-1.71,1.37-.06.45.41.38-.07.25-.78.44L210,302l-.49.85-.4.35,0,.47-.3.22-.18-.08-.06-.22-.87-.73h-.53l-.34-.47-.52,0-.09-.26h-.22l-.13.19.18.08-.06.15h-.16l-.06.23-.3.08Z" transform="translate(-99.01 -169.43)" style="fill: rgb(210, 210, 230);"></path>
    <path name="Miraflores" data-id="268" id="path6771" class="cls-1" d="M197.61,287.57l.22.36.26,0,.11.34.65.62h.39l.14.21.46.09.67.64,0,.3-.12,0,0,.17.5,1,.4.13.11.47v.88l-.23.11-.27.6-.21.05-.51.81-.05.4h0l-.13.38-.76.78-.27.07-.49.57-.37.22-.14-.09-.25.15-.15.4-.38.13-.21-.06-.58.15-.48.49h-.61l-.32.26h-.46l-.48-.41h-.49l-.82-.22-.22-.36-.57.05-.11.2-.64.28-.33-.19.15-.22-.08-.44.12-.21-.32-.36-.17-.17.18-.25.27-.09.09-.24h.16l.54-.62.09-.87.34-.12.35,0,.17-.4-.12-.43-.28-.16v-.18l1-.34.47.06v-.42l-.57-.49v-.23l.3-.22-.07-.36-.42-.32-.08-.64-.17-.12v-.53l.37-.34.23-.83v-.49l-.15-.16.44-.25.87-.06v-.21h.31l.31.19.91-.09.1-.19.18,0,.82.48.26.31.2,0Z" transform="translate(-99.01 -169.43)" style="fill: rgb(210, 210, 230);"></path>
    <path name="Chinavita" data-id="230" id="path6901" class="cls-1" d="M183.65,293.55l.25-.33.27.11.51,0,.4-.37,1.9-.28.2-.2.63,0,.65-.3,0-.14.51-.09.12.19.62.2h.43l.43-.33v-.72l-.21-.11-.3-2.74-.56.06-.74.49-.39,0-.26-.28h-.25l-.53-.44v-.32l-.35-.21h-.28l-.28-.18,0-.42-.33-.11.09-.19.33,0,0-.55-.35-.07-.39-.65-.26,0-.67-.34v-.28l-.44,0-.19.27-.27-.09,0-.16-.23.07-.46.3-.74.2-1,1.09h-.24l-.36.5.23.7.42.09.18.5.4.12,0,.74.26.14.21.73-.3.35-.05,1.36.56.53H183l.25.28v.57l.43.36Z" transform="translate(-99.01 -169.43)" disabled="disabled" style="pointer-events: none;"></path>
    <path name="Ramiriquil" data-id="290" id="path5848" class="cls-1" d="M185.72,285.47l.4.65.35.07,0,.55-.33,0-.09.19.33.11,0,.42.28.18H187l.35.21v.32l.53.44h.25l.26.28.39,0,.74-.49.55-.06.43-.14v-.38l.13-.07v-.29L190,287h-.19l-.29-.11-.06-.25-.43-.32v-.91l-.31-.29-.08-.61-.35,0,.28-.36,0-.35.51-.31.13-.31.05-.54.32-.24-.29-.18,0-.28-.42-.54-.2-1.59-.26-.06-.19-.61-.44-.1-.21-.49-1.35-1.42-.15-.33.26-.2,0-.85-.58-.13-.08-.14.19-.08.38-1.19.48-.57-.21-.43-.34,0-.09.39-.34.26-.3.52-.39.38-.55,0,.16,1-.48.78-.58,1.48,0,.15-.11.13v.08l.16.14v.15l-.21.21v.16h.34l1.59.72,0,.1.65.16v.16l-.35.09-.42.26v.16l.33.06.74.77-.1.18-.87.21-.08.18.36.23.38,1.13.27.09.52.83.4.19-.1.3-.88.56-.46.17Z" transform="translate(-99.01 -169.43)" disabled="disabled" style="pointer-events: none;"></path>
    <path name="Tibana" data-id="322" id="path5850" class="cls-1" d="M181.18,286.57l-.34-.64-.79,0-.9.2-.65.49h-.41l-.21-.49,0-.25.26-.3-.05-.81-.25-.13.44-.35V284l.76-.56-.16-.3h-.42l-.07-.16-.6-.12v-.78L178,282l.25-.59.85-.71.13-.43.64-.68.16-.8-.2-.37h.72l.46.18-.24.26.29.67h.38l.46-.39.49.14.42.71-.15.34.16.23.41,0,.89.4.1.4.45.57.57,0,.38.24.38,1.13.27.09.52.83.4.19-.1.3-.88.56-.46.17-.25,0-.67-.34v-.28l-.44,0-.19.27-.27-.09,0-.16-.23.07-.46.3-.74.2-1,1.09Z" transform="translate(-99.01 -169.43)" disabled="disabled" style="pointer-events: none;"></path>
    <path name="Aquitania" data-id="217" id="path7539" class="cls-1" d="M211.42,288.63l-.08.23-.52-.12-.14-.23h-.44l-1.11.63-.46.57-.44-.11-.07-.44-.46-.46-1.19-.24v-.18l.35-.51.07-.43-.14,0V287l.35-.51.32,0,.07-.37-.39-.55-.54,0-.41-.42,0-.41-.26-.07v-.3l-.62-.32.05-1.13-.51-.66-.27,0-.46-.58,0-.12.33-.12.1-.18.46,0,.83-.65.4-1.14-.12-.27h-.65l-.45.24h-.35l-.15.15h-.15l-.14-.51.28,0,.74-.94h.27l.36-.29.17-.31.5-.08.19-.36-.34-.31v-.08l.41-.19,0-.62.26-.34h.38l.25-1.17.26-.33.07-.25-.27-.38V273l-.13-.12v-.16l.29-.2,0-.19.41-.15.12-.19.34-.1.19.24.45-.43.19-.9.34-.29,0-.58,1.41-1.14v-.28l.78-.73.43-.95v-.43l-.31-.27-.08-.29.44-.26.76-.51,0-.49.31-.11-.09-.29-.13-.15.13-.72.35-.23.07-.56.12,0,.15.25.65.48,1.12.22.19.15.83,0,1.64.56.64.34.15-.13.08-.32.7-1,.58-1.37.74-.79.43-.26.53.07.4.37,0,.42.27.23.22-.18.25.26.18,1-.07.5.2.08-.08.22-.18.11-.2.88-.23.23-.16-.06L223,265l0,.2.36.13.45.79-.17.81h.19l.11-.19,1,.56.29,0,0,.19-.35.8v.61l.27.17.17.24.69-.21.31,0,0,.35.33.55.4.16.43.44.12.53-.14.19v.5l-.34.21-.08.68-.17.22-.1.83-.49-.22-.1-.44-.32-.44.3-.24-.22-.13V272l.17-.32-.2-.57-.81-.24-.35-.2-.07.59-.59.56h-.3l-.91.47-.34.54-.84.44-.81.86-.07.46-.57.49-.25,1,.25.27-.37.37-.39,0-.35.27,0,.86,0,.27-.91.48,0,.29h-.36l-.45.29-.32.56L215.7,281l-.06.52-1,.76-.42.07-.39.35-.15.64.52.35-.5.46-.46.74.19.44-.48.31-.95-.21-.73.27.06.46-.23.22-.21,0-.57.23v.71l.63.81.31,0,.16.47Z" transform="translate(-99.01 -169.43)" disabled="disabled" style="pointer-events: none;"></path>
    <path name="Pajarito" data-id="281" id="path7554" class="cls-1" d="M235,278.08l-.48-.37-1-.44V277l-.36-.25-.14-.29.47-.45,0-.52.23-.18v-.5l-.38-.15-.47.1-.22-.24h-.42l-.49.6-.17,0-.06-.17-.74,0-1.31-.66-.63,0-.17-.17.19-.18,0-.24-.19-.17-.07-.23.32-.22,0-.4-.4-.56-.66,0-.25-.24-.33.2-.08.68-.17.22-.1.83-.49-.22-.1-.44-.32-.44.3-.24-.22-.13V272l.17-.32-.2-.57-.81-.24-.35-.2-.07.59-.59.56h-.3l-.91.47-.34.54-.84.44-.81.86-.07.46-.57.49-.25,1,.25.27-.37.37-.39,0-.35.27v.85l.8-.42,0,.22.7.5,1,.54.08.54,1.06,1.57.88.35v.15l.58.37.66.1.57.71-.05,1.08-.12.14.33.44.44.08,0,.12.52.21,0-.21,1-.41.11-.35.52-.23.12.06.33-.12.19-.44h.31l.69-.66-.06-.77.6-.47.27.06,0-.73,1.33-.74,0,.1.71.11.29-.38.69-.31.31.54.33.06.56-.62.36-.89-.5-.06Z" transform="translate(-99.01 -169.43)" style="fill: rgb(210, 210, 230);"></path>
    <path name="San Miguel de Sema" data-id="300" id="path7949" class="cls-1" d="M160.42,271.23h.27l.78-.8,0-.27.3,0,.31-.29,0-.21-.19-.15.28-.35h.27l.17-.19v-.42l-.34-.18h0l-.25.18h-.48l-.13-.27H161l-.59-.48,0-.5-.17-.11,0-.4.59-1.4,0-.79-.25-.12-.08.51h-.21l-.13.34-.17-.27-.57-.11-.94.42-.36-.1,0-.19-.92-.88h-.55l-.36.63.11.6-.26.61-.28.28.5.5,0,.46-.23.17L156,269v.77l.41.76,1.07.85,1.1-.52.51,1.19,1.16-.42Z" transform="translate(-99.01 -169.43)" disabled="disabled" style="pointer-events: none;"></path>
    <path name="Saboya" data-id="293" id="path6709" class="cls-1" d="M164.3,256l.08-.22-.13-.88-.29-.41-1.14-.46-.44-.33-.82-1-.43-.19v-.24l-.1-.1-.34.15-.09.3-.33.29-.81-.29-1.31,0-.26-.33-.45.08-.72.86-.08.94-1.15,1.69.28.63-.32.32-.51-.44-.08-.62-.47-.55-1-.17-1.76,1-.36.44-.58.32-.36-.31-.3.31-.29.57-.13.51.25.06,1.26-.31,0-.36.31-.44.63-.19.09-.18h.21l.12.18.47.05.31.35-.21.32v.48l-.25.65,0,.73.19.33.32.09.73.62.06.34.68.52H155l.21-.16.36,0,.42.16.21.3h.32l.36-.17h.5l.44-.36.53-.25.29.27.34,0,.59.15.5.63,1.11,0,.28-.21.27,0,.71.5.43-.4.44-.65v-.84l.29-.41-.06-.72.78-1.13.25-.08.15-.56v-.79Z" transform="translate(-99.01 -169.43)" disabled="disabled" style="pointer-events: none;"></path>
    <path name="Santa Sofia" data-id="305" id="path7939-9" class="cls-1" d="M166.81,252.5l-.08.68-.26.44.06.29-.14,1-.48.45-.19.9-.44.34-.37,0-.24-.23V257l.46.39.4-.05.49.43h.27l.19-.17.23.05,0,.37.15.23h.69l.3.25.73.07.34.27h.75l-.12-.45.18-.69.25.11.52-.9-.16-1-.34-.09,0-.56-.41-.81-.16-1.52.23-.54h.18l0,.22.45.09.07-.25-.5-.49h-.56v-.18l.16-.18-.19-.19h-.33l-.18-.29-.41.09-.31.47-1,.38h-.29l-.21.34Z" transform="translate(-99.01 -169.43)" disabled="disabled" style="pointer-events: none;"></path>
    <path name="Tinjaca" data-id="324" id="path6781" class="cls-1" d="M166.49,265.63l-.53.26-.19.49-.59.55h-.46l-.63.46-.06.33-.59-.23.23-.33-.27,0-.46.43-.36.07-.27.73-.25.17h-.48l-.13-.27H161l-.59-.48,0-.5-.17-.11,0-.4.59-1.4,0-.79-.25-.13-.25-.33.1-.17,1.1-.9.77-1.13.42-.39.53.41,0,.29.25.27-.38.17.17.19.57.27.27-.12h.3l.23.14.23-.42.23-.06.15-.21.65.25.27.67.36,0-.11.93-.31.25.12.33.26.19-.07.47Z" transform="translate(-99.01 -169.43)" disabled="disabled" style="pointer-events: none;"></path>
    <path name="Raquira" data-id="291" id="path7982" class="cls-1" d="M160.62,272.21l-.24.77,1,.16.79.77,1-.93.24,1-.24.5,1.75.68.33.74.6-.24.91.33.57.54.39-.89.33.05.67-.56V275l-.49-.24,0-.09.36-.13-.23-.24-.13-.58.2-.1v-.21h-.4l0-.16.47-.4,0-.28.48-.34.08.13.22,0,.1-.16.14,0,0,.2.32,0,.1-.24.23-.06v-.32l.21-.24,0,.16.5,0,.55-.36v-.45l.24-.17v-.3l-.55-.1-.15-.3-.2,0-.21.21-.32,0-.14-.14h-.24l0-.27.46-.15.34-.38H171l.08-.33.64-.24-.25-.47-.32-.05-.58-1.09-1-.39-.07-.6.51-.84,0-.51-.38-.39-1,.2-.63.43-.23.29-.88.43-.33,0-.53.26-.19.49-.59.55h-.46l-.63.46-.06.33-.59-.23.23-.33-.27,0-.46.43-.36.07-.28.71.35.19V269l-.17.19h-.27l-.28.35.19.15,0,.21-.31.29-.3,0,0,.27-.78.8h-.27l-.15.4Z" transform="translate(-99.01 -169.43)" disabled="disabled" style="pointer-events: none;"></path>
    <path name="Sutamarchan" data-id="318" id="path6787" class="cls-1" d="M169.35,261.93l.19.62V263h-.19l-.1.27.26.16,0,.85-1,.19-.63.43-.23.29-.88.43-.33,0,.07-.47-.26-.19-.12-.33.31-.25.11-.93-.36,0-.27-.67-.65-.25-.15.21-.23.06-.23.42-.23-.14h-.3l-.27.12-.57-.27-.17-.19.38-.17-.25-.27,0-.29-.52-.41.46-.68v-.84l.29-.41-.06-.72.78-1.13.25-.08.15-.56V257l.45.4.4-.05.49.43h.27l.19-.17.23.05,0,.37.15.23h.69l.3.25.73.07.34.27h.75l0,.65.29.33,0,.91-.59.88v.4" transform="translate(-99.01 -169.43)" disabled="disabled" style="pointer-events: none;"></path>
    <path name="San Eduardo" data-id="296" id="path6804" class="cls-1" d="M206.51,288.46v-.18l.35-.51.07-.43-.14,0V287l.34-.51.33,0,.07-.37-.4-.55-.53,0-.41-.42,0-.41-.26-.07v-.3l-.62-.32,0-1.13-.5-.66-.27,0-.4.36-.37,0-.19-.18-.39.14-.18.34.07.32-.21,1.54-.92,1.06-1,.78-.34.09,0,.67-.23.18,0,.76.16.07-.07.46.14.07.16-.14.39,0-.16.12.21.25.16-.25.35.18v.16l.41.16v.21l.23.09.19-.16.23.25,0,.21.39.12.3.48-.21.27-.6.1-.14.13.05.28.25.05.33.5h.46l1-.62h.27l.37-.46v-.39l.86-1.52.48-.48Z" transform="translate(-99.01 -169.43)" style="fill: rgb(210, 210, 230);"></path>
    <path name="Zetaquira" data-id="337" id="path6777" class="cls-1" d="M204.19,279l.14.52h.15l.15-.15H205l.45-.24h.65l.12.27-.4,1.14-.83.65-.46,0-.1.18-.33.12,0,.12.46.58-.4.36-.37,0-.19-.18-.39.14-.2.35-1.41.7-.49.07-1.31,1.11h-.37l-.51,1-.72.53v.37l-.57.5,0,.35-.2,0-.26-.31-.82-.48-.18,0-.1.19-.91.09-.31-.19h-.31v.21l-.87.06-.44.25.15.16V288l-.23.83-.37.34v.53l.18.12.07.64.42.32.07.36-.3.22v.23l.57.49v.42l-.47-.06-1,.34V293l.28.16.12.43-.17.4-.36,0-.32-.52.19-.21,0-.32h-.58l-.44-.44h-.6l-.2-.23.43-.34v-.72l-.21-.11-.3-2.75.42-.13v-.38l.13-.07v-.29L190,287h-.19l-.29-.11-.06-.25-.43-.32v-.91l-.31-.29-.08-.61-.35,0,.28-.36,0-.35.51-.31.14-.33.42-.18.36,0,.16-.14h.16l-.06.47.3.29.07-.18h.91l.48-.33,0-.3.35,0,.1.44,0,0,.27-.2.25-.42.6-.29h.15l.47-.53.56,0,.26-.17-.12-.12.12-.47.23,0,.67-.51,0-.36.33-.07.15.09.32-.43H197l.1-.13-.23-.17,0-.29.39-.17.28.17.26-.3.46-.11.31-.18.19.12v.25l.16.15v.34l.39.08.55.52h.3l.16-.23h.23l.26-.36,1.4-.92h.24l.61.49,0,.3.33.39.14-.19.21,0,.44-.47Z" transform="translate(-99.01 -169.43)" style="fill: rgb(210, 210, 230);"></path>
    <path name="Berbeo" data-id="220" id="path6802" class="cls-1" d="M202.52,291.38l-.21.41-.39.35-.25,0-.14-.18h-.18v0l-.12-.47-.4-.13-.5-1,0-.16.12,0,0-.3-.67-.64-.46-.09-.14-.21h-.39l-.65-.62-.11-.34-.26,0-.23-.36,0-.35.57-.5v-.37l.72-.53.51-1h.37l1.31-1.11.49-.07,1.43-.7.07.31-.21,1.54-.92,1.06-1,.78-.34.09,0,.67-.23.18,0,.76.16.07-.07.46.14.07.16-.14.39,0-.16.12.21.25.16-.25.35.18v.16l.41.16v.21l.23.09.19-.16.23.25,0,.21.39.12.3.48-.21.27-.6.1-.14.13.05.28Z" transform="translate(-99.01 -169.43)" style="fill: rgb(210, 210, 230);"></path>
    <path data-id="" id="path7460" class="cls-1" d="M178.79,233.51l-.52-.36-.47-.16-1-1-.52,0-.87-.51-.19-.33-.51,0-.85.4-.11.23.2.24-.19.48-.66.62-.06.5-.18.28-.06.48-.12.3-.17.2.13.07.07.33.72.92.81,0,.14.52.72.52-.23.29.16.22h.6l.53-1.18,1.39-1.25V235l.57-.81.63-.13.61-.45Z" transform="translate(-99.01 -169.43)" disabled="disabled" style="pointer-events: none;"></path>
    <path name="Santana" data-id="302" id="path7458" class="cls-1" d="M179.54,233.62l.22-.17.44,0,.15.15-.18.32.82.79-.05.19.39.47.78.59-.08.53.18.17.32.13.13.6.21.22h.22l.22.18-.15.48v.52l-.3.42v.55l.14.11v.49l-.4.21-.08.77-.38.27-.12.36.18.1,0,.61-.56.21-.2.39.17.11,0,.29-.26.48-.48.36V245l-.46.25h-.58l-.06-.25-.47-.08-.57-1h-.31l-.12-.27-.6-.23-.09-.15,0-.45-.41-.43H177v-.13l.64-.56v-.79l-.37-.11-.09-.31-.33-.09-.14-.16.2-.31-.13-.27-.56-.41-.34.05-.72-.38-.12-.3.07-.4.32,0,.16-.43h0l.54-1.17,1.39-1.25V235l.57-.81.63-.13.62-.45Z" transform="translate(-99.01 -169.43)" style="fill: rgb(210, 210, 230);"></path>
    <path name="Chitaraque" data-id="234" id="path7478" class="cls-1" d="M172.65,235l.07.33.72.92.81,0,.14.52.72.52-.23.29.16.22h.6l-.17.42-.32,0-.05.4-.49.14-.11.4-.81.59-.27-.12-.59.43-.18.4-.67.3h-.41l-.16.33-.85-.15-.3-.3-1,0-.22.24-.33-.16.1-.71-.05-.38.14-.2v-.6l.2-.23-.07-.29.17-.42.37-.39h.14l.33-.23,1-.5.14-.37.2-.3.24-.07.39-.43.28-.46.22-.28Z" transform="translate(-99.01 -169.43)" style="fill: rgb(210, 210, 230);"></path>
    <path name="San Jose de Pare" data-id="297" id="path7485" class="cls-1" d="M178.8,243.92h-.31l-.12-.27-.6-.23-.09-.15,0-.45-.41-.43H177v-.13l.64-.56v-.79l-.37-.11-.09-.31-.33-.09-.14-.16.2-.31-.13-.27-.56-.41-.34.05-.72-.38-.12-.29-.47.13-.11.4-.81.59-.27-.12-.59.43-.18.4-.67.3h-.41l-.16.34.43.13.41,0,.56.43.07.81-.45.87-.59.09.16.31.79.41.24.67.16.09.32-.18.27.14,0,.29.36,0,.25.83.63.16.32.38.49.5.14.62.22.23H177l.22.25.46-.23.07-.43-.24-.1.06-.2.51-.34v-.51l-.3-.3.23-.36.52-.13.82-.52Z" transform="translate(-99.01 -169.43)" style="fill: rgb(210, 210, 230);"></path>
    <path name="Togui" data-id="327" id="path7493-2" class="cls-1" d="M166.75,252H167l1-.38.31-.47.41-.09.18.29h.35V251l.45-.58h.18l.52.63.54,0,.54.65.27,0,.16-.27.29-.06.09.13.48.07.27-.83.29,0,.4.63.61.12v.47l.25.31.11-.67.34-.32.16-.56.38-.09-.38-.4H175l-.27-.63-.77-.43-.18-.49.23-.07.25.12-.12-.43-.49-.34.22-.13,1.31.4,0,.34-.27.13.09.23h.93l.81.44.55-.77,0-.51-.22-.26h-.81l-.22-.23-.14-.62-.49-.5-.32-.38-.63-.16-.25-.83-.36,0,0-.29-.27-.14-.32.18-.16-.09-.24-.67-.79-.41-.16-.31.59-.09.45-.87-.07-.81-.56-.43-.41,0-.43-.13-.85-.16-.3-.3-1,0-.22.24-.33-.17-.55,1-.33.45-.44.3h-.19l-.33.16-.43.53-.3.24-.15,0-.11.21.11.41.25.24,0,.68.84.61.69.09.34.56.12,1-.18.07-.35,1-.7,1.13-.19,1.12-.23.87-.22.36.11.61Z" transform="translate(-99.01 -169.43)" style="fill: rgb(210, 210, 230);"></path>
    <path name="Moniquira" data-id="271" id="path6834" class="cls-1" d="M170,257.76l.22.29.23.67.67.07.52-.16.68,0,.88-1.41.31-.16,0-.65-.18-.18.13-.29.82-.24.47-.32.29-.9-.27-.45-.52,0,0-.52.61-.67,0-.43-.21-.13-.22-.29v-.47l-.61-.12-.4-.63-.29,0-.27.83-.48-.07-.09-.13-.29.06-.16.27-.27,0L171,251l-.54,0-.52-.63h-.18l-.45.58v.36l.17.18-.16.18v.18h.56l.5.49-.07.25-.45-.09,0-.22h-.18l-.23.54.16,1.52.41.81,0,.56.34.09.16,1-.52.9Z" transform="translate(-99.01 -169.43)" style="fill: rgb(210, 210, 230);"></path>
    <path name="Gachantiva" data-id="251" id="path7501" class="cls-1" d="M176.85,250l.62.09.9,1,.87.26.25.62-.19.27.28.14,0,.3-.3.23.28.41.43-.22.67,0,.05.19,1,.35.27.36.47.09.59.41-.13.26h-.17l-.27.66.25.43H183l.43.49,0,.57.3,0,.24-.21.35.23.08.5.34.31,0,1-.27.28-.49,0-.34.24-.45-.14-.45,0-.25-.18-.24-1.41-.35-.28-.46-.12-.16-1.06-.25.1-.05.23-.43,0-.1.21h-.58l-.32.29-.56-.45h-.22l-.59-.4-.24-.58-.35,0v-.14l-.37.09-.6.64-.36,0,0-.32h-.7l-.41.32-.43,0-.2.23-.24-.73.47-.31.29-.9-.27-.45-.52,0,0-.52.61-.67,0-.43-.16-.09.09-.69.34-.32.16-.56.38-.09-.38-.4H175l-.27-.63-.77-.43-.18-.49.23-.07.25.12-.12-.43-.49-.34.22-.13,1.31.4,0,.34-.27.13.09.23h.93l.81.44Z" transform="translate(-99.01 -169.43)" disabled="disabled" style="pointer-events: none;"></path>
    <path name="Arcabuco" data-id="218" id="path6800" class="cls-1" d="M179.46,257.08l-.56-.45h-.22l-.59-.4-.24-.58-.35,0v-.14l-.37.09-.6.64-.36,0,0-.32h-.7l-.41.32-.43,0-.2.23-.24-.73-.82.25-.13.29.18.18,0,.65-.31.16-.88,1.41-.68,0-.52.16-.67-.07-.23-.67-.21-.29-.26-.11-.18.69.12.45,0,.66.29.33,0,.91-.59.88v.35l.4-.18h1v.19l-.24.16v.56l.43.49h.48l0,.13-.12.28.3.4h.46l.78-.83.39.15.2.39.26.12,0-.28.33-.27,0-.19.47-.55h.13l.75-.41.1-.31.15-.13,0-.38-.29-.13-.13-.44.53-.61,0-1,.47-.37.85-.17.24.25.44.05.45-.46.35-.1.13-.47.62-.29.09-.16,0-.26Z" transform="translate(-99.01 -169.43)" disabled="disabled" style="pointer-events: none;"></path>
    <path name="Villa de Leyva" data-id="265" id="path6797" class="cls-1" d="M169.54,264.3l0-.83-.26-.16.1-.27h.19v-.49l-.19-.62.4-.19h1v.19l-.24.16v.56l.43.49h.48l0,.13-.12.28.3.4h.46l.78-.83.38.15.21.39.26.12.12.18h.31l0,.34-.23.08v.35l.7.51,0,.67.32.38-.71.94-.08.39h-.31l-.27.41h-.28l0-.15-.47.35-.52,0-.52.37-.25-.45-.32-.05-.58-1.09-1-.39-.08-.6.51-.84,0-.51-.39-.4Z" transform="translate(-99.01 -169.43)" disabled="disabled" style="pointer-events: none;"></path>
    <path name="Sachica" data-id="294" id="path6850" class="cls-1" d="M182.4,259.15h-.16v.33l.19.26-.52.63,0,.57-.81.53-.15.41,0,.33-.3.3h-.27l-.16-.16-.82.53-.55.2-1,1.18-.77,0-.26.35-.66,0-.92,1-.25.58-.32-.38,0-.67-.7-.51v-.35l.23-.08,0-.34h-.31l-.12-.18,0-.28.33-.27,0-.19.47-.55h.13l.75-.41.1-.31.15-.13,0-.38-.29-.13-.13-.44.53-.61,0-1,.47-.37.85-.17.24.25.44.05.45-.46.35-.1.13-.47.62-.29.09-.16,0-.25.32-.3h.58l.1-.21.43,0,.05-.23.25-.1.16,1.06.46.12.35.28.24,1.41Z" transform="translate(-99.01 -169.43)" disabled="disabled" style="pointer-events: none;"></path>
    <path name="Pisba" data-id="287" id="path7495" class="cls-1" d="M238.54,263l.14-.51h.18l.72-.75.23-.53h.25l.33-1.6-.17-.11.07-.23.72.06.15-.16L241,259v-.19l.33-.16.32-.61V257l.41-.88h.17l-.07.14.38.69v.29l.28.15.21.37-.07.22.2.24.15-.38,1.13-.24.36,0,0,.08.61.32,0-.26.13-.08.08-.24.49-.19,0,.15,1,.14v-.19l.91-.66.34.08,1.3-.08.26-.19h.44l.24-.24-.24-.27-.14-.7.24-.2.7-1.51.63-.53.31.1.57-.26.33-.19,0-.41-.67-.73-.41.13-.59-1.1-.29.33-.18,0-.15-.64-.27-.17-.46.17-.52-.21.13-.45-.15,0-.58.27-1.06-.09-.46-.47-.58-.17-.69-1-.31-.05-.29-.2-.73-.27-.12.12-.29,0-.17-.31-.9-.21-.73.13-.4.19H242l-.16-.25-.25.1-.3.34-.54.24-.3,1.63-.36.08-.64.77-.28.07-.08.4-.19,0-.14.24-1.37.2-.28.33v.16l-.78.61-.24.12-.31.64,0,.68-.46.61-.5,0-.12-.12-.26.13.22.23V255l-.22.83,0,.48-.12.09-.05.08.26,0,.29-.16.46.13.1.63.32.4.33,0,.33.77.29.11.4.08,0,.22-.23.14,0,.1.16.15-.08.24-.29.12-.28.43v.23l.13.1.11.68.34.17v.09l-.35.2v.29l.63.67.66.08.76.56Z" transform="translate(-99.01 -169.43)" style="fill: rgb(210, 210, 230);"></path>
    <path name="Paya" data-id="284" id="path6844" class="cls-1" d="M243.13,268.76l.68.06-.29-.51.4-.75.79-.72,0-.69.54-.45.4,0,.16-.19.65-.23.93.6.46,1,0,.45.5.29.1.36.34,0,.37.43,0,.27.48.08.39.71,1.33.62,1-.48V269l.27-.27,0-1.08-.35-.54.27-.22s0-1.08.06-1.2.5-.6.5-.6l-.35-1.14-.36-.65.46-.55.21.1.46-.37.58-.11.12-.43-.5-.37.25-.25.21-1.41-.44,0-.29-.5.23-.08,0-.48.42-.29h.42l.16.25.61.17.14-.87.77-1.08-1.29-1.53,0-.39h-.44l-.2-.19.2-.25-.12-.5-.29-.41-.5,0-.83-.52-.05-.35-.58.26-.31-.1-.63.53-.7,1.51-.24.2.14.7.24.27-.24.24h-.44l-.26.19-1.3.08-.34-.08-.91.66v.19l-1-.14,0-.15-.49.19-.08.24-.13.08,0,.26-.61-.32,0-.08-.36,0-1.13.24-.15.38-.2-.24.07-.22-.21-.37-.28-.15v-.29l-.38-.69.07-.14H242l-.41.88V258l-.32.61-.33.16V259l.2.15-.15.16-.72-.06-.07.23.17.11-.33,1.6h-.25l-.23.53-.72.75h-.18l-.13.51-.21.39,0,.33.52.28h.61l.59.58.09.38.77.56.66-.1.71.48,0,.4-.32.19-.1.25.23.56.31,0,.7,1.07v.38Z" transform="translate(-99.01 -169.43)" style="fill: rgb(210, 210, 230);"></path>
    <path name="Pachavita" data-id="278" id="path6876" class="cls-1" d="M182.38,296.84l-.5,0-.32-.35-.07-.5-1-.83-.61-.09-.07-.61-.44-.41,0-.39-.6-.42-.1-1,.25-.64.57-.52.11-.48.51-.32.88-1,0-.42.64-.43.4.11,0,.74.26.14.21.73-.3.35-.05,1.36.56.53H183l.25.28v.57l.42.34-.14,1.18-.76.93,0,.13.23.12-.3.32-.31.63Z" transform="translate(-99.01 -169.43)" disabled="disabled" style="pointer-events: none;"></path>
    <path name="La Capilla" data-id="262" id="path7187" class="cls-1" d="M176.31,292.73l.43-.25.42,0,.55-.32,1,0,.1,1.05.6.42,0,.39.44.41.07.6-.95,1.72-.37.14-.36.66-.49.27-.61,0-.6.28-.64-.05-.08-1.32-.47-.77L175,294.4l.32-.74.55-.6Z" transform="translate(-99.01 -169.43)" disabled="disabled" style="pointer-events: none;"></path>
    <path name="Umbita" data-id="334" id="path7169" class="cls-1" d="M173.74,287.68l.2-.34,0-.32.24-.26,0-.44.21-.23.14.12.64-.51.93-1.63.07-.35.39-.23h.65l.07-.3.51-.36.6.15.07.16h.42l.16.3-.76.56v.25l-.44.35.25.13.05.81-.26.3,0,.25.21.49h.41l.65-.49.9-.2.79,0,.35.65-.35.5.23.7.42.09.18.51-.64.43,0,.42-.88,1-.51.32-.11.48-.57.52-.25.62-1,0-.55.32-.42,0-.44.25-.47.33-.23-.36h-.76l-.51-.24-.18-.5L174,291l.28-.52-1-.36-.08-1.9Z" transform="translate(-99.01 -169.43)" style="fill: rgb(210, 210, 230);"></path>
    <path name="Nuevo Colon" data-id="275" id="path5857" class="cls-1" d="M177.83,282.83v-.75L178,282l.25-.59.85-.71.13-.43.64-.68.16-.8-.2-.38-.1-.17.33-.46-.15-.15.17-.42-.54-.52-.06-.66-.4,0-.17-.2-.23-.32-.23,1.36-.43.72-.27,0-.59.54-.35-.07-.22.21-.06.22-.29.06-.14.46-.33.75.44.49.17-.1.09,0,.4.93-.4.38v.4l-.28.18.44.21-.38.63-.13.63-.09.07.23.13.37-.22h.65l.07-.3.51-.36Z" transform="translate(-99.01 -169.43)" disabled="disabled" style="pointer-events: none;"></path>
    <path name="Turmeque" data-id="331" id="path7162" class="cls-1" d="M171.51,283.49l1.16,1-.14.66.41,1-.11.38.36,1.07.55.14.2-.34,0-.32.24-.26,0-.44.21-.23.14.12.64-.51.93-1.63.06-.37-.2-.12.09-.07.13-.63.38-.63-.44-.21.28-.18v-.4l.4-.38-.4-.93-.09,0-.17.1-.44-.49.33-.75.14-.45-.1-.29-.63-.28-.31.48.21.3-.07.28-1.05.66-.38.83-.39-.42-.42.13-.14.2-1,.15-.14.22-.62.25,0,.24.35.14-.13.43-.19.31,0,.32.35.1.18.58Z" transform="translate(-99.01 -169.43)" disabled="disabled" style="pointer-events: none;"></path>
    <path name="Sora" data-id="314" id="path6868" class="cls-1" d="M180.59,262.52h-.27l-.16-.16-.82.53-.55.2-1,1.18-.77,0-.26.35-.66,0-.92,1-.26.58.5.41.08.38.39.12L176,267l.81,0,.49-.45.24,0,.16.13.75-.53.89-.05.32.31.48-.38h.4l.09-.46.92-.8v-.44l-.65-.84v-.37l-.28-.17,0-.4Z" transform="translate(-99.01 -169.43)" disabled="disabled" style="pointer-events: none;"></path>
    <path name="Samaca" data-id="295" id="path7562" class="cls-1" d="M169,277.3l1.09-.73.1-.2.43-.28.21.19h.42l.66-.86.38,0,.52-.43.2.2.18,0,.66-.49h.5L175,274l.68.47.05.37.43.18.82-1.17h.28l.33-.46.05-.42.24-.18.2-.61.71-.38.16-.31.36-.39-.74-.13-1.11-1v-.36l-.17-.31-1.45-1-.53-.49.19-.43,0-.33-.08-.38-.49-.41-.71.94-.08.39h-.31l-.27.41h-.28l0-.15-.47.35-.52,0-.53.38-.63.25-.08.33h-.31l-.34.38-.46.15,0,.27h.24l.14.14.32,0,.21-.21.2,0,.15.3.55.1v.3l-.24.17v.45l-.55.36-.5,0,0-.16-.21.24v.32l-.23.06-.1.24-.32,0,0-.2-.14,0-.1.16-.22,0-.08-.13-.48.34,0,.28-.47.4,0,.16h.4v.21l-.2.1.13.58.23.24-.36.13,0,.09.49.24v.19l-.67.56-.33-.05-.38.87.58,0,.69.33,0,.37Z" transform="translate(-99.01 -169.43)" disabled="disabled" style="pointer-events: none;"></path>
    <path name="Cucaita" data-id="242" id="path6917" class="cls-1" d="M179.27,271.11l.5-.54H180l.65-.94-.13-.81-.67-.5,0-1.2-.23-.16.14-.58-.33-.31-.89.05-.75.53-.16-.13-.24,0-.49.45-.81,0-.17.23-.4-.13,0,.34-.19.43.53.49,1.45,1,.17.31V270l1.11,1,.72.14Z" transform="translate(-99.01 -169.43)" disabled="disabled" style="pointer-events: none;"></path>
    <path name="Tunja" data-id="215" id="path7491" class="cls-1" d="M185.1,264.52l.44.31.43-.16.48.22.42.5.29.05.1.51.16.19,0,.5-.37.44-.48-.08-.26.2,0,.87.18.12,0,.22-1,.24-.14-.28-.27.08-1,1.57,0,.42.41.14-.12.53-.69.56,0,.12-.41,0-.57.52-1,.45h-.41L181,273l0,.23-.13.16-.32-.18-.27.07-.24.29-.85-.16-.51-.36v-.23l-.56-.39-.08-.22.7-.37.16-.31.35-.38.49-.54H180l.65-.94-.13-.81-.67-.5,0-1.2-.23-.16.14-.59.47-.37h.4l.7.32.47,0,.22.14.18-.26.27-.06v.06l1.11.16.38-.36.31,0v-.27l.6-.58.31-.63Z" transform="translate(-99.01 -169.43)" disabled="disabled" style="pointer-events: none;"></path>
    <path name="Jenesano" data-id="259" id="path5942-4" class="cls-1" d="M185.23,282l-.59,0-.45-.57-.1-.4-.89-.4-.41,0-.16-.23.15-.34-.42-.71-.49-.14-.46.39H181l-.29-.67.24-.26-.46-.18h-.72l-.1-.18.33-.46-.15-.15.17-.42-.54-.52-.06-.66.41-.38,1.14-.37h.32l.28-.14h.15l.33.36,0,.6.14.07.83-.38,1-1,0-.2.32,0,.16,1-.48.78-.58,1.48,0,.15-.11.13v.08l.16.14v.15l-.21.21v.16h.34l1.59.72,0,.1.66.16v.16l-.36.09-.42.26v.16l.33.06.74.77-.1.18-.87.21-.08.17Z" transform="translate(-99.01 -169.43)" disabled="disabled" style="pointer-events: none;"></path>
    <path name="Ventaquemada" data-id="335" id="path7531" class="cls-1" d="M168.64,277.49l-.22.72-.19.6.19.44,0,.91,0,1.18-.25.63,1.2,1.23.94-.22,1.13.51.23-.32-.18-.58-.35-.1,0-.32.19-.31.13-.43-.35-.14,0-.24.62-.25.14-.22,1-.15.14-.2.42-.13.39.42.38-.83,1.05-.66.07-.28-.21-.3.31-.48.63.28.1.29.29-.07.06-.22.22-.21.35.07.59-.54.27,0,.43-.72.23-1.37,0-.21.49-.42.23-.5.67-.8-.86-.16-.51-.36v-.23l-.56-.39-.08-.22-.21.62-.24.18-.05.43-.33.45H177l-.82,1.17-.43-.18-.05-.37L175,274l-.61.73h-.5l-.66.49-.18,0-.2-.2-.52.43-.38,0-.66.86h-.42l-.21-.19-.43.28-.1.21-1.09.72-.39-.11Z" transform="translate(-99.01 -169.43)" disabled="disabled" style="pointer-events: none;"></path>
    <path name="Boyaca" data-id="223" id="path5876" class="cls-1" d="M185.72,273.79l-.3.54-.39.38-.54,0-.33-.05,0,.2-1,1-.83.38-.14-.07,0-.6-.33-.36h-.15l-.28.13H181l-1.14.38-.42.38-.39,0-.17-.2-.24-.32.05-.22.49-.42.23-.5.68-.82.22-.27.27-.07.32.18.13-.16,0-.23.25-.16h.41l1-.45.57-.52.41,0,.29.07.24-.18h.25l.24.31L185,272l.18.12.06.68-.28.55.07.12.53,0,.2.35Z" transform="translate(-99.01 -169.43)" disabled="disabled" style="pointer-events: none;"></path>
    <path name="Soraca" data-id="316" id="path6936" class="cls-1" d="M186.7,273.63l-.21-.43-.34,0-.09.39-.33.25-.21-.36-.53,0-.07-.12.28-.55-.06-.68L185,272l-.28.05-.24-.31h-.25l-.24.18-.29-.08,0-.11.69-.56.12-.53-.41-.14,0-.42,1-1.57.27-.08.14.28,1-.24,0-.22-.18-.12,0-.87.26-.2.5.08.13.54.6.21.1.68.75.12,0,.36.32.13.16.53-.62.69,0,.53-.1.38-.44.37-.45.09-.57.75,0,1-.18.2Z" transform="translate(-99.01 -169.43)" disabled="disabled" style="pointer-events: none;"></path>
    <path name="Cienaga" data-id="236" id="path5956" class="cls-1" d="M192.59,276.21l-.53.54-.12.36-.47.49-.07.44-.57.45h-.22l-.24-.19h-.08l-.08.33-.58.56-1,.59-.26-.05-.19-.61-.44-.1-.21-.49-1.35-1.42-.15-.33.26-.2,0-.85-.58-.13-.08-.14.2-.08.37-1.19.47-.57.49.49-.52.61-.23.09.21.29h.68l.46.28.74.06.14-.14.48.09.24.31h.42l.61.43h.31l.46-.21,1.25.1.16.18Z" transform="translate(-99.01 -169.43)" style="fill: rgb(210, 210, 230);"></path>
    <path name="Chita" data-id="233" id="path5851" class="cls-1" d="M248.8,235.94c0,.21,0,.53,0,.63a2.51,2.51,0,0,0,.27.53v1l-.38.25,0,.49-.58.56v.23l.21.66-.1.38-.23,0-.57.43-.14.79-.23.31,0,1.39.46.26-.42,0-.43-.09-.32.15-1-.15-.07-.12-.36.18-.21-.48-.16-.6-.22-.22-.12-.41-.78-.43-.55-.56-.18-.78-.63-.13-.69-.25-.44.44-.64.34-.61-.14-.45-.43-.24-1-.39-.53-.26-1.08-.51-.22-.8-1.52-.05-.5.5-.88,0-.29-.48-.28-.18-.62.08-.56.27-.1.39-.91-.12-1.22.19-.76.69-.23.13-.65,0-.86-.39-.11-.5-.89-1.13-.32-.4-.58.85-1.53.67-.69.23-.87.37-.2.43-1.09.84-.48.14-2,.18-.54.7-.67.9-.25,1.15.28.73,1.26.32-.28.81.57,1.38.42.61-.15.49.53-.33.54.1.72-.68.58.27.23v.89l-.63.91-.1.6-.56.23.18.66.4,0,.37-.31.79.41-.33.68.15.73,1.1.43.31.58-.25.48-.12.6-.5-.06-.21.33.4.83.37.08.21.43.81.07.54-.29a5.49,5.49,0,0,0,.56.25c.11,0,.06.25.06.25l1.19.6.44,0,.08.46-.29.19.06.6-.5.23-.35.45-.42-.12-.83.66-.58.1-.13.44.36.81Z" transform="translate(-99.01 -169.43)" style="fill: rgb(210, 210, 230);"></path>
    <path name="Combita" data-id="237" id="path7533" class="cls-1" d="M182.45,254.22l.59.41-.13.26h-.17l-.27.66.25.43H183l.43.49,0,.57.3,0,.24-.21.35.23.08.5.34.31,0,1-.27.28-.49,0-.37.23.08.47-.3.16,0,.3.3.36v.55l-.3.16.22.32.34,0-.06.48-.18.08,0,.22.61.59.5.16v.6l.34.66.43.31.41-.14,0-.59.31-.46.08-.44.64-1,.31-.14,1.21-1.07.1-.46.69-.54.3,0,.13-.53,0-.13.21-.06.3-.72-.11-.43-.42-.08-.08-.37.35-.28,0-.39-.53-.42-.48.23,0,.11-.89.47v-.33l-.4-.45-.05-.32-.5-.21-.56-1-.35-.1-.37-.8-.09-.56-.81-.38-.14-.22.17-.18-.52-1.55-.4-.2-.07.35-.39.25-.82,1.25v.54l-.74.73Z" transform="translate(-99.01 -169.43)" disabled="disabled" style="pointer-events: none;"></path>
    <path name="Sotaquira" data-id="315" id="path6669" class="cls-1" d="M188.88,247.76,188,248h-1.46l-.06-.16-1,.15-.08-.1-.62.25-.28.71-.1.66.17.13-.35.38-.2,1,.39.19.52,1.55-.17.18.14.22.81.38.09.56.37.8.35.1.56,1,.5.21.05.32.4.45v.33l.89-.47,0-.11.48-.23.54.42,1.08-.19,1.1-.48.52-.87,1.22-.65.08-.08.13,0,.07.28.53.32v.31l.52.33.3-.06.07-.22,1.33-.26.13,0,.1-.3-.19-.08.14-.24v-.23l-.28-.13-.53,0-.19-.26.24,0,0-.26-.33-.17-.07-.23-.23-.06-.07-.28.35-.21v-.17l-.17-.15v-.28s.24,0,.26-.1.08-.59.08-.59l-.17-.08-.09-.18.66-.07.33-.44.17-.5.76-.42.68-1.36-.21-.41,0-.41.25-.16v-.33l-.36,0-1.64.21-.16.32-.19-.17-1.14,0s-.07.36-.21.39l-.41.09-.11.5h-.26l-.39.46h-.26l-.37.27h-.88l-.52.29-.85.22-.48-.64,0-.48-.62-.08,0-.38L190,248l0-.24-.76-.32Z" transform="translate(-99.01 -169.43)" disabled="disabled" style="pointer-events: none;"></path>
    <path name="Rondon" data-id="292" id="path5986" class="cls-1" d="M198.52,278.57l.26-.56.47-.41v-.21l-.4-.29-.22-.81-.68-.52,0-.46.55-.67.55-1.26,0-.52.31-.42-.64-.08-1-.82-.07-.3-1.12.3-.21.25-.83.42h-.38l-.16.28-.45.28-.55.1-.45.39-.05.36-.29.45.26.32-.1.69-.47.48-.12.54-.11.11-.53.53-.12.36-.47.49-.07.44-.57.45h-.22l-.24-.19h-.08l-.08.33-.58.56-1,.59.18,1.6.42.54,0,.28.29.18-.32.24-.05.53.43-.19.36,0,.16-.14h.16l-.06.47.3.29.07-.18h.91l.48-.33,0-.3.35,0,.1.44,0,0,.27-.2.25-.42.6-.29h.15l.47-.53.56,0,.26-.17-.12-.12.12-.47.23,0,.67-.51,0-.36.33-.07.15.09.32-.43H197l.1-.13-.23-.17,0-.29.39-.17.28.17.26-.3.46-.11.28-.17Z" transform="translate(-99.01 -169.43)" style="fill: rgb(210, 210, 230);"></path>
    <path name="Virachaca" data-id="336" id="path5959" class="cls-1" d="M193.43,273.62l-.79-.09a6.9,6.9,0,0,0-.54-.58c-.06,0-1-.1-1-.1L190,272l-.08-.28-.69-.07v-.53l-.36-.23-.35,0-.1.37-.44.37-.45.09-.57.75,0,1-.19.21.49.48-.52.62-.23.08.21.29h.68l.46.28.74.06.14-.14.48.09.24.31h.42l.61.43h.31l.46-.21,1.25.1.16.19.11-.11.12-.54.47-.48.1-.69-.26-.32.3-.46Z" transform="translate(-99.01 -169.43)" disabled="disabled" style="pointer-events: none;"></path>
    <path name="Mongua" data-id="269" id="path6922" class="cls-1" d="M234.37,254.44l-.15-.34-.07-.28.22-.12,0-.26-.21-.1-.1-.1.15-.15,0-.39-.36-.34.26-.22,0-.6-.19-.11,0,.3-.35.43h-1l-.31.21-.62.07-.14-.12-.08.32-.36.19-.13-.14.17-.16.12-.54-.3-.07v-.08l-.58-.21-.32,0-.45-.29-.39.08,0,.19h-.13l-.08-.16-.13,0-.2.16h-.38l-.36-.16-.71.24-.37.46-.78.18-.33,0,0-.07-.2.11-.95-.06,0-.13-.49,0-.1.15-.73,0,0,.15-.52.15-.62-.05-.15-.38h-.08l0,.13-.43.27-.24,0-.37-.42h-.21l0,.14-.25-.12-.36.4-.11.4s-.35.13-.39.16-.4.42-.4.42l-.26.1-.06.54-.21.34.2.14,0,.82.23,0,.11-.19.14.07.1.22.33.08,0,.24.25.17.51,0v.19l-.17.13.21.15v.32l-.28.1,0,.2.62.35,0,1.1-.39.41v.17l.28.11,0,.14.4.09.15.23.39.09.35.29.05.26.53.08.4.37,0,.42.27.23.22-.18.25.26.19,1.05h.17l.22-.32.82-.29.43-.39.33-.06,0-.21.7-.62.12-.39-.06-.68.18-.06,0-.46-.16-.06,0-.47.46-.11H228l.42.34.58.16,1.29.85,0,.22.44.19.17.58.38,0-.17.16v.24l1.13,0,.09-.12h.22l.27.26-.1.28.2.26.18-.27-.13-.12,0-.16.14-.06v-.42l.2-.27,0-.25h-.12l0-.34.32-.07.27-.53.39-.25.25-.37.41-.1.07.11.84.06.72-.4.16-.4-.28-.11-.33-.77-.33,0-.32-.4-.1-.63-.46-.13-.29.16-.26,0,.05-.08.12-.09,0-.48.22-.83v-.35l-.21-.21Z" transform="translate(-99.01 -169.43)" style="fill: rgb(210, 210, 230);"></path>
    <path name="Pesca" data-id="286" id="path6930" class="cls-1" d="M204.19,279l-.44.46-.21,0-.14.19-.33-.39,0-.3-.61-.49h-.24l-1.4.92-.26.36h-.23l-.16.23h-.3l-.55-.52-.39-.08v-.34l-.16-.15v-.25l-.21-.12.25-.55.47-.41v-.21l-.4-.29-.22-.81-.68-.52,0-.46.55-.67.55-1.26,0-.52.31-.42-.17-.3-.23-.52-1.14-1.19.26-.13V270l.23-.19.29-.26.21-.44.81-.5.07-.61.61-1v-.76l.71-1.42.45-.19.07-.21-.15-.12.32-1.4.14-.13,0-.4-.09-.4-.43-.53.38-.19.3.08.29.61.16-.09-.18-.56.18-.24.15,0,0-.22.32-.23.15,0,0,.37.45.3v.18l1,.08.38.3.2.08,0-.2.4-.15.56-.74.62,0,.13.36-.19.27v.12l.26.19.12-.07h.24l.15.24-.2.3-.35.38-.12.73.16.16v.28l-.3.28-.34.09,0,.41,0,.41.23.14-.32.39-.3.09-.81,1-.29.76-.24.31-.43,1.12-.17,1.23-.47.61-.14.07-.09.33,0,.53-.18.14.22.47.16,0-.53.81,0,.68.27.42,0,.88-.08,0-.07.15-.08.11.45.21.65.11.16.29.45.25.7,1,0,.37-.17.41-.77,1-.28,0Z" transform="translate(-99.01 -169.43)" disabled="disabled" style="pointer-events: none;"></path>
    <path name="Oicata" data-id="276" id="path6946" class="cls-1" d="M192,261.93v.28l-.25.57-.46.16-.18.42-.33.44,0,.4.27.08-.08.31-.87.5h-.91l-.1-.26-.31,0-.48.42-1.2.21-.26-.05-.42-.5-.49-.23,0-.56.31-.46.08-.44.64-1,.31-.14,1.21-1.07.1-.46.69-.54.3,0,.13-.52.42.42.44.14,0,.32-.16.06.06.75.77.64.22-.12.41.26Z" transform="translate(-99.01 -169.43)" disabled="disabled" style="pointer-events: none;"></path>
    <path name="Motavita" data-id="272" id="path6848" class="cls-1" d="M185.1,264.51l-.31.64-.61.58V266l-.3,0-.38.36-1.11-.16v-.06l-.27.06-.18.26-.22-.14-.47,0-.7-.32.09-.46.92-.8v-.44l-.65-.84v-.37l-.28-.17,0-.4.3-.3,0-.33.15-.41.81-.53,0-.57.52-.63-.19-.26v-.33h.16l.25.18.45,0,.42.13.08.47-.3.16,0,.3.3.36v.55l-.3.16.22.32.34,0-.06.48-.18.08,0,.22.61.59.5.16v.6l.33.65Z" transform="translate(-99.01 -169.43)" disabled="disabled" style="pointer-events: none;"></path>
    <path name="Chivata" data-id="235" id="path6934" class="cls-1" d="M187.16,265.44l.1.51.16.19,0,.5-.35.43.13.56.6.2.1.68.76.12.47,0,.43-.55.2.08.34-.08.26-.54.43,0,0,.24.36.3.49-.06.14-.39.32-.09.17-.87-.18-.46-.43-.29-.34-.1-.26-.28.32-.22.57-1,0-.48.66-.68.77-1.13-.26,0-.42.16-.38-.16-.13-.6-.22.27,0,.35v.28l-.25.57-.46.16-.18.42-.33.44,0,.4.27.08-.08.31-.87.5h-.91l-.1-.26-.31,0-.48.42-1.17.21Z" transform="translate(-99.01 -169.43)" disabled="disabled" style="pointer-events: none;"></path>
    <path name="Toca" data-id="326" id="path6952" class="cls-1" d="M198.3,269.76l.29-.26.21-.44.81-.5.07-.61.61-1v-.76l.71-1.42.45-.19.07-.21-.15-.12.32-1.4.14-.13,0-.41-.77,0-.74-.56-.19,0L200,262l-.38,0-.61-.26-.14-.26-.18,0-.14.2-.61,0-.45.4-.26-.22-.44,0-.25.34-.5-.34-.36-.52-.45-.31v-.48l-.16-.12-.34.32h-.37l-.26.63-.53.22-.09.37-.78,1.16-.66.68,0,.48-.57,1-.32.22.26.28.34.1.43.29.19.47.38,0,.19.22.05.33.24,0,.21-.22.21,0,.36.44.19-.11.35.07.08.48,1.11.76.71-.09.24.28,1.23.4.47.58Z" transform="translate(-99.01 -169.43)" style="fill: rgb(210, 210, 230);"></path>
    <path name="Siachoque" data-id="308" id="path6914" class="cls-1" d="M193.42,273.62l-.78-.09a6.9,6.9,0,0,0-.54-.58c-.06,0-1-.1-1-.1L190,272l-.08-.28-.69-.07v-.53l-.36-.23-.35,0,0-.54.62-.69-.16-.53-.32-.13,0-.36.47,0,.43-.55.2.08.34-.08.26-.54.43,0,0,.24.36.3.49-.06.14-.39.32-.09.18-.86.38,0,.19.22.05.33.24,0,.21-.22.21,0,.36.43.19-.11.35.07.08.48,1.11.76.71-.09.24.28,1.23.4.47.57-.23.2v.35l-.26.13,1.14,1.19.23.52.17.3-.64-.08-1-.82-.07-.3-1.12.3-.21.25-.83.42h-.38l-.16.28-.45.28-.55.1-.45.39-.05.35Z" transform="translate(-99.01 -169.43)" disabled="disabled" style="pointer-events: none;"></path>
    <path name="Tuta" data-id="332" id="path6904" class="cls-1" d="M196.89,255.44l-1.33.26-.07.22-.3.06-.52-.33v-.31l-.53-.32-.07-.28-.13,0-.08.08-1.22.65-.52.87-1.1.48-1.09.19,0,.39-.35.28.08.37.42.08.11.43-.3.72-.21.06,0,.13.42.43.44.14,0,.32-.16.06.06.75.77.64.22-.12.41.26H192l0-.35.22-.27.13.6.38.16.42-.16.26,0,0,0,.08-.36.53-.22.26-.63h.37l.34-.32.16.12V261l.45.31.36.52.5.34.25-.34.44,0,.26.22.45-.4.61,0,.14-.2.18,0,.14.26.61.26.38,0,.22-.26.19,0,.74.56h.77l-.08-.4-.43-.53.38-.19-.14-.45-.59-.17-.53-.4,0-.34-.22-.22,0-.52-.83-1.26-1.63-1.37-.67-.35-.18-.7Z" transform="translate(-99.01 -169.43)" disabled="disabled" style="pointer-events: none;"></path>
    <path name="Paipa" data-id="280" id="path7361" class="cls-1" d="M194.67,238.09l-.06-.28-.38.11-.25.49-1.11.78v.86l.37.51-.35.15-.13.23.3.15-.19.49-.38,0a2.75,2.75,0,0,0-.13.66l-.88.89h-.43l-.56.72-.28,1L190,245l-.15.58-.5.21-.1.9.24.11-.07.35-.24.27.76.32,0,.24-.26.19,0,.38.62.08,0,.48.48.64.85-.22.52-.29h.88l.37-.27h.26l.39-.46h.26l.11-.5.41-.09c.14,0,.21-.39.21-.39l1.14,0,.19.17.16-.32,1.64-.21.36,0v.33l-.25.16,0,.41.21.41-.68,1.36-.76.42-.17.5-.33.44-.66.07.09.18.17.08s-.07.48-.08.59-.26.1-.26.1v.28l.17.15v.17l-.35.21.07.28.23.06.07.23.33.17,0,.26-.24,0,.19.26.53,0,.28.13v.23l-.14.24.19.08-.1.3-.13,0,.18.7.67.34,1.63,1.38.83,1.26,0,.52.24.23.2-.17.14-.3.55-.29.29,0,.42-.22.16-.33.45-.4.5-.21.05-.44.22-.14.07-.53-.51-.19-.34-1.07,0-1.5.33-.24.27-.81.39-.38-.29-.2-.15-.15-.33,0-.21.15,0,.14-.18.11-.38-.16v0l-.22-.08-.12-.32,0-.36H202l0-.56-.16-.16-.08-.2.2-1.64-.33-1-1-.81-.12-.39-1.14-.57-.11-.34.24-.12.24.08.34-.67-.22-.63-.93-.5-.38-.49-.23,0-.12-.25.62-.33v-.45l-.34-.21,0-.11.18-.12-.11-.24-.55-.14-1-.73-.41,0-.07-.29.23,0,.09-.37-.32-.55-.36-.08-.1-.15v-.53l-.32-.2v-.13l.12-.43Z" transform="translate(-99.01 -169.43)" disabled="disabled" style="pointer-events: none;"></path>
    <path name="Duitama" data-id="246" id="path7438" class="cls-1" d="M203.84,239.58l.94.94-.13,1,.84.45.2.47-.35.63,0,.42.73,1,0,.3-.14.2.32,1,.4.22-.05.29-.15,0-.45.77,0,.82.36.12-.2.49.44.35.33-.35.18,0,.11.72.45.45-.21.3-1-.05-.13-.15-.2.15-.19,1.1-.25.19-.13.49-.35.13,0-.1h-.25l-.43.31,0,.31-.3.1-.16-.21-.25.11-.09.09-.3-.19-.15-.15-.33,0-.21.15,0,.14-.18.11-.38-.16v0l-.22-.08-.12-.32,0-.36H202l0-.56-.16-.16-.08-.2.2-1.64-.33-1-1-.81-.12-.39-1.14-.57-.11-.34.24-.12.24.08.34-.67-.22-.63-.93-.5-.38-.49-.23,0-.12-.25.62-.33v-.45l-.34-.21,0-.11.18-.12-.11-.24-.55-.14-1-.73-.41,0-.07-.29.23,0,.09-.37-.32-.55-.36-.08-.1-.15v-.53l-.32-.2v-.13l.12-.44.17.37,1.22.76-.06.61.71.5,2.42,0,.69-.44.57,0,.07.24.91.68.37-.31v-.54l.83-.84Z" transform="translate(-99.01 -169.43)" disabled="disabled" style="pointer-events: none;"></path>
    <path name="Tibasoca" data-id="323" id="path6224" class="cls-1" d="M210.43,256.21l.13-.2-.11-.18.14-.52,0-.46.3-.37-.27-.16-.15-.23-.35-.08-.12.2h-.19l-.17-.22-.52-.25-.27-.44,0-.58-.13-.15.06-.21-.15-.15h-.27l-.18-.41-.21-.09,0-.29-.12-.05-.17-.68.05-.28-.26-.2-1-.06-.13-.15-.2.15-.19,1.1-.25.19-.13.49-.35.13,0-.1h-.25l-.43.31,0,.31-.3.1-.16-.21-.25.11-.1.1-.39.38-.27.81-.33.24,0,1.5.34,1.07.51.19-.07.53-.22.14-.05.44.34-.06.34-.34.31,0,.46-.5v-.53l.52-.6h.42l.13,0,.94-.07.08-.15.56.26.65-.13,1.06.13.25.56.29,0,.17-.11h.2l.2-.18.34,0Z" transform="translate(-99.01 -169.43)" disabled="disabled" style="pointer-events: none;"></path>
    <path name="Sogamoso" data-id="312" id="path6923" class="cls-1" d="M222,260.64l-.05-.27-.35-.29-.39-.09-.15-.23-.42-.09-.5.46-.51.17-.53.38h-.27l-.38-.28.09-.23-.09-.13h-.17l0,.16-.31,0-.23-.42-.95-.77-.2-.49.15-.28-.23-.05-.27.44-.43-.18-.08-.34-.33-.13,0-.53.18-.11-.07-.31-.23-.23v-.46l.16-.24,0-.41-.24-.21-.31-.06.25-.2.12,0,.21-.19v-.6l-.38-.28v-.86l-.11-.35-.44-.13-.39.34-.92.1-.55.28-.16,0-.18-.14-.46,0-.55.36-.48.07-.33.25.15.24.27.16-.3.37,0,.46-.14.52.11.18-.13.21-.14.61-.39.43-.05.26-.38.63-.15,1.1-.32.44.2.1.05.37.27.31.13.41.27.34.42.13.22.31.47.23.29-.36.49.07.19.25.21,0,.24.43,1.56.15.11,0,.15.25.65.48,1.12.22.19.15.83,0,1.64.56.64.34.15-.13.08-.32.7-1,.58-1.37.74-.79.43-.26Z" transform="translate(-99.01 -169.43)" disabled="disabled" style="pointer-events: none;"></path>
    <path name="Topaga" data-id="328" id="path7002" class="cls-1" d="M218.44,254.69l.2-.34.06-.54.26-.1s.36-.39.4-.42.39-.16.39-.16l.11-.4.35-.38-.62-1-1-.44-.5-.11-.61.92-1.05.61-.79.34-.48-.06-.17.27.11.35v.86l.38.28.49-.38.05-.2.67.09.1.17v.23l.31.29h.4l.06-.11.27-.05,0,.12.59.16Z" transform="translate(-99.01 -169.43)" disabled="disabled" style="pointer-events: none;"></path>
    <path name="Santa Rosa de Viterbo" data-id="304" id="path7463-6" class="cls-1" d="M206.82,240.62l.05.24.17.11v.19l-.22.08,0,.47.44.1.24.29.45.11.06.1,1.24.21.15-.23.23,0,0,.08.52.17.06-.14.12,0,.18.23.27-.3h.2l.07.17.62.2h0l-.16.21,0,.48-.84.38-.44.54.05.31-.1.34-.19.07-.21.28,0,.33-.59,1-.36.21-.07.41.19.08v.2l.86.65.13.39.57.35.29,1-.17.19v.27l-.36.21-.26-.06v-.07l-.63.15-.1.11-.26-.1,0-.11-.34.07-.12.28-.17,0,0,.26.17.11-.12.28-.38.11,0-.18-.12-.05-.17-.68.05-.28-.25-.21.21-.3-.45-.45-.11-.72-.18,0-.33.35-.44-.35.2-.49-.36-.12,0-.82.45-.77.15,0,.05-.29-.4-.22-.32-1,.14-.2,0-.3-.73-1,0-.42.35-.63-.2-.47-.84-.45.13-1-.94-.94-.09-.17.18,0,.68.12.4.38,1.21,0,0,.19.4.17Z" transform="translate(-99.01 -169.43)" disabled="disabled" style="pointer-events: none;"></path>
    <path name="Boteitiva" data-id="221" id="path6949" class="cls-1" d="M218.69,239.29l.21.13.13.55,1.28.06.56.16.53.47-.38.13-.39.74V242l-.66.26.05.46.33.28-.4,1.07-.61.47H219l-.65.68,0,.32-.2.05-.13.17h-.58l-.16-.18h-.47l-.19.46-.39.29-.62-.09-.29-.22-.05-.22v-.47l-.45-.26-.7.09-.37-.16,0-.42-.68-.64v-.6l-.21-.23-.42-.07-.15-.27-.39-.33.08-.37.65-.81.25.13.92.2.34.36.15-.34h.2l.31-.21,0-.2.28,0,.16.28h.5l.31-.3.47,0,0,.11h.06l.19-.29-.34-.08-.05-.21.3-.17h.48l.52-.47.09-.54.3-.21.56-.06Z" transform="translate(-99.01 -169.43)" disabled="disabled" style="pointer-events: none;"></path>
    <path name="Tasco" data-id="320" id="path6969" class="cls-1" d="M230.49,243.44l.32.16h.28l.26-.25,0-.18.14-.06.25.3.18.52-.43.61-.26,1.87-.07.08-.1.54.18.25v.55l-.3.86-.47.35.08.48-.47,0-.12.22-1,.36-.6,0-1.15-.51v-.26l.2-.17,0-.45-1-.48-.22,0-.17.29-.52.23h-.3l-.71.43-.43,0-.37.27-.46,0-.14-.21-.1-.35-.23-.05,0-.19-.38-.34-.19,0L222,248v-.22l-.21-.16h-.19l-.1.05h-.53l-.29-.29-.43-.11-.39,0-.49-.47v-.35l-.28-.08-.16-.29v-.2l-.19-.27-.29-.05v-.33l.65-.68h.31l.61-.47.4-1.07-.33-.28-.05-.46.66-.26v-.46l.39-.74.4-.13.52-.59.44-.78.74-.52.66-.2.22.42-.19.19,0,.26,1,1.67.85.18.14.22-.53.44h-.4l-.15.42.57.53.79.46-.3.82,0,.58h.28l.33.33v.41l.43.35,0,.17.34,0,.29.27.28,0,.13-.16.38-.09,1.14-.82,0-.26.16-.07,0-.1-.41-.2,0-.09.13-.1.33-.79.58,0,0-.15.18-.06Z" transform="translate(-99.01 -169.43)" disabled="disabled" style="pointer-events: none;"></path>
    <path name="Sativa Norte" data-id="306" id="path6973" class="cls-1" d="M230.64,226l0,.17-.3.61-.42.11.16.33s-.22,1-.27,1.13a12.68,12.68,0,0,0-.37,1.24,1.34,1.34,0,0,1-.17.39l0,.37.08.11,0,.91.18.11,0,.66-.21.23-.55,0-.64.67h-.48l-1.24-1-.11-.3.12-.32-.71-.39h-.43l-.87.34h-1.12l-.13-.46-.17,0-.2.22-.14-.1-.06-.28h-.17l-.45.37-.37,0-.25-.25-.16,0-.06.16-.7,0-.21.25-.25.32v.28l-.28,0-.11-.26-.32,0,0-.3.19-.14V231l-.2-.26-.2,0-.12.21-.27,0-.42-.47.16-.1-.08-.38-.51-.1-.44-.47.2-.42.27.1.18-.4v-.17l.34-.59,0-.29.95-.17,0-.45.37-.33,1.19-.5.5.19.68-.06.34.27-.39.54v1l.41-.26.8.21.52-.46,1.74,0,.56-.44.63-.09.29-.7,1.15-.48,1.1.23,1.41-.12Z" transform="translate(-99.01 -169.43)" disabled="disabled" style="pointer-events: none;"></path>
    <path name="Paz de Rio" data-id="285" id="path6975" class="cls-1" d="M226.4,236.42l-.4-.08-1-1.13.38-.35,0-.6.17-.18v-.3l-.42-.51-.57-.06-1.17-.5-.16-.27-1.59,0L221,232v-.34l-.76-.39-.24.32v.28l-.28,0-.11-.26-.33,0-.08.35-.19.13,0,.67.22.1-.05,1,.2.12-.14.6-.33.33,0,.27.22.26-.12,1.19.07.17.34,0,.06.18.77-.54v.6l.23.12v.28l-.32.8h-.34l-.52.42-.08.21-.3.18h-.14l-.14.27.22.14.13.55,1.28.06.56.16.54.47.53-.59.44-.78.74-.52.66-.2.26-.33,1.12-.32,1.15-.85.09-.65Z" transform="translate(-99.01 -169.43)" disabled="disabled" style="pointer-events: none;"></path>
    <path name="Sativa Sur" data-id="307" id="path7018" class="cls-1" d="M226.4,236.42l.24-.53.42-.17.08-.35.18-.13.22.07.28-.2,0-.41,0-.2.27,0,.57-.37.37,0,.3-.5v-.39l.18-.33v-.39l-.21-.22-.55,0-.64.67h-.48l-1.24-1-.11-.3.12-.32-.71-.39h-.43l-.87.34h-1.12l-.13-.46-.17,0-.2.22-.14-.1-.06-.28h-.17l-.45.37-.37,0-.25-.25-.16,0-.06.16-.7,0-.22.26.76.38V232l.62.38,1.59,0,.16.27,1.17.5.57.06.42.51v.3l-.17.18,0,.6-.38.35,1,1.13.4.08Z" transform="translate(-99.01 -169.43)" disabled="disabled" style="pointer-events: none;"></path>
    <path name="Soacha" data-id="311" id="path7126" class="cls-1" d="M230.48,243.45l-.17.05,0,.15-.58,0-.33.79-.13.1,0,.09.41.2,0,.1-.16.07,0,.26-1.14.82-.38.09-.13.16-.28,0-.29-.27-.34,0,0-.17-.43-.35v-.41l-.33-.33h-.28l0-.58.3-.82-.79-.46-.57-.53.15-.42h.4l.53-.44-.14-.22-.85-.18-1-1.67,0-.26L224,239l-.22-.42.26-.33,1.12-.32,1.15-.85.09-.63.24-.55.42-.17.08-.35.18-.13.22.07.28-.2,0-.41,0-.2.27,0,.57-.37.37,0,.31-.5.4.1.31.87V235l.24.26v.15l-.24,0-.89,1.94v.33l.19.39.14,0,.29-.29.14,0v.23l.51.51.33.13v.88l-.4.39,0,1.54.49.66.07.39-.23.25.15.21-.32.17,0,.23Z" transform="translate(-99.01 -169.43)" disabled="disabled" style="pointer-events: none;"></path>
    <path name="Jeric" data-id="260" id="path7472" class="cls-1" d="M236.86,233.3l-.54-.78-.1-.41L236,232l-.34,0-.05-.77-.33-.15,0-.51.21-.11v-.2l-1.44-.13s-.28.1-.33.33l0,.23-.31,0-.28-.26-.36.46-.93.26-.31-.49-1,0-.36-.3-.57-.11-.21.2-.08-.11,0-.37a1.34,1.34,0,0,0,.17-.39,12.68,12.68,0,0,1,.37-1.24c0-.09.27-1.13.27-1.13l-.16-.33.42-.11.3-.61,0-.17.16-.8-.06-.78h1l.75.33.67-.22,1.33.78.92.24.61.62.4.58,1.13.32.5.89.39.11,0,.86-.13.65-.69.23-.19.76.12,1.22-.39.91-.27.1-.08.56Z" transform="translate(-99.01 -169.43)" style="fill: rgb(210, 210, 230);"></path>
    <path name="Firavitoba" data-id="249" id="path6976" class="cls-1" d="M210.43,256.21l-.34,0-.2.18h-.2l-.17.11-.29,0-.25-.56-1.06-.13-.65.13-.56-.26-.08.15-.94.07-.13,0h-.42l-.52.6v.53l-.46.5-.31,0-.34.34-.35.06-.49.21-.45.4-.16.33-.42.22-.29,0-.55.29-.14.3-.21.18,0,.32.53.4.59.17.14.45.3.08.29.61.16-.09-.18-.56.18-.24.15,0,0-.22.32-.23.15,0,0,.37.45.3v.18l1,.08.38.3.2.08,0-.2.4-.15.56-.74.62,0,.13.36-.19.27v.12l.26.19.11-.07.14-.31-.14-.15.14-.13.4.15.18-.16-.18-.22.24-.11.34.29h.3l.21-.36.55,0,.07-.2h.19l-.28-.32-.05-.37-.2-.1.32-.44.15-1.1.38-.63.05-.26.39-.43.14-.62Z" transform="translate(-99.01 -169.43)" disabled="disabled" style="pointer-events: none;"></path>
    <path name="Iza" data-id="258" id="path6927" class="cls-1" d="M212,261.85l-.09.37.15.49-.39-.13-.79.18-.53.33,0,.37-.62.6-.34.08-.38-.37h-.31l-.29.27-1,0-.42-.28v-.29l-.16-.16.12-.73.35-.38.2-.3-.15-.24h-.25l.14-.32-.14-.15.14-.13.4.15.18-.16-.18-.22.24-.11.34.29h.3l.21-.36.55,0,.07-.2h.18l.13.4.27.34.42.13.22.31.47.23.29-.36.49.07.19.25Z" transform="translate(-99.01 -169.43)" style="fill: rgb(210, 210, 230);"></path>
    <path name="Nobsa" data-id="274" id="path6943" class="cls-1" d="M213.61,250.67l-.51-.1-.3.21-.41-.25-.43-.06-.16.22h-.59l-.2-.28-.48-.1-.33.2-.26-.06v-.07l-.63.15-.1.11-.26-.1,0-.11-.34.07-.12.28-.17,0,0,.26.17.11-.12.28-.39.11,0,.11.21.09.18.41h.27l.15.15-.06.21.13.15,0,.58.27.44.52.25.17.22H210l.12-.2.34.07.34-.25.48-.07.55-.36.46,0,.18.14.16,0,.55-.28.92-.1.39-.34.44.12.17-.28.07-.75-.11-.23.33-.27,0-.26-.46-.27-.46.33-.19-.21-.53-.06-.15-.2Z" transform="translate(-99.01 -169.43)" disabled="disabled" style="pointer-events: none;"></path>
    <path name="Floresta" data-id="250" id="path6945" class="cls-1" d="M213.74,249.58l-.11.11,0,.47.21.1-.07.33-.18.08-.52-.1-.3.21-.41-.25-.43-.06-.16.22h-.59l-.2-.28-.45-.1V250l.17-.19-.29-1-.57-.35-.13-.39-.86-.65v-.2l-.19-.08.07-.41.36-.21.59-1,0-.33.21-.28.19-.07.1-.34-.05-.31.44-.54.84-.38,0-.48.15-.18.22-.21.4.33.15.27.42.07.21.23v.6l.68.64,0,.42.37.16.7-.09.45.26v.47l-.22.05-.33.27h-.34l-.39.35,0,.51-.21.13-.11.23.27.22v.24l-.44.45,0,.19.14,0,.15.64-.07.43" transform="translate(-99.01 -169.43)" disabled="disabled" style="pointer-events: none;"></path>
    <path name="Cerinza" data-id="229" id="path7588" class="cls-1" d="M208.82,237l.91.51,0,.4.42.18,0,.59.61.58.46,0,.23.46.4.05v.39l.49.45,0,.37.2.26-.64.81-.07.35-.24.23h0l-.61-.23-.07-.17h-.2l-.27.3-.18-.23-.12,0-.06.14-.52-.17,0-.08-.23,0-.15.23-1.24-.21-.06-.1-.45-.11-.24-.29-.44-.1,0-.47.22-.08V241l-.17-.11-.05-.24-.17-.29.07-.4.34-.16v-.36l.47-.57.16.07.46-.69-.15-.63.56-.27,0-.32Z" transform="translate(-99.01 -169.43)" disabled="disabled" style="pointer-events: none;"></path>
    <path name="Busbanza" data-id="226" id="path6965" class="cls-1" d="M213.73,249.58l.21.06.17-.3h.23l.23.24.65,0,.22-.16h.38l.66-1,0-.26-.2-.21.05-.17h.11l.37-.57-.09-.41-.41-.42-.62-.09-.29-.22-.06-.22-.21.05-.33.27h-.34l-.39.35,0,.51-.21.13-.11.23.27.22v.24l-.44.45,0,.19.14,0,.15.64-.08.46Z" transform="translate(-99.01 -169.43)" disabled="disabled" style="pointer-events: none;"></path>
    <path name="Corrales" data-id="239" id="path6939" class="cls-1" d="M218.38,245.53l.3.06.19.27v.2l.16.29.28.08v.35l.49.47.39,0-.1.4-.25.17-.06.68-.47.13-.55.63-.08.63-.45.25-.6,0,.17.53.26.19-.61.92-1.05.61-.79.34-.48-.07.07-.76-.11-.23.33-.27,0-.26-.46-.27-.46.33-.19-.21-.53-.06-.14-.19.18-.09.07-.33-.21-.1,0-.47.1-.11.21.06.17-.3h.23l.23.24.65,0,.22-.16h.38l.66-1,0-.26-.2-.21.05-.17h.11l.37-.57-.09-.41-.41-.42.39-.29.19-.46h.47l.16.18h.58l.13-.17.18-.05Z" transform="translate(-99.01 -169.43)" disabled="disabled" style="pointer-events: none;"></path>
    <path name="Socota" data-id="310" id="path6671" class="cls-1" d="M245,243.89l-.21-.48-.16-.6-.22-.22-.12-.41-.78-.43-.55-.56-.18-.78-.63-.13-.69-.25-.44.44-.64.34-.61-.14-.45-.43-.24-1-.39-.53-.26-1.08-.51-.22-.8-1.52-.05-.5.5-.88,0-.29-.48-.28-.18-.63-.54-.77-.1-.41L236,232l-.34,0-.05-.77-.33-.15,0-.51.21-.11v-.2l-1.44-.13s-.28.1-.33.33l0,.23-.31,0-.28-.26-.36.46-.93.26-.31-.49-1,0-.36-.3-.57-.11-.21.2,0,.91.18.11,0,.66-.2.23.2.22v.39l-.18.33v.39l.41.1.31.87V235l.24.26v.15l-.24,0-.89,1.94v.33l.19.39.14,0,.29-.29.14,0v.23l.51.51.33.13v.88l-.4.39,0,1.54.49.66.07.39-.23.25.15.21-.32.17,0,.22.32.16h.28l.26-.25,0-.18.14-.06.25.3.18.52-.43.61-.26,1.87-.07.08-.1.54.18.25v.55l-.3.86-.46.35.07.47.54.47.36.1.09.63-.18.13-.06.55.13.05.07.36-.2.22-.12.53-.17.16.13.14.36-.19.08-.32.14.12.62-.07.31-.21h1l.35-.43,0-.3.19.11,0,.6-.26.22.36.34,0,.39-.15.15.1.1.21.1,0,.26-.22.12.07.28.15.32.25-.13.12.12.5,0,.46-.61,0-.68.31-.64.24-.12.78-.61v-.16l.29-.33,1.36-.2.14-.24.19,0,.08-.4.28-.07.64-.77.36-.08.3-1.63.54-.24.3-.34.25-.1.16.25h.19l.4-.19-.1-.23.5-1.28-.12-.27.29-.27s.21.21.31,0a8,8,0,0,1,.87-1l.68-.34Z" transform="translate(-99.01 -169.43)" disabled="disabled" style="pointer-events: none;"></path>
    <path name="Tutaza" data-id="333" id="path7249" class="cls-1" d="M217.47,228.59l-.28.22-1.37-.05v-.21l-.19.07-.27.3.19.22,0,.51-.28.36-1.31-.07-.31.15,0,.35-.55.57-.19,0v-.13l-.4.19-.24.5.14.36.07.43-.09.19,0,.28.21,0,0,.13.55.74.33.06.44.68.27.08.21.37.86.16.24.73-.11,0v.49l.29.15.11.36.34.18.57.05.23.22.53,0,.23-.25.55-.17.22.17.16-.09,0-.25.34-.11.11-1.18-.22-.26,0-.27.33-.33.14-.6-.2-.12.05-1-.22-.1,0-.67.19-.13.1-.43h0l0-.22.19-.14V231l-.2-.26-.2,0-.12.21-.27,0-.42-.47.16-.1-.08-.38-.51-.1-.44-.47.2-.42.27.1.18-.4v-.17Z" transform="translate(-99.01 -169.43)" disabled="disabled" style="pointer-events: none;"></path>
    <path name="Belen" data-id="219" id="path7192" class="cls-1" d="M212.39,231.91l.07.43-.09.19,0,.28.21,0,0,.13.55.74.33.06.44.68.27.08.21.37.86.16.24.73-.11,0v.49l.29.15.11.36.34.18.57.05.23.22.53,0,.23-.25.55-.17.22.17.16-.09,0-.25.32-.1.08.17.34,0,.06.18.77-.54v.6l.23.12v.28l-.32.8h-.34l-.52.42-.08.21-.3.18h-.14l-.15.28-.54.06-.3.21-.09.54-.52.47h-.48l-.3.17.05.21.34.08-.19.29h-.06l0-.11-.47,0-.31.3h-.5l-.16-.28-.28,0,0,.2-.31.21h-.2l-.15.34-.34-.36-.92-.2-.25-.13-.21-.26,0-.37-.49-.45v-.39l-.4-.05-.23-.46-.46,0-.61-.57,0-.59-.42-.18,0-.4-.91-.51h-.23l.61-.64.47-.07.21-.64-.21-.09v-.31l.3-.13.16-.39-.13-.22.26-.32L210,234v-.22l.66-.19-.09-.4.23-.22.24.09.23-.17,0-.22.22-.28.24.06.34-.19-.15-.22v-.22l.35-.25Z" transform="translate(-99.01 -169.43)" style="fill: rgb(210, 210, 230);"></path>
    <path name="Tota" data-id="329" id="path6985" class="cls-1" d="M205.22,278h.26l.36-.29.17-.31.5-.08.19-.36-.34-.31v-.08l.41-.19,0-.62.26-.34h.38l.25-1.17.26-.33.07-.25-.27-.38V273l-.13-.12v-.16l.29-.2,0-.19.41-.15.12-.19.34-.1.19.24.45-.43.19-.9.34-.29,0-.58,1.41-1.14v-.28l.78-.73.43-.95v-.43l-.31-.27-.07-.29-.88.45h-.45l-.43.28-.1-.25-.46-.27-.66-.06-.87-.85-.51-.09-.45-.51-.43-.06-.2.13h-.39l0,.41.23.14-.32.39-.3.09-.81,1-.29.76-.24.31-.43,1.12-.17,1.23-.47.61-.14.07-.09.33,0,.53-.18.14.22.47.16,0-.53.81,0,.68.27.42,0,.88-.08,0-.07.15-.08.11.45.21.65.11.16.29.45.25.7,1,0,.37-.19.46Z" transform="translate(-99.01 -169.43)" disabled="disabled" style="pointer-events: none;"></path>
    <path name="Cuitiva" data-id="243" id="path6925" class="cls-1" d="M212.13,265.8l-.87.45h-.45l-.43.28-.1-.25-.46-.27-.66-.06-.87-.85-.51-.09-.45-.51-.43-.06-.2.13h-.38v-.41l.34-.09.3-.27.43.28,1,0,.29-.27H209l.38.37.34-.08.62-.6,0-.37.53-.33.79-.18.39.13-.15-.49.1-.38.2.05.24.43,1.56.15-.08.57-.35.23-.13.72.13.15.09.29-.31.11,0,.49-.76.51-.44.26Z" transform="translate(-99.01 -169.43)" disabled="disabled" style="pointer-events: none;"></path>
    <path name="Mongui" data-id="270" id="path7014" class="cls-1" d="M218.42,254.68l.21.15,0,.82.23,0,.11-.19.14.07.1.22.33.08,0,.24.25.17.51,0v.19l-.17.13.21.15v.32l-.28.1,0,.2.62.35,0,1.1-.39.41v.17l.28.11,0,.14-.52.46-.51.17-.53.38h-.27l-.38-.28.09-.23-.09-.13h-.17l0,.16-.31,0-.23-.42-.95-.77-.2-.49.15-.28-.23-.05-.27.44-.43-.18-.08-.34-.33-.13,0-.53.18-.11-.07-.31-.23-.23v-.46l.16-.24,0-.41-.24-.21-.31-.06.25-.2.12,0,.21-.19v-.6l.5-.38.05-.2.67.09.1.17v.23l.31.29h.4l.06-.11.27-.05,0,.12.57.15Z" transform="translate(-99.01 -169.43)" disabled="disabled" style="pointer-events: none;"></path>
    <path name="Gameza" data-id="252" id="path6967" class="cls-1" d="M218.07,250.81l-.26-.21-.17-.51.6,0,.44-.25.09-.63.55-.63.47-.13.06-.67.25-.18.09-.4.44.1.29.29h.53l.1-.05h.19l.21.16V248l.26.26.19,0,.38.34,0,.19.23.05.1.35.14.21.46,0,.37-.27.43,0,.71-.43h.3l.52-.23.17-.29.22,0,1,.48,0,.45-.2.17v.26l1.15.51.6,0,1-.36.12-.22.46,0,.55.47.36.1.09.63-.18.13-.06.55.13.05.07.36-.19.21-.31-.07v-.08l-.58-.21-.32,0-.45-.29-.39.08,0,.19h-.13l-.08-.16-.13,0-.2.16h-.38l-.36-.16-.71.24-.37.46-.78.18-.33,0,0-.07-.2.11-.95-.06,0-.13-.49,0-.1.15-.73,0,0,.15-.52.15-.62-.05-.15-.38h-.08l0,.13-.43.27-.24,0-.37-.42h-.21l0,.14-.26-.12-.62-1-1-.44-.5-.1Z" transform="translate(-99.01 -169.43)" disabled="disabled" style="pointer-events: none;"></path>


</svg>