<svg id="Capa_1" data-name="Capa 1" xmlns="http://www.w3.org/2000/svg" viewBox="0 0 124.16 88.9">
   <defs>
      <style>.cls-1{fill: #ebebef;;stroke:#fff;stroke-miterlimit:3.86;stroke-width:0.25px;}</style>
   </defs>
   <path data-id="338" name="Manizales" id="path3274" class="cls-1" d="M56.81,66.86l-.53.25v1.41l.2.21V69l-.75.63L55,69.46l-.48.12-.95-.14-.27-.4h-.31l-1.14-.82-.22-.07-.34.21-1.39.07-.5-.42-.47.07v.46l-1,.29-1.12-.5h-.2v.37l-.43.07-1.19-.42-1.21-.26h-1l-.6-.63L41.89,67l-.64-.17-.65.14-.17.12-.58-.3s-.39-.82-.49-.82H38.9l-1,.59.13.21-.13.56-.55.1-.39.42.24.09.41.54v.45l-1,.4.1.3.17.61-.48-.12-.27.19h-.37l-.29-.18L35.09,70l-.25.14.27.25-.22.73-.44.14-.6-.16-.66.23-.29.42-.41.31-.43.08-.3-.41h-.51L31,72l-.22-.47.37-.42L31,70.24l-.31-.42.09-.17V69.3h-.35l-.21-.42v-.47l.6-.73v-.42l-.29-.19,0-.21.37.07.31-.4-.26-.3-.68-.29-.39-.82-.34-.18-.46.28-.22-.28L29,64.8v-.26l-.22-.21-.15.25H28.3l-.24-.1h-.34v.35l-.29.21h-.08v-.28l-.17-.12-.29-.09-.1-.21-.29-.12-.75-.75h-.24l-.12.14h-.9l.39-.35L24.61,63l-.05-.35h-.17l-.07.3h-.54v-.36l-.07-.28.17-.23.46-.05.34-.42-.17-.26.54-.37-.24-.11-.09-.32h-.14l-.24.32-.19-.07-.24.09-.17-.19.26-.38V60l.3-.11v-.29l-.26.22-.25-.26.34-.25L23.84,59l.12-.31H23.7l-.22-.65-.31-.18.29-.41.27-.5.51-1.14.62-.41.31.45.92-.14.34,1.41,1.51-.43,1,.71,1.89-1h.78l1.36.71,1.45-.47V57l1.17.57v.75l-.14.7.77-.09.78.18.24.75.93.43.63-.52.34-.09.19-.33-.1-.28.39-.61.44.28,1-.52-.29-.42.24-.38.53.47h.81l.58,1.27.73-.19.63.47.39-.37.73-.1.39.19-.2.28,1.12.14v-.7l1.31-1,.48,0,.78-.47,1.07.24.87-.43.34.24h.78l.39-.19.44.09h.72l.44.33v.61l.24.19-.34,1.5.39.47.41.58,0,.08h-.43l-.37.26.22.33-.07.23-.27.19.07.3h-.51l-.09.18.12.17-.27.44-.19.85-.29.28-.17.52.36.32.32-.07.68.61-.2.38.22.26.51-.24h.24l.17.16.54.26.16.23h.68l.34.21Z" transform="translate(0.08 0.07)" style="fill: rgb(210, 210, 230);"></path>
   <path data-id="354" name="Palestina" id="path3266" class="cls-1" d="M30.53,69.22l-.19-.39v-.47l.6-.73v-.42L30.65,67l0-.21.37.07.31-.4-.26-.3-.68-.29L30,65.07l-.34-.18-.46.28-.22-.28.14-.14v-.26l-.22-.21-.15.25h-.31l-.24-.1h-.34v.35l-.29.21h-.17v-.28l-.17-.12-.29-.09-.1-.21-.29-.12-.75-.75h-.24l-.12.14h-.9l.39-.35L24.61,63l-.05-.35h-.17l-.07.3h-.54v-.36l-.07-.28.17-.23.46,0,.34-.42-.17-.26.54-.37-.24-.11-.09-.32h-.14l-.24.32-.19-.07-.24.09-.17-.19.26-.38V60l.3-.11v-.29l-.26.22-.25-.27.34-.24L23.84,59l.12-.31H23.7L23.48,58l-.33-.2-.26.47-.29.14L22,58.27l-.19.54-.42.14-.38-.05-.22.33-.13.42.39.94.17.38v.39l.22.26v.47l-1.33,1.27-.09.17.38.51-.29.82.19.59.29.28v.35l-.34.28.15.3V67l-.19.26.17.3.36.68.44.1.41.42V69l.27.26.34-.07.12.37v.57l.44.07.48.42.27.65.22-.11.51.09.24-.49-.22-.4h.61l.56.43,1.21-.07v.21l-.07.23.44.35.58-.09.22-.38.24.26h.24l.2-.28L29.3,71l.29-.36.54-.21.39-.63.09-.26v-.19Z" transform="translate(0.08 0.07)" style="fill: rgb(210, 210, 230);"></path>
   <path name="Chinchiná" id="path3340" class="cls-1" d="M26.12,74.11l-.54.31-.13,1-.92.22-1.24.19-.85-.18h-.57l-.41.18-.58-.38-.06-.31-.52-.06-.61-.72.07-.68-.32-.5.32-.31-.2-.19-.12-.38h-.2L19,71.87l.13-.38-.19-.31.06-.25-.32-.31-.06-.38-.36-.43v-.35L17.63,69V68.9l.38-.12.07-.19-.39-.22-.39-.47v-.4L17,67.21l-.17-.71.12-.56.59-.57.88-.61.69-.24.82-.68.22-.31.37.5-.29.82.19.59.29.28v.35l-.34.28.15.3V67l-.19.26.17.3.36.68.44.1.41.42V69l.27.26.34-.07.12.37v.57l.44.07.48.42.27.65.22-.11.51.09.24-.49-.22-.4H25l.56.43,1.21-.07v.21l-.07.23.44.35.58-.09.22-.38.24.26h.24l.2-.28.77-.07.29-.36.54-.21.39-.63.09-.26v-.16H31v.35l-.09.17.31.42.08.87-.37.42.22.47.29-.24H32l.3.4-.23.87.15.19h.61l-.05,1-.32.54.24.63-.29.49-.43.92-.32.52-.57-.5-.61,0s-.35-.4-.43-.4h-.24l-.12.29-.24,0-.24-.37.28-.48.07-.44-.21-.17v-.54l-.52-.28.22-.4-.11-.2-.21.06-.35-.2.16-.29.22-.11-.39-.21-.48.2L27.62,73l-.16.34-.54-.44-.45.3.34.08.28.34-.23.11-.46-.11Z" transform="translate(0.08 0.07)" style="fill: rgb(210, 210, 230);"></path>
   <path data-id="357" name="Risaralda" id="path3256" class="cls-1" d="M17.53,65.31l.87-.61.73-.26.82-.68.19-.27.11-.22L21.58,62v-.47l-.22-.26v-.39l-.17-.38-.38-.92-.51-.35-.54.24H19l-.75-.61-.29-1-.34-.09-.95-1.18-.43-.11V56.2l.59-.47h.36l.15-.19-.22-.24L17,54.81l-1.24-.26-1,.47-.05.31-.34.12-.68-.08-.87.43h-.27l-.27.21.2.38-.44.87-.46.19-.61.7-.29.28-.34-.23-.7.25-.3.43L8.84,59l-.3,1.16.08.29-.27.28-.48,2L7.72,63l.54.28.14.45h.2l.12-.21.41.19.1-.14.17-.31-.17-.33.14-.37.49-.21V62l.19-.1v-.07l-.48-.12.24-.28.17-.21h.2l-.13-.3.15-.12h.19v.33h.27l.17-.28.51.23.32-.21L12,61l.09-.45h.1l.36.24.17-.12-.21-.23L12,60.25l.12-.5-.49-.25.2-.29.31.15,1.07.28.48-.17.61.73.22.47.7.49h.13l.27.21-.25.31v1.43l-.24.23.14.4H15l-.51.49-.17.47v.14l.63.45,1.52-.12.53.66Z" transform="translate(0.08 0.07)" style="fill: rgb(210, 210, 230);"></path>
   <path data-id="360" name="San Jose" id="path3511-1" class="cls-1" d="M6.22,70.16V70l0-.11V68.59l.46-1.66L7,65.82l.32-2.53L7.57,63l.54.28.14.45h.2l.12-.21.41.19.1-.14.17-.31-.17-.33.14-.37.49-.21V62l.19-.1v-.07l-.48-.12.24-.28.17-.21H10L9.9,61l.15-.12h.19v.33h.27l.17-.28.51.23.32-.21.33.12.1-.45H12l.36.24.17-.12-.22-.23-.51-.21.13-.5-.49-.25.2-.29.31.14,1.07.29.48-.17.61.73.22.47.7.49h.28l.26.21-.24.31v1.43l-.24.23.14.4H15l-.51.49-.17.47v.14h-.63l-.75.35h-.63l-.46-.66-.15-.16-.8.65-.29.78v.44l-.73.89-.24.36-.46.32-.56.83L7.73,69,7.1,70l-.54.17-.36-.1Z" transform="translate(0.08 0.07)" style="fill: rgb(210, 210, 230);"></path>
   <path data-id="351" name="Neira" id="path3283" class="cls-1" d="M22.26,47v-.08l.88-.25.61-.44.62-.22.52-.49v.1l.44.31.48,1.69.42.34.2,1.72.48-.07.38.17-.14.46.45.27.17-.07h.76l.34.34.51-.37.79-.23.55.73.93.16,1,.73.38.37,1.23.06.48-.29.45-.07.3-.39.32-.07.34-.6.62.1.24.33.37.17.72-.47H39l.1-.33.89-.8h.36l.48-.46.79-.3,1.1.46.58.17.45.3a4,4,0,0,1,.48.07,8.81,8.81,0,0,1,1,.73l.68-.3.72.06.18-.59.58-.27.55-.83h.86l.17.4,1.27.93.61.27.42-.43.65.06.31.33.43.17.27.23.31.76.17.68.41.49.29.11.06.17.55.13.29-.2.27.4.31-.13,0-.39.48-.13.62,1,.6.07.29.58-.46,1L57,56.86l.3.37h.2l.17.48.11.5-.4.15v.28l.1.13v.61l-.71,1.1H56.6l-.31.23h-.43l-.24-.25-.38.09-.19.34-.4-.58-.39-.47.34-1.5-.24-.19v-.61l-.44-.33H53.2l-.44-.09-.39.19h-.73l-.34-.24-.87.43-1.07-.24-.78.47-.48,0-1.31,1v.7l-1.12-.14.2-.28-.39-.19-.73.1-.39.37-.63-.47L43,59l-.58-1.27h-.68l-.53-.47L41,57.6l.29.42-1,.52-.44-.28-.39.61.1.28-.19.33-.34.09-.63.52-.93-.43-.24-.75-.78-.18-.77.09.14-.7v-.75l-1.17-.57v-.37l-1.45.47-1.36-.71H31l-1.89,1-1-.71-1.51.43-.34-1.41-.92.14L25,55.16v-.32l-.24-.61L24.24,54l-.12-.23h-.44l-.22-.23h-.31l-.1.56-.24-.19-.2-.44-.22.07H22.1v-.77l-.17-.38-.08-.7-.14-.21-.61-.22v-.35l.49-.28.12-.16-.12-.12L21,50.16l-.1-.12.49-.93.76-.49L22,48.19l-.31-.35.07-.42.51-.4Z" transform="translate(0.08 0.07)" style="fill: rgb(210, 210, 230);"></path>
   <path data-id="340" name="Anserma" id="path3361-1" class="cls-1" d="M20.74,59.58l.14-.44.22-.33.38,0,.42-.14.19-.54.56.16.29-.14.28-.46.28-.38.29-.52.51-1.15.61-.4v-.35l-.24-.61-.56-.26L24,53.84h-.44l-.22-.23H23l-.1.56L22.68,54l-.2-.44-.22.07H22v-.77l-.17-.38-.08-.7-.14-.21L21,51.33V51l.49-.28.12-.16-.12-.12-.63-.16-.1-.12.62-1,.76-.49L22,48.19l-.31-.35.07-.42.53-.41-.46-.64-1,.13-.4-.13-1,.13-.26-.28-.52-.16-.49.19-.09-.51-.75-.34-.43-1.07-.39.12-.65.54-.1.38h-.26l-.49.1-.68-.06-.78-1.14-.26-.75-.62.25-.2.34.07.54L12,45l-.55-.16-.1.47-.68.6h-.52l-.3-.32-.19.19v.91l.32.48v.53l.3.7.48.56.75-.09.07.19.13,1.38-.49.7v.44l.42.31.1.6-.58.66L10.7,53l-.07.63.23.16-.49.66-.42.28-.13.54-.36.41.23.28-.36.38-.52.31.39.22L9,57.28v.13l-.16.82-.3.44.16.4L9.23,59l.3-.43.7-.25.34.23.29-.28.61-.7.46-.19.44-.87-.2-.38.27-.21h.26l.88-.43.68.08.34-.12.05-.31,1-.47,1.24.26.17.49.22.24-.15.19h-.36l-.59.47v.28l.43.11.95,1.18.34.09.29,1,.75.61h.73l.54-.24.49.35Z" transform="translate(0.08 0.07)" style="fill: rgb(210, 210, 230);"></path>
   <path name="Belalcázar" id="path5696" class="cls-1" d="M5.75,76l.16-.28.31-.27v-.3l.4-.53.25-.48-.07-.21-.22-.29-.29-.28L6.62,73l.09-.33-.06-.35h-.3l-.07-.19-.16-.07L6.39,72l-.06-.28.15-.46v-.16L6.21,71v-.13l-.16-.44.19-.23.33.09.54-.17.63-1,.87-.35.56-.83.46-.32.24-.36.73-.89v-.44l.29-.78.8-.65.15.16.46.66h.63l.75-.35h.67l.63.45,1.52-.12L17,66l-.16.58H16.5l-.42.43-.45.32v.9l-.65.44h-.42l-.25.31-.13.59.45.29-.48.28-.65-.53.07.75-.49.49.07.22.45.07.19.25-.71.18-.25.66-.68.28.29.22.16.37-.13.19-.41.22-.1.25.32.16v.87l.23.25.41.25.13.31-.35.16-.2.65L12,76.6l-.39-.19-.16.22V77l-.84.59-.29.47-.35-.34-.84-.19H8.64l-1.25-.69-1.1.33L6,76.81l.48-.28-.6-.16Z" transform="translate(0.08 0.07)" style="fill: rgb(210, 210, 230);"></path>
   <path data-id="364" name="Viterbo" id="path3367" class="cls-1" d="M5.81,76.27,5.75,76l.16-.28.31-.27v-.3l.4-.53.25-.48-.07-.21-.22-.29-.29-.28L6.62,73l.09-.33-.06-.35h-.3l-.07-.19-.16-.07L6.39,72l-.06-.28.15-.46v-.16L6.21,71v-.13l-.16-.44.16-.22V70l0-.11V68.62L6.62,67,7,65.85l.32-2.53.41-.61.48-2,.27-.28-.08-.28-.45.12-.52-.54v-.6l-.62-.25-.72-.25-.58.25H5.16l-.46-.5-.45.38H3.69l-1,.79L2,60.93l.26,1-.72.63-1.2.38v.5L.73,64l.49,1.17-.42.9-.42.85-.26.12.13.16.32.12.36.56,1,1,.1.41.29.28L2,69.7v.44l-.19.25.29.19v.62l-.16.22.32.59.55.69v.56l.48.6-.13.37.26.38.67.09.49.34v.28L5,75.26l.13.6.69.37Z" transform="translate(0.08 0.07)" style="fill: rgb(210, 210, 230);"></path>
   <path data-id="341" name="Aranzazu" id="path3326" class="cls-1" d="M52,50.11l-.7-.08-.42.43-.61-.27L49,49.26l-.17-.4h-.86l-.55.83L46.8,50l-.18.59-.72-.06-.68.3a8.81,8.81,0,0,0-1-.73,4,4,0,0,0-.48-.07l-.44-.3-.59-.17-1.1-.46-.79.3-.48.46h-.41l-.89.8-.1.33H38l-.72.47L37,51.25l-.24-.33-.62-.1-.34.6-.31.07-.11-1.24.35-.49-.14-1.13.21-.6V47l.65-.36.86.29.89-.63-.37-.46.24-.73,1-.1V43.65l-.52-.79-.48-.1.14-.76-.45-.24.14-.29-.5-.36H37l-.27-.29.48-.1.17-.14h.35l1.4-.6v-.55l.56-.08.37.2.9-.66.34.86.72.56-.31.2-.07.63-.14.34.9.69.68-.26L43.94,43l.34.13.62.7.07.63.82.13.79.3.28-.13h.75c.27,0,.21.36.21.36l1,.07,1.48.73h.31l.07.73.34.07h.21l.27,1-.24.47v.63l1,1.09L52,50.2Z" transform="translate(0.08 0.07)" style="fill: rgb(210, 210, 230);"></path>
   <path data-id="350" name="Marulanda" id="path3306" class="cls-1" d="M55.63,66.46V66l-.14-.2-.65-.36L55.49,64v-.4l-.24-.2.37-.6h.52l.51-.6.38-.1v-.36l.21-.3.58-.13v-.24l.79-.13.55-.89.06-.34.69-.16-.24-.23.21-.2h.27l.62-.69.07-.47h.92l2,.8,1.17.2.37.26h.45l.69-.69.75-.27.21.23.68-.56-.2-.4.44.13,0-.55.34-.07v-.2l-.27-.13,1.13-1,.89.1.76-.2.15-.5.66.13v-.42l-.63-.47-.39.21-1,.09-.22-.11-.46.09.34.31-.53-.07L68.9,55l-.46.12-.1-.28-.7-.35L68,53.34l-.78-1.23-.1-.66-1.43-.84L64.87,49l.49-.42-.27-.94.19-.33.59.09.48-.68.12-.46v-.52l.24-.3H67l1.31-1.22v-.7s.31-.2.27-.46a3.6,3.6,0,0,0-.44-.93l-.49-.1-1.61.7-.34.39-1-1.49-1.1-.6-1-.92H62l-.69-.87-.65-.06.34.93H60l-.14-.1-1,.16-.58.7-.48-.53-.11-.67H57l-.35.4L55.47,40l-.72.83-.11,1-.27.33-.07,1.3.07.49-.07.73-.76.63.18,1-.35,2.29.11.86-.62.33-.3.81.28.25.31.76.17.68.41.49.3.11,0,.17.55.13.29-.2.27.4.31-.13,0-.39.48-.13.62,1,.6.07.29.58-.46,1-.21,1.52.3.37h.2l.17.48.11.5-.4.15v.28l.1.13v.61l-.71,1.1h-.13l-.31.23h-.43l-.24-.25-.38.09-.23.42h-.43l-.37.26.22.33-.07.23L54,62l.07.3h-.51l-.09.18.12.17-.27.44-.19.85-.29.28-.17.52.36.32.32-.07.68.61-.2.38.22.26.51-.24h.24l.17.16.54.26Z" transform="translate(0.08 0.07)" style="fill: rgb(210, 210, 230);"></path>
   <path name="Manzanarez" id="path3296" class="cls-1" d="M76.82,42.47l-.66.16-.56-.19-.9.42v.59h-.44l-.22.73H73.8l-.14.24v.23l-.71.19-.6-.23-.9.75.07.25-.24.08-.2.32-.6.5H70l-.51-1h-.52l-.4-.46-.2-.7L67,45.56h-.31l-.24.3v.52l-.12.46-.48.68-.59-.09-.19.33.27.94-.49.42.85,1.57,1.43.84.1.66.78,1.22-.39,1.13.7.35.1.28.46-.12.22-.11.53.07-.34-.31.46-.09.22.11,1-.09.39-.21.63.47v.43l.28.23,1-.43.34.14.12.57.54.07.38.51,1,.19.61-.49.31.21.73-.42-.46-.45.44-1.24.68-.26-.27-.63,1.14-2.07h.41l.22-.66.54-.43h.75l.16-.52-.79-.33v-.53l1.06-.5.36.09.51-.38-.22-.75-.08-.85L81.22,46l-.79-.3L80,45.27l.14-.4-.31-.37-.24.2h-.45l-.65-.4-.31.14-.24-.3h-.31l-.51-.1v-.5l-.31-.26.45-.3-.14-.36-.31-.14Z" transform="translate(0.08 0.07)" disabled="disabled" style="pointer-events: none;"></path>
   <path data-id="355" name="Pensilvania" id="path5731" class="cls-1" d="M64.05,29.39l.68-.47.2-.78,1.86-2.65.86-.53.51-.1.41-.35.24-.65,1.13-.14.93-.66H73l.31-.17h.59l.51-.45.49-.12.55-1,.38.37.07-.63h.21l.17.43.51.1.86.2.07.59.34.07.21.33L77.68,25l.41.2-.07.27.42.1.24-.4h.51l.21-.23.48-.1.2.63v.5l.17.4-.06.46H80l-.38.67.14.16-.24,1,.24.3v.53l.24.24-.35.46.11.3.58.36-.24.37.17.36-.48.3.45.2v.17l-.14.29.35.24.07,1-.14.27.75.73,1.41.2.38-.24.27.14v.33l-.14.26.24.24.86.16.48.86-.55.77-.31.43v.43l.44.36-.1.43.3.45h.1l-.13.79-.37.3-.52-.13H82l-.76.27-.82-.37-1.13.37-.28.92-.72.14-.51-.2-.76.26-.23.63-.68.16-.55-.19-.9.42v.59h-.44l-.22.73h-.24l-.14.24v.23l-.71.19-.6-.23-.9.75.07.26-.24.07-.2.32-.6.5h-.51l-.51-1H68.9l-.4-.46-.2-.69h0v-.72s.31-.2.27-.46a3.6,3.6,0,0,0-.44-.93l-.49-.1-1.61.7-.34.39-1-1.49-1.1-.6-1-.92h-.65l-.69-.87-.66,0-.68-.68-.92-.1-1-1.26-.14-1.24.82-.36.41-.63,1.44-.83.35-.83h.34l.07-.87-.48-.66.34-.53L61,30.8l-1.1-.66-.82-.93-.89-.37.94-.63.73-.08.16-.31.84-.28.5.12v1.5l.23,1,.51.18-.23.57-.14.53.36.39,1-.66.69-1.52Z" transform="translate(0.08 0.07)" style="fill: rgb(210, 210, 230);"></path>
   <path data-id="349" name="Marquetalia" id="path3294" class="cls-1" d="M76.83,42.47l.23-.63.76-.26.51.2.72-.14.28-.92,1.13-.37.82.37.76-.27h1.44l.52.13.37-.3.14-.8,1-.06.48-.33.3.2v.59l.38.1-.07.4-.45.5.62.46h.58l.44-.79h.42l.37-.73v-.33h.77l.35.16.92-.46.76.38-.14.61v.37l-.31.39.51.47.28.53-.35.4.21.26.2.68-.84.2-.07.4-.29.17L90.1,44l-.84.63-2-.42L87,44l-.28.58-.91.09-.24-.25-.39.25v.81l-.64.3-.34-.23-1.39.23-.43.44L82,46.05l-.17.33L81.19,46l-.79-.3L80,45.26l.14-.4-.31-.37-.24.2h-.45l-.65-.4-.31.14-.24-.3h-.31l-.51-.1v-.5l-.31-.26.45-.3-.14-.36Z" transform="translate(0.08 0.07)" style="fill: rgb(210, 210, 230);"></path>
   <path name="Samaná" id="path3289" class="cls-1" d="M75.7,20.36l.51-.84.94-.39,1.26-.89.66-.95.16-.59.16-.09v-.22l-.51-.54h-.22V15.5l.23-.43L79,13.9l-.39-.33-.06-.74.24-.13L79,11.48l.53-.35.47-.29,1.19.11.12-.35h.24l.45-.29H83l.15.34.33.09.67-.55.51-.14.61-.35.3-.37h.64l1.57-1.12L88.12,7l.19-.14h.36l.21-.32-.36-.32.09-.43H89l.31-.11.48-.06.61.11.18.2h.53l.49-.39h.54l.58-.31V4.89L93,4.78l.1.14.58-.07.76-.65.58-.1.24.31h.34L96,4h1.25l.28-.24h.94l.31-.12.16-.29.17.26L99,4.27l-.45.33v.3l.66.6h.45l-.24.36v.53l.41.63-.13,1a5.63,5.63,0,0,1,.92.1c.14.07.38.57.38.57l-.14.23v.73l.21.26-.55.7H100l-.07.56-.55.77a3.48,3.48,0,0,0,0,.79.89.89,0,0,0,.24.3l-.34.67-.27.06-.59.57-.44-.07-.38.33-.65-.17v-.63l.24-.43-.24-.46-.69-.13-.27,1.12-1.24.47-.58-.13-.35.26-.07,1.13.38.63-.38.56.11,1,.48.27-.21.59-.48.3h-.38l-.1.43-.31.2-.17-.2-.55.23-.1.5-.41-.33h-.41l.06.86-.68.37v.36l.45.1.41.23.48-.13,1,.53v.23l.51.17.72.33.17-.1v-.23l.52-.36h.65l.82-.93-.17-.66.38-.24.65-.86.58.17.11.56.78.2-.06.09L98,21.1l-.68.22L97,22l-.12.77-.62.55-.06.77.17.71-.11.66.22.72-.68.33-.4.77.57.55-.28.55-.4.55-.46.6v.94l.12.77-.06.71-.28.81L95.12,34l-.62,1.66L93,37.22l-.17,2-.62.56-.93-.25-.79-.41-.92.46-.35-.16h-.75v.33l-.37.73h-.42l-.44.79h-.55l-.62-.46.45-.5.07-.4-.38-.1v-.59l-.3-.2-.48.33-1.11.07L84,39l.1-.43-.44-.36v-.43l.31-.43.55-.77-.48-.86-.86-.17L83,35.3l.14-.26v-.33l-.27-.14-.38.24L81,34.61l-.75-.73.14-.27-.07-1L80,32.37l.14-.29v-.17l-.45-.2.48-.3L80,31.05l.24-.37-.58-.36-.11-.3.35-.47-.24-.23v-.53l-.24-.3.24-1-.14-.16.38-.67h.24l.07-.46L80,25.8v-.5l-.2-.63-.48.1-.21.23h-.51l-.24.4L78,25.3,78,25l-.41-.2.62-2.19L78,22.31l-.34-.07-.07-.59-.86-.2-.51-.1-.17-.43h-.21l-.07.63-.38-.37Z" transform="translate(0.08 0.07)" style="fill: rgb(210, 210, 230);"></path>
   <path data-id="362" name="Victoria" id="path3286" class="cls-1" d="M105.44,16.64l.24-.09.07.72.52.26,1.3.14.38-.2.34.83,1.17.33.27-.17.21-.33.89-.2.89.5h.42l1.4-.63h1.07l.82.47.45.6.31.23v.2l.24.33h-.24l-.31-.2h-.59l-.31.17.14.23V21l-.24.23v.4l.55.37-.14.83.14.49.44.17.14.23h-.45V24l-.52.36v.37h-.2l-.21-.33-.24.1-.27.4.1.29-.17.6-.31.07-.31.3h-.24l-.31.46-1.1.43-.48.66H111l.14.4.79.2.2.63.59.2-.11.4-.27.16V30l-.07.24v.16l-.31.3.21.5v.53l-.34.33.65.13v.4l.27.33.65.07v.3l-.27.1-.17-.24-.38.2-.41.37.13.5-.17.16-.17.53-.48.2v.4l-.51-.07-.14-.3h-.45l-.48-.33-.17.83h-.48l-.41.3.34.2-.38.2-.1.23-.31-.46-.24.16v.33h-.59l-.1.17.38.26-.38.2-.07.34,1.07-.34.48.24h.41v-.26l0-.08.24.23.48-.23-.2.7.3.33-.37.4-.66.43s-.3.86-.34,1-.62.14-.62.14l-.58.89-.93.63.14.27.76.06.05,1.25-.09.34-.31-.09-.07-.34h-.3l-.25.2-.41-.37h-.58l-.07-.36-.34-.17-.11-.2-.17-.53h-.44l-.45.37-.31-.24-.27.17-.24-.13v.26l-.48.2-.2-.23-.41.07-.31-.17-.18.17.11.36-.41.33-.11.2-.68-.07-.21.1.28.27h-.26v.53l-.41.07-.41-.3h-.72l-.27-.3H98.3v.23h-.14l-.24-.1h-.55l-.79-.72-.51-.27-.1.17-.28-.07-.17.1h-.21l-.78-.5-.55.14-.18-.1-.58.63-.51-.07-.45.57-.44-.16-.21-.71-.21-.26.35-.4-.28-.53L91,40.83l.31-.39v-.37l.16-.57.94.24.62-.56.17-2,1.51-1.53L95.29,34l-.49-1.23c0-.11.26-.56.28-.81l.06-.71L95,30.47v-.94l.46-.6.4-.55.28-.55-.57-.55.4-.77.68-.33-.22-.72.11-.66-.17-.71.06-.77.62-.55.12-.77.28-.72.68-.22.57-.61.63-.38h1l1.08-.5.85-.49.17-.66.23-.66.68-.28.46-.66.57.11h.51Z" transform="translate(0.08 0.07)" style="fill: rgb(210, 210, 230);"></path>
   <path data-id="352" name="Norcasia" id="path3431-5" class="cls-1" d="M112.75,7.31l.09.45-.26.32h-.49l-.3.1-.3.15-.25.15.16.29-.05.2h-.46l-.33.1.22.24.29.2.32.15.36.18.11.37-.11.24-.39-.19h-.46l-.13.3-.1.36v.43l-.19.23h-.38l-.36.15-.43.06-.37.16-.15.3-.13.3-.09.39-.37.16-.37.09-.31.13.11.28.06.33-.24.28-.1.32.07.38-.07.45-.45.49-.29.22-.4.33-.54.17-.25.11-.57.38h-.5l-.57-.11-.46.66-.68.28-.23.66-.17.66-.85.49-1.08.5h-1l-.55.28-.8-.19-.11-.56-.58-.17-.65.86-.38.24.17.66-.82.93h-.65l-.52.36v.23l-.17.1-.72-.33L93,22.44v-.23l-1-.53-.48.13-.41-.23-.45-.1v-.36l.68-.37-.06-.86h.41l.41.33.1-.5.55-.23.17.2.31-.2.1-.43h.38l.48-.3.21-.59-.48-.27-.11-1,.38-.56-.38-.63.07-1.13.35-.26.58.13L96.07,14l.27-1.12L97,13l.24.46-.24.43v.63l.65.17.38-.33.44.07.59-.57.27-.06.34-.67a.89.89,0,0,1-.24-.3,3.48,3.48,0,0,1,0-.79l.55-.77.07-.56h.58l.55-.7L101,9.74V9l.14-.23s-.24-.5-.38-.57a5.63,5.63,0,0,0-.92-.1l.13-1-.41-.63V6l.24-.36h-.45L98.69,5v-.3l.45-.33.07-.63L99,3.48h.32l.12-.24.55-.11,1.1.06.29.25.41-.07.85.58.81.11.2.36-.23.14.06.22.29.36-.09.31.35.66,1.16.61.38-.31.44.17-.09.36.44.55h.32l.08-.36h.55l.09.22.29.28,1,.11V8.1l.81.25.38-.11.38-.75.29.06H111l.18.15.7-.11.26-.22Z" transform="translate(0.08 0.07)" style="fill: rgb(210, 210, 230);"></path>
   <path data-id="345" name="la Dorada" id="path3298" class="cls-1" d="M107.67,43.23l-.06-1.29-.76-.06-.14-.27.93-.63.58-.89s.59,0,.62-.14.34-1,.34-1l.66-.43.37-.4-.3-.33.2-.7-.48.23-.28-.21-.17.07v.26h-.41l-.48-.24-1.07.34.07-.34.38-.2-.38-.26.1-.17H108v-.33l.24-.16.31.46.1-.23.38-.2-.34-.2.41-.3h.48l.17-.83.48.33h.45l.14.3.51.07v-.37l.48-.2.17-.53.17-.16-.13-.5.41-.37.38-.2.17.24.27-.1V33l-.65-.07-.27-.33v-.4l-.65-.13.34-.33V31.2l-.21-.5.31-.3v-.16l.07-.24v-.3l.27-.16.11-.4-.59-.2-.2-.63-.79-.2-.14-.4h.34l.48-.66,1.1-.43.31-.46h.29l.31-.3.31-.07.17-.6-.1-.29.27-.4.24-.1.21.33h.2v-.37l.52-.36v-.27h.45l-.14-.23-.44-.17-.14-.49.14-.83-.55-.37v-.4L115,21V19.85l-.14-.23.31-.17h.59l.31.2h.24l-.24-.33v-.21l-.31-.23-.45-.6-.82-.47h-1.07l-1.4.63h-.42l-.89-.5-.89.2-.21.33-.27.17-1.17-.33-.34-.83-.38.2-1.3-.14-.52-.26-.06-.75a.67.67,0,0,0,.54-.16,4.26,4.26,0,0,1,.4-.33l.29-.22c.24-.19.41-.21.45-.49l.07-.45-.07-.38.1-.32.24-.28-.06-.33-.11-.28.31-.13.37-.09.37-.16.09-.39.13-.3.15-.3.37-.16.43-.06.36-.15h.38l.19-.23v-.43l.1-.36.13-.3h.46l.39.19.11-.24-.11-.37-.36-.18L111,9.48l-.29-.2L110.5,9l.33-.1h.52l.05-.2-.16-.29.25-.15.3-.15.3-.1h.49l.25-.34-.08-.43.25-.17.06-.31.22-.22.19.14.22.12.1-.28H114l.1-.21-.33-.06-.16-.21h.14V5.75l.33-.33V5.14l.18-.21V4.64h.13l.15-.25-.27-.18.06-.41-.14-.06L114,3.37h.16l.25-.3.28-.09V2.45l.12-.06.12-.31.19-.11v.14l.34.29.17-.13-.14-.49.12-.23V1.33l-.41-.23V.87l.33-.16.22.17h.39l.08.1.14-.1V.59L116.5.5l.08-.26h.18l.19.55h.2l.16-.14h.23l.2-.27L117.66.2l.2-.13.55.15v.2l.25.17.43-.06.24.2V1.1h.25v.17l.22.14.25-.18.18-.7h.19l.23.26-.1.41-.12.26.19.17v.76l-.4,1-.3.26v.49l.33.81.52.18.42-.29.67.26.31.55v.78l.42.32.88.2.49.58v.32l-.18.17.06.58-.49.81-.64.22-.34.66-.28.25.06.5.51.44-.09.35-.25.11v.25l.29.3-.26.14v.25l.37.38v.22l-.45.58.14.28.23.08-.15.19-.2.11v.39l-.59.82-.32.09-.28.85v.74l-.17.2-.26.05-.28,1.07-.26.22.26.17,1.08-.06.2.14.4.94.28.19-.09.25h-.17l.12.64-.4.9-1.09,1.2-1.31.79-.42.21-.1.52.34.43.33.32v.75l.12.5.25.26v.31l-.09.24v.46l.24.43v.73l.61.75.45.17.15.26-.3.23-.58.18-.42-.23h-1l-.46.29v.66l.33.52.58.29.29.3-.14,1.21-.68.2h-.62l-.45.46L119,37l-1.72.85-.83-.19-.44-.87-.42.33,1,1.43-1.27,1.33.21,2.25-1.27.47-.93,1L113,44.9l-.62.08.07-.63-1.2.9a1.34,1.34,0,0,0-.42-.4,3.22,3.22,0,0,0-.68-.17l-.76-1-1.3.23Z" transform="translate(0.08 0.07)" style="fill: rgb(210, 210, 230);"></path>
   <path data-id="344" name="Filadelfia" id="path3336" class="cls-1" d="M36.73,40.81l-.13-.53.17-.72-.27-.27V38.2l-1.44.13-1.3.69h-1l-.38-.43h-.75l-.55-.49.37-.37-.2-.46-1-.37-.6-.5-.39.39v.56l-.13.31.1.37-.31.64-.73.72-1,.43-.09,1,.21.33-.09,1.2-.42.35-.46-.26-.59.12-.29.43-.5.62-.19.94-.38.27.34.61v.13l.44.31.48,1.69.42.34.2,1.72.48-.07.38.17-.14.46.45.27.17-.07h.76l.34.34.51-.37.79-.23.55.73.93.16,1,.73.38.37,1.23.06.48-.29.45-.07.31-.43-.11-1.2.35-.49-.14-1.13.21-.6V46.9l.65-.36.86.29.89-.63-.37-.46.24-.73,1-.1V43.58l-.52-.79-.48-.1.14-.76-.45-.24.14-.29-.4-.29H37l-.28-.3Z" transform="translate(0.08 0.07)" style="fill: rgb(210, 210, 230);"></path>
   <path data-id="346" name="La Merced" id="path3310" class="cls-1" d="M39.17,39.42l-.2-.33.14-.53-.55-.2V37.9s.42-.27.42-.47a4.32,4.32,0,0,0-.28-.86l-.44-.36L38.53,35l-.21-1.16.42-.87-1.2-.56.34-.76-.48-1-1,.09-.53.14-1.6-.7L34,29.5l-1.21-.33h-.69l-.38.74v.77l-.56,2-.41,2.13-.54.94-.49.75.61.51,1,.37.2.46-.37.37.55.49h.75l.38.43h1l1.3-.69,1.44-.13V39.4l.27.27-.17.72.13.53.49-.09.17-.14h.35l1.4-.6v-.53Z" transform="translate(0.08 0.07)" style="fill: rgb(210, 210, 230);"></path>
   <path data-id="356" name="Riosucio" id="path2504" class="cls-1" d="M26,42.37l.26-.4-.61-.36h-.43l-.45-.53.13-.63L24.62,40l.06-.51L25.3,39l-.06-.41-.56-.22-.52.19-1-.19-.85-1.11v-.47H21.6v-.4l-.32-.1.36-.24v-.53l-.36-.19-.62.34v-.24l-.16-.16-.39.22L19,35l-.07-.46-.36.06-.46-.23h0l-.07.22.13.23-.26.75-.75.22-.45-.31-.59.22-.42-.6-.85.57-.33.85-1,.41-.91.56-1.14-.06-.55.4-.59-.24-.94-.15L9,37.74l-.49-.12-.23-.48-.55-.38-.2.22-.49-.57-.29.23H5.9L6.42,36l.17-.88.29-.54V33l-.07-.84-.43-.39L6.44,31l-.27-.66L5.84,30v-.57l.23-.1L6.23,29l-.29-.12-.15-.33.35-.22V28l-.21-.06-.09-.66.07-.3-.29-.26-.31-.62.23-.46V25l.35-.41.65.3.14.84h.74l.71.59.71-.16.4-.38V25.2l1-1.08.83-.08.25-.32v-.61l.37-.32.57-.19.31-.62.66-.41.79.08.31.6h.32v-.68l-.28-.43.51-.7h1.25l.17.27,1-.22.57-1.08.45.06.26.62,1.11.68.34.64.4.17.28.32.95.64,1,.48H23l.07.19.29.45v.64l.31.76-.41.46-.18,1,.31.7-.1.66.31.33-.38,1.36-.62.2v.73l-.68.6.48.79-.24.4.27.4.65.2v.33H24l.44-.06,1.17.93.27,1.19.66.93h.55l.34.33-.08.57.89-.49.07-.27.55-.23.85.33-.33.32v.56l-.13.31.1.37-.31.64-.73.72-1,.43-.09,1,.21.33-.09,1.2-.42.35-.46-.26-.61.1Z" transform="translate(0.08 0.07)" style="fill: rgb(210, 210, 230);"></path>
   <path name="Supía" id="path3268" class="cls-1" d="M28.35,24.2l.76.36V25l.44.3-.68.83v.53l.68.53v.63l-.24.2.14.53,1.78.8.28.56h.26v.77l-.56,2-.41,2.13-.54.94-.54.82-.85-.32-.55.23-.07.27-.9.4.17-.53-.34-.33h-.55L26,35.32l-.27-1.19-1.17-.93-.44.06h-.9v-.33l-.65-.2-.27-.4.24-.4L22,31.14l.68-.6v-.73l.62-.2.38-1.36-.31-.33.1-.66-.31-.7.18-1,.41-.46-.31-.76v-.63l-.28-.45.33.07.53-.31,1.66-.15,1.42.09.57.39h.56Z" transform="translate(0.08 0.07)" style="fill: rgb(210, 210, 230);"></path>
   <path name="Pácora" id="path3312" class="cls-1" d="M33.19,23.89l.43-.18L33.7,23h.1l.12-.5-.14-.08v-.29l-.14-.06v-.22l-.27-.17.05-.23-.15-.19.77-.14h.26l.51-.66.52-.5L36,20l.51-.17.45-.33.55-.3.41-.86.55-.07.61-.43.52.37v.26l.24.13.41-.33h.48l.14-.46.41.36.1.43.31.4.45.17.38.49.37-.13.48.5v.46l1.44.3,1.54-.23.62-.23.21.16v.3l.44.17.35-.1.48.46.1.4-.27.73V23l.58,1.16.17.73.66.27.55.23.44-.1h1.13l.73.4V27l.14.37-.48.53v.53l.1.43.1,1.27.21.43-.21.8-.39.35-.91-.18h-.7l-.69-.63h-.75l-.38-.44H48l-.31.1L46.27,30l-1.07-.27-.34-.26-.14.13H44l-.18.37-.27-.17-.86.27-.24.26-.62.2-1-.2-.17-.36-.59-.34v-.33l-.45.1-.75-.43v-.5l-.37-.23-.48.33-.14.57.2.26-.41.33v.37l-.24.53-1,.09-.53.14-1.6-.7-.25-.66-1.21-.33h-.72l.11-.18.2-1.29.46-.77L32.81,25l.36-.79Z" transform="translate(0.08 0.07)" style="fill: rgb(210, 210, 230);"></path>
   <path data-id="358" name="Salamina" id="path3314" class="cls-1" d="M52,50.11l.29-.33-1-1.09v-.58l.24-.47-.27-1H51l-.34-.07-.07-.73h-.25l-1.48-.73-1-.07s.07-.36-.21-.36h-.75l-.28.13-.79-.3L45,44.38,45,43.75l-.6-.64L44,43l-.86-1.06-.68.26-.9-.69.14-.34.07-.63.31-.2-.72-.56L41,38.9l-.9.66-.37-.2-.56.09-.2-.32.14-.53-.55-.2v-.46s.42-.27.42-.47a4.32,4.32,0,0,0-.28-.86l-.44-.36L38.56,35l-.21-1.16.42-.87-1.2-.56.34-.76-.48-1,.24-.55v-.37l.41-.33-.2-.26.14-.57.48-.33.37.23V29l.75.43.45-.1v.34l.59.33.17.36,1,.2.62-.2.24-.26.86-.27.27.17.18-.37h.68l.14-.13.34.26,1.07.27,1.37.59.31-.1h.58l.38.44h.75l.69.63H51l.93.18.71.7,1.5-.05,1.07-.51h.54c.19,0,.29-.71.29-.71l.68.1,1.11-1.17.1-1,.2-.27.9.36.82.93,1.1.66.14.6-.34.53.48.66-.07.87h-.34l-.35.83-1.44.83-.41.63-.82.36.24,1.16,1,1.26.92.1.69.68.34.92H60l-.14-.1-1,.16-.58.7-.48-.53-.11-.67H57l-.35.4-1.16-.13-.72.83-.11,1-.27.33-.07,1.3.07.49-.07.73-.76.63.18,1-.35,2.29.11.86-.62.33-.31.83-.41-.16Z" transform="translate(0.08 0.07)" style="fill: rgb(210, 210, 230);"></path>
   <path data-id="339" name="Aguadas" id="path3353" class="cls-1" d="M33.25,20.56l-.16-.14v-.27l.16-.31-.08-.54.29-.16-.09-.33-.22-.06.06-.54-.16-.06v-.41l-.27-.12-.08-.37.2-.11.05-.22-.17-.15.08-1.21-.32-.19v-.68l-.13-.1V14.3h.15l.06-.33-.23-.1v-.33l-.34-.25.08-.08v-.16l-.22-.11v-.39l.18-.06v-.93l.26-.06.09-.35.26-.23L33,11l.42-.22,0-.27h.18l.12-.27h-.43L33,9.89h-.55l-.13-.19h-.63l-.06-.2h-.24l-.35-.29V9l.18-.39L31,8.47V7.71L31.15,7h.2V6.08l-.26-.14-.16-1.05h.22l-.08-.68.14-.14.65.08.7.27.69.66,1,.21.5-.19.75.16.3.26.5-.07.31.69-.27.07-.12.42.35.38.09.44.41.3L37,8l.44.24.12-.35.32-.09.27.11.23-.28.22.15,0,.32.67.58.09.22.43.12-.05-.33.32-.07.23.21,1.09.46.29.74H42l.43.47.42-.3h.46L44,9.81l.14-.3.16-.1.16-.32L45,8.77h.53l.38-.24.23-.45.66-.14.36-.35.68,0,.72.21.19.56L49.1,9l.8.2.69.58,1.14-.15.31.48h.3l.17.59.38.11v.45h-.22v.15l.27.22-.06,1.14-.14.1-.27.58h-.2l-.7.55h-.22v.44l.16.12v.41h.21l.2.52.41.12.39.35.6.36,1-.14.94-.12.28.43-.49.71.5,1.55.32.18.33.87.28.41-.4.43v.68l.49.56v.59l.44.88.88.58.35.58-.08.69-.41.65-.27.14.29.37L57.93,28l-.12.68.34.2-.19.25-.1,1-1.11,1.17-.68-.1s-.1.71-.29.71h-.54l-1.07.51-1.5,0L52,31.78l.38-.33.21-.8-.19-.54.07-1.26-.1-.43v-.53l.48-.53L52.66,27V25.7l-.73-.4H50.8l-.44.1-.55-.23-.66-.27L49,24.17,48.4,23v-.53l.27-.73-.1-.4-.48-.46-.35.1-.44-.17v-.3l-.21-.16-.62.23-1.54.23-1.44-.3v-.46l-.48-.5-.37.13-.38-.49L41.81,19l-.31-.4-.1-.43L41,17.84l-.14.46h-.48l-.41.33-.24-.13v-.26l-.52-.37-.61.43-.55.07-.41.86-.55.3-.45.33-.51.17L35.5,20l-.52.5-.63.65H34.1l-.84.15Z" transform="translate(0.08 0.07)" style="fill: rgb(210, 210, 230);"></path>
   <path data-id="348" name="Marmato" id="path3270" class="cls-1" d="M33.12,24.11l-.41.79.13,1.93-.46.77-.2,1.29-.46.92h-.26l-.28-.56-1.78-.8-.14-.53.24-.2v-.63l-.68-.53v-.45l.68-.83-.44-.3v-.4l-.76-.36v-.88h.21l.24-.23H29l.12-.2.35-.07.08.21.88.23.38.47.39-.1.23.16h.67l.06.15h.63v.1Z" transform="translate(0.08 0.07)" style="fill: rgb(210, 210, 230);"></path>
   <path data-id="363" name="Villamaria" id="path3264-2" class="cls-1" d="M32.81,76.62l.54-.37.4.08.16-.17h.3l.51,1.25.35.12.61-.46h.44l.18.26v.53l.46.32.12-.12h.71l.9-.56h1l.66.44.94,0,.3.26h.7l.16.17-.4.41.06.3.45.26.4,0,.25.47-.3.38v.41l.46.17h.94l.59.32.07.33-.3.23v.12l.14.11.11.39.49.78,1,.71.18.59-.42.16-.14.24.33.15v.43l.79.27v1.24l.13.35,1,.38.67.75h.45l.52-.27h.48l.54.55.93.11.53-.34v-.29l.28-.63L53.67,87l.63-.88.16-1.3.65.1.76-1,1.44-1.06.38-2.42-1-.63h-.76l-.79-1.92v-.7l-.79-.5-.06-1.36.34-.39-.45-1.13,1.48-.8h.69l-.18-.76.72-.5.66-1.16.1-1.79.24-1-.41-.17-.65-.81-.54.24V68.5l.2.21V69l-.75.63L55,69.44l-.48.12-.95-.14-.27-.4H53l-1.14-.82-.22-.07-.34.21-1.39.07-.5-.42-.47.07v.46l-1,.29-1.12-.5h-.2v.37l-.43.07L45,68.33l-1.21-.26h-1l-.6-.63L41.9,67l-.64-.17-.65.14-.17.12-.58-.3s-.39-.82-.49-.82h-.46l-1,.59.13.21-.13.56-.55.1L37,67.8l.24.09.41.54v.45l-1,.4.1.3.17.61-.48-.12-.27.19h-.37l-.29-.18L35.1,70l-.25.14.27.25-.22.73-.44.14-.6-.16-.66.23-.29.42-.41.31-.43.08-.23.86.15.19h.61l-.05,1-.32.54.24.63-.29.49-.43.92-.33.53Z" transform="translate(0.08 0.07)" style="fill: rgb(210, 210, 230);"></path>

</svg>