<svg id="Capa_1" data-name="Capa 1" xmlns="http://www.w3.org/2000/svg" viewBox="0 0 193.44 141.51">
   <defs>
      <style>.cls-1{fill: #ebebef;;stroke:#fff;stroke-miterlimit:3.86;stroke-width:0.25px;}</style>
   </defs>
   <path name="XXXX" id="path4544" class="cls-1" d="M128.21,212.61l-.43.17v.1l-.28-.12,0-.23-.12-.14.1-.22-.16-.12L127,212l-.18-.26.08-.26.16-.27v-.34l-.16-.16v-.35l-.47-.22-.68.06-.21.2-.26-.12-.16-.26-.4,0-.41.06-.42-.35v-.36l0-.14-.12-.37-.53-.42-.14-.08-.66.22-.71.49-.62.18-.13.2-.32-.08-.18-.26-.28-.06-.45,0-.38.18-.48,0-.33.44,0,.19-.18.18-.32-.24-.1-.57-.28-.43.08-.16-.33-.2h-.28l-.14-.27.12-.24-.38-.14-.38,0,.54-.22-.07-.39h-.27l-.15-.17.17-.09-.07-.61-.33,0,0-.41-.19.16-.31-.39h-.33l.09-.18-.2-.45-.27,0-.12-.54-.2,0,.29-.3-.19-.18,0-.62-.23-.15.13-.1,0-.33.19-.18,0-.42.25-.35.14.07.21-.18,0-.19.14-.28.19.05.23-.17v.21l.58.08.22-.06.1.21.13-.46.31,0,.12.48.38.17v.1l-.25.06v.23l-.15,0v.25l.12,0v.27h.19l.14.3.2,0-.17.31.23.07.09.32.16-.11.13.45-.16.15.26.2.14-.3h.12l.08-.24.15.32.17,0,.3.37h.22l.08.31-.08.07.22.21.26,0,.07-.2.09.16.27-.1.2.34-.11.15.1.09.21-.19L121,205l.31,0,0-.1-.17-.13,0-.29-.16-.11.37-.09.24-.5.19.06.28-.1.33.25v-.38l.55-.29v-.27h.36l.49.34-.11.25.24.33.2,0,5.35,4.13-.1.35-.17.07.15.17.26,0,.35.42,0,.33-.13.11v.22l.14.14-.29.38-.11,0-.14.33.22.18-.08.21-.34.07-.11-.16-.76.5,0,1.06Z" transform="translate(-97.62 -128)" disabled="disabled" style="pointer-events: none;"></path>
   <path name="XXXX" id="path5448" class="cls-1" d="M115.9,208.38l-.06.24-.63,0-.56-.59,0-.38.16-.31-.27-.33-.49-.19-.35-.07-.05-.23-.12-.19h-.18l-.17-.4v-.22l.12-.28-.19-.31-.38,0-.37-.36-.33.07-.21.31-.17-.21-.32-.24.09-.21.35,0,.31-.14,0-.45-.23-.22.33-.39.24-.16,0-.41-.34-.17-.51.19-.65-.43-.89-1.1-.56-.21-.27.19.11.18.4.15.2.6-.24.68h-.36l-.14-.58.14-.34-.25-.32-.22.11-.23.25-.26,0-.46-.14-.36.21-.38-.06-.33-.23h-.35l-.12,0-.35-.14.25-.27-.26-.07-.12-.17h-.12l-.26.12-.09-.05,0-.37-.36-.16-.14-.15-.24.05-.15-.14.17-.17-.12-.28-.33,0,.2-.26-.2-.19,0-1s.23-.15.23-.18a3.14,3.14,0,0,0-.23-.33v-.25l.6-.1v.15l.25.1.34-.08.38.25-.14.18.27.43.85,0,.13.28.34.31.57,0,.46.39.38-.08,0-.22.27,0-.08-.66-.6-.42,0-.29-.37-.25-.08-.21.15,0,.06-.91-.24-.17v-.48l.39-.17.16.07a2.67,2.67,0,0,0,.48-.08l.09-.44.43-.14.28-.42.34-.34.4.16-.06.23.2.15-.24.11-.06.36.26.08v.23l.67.32-.18.21.3.26-.08.47.31.21.12-.12.43.18-.11.21,1,.27v.1l.33.14.08.2-.16.07-.06.13.22.15-.1.24-.44.18.07.56-.29.53-.14.07,0,.51.32-.4.26.06.94-.35.06-.28.47-.23.07.13.64-.1.8-.4.42-.09,0,.19-.52.91v.18l-.38.53-.13-.06-.24.39.18.26-.15.3,0,.19-.21.18-.14-.07-.25.35,0,.42-.19.18,0,.33-.13.1.23.15,0,.62.19.18-.29.3.2,0,.12.54.27,0,.2.45-.09.18h.33l.31.39.19-.16,0,.41.33,0,.07.61-.17.09.15.17h.27l.07.39-.55.22Z" transform="translate(-97.62 -128)" disabled="disabled" style="pointer-events: none;"></path>
   <path data-id="365" name="Florencia" id="path5404" class="cls-1" d="M131.26,160.54l.09.54.3.47.45,1.18.06,1.05.2.06-.05.15-.08,0,0,.25-.18.07.14.13.11.94.12.13.14,1.06.12.11v.2l-.06.1v.14l-.14.53-.19.09,0,.19.16.08v.36l.22.09-.14.69-.07.09v.24l-.41.82-.12.34,0,.17-.15.44-.14.12-.07.64.06.17-.23.58-.14.22.09.14v.53l-.2.28-.12,0,.06.1.14.09.11.48h.1l.22.57.13.06-.06.51-.38.35,0,.3-.13.08.12.1.18,0,.09.23.15.08-.18.29-.33.07,0-.09-.26.13-.08.36.06.07-.25.23h-.11l-.14.47-.12.05.1.36.16,0-.13.5-.38.08-.05.15h-.3l-.06-.07,0,0,0,.2.12.1-.13.48-.19.2-.08.51-.11.08.1.54.12.08-.18.33-.08,0,.14.28.1.09,0,.35.15,0-.08.23h-.13l.08.12.13,0-.11.17-.1,0,0,.36.14,0,.16.4.15.07-.1.26-.13,0,.16.08h.08l.23.08,0,.26.06.06-.13.1-.09,0v.08l.06,0,.08.2.12-.08.12.13-.08.22-.06-.07,0,.18,0,.11-.09.05v.17l.25.15v.12l.1,0-.06.15h-.08V187l-.06.27,0,.19-.25.27,0,.07.17.1.05.16,0,.21-.14.06-.26.43.07.09,0,.34-.19.21-.09.3-.05.28.09.32v.27l-.93.1-.09.1-.65,0-.06-.08L127,191v.23l-.62.21-.07,0-.26.42-.13-.24-.16,0-.25-.3-.16,0-.24-.34.16-.26-.16-.42-.2,0-.25-.26,0-.12v-.22l.19,0,.2-.3-.12-.14.1-.12.06-.24-.22-.14-.21-.56.08-.3-.06-.14-.14.06-.26-.08-.14-.32-.19-.26-.22,0-.08-.28-.18,0-.12-.08.06-.18-.08-.16h-.16l0-.26-.12-.1-.18,0-.06-.12.06-.2,0-.1-.12,0,0-.34h-.12l-.2.08,0-.22-.3-.16-.44.08h-.15l-.12.1-.1-.1.06-.24-.12-.16-.3.08-.11-.08-.28.1-.36-.06-.15.2,0,.26-.07.26-.2-.2,0-.24-.06-.16,0-.26-.09-.26.08-.18-.21-.22,0-.17.08-.12.06-.35-.44-.33-.3.05-.12-.27v-.15l-.11-.21-.22-.09-.13-.48.13-.24-.17-.14-.46.17,0-.17.23-.25-.42-.37-.14,0-.36-.25.05-.44.26-.29.13-.52v-.14l.29-.18h.12l.11-.18-.26-.3v-.68l-.31-.34.07-.11-.12-.17-.27,0-.09-.18.11-.13-.27-.33h-.16l-.21-.13,0-.27.08-.08-.07-.19-.15-.19-.06-.23-.41,0-.29-.28.59-.49.5,0,.24.18.25-.12.25-.37.39.1.78-.46,0-.15.47-.08.46-.36,0-.41.12-.16-.1-.37.1-.18-.08-.25.25-.28.37-.1.61-.75-.12-.37.15-.32.24,0,.13-.08,0-.26.35-.08.51-.35h.23l.31-.22.26-.55.05-.26.22-.13,0-.18-.31-.43.13-.38.08-.49.19-.08.76-.92.1-.28-.15-.24.35,0,.11-.11.6-.26.06-.18-.07-.23,0-.16.2,0,0-.35.21-.26.23-.06.08-.08-.1-.17.14-.2v-.14l-.14-.06.12-.12.25.1.24-.19.08-.3-.08-.22.11-.17.26,0,.23-.24,0-.16,0-.47.23-.26v-.19l.43-.24.39.06.6-.12.39-.37.43,0,.41-.34.31-.11.51.13Z" transform="translate(-97.62 -128)" style="fill: rgb(210, 210, 230);"></path>
   <path name="XXXX" id="path4508" class="cls-1" d="M129.66,190.6l-.93.1-.09.1-.65,0-.06-.08L127,191v.23l-.62.21-.07,0-.25.4,0,3.75.15.36,0,.24.12.18v.27l-.08.71.17.12.2.53-.08.2.07.11.14-.07.16.08-.08.17.24.27.15-.06.25.23v-.29h.27l0,.14.39.34.57.37,0,.29.31.16.57.6-.05.35.2.09.25.46.22.2.06.18h-.12l-.05.12.25.31.22.15.72,1.06.49.37-.08.22.09.19.51.28v.31l.18,0-.09.23.09.27.26,0,1.52,1.45,0,.14-.12,0v.24l-.25.15-.12.15.17.08v.12l.23.18,0,.2.19.15.23-.21-.23-.09-.07-.36.26-.08.16-.29-.09-.11.21-.15-.06-.29.2-.15,0,.16h.22l.11-.19.29-.12.14.15H136l0-.23.33,0,.3-.15.26.15.14.23h.6l.21-.24.42.16.07.35.21.11v.57l-.14.13.16.33.44.12.09-.21.19-.49.2.06.38-.15V207l.21-.08,0-.34h-.18l-.38-.84h-.17l-.32-.35,0-.44.13,0,.12-.29-.19-.09-.06-.15.16-.07.06-.59.63-.54,0-.21-.22-.06-.14-.18.29.06.06-.24.38-.14.16-.37,0-.46-.18-.11,0-.12h.08l.29-.5-.28-.12-.07-.26.12-.58-.16-.09,0-.27h-.29l-.25-.2-.06-.19-.42-.22-.12.12-.19-.2-.06-.33-.49-.44v-.15l-.2,0L138,198l-.49-.49,0,0-.07-.16-.4-.06-.21-.51-.5-.12-.42.31a2.48,2.48,0,0,1,0,.29s-.23,0-.23,0v-.18l-.41-.36.26-.62.28-.08v-.25l-.15-.1.06-.07-.18-.22-.22-.09-.3-.46,0-.52-.34-.43-.15-.53-.13,0,0-.92.17-.11,0-.55-.13-.09-.05-.46-.2-.1-.27-.62,0-.1-.22-.12-.32,0-.46-.17V190h-.12l-.15.2h-.26l.07.19-.2-.13-.31,0-.12-.08-.55.12,0,.11-.36,0-.24-.17-.39,0-.1-.08-.59.12,0,.06v.27Z" transform="translate(-97.62 -128)" disabled="disabled" style="pointer-events: none;"></path>
   <path data-id="372" name="La Montañita" id="path5362-8" class="cls-1" d="M130.85,159.75l-.08-.16.1-.69.27-.28.08-.19v-.26l.19-.29-.19-.16h-.14l-.21-.08,0-.26-.06-.06,0-.45.25-.43.49-.2.39-.37-.07,1.19.71.78.45,2,.47,4.55.29.25,0,1.22-.39.57.2.63-.23.86-.13,0,.05.32.33.42-.31,1.53,0,.46.38.94-.07.51-.16.08,0,.7.23.11,0,.29-.11.11,0,.27.25.14v.26l-.12.13,0,1-.12.1.06.29.19,0,0,.83-.1.56-.23.11.39.61.36,0,0,.3-.43.32-.41.66-.19,0,.09.44.17.07.07.64.4.23-.15.27-.26.09,0,.73-.09,0,.06.19.69.45.24,1.29.58.28.14.42c0,.06-.17.13-.17.13l.24.1.24.73.22,0s.28.5.34.56.38,0,.38,0l0,.17L136,186l-.07.76-.2.18.33.72.32.15.05.51-.14,0,.49.36h.2l.53.45,0,.25.4.16.11.41h.51l.26.35.55,0,.22.23.09-.29-.21-.13.11-.08.3-.36.6-.57.46,0v.18l.62-.45.07-.28.3-.12-.11-.54-.2,0,.12-.22.48-.22.25.14.76-.15-.19.4.08.24-.12,0,.23.54.31.28v.2l-.1.11.09.33h.15l-.17.6h-.18v.49h.12l.44.6s.15.54.15.57a.79.79,0,0,1-.16.08l.48.2.29.37-.06.29-.12,0,0,.22.15.08.06.79-.07.05.59.41v.22l.63.14,0-.17.4.18.26.4.13-.08.21.08,0,.49-.17.07c-.06,0,0,.36,0,.36l.2.12-.25.28-.33.09.42.47.23,0,.34.39-.12.13.4.31.09.32-.07.14h-.22l0-.14-.29.06,0,.31-.26-.2.06-.18-.22,0,0,.16-.18-.09.07-.2-.21-.18.06-.12-.34.08v.31l-.26-.35h-.2l-.28-.26,0-.21-.16-.26-.24-.08-.16-.28.11-.07-.11-.12-.4,0v-.1l.18-.07,0-.14-.4-.16v-.17L144,196l0,.16-.29.13v.15l-.27.08.06.57.09.07-.16.16-.21.05,0,.21-.07.08-.05-.29-.19,0,0-.24-.14.35h-.2l-.11-.09-.2.21.09.15-.14.12,0,.22h-.23l-.24-.21v-.19l-.28.32.08.18-.21.19-.27,0,0,.19.27.07-.23.47-.33.15.14.23-.46.15-.24-.07h-.28l-.25-.2-.06-.19-.42-.22-.12.12-.19-.2-.06-.33-.49-.44v-.15l-.2,0L138,198l-.49-.49,0,0-.07-.16-.4-.06-.21-.51-.5-.12-.42.31a2.48,2.48,0,0,1,0,.29s-.23,0-.23,0v-.18l-.41-.36.26-.62.28-.08v-.25l-.15-.1.06-.07-.18-.22-.22-.09-.3-.46,0-.52-.34-.43-.15-.53-.13,0,0-.92.17-.11,0-.55-.13-.09-.05-.46-.2-.1-.27-.62,0-.1-.22-.12-.32,0-.46-.17V190h-.12l-.15.2h-.26l.07.19-.2-.13-.31,0-.12-.08-.55.12,0,.11-.36,0-.24-.17-.39,0-.1-.08-.58.12-.08-.26.05-.28.09-.3.19-.21,0-.34-.07-.08.26-.44.14-.06,0-.21-.05-.16-.17-.1,0-.07.25-.27,0-.19.06-.27v-.35h.08l.06-.15-.1,0v-.12l-.25-.15v-.17l.09-.05,0-.11,0-.18.06.07.08-.22-.12-.13-.12.09-.08-.21-.06,0v-.08l.09,0,.13-.1-.06-.06,0-.26-.23-.08h-.08l-.16-.08.13,0,.1-.26-.15-.07-.16-.4-.14,0,0-.37.1,0,.11-.17-.13,0-.08-.12h.13l.08-.23-.15,0,0-.35-.1-.09-.14-.28.08,0,.18-.33-.12-.08-.1-.54.11-.08.08-.51.19-.2.13-.48-.12-.1,0-.2,0,0,.06.07h.3l.05-.15.38-.08.13-.5-.16,0-.1-.36.12-.05.14-.47h.11l.25-.23-.06-.07.08-.36.26-.13,0,.09.33-.07.18-.29-.15-.08-.09-.23-.18,0-.12-.1.13-.08,0-.3.38-.35.06-.51-.13-.06-.22-.57h-.1l-.11-.48-.14-.09L131,174l.12,0,.2-.28v-.53l-.09-.14.14-.22.23-.58-.06-.17.07-.64.14-.12.15-.44,0-.17.12-.34.41-.82v-.24l.07-.09.14-.69-.22-.09v-.36l-.16-.08,0-.19.19-.09.14-.53V167l.06-.1v-.2l-.12-.11-.14-1.06-.12-.13-.11-.94-.14-.13.18-.07,0-.25.08,0,.05-.15-.2-.06-.06-1.05-.45-1.18-.3-.47-.09-.55-.6-.65Z" transform="translate(-97.62 -128)" style="fill: rgb(210, 210, 230);"></path>
   <path data-id="371" name="El Paujil" id="path5360" class="cls-1" d="M133.88,153.48l1.5,2.05.27.36-.08.39.56.25.36,1.07-.09.71.15,0,.15.64-.12.38-.23.08,0,.24.27.29,0,.91.34,3.68.14.14,0,.56.16.08-.21.51-.22.07-.77,1.8v.84l-.08.87-.18.1.2.2.27.07,0,.1-.2.16.11.6.09.47-.29.18.2.15-.07.52-.28.44-.19,0,.09.32.14,0-.11.62-.53.35,0,.54-.22.18.14.21.24.22-.12,1.21.22.23-.05,1-.17.17.31.28.58.12.16-.2.29.44-.09.15.33.48.42.31.62.63-.07.18.53.39.62-.12.17.19.53.07.13-.11.64.28.23.39.43.11.14.23.19-.16h.32l.16-.13.51.09a8.45,8.45,0,0,1,.69.59l0,.34.19.13.09.37.53.07.24-.17.42.32.17.42.48.13.05.53-.11.1.46.15.12.36.37,0,.13.68-.22.15.54.29.14-.09.17,0,.2.3.3.1.09.25h0l-.14.22-.81.47-.41-.1,0-.11-.59-.26-.77.2,0,.11-.38.06.17.17-.2.2-.41-.1-.37.33-.41,0-.74.15-.25-.14-.48.22-.12.22.2,0,.11.54-.3.12-.07.28-.62.45v-.18l-.46,0-.6.57-.3.36-.11.08.21.13-.09.29-.22-.23-.55,0-.26-.35h-.51l-.11-.41-.4-.16,0-.25-.53-.45h-.2l-.49-.36.14,0-.05-.51-.32-.15-.33-.72.2-.18L136,186l.19-.07,0-.16s-.32.06-.38,0-.34-.56-.34-.56l-.22,0-.24-.73-.24-.1s.19-.07.17-.13l-.14-.42-.58-.28-.24-1.29-.69-.45-.06-.2.09,0,0-.73.26-.09.15-.27-.4-.24-.07-.63-.17-.07-.09-.44.19,0,.41-.66.43-.32,0-.3-.36,0-.39-.61.23-.11.1-.56,0-.83-.19,0-.06-.29.12-.1,0-1,.12-.13v-.26l-.25-.14,0-.27.11-.11,0-.29-.23-.11,0-.7.16-.08.07-.51-.38-.94,0-.46.31-1.53-.33-.42-.05-.32.13,0,.23-.86-.2-.63.39-.57,0-1.22-.29-.25-.47-4.55-.45-2-.71-.78.07-1.2-.12-.13.2-.3.11-.31.12-.59.41-.38,0-.07-.22-.3s.27-.44.31-.48.64-.4.64-.4l.15-.07.14.19Z" transform="translate(-97.62 -128)" style="fill: rgb(210, 210, 230);"></path>
   <path data-id="370" name="El Doncello" id="path5355" class="cls-1" d="M134.43,152.76l-.4.29-.31,0,.17.46,1.49,2.05.27.36-.08.39.56.25.36,1.07-.09.71.15,0,.15.64-.12.38-.23.08,0,.24.27.29,0,.91.34,3.68.14.14,0,.56.16.08-.21.51-.22.07-.77,1.8v.84l-.08.87-.18.1.2.2.27.07,0,.1-.2.16.11.6.09.47-.29.18.2.15-.07.52-.28.44-.19,0,.09.32.14,0-.11.62-.53.35,0,.54-.22.18.14.21.24.22-.12,1.21.22.23-.05,1-.17.17.31.28.58.12.16-.2.29.44-.09.15.33.48.42.31.62.63-.07.18.53.39.62-.12.17.19.53.07.13-.11.64.28.23.39.43.11.14.23.19-.16h.32l.16-.13.51.09a8.45,8.45,0,0,1,.69.59l0,.34.19.13.09.37.53.07.24-.17.42.32.17.42.48.13.05.53-.11.1.46.15.12.36.37,0,.13.68-.22.15.54.29.14-.09.17,0,.2.3.3.1.09.25.37.06.17-.16.16.34.11-.1.31.36-.07.07.31.07.13-.09.1.14.17-.08.57.33.05.19.18-.07.16.11v.38l.11-.1.05,0,.18-.13.23,0-.13-.23h-.21l-.23-.18,0-.1.2.06.15-.13-.07-.21-.21-.15-.07-.11.14,0,.18-.15-.16-.21-.17.06-.16-.21,0-.2-.21-.16v-.17l.12-.08.13-.5-.1-.17h-.21l-.23-.18.16-.11.15-.23-.07-.17h-.13l-.2-.25.21,0,.17-.25,0-.2-.22.19-.38-.12-.16-.31.16-.12.07-.35-.28-.18-.4-.2-.05-.38,0-.32-.12-.22-.14.2-.28-.07.24-.08.16-.16-.07-.2h-.19l-.1-.27.12-.14,0-.33-.22.13-.06,0L148,180l-.29-.22-.16.19-.39-.16.05-.24.2,0,.16-.36-.14-.21-.34-.12L147,179l-.4-.23-.11-.32.15-.24.15,0,.13-.11-.15-.12-.22-.47.18-.18-.09-.23,0-.36-.27-.27,0-.35-.42-.1,0-.16-.18-.05,0,.18-.83.31-.82-.11-.3.27h-.19v-.15h-.38l0,.07.16.09-.09.16-.22-.12-.34.18v-.13l-.35,0-.18.12-.32.05-.13-.25h-.18l0,.14-.33.12-.15-.12h-.38l-.07-.31-.2-.05-.15-.25.09-.11v-.48h-.09l-.29.14v-.21l-.53-.29,0-.19-.09-.27-.26.17-.18-.22.06-.16-.16-.21-.21.12-.5-.27-.08-.51-.3-.08-.11-.26.13-.07v-.27l-.18-.12v-.35l-.16-.06.08-.11.14.05.23-.21,0-.33.31-.23.12-.7-.21-.17L138,170l.15,0,.16-.44,0-.59.69-2.25.1-.2.05-.37.49-.44.38,0v-.16l.38-.54.06-.4.15-.09,0-.31-.3-.3v-.34s.3-.16.31-.21,0-.46,0-.46l-.19.12-.51-.18-.08-.53-.29-.13-.09-.49-.23.09-.21-.22.08-.5L139,161s.12-.11.13-.15-.12-.63-.12-.63l-.32-.14-.19-.57-.33-.1-.12.11-.08-.13,0-.1,0-.53-.18-.19-.14-.92-.25-.45-.15,0-.08-.48-.18-.3.11-.25,0-.71-.35-.74-.25,0-.18-.72-.18-.12v-.45l-.68-.67-.21-.66-.38-.21Z" transform="translate(-97.62 -128)" style="fill: rgb(210, 210, 230);"></path>
   <path data-id="375" name="Puerto Rico" id="path5491" class="cls-1" d="M139.72,145.84l-.15-.14-.55,0-.15.12.15.07v.15h-.07l0,.09-.18.77-.88,1,.15.28v0l-.39.13v.15l-.29.6-.16.1-.12-.24-.1.09,0,.18-.3.23.1.64-.38.62-.31,0-.07.4-.53.34-.41-.3-.15.12v.48l.38.21.21.66.68.67v.45l.18.12.18.72.25,0,.35.74,0,.71-.11.25.18.3.08.48.15,0,.25.45.14.92.18.18,0,.54,0,.1.08.13.12-.11.33.1.19.57.32.14s.13.58.12.63-.13.15-.13.15l.2.06-.07.5.21.22.23-.09.09.49.29.13.08.53.51.18.19-.12s0,.41,0,.46-.31.21-.31.21v.34l.3.3,0,.31-.15.09-.06.4-.38.54v.16l-.38,0-.49.44-.05.37-.1.2-.69,2.25,0,.59-.16.44-.15,0,.1.55.21.17-.12.7-.31.23,0,.33-.23.21-.14-.05-.08.11.16.06v.35l.18.12,0,.27-.12.07.11.26.3.08.08.51.5.27.21-.12.16.21-.06.15.18.23.26-.17.09.27,0,.19.53.29v.21l.29-.14h.09v.48l-.09.11.15.25.2.05.07.31H141l.15.12.33-.12,0-.14h.18l.13.25.32-.05.18-.12.35,0v.13l.34-.18.22.12.09-.16-.16-.09,0-.07h.38v.15h.19l.3-.27.82.11.83-.31,0-.18.18.05,0,.16.42.11,0,.34.27.27,0,.36.09.23-.18.18.22.47.15.12-.13.11-.15,0-.15.24.11.32.4.23.13-.08.34.12.14.2-.16.37-.2,0-.05.24.39.16.16-.19.29.22-.09.39.06,0,.22-.13,0,.33-.12.14.1.27h.19l.07.2-.16.16-.24.08.28.07.14-.2.12.22,0,.32.05.38.4.2.28.17-.07.36-.16.12.16.31.38.12.22-.19,0,.2-.17.25-.21,0,.2.25h.13l.07.17-.15.23-.17.11.24.18h.21l.1.17-.13.5-.12.08v.17l.21.16,0,.2.16.21.17-.06.16.21-.18.15-.14,0,.07.11.21.15.07.21-.15.13-.2-.06,0,.1.23.18h.21l.13.23-.23,0-.18.13-.05,0-.11.1.12.12.2-.14.28.28.18-.09.08.34-.14.2.15.09.45-.2h.25l.31-.13.22,0,.17.43-.08.26.19.09.49-.13.14.21.19,0,0-.14.22-.13.21-.24.1,0,.07.21h.11l.12-.12-.14-.26.12-.21.14-.09.12,0,.15-.3.29.37,0-.31.15,0,.1-.25,0-.2-.13-.1v-.35l-.06-.22h-.25l-.06-.26.21-.12.1,0,.26-.13.05-.22-.21-.1-.14-.12.1-.17,0-.15-.09-.23.05-.38.1-.25,0-.25.42-.36-.11-.33.45-.47,0-.2h-.32l-.3-.2-.16-.22.23.08.45-.23-.05-.45-.28.14,0,.07-.47.17-.31-.14-.08-.14-.21,0-.07.08-.28.05-.2-.08,0-.24-.24-.1-.1.06-.43-.27.09-.34-.19-.19-.14-.53.11,0,.1-.74-.25,0-.1-.31.11-.14-.25-.55v-.61l-.3-.26-.1-.4.16.05.29-.38-.25-.18-.06-.58-.35-.26.07-.78.71-.84v-.13l.24-.2,0-.18-.64-.54-.05-.22h.13l.13-.3-.21-.47-.38-.14v-.62l-.18-.12,0-.11.16-.05L152,171l-.21-.15,0-.19H152l.24-.25-.12-.33.2-.15h.05l.16-.25v-.35l-.33-.08-.08-.16h.11l.18-.37-.23-.21h-.08l-.43-.32s0-.18,0-.22-.22-.4-.22-.4v-.23l-.39-.31-.16.05-.24-.3.05-.07,0-.52.18-.17.13-.71-.14-.11-.3-.84L150,164l-.28.12-.28.35-.18,0,.07-.15-.31-.7h-.21l-.08-.16.14-.1-.37-.71-.42,0,0,.35-.42.21-.49-.17-.28-.33-.43,0-.13.46-.39.13,0-.3-.29,0-.38-.87-.22-.13-.1-.54.15-.16-.11-.19-.21.34-.7.23-.75.77-.18-.17.09-.07-.1-.45-.44-.2-.14-.4h.2l.1-.61-.2,0,.06-.35-.26-.44h-.13l-.14-.1.23-.05.16-.42-.1-.28.26-.38.21.15.25-.16-.12-.19.18-.37.15.09.34-.06.08.13.38.06.08-.17.42-.22.15.14h.58l-.13-.28.12-.1.06-.25-.26-.1v-.16h.16l.38-.32.26.06.25-.09-.11-.23,0-.18.21-.19-.06-.39.21-.21.07-.2-.13,0-.13-1-.36-.23-.1.06-.16-.29.11,0,.09-.39.19-.12.05-.45-.25-.49-.21-.06.06-.28-.5-.27-.06.24-.49.35-.06.13h-.2l0-.25-.44-.21-.19-.38-.38,0-.2.33-.2-.13-.13.12h-.27l.12-.15-.24-.29-.62-.2-.18.19-.37-.07.17-.09-.24-.54-.36-.17-.27-.57.17,0v-.47l-.18,0,0-.74-.15-.19,0-.53.18-.2-.14-.41h-.17l-.39-.38-.28-.39Z" transform="translate(-97.62 -128)" style="fill: rgb(210, 210, 230);"></path>
   <path data-id="377" name="San Vicente del Caguán" scale="1" move="1" id="path4683" class="cls-1" d="M155.73,182.1l-.26.14,0,.07-.47.17-.31-.14-.08-.14-.21,0-.07.08-.28.05-.19-.08,0-.24-.24-.1-.1.06-.43-.27.09-.34-.19-.19-.14-.53.11,0,.1-.74-.25,0-.1-.31.11-.14-.25-.55v-.61l-.29-.26-.11-.4.16.05.29-.38-.25-.18-.06-.58-.35-.26.07-.78.71-.84v-.13l.24-.2,0-.18-.64-.54-.05-.22h.13l.13-.3-.21-.47-.38-.14v-.62l-.18-.12,0-.11.16-.05L152,171l-.21-.15,0-.19H152l.25-.25-.13-.33.2-.15h.05l.16-.25v-.35l-.33-.08-.08-.16h.11l.18-.37-.23-.21h-.08l-.43-.32s0-.18,0-.21a3.81,3.81,0,0,0-.22-.41v-.23l-.39-.3-.16,0-.24-.3.05-.07,0-.52.18-.17.13-.71-.14-.11-.3-.84L150,164l-.28.12-.28.35-.18,0,.07-.15-.31-.7h-.21l-.08-.16.14-.1-.37-.71-.42,0,0,.35-.42.21-.49-.17-.28-.33-.43,0-.13.46-.39.13,0-.3-.29,0-.38-.87-.22-.13-.1-.54.15-.16-.11-.19-.21.34-.7.23-.75.77-.18-.17.09-.07-.1-.45-.44-.2-.14-.4h.2l.1-.61-.2,0,.06-.36-.26-.44h-.13l-.14-.1.23-.05.16-.42-.1-.28.26-.38.21.15.25-.16-.12-.19.18-.37.15.09.34-.06.08.13.38.06.08-.17.42-.22.15.14h.58l-.13-.28.12-.1.06-.25-.26-.1v-.16h.16l.38-.32.26.06.25-.09-.11-.23,0-.18.21-.19-.06-.39.21-.21.07-.2-.13,0-.13-1-.36-.23-.1.06-.16-.29.11,0,.09-.39.19-.12.05-.45-.25-.49-.21-.06.06-.28-.5-.27-.06.24-.49.35-.06.13h-.2l0-.25-.44-.21-.19-.38-.38,0-.2.33-.2-.13-.13.12h-.27l.12-.15-.24-.29-.62-.2-.18.19-.36-.07.16-.09-.24-.54-.36-.17-.27-.57.17,0v-.47l-.18,0,0-.74-.15-.19,0-.53.18-.2-.14-.41h-.17l-.39-.38-.28-.39.06-.59.22-.13.33,0,.36.24.17-.24.1-.39.13-.06-.31-.19,0-.26.23-.09.07-.38.16-.24.3-.27v-.11l.17,0,.08-.37V143l.8-.48-.06-.29-.06-.27-.47-.46v-.39l-.24-.47.09-.51.51-.43.11-.64.18-.15v-.17l-.28,0-.25-.28-.24-.08-.06-.32.18-.1.14-.37.74-.17.15-.09.16,0,.12.14h.11l.17-.13.12-.21h.18l.07-.1H144l.19.25.18,0,.21-.2.13-.32.19-.08.08.08.2-.41.25-.06.61-.83.1-.33.48-.3,0-.18.18-.11,0-.22-.15-.11.08-.2h.09l.31-.38.49-.59,0-.19.23-.19,0-.24.14-.12.47-.09.13-.36.34,0,.4-.7.29-.17.2-.41.49-.27v-.12l.57-.56.35-.82-.09-.09,0-.21.32-.25.11.48.43.05.17.51-.19.69.12.27.17-.15h1.09l.27.29.16,0,.1-.39.41-.08.85-.46.31.32-.12.63.61.47,0,.76.41.29.56-.29h.58l.34,0,.22-.32,1.28-.25.73.23,0,.56.39,1.25-.51.29.24.3-.12.24.22.54.34.12a2.76,2.76,0,0,0,.05.57c.05.12.48.73.48.73l-.07.42H162l.12.17-.46.73.12.47-.48.46.12.4.7,0,.22.37.75.27.2.73-.44,1.18-.61-.2-.14.32.24.34,0,.25h-.72l-.58.56.12.44-.87.42-.49.59.07,1.08.14.36.8.56.11.67-.47.12v.5l-.33,1.12-.05.47-.17.28h-.44l-.28.79-.58,1.17-.63.5-.44,1.21,0,1.54-.36.36.14.36h.47l.58.28v-.39l.38-.36.28.56.58.05.3.53.45,0,.13.3.72.45v.31l-.91.42.17.25.6.14.39.39h.69l.44-.25.47.78-.13,1.29.36.5s-.83.31-.89.31h-.52l-.47.36,0,1.23-.74.79.47.14.3-.39,1.16.22.19.28-.41.64.74.73.23,0-.14.67,1.13,1.11.11.39-.36.52,0,.86-.25.11.14.42.41.39-.14.66-.14.25.06,1.2.22.25,1,.16,1.12.5.08.36,1,.5.85-.05,1-.19.22.08h.44l.36.3.16.56.47.54.72.32.51-.28.56-.54,1,0,1,.62.62,1.55v2l.55.51h1l.33-.44.33.15.28-.36.28.1.35-.22-.06-.3.39-.49v.18l.54-.18-.12-.08.64-.11.11.28.68.48.63-.05.44.19-.15.36.39.19.12.28-.31.22.09.4.29.12.05.31.43.07.63-.63,1-.06.5.34-.11.45.15.17.47-.36.39.14.3-.06.27.36-.27.4.32.59.38,0s.15-.52.24-.55.74-.18.74-.18l.3-.34.78-.11.17-.17h.25l.13.15.33.18.07.38.58.2h.6l.3.27,1-.23.15.29.38,0,.2-.44.45-.19.71-.39h.38l.6.17.36,0,0-.26.46,0,.71.34.43-.18.57,0,.6.86h.45l-.06.49.6.35.27.4-.32.28,0,.51.38.25-.19.35.35.45a2,2,0,0,0,.34.19.77.77,0,0,0,.28,0l.25.53-.31.45.34.35.29,0,.43.51.16-.16.25.16-.09.38.22.38.37,0,.32.16-.1.26.25.12.13.35.59.22-.22.45.13.25-.35.25.1.23,0,.19.38,0,0,.51.37-.13.22.13.28,0,.38.32.09.51.22-.13.28.06v-.12l.29.31.31.19.25.83.31.25-.12.76.47.38-.19.23.41.19.18-.23h.26l.18-.25s-.06.48-.06.6.28.22.28.22h-.19l.1.26-.38.54.57.25.22.41.18.07-.28.12a.68.68,0,0,1,0,.32c0,.16-.44.35-.44.35l.38.28,0,.19h.31l-.18.35-.1,0-.31.23.16,0,.31.41-.09.32.28.09.22-.22.06,0,.22,0-.19.57.25.2-.18.27.31.22.13-.2.42,0-.24.32.11.22.44.16.2-.09.24.09-.11.09.09.2.2-.2.11,0-.11.18.2.09h.29l.15.07-.28.27h-.25v.24h.29l.2.12-.22.22.22.09h.31l0,.22.16.21.26-.18.16.29.13-.16.16.54H213l.14-.14h.35l-.18.27.16.47.33.12L214,202l.28.21.29-.09-.09.29.16.16.26-.16.05.27-.33.2-.23.17-.35.13-.27.44-.15.44-.24-.21.1-.08-.21-.17-.25.1v-.23l.15-.1-.2-.14-.15,0-.19-.08,0-.24h-.17l-.15.17-.24-.28.19-.14-.29-.14h-.28l-.17-.26.05-.15-.17,0-.22.18-.3-.24h-.57l-1.68.77-.83,1.16-.06,1.55-.22.27.07.66-.59.74v.44l-.18.16,0,.31-.2.19h-.18l-.57.5V209l-.74.05-.36.42-.2-.09-.71.37,0,.27-.32-.12-.46.5-.28,0-.16.61h-.25l-.09.22v.81l-.27.36-.24.05-.05.79.21.14.08.51-.26.17v1.18l.32.19-.45.67-.74.49-.91,1.19-.21.89-.45.88-.34.14-.09.69-.15.09.25.08-.2.16-.24.06v.14l.11.15-.11.22-.14.06-.21-.12-.44.08-.25-.29.11-.09-.12-.14-.24.06-.1-.11.26-.13.42,0,.06-.36-.32-.27-.42,0,.08-.22.16-.05,0-.26-.46-.41-.25.19-.2-.25.09-.21-.45-.16-.08-.16h-.35l-.06.3.18.11-.14.09h-.2l-.23-.2h-.37v-.16h-.14l-.26.47.08.23-.18.05-.18-.06-.16.35.15.13-.07.27-.29-.12v-.21l-.3-.07v-.15l-.36-.12-.1-.27-.12-.11-.11,0v.23l.19.3,0,.25-.06.17h-.17l-.17-.09v-.11l-.11-.08-.28.07-.16.28-.17.27-.39.15-.51,0-.09-.06.09-.17.14,0,0-.1-.31-.11V220l-.37-.09h-.31l-.25.1-.21,0-.28-.22v-.18l-.13-.21H189l-.26-.09-.05-.1-.13-.15.1-.33.15-.08.13-.19-.07-.11h-.22l-.21-.11,0-.21-.14-.27h-.18l-.09.09-.28,0-.11,0-.23.14,0,.36.06.18-.18.13-.31-.06-.1-.08h-.34l-.21.07-.21,0-.28-.22-.09-.17-.17-.24-.23-.06-.19,0-.14,0,0-.14-.08-.07v-.09l.15-.12.07-.11-.06-.14-.13,0-.23-.11-.12-.22h-.08l-.09.07-.15,0-.09,0,0-.18.14-.33v-.07l-.09-.13.06-.26.09-.15-.05-.16-.16,0-.19,0-.19-.16,0-.16.12-.22L184,215l0-.29-.1-.05-.1.1-.17,0-.12-.12-.1-.16.08-.07v-.15l-.06,0-.11.07h-.11l-.05-.07h-.25l-.1.06-.12,0-.3-.17-.12-.28,0-.27-.19-.17-.14-.19h-.19l-.18-.29,0-.45-.05-.22.05-.11-.07-.07-.11,0-.18-.07-.05-.19.14-.14h.12l.1-.21-.17-.25-.1-.26v-.3l.06-.1.11,0,.21-.24-.1-.26-.16-.15-.15,0-.14-.21,0-.16-.11-.05-.23.18-.36.13-.25,0-.08-.13v-.13l-.26-.18-.09.1-.24,0-.1-.08.11-.17-.09,0-.07-.16h-.09l-.32.06-.2-.13-.12-.25.05-.1-.19-.11-.14.15v.11l-.17.22-.25-.12,0-.23-.13-.62-.12-.17v-.21l.06-.1v-.38l-.14-.08-.06.08.05.17-.13.2-.25,0-.08-.15-.13-.05-.1.12h-.18l-.07-.19V207l.08-.18-.11-.12-.16,0-.14.06-.24,0,0-.17-.14-.2-.18,0-.08.15-.11,0-.18-.07,0-.12,0-.24-.13-.24.06-.15-.14-.19H175l-.19.06-.26-.07,0-.16.18-.2V205l-.16-.1-.25-.06h-.08l-.29-.12-.09-.23.12-.11.06-.16-.05-.13V204l.15-.11.07,0,.11-.17v-.13l-.16-.16-.08,0-.23,0-.07-.22-.1-.14,0-.17-.29-.22-.13,0v-.1l.09-.12h.06l.11-.14-.11-.13-.15.08-.09-.05v-.17l.07-.08v-.14l-.22-.12h-.24l-.21.11h-.16l-.05-.08v-.13l0-.14-.24,0-.1.08-.39-.27-.12-.52-.17,0,.33-.25-.17-.36-.37-.34-.41,0a4.09,4.09,0,0,1-1.06-.62l-.55-.25-.08-.32.12-.17-.18-.27-.75-.51-.12-.33-.5-.18-.55-.74-.39.26-.4-.2-.11-.18-.16.17,0,.19-.43-.06-.17-.36-.61-.28-.2,0-.28-.43.11-.09-.14-.87-.29-.21.1-.11-.12-.15-.3.08-.2-.28,0-.21-3.47-2-1.53-1.45-1.13-.61-1-1-.41-.77-.06-.15-.24,0-.22.18-.11,0,.07-.17,0-.2-.13-.1v-.35l-.06-.22h-.25l-.06-.26.21-.12.1,0,.26-.13.05-.22-.21-.1-.14-.12.1-.17,0-.15-.09-.23.05-.38.1-.25,0-.25.42-.36-.11-.33.45-.47,0-.2h-.32l-.3-.2-.16-.22.23.08.45-.23-.06-.46" transform="translate(-97.62 -128)" style="fill: rgb(210, 210, 230);"></path>
   <path name="XXXX" id="path4489" class="cls-1" d="M126,191.85l0,3.72H126l-.08.14-.09-.09.09-.2.2-.12-.06-.09-.15,0,0,.13-.15,0-.29-.14v-.07l-.18.05,0,.07-.15.05-.16,0-.21-.16v-.09h-.12l-.06.12h-.17l-.2-.11V195H124l-.15.14,0,.13h-.14l-.09-.05-.07.09-.14,0-.09.1-.13-.07.06-.15.12-.09,0-.2-.1-.1-.2-.26-.14.13-.56-.23.14-.1-.3-.48-.21,0-.43-.61-.17,0-.12,0,.07-.1-.15-.23-.36,0-.11-.21.1-.15-.19-.34.08-.35H121l.13-.31-.23-.1-.21.14-.59-.07-.14-.19h-.19l-.13.12-.16-.09,0-.4-.31-.14v-.15l.14-.1-.07-.25,0-.17.22-.17.19-.53,0-.6,0-.52.17-.08.19-.35-.21-.06-.21-.23-.3-.09-.19.08-.17-.09,0-.28-.28-.54a2,2,0,0,1-.36-.15s-.17-.4-.17-.4l.14-.08.06-.7-.06-.15.19-.11v-.52l-.25-.29-.08-.71h.12l.17-.52.19,0,.3-.25.13.28.3-.05.44.33-.06.35-.08.12,0,.17.21.22-.08.18.09.26,0,.26.06.16,0,.24.2.2.07-.26-.06-.26.16-.2.36.06.28-.1.11.08.3-.08.12.16-.06.24.1.1.12-.1h.15l.44-.08.3.16,0,.22.2-.08h.12l0,.34.12,0,0,.1-.06.2.06.12.18,0,.12.1,0,.26h.16l.08.16-.06.18.12.08.18,0,.08.28.22,0,.19.26.14.32.26.08.14-.06.06.14-.08.3.21.56.22.14-.06.24-.1.12.12.14-.2.3-.19,0v.22l0,.12.25.26.2,0,.16.42-.16.26.24.34.16,0,.25.3.16,0,.14.25Z" transform="translate(-97.62 -128)" disabled="disabled" style="pointer-events: none;"></path>
   <path name="XXXX" id="path7053" class="cls-1" d="M112.89,189.91l.07.21h.15l.42-.3.2,0v.1l.43.13.12.13.28.09.08.26.25.23,0,.35.2.35v.25l.17.26.19,0,.22.33,0,.26-.1.12.25.17.22,0,.16.26,0,.11-.12.05v.2l.17.16.1.25-.11.13.1.12.1-.12.06.21.11.06v.17l.08.11.18-.12.17.16v.14l-.15.13.29.29v.48l.28.3h.18l.14-.19.07,0,0,.2.25.16.26,0,.13.34.16.14.12-.14.25,0,.16.19h.23l0-.36.13-.13.1,0,.17,0,.15-.18.2-.12.07-.12.15-.14,0-.08-.21,0,.16-.09.15-.06,0-.25-.16-.1v-.24l-.13,0v.1l-.12.1V195H120l-.15.09,0-.39H120l.08,0-.16-.13-.12-.15,0-.12.13-.18-.05-.11-.2.06v.14l-.2-.28,0-.18.13-.15,0-.2-.21-.05,0-.11.1-.09,0-.16-.19-.23h.16l0-.15-.16,0v-.31l.12-.23v-.26l.11,0,.21-.13v-.13l-.18-.1,0-.4-.31-.14v-.15l.14-.1-.07-.25,0-.17.22-.17.19-.53,0-.6,0-.52.17-.08.19-.35-.21-.06-.21-.23-.3-.09-.19.08-.17-.09,0-.28-.28-.54a2,2,0,0,1-.36-.15s-.17-.4-.17-.4l.14-.08.06-.7-.06-.15.19-.11v-.52l-.25-.29-.08-.71h.12l.17-.52.19,0,.31-.25v-.14l-.11-.21-.22-.09-.13-.48.13-.24-.17-.14-.46.17,0-.17.23-.25-.42-.37-.14,0-.36-.25.05-.44.26-.29.13-.52v-.14l.29-.18h.12l.11-.18-.26-.3v-.68l-.31-.34.07-.11-.12-.17-.27,0-.09-.18.11-.13-.27-.33h-.16l-.21-.13,0-.27.08-.08-.07-.19-.15-.18-.06-.24-.41,0-.29-.3,0,.39-.17.12,0,.27-.23,0-.25-.17-.29,0-.08.21-.43.2-.41.06-.36-.2-.49.12-.55.37,0,.24-.14.2-.33,0-.16.31-.07.32-.43.23,0,.18-.12.14-.35.11-.19,0-.35.11-.14.24.22.27-.08.26-.06.06,0,.31-.12.28-.35.14-.29-.08-.35.2-.62.94h-.14l-.25.3-.23,0-.08-.18-.37,0-.06.16h-.35l-.14-.28h-.15l-.27.26-.28.07,0,.44-.46.15.16.26V183l-.11.36-.08.11,0,.3.32.48.21.11.11,0,.09,0,.1.13.11-.05.52-.28.09-.23.15,0v-.18l.46-.22.19,0,.14.13.16-.09.27-.08,0,.19.13.16.22.22.06.32.35.34,0,.27-.41.58v.24l.13.16h.2l.29.35-.06.24.22.13,0,.19-.16.16-.06.22.14.1s0,.23,0,.31.47.36.47.36l.08.26.47.46.24,0,.11.1v.11l.44.1.15.24,1,.51v.12Z" transform="translate(-97.62 -128)" disabled="disabled" style="pointer-events: none;"></path>
   <path name="XXXX" id="path4490" class="cls-1" d="M116.48,198.84l.23-.14.08-.09-.1,0-.11.05-.1-.09.11-.09.09-.4-.14-.17,0-.14.19.06.2-.22-.16-.17,0-.23.32-.13.07.14.27,0,.1.25.38.2-.1-.29.22-.19.11.08.37-.17.08-.4-.16-.14-.13-.34-.26,0-.25-.16,0-.2-.07,0-.14.19h-.18l-.28-.3v-.48l-.29-.29.15-.13v-.14l-.17-.16-.18.12-.09-.11v-.17l-.1-.06-.06-.21-.1.12-.1-.12.11-.13-.1-.25-.17-.16v-.2l.12-.05,0-.11-.16-.26-.22,0-.25-.17.1-.12,0-.26-.22-.33-.19,0-.17-.26v-.25l-.2-.35,0-.35-.25-.23-.08-.26-.28-.09-.12-.13-.43-.13v-.1l-.2,0-.42.3H113l-.26.34h-.17l-.32.39-.23.54-.15,0,0,.09-.16.08h-.09l-.11.47.16.6-.31.72-.65.54-.16-.05-.33.19-.08.21.4.17-.06.23.2.15-.24.11-.06.36.26.08v.23l.67.32-.18.21.3.26-.08.47.31.21.12-.12.43.18-.11.21,1,.27v.1l.33.14.08.2-.16.07-.06.13.22.15-.1.24-.44.18.07.56-.29.53-.14.07,0,.51.32-.4.26.06.94-.35.06-.28.47-.23.07.13.64-.1.8-.4.41-.09Z" transform="translate(-97.62 -128)" disabled="disabled" style="pointer-events: none;"></path>
   <path name="XXXX" id="path4498" class="cls-1" d="M155.19,187.88l0,.08-.15,0,0,.31-.29-.37-.15.3-.12,0-.14.09-.12.21.14.26-.12.12h-.11l-.07-.21-.1,0-.21.24-.22.13,0,.14-.19,0-.14-.21-.49.13-.19-.08.08-.27-.17-.43-.22,0-.31.13h-.25l-.45.2-.15-.09.14-.2-.08-.34-.18.09-.28-.28-.2.14-.12-.12v-.38l-.16-.11-.18.07-.05-.19-.57-.33-.17.08-.1-.14-.13.09-.31-.07.07-.07-.31-.36-.11.1-.16-.34-.17.16-.36-.07-.15.23-.81.47-.41-.1,0-.11-.59-.26-.77.2,0,.11-.38.06.17.17-.2.2-.41-.1-.37.33-.39,0-.19.4.08.24-.12,0,.23.54.31.28v.2l-.1.11.09.33h.15l-.17.6h-.18v.49h.12l.44.6s.15.54.15.56-.16.09-.16.09l.48.2.29.37-.06.29-.12,0,0,.22.15.08.06.79-.07,0,.59.42v.22l.63.14,0-.17.4.18.26.4.13-.08.21.08,0,.49-.17.07c-.06,0,0,.36,0,.36l.2.12-.25.28-.33.09.42.47.23,0,.34.39-.12.13.4.31.09.3.28.11,0,.32.29,0,.8,1v.48l.43.31,0,.75-.15,0,.15.6.64.3.26.65-.06.38.42.16.44.56.18.17.29-.09-.07.28-.2,0,.08.24.27.17-.28.27,0,.22.19,0,.27.28-.11.42.49.45.18-.11.31.22,0,.35-.1.07.17.53.31.09.05.36.3-.17.35.49-.17.27.58.6.15-.11.23.26,0,.38.14.26-.24.32-.09,0-.25.43.16.41-.45.47-.15,0-.34.49-.18-.06.17.53-.11.08.08.22h.19l.28.36-.24.31.34.14-.1.19.35.28.09,0,.19.06-.09.21-.42.06.06.3.33.21,0,.37-.25.37.25.31.24,0v.49l-.18.17.3.15.19-.17.17.06,0,.34.26.36-.22.13.31.15.13-.18.26.14.12.29.33,0,0-.21.39.15-.07.29.35.19-.09.17.09.18.46-.12.41.28.35-.31.56.14.12.61.46.15.09-.13.55.15.51,1v1.29l.22.12-.16,1.06.17.52.25.11v.89l-.13,0,.08.27.24.18-.06.28.57.45.2-.06.18.11-.22.31.34.38.25.63.31.08-.07.45-.13.07.12.19.51.1.05.41-.08.07,0,.16.4.2.07.26.22.36.67.25.05.56-.12.09.19.44.22.15.07.62-.12.06.08.42.35.16v.19l-.15.13.08.33.42.43.28.36-.07.63-.18,0,.14.3.26.07v.49H166l.08.31.3.33V236h25.06l.29.19.28.59,0,.51.23,0,.44.32.09.23.3-.16.28.26,0,.27.28-.14.12.36.7.19.63.68.78-.22.05.27.33-.15.19-.6.41-.18L197,238l.61.23.08.5-.25.07.34.24.36-.09.1.12.18-.27-.16-.12.14-.15.29.19.15-.39H199l.11.55h.42l-.28.34.22.28.3-.15.18.3v-.35l.32.09.27.37h.3l.64-.41-.17-.2.47.14-.08.2.49,0,.27-.38.18.31.47-.25.29.16.16-.22h.23l-.09-.29.66-.34h.36l.07-.39.44,0-.09-.19.18-.08.1.23.46-.12v-.27l.47.39v.33h.48l-.22.38h.31l.32-.34.28.27h.42l.08-.29.12.15,0,.73h-.21l.15.29.68.24.18-.19.23.51-.23.21.44,0,.06.4.29-.39.4.1-.08-.22.45.1.15.27.11-.14.4.31.24-.13.36.29.09-.41-.29-.18.28-.08.25.24.15-.16.25.5.37.05.34.39-.14-.67-.16-.08.14-.16.54.06.1.26.42-.28,0-.23-.15-.08.12-.1.32,0,.16-.24.29.46-.06.21.14.14.23-.19.37.14,0,.18.34.05,0-.25-.31-.2.18-.26.61,0,0-.27h.14l.11.34L217,240l.37.35.07-.28.28.12.46.41-.11-.46.3-.7.31-.22-.07-.24-.79.12-.21-.43.37-.37.3-1.26-.61-.43-.54.06-.73.52-.19-.24.82-.59.1-.55-.73.34-.4.67h-.39l.36-.52-.12-.49-.37.43-.54,0-.25-.46.13-.37-.25-.46-.58.86v-.71l-.39.31h-.4l.25-.59-.06-.24-.4.24-.15-.24-.52,0v-.28H213l.43-.19-.25-.49-.33.46h-.15l.06-.95-.46.65-.45-.31-.13-.43-.39.43.21.09v.43l-.3.16h-.49l-.58-.65.28-.28.51.13-.42-.37.3-.31-.09-.22-.45.31-.25-.21V232h-.27l-.43.5-.36-.62-.27.09.09.46-.28.28-.27-.12.27-.34-.36-.4-.31.06-.36.4h-.33l.12-.4-.37-.34-.37.22-.34-.27.22-.07.09.14.28-.19-.23-.39.11-.42h.13l0-.62-.41-.41h-.15l-.09-.35H206l0,.22-.45.4-.32-.12-.32,0-.49-.46v-.13l.22,0,.07-.46-.15-.15.3-.08.18-.22-.42-.41v-.35l-.35-.17-.05.29H204l-.21-.26-.54-.14v-.22l.31-.12.17.09.32-.15.14-.45-.31-.29.07.42-.44.19-.08-.34L203,226l.16-.21h.2v-.09l-.45-.19v-.14l.28-.19-.19-.06-.05-.19.18-.07.06-.2h-.36l-.19.32-.21-.28.22-.14.06-.27.21,0-.29-.27-.31-.05-.08-.33-.37.18.09.39h.16l.12.2-.13.21-.31-.22-.48.07-.07-.3.48-.34,0-.24-.44-.28-.25.17.15.19-.3.18-.24-.33.08-.28.27-.08-.61-.24.16-.13-.24-.13-.56.27v.16l-.54.1v-.54l.19-.18-.27-.27-.41-.2v-.14l-.48-.21v-.23l.13,0-.23-.12-.44.08-.25-.29.11-.09-.12-.13-.24,0-.1-.11.26-.13.42,0,.06-.36-.32-.27-.42,0,.08-.22.16-.05,0-.26-.46-.41-.25.19-.2-.25.09-.21-.45-.16-.08-.16h-.35l-.06.3.18.11-.14.09h-.2l-.23-.2h-.37v-.16h-.14l-.26.47.08.23-.18.06-.18-.07-.16.35.15.13-.07.27-.29-.12v-.21l-.3-.07v-.15l-.36-.12-.1-.27-.12-.11-.11,0v.23l.19.3,0,.25-.06.17h-.17l-.17-.09v-.11l-.11-.08-.28.07-.16.28-.17.27-.39.15-.51,0-.09-.06.09-.17.14,0,0-.09-.31-.12V220l-.37-.09h-.31l-.25.1-.21,0-.28-.22v-.18l-.13-.21H189l-.26-.09-.05-.1-.13-.15.1-.33.15-.08.13-.19-.07-.11h-.22l-.21-.11,0-.21-.14-.27h-.18l-.09.09-.28,0-.11,0-.23.14,0,.36.06.18-.18.13-.31-.06-.1-.08h-.34l-.21.07-.21,0-.28-.22-.09-.17-.17-.24-.23-.06-.19,0-.14,0,0-.14-.08-.07v-.09l.15-.12.07-.11-.06-.14-.13,0-.23-.11-.12-.22h-.08l-.09.07-.15,0-.09,0,0-.18.14-.33v-.07l-.09-.13.06-.26.09-.15-.05-.16-.16,0-.19,0-.19-.16,0-.16.12-.22L184,215l0-.29-.1-.05-.1.1-.17,0-.12-.12-.1-.16.08-.07v-.15l-.06,0-.11.07h-.11l-.05-.07h-.25l-.1.06-.12,0-.3-.17-.12-.28,0-.27-.19-.17-.14-.19h-.19l-.18-.29,0-.45-.05-.22.05-.11-.07-.07-.11,0-.18-.07-.05-.19.14-.14h.12l.1-.21-.17-.25-.1-.26v-.3l.06-.09.11,0,.21-.24-.1-.26-.16-.15-.15,0-.14-.21,0-.16-.11-.05-.23.18-.36.13-.25,0-.08-.13v-.13l-.26-.18-.09.1-.24,0-.1-.08.11-.17-.09,0-.07-.16h-.09l-.32.06-.2-.13-.12-.25.05-.1-.19-.11-.14.15,0,.11-.18.22-.25-.12,0-.23-.13-.62-.12-.17v-.21l.06-.1v-.38l-.14-.08-.06.08.05.17-.13.2-.25,0-.08-.15-.13-.05-.1.12h-.18l-.07-.19V207l.08-.18-.11-.12-.16,0-.14.06-.24,0,0-.17-.14-.2-.18,0-.08.15-.11,0-.18-.07,0-.12,0-.24-.13-.24.07-.15-.15-.19H175l-.19.06-.25-.07,0-.16.18-.19V205l-.15-.1-.26-.06h-.08l-.29-.12-.09-.23.12-.11.06-.16-.05-.13V204l.15-.11.07,0,.11-.17v-.13l-.16-.16-.08,0-.23,0-.07-.22-.1-.14,0-.17-.29-.22-.13,0v-.1l.1-.12h.05l.11-.14-.11-.12-.15.07-.09-.05v-.17l.07-.08v-.14l-.22-.12h-.24l-.21.11h-.16l-.05-.08v-.13l0-.14-.24,0-.1.08-.39-.27-.12-.52-.17,0,.33-.25-.17-.36-.37-.33-.41,0a4.09,4.09,0,0,1-1.06-.62l-.55-.25-.08-.32.13-.17-.19-.27-.75-.51-.12-.33-.5-.18-.55-.74-.39.26-.4-.2-.11-.18-.16.17,0,.19-.43-.06-.17-.36-.61-.28-.19,0-.29-.43.11-.09-.14-.87-.29-.21.1-.11-.12-.15-.3.08-.2-.28,0-.21-3.47-2-1.53-1.45-1.13-.6-1-1.06-.41-.77-.06-.15-.24,0-.22.18-.11,0Z" transform="translate(-97.62 -128)" disabled="disabled" style="pointer-events: none;"></path>
   <path name="XXXX" id="path7077" class="cls-1" d="M131.45,208.09l0-.28-.2-.23-.32.07-.34.32-.18-.07h-.3l-.13.23-.17.14-.22-.13L124.21,204l-.2,0-.24-.33.11-.25-.49-.34H123v.27l-.55.29v.38l-.33-.25-.28.1-.19-.06-.24.5-.37.09.16.11,0,.29.17.13,0,.1-.31,0-.08.37-.21.19-.1-.09.11-.15-.2-.34-.27.1-.09-.16-.07.2-.26,0-.22-.21.08-.07-.08-.31h-.22l-.3-.37-.17,0-.15-.32-.08.24h-.12l-.14.3-.26-.2.16-.15-.13-.45-.16.11-.09-.32-.23-.07.17-.31-.2,0-.14-.3h-.19v-.27l-.12,0v-.25l.15,0V202l.25-.06v-.1l-.38-.17-.12-.47-.31,0-.13.46-.1-.21-.22.06-.58-.08v-.21l-.23.17-.19-.05v0l-.18-.26.24-.39.13.06.38-.53v-.18l.52-.91,0-.19.22-.14.08-.09-.1,0-.11.05-.1-.09.11-.09.09-.4-.14-.17,0-.14.19.06.2-.22-.16-.17,0-.23.32-.13.07.14.27,0,.1.25.38.2-.1-.29.22-.19.11.08.37-.17h0l.08-.4.12-.14.25,0,.16.19h.23l0-.36.13-.13.1,0,.17,0,.15-.18.2-.12.07-.12.15-.14,0-.08-.21,0,.16-.09.15-.06,0-.25-.16-.1v-.24l-.13,0v.1l-.12.1V195H120l-.15.09,0-.39H120l.08,0-.16-.13-.12-.15,0-.12.13-.18-.05-.11-.2.06v.14l-.2-.28,0-.18.13-.15,0-.2-.21-.05,0-.11.1-.09,0-.16-.19-.23h.16l0-.15-.16,0v-.31l.12-.23v-.26l.11,0,.21-.13,0-.13h0l.13-.12h.19l.14.19.59.07.21-.14.23.1-.13.31h-.15l-.08.35.19.34-.1.15.11.21.36,0,.15.23-.07.1.12,0,.17,0,.43.61.21,0,.3.48-.14.1.56.23.14-.13.2.26.1.1,0,.2-.12.1-.06.14.13.07.09-.1.14,0,.07-.09.09.05h.14l0-.13L124,195h.11v.1l.2.11h.17l.06-.12h.12v.09l.21.16.16,0,.15-.05,0-.07.18-.05v.07l.29.14.15,0,0-.12.15-.05.06.09-.2.12-.09.2.09.09.08-.14h.1l.15.36,0,.24.12.18v.27l-.08.71.17.12.2.53-.08.2.07.11.14-.07.16.08-.08.17.24.27.15-.06.25.23v-.29h.27l0,.14.39.34.57.37,0,.29.31.16.57.6-.05.35.2.09.25.46.22.2.06.18h-.12l-.05.12.25.31.22.15.72,1.06.49.37-.08.22.09.19.51.28v.31l.18,0-.09.23.09.27.26,0,1.52,1.46,0,.13-.12,0v.24l-.25.15-.12.15.17.08v.11l-.32.16-.49-.06-.36.41-.48.13-.48,0Z" transform="translate(-97.62 -128)" disabled="disabled" style="pointer-events: none;"></path>
   <path name="XXXX" id="path7091" class="cls-1" d="M129.55,208.14l.22.13.17-.14.13-.23h.3l.18.07.34-.32.32-.07.2.23,0,.28.28.26.48,0,.48-.13.36-.41.49.06.31-.16.24.19,0,.2.19.15.23-.21-.23-.09-.07-.36.26-.08.16-.29-.09-.11.21-.15-.06-.29.2-.15,0,.16h.22l.11-.19.29-.12.15.15h.3l0-.23.33,0,.3-.15.26.15.14.23h.6l.21-.24.42.16.07.35.21.11v.57l-.14.13.16.33.44.12.09-.2.19-.5.2.06.38-.15V207l.21-.08,0-.34h-.18l-.38-.84h-.17l-.32-.35,0-.44.13,0,.12-.29-.19-.09-.06-.15.16-.07.06-.59.63-.54,0-.21-.22-.06-.14-.18.29.06.06-.24.38-.14.16-.37,0-.46-.18-.12,0-.11h.08l.29-.5-.28-.12-.07-.26.12-.58-.16-.09,0-.26.23.06.46-.15-.14-.23.33-.15.23-.47-.27-.07,0-.19.27,0,.21-.19-.08-.18.28-.32v.19l.24.21h.23l0-.22.14-.12-.09-.15.2-.21.11.09h.2l.14-.35,0,.24.19,0,.05.29.07-.08,0-.21.21-.05.16-.16-.09-.07-.06-.57.27-.08v-.15l.29-.13,0-.16.24-.12v.17l.4.16,0,.14-.18.07v.1l.4,0,.11.12-.11.07.16.28.24.08.16.26,0,.21.28.26h.2l.26.35v-.31l.34-.08-.06.12.21.18-.07.2.18.09,0-.16.22,0-.06.18.26.2,0-.31.29-.06,0,.14h.22l.08-.15.27.1,0,.32.29,0,.8,1v.48l.43.31,0,.75-.15,0,.15.6.64.3.26.65-.06.38.42.16.44.56.18.17.29-.09-.07.28-.2,0,.08.24.27.17-.28.27,0,.22.19,0,.27.28-.11.42.49.45.18-.11.31.22,0,.35-.1.07.17.53.31.09.05.36.3-.17.35.49-.17.27.58.6.15-.11.23.26,0,.38.14.26-.24.32-.09,0-.25.43.16.41-.45.47-.15,0-.34.49-.18-.06.17.53-.11.08.08.22h.19l.28.36-.24.31.34.14-.1.19.35.28.09,0,.19.06-.09.21-.42.06.06.3.33.21,0,.37-.25.37.25.31.24,0v.49l-.18.17.3.15.19-.17.17.06,0,.34.26.36-.22.13.31.15.13-.17.26.13.12.29.33,0,0-.21.39.15-.07.29.35.19-.09.17.09.18.46-.12.41.28.35-.31.56.14.12.61.46.15.09-.13.55.15.51,1v1.29l.22.12-.16,1.06.17.52.25.11v.89l-.13,0,.08.27.24.18-.06.28.57.45.2-.06.18.11-.22.31.34.38.25.63.31.08-.07.45-.13.07.12.19.51.1.05.41-.08.07,0,.16.4.2.07.26.22.36.67.25.05.56-.12.09.19.44.22.15.07.62-.12.06.08.42.35.16v.19l-.15.13.08.33.42.43.28.36-.07.63-.18,0,.14.3.26.07v.49H166l.08.32.3.32V236h25.06l.29.19.28.59,0,.51.23,0,.44.32.09.23.3-.16.28.26,0,.27.28-.14.12.36.7.19.64.68.77-.22.05.27.33-.15.19-.6.41-.18L197,238l.61.23.08.5-.25.07.34.24.36-.09.1.12.18-.27-.16-.12.14-.15.29.19.15-.39H199l.11.55h.42l-.28.34.22.28.3-.15.18.3v-.35l.32.09.27.37h.3l.64-.41-.17-.2.47.14-.08.2.49,0,.27-.38.18.31.47-.25.29.16.16-.22h.23l-.09-.29.66-.34h.36l.07-.39.44,0-.09-.18.18-.09.1.23.46-.12v-.27l.47.39v.33h.48l-.22.38h.31l.32-.34.28.27h.42l.08-.29.12.15,0,.73h-.21l.15.29.68.24.18-.19.23.51-.23.21.44,0,.06.4.29-.39.4.1-.08-.22.45.1.15.27.11-.14.4.31.24-.13.36.29.09-.41-.29-.18.28-.08.25.24.15-.16.25.5.37.05.34.39-.14-.67-.16-.08.14-.16.54.06.1.26.42-.28,0-.23-.15-.08.12-.1.32,0,.16-.24.29.46-.06.21.14.14.23-.19.37.14,0,.18.34.05,0-.25-.31-.2.18-.26.61,0,0-.27h.14l.11.34L217,240l.37.35.07-.28.28.12.47.42-.12-.47.3-.7.31-.22-.07-.24-.79.12-.21-.43.37-.37.3-1.26-.61-.43-.54.06-.73.52-.19-.24.82-.59.1-.55-.73.34-.4.67h-.39l.36-.52-.12-.49-.37.43-.54,0-.25-.46.13-.37-.25-.46-.58.86v-.71l-.39.31h-.4l.25-.59-.06-.24-.4.24-.15-.24-.52,0v-.28H213l.43-.19-.25-.49-.33.46h-.15l.06-.95-.46.65-.45-.31-.13-.43-.39.43.21.09v.43l-.3.16h-.49l-.58-.65.28-.28.51.13-.42-.37.3-.31-.09-.22-.45.31-.25-.21V232h-.27l-.43.5-.36-.62-.27.09.09.46-.28.28-.27-.12.27-.34-.36-.4-.31.06-.36.4h-.33l.12-.4-.37-.34-.37.22-.34-.27.22-.07.09.14.28-.19-.23-.39.11-.42h.13l0-.62-.41-.41h-.15l-.09-.35H206l0,.22-.45.4-.32-.12-.32,0-.49-.46v-.13l.22,0,.07-.46-.15-.15.3-.08.18-.22-.42-.41v-.35l-.35-.17-.05.29H204l-.21-.26-.54-.14v-.22l.31-.12.17.09.32-.15.14-.45-.31-.29.07.42-.44.19-.08-.34L203,226l.16-.21h.2v-.09l-.45-.19v-.14l.28-.19-.19-.06-.05-.19.18-.07.06-.2h-.36l-.19.32-.21-.28.22-.14.06-.27.21,0-.29-.27-.31-.05-.08-.33-.37.18.09.39h.16l.12.2-.13.21-.31-.22-.48.07-.07-.3.48-.34,0-.24-.44-.28-.25.17.15.19-.3.18-.24-.33.08-.28.27-.08-.61-.24.16-.13-.24-.13-.56.27v.16l-.54.1v-.54l.19-.18-.27-.27-.41-.2v-.14l-.48-.21v-.23l.13,0,.12-.06.11-.22-.11-.15v-.14l.24-.06.2-.16-.25-.08.15-.09.09-.69.34-.14.45-.88.21-.89.91-1.19.74-.49.45-.67-.32-.19v-1.18l.26-.17-.08-.51-.21-.14.05-.79.24-.05.27-.36v-.81l.09-.22h.25l.16-.61.28,0,.46-.5.32.12,0-.27.71-.36.2.08.36-.42.74-.05v-.15l.57-.5h.18l.2-.2,0-.31.18-.16v-.44l.59-.74-.07-.66.22-.27.06-1.55.83-1.16,1.68-.77h.57l.3.24.22-.18.17,0-.05.15.17.26h.28l.29.14-.19.14.24.28.15-.17h.17l0,.24.19.08.15,0,.2.14-.15.1v.23l.25-.1.21.17-.1.08.24.21.15-.44.27-.44.34-.13.1.19.42.29.2-.11.07.2.51.2.09.27.46-.16-.09-.2.16-.09,0,.2.22.07.16-.2.11.16.29-.14.08.23.56.22-.31-.05-.11.23.11.2,0,.22-.27,0,0,.13-.17.18h-.14l.07.14.38-.12.11.14-.14.22.07.18.33-.13.25.29-.14.33.2.21.16-.27.24.11.13-.14.07.23-.11.16-.29,0-.09.14.6.13h.2l0,.07-.2.13,0,.23.45.09.22-.32.26.09.31-.24.09,0-.22.2.16.23h.31l.26.24.4-.16-.11.18.2.21-.13.13.33.16.29-.36.29-.05.35-.22,0,.29h.36l.06.18.12-.29-.05-.31.4-.27.15.42.23,0,.22,0,.17-.36-.15-.31,0-.25.34,0-.09.29.31.15v-.24l.26-.07-.2-.47-.24-.07v-.38l.38.18,0-.47.11-.05.05.23.35.07.44-.38.07.17.24-.6-.15-.25.31-.13v.24l.24.09.31-.33-.11-.16.33-.45-.26-.33.13-.32.16.14.08-.16.31.11-.08.25.39.16.27-.23-.11-.09.18-.18,0,.29.22,0,.07-.2h.15l.09-.27.11-.09.09.27.24-.16.27.05v-.18l-.29-.27,0-.2.29,0-.11-.2-.4,0,0-.15.22-.23.22.12.31.31.18.07v-.27l-.2-.29,0-.65a1.29,1.29,0,0,0-.26-.05c-.09,0-.2-.13-.2-.13l-.4.4-.07-.22.05-.27.22-.09.22.09.2-.29-.35-.09-.07-.3h-.29l0-.2.46,0,.2-.18h.18V200l.31.16.29-.32-.31-.33-.58-.09-.2-.63.2-.54.18.13.48.05.14-.38-.45-.25v-.22l.23,0,.06.13.44.16.12.2s.35-.33.39-.15l.09.31.14-.43.24-.06v-.34l-.29-.16,0-.18.48.09.23-.26h.15l.16.33.26-.07.13,0,.14-.21.64-.06v.22l-.42.25-.29.83.47.33.15.36.33-.06.42.24.38-.4-.15-.32.13-.35.49.11.15,0,0-.18-.29-.15.18-.45-.07-.29.11-.34.44,0,.11.24.61,0,.41.09.25-.18.19.16.07.47.11.09.31-.29.16-.43-.25-.27.16-.33.22,0,.24.67.11.2.05.56.31.16.26.29.56,0,.24.15.36.09.17.29-.09.34.18.22.18-.09,0-.35.33,0,.29.38.24.09,0,.38.75.36h.34l.57.38.2.27.29-.07,0-.13.27-.07.2.09h.15l.27-.4.22.06.22,0,.16.16.26,0,0,.56.37.16.18,0a2.68,2.68,0,0,1,.09.27,6.38,6.38,0,0,0,.68.69l.05.65.55.38h.31l.09.23-.22.49-.36.11.14.25.15.07.09.53h.35l.18.21.27-.14.11.47-.2.65-.47.52.09.18.75,0,.36-.36.44-.33.4.24.09.54-.4.29.24.61.42.38-.06.22-.29.07,0,.38.48.54.14.34.2.17.31-.51v-.18l-.47-.56.29-.34.46,0,.31-.16.27.16s.29.42.27.51a1.56,1.56,0,0,1-.16.27l-.4.18,0,.5.38.58.44.11-.47.2-.33-.07-.24.09-.05.41.62.74.09.38.44.18.43.36.26-.21-.09-.4-.37-.54.17-.11h.36l.35.18.31.72.27.29.51.25,0,.87-.33.36,0,.36.31.27.62.29.46-.61.09-.47.31.05.16.33.37.23.27-.32-.19-.29h.32l.16.31.32.35.46-.35-.25-.45.35-.12.37.25-.16.3,0,.36.57.61h.6l.28-.18.39.23.28.58a3,3,0,0,1-.12.7c-.07,0-.52,0-.52,0l-.11.24.5.19,1.09,0,.52-.42.46,0,.26.47.32,0,.23-.36s.36.41.39.47-.15.37-.15.37l.15.39.33-.13.1.28-.22.19-.13.44-.45.42-.33,0-.23.18.39.11.36,0,.26.42-.19.49.28.26h.64l.29.17,0,.46.23.25.46-.24.11-.26-.22-.45.22-.16.3.42.15.81.62.6-.11.53-.51.27-.13.65.41.47.5-.24.24.21-.19.38-.66.2.13.34.72.35.48-.19.17-.39-.14-.34.19-.13.32.29h.35l.5.39.2.92-.22.29.19.07.15.4h.73l0,.22-.49.16,0,.34.26.5-.4.49-.46,0,.24.42.44.18.39.19.84-.47,0-.34-.28-.08-.24-.37.1-.1.48.26.57.15.4-.29.47.14-.37.34,0,.37-.57.05-.13.31.46.26.22.16.63-.25.33.17-.35.82.53.76.22,0,.1-.46.22-.47.38-.08.37-.29.27,0,.15.78-.85.35-.3.35,0,.43.15.11.47.57.7,1h.47l.81.34.19.4.58.23.46-.42.06.23-.23.25.43.11.09.33-.73,0,.12.26.88,0,.18.27.31-.56,1-.77.23-.34.3.18v.42h-.44l-.26.41.1.37-.19.29-.5.14.13.28.53,0,.31-.36.91,0,.65.54v.51l-.42.31-.37-.14v.46l.32.4.61-.07.28-.42.74.14.17-.68h.35l0-.57-.18-.16.43-.12-.14-.51.3-.15.79.61-.3.45-.47-.08.06.46.39.08.22.34,1,.12,1-.64,0-.37-.18-.06,0-.5.25-.35.22.2v.2l.7,0,.26.2-.13.82.06.2h.23l.43,0,.23.32.25-.12-.27-.37.32-.32.14.35.59.43.14.48-.53.17-.08.28.63.24.68.23h.47l.27.48-.42.45.55.4.67-.3.37.1.22.52-.45.1-.22.61-.3.15-.34-.08-.35.23-.32,0-.45.38-1.26.1-.49-.35-1,.1-.17.22.22.25-.49.13-.28.22-.56,0-.57-.18-.57.1v.7l-.18,0-.37-.2-.42.12-.91-.3-1.69-1.07-1.48.3-.1.55.2.27-2,1.28-.64,0-.69.55-.85.34-.31-.2-.28.06-.17.63.42.51-.17.4-.48.18,0,.4-.28.2-.23.14,0,.46-.26.34-.08.66.28.26a3.22,3.22,0,0,1,.28.69c0,.14,0,.37,0,.37l.31.51,0,1-.22.05-.34-.25,0,.31-.34.2-.17.46-.6.06-.42,0-.28.37-.71.14-.26-.25-.39.05v.12l-.37.37-.48,0-.17,0-.11-.23-.23,0-.91-.06-.22-.2-.46.29h-.93l-.37-.32-2.12.29-.25.37-.29-.17-.59-.17-.31-.41-1,.29-.12.4-.73.55.28.57-.06.57-.53.09-.37.46-.14-.15-.29-.31-.25.11-.34.15-.48.17-.26-.09-.25.32-.4.14.06.23h-.48l-.26,1.06.43.34.11.29-.76.51v.89l-.77,1.23-.34.09-.17.57-1.07.35.06.37-.29.28.14.38-.25.43,0,.91-.25.92.08,1-.28.43-.2,0-.45.35-.74.23,0,.48-.91.38-.72-.26-1.9-.77-1.38-1,.22-.86-.41-.6-.62,0-1.67,1.92-1,1.23-1,.87-1.08,1.54-.32.07-1.14-.53-1-.79-.84-.5-1.25-.87-.21-.78-.67-.19-.44-.6-.69-.39-.71-.23V264l-.21-.44h-.35l-.73.87-.76,0-.66.91H230l-1.27.7-.64.1-.27-.15-1.55-.3-.56-1.33-.93-.92-1.32-.94-.81-.09-1,1-.15.92-.39.51-.07,1.32-.42.05-.86-.77-.91,0-.72.57-.61.07-.66.31-.63-.14-.73-.56-.39-.93-.36,0-.42-.26-.12-.7-.78-.55-.82-.12-.82-.6-.23-.65-.21-.29-1.21.48-.66.79h-.47l-.54-.67-.78-.36-1.12.52-.81,0-.48.36L204,262l-.15-.91-.19.09-.19.78-.91.33-1-.87.48-.77-.14-1.06-1-.49-1.48.63h-.43l.08-.36.61-.51.07-.53-.48-.15-1.14.39L196.63,257l-.73,0-.84,1-1,0-.83.24-.93-.17-.45-.47-1.3-1.08h-.14l-.37-.12-.32.19-1.61-.47-.23-.2-2.37-.5-.48-.42,0-.51-.42-.09-.21-.3.2-.4-.22-.15,0-.64-.2-.13-.43,0-.38.39-.69-.06-.12-.69-1.09-1.3-.28,0-1,.77-.14.51-.3.2-.52.07-.47-.35.15-1.14-.61-.79-.56-.07-.24.44V251l-.1.36h-.56l-.47-.3-.42-.16-.12-.41-.81-.6-.07-.86.34-.45.55-.3.08-.49-.41-.35-1,.45-.4-.1-.24-.59-.75-.91-.6-.06-.71.17-.62.25-.39.39-.32.71-.42.24h-.36l-.06-.21.13-.32.42-.27.08-.3-.28-.12-.26.1-.27.39-.66.08-.16-.29.16-.48.72-.31.16-.57-.52-.54-.61-.14-.32.18-.16,1.19-.38.73-.75.06-.54-.26-.25-1.3-.46-.32-.44.22v.31l.42.73-.1.26-.26,0-.55-.34-.58,0-1.56-.67-.54.1-.22-.41.48-.24.3-.61-.2-.64-1-.37-.34.15-.29.63-.45.28-.32-.16v-.51l.46-.14.6-.49,0-.53-.94-1.13-.41,0-.76-.73.12-.56.37.11a2.24,2.24,0,0,0,.67,0l.74-.71,0-.68-.54-.27-.61.34-.7-.13-.5-.48.11-.36.23,0,.17.24.56.28.4-.25.29-.81-.35-.32.05-.95.2.34-.06-.6-.77-.95-.57-.18-.28-.55-1.62-.61-.54.15-.13.23-.38,0-.66-.45-.9-.07,0,.23-.29.17-1.14-.35-.81-1.08-1.3-.36-.57.13-.12.24-.64.33-.46-.07-.32-.56-1-.73-.36-.16-.16-.45.12-.28s.3.06.35,0,.59-.36.59-.36l0-.6-.3-.36-.27,0-.47-.52-.19-.27.16-.4V228l-.27-.35.28-.56.34.07.7-.4.06-.47-.24-.36-.6-.39-.07-.5-.13-.72-.28-.49v-.2l-.37-.08-.55.33-.74-.13-.53.15-.78.41-.21-.18.07-.27.3-.16-.12-.34a.17.17,0,0,0,.15-.16,2.71,2.71,0,0,0-.08-.51l-.55-.18-.44.25-.76.53-.26.37-.61.3-.64.06-.43-.28-.53-.09-.6-.13,0-.33.2-.13.17.06.51-.25,0-.6-.47-.36-.4-.06-.22-.32V221l-.26-.23-.18,0-.07-.48.3-.41h.2l.63-.45-.05-.58.12-.15,0-.34-.35-.36-.33-.11,0-.49-.59-.45-.62,0-.2.14-.53-.37v-.4l.4-.21,0-.3.38-.37v-.5l-.16-.36-.41-.15-.57-.21-.28.13L136,214l-.17-.26,0-.22-.28-.06-.34.1-.28-.1-.25-.45.09-.14-.11-.25-.32,0-.2.17s0,.34,0,.42-.36.25-.36.25h-.27l-.24-.19-.34,0-.28.23-.67.2-.14.16-.57-.1-.24-.32-.26-.11-.28.06-.08-.16-.43-.22-.3,0-.32-.47.1-.24-.2-.28-.39.14v.2l-.39.15,0-1.06.76-.5.11.16.34-.07.08-.21-.22-.18.14-.33.11,0L130,210l-.14-.15v-.22l.13-.11,0-.33-.35-.42-.26,0-.15-.17.17-.07Z" transform="translate(-97.62 -128)" disabled="disabled" style="pointer-events: none;"></path>
   <path name="XXXX" id="path6360" class="cls-1" d="M102.32,186.14h.25v.45l-.32.16-.14.25-.06.33-.17.23-.22.09.17.43-.17.15-.06.79.14.42-.16.7-.24.14-.21.21-.3.14,0,.17.4.28-.1.42-.25-.08-.29.43-.54.27,0,.25-.31.34-.15.55-.25.05-.14.22-.35.05-.34.35,0,.15-.54.57-.2.1v.42l.32.2.15.37.05.07-.15.33-.31.16v.18l.21.11v.1l-.23.21V197l.16,0,.1-.09h.2l.05.22h.14l0,.14-.11.09-.05.3.15.08,0,.2,0,.11,0,.32.51.48.28,0,0,.15.26,0,.2.22h.09l.08-.13h.24l.06-.09h.13v.17l.17.06h.16l.37.3.1-.05-.06-.14.09-.1.06.11h.3l.33.25.17,0,.06.07.22.06.22,0,.12-.14.17,0,.08.16.1-.08.09-.22.09-.09.14.1,0,.35.11,0h.27l0,.22h.33l.21-.14.2-.26-.2-.19,0-1s.23-.15.23-.18a3.14,3.14,0,0,0-.23-.33v-.25l.6-.1v.15l.25.1.34-.08.38.25-.14.18.27.43.85,0,.13.28.34.31.57,0,.46.39.38-.08,0-.22.27,0-.08-.66-.6-.42,0-.29-.37-.25-.08-.21.15,0,.06-.91-.24-.17v-.48l.39-.17.16.07a2.67,2.67,0,0,0,.48-.08l.09-.44.43-.14.28-.42.34-.35.08-.21.33-.19.16.05.65-.54.31-.72-.16-.6.11-.47h.09l.16-.08,0-.09.15,0,.23-.54.32-.39h.17l.26-.34-.07-.21-.29-.06v-.12l-1-.51-.16-.24-.44-.1v-.11l-.11-.1-.24,0-.47-.46-.08-.26s-.47-.28-.47-.36,0-.31,0-.31l-.14-.1.06-.22.16-.16,0-.19-.22-.13.06-.24-.29-.35H109l-.13-.16v-.24l.41-.58,0-.27-.35-.34-.06-.32-.22-.22-.13-.16,0-.19-.27.08-.16.09-.14-.13-.19,0-.46.22v.18l-.15,0-.09.23-.52.29-.11,0-.1-.12-.09,0-.11.05-.21-.12-.32-.48,0-.3.08-.11.11-.36v-.65l-.16-.26-.57.2-.08.24-.29,0-.51,0-.32-.23-.46,0-.24.28-.1.26-.16.25.17.41-.16.3h-.23V184h-.23l-.16.29,0,.27,0,.35-.15.13.05.37.21.11-.11.35Z" transform="translate(-97.62 -128)" disabled="disabled" style="pointer-events: none;"></path>

</svg>