<svg id="Capa_1" data-name="Capa 1" xmlns="http://www.w3.org/2000/svg" viewBox="0 0 183.21 117.35">
   <defs>
      <style>.cls-1{fill: #ebebef;;stroke:#fff;stroke-miterlimit:3.86;stroke-width:0.25px;}</style>
   </defs>
   <path name="XXXX" id="path6738" class="cls-1" d="M177.61,178.89l.15.2.35-.08-.06-.88.38-.76.24,0,.39-.19.27-.41-.21-.13,0-.62-.17-1.15-.44-.84v-.71l.27-.23-.4-.31-1.23-.1-.37-.16-.4-.1.22-.36-.32-.22-.49,0-.47-.26.07-.53-.15-.16.1-.33-1-1,0-.38-.12-.23,0-.31.44-.46-.32-.18.15-.51-.38-.87-.36.64-.56.17-.27.61,0,.35.44.48-.29.48.09.65-.6.52.24.2v.79l-.55.82-.09.53-.48.21.16.59.34,0,.33-.28.68.37-.28.61.12.65,1,.38.27.52-.22.43-.1.53-.44-.05-.18.29.34.74.33.08.18.38.71.06.47-.26a3.23,3.23,0,0,0,.48.22c.1,0,.06.23.06.23l1,.53Z" transform="translate(-134.42 -166.32)" disabled="disabled" style="pointer-events: none;"></path>
   <path data-id="1073" name="Támara" scale="3" move="15" id="path6758" class="cls-1" d="M181.16,201.1l.75-.3.43.11,0,.14.44.13.36-.42.13-.47.36-.46.18,0,.17.44a1,1,0,0,0,.38.15c.15,0,.8-.09.8-.09l.76.32.13.21.42.08.58-.25.53-.35.8-.11.54.08.44.38.2-.29.18-.19.11-.57-.29-.71-.27-.25.13-.68.09-.1v-.28l-.13,0v-.14l.13-.23-.19-.15.26-.59.24-.06.12.08.24-.06.25-.36-.12-.54.32-.68.73-.36.2.07.31-.23v-.44l.33-.3.41-.18-.14-.18.13-.08,0-.26.33-.24.17,0,.36-.24-.14-.33.19-.12v-1.49l-.29-.34.57-1H194l.1.15.25.07,0-.38.31-.24-.14-.21,0-.41.19-.13.1-.85-.25-.15,0-.15.22-.11-.16-.36-.65-.7-.34-1.48.23-.21.16.05.16-.23-.41-.3,0-.2.4-.05.08-.3-.55-.31,0-.09.37-.18,0-.24-.41-.27-.16-.55-.39,0-.13.18-.34.07-.34-.23h-.45l-.24-.12,0-.29-.38-.47-.77.08-.42.51.13.81.19.13-.11.27-.21.17.05.34.09.12.07.84-.26.24-1.16-.14-.3-.38.09-.44-.22-.37-.37,0-.26.29.21.2-.08.59-.31.15v.49l.29.52-.68.9-.84.45-.72-.47-.88,0-.45-.44-.13-.41-.31-.12-.21-.74-.85-.51-.39.09-.51-.25-.69-.85,0-.34-.52.21v.35l-.25,0-.28,0-.21.17.08.44-.4.35-.35,0-.32-.27-.29.07-.37.25-.44-.07-.13-.17-.3.05-.23.27-.61.36-.43.07-.95-1.13,0,.19.23.43v.87l-.33.22v.44l-.51.5v.2l.18.59-.09.34-.2,0-.49.39-.12.7-.2.28v1.24l.4.24-.36,0-.38-.08-.27.13-.87-.13,0-.11-.91.46a8.07,8.07,0,0,0-.76.85c-.09.19-.27,0-.27,0l-.25.24.11.24-.44,1.15.09.2.64-.11.77.19.15.27h.25l.11-.11.63.24.26.18.27,0,.6.92.5.15.4.42.92.08.51-.24.12,0-.1.41.45.19.4-.15.23.15.13.57.16,0,.25-.3.51,1,.36-.11.58.65,0,.37-.27.16,0,.32.72.46.43,0,.26.37.11.44-.18.22.18.17h.38v.35Z" transform="translate(-134.42 -166.32)" style="fill: rgb(210, 210, 230);"></path>
   <path name="XXXX" id="path6832" class="cls-1" d="M177.27,213.27l-1.16-.55-.34-.63-.42-.08,0-.24-.33-.38-.29,0-.09-.32-.43-.25,0-.41-.39-.87-.82-.53-.56.2-.14.16H172l-.47.4,0,.61-.68.65-.35.66.26.47-.6-.06a6,6,0,0,0-.72.52,1.35,1.35,0,0,0-.09.39l-.42.37-.2,0-1,.71,0,.77-.83,1.79a3.27,3.27,0,0,0-.49.1c-.07,0-.83.61-.83.61l-.22.4-.76.93-.3.05-.84.69-.3-.1-.55.71.44.35.42,0,.11.4.59.59.42.08.08.26.44,0-.07.22-.2.13,0,.16.29.07,0,.21.25.26.24-.11.12.18,0,.33.41.33-.32.15.28.18-.08.33.3.12.06.23.35-.2.18,0-.06.62-.21.2.36.23v.31l-.19.15.25.23.31,0,.16.19,0,.27.35.46.41.27-.14.23.23.08.46-.15.12-.35.31.06.2.42.65.22.06.27.62.11.15.27.63-.08.17-.26.42,0,.25.34h.27l.38.36-.2.4.2.64-.1.34-.4.13.25.24.31-.08.07.07,0,.38.21.07.43-.38.35.12,0,.36-.49.22-.13.3.16.2.38-.27.3.23,0,.48-.28.15v.23l.43.08.05.46.41,0,0,.34-.21.18.21.36.31.14-.07.14h-.11s-.15.33-.18.41-.39.13-.39.13l.15.52h.45l-.15.46-.44.23.4.12v.27l-.22.23h.26l.28.21-.14.28.27.11.23-.15.45.13v.28l-.4.12.57.39.28-.15.29,0v.25l-.21.09v.23l.26.35.59-.24.41,0,.12.24-.17.38h.26l.24.37.14.3.24-.08,0,.36-.22.17.08.2h.29l.27.42.33,0,0,.17-.18.28,0,.15.71.13v.41l-.28.17.06.12.34.07.1.36-.22.49.19.2-.27.17.06.26.61-.13.33-.48h.09l.15.23.23,0,.13-.19.31-.1.24.12.21,0,.08.09-.35.12.16.21.28-.1.32.1.1.19-.11.15.09.1h.25l.17.21,0,.24.13.1.18-.13.38.09.18.23-.25.17.09.1.23,0,0,.15-.18.06,0,.13.33.08V246l-.2.08,0,.19.15,0,0-.1.32,0,.26.23-.16.19.29.27.05.11h.09l0-.15.29-.06.33.12.11.23.21.09.09-.17.31,0v.23l.17.1.09-.36.49-.32-.1-.54.46-.51,1.19-.22.49,0,.41-.22.31-.89.79-.73.57.06.85-.22.2-.35.21,0,.95-.43.46,0,.21-.49.62-.59.28,0,.49-.64.46,0,.26-.14.61-.13.18.16.26,0,.26-.38.85-.22-.18-.37-1.16-.68-.36-.46.28-.38-.31-.21,0,0-.44,0-.26-.35.11-.87-.47-.67-1-.65-.16-.43.29-.35,0-.49-.51-.43-.13-.43.18,0,0-.38-.61-.16-.21-.29.31-.3V232l-.82-.48-.65-.19,0-.35.44-.32.15-.54.33-.41-.3-.4-.34.24-.46-.11,0-.27.18-.13.1-.46-.54-.35-.39.1-.36.38H191l0-.24.43-.22-.12-.48-.36-.65-.7-.19.18-.57.39.06.18-.22-.23-.16-.08-.46-.52.11-.2-.32.18-.44.41.35.31-.05v-.54l-.21-.19-.56-.05-.16-.27.39-.25-.21-.24-.77.16-.51-.51.15-.43.52.08.66-.54,0-.49-.24-.26-.56.32-.44.08-.13-.27.47-.3.38-.38-.15-.43-.49.22-.36-.11.18-.48-.08-.44-.23-.21-.62.48h-.25l-.08-.27.75-.37-.16-.36-.8.38-.54-.38.08-.29.57-.11.38-.43-.41-.27-.67.32-.41,1-.38.22,0-.73-.49-.49.39-.29-.34-.19-.41.24-.28-.11.15-.38-.23-.24-.41.24-.26-.75-.28-.33.34-.62v-.37l-.67-.36-.31-.35.28-.54v-.46l-.38-.48-.08-.7.28-.68-.23-.38-.28-.7-.72-.24-.39-.43-1,.32-.36.62-.64.14-.23.86-.67.62h-.58Z" transform="translate(-134.42 -166.32)" disabled="disabled" style="pointer-events: none;"></path>
   <path name="XXXX" id="path6871" class="cls-1" d="M155.62,226.51l.29.2-.07.29.25.16,0,.33-.44.27.07.86-.79.69-1.08.05-.09.08,0,.22-.72.31,0,1.31-.33.19,0,.47-.53.09-.13.33-.35,0-.21.17-.42.07-.08-.29-.33.17,0,.22-.2-.12-.12-.33-.65-.26.11-.2-.43-.24a5.31,5.31,0,0,0-.53-.69l-.72,0,0-.34.57-.42.17-.49.42,0-.08-.32-.29-.14.15-.5.37-.32V228l-.15-.1.13-.27.18-.18-.2-.19-.08-.14.37-.55v-.37l.52-.93.09-.83.7-.81v-.52l-.28-.24.05-.57-.27-.16h-.31l-.48-.64.1-.18-.42-.33v-.24l.1-.39,0-.24.7-.38,0,.2.61.44.85.48.07.48.93,1.41.76.31v.13l.5.33.58.1.49.62,0,1-.11.13.29.39.38.08,0,.11.45.18Z" transform="translate(-134.42 -166.32)" disabled="disabled" style="pointer-events: none;"></path>
   <path name="XXXX" id="path6877" class="cls-1" d="M149.28,220.78l0,.25.41.33-.1.18.48.64h.31l.27.16-.05.57.28.24v.52l-.7.81-.09.83-.52.93v.37l-.37.55.08.14.2.19-.18.18-.13.27.15.1v.26l-.37.32-.15.5.29.14.08.32-.42,0-.17.49-.57.42,0,.34.72,0a5.31,5.31,0,0,1,.53.69l.43.24-.11.2.65.26.12.33.2.12,0-.22.33-.17.08.29.42-.07.21-.17.34,0h0l.21.43.19.09v.18l-.27.36,0,.37-1.47.79-.49.34-.14.35h-.36l-.14-.22h-.74l-.89-1.33-.59.61-.82-.81-.19,0-.81.29-.22-.1-1,0,.06.25-.13.42-.72.57.11.24.52.47,0,.34h-.27l-.47.38-.33-.1-.46-.53v-.42l-.44-.35h-.2l-.69-.61-.3-.06-.4-.51-.16-.49.22-.28.27,0,.44-.28-.16-.25.21-.11.08-.45h.28l.16-.44-.08-.23.11-.55.46-.25.22-.67-.14-.41-.27,0-.54-.72V228l.49-.2.18,0,.2-.2,0-.41.63-.24.83.19.42-.28-.16-.39.39-.66.44-.41-.45-.31.12-.58.35-.31.36-.06.86-.68.06-.46,1.26-1.17.28-.49.39-.26h.31l0-.26.79-.43Z" transform="translate(-134.42 -166.32)" disabled="disabled" style="pointer-events: none;"></path>
   <path data-id="1064" name="Monterrey" scale="3.2" move="10" id="path6889" class="cls-1" d="M142.9,239.27l-.06.4.36.34-.07.22-.67.4-1.07,1.09-.43.76-.35.31,0,.42-.26.21.1.32.14.07.36.22.58.05.8.61.09.6-.12.14v.35l-1,1.42-.45.2V248l.45.2-1.67,3.33.58.4.28-.07.39.39-.13.53.47.43.24,1.07-.13.76.52.74.4.61.4,0,.47.7.88.17.69.47,0,.29.58.13.29-.07.8.22.53.34.62.39.35,0,.61.51.44-.14.29.09c.08,0,0,.42,0,.42l.59-.12.08.46.61.3.63,0,.67,0,0,.47-.47.17.49.18,0,.4.41,0,0,.2-.19.34.25.32.46,0,.24-.15v-.18l-.24-.19.14-.8.69-.14H154l.17-.54.28-.28.09.15.79-.47,0-.24-.11-.12v-.15l.34-.05-.08-.2,0-.26h.24l0-.41.27-.2.39,0-.18-.34v-.22l.23-.1.09-.19-.56-.05-.14-.34.19-.08.05-.32-.63-.09-.19-.32.19-.17,0-.23-.09-.05-.26-.29.11-.24L155,255v-.16l.27-.22-.14-.12-.26,0-.1-.19.26-.1v-.15l-.42-.1.1-.33-.08-.16-.27-.06,0-.43-.12-.19.2-.29,0-.28-.27-.16,0-.77.1-.26-.44-.48-.11.16h-.19l-.16-.74-.21-.12-.16-.3-.13-.2.24-.07.13-.34-.47-.1v-.12l.26-.13,0-.26-.35-.2-.26.14-.14-.24-.5-.19-.23.19-.24-.17,0-.47-.08-.19h-.39l-.43-.39-.27-.75-.6-.35-.58-.17.15-.35-.15-.24-.09-1.7-.54-.85-.08-.34-.91.29,0,.3-.22.06-.08-.43-1.08-.47h-.58l-.56-1.35-.41-.24.15-.77-.15-.36-.48-.64Z" transform="translate(-134.42 -166.32)" style="fill: rgb(210, 210, 230);"></path>
   <path name="XXXX" id="path6895" class="cls-1" d="M140.38,243.42l.1.32.14.07.36.22.58.05.8.61.09.6-.12.14v.35l-1,1.42-.45.2V248l.45.2-1.67,3.33.58.4.28-.07.39.39-.13.53.47.43.24,1.07-.13.76.52.74.4.61.4,0,.47.7.88.17.69.47,0,.29.58.13.29-.07.8.22.53.34h0l-.24.68-.78.3-.5-.07-.16-.29h-.37l-.37.27-2.46.94-.39.43-1.3.7-.26.32-.31,0-.32-.34-.13.25-1,.39-.19-.32-.76-.35-.24-.29,0-.33-.17-.49-.33-.36-.07-.57-.24-.06-.61-.51.08-.74.24-.54-.43-.28.45-.27.19-.19-.14-.21,0-.26.16-.1.09-.37-.34-.59-.21,0s0-.21,0-.29-.18-.3-.18-.3l-.17-.35-.23-.14-.54-.41.14-.26-.37-.6.1-.44.31-.19V252s.17-.11.17-.21v-.44l.61-.58.14-.52h.29l.07-.28-.19-.16-.08-.37.37-.12.27-.25-.06-.38.19-.08-.17-.33-.35-.67-.07-1.12.65-.8-.13-.73.42-.88.11,0,.29-.67-.23-.14,0-.29.22-.12,0-.35.27-.08,0-.2h.14l0-.14-.16-.06.12-.17h.19l.08.22.45,0,.29.42h.47l.75.65.06.2.15.07" transform="translate(-134.42 -166.32)" disabled="disabled" style="pointer-events: none;"></path>
   <path name="XXXX" id="path6900" class="cls-1" d="M161.49,281.73l-.75-.71v-.77l-.47-.29-.49,0-.65.51-.41-.14v-.26l-.22-.48-.54,0-.06-.15.38-.28,0-.37-.44-.06.19-.26.33-.08L158,278l.19-.28.25,0,0-.32-.35-.14.16-.26.05-.51.39-.15.19-.54-.44-.34-.11-.6-.6.14.25-.4-.38-.14-.36.14-.11-.23.41-.57-.49-.52-.68-.11-.3.23-.55-.57-.27-.46-.43-.12-.74-.91-.19-.74-.52-.43.16-.52.22-.08.08-.83.25-.18,0-.28-.41-.2.3-.32-.41-.42-.25-.09.06-.32h.22l.24-.25-.46-.29-.22-.31.22-.26-.22-.66.35-.34-.08-.17h-.35l-.33-.32.19-.31-.24-.35.22-.14-.11-.34.38-.09.05-.68-.76,0-.25-.32.19-.34,0-.2-.41,0,0-.4-.49-.18.47-.17,0-.47-.67,0-.63,0-.61-.3-.08-.46-.59.12s0-.41,0-.42l-.29-.09-.44.14-.61-.51-.35,0-.62-.39-.24.67-.78.31-.5-.07-.16-.29h-.37l-.37.27-2.46.94-.39.42-1.3.71-.26.32-.31,0-.32-.34-.13.25-.94.4,0,.06-.19.43.28.47.56.25v.37l.59.58h.24l.63.94.3,0,.61,1,0,.5.37.1.31.64-.13.51.32.68.67.39.31.51,1,.71.21.78.37.59.65.23.16.6.37.16,0,.45.58.48h.42l.06-.25.66.23.25.74-.23.2.34.33.55-.18.34.35.46-.13.26.33-.33.19-.15-.14-.22.32.29.11.56.29.28.59-.1.29.49.12.29-.22.21.22-.23.41-.37.09.11.35.69.39.39-.12.48.37s-.31.18-.39.24a1.57,1.57,0,0,1-.52,0l-.22-.2-.32.08-.11.53.26.17.71.39.42-.31.21-.31s.81.21.89.21.09.35.09.35l-.44.31-.38,0-.11.41.41.2.43-.2.48.24.09.71-.55.55-.17-.1-.15.31.58.39.29-.27.35-.23h.3l.4.49,0,.56.47.52.78-.1.47-.82.53-.73.72-.24,1.08.24.38.39.45,0,.67-.16.4,0,.35-.31Z" transform="translate(-134.42 -166.32)" disabled="disabled" style="pointer-events: none;"></path>
   <path name="XXXX" id="path6838" class="cls-1" d="M144.26,236.24l.12,1.81-.52.43.48.65.15.36-.15.77.41.24.56,1.35h.58l1.08.47.08.43.22-.06,0-.3.91-.29.08.34.54.85.09,1.7.15.24-.15.35.58.17.6.35.27.75.43.39h.39l.08.19,0,.47.24.17.23-.19.5.19.14.24.26-.14.35.2,0,.26-.26.13v.12l.47.1-.13.34-.24.07.13.2.16.3.21.12.16.74h.19l.11-.16.44.48-.1.26,0,.77.27.16,0,.28-.2.29.12.19,0,.43.27.06.08.16-.1.33.42.1v.15l-.26.1.1.19.26,0,.14.12-.27.22V255l.32.17-.11.24.26.29.09.05,0,.23-.19.17.19.32.63.09-.05.32-.19.08.14.34.56.05-.09.19-.23.1v.22l.18.34-.39,0-.27.2,0,.41h-.24l0,.26.08.2-.34.05v.15l.11.12,0,.24-.79.47-.09-.15-.28.28L154,261h-.26l-.69.14-.14.8.24.19v.18l-.24.16h.3l-.05.68-.38.09.11.34-.22.14.24.35-.19.31.33.32h.35l.08.17-.35.34.22.66-.22.26.22.31.46.29-.24.26h-.22l-.06.31.25.09.41.42-.3.32.41.2,0,.29-.25.17-.08.83-.22.08-.16.52.52.43.19.74.74.91.43.12.27.46.55.57.3-.23.68.11.49.52-.41.57.11.23.36-.14.38.14-.25.4.6-.14.11.6.44.34-.19.54-.39.15-.05.51-.16.26.35.14,0,.32-.25,0L158,278l.33.35-.33.08-.19.26.44.06,0,.37-.38.28.06.15.54,0,.22.48v.26l.41.14.65-.51.49,0,.47.29V281l.76.71.19,0,.12.08.2.71.13.08.37-.31.23-.37,1.17-1.24-.1-.47.1-.26.43-.24.27-.34.38,0,.13.34,1.62.65,0,.19.83.13.32-.05.18.1.22.58.25.29.45-.08.35-.87,1-.29.65-.81.45-.05.5.71-.05.71.25.47.63-.11.55-.68.22-.16H174l.95-.29,1.17-.91.6-.74,1-.79.37-1,1.26-.42.4-.5.85-.08.36-.27-.13-.26v-.51l-.38-.13-.26.15-.11.36-.47-.06-.74.4-.19-.15-.58.19h-.29l-.09.1.16.28-.6.37-.14,0-.29.13-.26-.09.13-.33-.47-.3-.13.23-.44,0-.14.23-.28-.26,0-.29s-.09-.08-.09-.15.07-.56.07-.56.08.14.17.14.51-.46.51-.46l-.1-.31-.29-.13-.27.08-.47-.21-.07-.33-.24-.17-.4-.06v-.3l.05-.31-.41-.17-.19.17-.38,0v-.13l-.14-.06-.42.36-.35.12-.11-.17-.58-.38-.13-.25.13-.29-.22-.13L171,272l-.34,0,.05-.17-.09-.13-.27.07-.31,0,0-.17.16-.19L170,271l-.2-.14-.21.08-.3-.31.13,0-.13-.38-.47-.21-.11-.32-.32,0-.48-.37.11-.21-.29-.63-.31-.11,0-.25-.18-.17-.36,0-.09-.17.07-.17-.07-.25-.15-.12-.09-.66.15-.12-.26-.53.09-.21-.18-.42-.6-.31-.16-.4.2-.34-.59-.63-.25-1,.2-.79.33-.07.05-.52-.27-.21-.22-.59.26-.29.07-.74-.2-.27-.22.1-.38-.35.33-.13v-.32l-.26-.18,0-.61-.18-.26-.43-.16-.51-.8.11-.42-.17-.23-.23.16-.33-.44.16-.42-.23-.27v-.38l-.24-.27-.15-.46.2-.21.39-.21,0-.11-.24-.12,0-.19-.29-.32-.24.19-.53-.36-.2-.27-.34,0-.29-.27.23-.09,2.19.13.09.19h.29l.22-.27.89-.23.34.12.82-.34,1-.06.33-.15.42-.06,0-.21-.27-.27.2-.42.42.34.36-.26.6-.1.22.19h.49l.2-.44-.3-.4h-.54l-.38-.34.32-.26-.13-.31.11-.49-.57-.43-.77-.71-.52.11-.6-.43-.46,0,0-.43-.77-.43-.05-.37.52-.37,0-.4-.57-.29L165,244l.19-.15-.35-.34-.48-.24-.81.15-1-.61-.51-.06-.37.12-.69-.06-.62-.5-1.11-.38-.2.19-1.38.08-.94-.54-.18-.45-.42-.56-.49-.11-.51-.48-.15-.25-.29-.15,0-.25-.54-1.1.07-1-.38-.78-.22-1.62.13-.42.23-.06.06-.49.25,0,.15-.16-.8-.59,0-.32-.58-.5-.22-.35h0l-.53.09-.14.37.2.4.19.09v.18l-.27.36,0,.37-1.48.79-.48.34-.14.35h-.36l-.14-.22h-.74l-.89-1.33-.59.61-.82-.81-.19,0-.81.29-.22-.1-1,0,.06.25-.13.42-.72.57.11.24.52.47,0,.34Z" transform="translate(-134.42 -166.32)" disabled="disabled" style="pointer-events: none;"></path>
   <path name="XXXX" id="path6846" class="cls-1" d="M253.94,238.64l-.53.22-.28.19v.53l.14.45-.1.66-.3.25-.27.64-.48.38-.37.54-.08.46-.41,1.26-.44.4-.37.69-.52.12-.31.45v.51l-.61.72-.44,0-.95.69-.77.29-.73.68-1.43.38-.7.47-.3,0-.2.29-.4,1-.83.61-.3,0-.54.21-1.48.52-1-.21-.65.26-.7.42-.63-.26-.42.18-.35.66-1.38.8-1.08.07-1,.31-.75.74-.77.28-1.43.26-.88.71-.9.6-.62.9-1.15.23-1.8.29-.68.24-.88.47-.8.68-1.25.13-1.35.53-1.17,1.08-.35.89-.65.05-.7.29-.76.94-.8.27h-.67l-.46.23-.56.26a2.35,2.35,0,0,0-.35-.08h-.61l-.51.25H211l-.77-.27-.43.1-.37.36-.22,0,.09-.31-.32-.21-.77-.28-.43.21-.53-.56-.33.23h-.13l-.36.33-.18-.27-.44-.09-.31-.46-.41,0a1,1,0,0,0,.12-.32,4.32,4.32,0,0,0-.38-.75l-.35-.06-.2.16H204l0-.25-.4,0-.45-.36v-.73l-.13-.27-.26.14-.29-.59-.45.15-.18-.23.11-.13-.11-.23-.33,0-.46-.82.24-.37-.44-.51-.14-.84-1.17-1.11-.25,0-.16-.42-.29,0-.22-.36-.46,0-.16-.15-.38.25-.37-.33-.2-.63-.43,0-.13-.48-.36.11-.19-.09.08-.35-.46-.59-.36-.07,0-.14.29-.21-.09-.44-.2-.09-.07-.44.22-.27-.19-.23-.38.14-.16-.35-.35-.11.06-.35-.18-.09-.31.17-.22-.23-.44.19V251l-.25.08,0,.25-.46-.25.2-.15,0-.14-.51-.13v-.42l-.24,0-.33-.4-.3-.11,0-.65-.29-.12.05-.34-.29,0-.36-.13-.13.3-.4,0-.2-.19-.27.12-.31,0-.09.32-.18,0-.49-.46-.31.17-.4-.13-.22-.34.07-.18-.42-.34-.05-.26.09-.36.49-.32-.1-.54.46-.51,1.19-.22.49,0,.41-.22.31-.89.79-.73.57.06.85-.22.2-.35.21,0,.95-.43.46,0,.21-.49.62-.59.28,0,.49-.65.46,0,.26-.14.61-.13.18.16.26,0,.26-.38.85-.22-.18-.37-1.16-.68-.36-.46.28-.38-.31-.21.26-.27.26,0h0l.38-.17.06-.17-.52-.59v-.23l.18-.12,0-.49.18-.15,0-.7s.12-.05.12-.11-.05-.49-.05-.49l.27-.27.19.21.25-.17,1,.12.11-.08.69-.21,1,.15,1.21.76.93-.12.19.21.22-.13h.24l.18.43h.22l.11.29-.2.2,0,.22.15.1.48.06.18-.34L205,236v-.23l.33-.13.08-.22h.19v.16l.76.73.22,0,.31.32.67.23.12.11.13,0v-.25l.19-.2.25.12.49-.29h1.15l.17.11.24-.15h.36l.16.34.65.35.48,0-.13.34.43.32,0,.26-.18.11,0,.23h.17l.37-.45v-.23l-.33-.16v-.27l.5-.42,0-.35-.53-.81-.17-.44.6-.11.16.16h.32l.18-.32.48-.1.12.27.59.29.13-.34.57.09.2.3.76.31.29.22,0-.3-.35-.38-.1-.23.16-.09.08-.33-.22-.25-.24,0-.25-.23,0-.31-.36-.28s0-.27,0-.32-.3-.34-.3-.34v-.12l.44-.38,0-.4-.31-.22-.08-.22.28-.17-.06-.7-.16-.38.24-.51.19,0,.22.2.15,0,.14-.22h.18l0,.2.54.38.06.25-.06.34v.38l.28.24.31.05.13-.17h.46l.14.18.18,0,.16-.24.16,0,.09.16.56-.27.07-.21.1-.22.24-.09.43.12.46.34.63-.41.28-.32.24,0,.33-.33.2,0,.36-.46-.09-.32.28-.32a4.07,4.07,0,0,1,.51.32c.05.06,0,.14,0,.14l.41.27.34-.22.32.19.24-.16.25.16.32-.24,0-.16.25-.13.37.21-.07.19h.31l.16-.32.41.23.08.26h.24l.08-.09.39.22.21.46-.18,0v.16l.42.34,0,.61s.5.12.57.15a2.49,2.49,0,0,1,.36.4l.42.08.19-.18.23,0,.09.32.23-.19v-.19l.15-.18.51.19-.08.18.51.68-.08.22.21.13h.27l0-.19.26-.08.52.37-.07.22.34.42.11-.25.2.09.11.33H233l.1-.25h.35l.15.13.3-.19,0-.19.37-.1.1.19.43.23v.22h-.11l-.16.6-.29.15.17.51.35.26-.16.51h-.11l0,.51.1.67.29-.11.13.07.25.44.19,0,.28-.16.21.13.44,0,.11.27.29.09.56-.06.64.4v.64l.78,1.26h.3l.24-.12.35,0,.18.33-.18.38.07.52h.43l.08-.26.17-.11.16.11.23.1.42-.2,0-.25.17-.1.4.08.23.33.24-.15,0-.22.33-.21.71,0,.11-.37.4.25.25,0,.36.06.37.31.31-.17.42,0,.29.46.37-.31.49.14.32-.18.78.2,0,.44.45.14.3-.31.31,0,.16.12h.53l.1.15.65-.39v-.17l.38-.39.25-.12.28-.19.29-.39.16-.08-.06-.25.12-.19.31-.08.1-.35.37-.29.28-.55.67-.23.29.21.5.28Z" transform="translate(-134.42 -166.32)" disabled="disabled" style="pointer-events: none;"></path>
   <path name="XXXX" id="path6769" class="cls-1" d="M256.27,234.15l-.58.15-.61.9-.16.87-.29.25.18.64-.5.62,0,.42-.5-.27-.29-.21-.67.23-.28.55-.37.29-.1.35-.31.08-.12.19.06.25-.16.08-.29.39-.28.19-.25.12-.38.39v.17l-.65.39-.1-.15H249l-.16-.12-.31,0-.3.31-.45-.14,0-.44-.78-.2-.32.18-.49-.14-.37.31-.29-.46-.42,0-.31.17-.37-.31-.36-.06-.25,0-.4-.25-.11.37-.71,0-.33.21,0,.22-.24.15-.23-.33-.4-.08-.17.1,0,.25-.42.2-.23-.1-.16-.11-.17.11-.08.26h-.43l-.07-.52.18-.38-.18-.33-.35,0L239,240h-.3l-.78-1.26v-.64l-.64-.4-.56.06-.29-.09-.11-.27-.44,0-.21-.13-.28.16-.19,0L235,237l-.13-.07-.29.11-.1-.67,0-.51h.11l.16-.51-.35-.26-.17-.51.29-.15.16-.6h.11v-.22l-.43-.23-.1-.19-.37.1,0,.19-.3.19-.15-.13h-.35l-.1.25h-.15l-.11-.33-.2-.09-.11.25-.34-.42.07-.22-.52-.37-.26.08,0,.19h-.27l-.21-.13.08-.22-.51-.68.08-.18-.51-.19-.15.18v.19l-.23.19-.09-.32-.23,0-.19.18-.42-.08a2.49,2.49,0,0,0-.36-.4c-.07,0-.57-.15-.57-.15l0-.61-.42-.34,0-.16.19,0-.21-.46-.39-.22-.08.09h-.24l-.08-.26-.41-.23-.16.32h-.31l.07-.19-.37-.21-.25.13,0,.16-.32.24-.25-.16-.24.16-.32-.19-.34.22-.41-.27s.07-.08,0-.14a4.07,4.07,0,0,0-.51-.32l-.28.32.09.32-.36.46-.2,0-.33.33-.24,0-.28.32-.63.41-.46-.34-.43-.12-.24.09-.1.22-.07.21-.56.27-.09-.16-.16,0-.16.25-.18,0-.14-.18h-.46l-.13.17-.31-.05-.28-.24v-.38l.06-.34-.06-.25-.54-.38,0-.2H216l-.14.22-.15,0-.22-.2-.2,0-.23.51.16.38.06.7-.28.17.08.22.3.22,0,.4-.44.38v.12s.3.28.3.34,0,.32,0,.32l.36.28,0,.32.25.22.24,0,.22.25-.08.33-.16.09.1.23.35.38,0,.3-.29-.22-.76-.31-.2-.3-.57-.09-.13.34L214,235l-.12-.27-.48.1-.18.32h-.32l-.16-.16-.6.11.17.44.53.81,0,.35-.5.42v.27l.33.16v.23l-.37.45h-.17l0-.23.18-.11,0-.26-.43-.32.13-.34-.48,0-.65-.35-.16-.34h-.36l-.24.15-.17-.11h-1.15l-.49.29-.25-.12-.19.2v.25l-.13,0-.12-.11-.67-.23-.31-.32-.22,0-.76-.73v-.16h-.19l-.08.22-.33.13V236l.22.11-.18.34-.48-.06-.15-.1,0-.22.2-.2-.11-.29h-.22l-.18-.43h-.24l-.22.13-.19-.21-.93.12-1.21-.76-1-.15-.69.21-.11.08-1-.12-.25.17-.19-.21-.27.27s.05.44.05.5-.12.1-.12.1l0,.7-.18.15,0,.49-.18.12v.23l.52.59-.06.17-.38.17-.26,0-.28.29-.44,0-.26-.35.11-.87-.47-.67-1-.65-.16-.43.29-.35,0-.49-.51-.43-.13-.43.18,0,0-.38-.61-.16-.21-.29.31-.3V232l-.82-.48-.65-.19,0-.35.44-.33.15-.53.33-.41-.3-.4-.34.24-.46-.11,0-.27.18-.13.1-.46-.54-.35-.39.1-.36.38H191l0-.24.43-.22-.12-.48-.36-.65-.7-.19.18-.57.39.06.18-.22-.23-.16-.08-.46-.52.11-.2-.32.18-.44.41.35.31-.05v-.54l-.21-.19-.56-.05-.16-.27.39-.25-.21-.24-.77.16-.51-.51.15-.43.52.08.66-.54,0-.49-.24-.25.32-.3-.17-.39.23-.62.62-.27.13.12h.34l.36-.35,1.06-.24.1-.18.5-.2.17.24.94.16.13-.19.09-.05.12.18.24,0,.12-.15.48,0,.15.32.62,0,.18-.32.62-.23.41.16,0,.24.37.18.1-.2.6.41h.54l.13.11.34-.16,0-.23.29-.34h.16l.05-.32.31-.21.2.13.76-.44.55,0,.39.4.22-.36h.55l.1.18.4-.36.4,0,0,.07.29.2,0-.26h.31l-.18-.21.16-.2-.23-.33.24-.3-.06-.08-.19.07-.09-.65-.17,0-.09.38-.2-.08.08-.42-.32-.1,0-.13.49,0,0-.15-.44-.13v-.42l-.18-.12-.32.37-.15,0,0-.86-.15,0-.2.43-.15-.27-.33-.15-.36,0,0-.19-.63-.34-.25,0-.55-.5v-.59l-.44-.28-.58.23-.26-.29-.25.1-.5-.09-.07-.2.17-.22-.28-.6-.7-.33.23-.18.06-.6-.21-.26.17-.32h.83l.11.19.56.2.4-.08.13-.17.42-.12,0,.37.48.29.19.24-.1.16,0,.31.51.25.47-.06.11.25-.2.13.29.25.42.06.22.23h.2l.11-.46.25.07.11.44.2.33.4.05.09.23-.09.44.2.4.46,0L205,214l.42.05.07.35-.29.21-.07.23.27.26.65-.11.37.1-.15.57-.47.19-.2.59.16.15.49-.34.33-.12.46.21.23-.21-.23-.26v-.31l.35,0,0,.38.6.16.23-.25h.37l.32.42-.54.4.44.23.36-.25.71.1.42.24,0,.46h.37l.18-.53.27.13,0,.36.37,0,.22.19.23-.07.11,0,0,.31.25,0,.18-.31.26.1,0,.3h.4l.16,0,.56.29.22.21a2.23,2.23,0,0,0,.37,0,.26.26,0,0,0,.12-.09l.49.22.19.31.54,0,.07-.17.22.28,0,.33.62.42.33,0,.21-.13.44.3.35.48.36-.06.16-.21.24.19.07.27.31,0,.22.08,0,.43.25,0,.35-.31.16.31-.14.07-.17.29.28.09,0,.39.2.11.43-.34.17.28-.11.18,0,.22.29.1,0,.27L221,223l0,.11.4-.25.18.14,0,.26.32.21.06-.19.22-.15.23.23.27-.13.19.11v.17l-.29.19.4.08.28-.27.16.14,0,.23.23.11.13-.29.17-.32-.15-.23.11-.21.31.25-.11.25.25.15.29-.17.28.15,0,.23.53,0,.15-.21h.4l.34.21,0,.27.18,0,.22-.14.26.23-.24.27.25.09.49-.17.48.12.27.23-.13.34-.23.15,0,.29.33.07.4-.42.22.08,0,.29-.2.13,0,.4.38,0,.2-.27.31.08.14.25.24,0,.15-.33.25.21,0,.44.36-.19,0,.31-.17.11.06.31.27.13h.47l0-.42.15,0,.32.54.48,0,.25.59.11-.25.53-.36-.13-.44h.24v.25l.2.17.37-.06v-.21l.22-.17.29,0v.19l.54.44.17-.29h.21l.3-.19.2.35.23-.21.13,0,.07.34.2.09.33-.26-.07-.19.16-.08.35.17v.29l.36,0,.27-.21.27,0,.42-.29.24-.42.31.21-.11.27.22.38.31.08.07.13-.13.31.2.3.51.23,0,.3.31.21.16-.19,0-.21.2-.19.38,0,.4.33.47.15.71.44.51.15.24-.42.25.15,0,.31.31.19.31-.32.16.07.06.38.25.23.18-.07s.57.21.64.26a1.1,1.1,0,0,1,.16.29l.51.1.46-.25.8-.16.29-.24.65,0,.17.19.53-.12.2-.19.3.19,0,.19.25.25.4-.32.24,0,.38.34.87.32.42-.23.37.06,0-.23.22,0,.29.29.13-.63.34.25.1.49.49.31.25-.31.13,0,.25.5.42-.35.24,0,.36.67-.11.42-.4.13.15.33h.42l.34-.36.27,0,.1.33-.35.25-.09.4.27.71Z" transform="translate(-134.42 -166.32)" disabled="disabled" style="pointer-events: none;"></path>
   <path name="XXXX" id="path6763" class="cls-1" d="M274.19,217.9l-.18-.28-.37,0,0-.38.18-.24-.12-.33.13-.2-.19-.2h-.15v.22l-.09.05-.18-.4h-.09l0,.22-.08.1.26.24-.13.19-.06-.14h-.17v.41h-.16l-.11-.36,0-.12h-.2l-.08-.18.14-.27.22-.09V216l-.16-.08.12-.23.25-.09v-.1l-.24-.12.19-.13-.17-.23-.25,0-.16.29-.23,0-.25.15-.2-.26.09-.23-.25-.13-.13.1-.11.32-.35,0-.05-.14-.19.09v.18l-.2.09-.07.44-.37-.11v-.16l-.41.12-.2.27h-.12l-.1-.19-.12,0-.16-.11-.31.09-.24.23h-.56l-.18-.13,0-.15-.46-.16h-.21l.06.24-.09.06-.34-.11a2.21,2.21,0,0,1-.2.29,1.47,1.47,0,0,1-.44,0l-.1-.15-.14.13v.2l-.32.25h-.22v-.13l.16-.22-.3-.31-.16,0-.21.36.2.14-.12.37-.17-.26h-.27l-.2.22-.14-.34h-.22l-.1.22.14.12-.05.12-.19-.06-.12.13.14.14-.3.31-.28-.07.06-.3-.28-.12-.32.25,0-.18-.16-.1-.11-.3-.88-.05-.16-.34-.32.1-.09-.22-.44,0-.23.22-.18-.27-.37-.09v.29l-.29.48-.75-.09-.1-.31-.37-.08-.42.25s-.3-.16-.3-.21a3.3,3.3,0,0,1,.13-.38l-.2-.17-.18.18-.1-.16-.21-.09-.19.07-.18-.21-.21.13.12.1-.11.12h-.13l-.1.27.17.1.05.21-.11.07,0,.12.19.13-.08.17h-.15l-.08-.19-.22-.05,0-.31-.39-.13,0-.12H255l0,.24-.24.34-.16-.1-.09,0-.23-.19.17-.09,0-.15-.21-.07-.11-.15-.19,0-.25.44h-.12l0-.22-.22,0-.33.35.07.18-.1.16h-.16l-.08-.22h-.15l-.15.1.19.16-.19.31-.47.05-.14-.22-.29.18.06.2-.38.41h-.34l-.06-.24-.21-.06h-.25l-.23-.12,0-.32-.17-.08-.22.3-.32-.19.1-.09,0-.35-.19-.26-.14.22H249v-.45l-.15-.13.11-.18-.1-.36-.45-.15-.14.25-.34,0,.12-.22-.26-.16-.22.18-.58,0,0-.35-.4-.27h-.27l.11.17-.17.22-.09-.12-.15.09.08.09-.07.28-.22.15,0-.16-.51,0-.22.22-.24-.12.07-.15-.42-.08-.16.36-.17-.31-.26-.08-.12.2-.29,0-.12-.15-.24.21.08.13.14.08V216l-.25.07-.33-.07v-.17l-.15-.09-.11.18h-.22l-.48.29.06.15-.18.07-.24-.22L241,216l-.17.11.24.17-.21.13-.26-.18-.52.14-.11-.2.14-.17-.25-.23-.25.16.1.22-.32.18-.37-.06v-.19l-.26-.08,0-.14-.19-.17s0,.26-.06.27l-.39.14-.44-.09-.05-.21-.19-.07.11-.21-.05-.28-.26-.06-.11.29-.38-.07,0-.24-.51-.3-.67.22-.36.34-.43,0-.15-.25-.32,0,0-.16-.19,0-.37.33-.08-.28h-.43l-.07-.14.15-.07v-.24l-.43-.18-.11.16-.4,0-.24-.17.13-.1v-.11l-.62-.16.09-.15,0-.12-.46,0-.12-.32.14,0,.05-.25-.24-.14-.29.65-.59.2.24-.38-.44-.16,0-.26-.34,0-.37-.36-.49.15.07.39-.37.15-.1-.25-.24-.06,0,.39-.34,0-.47-.39h-.54l.12-.47h-.17l-.32.26-.17,0,0-.18h-.24L226,213l-.29,0-.17-.2-.22.12-.23,0,.08.13-.32.21-.15-.21.15-.1-.22-.26,0-.21-.47,0-.64-.29,0-.2-.3.05h-.27l-.1.23-.27-.13.15-.15,0-.26-.23-.13-.17.14H222l.07-.27-.48-.48a4.15,4.15,0,0,1-.7,0,2,2,0,0,1-.18-.22l-.28,0,.07.22h-.2l0-.3-.22-.1-.13.21a2,2,0,0,1-.32.05s-.18-.21-.27-.23-.78-.15-.78-.15l-.31-.27-.27.08-.19-.19-.18-.38-.86-.39-.06.12-.38,0,0-.42-.28-.12-.42.13-.18.27.18,0,.06.32-.35-.17-.27.05-.09.24-.47.08-.25.24-.23-.28-.47-.06-.44-.25,0-.23-.18-.11-.24.11-.11-.11h-.14l-.18.19-.2-.06-.13-.27-.2-.15-.46.31-.27.38-.22-.06-.09,0v.21l-.07.06-.36-.25-.51.13,0,.19.25.14h.24l.09.15-.13.19-.29.08v.21l-.19.26-.34-.19-.31,0-.06.14.31.21-.07.26-.22,0-.11-.24-.27-.12-.13-.25-.2,0-.2.18h-.36l-.11-.26-.22-.06-.11.27-.54.17-.15-.31.09-.55-.12-.13-.24.23.11.09-.13.29-.2,0,.09-.35-.18-.17-.29.06-.16.19.16.17-.26.15v-.28l-.24-.08-.18.15h-.28l0,.06.15.17-.22.21-.18-.25-.3,0v.2l-.23.3-.09-.19v-.52l-.46-.3-.07.08.15.19-.15.36-.25.09-.08-.11.18-.13v-.31l-.35,0-.09-.17.2-.15-.13-.29h-.27l-.33-.38-.38,0-.33.36-.4-.06-.16.42.15.29h.38l.18.34-.54.47-.1.16,0,.31.51.25.47-.06.11.25-.2.13.29.25.42.06.22.23h.2l.11-.46.25.07.11.44.2.33.4.05.09.23-.09.44.2.4.46,0L205,214l.42.05.07.35-.29.21-.07.23.27.26.65-.11.37.1-.15.57-.47.19-.2.59.16.15.49-.34.33-.12.46.21.23-.21-.23-.26v-.31l.35,0,0,.38.6.16.23-.25h.37l.33.42-.55.4.44.23.36-.25.71.1.42.24,0,.46h.37l.18-.53.27.13,0,.36.37,0,.22.19.23-.07.11,0,0,.31.25,0,.18-.31.26.1,0,.3h.4l.16,0,.56.29.22.21a2.23,2.23,0,0,0,.37,0,.26.26,0,0,0,.12-.09l.49.22.19.31.54,0,.07-.17.22.28,0,.33.62.42.33,0,.21-.13.44.3.35.48.36-.06.16-.21.24.19.07.27.31,0,.22.08,0,.43.25,0,.35-.31.16.31-.14.07-.17.29.28.09,0,.39.2.11.43-.34.17.28-.11.18,0,.22.29.1,0,.27L221,223l0,.11.4-.25.18.14,0,.26.32.21.06-.19.22-.15.23.23.27-.13.19.11v.17l-.29.19.4.08.28-.27.16.14,0,.23.23.11.13-.29.17-.32-.15-.23.11-.21.31.25-.11.25.25.15.29-.17.28.15,0,.23.53,0,.15-.21h.4l.34.21,0,.27.18,0,.22-.14.26.23-.24.27.25.09.49-.17.48.12.27.23-.13.34-.23.15,0,.29.33.07.4-.42.22.08,0,.29-.2.13,0,.4.38,0,.2-.26.31.07.14.25.24,0,.15-.33.25.21,0,.44.36-.19,0,.31-.17.11.06.31.27.13h.47l0-.42.15,0,.32.54.48,0,.25.59.11-.25.53-.36-.13-.44h.24v.25l.2.17.37-.06v-.21l.22-.17.29,0v.19l.54.44.17-.29h.21l.3-.19.2.35.23-.21.13,0,.07.34.2.09.33-.26-.07-.19.16-.08.35.17v.29l.36,0,.27-.21.27,0,.42-.29.24-.42.31.21-.11.27.22.38.31.08.07.13-.13.31.2.3.51.23,0,.3.31.21.16-.19,0-.21.2-.19.38,0,.4.33.47.15.71.44.51.15.24-.42.25.15,0,.31.31.19.31-.32.16.07.06.38.25.23.18-.07s.57.21.64.26a1.1,1.1,0,0,1,.16.29l.51.1.46-.25.8-.16.29-.24.65,0,.17.19.53-.12.2-.19.3.19,0,.19.25.25.4-.32.24,0,.38.34.87.32.42-.23.37.06,0-.23.22,0,.29.29.13-.63.34.25.1.49.49.31.25-.31.13,0,.25.5.42-.35.24,0,.36.67-.11.42-.4.13.15.33h.42l.34-.36.27,0,.1.33-.35.25-.09.4.27.7.29-.13.77-.19.16.06.34-.26,1.1-.19.28.17.55-.23.61-.75.53-.12.22-.32-.08-.51.28-.62.65-.36h.33l.95-.64,1-.49.08-.47,1.14-.72.38-.41.07-.42.24-.49.59-.47.34.06.83-.59.51-.19.61-.58.34-.28-.18-.68.41-.95.22-.09.06-.62-.18-.51-.33-1-.42-.85.24-.55.63-.36h.55l.63,0,.3-.37.61-.06,1-.57Z" transform="translate(-134.42 -166.32)" disabled="disabled" style="pointer-events: none;"></path>
   <path name="XXXX" id="path6744" class="cls-1" d="M191.33,178.17l0-.36,1.21-.28.35-.26h.15l.07.13.52.08.17-.13,1-.33a1.38,1.38,0,0,0,.32-.28c0-.1.07-.44.24-.49s.75-.15.75-.15a.71.71,0,0,1,.19-.38c.15-.11.92-.74.92-.74l.32,0,.81-.43.84.15.18.13.76.07.52.33L201,175l.86.05.23.23,1.33-.13,1-.54.15-.56,1.41-.69.19.16.72.15.25-.23.37.05,1.33-.51.27-.49,1.78-.3.42.23.94.05,1.14-.28,1.51-.08.32.28-.1.26.15.12.17-.25.44-.1.13-.23-.55-.05.13-.31.34,0-.14-.43.17-.18.27.21.44,0,.33-.39.71.46v.21l-.37.23v.25l.4.21.22-.28.94,0-.17.38.49.39.17.25.4.21.12-.36-.52-.61.23-.26.56-.08.15.29-.05.43.42.2L221,173l0-.35-.22-.26.24-.31.5.05.17.13h.27l0-.2-.52-.46.07-.26.5,0,.27.2-.22.39.57.43h.27l.27.51.27.13.42-.41-.25-.28.2-.46h.32l.2.18,0,.25.17.41h.38l.29-.43.62-.13.2-.28-.05-.21.12-.18.55,0,0,.26.47.38.2-.38-.22-.95-.67-.33.18-.26.6,0,.53.47.16.44.53.31.2-.37-.31-.44.29-.32.6,0,.1.24.42.13.56-.32h.23l.2.23-.28.32.09.29.31,0,0-.33.27-.17.16,0v.15l.5.27.28-.19h.44l.24-.31-.16-.24.2-.28.17.07.28-.07.19-.36-.17-.14.08-.21.26-.09s0,.12.1.15.51.13.51.13l.57-.39-.08-.24.45-.43h.18l.31-.17.73.05.18.25-.21.23,0,.17.22.09.3-.26-.24-.34,0-.55.41-.15.31.1a.6.6,0,0,0,0,.21c0,.06.58.53.58.53l.29,0,.44.42.18-.3-.19-.25.16-.36.47-.37.26,0,.1-.28-.36-.18v-.18l.24-.17.39.09.13.35.35.29.44,0,.12,0V168l.3.3.24-.07,0-.15.29-.06.11.33.56.28.33-.12.31.18-.12.13V169l.33.18,0-.2.25-.09.43.08.21,0,.25.31.21,0,.14-.42-.14-.12.27-.41.29.09,0,.23.27.36.45-.14,0-.25.5-.34.36-.07.23.19v.14l.43.41h.26s.32.1.34.21a.6.6,0,0,0,0,.2l.43.16.39-.14h.39l.14.2.34,0-.15-.42.28-.21.41.21v.19l.41.3h.2l.14-.12h.29v.15l.35.41.37.29.33.41.45.18.31-.26.6,0,.35-.13.38.09,0,.13.62.39.42,0,.26-.35.37,0,.11-.22.15,0,0,.14.77.08.17-.23.25-.05,0,.11.44.44.26,0,0-.14.3-.13.14.11,0,.14.36.39h.28l.08-.5-.16-.19.18-.27.45-.09.07.12.4.1s.14-.22.19-.23.81,0,.81,0l.17-.29,0-.23.11-.25.27,0,.24-.18h.12v.23l.21.29.24-.19,0-.15.2-.1.46,0,.05.17.27.11.23,0,.25.07-.16.21.13.32.1-.24.25,0,.23-.17.07.18-.05.23-.14.11,0,.3.27.2h.2l.1-.18.39-.08v.14l.45.25,0,.09.19.06,0-.11.4-.17.22,0,0,.2.24.35.31,0,.14-.13,0-.22.23-.09.14-.06h.25v.12l.34.15.27-.22.57-.19.16.09V171l.24.32.32,0,.5-.38.34-.12.12,0,.46-.14.21,0,.17-.27.4-.09.14.12-.06.1.23.3.32-.1-.07-.22.19-.12h.23l.05.07h.13v-.14l.47-.25.11,0v.15l.22.1.09-.28.27-.2.07.1.21,0,.15.27.25-.16v-.26l.23-.34h.16v.11l.15.13-.07.26.22.14.25-.12v-.19l.37-.17.28.08.05.14-.12.17.15.11h.27l0-.2.3-.25.35.09.22.32,0,.14.19.31.16-.09h.19l.2-.28.34-.09.12.1.27-.4.37-.17.13.09.28-.12,0-.14.17-.1.05.1H281l.32-.33-.05-.18.17-.33.45-.13.13.17.28,0,.19-.26.36-.35.63-.16.14,0,.48-.23,0-.3-.18-.1v-.13l.34-.13a.79.79,0,0,0,.2,0h.35l.1-.13.17-.07.1.12.29,0h.29l.07-.13.2-.05.05.11.22-.07.29-.25v-.1l.28-.13.16.08v.06l.27.13,0-.18.29-.12h.13v.2l.47.27.61-.09.13.18h.48l.23-.14.34.07.27.36-.18.27.05.11h.51l.11-.19-.09-.15.15-.12.13.22a.88.88,0,0,1,.31.18.48.48,0,0,1,.11.18l.25-.09v-.18l.17-.09.44.09.36.27.06.11.44.21.38-.28.05-.3.66-.32h.36l.06.1.27.09.15-.15-.06-.15.19-.12.2.18.11.1.19-.23v-.11l.16-.1.2.28.75.12.14-.15,0-.16.31-.13.27.06v.23l.78.7.58-.18.19-.37-.13-.48.29-.22.44.08.21.22.05.24-.28.11-.1.25.12.55.38.25.19-.13.62,0s.54.23.54.31a1,1,0,0,0,0,.22l.31.22-.18,0-.06.17.2.06.06.29-.1.23V170l.42.28.11-.12.32-.05.29.14.37,0,.36.28,0,.27.41.31.41.05.48.28.14.43-.19.22,0,.5.34.18.53-.1.29.05.3.29-.2.23-.57.15-.3.69.37.5.47.15.48-.3.65,0,.23.37.47.18.42-.18.46-.42.54-.07.3.28v.58l-.21.14v.31l.42.22.8-.17,0-.18.28-.14.82,0,0,.19.27.26.14.37,0,.35.89.84.43.18.47.13.21.37-.14.74-.12.06,0,.5.57.62-.52.27-.37-.38-.11-.21-.27.18.2.15-.05.19-.19,0-.11.3-.16-.28.12-.09-.09-.06-.38.07-.09.21-.15-.34-.33-.12-.24-.19-.13.16.15.19-.25.07-.09-.14h-.23l-.07.11.19.11-.19.13h-.29l-.12-.26-.28-.09-.07-.16.14-.08-.05-.12-.43,0-.11.27-.19-.22.13-.11-.2-.29h-.21l-.1.16h-.21v.21l.07.17-.39.23-.48-.13-.15-.18-.08.1.16.24-.09.26-.1,0V180h-.1l-.07.21-.08-.09,0-.25-.22.18v.25l-.15.06-.13-.32.14-.1-.12-.17-.51-.24,0-.34.05-.08-.13-.15-.3.1,0,.25h-.38l.08-.13-.34,0-.17-.17.17-.3h-.31l-.16.26-.09-.22.12-.18-.11-.11-.36.14,0-.25-.5-.11v-.21a2.11,2.11,0,0,0-.31-.1c-.18,0-.1-.3-.1-.3l-.29.26.24.31h-.36l-.24-.35-.38.05-.3-.34.47-.14v-.11l-.89-.13L302,177l-.32.12.21.28-.56,0-.08-.36-.17,0v.42l-.23.12-.23-.25-.08.2.21.23-.41.11-.13-.2-.32,0-.12.22-.07-.18-.28.06,0-.26.33-.13-.27-.12-.12-.22-.27,0-.29.18-.16-.12.27-.15h.55l0-.2s-.43-.07-.53-.07-.25.16-.25.16l-.29.17-.15-.2-.25.12,0,.4-.18,0V177l-.33.15-.07.22-.18-.13.11-.11-.09-.17-.22.11-.07.19-.15-.07-.12-.19.3-.14-.22-.15-.38,0-.16.21,0,.31-.23-.13v-.23l-.29.16,0,.33-.39.12-.1-.09-.26.32-.46-.12-.09-.23-.21.09-.47,0-.17.19-.21-.2.06-.25-.32.13-.13.25h-.41l-.27-.28.18-.11-.21-.08-.54.38.13.32-.27,0-.19-.25.11-.15a2.27,2.27,0,0,1-.36-.26.17.17,0,0,1,0-.29l-.22.1v.08l-.24.29-.22-.31.18,0v-.26l-.39-.28-.31,0-.11-.14-.34.16,0,.24-.21.19.12.19-.27.35.16.32-.22.08-.17-.19-.11.1h-.34l-.13-.22-.29.22.49.51-.43,0-.07-.07-.25.16.08.24-.22.14-.22-.25h-.24l.22.57h-.23l-.09-.25-.51,0-.13-.15-.18.19.27.25-.1.42h-.21l-.07-.22-.14.09,0,.16-.35-.06v.38l-.23.07.06.32-.2.06-.2-.19.14-.25h-.32l-.12.18-.11-.19-.25.07-.06.32-.32-.32.07-.25h-.33v-.23h-.21l-.08.18-.14-.08-.08-.29-.42.16,0,.39h-.27l-.16-.26-.12,0v.31l-.35-.22v-.28l-.57.15s-.12.14-.12.14l-.21.08-.31-.19-.05.08.07.5a3.37,3.37,0,0,0-.41-.22c-.09,0-.27.1-.27.1l-.2-.1.11-.33-.3,0-.31.29-.08-.24-.22,0-.16.23-.27-.07-.23-.17-.27.17.11.34-.29-.11-.14-.2-.43-.23-.07-.21.15-.23-.68.16-.08-.13v-.29l.22-.16v-.09l-.41.1-.22-.23.22-.12-.21,0-.11-.22h-.36l-.11.23-.16-.39.13-.15-.18-.05-.3.08v-.13l-.22,0-.32.38-.28-.33-.13.2.06.31h-.31l-.13-.16-.68.07-.28.36-.27,0-.19.23-.56-.39v-.26l-.22.14,0,.18-.54.13-.08-.12-.34.06-.16.2-.11-.07h-.5l-.27.18-.28-.25.2-.11,0-.14-.14-.08-.18.07-.24-.23,0-.18.13-.06-.09-.22-.57-.11-.14-.48-.18.06-.1.24-.16-.1,0-.32h-.14l-.07-.19-.36.12,0,.3-.22-.27-.11.17.11.34-.45-.22v-.26s-.39.21-.39.27v.19l-.18.06v.2l-.24.08,0,.35-.35-.06-.19-.28-.24.12v.39l-.27-.14,0-.25-.43.36-.11.45h-.39l-.21.28-.07-.22-.36.13-.08.2-.26,0,0,.25-.21.2.37.22-.07.34h-.3l-.18.22.17.35-.29,0L262,181l-.21-.39-.38.08-.16.24-.57-.09-.1-.15h-.14l-.28.21-.63-.06-.17-.28-.36.31h-.18l-.83.63,0,.32h-.42l-.12.24-.18-.26-.53-.25-.35.41-1-.25-.11-.1-.4.07,0,.25-.26-.32-.47,0-.18.16-.48-.35-.05-.17-.49.07,0,.13-.31,0c-.05,0-.07.18-.07.18l-.34,0-.24.16-.51-.32,0-.09-.18,0-.21.12-.1-.19-.58.09c-.06,0-.14.19-.14.19l-.18-.21v-.17l-.2-.16-.17.22h-.54v.19l-.25-.13,0-.16a2.19,2.19,0,0,0-.53.24.9.9,0,0,0,0,.29l-.15,0-.1-.23-.25-.09v-.11h-.25l-.21.24-.16-.4-.21.07v.2l-.24.08-.18-.28,0-.12h-.14l-.12.11-.11-.1-.09-.25-.22,0-.11.12-.22-.18h-.68l0-.16-.45.07-.06.15-.28,0,0,.18-.61.07-.07-.31-.32,0-.18.23-.25-.26-.31.13-.07.16-.36-.07-.14-.16-.2.06v.37l-.16-.07-.23-.42-.71-.14-.42.24,0,.31.26.19-.4.07-.17-.06-.25.19-.36-.26,0-.07-.61.07-.55.49-.34,0-.23.17-.86.11-.3.32-.26-.15v-.29l-.21-.1-.2.25.12.46-.42.16.12.28s-.44.38-.44.45.06.36.06.36l-.19.18.12.23-.28.38h-.14l-.17.38-.08-.33-.25.16.17.27-.16.19.13.19,0,.07a1.49,1.49,0,0,0-.26,0c-.07,0-.13.17-.13.17l-.21-.16-.22.18-.08-.24-.32.12.12.16a2.06,2.06,0,0,0-.44.19c-.07.07.12.16.12.16v.19l.14.18-.44,0,0,.34H232l-.13-.18.19-.08-.08-.15h-.21l.07-.44-.29.1v.21l-.24.1.1.54-.47.08,0,.18.2.12-.13.08-.4,0-.07.21-.25-.16,0,.36-.26,0,0,.54-.1.09-.17-.13-.48.09-.2-.3-.08.19a2.08,2.08,0,0,1,.16.21c.05.07,0,.2,0,.2l-.29-.16-.27.16.09.22-.09.12-.31-.12v.18h-.21l-.13-.16.11-.17-.05-.17h-.2l-.11.28-.18-.25-.14.06.23.26-.31.13-.1.23.21.22-.5.05-.18.19-.35,0v.25l-.4.22-.26-.12-.88,0V190l-.18-.05-.08-.17-.8.17,0,.16h-.19l0-.26-.41.23,0,.28-.14.18.32.33-.42.08,0,.25.26.06.08.13-1,.55-.69-.2,0-.12-.75.29-.27.31-.28,0,0,.48-.21,0,0-.28-.27,0-.14-.45-.31.13.33.32-.39.22-.15-.26-.38.31-.11-.34-.18-.1-.14-.28-.18-.07-.15.16.22.2-.44.21.33,0-.19.33-.17-.09-.67.14-.52.06-.2-.17-.61.49-.25-.14-.08.26-.45-.09,0-.26-.37-.06-.5.55.23.24.14.61-.28.17,0-.52h-.83l-.06.29.42.38-.47.38-.09-.5h-.39l-.19.15-.06-.15-.25.38-.44-.46.14,0H212l.31-.24-.06-.29-.75-.11-.19-.3-.47.24,0,.26-.77-.29,0-.26.56-.06-.08-.24.44,0v-.3l-.31,0-.22-.44-.14.35-.44.29-.06-.29h-.33l-.22-.12.28-.55-.14,0-.25.29-.53-.32v-.18l-.22-.05-.31.35-.28-.27v-.35l-.58.12-.41-.14.69-.18.08-.38-.3,0-.17-.49-.17,0-.16.32-.14-.18,0-.41-.25.21-.3-.23L206,190l-.58,0-.33.15-.11-.3-.87.38-.47-.17-.52-.67-.67-.15-.56.15-.91-.47-.17-.29-.61,0-.41-.41-.07-.7-.17-.1.17-.18-.11-.29-.46-.07-.13-.38-.34,0-.08-.58.18-.1,0-.46-.43-.48-.08-.54-1-1.17-.3,0-.19.1-.29-.15-.05-.26s-.79-.49-.83-.49l-.58-.09-.64-.48-.23-.35-.46-.23-.11-.09h-.14l-.17-.3-.07-.42-.19-.19-.82,0-.19.24-.22,0-.49-.53v-.19l.22-.23,0-.27-.25-.19v-.18l.19-.23-.21-.26Z" transform="translate(-134.42 -166.32)" disabled="disabled" style="pointer-events: none;"></path>
   <path data-id="1071" name="XXXX" id="path6732" class="cls-1" d="M190.46,178.7l-.07.36-.4.05.08.21-.75.74H189l-.69.43-.27,0-.32.12-1.14-.35-.17-.28-1.51-.67-.32-.36-.89-.17-.72-.31h-1l-.47-.54-.52-.05-1.69-1.09-.27.41-.39.19-.24,0-.38.76.06.88-.35.08-.15-.2-.64.24h.37l.07.43-.25.16.05.54-.43.2-.31.41-.36-.11-.72.59-.51.09-.11.39.31.72,0,.62.95,1.13.43-.07.61-.36.23-.27.3-.05.13.17.44.07.37-.25.29-.07.32.27.35,0,.4-.35-.08-.44.21-.17.28,0,.25,0v-.35l.52-.21,0,.34.69.85.51.25.39-.09.85.51.21.74.31.12.12.41.46.44.88,0,.72.47.84-.45.68-.9-.29-.52v-.49l.31-.15.08-.59-.21-.2.26-.29.37,0,.22.37-.09.44.3.38,1.16.14.26-.24-.07-.84-.09-.12-.05-.34.21-.17.11-.27-.19-.13-.13-.81.42-.51.77-.08.38.47,0,.29.24.12h.45l.34.23.34-.07.13-.18.38,0,.31-.21h0l-.1-.08h-.14l-.17-.3-.07-.42-.19-.19-.82,0-.19.24-.21,0-.5-.54v-.19l.22-.22,0-.27-.25-.19v-.19l.2-.22-.23-.26Z" transform="translate(-134.42 -166.32)" disabled="disabled" style="pointer-events: none;"></path>
   <path name="XXXX" id="path6798" class="cls-1" d="M192.74,193.62l.31.38.47.35.06.46.63.62.81,0,.09.1.48-.24.73.07c.05,0,.85.67.85.67l0,.64.28.76,1,.8h.46l.67.23.49.51v.22l.34.14.27.42v.13l.22,0v.15l-.18.16v.08l.22,0,.22-.24.15.05v.15l.25-.14,0,.22-.13.13.22.18-.05.26-.16,0v.15h.3l.13-.21.17.09.13-.19h.19l.15.17h.06l.24-.33.17.18-.1.07V201l.17,0,.14.13.13-.1-.1-.25.26,0,.19.36L204,201l.22,0,.1.09.32-.12.08,0v.36l.25,0,.25-.31.26.2-.1.28.11.3.32.18-.07.3-.29,0,0,.2.21,0-.12.44.36-.16.11,0,.1.28.35,0,0,.32.34-.15.16-.4.27-.06.28.35.47-.19.08.19-.21.4-.19,0v.18l.51.48.27,0,.35.47h.32c.06,0,.1-.13.1-.13h.24l.93.57.12-.11.25.2-.2.26a2.9,2.9,0,0,1,.21.35c0,.06.15.87.15.87l.43,0,.27-.37.42.35v.49c0,.06-.11.2-.11.2V208l.38.44.2.12v.15l-.16.13.14,0,.26-.05.41,0,.15.22.14-.26.24.08-.06.18.49.49.28.06v.27l-.25.25-.23-.28-.47-.06-.44-.25,0-.23-.18-.11-.24.11-.11-.11h-.14l-.18.19-.2-.06-.13-.26-.2-.16-.46.31-.27.38-.23-.07-.09,0v.21l-.08.06-.36-.25-.51.14,0,.19.26.13h.23l.1.15-.13.19-.29.08,0,.21-.18.27-.35-.19-.31,0-.05.13.31.21-.08.27-.21,0-.11-.25-.28-.12-.12-.24-.2,0-.2.17-.37,0-.11-.27-.21-.06-.11.27-.55.17-.14-.3.09-.56-.13-.13-.24.23.11.09-.13.29-.2,0,.1-.34-.19-.18-.29.06-.16.19.16.17-.25.16,0-.29-.24-.08-.18.16h-.27l-.06.05.15.18-.22.21-.18-.25-.29,0v.19l-.24.3-.09-.19v-.51l-.45-.31-.08.08.15.19-.15.36-.25.1-.07-.12.18-.13,0-.31-.35,0-.09-.17.2-.15-.12-.29h-.28l-.32-.38-.39,0-.32.37-.4-.06-.17.42.15.28h.38l.18.35-.54.47h0l-.19-.24-.46-.29-.06-.37-.41.12-.13.17-.4.08-.56-.19-.11-.19h-.85l-.39-.24.07-.25-.28-.57-.29-.1-.77-1,0-.32-.9-1-.86-.68-.08-.36h-.38l-.52-.53.1-.19-.5-.46-1.06-.44-.88-.62-.52.05-.2.23-.59-.16-.24-.56-.5-.7.21-.82.24-.26.06-.37-.1-.29.21-.29.18-.19.11-.57-.29-.71-.27-.25.13-.68.09-.1v-.28l-.13,0v-.14l.13-.23-.19-.15.26-.59.24-.06.12.08.24-.06.25-.36-.12-.53.32-.69.73-.36.2.07.31-.23v-.44l.33-.3.41-.18Z" transform="translate(-134.42 -166.32)" disabled="disabled" style="pointer-events: none;"></path>
   <path name="XXXX" id="path6792" class="cls-1" d="M192.74,193.62l.31.38.47.35.06.46.63.62.81,0,.09.1.48-.24.73.07c.05,0,.85.67.85.67l0,.64.28.76,1,.8h.46l.67.23.49.51v.22l.34.14.27.42v.13l.22,0v.15l-.18.16v.08l.22,0,.22-.24.15.05v.15l.25-.14,0,.22-.13.13.22.18-.05.26-.16,0v.15h.3l.13-.21.17.09.13-.19h.19l.15.17h.06l.24-.33.17.18-.1.07V201l.17,0,.14.13.13-.1-.1-.25.26,0,.19.36L204,201l.22,0,.1.09.32-.12.08,0v.36l.25,0,.25-.31.26.2-.1.28.11.3.32.18-.07.3-.29,0,0,.2.21,0-.12.44.36-.16.11,0,.1.28.35,0,0,.32.34-.15.16-.4.27-.06.28.35.47-.19.08.19-.21.4-.19,0v.18l.51.48.27,0,.35.47h.32c.06,0,.1-.13.1-.13h.24l.93.57.12-.11.25.2-.2.26a2.9,2.9,0,0,1,.21.35c0,.06.15.87.15.87l.43,0,.27-.37.42.35v.49c0,.06-.11.2-.11.2V208l.38.44.2.12v.15l-.16.13.14,0,.26-.05.41,0,.15.22.14-.26.24.08-.06.18.49.49.28.06v.27l.47-.07.09-.24.27-.05.35.17-.06-.32-.18,0,.18-.27.42-.13.28.12,0,.42.38,0,.06-.12.86.39.18.38.19.19.27-.08.31.27s.68.12.78.15.22.21.27.23a2,2,0,0,0,.32-.05l.13-.21.22.1,0,.3h.2l-.07-.22.28,0a2,2,0,0,0,.18.22,4.15,4.15,0,0,0,.7,0l.48.48-.07.27h.2l.17-.14.23.13,0,.26-.15.15.27.13.1-.23h.27l.3-.05,0,.2.64.29.47,0,0,.21.22.26-.15.1.15.21.32-.21-.08-.13.23,0,.22-.12.17.2.29,0,.13-.26h.24l0,.18.17,0,.32-.26H227l-.12.47h.54l.47.39.34,0,0-.39.24.06.1.25.37-.15-.07-.39.49-.15.37.36.34,0,0,.26.44.16-.24.38.59-.2.29-.65.24.14-.05.25-.14,0,.12.32.46,0,0,.12-.09.15.62.16v.11l-.13.1.24.17.4,0,.11-.16.43.18v.24l-.15.07.07.14h.43l.08.28.37-.33.19,0,0,.16.32,0,.15.25.43,0,.36-.34.67-.22.51.3,0,.24.38.07.11-.29.26.06.05.28-.11.21.19.07.05.21.44.09.39-.14s.06-.27.06-.27l.19.17,0,.14.26.08v.19l.37.06.32-.18-.1-.22.25-.16.25.23-.14.17.11.2.52-.14.26.18.21-.13-.24-.17L241,216l.32.17.24.22.18-.07-.06-.15.48-.29h.22l.11-.18.15.09V216l.33.07.25-.07v-.26l-.14-.08-.08-.13.24-.21.12.15.29,0,.12-.2.26.08.17.31.16-.36.42.08-.07.15.24.12.22-.22.51,0,0,.16.22-.15.07-.28-.08-.09.15-.09.09.12.17-.22-.11-.17h.27l.4.27,0,.35.58,0,.22-.18.26.16-.12.22.34,0,.14-.25.45.15.1.36-.11.18.15.13v.45h.22l.14-.22.19.26,0,.35-.1.09.32.19.22-.3.17.08,0,.32.23.12h.25l.21.06.06.24h.34l.38-.41-.06-.2.29-.18.14.22.47-.05.19-.31-.19-.16.15-.1h.15l.08.22h.16l.1-.16-.07-.18.33-.35.22,0,0,.22h.12l.25-.44.19,0,.11.15.21.07,0,.15-.17.09.23.19.09,0,.16.1.24-.34,0-.24h.14l0,.12.39.13,0,.31.22.05.08.19H256l.08-.17-.19-.13,0-.12.11-.07-.05-.21-.17-.1.1-.27h.13l.11-.12-.12-.1.21-.13.18.21.19-.07.21.09.1.16.18-.18.2.17a3.3,3.3,0,0,0-.13.38s.3.21.3.21l.42-.25.37.08.1.31.75.09.29-.48v-.29l.37.09.18.27.23-.22.44,0,.09.21.32-.1.16.34.88.05.11.3.16.1,0,.18.32-.25.28.12-.06.3.28.07.3-.3-.14-.15.12-.13.19.06.05-.12-.14-.12.1-.22h.22l.14.34.2-.22h.27l.17.26.12-.37-.2-.14.21-.36.16,0,.3.31-.16.22v.13h.22l.32-.25V216l.14-.13.1.15a1.47,1.47,0,0,0,.44,0,2.21,2.21,0,0,0,.2-.29l.34.11.09-.06-.06-.24h.21l.46.16,0,.15.18.13h.56l.24-.23.31-.09.16.11.12,0,.1.19h.12l.2-.27.41-.12v.16l.37.11.07-.44.2-.09v-.18l.19-.09.05.14.35,0,.11-.32.13-.1.25.13-.09.23.2.26.25-.15.23,0,.16-.28h.25l.17.23-.19.13.24.12v.1l-.25.09-.12.23.16.08v.14l-.22.09-.14.27.07.18h.21l0,.12.11.36h.16v-.41h.17l.06.14.13-.19-.26-.24.08-.1,0-.22h.09l.18.4.09-.05v-.22h.15l.19.2-.13.2.12.33-.18.24,0,.38.37,0,.17.28.53-.71.59-.19.44,0,.61-.57.23-1,.87-.53.59,0,.26.3.3,0,.27-.55.59-.3.24-.57-.2-.41.34-.68h.37l.69-.34.26-.7.61-.38.46,0,.65-.38.31.15.69-.34.79-.17.3-.64.28-.34.29-.36.59-.21.1.19.81-.77.49-.66,1-.36.83.38.31.36,1,.54,1.46.19.58-.08.45-.22,1,.12.81-.35.43-.12.25-.21.46,0,.55-.26.22-.59,1-.71.24-.42.85-.24,1.08,0,.3.25.63.19.34-.46.45-.15.24-.58.55-.74.41-.07.44-1,.71-.64.21-1,.4-.3s.33,0,.41-.13.57-.64.57-.64l.14-.55.63-.68.26,0,.63-.9.08-.53.75-1.21.41-.47.1-.43.32-.06.59-.73.67-.21,0-.57.2-.45s.39,0,.43-.15l.26-.7-.32-.28v-.53l.3-.87.28-.13.92-.77.2,0,.28-.47.13-.72.3-.91.34-.07.57-.53.23-.45.46-.27.12,0,.45-.49.18-.41-.1-.21.22-.85.43,0,.32-.41,0-.59.53-1.62.49-.54-.32-.56-.72-.34-.28-.22h-.58l-.29.14-.72-.57,0-.31-.08-.08-.52.28-.37-.39-.11-.21-.27.18.2.15-.05.19-.19,0-.11.3-.16-.28.12-.09-.09-.06-.38.07-.09.21-.15-.34-.33-.12-.24-.19-.13.16.15.19-.24.07-.1-.14h-.23l-.07.11.19.11-.19.13h-.29l-.12-.26-.28-.09-.07-.16.15-.08-.05-.12-.44,0-.1.27-.2-.22.13-.11-.2-.29h-.2l-.11.16h-.21v.21l.07.17-.39.23-.48-.13-.15-.18-.08.1.16.24-.09.26-.1,0V180h-.1l-.07.21-.07-.09-.06-.25-.22.18v.25l-.15.06-.13-.32.14-.1-.11-.17-.51-.24,0-.34.06-.08-.14-.15-.3.1,0,.25h-.38l.08-.13-.33,0-.18-.17.18-.3h-.32l-.16.26-.09-.22.12-.18-.1-.11-.37.14,0-.25-.5-.11v-.21a1.69,1.69,0,0,0-.31-.1c-.18,0-.1-.3-.1-.3l-.29.26.24.31h-.36l-.24-.35-.38.05-.29-.34.46-.14v-.11l-.89-.13L302,177l-.33.13.21.27-.56,0-.08-.36-.17,0v.42l-.23.12-.23-.25-.08.2.22.23-.42.11-.13-.2-.31,0-.13.22-.07-.18-.28.06,0-.26.33-.13-.27-.12-.11-.22-.28,0-.29.18-.16-.12.27-.15h.55l0-.2s-.43-.07-.53-.07-.25.16-.25.16l-.29.17-.15-.2-.25.12,0,.4-.18,0V177l-.33.15-.07.22-.18-.13.11-.11-.08-.17-.23.12-.07.18-.15-.07-.12-.19.3-.14-.22-.15-.37,0-.17.21,0,.31-.23-.13v-.23l-.29.16,0,.33-.39.12-.09-.09-.27.32-.46-.12-.09-.23-.21.09-.47,0-.17.19-.21-.2.06-.25-.32.13-.13.25h-.41l-.27-.28.18-.11-.2-.08-.55.38.13.32-.27,0-.19-.25.11-.15a2.27,2.27,0,0,1-.36-.26.17.17,0,0,1,0-.29l-.22.1v.08l-.24.29-.22-.31.18,0v-.26l-.39-.28-.31,0-.11-.14-.34.16,0,.24-.21.19.13.19-.28.35.16.32-.22.08-.16-.19-.12.1h-.34l-.13-.22-.29.22.49.51-.43,0-.07-.07-.25.16.08.24-.22.14-.22-.25h-.24l.22.57h-.23l-.09-.25-.51,0-.12-.15-.19.19.27.25-.1.42h-.21l-.07-.22-.14.09,0,.16-.34-.06,0,.38-.23.07.07.32-.21.06-.2-.19.14-.25h-.32l-.12.18-.11-.19-.25.07-.06.32-.32-.32.07-.25h-.33v-.23h-.21l-.08.18-.14-.08-.08-.29-.42.16,0,.39h-.27l-.16-.26-.12,0v.31l-.35-.22v-.28l-.57.15s-.12.14-.12.14l-.21.08-.31-.19-.05.08.07.5a4,4,0,0,0-.4-.22c-.1,0-.28.1-.28.1l-.2-.1.11-.33-.3,0-.31.29-.08-.24-.22,0-.15.23-.28-.07-.22-.17-.28.17.11.34-.29-.11-.14-.2-.43-.23-.07-.21.15-.23-.68.16-.08-.13v-.29l.22-.16v-.09l-.41.1-.22-.23.22-.12-.2,0-.11-.22h-.37l-.11.23-.16-.39.14-.15-.19-.05-.3.08v-.13l-.22,0-.32.38-.28-.33-.12.2.05.31h-.3l-.14-.16-.68.07-.28.36-.26,0-.2.23-.55-.39,0-.26-.22.14,0,.18-.54.13-.08-.12-.34.06-.16.2-.11-.07h-.5l-.27.18-.27-.25.19-.11,0-.14-.14-.08-.18.07-.24-.23,0-.18.14-.06-.1-.21-.57-.12-.14-.48-.18.06-.1.24-.16-.1,0-.32h-.14l-.07-.19-.36.12,0,.3-.22-.27-.11.17.11.34-.44-.22,0-.26s-.39.22-.39.27v.19l-.18.06v.21l-.24.07,0,.35-.35-.06-.19-.28-.24.12v.39l-.26-.14,0-.25-.43.36-.11.45h-.39l-.2.28-.07-.22-.37.13-.08.2-.26,0,0,.25-.2.2.36.22-.07.34h-.29l-.18.22.16.35-.29,0L262,181l-.21-.39-.37.08-.17.24-.57-.09-.1-.15h-.14l-.27.21-.64-.06-.17-.28-.36.31h-.18l-.83.63,0,.32h-.42l-.12.24-.18-.26-.53-.25-.35.41-1-.25-.11-.1-.4.07,0,.25-.26-.32-.47,0-.18.16-.47-.35-.06-.17-.49.07,0,.13-.31,0c-.05,0-.07.18-.07.18l-.34,0-.24.16-.51-.32,0-.09-.18,0-.21.12-.1-.19-.58.09c-.06,0-.14.19-.14.19l-.18-.21,0-.17-.21-.16-.17.22h-.54v.19l-.25-.13,0-.16a2.19,2.19,0,0,0-.53.24,1.35,1.35,0,0,0,0,.29l-.15,0-.1-.23-.25-.09v-.11h-.25l-.2.24-.17-.4-.21.07v.2l-.24.08-.18-.28,0-.12h-.14l-.12.11-.11-.1-.08-.24h-.23l-.11.12-.22-.18h-.68v-.16l-.46.07-.06.15-.28,0,0,.18-.61.07-.07-.3-.32,0-.18.23-.25-.26-.31.13-.07.16-.36-.07-.14-.16-.2.06v.37l-.16-.07-.23-.42-.71-.14-.42.24,0,.31.26.19-.4.07-.17-.06-.25.19-.36-.26,0-.07-.61.07-.55.49-.34,0-.23.18-.86.1-.29.32-.27-.15v-.29l-.21-.1-.19.25.11.46-.42.16.13.28s-.45.38-.45.45.06.37.06.37l-.18.17.11.23-.28.38h-.14l-.17.38-.08-.33-.25.16.17.27-.16.19.13.19,0,.07a1.49,1.49,0,0,0-.26,0c-.07,0-.13.17-.13.17l-.21-.16-.22.18-.08-.24-.32.12.13.16a2.1,2.1,0,0,0-.45.19c-.07.07.13.16.13.16v.19l.13.18-.44,0,0,.34H232l-.14-.18.19-.08-.08-.15h-.21l.07-.44-.29.1v.21l-.24.1.1.54-.47.08,0,.18.2.12-.13.08-.4,0-.07.21-.25-.16v.36l-.27,0,0,.54-.1.09-.17-.13-.48.09-.2-.29-.08.18.17.21a.32.32,0,0,1,0,.2l-.3-.16-.27.16.09.22-.09.12-.31-.12v.18h-.21l-.13-.16.12-.16-.06-.18h-.19l-.12.28-.18-.25-.13.06.22.26-.31.13-.1.23.21.22-.5.05-.18.19-.34,0v.25l-.41.22-.26-.12-.88,0V190l-.18-.05-.08-.17-.79.17-.05.16h-.19v-.26l-.42.23,0,.28-.14.18.32.33-.41.08,0,.25.26.06.08.13-1,.55-.69-.2v-.12l-.75.29-.28.31-.28,0,0,.48-.21,0,0-.28-.26,0-.14-.45-.32.13.33.32-.39.22-.15-.26-.38.31-.11-.34-.18-.1-.14-.28-.18-.07-.15.16.22.2-.44.21.33.06-.19.32-.17-.09-.67.14-.52.06-.2-.17-.61.49-.25-.14-.08.26-.45-.09,0-.26-.36-.06-.5.55.22.24.14.61-.28.17,0-.52h-.83l-.06.29.42.38-.47.38-.09-.5h-.38l-.2.15,0-.15-.25.38-.45-.46.14,0H212l.31-.24-.06-.29-.75-.11-.19-.3-.47.24,0,.26-.77-.29,0-.26.56-.06-.08-.23.44,0v-.3l-.3,0-.23-.44-.14.35-.44.29,0-.29h-.34l-.22-.12.28-.55-.14,0-.25.29-.53-.32v-.17l-.22-.06-.31.35-.27-.27v-.35l-.59.12-.41-.14.69-.18.08-.38-.3,0-.17-.49-.16,0-.17.32-.14-.18,0-.41-.25.21-.3-.23L206,190l-.58,0-.33.15-.11-.3-.86.38-.48-.17-.52-.67-.67-.15-.55.15-.92-.47-.17-.29-.61,0-.41-.41-.07-.7-.17-.1.17-.18-.11-.29-.46-.07-.13-.38-.34,0-.08-.59.18-.1,0-.46-.43-.48-.08-.54-1-1.17-.3,0-.19.1-.29-.15-.05-.26s-.79-.49-.83-.49l-.58-.09-.64-.48-.23-.35-.46-.23-.31.2.16.55.41.27,0,.24-.37.18,0,.09.55.31-.08.3-.4.05,0,.2.41.3-.16.23-.16-.05-.23.21.34,1.48.65.7.16.36-.22.11,0,.15.25.15-.1.85-.19.13,0,.41.14.21-.31.24,0,.38-.25-.07-.1-.15h-.19l-.57,1,.29.34V192l-.19.12.14.33-.36.24-.17,0-.33.24,0,.26-.13.08.14.17Z" transform="translate(-134.42 -166.32)" disabled="disabled" style="pointer-events: none;"></path>
   <path data-id="1065" name="Nunchía" scale="3" move="10" id="path6808" class="cls-1" d="M197.62,210.61l.21.26-.06.6-.23.18.7.33.28.6-.17.22.07.2.5.09.25-.1.26.29.58-.22.44.27v.59l.55.5.25,0,.63.33,0,.19.36,0,.33.15.15.27.2-.43.15,0,0,.86.15,0,.32-.37.18.12v.42l.44.13,0,.15-.49,0,0,.13.32.1-.08.42.2.08.09-.38.17,0,.09.65.19-.07.06.08-.24.3.23.33-.16.2.18.21h-.31l0,.26-.28-.2,0-.07-.4,0-.4.35-.1-.18h-.55l-.22.36-.39-.4-.55,0-.76.44-.2-.13-.31.21-.05.32h-.16l-.29.34,0,.23-.34.16-.13-.11h-.54l-.59-.41-.11.2-.37-.18,0-.24-.41-.16-.62.23-.18.32-.62,0-.15-.32-.48,0-.12.15-.24,0-.12-.18-.09.06-.13.18-.94-.16-.17-.24-.5.2-.1.18-1.06.24-.36.35H191l-.13-.12-.62.27-.23.62.17.39-.31.28-.57.33-.44.08-.12-.27.46-.3.38-.38-.15-.43-.49.22-.36-.11.18-.48-.08-.44-.23-.21-.61.48h-.26l-.08-.27.75-.37-.16-.36-.8.38-.54-.38.08-.29.57-.11.38-.43-.41-.27-.67.32-.41,1-.38.22,0-.73-.49-.49.39-.29-.34-.19-.41.24-.28-.11.15-.38-.23-.24-.41.24-.26-.75-.28-.33.34-.62v-.37l-.67-.36-.31-.35.28-.54v-.46l-.38-.48-.08-.7.28-.68-.23-.38-.28-.7-.72-.24-.39-.43-1,.32-.36.62-.64.14-.23.86-.67.62h-.58v-.63l.23-.24,0-1-.31-.48.24-.21s0-1,.05-1.07a2.86,2.86,0,0,1,.43-.53l-.3-1-.31-.57.4-.5.18.09.4-.33.5-.1.11-.38-.43-.34.21-.22.18-1.25h-.38l-.25-.44.2-.07,0-.43.36-.26h.36l.14.22.53.15.13-.77.66-1-.37-.46.75-.3.43.11,0,.14.44.13.36-.42.13-.48.36-.45.18,0,.17.44a1,1,0,0,0,.38.15c.15,0,.8-.1.8-.1l.76.33.13.21.42.08.58-.25.53-.35.8-.11.54.08.43.38.1.29-.06.37-.24.26-.21.82.5.7.24.56.59.16.2-.23.52-.05.88.62,1.06.44.5.46-.1.19.52.53h.38l.08.36.86.68.9,1,0,.32.77,1,.29.1.28.57-.07.25.39.24Z" transform="translate(-134.42 -166.32)" style="fill: rgb(210, 210, 230);"></path>
   <path name="XXXX" id="path6859" class="cls-1" d="M155.9,226.13l-.27.39.28.19-.07.29.25.16,0,.32-.44.28.07.86-.79.69-1.08.05-.09.08,0,.22-.72.31,0,1.31-.33.19,0,.47.22.35.58.5,0,.32.8.59-.15.16-.25,0-.06.49-.23.06-.13.42.22,1.62.38.78-.07,1,.54,1.1,0,.25.29.15.15.25.51.48.49.11.42.56.18.46.94.53,1.38-.08.21-.19,1.1.38.62.5.69.06.37-.12.51.06,1,.61.8-.15.48.24.35.34L165,244l.27.42.57.29,0,.4-.52.37.05.37.77.43,0,.43.47,0,.59.43.52-.11.77.71.57.43-.11.49.13.31-.32.26.38.34h.54l.3.4-.19.43,1.2.14.19-.43a3.67,3.67,0,0,1,.85-.28c.13,0,.27.31.27.31l-.11.57.49.49,1.31-.57.44,0-.27-.37-.56-.27-.58,0-.17-.18.13-.3-.05-.53-.44-.6-.58-.23-.22.06-.49-.34-.44,0-.25-.15.05-.25,0-.34-.43-.4-.17-.6-.1-.23.09-.15v-.48l-.24-.3-.2,0-.84-.86,0-.28-.24-.48-.32-.25v-.15l.23-.33,0-.59.46-.51.89,1.12.36,0,1,1.15.17.23s.14.09.21,0a4.1,4.1,0,0,0,.31-.4l.42-.05.09-.18.58-.17.08.12.49-.12,0-.25-.38-.19,0-.21.31,0,.14-.17.33-.08-.09.25.69.37.25-.2,1-.28,0,.13.53-.25L176,242l0-.58-.27-.17.2-.26.33,0-.22-.31v-.51l-.24-.06-.21-.35.34-.19.07-.19-.32-.26-.2-.65.34-.68.4-.12v-.28l-.45-.13-.23.15-.27-.11.14-.28-.28-.22-.26,0,.22-.23v-.27l-.4-.12.44-.23.15-.46h-.45l-.15-.52s.35-.05.39-.13.18-.41.18-.41h.11l.07-.15-.31-.13-.21-.36.21-.18,0-.34-.41,0-.05-.46-.43-.08v-.23l.28-.15,0-.48-.3-.23-.38.27-.16-.2.13-.3.49-.22,0-.36-.35-.12-.43.38-.21-.07,0-.38-.07-.07-.31.08-.25-.24.4-.13.1-.34-.2-.64.2-.4-.38-.36h-.27l-.25-.34-.42,0-.17.26-.63.08-.15-.27-.62-.11-.06-.27-.65-.23-.2-.41-.31-.06-.12.35-.46.15-.23-.08.14-.23-.41-.27-.35-.46,0-.27-.16-.19-.31,0-.25-.23.19-.15v-.31l-.36-.23.21-.2.06-.62-.18,0-.35.2-.06-.23-.3-.12.08-.33-.28-.19.32-.14-.41-.33,0-.33-.12-.18-.24.11-.25-.26,0-.21-.29-.07,0-.16.2-.13.07-.22-.44,0-.08-.26-.42-.08-.59-.59-.1-.4-.31.8-.48.55-.29-.05-.27-.49-.6.28-.25.33-.62-.09,0-.09-1.15.67,0,.64-.24-.05-.52.42.05.69-.59.59h-.27l-.17.38-.29.12-.1-.06-.46.2-.09.32-.9.37Z" transform="translate(-134.42 -166.32)" disabled="disabled" style="pointer-events: none;"></path>
   <path name="XXXX" id="path6855" class="cls-1" d="M186.88,247.42l-.17-.1v-.23l-.31,0-.09.17-.21-.09-.11-.23-.33-.12-.29.06,0,.15h-.09l-.05-.11-.29-.27.16-.19-.26-.23-.32,0,0,.1-.15,0,0-.19.2-.08v-.11l-.33-.08,0-.13.18-.06,0-.15-.23,0-.09-.1.25-.17-.18-.23-.38-.09-.18.13-.13-.1,0-.24-.17-.21H183l-.09-.1.11-.15-.1-.19-.32-.1-.28.1-.16-.21.35-.12-.08-.09-.21,0-.24-.12-.31.1-.13.19-.23,0-.15-.23H181l-.33.48-.61.13-.06-.26.27-.17-.19-.2.22-.49-.1-.36-.34-.07-.06-.12.28-.17v-.41l-.71-.13,0-.15.18-.28,0-.17-.33,0-.27-.42h-.29l-.08-.2.22-.17,0-.36-.24.08-.14-.3-.24-.37h-.26l.17-.38-.12-.24-.41,0L177,239l-.26-.35v-.23l.21-.09v-.25l-.29,0-.28.15-.56-.39-.35.68.2.65.32.26-.07.19-.34.19.21.35.24.06v.51l.22.31-.33,0-.2.26.27.17,0,.58.25.26-.52.25,0-.13-1,.28-.25.2-.69-.37.09-.25-.33.08-.14.17-.31,0,0,.21.38.19,0,.25-.49.12-.08-.12-.58.17-.09.18-.42.05a4.1,4.1,0,0,1-.31.4c-.07.08-.21,0-.21,0l-.17-.23-1-1.15-.36,0-.89-1.12-.46.51,0,.59-.23.33V243l.32.25.24.48,0,.28.84.86.2,0,.24.3v.48l-.09.15.1.23.17.6.43.4,0,.34-.05.25.25.15.44,0,.49.34.22-.06.58.23.44.6.05.53-.13.31.17.17.58,0,.56.26.27.37-.44,0-1.31.57-.49-.49.11-.57s-.14-.28-.27-.31a3.67,3.67,0,0,0-.85.28l-.19.43-1.18-.13h-.52l-.22-.19-.6.1-.36.27-.42-.35-.2.42.27.27,0,.21-.42.06-.33.15-1,.06-.82.34-.34-.11-.89.22-.22.27h-.29l-.09-.19-2.19-.13-.23.09.29.27.34,0,.2.27.53.36.24-.19.29.32,0,.19.24.12,0,.11-.39.21-.2.21.15.46.24.27v.38l.23.27-.16.42.33.44.23-.16.17.23-.11.42.51.8.43.16.18.26,0,.62.26.17v.32l-.33.13.38.35.22-.1.2.27-.07.74-.26.29.22.59.27.21-.05.52-.33.07-.2.79.25,1,.59.63-.2.34.16.4.6.31.18.42-.09.21.26.53-.15.12.09.66.15.12.07.25-.07.17.09.17.36,0,.18.17,0,.25.31.11.29.63-.11.21.48.37.32,0,.11.32.47.21.13.38-.13,0,.3.31.21-.08.2.14.09.36-.16.19,0,.17.31,0,.27-.07.09.13-.05.17.34,0,.38-.15.22.13-.13.29.13.25.58.38.11.17.35-.11.42-.37.14.06v.13l.38,0,.19-.17.41.17-.05.31v.3l.4.06.24.17.07.33.47.21.27-.08.29.13.1.31s-.42.46-.51.46-.17-.14-.17-.14-.07.48-.07.56.09.15.09.15l0,.29.28.26.14-.23.44,0,.13-.23.47.3-.13.33.26.09.29-.13.14,0,.6-.36-.16-.29.09-.1h.29l.58-.19.19.16.74-.41.47.06.11-.36.26-.15.38.13v.52l.14.25.25-.18.08-.5.57-.15,1.3.26,2.28-.19.68-.36,1.35.1.62.47.73.4.8-.17,1,0,.77.21.75.87,0,1,.85.68.65-.34.75-.31,1.05.18,1.25-.1.33-.37.7-.4.07-.31,1.1-.79,0-.31.67-.71V274l.8-.42.93-.92.12-.5-.1-.29.18-.47,1-.71.73-.15.57-.9.63-.68v-.29l.35-.31,1-.74.13-.79.53-.63.75-.39,1.72.42.58-.11.45.27,1-.11,1.1-1.05.38,0,1.15-.32.39-.45-.56.26a2.35,2.35,0,0,0-.35-.08h-.61l-.51.25H211l-.77-.27-.43.1-.37.36-.22,0,.09-.3-.32-.21-.77-.29-.43.21-.53-.55-.33.22h-.13l-.36.33-.18-.27-.44-.09-.31-.46-.41,0a1,1,0,0,0,.12-.32,4.32,4.32,0,0,0-.38-.75l-.34-.06-.2.16H204l0-.25-.4,0-.45-.36v-.73L203,261l-.26.13-.29-.59-.45.15-.18-.23.11-.13-.11-.23-.33,0-.46-.82.24-.37-.44-.51-.14-.84-1.17-1.11-.25,0-.16-.42-.29,0-.22-.36-.46,0-.16-.15-.38.25-.37-.33-.2-.63-.43,0-.13-.48-.36.11-.19-.09.08-.35-.46-.59-.36-.07,0-.14.29-.21-.09-.44-.2-.09-.07-.44.22-.27-.19-.23-.38.14-.16-.35-.35-.11.06-.34-.18-.1-.31.17-.22-.23-.44.19V251l-.25.08,0,.25-.46-.25.2-.15,0-.14-.51-.13v-.42l-.24,0-.32-.4-.31-.11,0-.65-.29-.12.05-.34-.29,0-.36-.13-.13.3-.4,0-.2-.19-.27.12-.31,0-.09.32-.18,0-.49-.46-.31.17-.4-.13-.22-.34.07-.17-.42-.35-.05-.26" transform="translate(-134.42 -166.32)" disabled="disabled" style="pointer-events: none;"></path>

</svg>