<svg version="1.1" data-id="8" id="Capa_1" xmlns="http://www.w3.org/2000/svg" xmlns:xlink="http://www.w3.org/1999/xlink" x="0px" y="0px" viewBox="0 0 96.3 99.4" style="enable-background:new 0 0 96.3 99.4;" xml:space="preserve">
 <defs>
        <style>.cls-1{fill: #ebebef;;stroke:#fff;stroke-miterlimit:3.86;stroke-width:0.25px;}</style>
    </defs>
	<path name="Sucre" scale="11" move="10" data-id="" id="path3554" class="cls-1" d="M46.5,49.1h-0.2l-0.1-0.2L46,48.8l-0.1,0.3l-0.2,0.1h-0.1l-0.1,0.2h-0.1l-0.1,0.3l-0.2,0.1h-0.2
	l-0.1,0.3h-0.1v0.2l-0.3,0.1l-0.2,0.3l-0.2,0.2v0.3l-0.2,0.1l-0.2,0.5l-0.1,0.2H43l-0.3,0.2l-0.3,0.4l-0.1,0.1v0.1l-0.2,0.1h-0.2
	l-0.2,0.2v0.1h-0.1v0.1l0.2,0.1h-0.1v0.2l-0.1,0.1l0.3,0.2v0.4l0.3,0.4l0.2-0.1l0.2-0.2l0,0h0.2l-0.1,0.1l0.1,0.1l0.3,0.1l0.1-0.1
	h0.3l0.1,0.1l-0.2,0.1l0.1,0.2h0.1l0.1,0.2l0.1-0.1H44v0.1l-0.1,0.1l0.2,0.1l0.1-0.2h0.3l0.1-0.1h0.1v0.2l0.3,0.1l0.1,0.1l0.3,0.1
	l0.1-0.1h0.1l0.1,0.2l0.1-0.1v-0.1h0.1v0.1l0.3,0.1l0.2,0.1l0.2,0.1l0.1-0.1l0.3-0.1l0.1-0.1v-0.1l0.1-0.2V55h0.1v-0.1h-0.3
	l-0.1-0.1h-0.3v-0.1l-0.1-0.1v-0.1l0.2-0.1v-0.3l0.1-0.1v-0.4l-0.1-0.2l-0.1-0.1v-0.3l0.1-0.1l0.1-0.1L46.5,53v-0.8l-0.2-0.3
	L46,51.7l-0.1-0.1h0.2l0.1-0.1h0.1v-0.1l-0.1-0.1V51l0.2-0.2v-0.1l-0.1-0.1l0.1-0.2l0.2-0.1l0.1-0.3l0.1-0.4l-0.3-0.3l0.1-0.1v-0.1
	L46.5,49.1z" style="fill: rgb(210, 210, 230);"></path>
	<path name="Almaguer" scale="8" move="10" data-id="382" id="path3355" class="cls-1" d="M47.1,62.1h-0.2l-0.2-0.1L46.3,62l-0.2-0.2H46l-0.2-0.4L45.7,61h-0.2v-0.2l0.1-0.1l-0.1-0.3
	l-0.1-0.2L45.2,60H45l-0.3-0.2l-0.2-0.3l-0.2-0.3l-0.2-0.1l-0.1,0.1l0.1-0.3l0.2-0.1l0.4-0.3v-0.3l0.3-0.1v-0.2h0.1l0.1-0.1v-0.2
	l0.2-0.1L46,57v-0.2h0.2l0.2-0.2h0.2l0.5-0.3l0.1-0.2l0.1-0.2l0.2-0.1l0.2-0.2v-0.2h0.2l0.1,0.1h0.2h0.1l0.3,0.3h0.1l0.4,0.3h0.1
	l0.1,0.1v0.2l0.3,0.3V57l0.2,0.4h0.2l0.1,0.2l0.2,0.2l0.2-0.1h0.3l0.1-0.1l0.2,0.2l0.5,0.1V58l0.2,0.2l0.1,0.2l0.4-0.3h0.2l0.2-0.1
	l0.1-1l0.2-0.4l0.1,0.2L53.2,57l-0.1,0.4l-0.1,0.4v0.3l-0.1,0.2l-0.3,0.2l-0.1-0.1l-0.1,0.1v0.3L52.1,59v0.1l0.1,0.1v0.2l-0.1,0.1
	v0.1l0.1,0.2v0.3L52,60.3l-0.2,0.1l-0.2,0.2v0.1h-0.1l-0.1,0.1v0.4l-0.2,0.2h-0.1l-0.2,0.1h-0.1L50.4,62v0.2h-0.2L50,62.3l-0.3,0.2
	l-0.3-0.1L49,62.1l-0.2,0.1l-0.4-0.1L48.2,62h-0.1h-0.3l-0.3,0.2l-0.1-0.1L47.2,62L47.1,62.1z" style="fill: rgb(210, 210, 230);"></path>
	<path name="La Sierra" scale="7" move="10" data-id="396" id="path3440" class="cls-1" d="M46.5,49.1l-0.2-0.1l-0.1-0.2L46,48.7l0.1-0.1L46,48.5l-0.2-0.4L45.6,48v-0.2l-0.1-0.1l0.1-0.2
	l-0.2-0.1l0.1-0.3l-0.1-0.1l0.1-0.1v-0.2l-0.2-0.2v-0.1l0.1-0.1l-0.2-0.1l-0.1-0.4l-0.4-0.4l-0.1,0.1l-0.1-0.1h-0.2l-0.1-0.2h0.1V45
	l0.2,0.2l0.1-0.5h0.1l0.1,0.1l0.3-0.2l0.6,0.4v0.1h-0.1v0.2h0.1l0.1,0.1l-0.1,0.1l0.3,0.2V46l0.4,0.1l0.2-0.1v0.1l0.3,0.1l0.3-0.2
	h0.2l0.1,0.1l0.2-0.1l0.1,0.2h0.3l0.2-0.1h0.3l0.1,0.1h0.2l0.4,0.2l0.2,0.3l0.3,0.3h0.3l0.3-0.2l0.8-0.2l0.4-0.3h0.3v-0.1l0.6-0.1
	l0.2,0.1l0.2-0.1h0.2l0.2-0.2H53l0.3,0.2l0.3,0.1l0.4,0.4l0.4,0.2v0.2l-0.1,0.1l0.2,0.1l0.4,0.3l0.2,0.3l0.2,0.1l0.1-0.1h0.3
	l0.2,0.1l0.4-0.1v0.1l0.2,0.1v0.2l-0.1,0.1V49L56,49.2v0.2l-0.1,0.1l-0.3,0.1l-0.1,0.1h-0.6l-0.1,0.1l-0.4-0.1l-0.2-0.3l-0.2-0.1
	l-0.3,0.1l-0.6-0.3H53h-0.2l-0.1-0.1l-0.2,0.1v0.1h-0.1l-0.1-0.2l-0.1,0.2L52,49.2h-0.1l-0.2,0.1h-0.2l-0.1-0.1h-0.5L50.4,49h-0.2
	l-0.5-0.1L49.7,49l-0.1-0.1L49.5,49l-0.1-0.1l-0.1-0.1l-0.4-0.2l-0.1,0.1l-0.2-0.1h-0.1l-0.1,0.1l-0.1-0.2l-0.3,0.1L48,48.8
	l-0.1-0.1h-0.1v0.1l-0.3,0.1L47.4,49l-0.1-0.1l-0.1-0.1l-0.1,0.1l-0.2-0.1l-0.1,0.1l-0.1-0.1l-0.2,0.1L46.5,49.1z" style="fill: rgb(210, 210, 230);"></path>
	<path name="Timbío" data-id="418" id="path3463" class="cls-1" d="M53.6,43.7l-0.2-0.1H53l-0.4-0.3h-0.2l-0.1,0.1l-0.1-0.2l-0.4-0.2L51.7,43l-0.1-0.1l0.2-0.4v-0.3
	l0.3-0.1l0.1-0.1l-0.6-0.2H51l-0.6-0.4L50,40.8l-0.6-0.1l-0.2-0.1l0.1-0.1L49,40.4l-0.4-0.1v-0.1l0.2-0.1v-0.2l0.2-0.1v-0.1l0.2-0.1
	l0.2,0.1h0.3l0.2,0.2H50l0.1-0.1l0.3-0.1l0.2-0.2h0.2l0.1,0.1L51,40l0.2-0.2l0.3-0.1l0.1,0.1l0.2,0.1l0.1,0.1l0.1-0.1l0.1-0.2h0.1
	v0.1l0.2,0.1l0.3-0.2v-0.1h0.2l0.2,0.1v0.2h0.2l0.2,0.2h0.2l0.2-0.1l0.1,0.1v-0.4H54l0.1-0.1v-0.1l-0.1-0.1l0.2-0.1l0.1-0.6l0.2-0.1
	v-0.1v-0.2l0.2-0.1V38h0.2l0.1-0.3l0.2-0.3l0.2,0.2l0.2-0.1l0.6,0.3l0.1-0.1l0.5,0.1l0.2,0.3h0.3l0.1,0.1h0.1l0.2,0.1l-0.1,0.2
	l0.1,0.1h-0.1l-0.1,0.1l-0.1-0.1h-0.3v-0.1L57,38.3l-0.1,0.2h-0.2L56.6,39l-0.2,0.1l0.1,0.1l-0.1,0.1l0.1,0.1v0.1h-0.1v0.3l0.2,0.3
	l-0.1,0.2L56,40.5l0.1,0.8h0.2v0.3l0.1,0.1l-0.2,0.2v0.3l0.2,0.1l0.1,0.5L56.2,43H56l-0.2,0.4h-0.2l-0.1-0.1h-0.2v-0.1l0.1-0.1H55
	l-0.1,0.1l-0.1-0.2l-0.2-0.1L54.4,43l-0.1-0.1h-0.1l-0.1,0.6l-0.3,0.2L53.6,43.7z" style="fill: rgb(210, 210, 230);"></path>
	<path name="Rosas" data-id="409" id="path3454" class="cls-1" d="M56.4,47.8l0.1-0.3l-0.3-0.3v-0.3l0.1-0.3v-0.4l-0.2-0.2l0.2-0.2l-0.1-0.3h-0.2L56,45.5l-0.3-0.2
	l-0.5-0.1l-0.1-0.1h-0.3L54.8,45l-0.3-0.2l-0.2-0.2h-0.1L54,44.4h-0.2v-0.1l0.1-0.1l-0.1-0.1L53.6,44v-0.2l-0.2-0.1H53l-0.4-0.3
	h-0.2l-0.1,0.1l-0.1-0.2l-0.4-0.2l-0.1,0.1L51.7,43L51.5,43l-0.1-0.2L51.3,43l-0.1-0.1h-0.2L51,42.8h-0.1L50.8,43l-0.3-0.3h-0.1V43
	l0.2,0.1v0.7l0.5,0.3v0.2L50.4,44l-0.5-0.1l-0.1-0.1l-0.1,0.1v0.1l0.2,0.1l0.2,0.2l0.3,0.2v0.4h-0.1l-0.1,0.2h-0.2L49.8,45h-0.1
	l-0.1,0.1l-0.3-0.1H49l-0.2,0.1l-0.4,0.1v0.2l0.1,0.2v0.3l0.2,0.2l-0.1,0.1h-0.2l-0.1,0.2l0.1,0.1h0.2l0.4,0.2l0.2,0.3l0.3,0.3h0.3
	L50,47l0.8-0.2l0.4-0.3h0.3v-0.1l0.6-0.1l0.2,0.1l0.2-0.1h0.2l0.2-0.2H53l0.3,0.2l0.3,0.1l0.4,0.4l0.4,0.2v0.2l-0.1,0.1l0.2,0.1
	l0.4,0.3l0.2,0.3l0.2,0.1l0.1-0.1h0.3l0.2,0.1L56.4,47.8L56.4,47.8z" style="fill: rgb(210, 210, 230);"></path>
	<path name="Patía" scale="5" move="10" data-id="" id="path3474" class="cls-1" d="M41.5,53.6l-0.1,0.1h-0.2v0.1l0.1,0.1l0,0L41.2,54v0.1L41,54.2l-0.3,0.4h-0.2l-0.2,0.3l0.1,0.2
	l-0.1,0.1V55h-0.1l-0.1,0.1h-0.2l-0.1,0.2l-0.2,0.1v0.1l-0.2-0.1v-0.1l-0.2,0.1l-0.2-0.1L39,55.5l-0.2,0.1l-0.1,0.3l-0.2,0.2
	l-0.1,0.1h-0.1l-0.1,0.3L38,56.8h-0.2l-0.2,0.2l-0.1-0.1h-0.1L37.3,57h-0.1v-0.1H37L37,57.2l-0.1,0.1l-0.2-0.1h-0.1v-0.2h-0.2
	l-0.1,0.1l0.1,0.1l-0.1,0.1h-0.4l-0.3,0.3v0.3h-0.1l-0.1-0.1l-0.2,0.1v0.2l-0.1,0.1h-0.2l-0.2-0.2h-0.2l-0.1-0.1h-0.1h-0.2L34,57.7
	l-0.1,0.2l-0.1,0.1l-0.1,0.1L33.6,58h-0.2l-0.3-0.3L33,57.9l-0.1-0.2l-0.1-0.1v-0.2l-0.3-0.1v-0.5l0.3-0.1l0.1-0.2l-0.1-0.1v0.1
	l-0.1-0.1v-0.3h0.1l0.1,0.1h0.2v-0.1L33,56.1V56l0.2-0.1l0.1,0.2h0.1l0.1-0.1l-0.2-0.2v-0.2l0.2-0.1l0.1-0.2h0.1l0.1,0.1l0.1-0.1
	L33.7,55l0.3-0.1H34l0.1-0.3l0.1-0.1l0.1,0.1l-0.1,0.1l0.1,0.1h0.1l0.1-0.2l0.1,0.1l0.1-0.1l0-0.2H35l-0.1,0.3H35l0.2-0.1l-0.1-0.1
	l0.1-0.1l0.1,0.2v0.1l0.2,0.1l-0.1-0.2l0.2-0.2h0.2l0.1-0.1l-0.1-0.1l0.1-0.1v-0.3l0.1-0.1v-0.1l-0.1-0.1l0.1-0.1v-0.3l0.1,0.1
	l0.2-0.1v-0.1h0.1l0.1-0.1V53L36.4,53v-0.1h0.1l0.1-0.2l0.4-0.3h0.2l0.1-0.2l0.1-0.1l-0.1-0.1L37.2,52v-0.2l0.1-0.1l0.1,0.1h0.1
	l0.1-0.1l-0.2-0.1l0.1-0.3l-0.1-0.2l0.1-0.4l0.1-0.1v-0.1h-0.4l-0.3-0.2h-0.2l-0.1-0.2l-0.2-0.1v-0.3l-0.1-0.1l-0.1,0.1h-0.2
	l-0.1-0.1h-0.1l-0.2-0.3l-0.3-0.2l-0.3-0.2L35,48.7l-0.3-0.4l-0.2-0.3V48l0.1-0.1l-0.4-0.1L34,47.4h-0.6v-0.2v-0.3l0.1-0.1v-0.3
	l0.1-0.3v-0.2l-0.1-0.2l0.1-0.2l0.1-0.1v-0.2l-0.1-0.1v-0.1l0.3-0.3v-0.1l-0.1-0.2v-0.3l0.1-0.1v-0.2l0.1-0.1v-0.5l0.2-0.2l0.3-0.1
	h0.4l0.1,0.1H35l0.2-0.2l0.1-0.2v-0.1l-0.1-0.2l0.3,0.1l0.3-0.5h0.3l0.1,0.1l0.1-0.1h0.1l0.1,0.1l0.2,0.1l0.2,0.2v0.3h0.1l0.3-0.2
	h0.3l0.4,0.1l0.2,0.2l0.2,0.1l0.3,0.1l0.3-0.2h0.2l0.1,0.1h0.1v-0.2l0.2-0.3h0.1l0.3,0.3l0.1,0.4l0.1,0.1l0.1,0.2l-0.1,0.1l0.4,0.3
	v0.1V44v0.2l0.1,0.1v0.1l-0.1,0.1l-0.1,0.4v0.4h-0.2v0.1l0.1,0.1v0.2h0.1l0.3,0.1l0.1,0.1l0.2,0.2v0.4h-0.1L41,46.8l-0.2,0.1
	l0.1,0.1h0.2l0.2,0.1l0.2-0.1l0.2,0.2l0.3-0.2H42l0.2-0.2l0.1-0.2l0.1-0.2h0.4v-0.1L43,46v-0.1l0.4-0.5l0.2-0.1l0.1-0.1l-0.2-0.1
	l0.1-0.2l0.3-0.1l0.1-0.3l0.1,0.1v0.1l0.4,0.2L44.4,45h-0.1l0.1,0.2h0.2l0.1,0.1l0.1-0.1l0.4,0.4l0.1,0.4l0.2,0.1l-0.1,0.1v0.1
	l0.2,0.2v0.2l-0.1,0.1l0.1,0.1l-0.1,0.3l0.2,0.1l-0.1,0.2l0.1,0.1v0.2l0.1,0.1l0.2,0.4l0.1,0.1l-0.1,0.1L46,48.9L45.8,49h-0.1
	l-0.1,0.2h-0.1l-0.1,0.3l-0.2,0.1h-0.2l-0.1,0.3h-0.1v0.2l-0.3,0.1l-0.2,0.3l-0.2,0.2V51L43.7,51l-0.2,0.5l-0.1,0.2H43l-0.3,0.2
	l-0.3,0.4l-0.1,0.1v0.1l-0.2,0.1h-0.2l-0.2,0.2V53h-0.1v0.1l0.2,0.1h-0.1v0.4L41.5,53.6z" style="fill: rgb(210, 210, 230);"></path>
	<path name="Popayan" data-id="381" id="path3503" class="cls-1" d="M61.6,42.7L61.6,42.7L61.6,42.7l0.1-0.1l0.1-0.1l-0.1-0.1v-0.1l0.2-0.1v-0.1h0.1l0.2-0.3l0.2-0.1
	l-0.1-0.1v-0.1h0.3l0.1-0.1v-0.1l0.3-0.3v-0.2l0.1-0.1V40l0.2-0.2l-0.1-0.1h0.1v-0.2L63,39.2v-0.4l-0.3-0.2v-0.2h0.1l0.1,0.1h0.4
	l0.3,0.2l0.1-0.1l0.1,0.1H64h0.1l0.3,0.2h0.2l0.3-0.4h0.2v0.1l0.1,0.1l0.1-0.1h0.2h0.1v0.1l0.2-0.1l0.2-0.1v-0.1h0.1l0.1,0.2
	l0.2,0.1h0.1l0.3-0.3h0.4l0.1-0.2l0.4-0.1L68,38h-0.3L67.4,38L67,37.7v-0.2l-0.3-0.3h-0.1l-0.1-0.1V37l-0.3-0.2h-0.5l-0.2-0.1
	l-0.1-0.1h-0.3v-0.1H65l-0.1,0.2h-0.1v-0.1h-0.1v-0.2v-0.1l-0.2-0.1l-0.1-0.1h-0.1l-0.2-0.2v-0.1l-0.3-0.3v-0.2l-0.1-0.1h-0.3
	L63.1,35l-0.2-0.1l-0.1-0.1L62,34.5l-0.4-0.3h-0.2l-0.1-0.1V34l-0.1-0.1l0.1-0.1l-0.1-0.1l-0.4-0.1l-0.2-0.2l0,0h-0.1h-0.2l-0.1-0.1
	v-0.1H60V33l-0.2-0.1V33l-0.1-0.1h-0.3v-0.1l-0.1,0.1l-0.2-0.1h-0.4L58.6,33l-0.1-0.1L58.3,33l-0.1-0.2h-0.2l-0.1-0.1l0.1-0.1h-0.2
	l-0.1-0.2h-0.1v0.2l-0.2,0.2l-0.1-0.1h-0.2l-0.1-0.2l-0.4-0.1l-0.2-0.2h-0.4v0.1h-0.2l-0.2,0.2h-0.2v-0.1L55,32.6l0.1,0.1l-0.1,0.1
	h-0.2l-0.1,0.1l-0.2-0.3l-0.1,0.1l-0.1-0.1h-0.5l-0.2-0.1l-0.2,0.2h-0.3v-0.1h-0.2l-0.1-0.1l0.1-0.1l-0.3-0.2l-0.1-0.1L52.4,32h-0.1
	v0.1h-0.2v0.1l-0.3,0.1l-0.1-0.1l-0.1-0.2l-0.1,0.2h-0.2l0.2,0.2v0.1l-0.3,0.1V33l-0.1,0.1v0.2l0.2,0.2l0.2,0.6l0.3,0.3l0.3,0.5
	l0.2,0.1l0.3,0.3l0.1,0.2h0.2l0.2,0.2v0.1l0.1,0.2l0.2-0.1l0.3,0.1l0.1,0.3h0l0.1-0.1h0.1l0.1,0.2l0.4,0.5l0.4,0.1l0.2,0.4l0.2,0.2
	l0.2-0.1l0.6,0.3l0.1-0.1l0.5,0.1l0.2,0.3h0.3l0.1,0.1h0.1l0.2,0.1l-0.1,0.2l0.1,0.1v0.1h0.4l0.1,0.1h0.1l0.1,0.1h0.1v0.1h0.1
	l0.1-0.2h0.1l0.1,0.1l0.2,0.1l0.1-0.1h0.1l0.1,0.1l0.3,0.3l0.2,0.1L60,39h0.1l0.2,0.2l0.4,1.3l0.1,0.3l0.3,0.5l0.2,0.4l0.1,0.1
	l0.1,0.2l-0.3,0.3v0.2l0.2,0.2L61.6,42.7L61.6,42.7z" style="fill: rgb(210, 210, 230);"></path>
	<path name="Totoró" data-id="419" id="path3519" class="cls-1" d="M68,37.9l0.3,0.2l0.3,0.3l0.4,0.1l0.1,0.2l0.2,0.3h0.1l0.1-0.2h0.4l0.2,0.1l0.1,0.3l0.3,0.2h0.4
	L70.8,39l-0.1-0.3v-0.6l0.2-0.2l-0.1-0.2l0.1-0.1l0.4,0.2l0.3-0.2v-0.1h-0.1V37l-0.1-0.1l0.1-0.1l0.6-0.2l0.3-0.2l1.1-0.1l0.1-0.1
	l0.3-0.1H74l0.1-0.1h0.2l0.2-0.1v-0.2h0.1l0.1,0.2l0.3-0.1l0.1-0.3l0.2-0.2l0.2-0.1v-0.2l-0.1-0.1l0.1-0.2l0.1-0.1v-0.1l-0.1-0.1
	v-0.1l0.3-0.1l0.1-0.2l0.2-0.1v-0.3h-0.2l-0.1-0.1l0.2-0.1v-0.1l-0.2-0.2L75.5,33h-0.2L75,32.8l-0.1-0.3l-0.2,0.1v0.1L74.3,33h-0.3
	L74,33.1h-0.3l-0.2-0.2v-0.3L73,32.3l-0.7,0.2l-0.1,0.3l0.1,0.1L72.2,33l-0.3,0.4l-0.3,0.1l-0.1,0.4l-0.3,0.1h-0.6l-0.3-0.4
	l-0.2-0.1l-0.2,0.1h-0.1l-0.1-0.3l-0.3-0.2v0.1h-0.6l-0.6,0.3h-0.3l-0.1,0.1l-0.4-0.1l-0.1-0.1V33L67,32.9l-0.5-0.1L66,32.5
	l-0.1-0.3l-0.2-0.1v-0.3h-0.1v-0.1h0.1v-0.1l-0.1-0.1l-0.1-0.3l0.1-0.1v-0.1L65.4,31h-0.2L65,30.9l-0.2-0.2h-0.4l-0.2-0.1h-0.4
	l-0.1,0.2l-0.1-0.1h-0.2l-0.1-0.1h-0.1v0.2l-0.2,0.2l-0.2-0.2h-0.1l-0.1,0.1v0.1l0.1,0.1l0.1,0.3h0.1l0.3,0.4L63,31.7h-0.3l-0.1,0.1
	l-0.4-0.3l-0.3-0.1l-0.2-0.2l-0.1,0.1v0.1l-0.3,0.2l-0.1,0.1v0.1h-0.1L61,31.6l-0.3,0.1v0.1v0.2l-0.3,0.3l0.1,0.1l-0.3,0.2H60
	l-0.1-0.1h-0.2h-0.2v-0.1h-0.2l-0.1,0.1h-0.1v0.1h0.3l0.1,0.1v-0.1l0.2,0.1V33h0.2v0.1l0.1,0.1h0.2h0.1l0,0l0.2,0.2l0.4,0.1l0.1,0.1
	l-0.1,0.1l0.1,0.1v0.1l0.1,0.1h0.2l0.4,0.3l0.8,0.2l0.1,0.1l0.2,0.1l0.2,0.2h0.3l0.1,0.1v0.2l0.3,0.3v0.1l0.2,0.2H64l0.1,0.1
	l0.2,0.1v0.1v0.2h0.1v0.1h0.4l0.1-0.2h0.1v0.1h0.3l0.1,0.1l0.2,0.1h0.5l0.3,0.2v0.1l0.1,0.1h0.1l0.3,0.3v0.2l0.4,0.3l0.3,0.1
	L68,37.9z" style="fill: rgb(210, 210, 230);"></path>
	<path name="El Tambo" data-id="391" id="path3531-2" class="cls-1" d="M51.7,42.8l0.2-0.3v-0.3l0.3-0.1l0.1-0.1l-0.6-0.2H51l-0.6-0.4L50,40.8l-0.6-0.1l-0.2-0.1
	l0.1-0.1L49,40.3l-0.4-0.1v-0.1l0.2-0.1v-0.2l0.2-0.1v-0.1l0.2-0.1l0.2,0.1h0.3l0.2,0.2H50l0.1-0.1l0.3-0.1l0.2-0.2h0.2l0.1,0.1
	L51,40l0.2-0.2l0.3-0.1l0.1,0.1l0.2,0.1l0.1,0.1l0.1-0.1l0.1-0.2h0.1v0.1l0.2,0.1l0.3-0.2v-0.1h0.2l0.2,0.1v0.2h0.2l0.2,0.2h0.2
	l0.2-0.1l0.1,0.1v-0.4H54l0.1-0.1v-0.1l-0.1-0.1l0.2-0.1l0.1-0.6l0.2-0.1v-0.1v-0.2l0.2-0.1v-0.2h0.2l0.1-0.3l0.2-0.3l-0.2-0.4
	l-0.4-0.1l-0.4-0.5l-0.1-0.2H54l-0.1,0.1h-0.1l-0.1-0.3l-0.3-0.1l-0.2,0.1L53,35.7v-0.1l-0.2-0.2h-0.2l-0.1-0.2l-0.3-0.3l-0.2-0.1
	l-0.3-0.5l-0.3-0.3l-0.2-0.6l-0.2-0.2v-0.2l0.1-0.1v-0.3l0.3-0.1v-0.4L51.3,32l-0.2-0.3v-0.5H51L51,31.1l0.3-0.3v-0.2h-0.1l-0.1,0.1
	v0.1l-0.2,0.1h-0.2L50.7,31l-0.2-0.1h-0.4l-0.2-0.1l-0.1-0.3h-0.3l-0.1-0.1l-0.1-0.2L49,29.9h-0.4l-0.2-0.3l0.2-0.1v-0.2L48.3,29
	l-0.2-0.1L48,28.6l-0.2-0.1l-0.3-0.3l-0.2-0.5l-0.4-0.3l-0.2-0.5l0.2-0.1v-0.3h0.1l0.1-0.5l-0.2-0.2v-0.2l0.2-0.2l0.3-0.2l0.2-0.4
	v-0.3l0.2-0.2v-0.3l-0.1-0.4l-0.2-0.2v-0.2l-0.1-0.2L47,23l-0.1-0.4l0.1-0.1v-0.1l-0.1-0.1v-0.2L46.7,22h-0.2v-0.1l0.1-0.1v-0.1
	l-0.3-0.1h-0.2l-0.1,0.1l-0.2,0.1l-0.1-0.1h-0.4l-0.1-0.1v-0.1L45,21.6l-0.1,0.3L44.8,22l0.1,0.2v0.2h-0.1l-0.1,0.2h-0.4l-0.2,0.2
	l0.1,0.1v0.1l-0.5,0.5h-0.3l-0.1-0.1h-0.3l-0.8-0.3l-0.2-0.2l-0.3-0.2l-0.5-0.1l-0.2-0.1l-0.3-0.1l-0.4-0.2h-0.2l-0.4-0.4l-0.5-0.2
	h-0.3L39,21.4h-0.1l-0.1,0.1l-0.2,0.2V22l-0.1,0.2v0.2l-0.1,0.2h-0.2L38,22.5l-0.5-0.1l-0.4,0.3h-0.4l-0.3-0.1H36l-0.6,0.2l-0.2,0.3
	l-0.3,0.3l-0.2,0.1v0.1l-0.2,0.1l-0.4,0.1h-0.3h-0.2l-0.3,0.2l-0.2,0.3L33,24.5h-0.5h-0.1l-0.2,0.3L32,25l-0.2,0.4l-0.2,0.3v0.6
	l0.1,0.3l0.6,0.6h-0.1l-0.1-0.1h-0.2h-0.2l-0.4-0.4l-0.4-0.2h-0.2l-0.3,0.7l0.3,0.5l0.4,0.1l0.7,0.1l0.3,0.2l-0.2,0.1v0.3l0.2,0.4
	v0.4l-0.6,0.4l-0.5,0.5l-1.1,0.2l-0.4,0.3v0.3l0.1,0.1L29.3,31l0.1,0.2l0.3,0.3l-0.2,0.1h-0.3l-0.6,0.5l-0.1,0.1v0.4l0.1,0.4
	l-0.1,0.5l0.1,0.3l0.1,0.1l0.1,0.2l0.2,0.1h0.2l0.5,0.3l0.1,0.1l0.3,0.2h0.1l0.6,0.6v0.1l0.1,0.2H31l0.1,0.1v0.1l0.3,0.3v0.1
	l0.2,0.2l0.2,0.4v0.2l0.2,0.2v0.3l0.1,0.1v0.2l0.3,0.4l0.1,0.2v0.2l0.1,0.1l0.1-0.1l0.2-0.1l0.4-0.1l0.4-0.1l0.2-0.2h0.4l0.1,0.1
	v0.1h0.3l0.1,0.2H35l0.2,0.2V39l0.1,0.1l0.1,0.5l-0.2,0.1v0.3l-0.2,0.1v0.4l0.1,0.3l0.1,0.1v0.1l-0.2,0.2v0.1l-0.1,0.1v0.2l0.3,0.2
	V42h0.1l0.1,0.1v0.1l0.3,0.1l0.3-0.5h0.3l0.1,0.1l0.1-0.1h0.1l0.1,0.1l0.2,0.1l0.2,0.2v0.3H37l0.3-0.2h0.3l0.4,0.1l0.2,0.2l0.2,0.1
	l0.3,0.1l0.3-0.2h0.2l0.1,0.1h0.1v-0.2l0.2-0.3h0.1l0.3,0.3l0.1,0.4l0.1,0.1l0.1,0.2l-0.1,0.1l0.4,0.3v0.1v0.1v0.2l0.1,0.1v0.1
	l-0.1,0.1l-0.1,0.4v0.4h-0.2v0.1l0.1,0.1v0.2h0.1l0.3,0.1l0.1,0.1l0.2,0.2v0.4H41L41,46.7l-0.2,0.1l0.1,0.1h0.2l0.2,0.1l0.2-0.1
	l0.2,0.2l0.3-0.2H42l0.2-0.2l0.1-0.2l0.1-0.2h0.4v-0.1L43,46v-0.1l0.4-0.5l0.2-0.1l0.1-0.1l-0.2-0.1l0.1-0.2l0.3-0.1l0.1-0.3
	l0.1,0.1v0.1l0.4,0.2l0.3,0.2l0.1-0.5h0.1l0.1,0.1l0.3-0.2l0.6,0.4V45h-0.1v0.2h0.1l0.1,0.1l-0.1,0.1l0.3,0.2v0.3l0.4,0.1l0.2-0.1
	V46l0.3,0.1l0.3-0.2h0.2l0.1,0.1l0.2-0.1l0.1,0.2H48l0.2-0.1h0.2l0.1-0.2h0.2l0.1-0.1l-0.2-0.2v-0.3l-0.1-0.2v-0.2l0.4-0.1l0.2-0.1
	h0.3l0.3,0.1l0.1-0.1h0.1l0.3,0.1h0.2l0.1-0.2h0.1v-0.4l-0.3-0.2L50,43.9l-0.2-0.1v-0.1l0.1-0.1l0.1,0.1l0.5,0.1l0.6,0.2v-0.2
	l-0.5-0.3v-0.7l-0.2-0.1v-0.3h0.1l0.3,0.3l0.1-0.1H51l0.1,0.1h0.2l0.1,0.1l0.1-0.2l0.1,0.2L51.7,42.8L51.7,42.8z" style="fill: rgb(210, 210, 230);"></path>
	<path name="Cajibio" data-id="387" id="path3553-3" class="cls-1" d="M63,30.4l-0.1-0.1v-0.1l-0.3-0.2L62.6,30h-0.3l-0.2-0.1l0.1-0.1l-0.1-0.1h-0.2l-0.1-0.2
	l-0.2-0.1v-0.1l-0.2-0.1L61.3,29l-0.4-0.1L60.8,29l-0.2-0.3h-0.1v0.1L60.5,29h-0.1v-0.1l-0.2-0.1l-0.1,0.1l-0.4-0.2v-0.3l-0.2-0.1
	l-0.1,0.2l-0.1-0.1h-0.2v-0.1h-0.2l-0.2,0.1l-0.1-0.1l-0.1,0.1h-0.1l-0.2-0.1h-0.2v-0.3l-0.1-0.1l0.1-0.1l-0.1-0.2l-0.1-0.3
	l-0.2-0.1h-0.1v-0.3l-0.2-0.1H57v-0.3l-0.4-0.2L56.6,26h-0.2l-0.3-0.2h-0.2v0.1h-0.2v-0.1L55,25.4h-0.3L54.4,25l-0.2,0.1L53.9,25
	l-0.2,0.2v0.2l-0.4,0.2l-0.2-0.1h-0.2l-0.3-0.2l-0.1,0.1L52.2,25h-0.3l-0.3-0.1l-0.5,0.2v0.1l-0.2,0.4l-0.1-0.1l-0.2,0.1l-0.1,0.1
	h-0.1l-0.1,0.1l-0.3-0.3h-0.2l-0.4-0.4l-0.3-0.1h-0.1l-0.3-0.2L48.4,25h-0.3l-0.1,0.2l-0.2,0.3l-0.4,0.1l-0.1-0.3l-0.2,0.2l-0.2,0.2
	v0.2l0.2,0.2l-0.2,0.4h-0.1v0.1l-0.2,0.1l0.2,0.5l0.4,0.3l0.2,0.5l0.3,0.3l0.2,0.1l0.2,0.3l0.2,0.1l0.3,0.4v0.2l-0.2,0.1l0.2,0.3H49
	l0.4,0.3l0.1,0.2l0.1,0.1h0.3l0.1,0.3l0.2,0.1h0.4l0.2,0.1l0.1-0.1h0.1l0.2-0.1v0l0.1-0.1h0.1v0.2L50.9,31l0.1,0.2h0.1v0.5l0.2,0.3
	h0.2l0.1-0.2l0.1,0.2l0.1,0.1l0.3-0.1v-0.1h0.2v-0.1h0.1l0.1,0.1l0.1,0.1l0.3,0.2l-0.1,0.1l0.1,0.1H53v0.1h0.3l0.2-0.2l0.2,0.1h0.1
	l0.1,0.1l0.1-0.1l0.2,0.3l0.1-0.1h0.2l0.1-0.1l-0.1-0.1l0.4-0.1v0.1h0.2l0.2-0.2h0.2V32h0.4l0.2,0.2l0.4,0.1l0.1,0.2h0.3l0.1,0.1
	l0.2-0.3v-0.2h0.1l0.1,0.2h0.2l-0.1,0.1l0.1,0.1h0.2l0.1,0.2l0.2-0.1l0.1,0.1l0.2-0.2h0.4l0.2,0.1l0.1-0.1h0.1l0.1-0.1h0.2v0.1h0.2
	h0.2l0.1,0.1h0.3l0.3-0.2l-0.1-0.1l0.3-0.3v-0.2v-0.1l0.3-0.1l0.1,0.1h0.1v-0.1l0.1-0.1l0.3-0.2v-0.1l0.1-0.1l0.2,0.2l0.3,0.1
	l0.4,0.3l0.1-0.1h0.3l0.1-0.2l-0.3-0.4h-0.2l-0.1-0.3l-0.1-0.1v-0.1l0.1-0.1h0.1l0.2,0.2l0.2-0.2L63,30.4L63,30.4z" style="fill: rgb(210, 210, 230);"></path>
	<path name="Piendamó" data-id="406" id="path3567" class="cls-1" d="M58,20v0.2l0.2,0.2v0.1h0.2l0.1,0.1l0.1,0.3l0.1,0.1l0.1,0.4l-0.1,0.4l-0.1,0.1l-0.1,0.3l0.1,0.2
	l0.2,0.1l0.1,0.2l-0.1,0.1v0.1l0.1,0.1l0.1,0.4l-0.1,0.1l0.1,0.2h0.1l0.1,0.2V24V24v0.2l0.1,0.1v0.1h-0.1v0.1l0.1,0.2v0.2l0.1,0.1
	l-0.1,0.1l-0.1,0.1h-0.1l-0.1-0.1l-0.1-0.1V25h-0.1V25h-0.1l-0.3,0.3v0.3l-0.2,0.2l-0.1-0.1h-0.1l-0.2-0.1h-0.1l-0.2-0.2L57,25.3
	h-0.2l-0.1-0.1l-0.1,0.2h-0.3l-0.5,0.1l-0.1,0.2v0.2h0.2v-0.1H56l0.3,0.2h0.2l0.1,0.2l0.4,0.2v0.3h0.2l0.2,0.1V27h0.1l0.2,0.1
	l0.1,0.3l0.1,0.1l-0.1,0.1l0.1,0.1V28h0.2l0.2,0.1h0.1l0.1-0.1l0.1,0.1l0.2-0.1h0.1v0.1h0.2l0.1,0.1l0.1-0.2l0.2,0.1v0.3l0.4,0.2
	l0.1-0.1l0.2,0.1v0.1h0.1l0.1-0.1v-0.1h0.1l0.2,0.3l0.1-0.1l0.4,0.1l0.1,0.1l0.2,0.1v0.1l0.2,0.1l0.1,0.2H62l0.1,0.1L62,29.6
	l0.2,0.1h0.3l0.1-0.1l0.3,0.3v-0.3l0.1-0.4l-0.3-0.4l-0.1-0.1l-0.3-0.1v-0.1l0.2-0.1v-0.1l0.4-0.1H63l-0.2-0.5h-0.2l-0.2-0.5v-0.4
	l-0.2-0.3L62,26.5l0.1-0.2l0.2-0.1l0.3,0.3l0.2-0.1l-0.1-0.1V26h-0.1l-0.3-0.3l-0.4-0.1v-0.2L61.4,25l-0.1-0.5l-0.1-0.1l-0.1-0.5
	l0.1-0.1l-0.3-0.5l-0.2-0.1l-0.2-0.3l0.1-0.1l-0.1-0.1v0l-0.3-0.2L60.1,22l-0.3-0.4l-0.3-0.5l-0.2-0.1l-0.1-0.3l-0.3-0.3h-0.2
	l-0.1-0.2l-0.2-0.1l-0.4-0.1L57.9,20h-0.1L58,20z" style="fill: rgb(210, 210, 230);"></path>
	<path name="Silvia" data-id="413" id="path3577" class="cls-1" d="M74.9,32.4l-0.1,0.1v0.1l-0.4,0.3h-0.3L74,33h-0.3l-0.2-0.2v-0.3L73,32.2l-0.7,0.2l-0.1,0.3
	l0.1,0.1l-0.1,0.2l-0.3,0.4l-0.3,0.1l-0.1,0.4l-0.3,0.1h-0.6l-0.3-0.4l-0.2-0.1l-0.2,0.1h-0.1l-0.1-0.3l-0.3-0.2V33h-0.6l-0.6,0.3
	h-0.3l-0.1,0.1l-0.4-0.1l-0.1-0.1v-0.4L67,32.7l-0.5-0.1L66,32.3l-0.1-0.3L65.7,32v-0.3h-0.1v-0.1h0.1v-0.1l-0.1-0.1l-0.1-0.3
	l0.1-0.1v-0.1l-0.1-0.1h-0.2L65,30.8l-0.2-0.2h-0.4l-0.2-0.1h-0.4l-0.1,0.2l-0.1-0.1h-0.2l-0.1-0.1h-0.1L63,30.3v-0.4l0.1-0.4
	l-0.3-0.4L62.7,29l-0.3-0.1v-0.1h0.2v-0.1l0.4-0.1h0.2L63,28h-0.2l-0.2-0.5v-0.4l-0.2-0.3l-0.2-0.2l0.1-0.2l0.2-0.1l0.3,0.3l0.2-0.1
	L63,26.6v-0.2l0.2-0.2h0.1l0.1-0.1h-0.1l-0.1-0.2l0.2-0.3l0.1-0.2h0.1l0.1-0.1l-0.1-0.1v-0.4l-0.1-0.1l0.1-0.2l0.1,0.1l0.2,0.2h0.2
	v-0.1h0.1v0.1h0.3l0.1,0.1h0.3l0.2-0.1h0.2l0.1-0.1h0.1l0.1,0.1h0.4l0.9,0.3l0.3-0.1l0.4-0.1l0.5-0.4l0.1-0.3l0.4-0.5h0.2l0.1-0.2
	l0.3,0.2V24l0.1,0.1l0.2,0.4h0.5h0.1l0.2,0.1h0.2v-0.2h-0.1v-0.1l0.1-0.2V24l0.1-0.3l-0.1-0.1v-0.2l0.1-0.1l0.2,0.3l0.2,0.1l0.5,0.4
	l0.8-0.1v-0.1l0.2-0.3l-0.1-0.2l0.1-0.3h0.1l0.2,0.2v0.2h0.2v0.4l0.1-0.1h0.2l0.1-0.1v-0.2h0.1l0.1,0.1l0.2-0.1l0.1-0.2v-0.2h0.2
	l0.2-0.1l0.2-0.2l0.1,0.1l0.2-0.1h0.4l0.2,0.2h0.3l0.1-0.1l0.3,0.1l0.2,0.2h0.3l0.3,0.2l-0.4,0.2h-0.5l-0.3-0.1l-0.3,0.1l-0.1-0.1
	l-0.3,0.1l-0.1,0.6L75,24.2l-0.1,0.5l-0.2,0.5l0.1,0.2l-0.2,0.9l-0.1,0.3l-0.2,0.4l-0.4,0.3v0.3l0.1,0.2l-0.1,0.2h-0.1v0.2l0.1,0.4
	l0.4,0.1l0.5,0.3l0.1,0.2l0.2,0.1l0.4,0.3h-0.1h-0.2L74.9,30L74.8,31h-0.1v0.1l0.2,0.2l0.1,0.8l0.1,0.1v0.1L75,32.4L74.9,32.4
	L74.9,32.4z" style="fill: rgb(210, 210, 230);"></path>
	<path name="Jambaló" data-id="395" id="path3622" class="cls-1" d="M75.1,20.1v-0.3L75,19.7v-0.1h-0.1l-0.1,0.1h-0.1v-0.1h-0.1l-0.1,0.2h-0.2L74.3,20l-0.1,0.4
	L74,20.4l-0.2-0.2h-0.2l-0.1,0.1h-0.3l-0.3-0.1L72.8,20h-0.2l-0.3-0.2v-0.2l-0.2-0.1H72v-0.1l-0.2-0.2h-0.2V19l0.2-0.2v-0.6
	l-0.1-0.1v-0.6v-0.4l-0.4-0.2l-0.2-0.1v-0.1l0.1-0.1l0.2-0.4v-0.3l0.1-0.1v-0.3l0.1-0.2v-0.4l-0.3-0.4v-0.2h-0.5l-0.5,0.4l-0.2,0.4
	L70,15.4l0.1,0.1l-0.2,0.1l-0.2,0.1v0.1l-0.4,0.4h-0.2l-0.2,0.3l-0.1,0.2l-0.2-0.1h-0.2l-0.2,0.2l0.2,0.1l0.2,0.2l0.2,0.2l0.4,0.1
	L69,17.5l-0.1,0.9l-0.1,0.4V19l0.2,0.2l0.1,0.2l-0.2,0.7l-0.1,0.4l-0.1,0.3l0.2,0.4l0.2,0.7v0.6L69,22.6l-0.2,0.8l0.3,0.2v0.2
	l0.1,0.1l0.2,0.4h0.4h0.1l0.2,0.1h0.2v-0.2h-0.1v-0.1l0.1-0.2v-0.1l0.1-0.3l-0.1-0.1v-0.2l0.1-0.1l0.2,0.3l0.2,0.1l0.5,0.4l0.8-0.1
	v-0.1l0.2-0.3l-0.1-0.2l0.1-0.3h0.1l0.2,0.2v0.2h0.2v0.4l0.1-0.1h0.2l0.1-0.1v-0.2h0.1l0.1,0.1l0.2-0.1l0.1-0.2v-0.2l0.3-0.3
	l0.1-0.4l0.3-0.5l0.5-0.1l0.1-0.2l-0.1-0.2l0.1-0.5L75,20.8l0.1-0.2v-0.2L75,20.3L75.1,20.1z" style="fill: rgb(210, 210, 230);"></path>
	<path name="Caldono" data-id="388" id="path3636" class="cls-1" d="M68.5,17.1l0.2,0.1l0.4,0.1L69,17.6l-0.1,0.9l-0.1,0.4v0.2l0.2,0.2l0.1,0.2l-0.2,0.7l-0.1,0.4
	l-0.1,0.3l0.2,0.4l0.2,0.7v0.6L69,22.6l-0.2,0.8l-0.1,0.2h-0.2l-0.4,0.5L68,24.4l-0.5,0.4l-0.4,0.1L66.9,25L66,24.7h-0.4l-0.1-0.1
	h-0.1l-0.1,0.1h-0.2l-0.2,0.1h-0.3l-0.1-0.1h-0.3v-0.1h-0.1v0.1h-0.3l-0.2-0.2l-0.1-0.1l-0.1,0.2l0.1,0.1v0.4l0.1,0.1l-0.1,0.1h-0.1
	l-0.1,0.2l-0.2,0.3l0.1,0.2h0.1l-0.1,0.1h-0.1L63,26.3l-0.2-0.1l-0.3-0.3l-0.4-0.1v-0.2l-0.6-0.4l-0.1-0.5l-0.1-0.1L61.3,24l0.1-0.1
	l-0.3-0.5l-0.2-0.1L60.7,23l0.1-0.1l-0.1-0.1v-0.2l-0.3-0.2L60.3,22L60,21.6l-0.3-0.5l-0.2-0.1l-0.1-0.3l-0.3-0.3h-0.2l-0.1-0.2
	l-0.2-0.1l-0.4-0.1L58.2,20H58l-0.3-0.3h-0.3v-0.2l-0.2-0.1l0.2-0.2l0.3-0.1l0.1,0.1h0.3l0.1,0.1l0.3,0.2l0.1,0.1H59l0.2,0.2h0.2
	v-0.1l0.3-0.2l0.1-0.3L60,19v-0.1h0.1l0.1,0.1h0.2l0.2-0.1l0.1,0.1H61l0.1,0.1h0.2V19h0.2l-0.1,0.2h0.1l0.1,0.3h0.2l0.2,0.2l0.1,0.2
	l0.4,0.2h0.6l0.1,0.2l0.1-0.1l0.1,0.1l0.2,0.2v0.1h0.1l0.1-0.1h0.2l0.2-0.2l0.1-0.2l0.1-0.3l0.1-0.1l0.1-0.3h0.1l0.1-0.1l0.1-0.2
	l0.1-0.1h0.2L66,19h0.2l0.2-0.1l0.1-0.3h0.2l0.2,0.1h0.3l0.2-0.2l0.3-0.2l0.2-0.2l0.1-0.3l0.4-0.3v-0.2l0.1-0.1L68.5,17.1z" style="fill: rgb(210, 210, 230);"></path>
	<path name="XXXX" data-id="" id="path3648" class="cls-1" d="M70.5,8.5h-0.6l-0.1,0.1l-0.3-0.2l-0.1-0.5l-0.1-0.1l-0.1-0.1V7.2V7.1V6.9h0.1l0,0l-0.2-0.1
	L69,6.6V6.4l-0.3-0.1l-0.1,0.1h-0.1l-0.1-0.2l-0.1-0.2V5.8l-0.2-0.3l0.3-0.3l0.1-0.4l-0.2-0.2V4.2h0.3L68.8,4h0.1l0.2,0.2l0.4-0.1
	h0.3l0.1,0.2h0.3l0.1-0.1l0.2,0.1l0.1,0.3l0.1,0.1l0.1-0.1l0.3,0.3h0.2l0.1-0.1l0.3-0.1h0.4L70.5,8.5z" disabled="disabled" style="pointer-events: none;"></path>
	<path name="Morales" data-id="401" id="path3674-2" class="cls-1" d="M58,20v0.2l0.2,0.2v0.1h0.2l0.1,0.1l0.1,0.3l0.1,0.1l0.1,0.4l-0.1,0.4l-0.1,0.1l-0.1,0.3
	l0.1,0.2l0.2,0.1l0.1,0.2l-0.1,0.1v0.1l0.1,0.1l0.1,0.4l-0.1,0.1l0.1,0.2h0.1l0.1,0.2V24V24v0.2l0.1,0.1v0.1h-0.1v0.1l0.1,0.2v0.2
	l0.1,0.1l-0.1,0.1l-0.1,0.1h-0.1l-0.1-0.1l-0.1-0.1V25h-0.1V25h-0.1l-0.3,0.3v0.3l-0.2,0.2l-0.1-0.1h-0.1l-0.2-0.1h-0.1l-0.2-0.2
	L57,25.3h-0.2l-0.1-0.1l-0.1,0.2h-0.3l-0.5,0.1l-0.2,0.2L55,25.3h-0.3l-0.4-0.4l-0.2,0.1l-0.3-0.1L53.5,25v0.2l-0.4,0.2L53,25.3
	l-0.2,0.1l-0.3-0.2l-0.1,0.1l-0.3-0.3h-0.3l-0.3-0.1l-0.5,0.2v0.1l-0.2,0.4l-0.1-0.1l-0.2,0.1l-0.1,0.1h-0.1l-0.1,0.1l-0.3-0.3h-0.2
	L49.1,25L48.8,25h-0.1l-0.3-0.2l-0.1,0.1h-0.3L48,25.1l-0.2,0.3l-0.4,0.1l-0.1-0.3l0.2-0.4v-0.3l0.2-0.2V24l-0.1-0.4l-0.2-0.2v-0.2
	L47.2,23L46.9,23l-0.1-0.4l0.1-0.1v-0.1l-0.1-0.1v-0.2l-0.2-0.2h-0.2v-0.1l0.1-0.1v-0.1l-0.3-0.1h-0.2l-0.1,0.1l-0.2,0.1l-0.1-0.1
	h-0.4l-0.1-0.1v-0.1l0.1-0.1v-0.3l0.1-0.2l-0.1-0.3l-0.3-0.3v-0.1l0.2-0.1l0.1-0.1l0.1,0.1l0.1-0.2l0.1-0.1l0.2-0.1v-0.3l0.1-0.1
	h0.2l0.3-0.3l0.1-0.2l0.1-0.1l0.1-0.4l-0.1-0.2v-0.5l0.2-0.3v-0.2l0.2-0.1h0.1l0.2-0.1l0.1-0.3l0.1-0.1V16l-0.1-0.1v-0.1l0.1-0.1
	l0.2-0.6l0.2-0.2v-0.3l0.3,0.1l0.1,0.3h0.4l0.2,0.2v0.3h0.1l0.2-0.1l0.2,0.2l0.4,0.1l0.2,0.3l0.1,0.1l-0.1,0.2l-0.2,0.1l0.3,0.1v0.2
	l-0.3,0.1l0.1,0.1V17l0.2,0.1L50,17.2v0.3h-0.2l-0.1,0.3l0.2,0.2l-0.2,0.3h-0.4l-0.1,0.2l-0.5,0.2v0.2l-0.4,0.2l0.2,0.2v0.2l0.1,0.1
	l-0.1,0.1l0.3,0.3l0.6,0.2h0.3l0.1,0.3l0.5,0.4l0.5,0.3l0.1-0.1h0.3v0.3l0.3,0.1l0.1,0.1h0.3l0.1-0.2h0.2l0.4,0.4l0.4,0.1l0.1,0.1
	l0.2-0.2l0.1-0.2l0.2,0.1h0.2v-0.1l0.1,0.1l0.2-0.2h0.1l0.1-0.2L54.3,21v-0.1h0.2l0.1-0.1v-0.3l0.2-0.1l-0.2-0.1l0.2-0.1v-0.4
	l-0.2-0.3h0.3l0.1-0.3l0.2,0.1h0.2v0.2l0.1,0.2l0.3-0.2h0.3l0.1-0.4l0.3-0.3l0.3,0.3h0.1l0.2-0.1l0.1,0.1v0.2h0.3L58,20L58,20z" style="fill: rgb(210, 210, 230);"></path>
	<path name="Suárez" data-id="415" id="path3690" class="cls-1" d="M56.6,19.1l-0.3,0.3l-0.1,0.4h-0.4l-0.3,0.2l-0.1-0.2v-0.2h-0.2L55,19.4l-0.1,0.3h-0.2l0.2,0.3
	v0.4l-0.2,0.1l0.2,0.1l-0.2,0.1v0.3l-0.1,0.1h-0.2V21l0.2,0.2l-0.1,0.2h-0.1l-0.2,0.2l-0.1-0.1v0.2h-0.2l-0.2-0.1l-0.1,0.2l-0.2,0.2
	L53.3,22l-0.4-0.1l-0.4-0.4h-0.2l-0.1,0.2h-0.3l-0.1-0.1l-0.3-0.1v-0.3H51l-0.1,0.1L50.5,21l-0.5-0.4l-0.1-0.3h-0.3l-0.6-0.2
	l-0.3-0.3l0.1-0.1l-0.1-0.1v-0.2l-0.2-0.2l0.4-0.2v-0.2l0.5-0.2l0.1-0.2h0.4l0.2-0.3L49.6,18l0.2-0.4H50v-0.3l0.2-0.1L50,17.1v-0.3
	l-0.1-0.1l0.3-0.1v-0.2l-0.3-0.1l0.2-0.1l0.1-0.2l-0.1-0.1l-0.2-0.3l-0.4-0.1l-0.2-0.2l-0.2,0.1h-0.1v-0.3l-0.2-0.2h-0.4l-0.1-0.3
	L48,14.6l0.1-0.1h0.3l0.2-0.1V14l0.1-0.3h0.1l0.2-0.3v-0.3l-0.1-0.1l0.1-0.2l0.2-0.2h0.1l0.3-0.6l0.2-0.1v-0.2H50l0.2-0.1h0.4
	l0.1,0.2h0.1l0.1-0.1l0.4,0.4v0.2l0.4,0.3h0.1L52,13h0.2l0.1-0.3l0.2-0.1h0.1l0.2-0.1v-0.1l0.2-0.2l0.2-0.3v-0.2l-0.1-0.1l0.3-0.2
	l0.2,0.1l-0.1,0.1v0.3l0.2,0.1l0.2,0.1l0.1-0.1h0.3l0.2-0.1l0.4,0.2l0.2,0.4h0.3l0.1,0.2l-0.1,0.1v0.2l-0.2,0.1v0.2l0.1,0.2
	l-0.3,0.3v0.1h0.1v0.2L55,14l-0.2,0.8L55,15v0.1l-0.1,0.1v0.1H55l0.2,0.2l0.2,0.3l0.1-0.2l0.1,0.1v0.1l-0.1,0.1l0.1,0.1h-0.1
	l-0.1,0.3h-0.1l-0.1,0.2v0.1l0.1,0.1v0.1l0.3,0.3l0.1,0.2h0.1l0.2,0.4L56,18l0.3,0.3l0.3,0.1l0.1,0.2v0.3l-0.1,0.1L56.6,19.1
	L56.6,19.1z" style="fill: rgb(210, 210, 230);"></path>
	<path name="Argelia" data-id="383" id="path6339" class="cls-1" d="M28.2,49.6L28,49.4v-0.5h-0.4l-0.2-0.6v-0.4l0.4-0.2v-0.5l-0.6-0.4l-0.3-0.5L26.6,46l-0.1-0.2
	v-0.1l-0.2-0.5v-0.3l-0.2-0.3L26,43.8l0.1-0.2V43l0.2-0.3v-0.2l-0.2-0.1v-0.9l0.3-0.8l-0.3-0.6v-0.7l0.2-0.5v-0.5l0.5-0.8l0.1-0.6
	l-0.3-0.4l0.2-0.3l0.4,0.1l0.3-0.2l0.1-0.5v-0.4l0.3-0.3l0.3-0.2l0.1-0.7V34l0.2-0.3l0.1,0.1l0.1,0.2l0.2,0.1h0.2l0.5,0.3l0.1,0.1
	l0.3,0.2h0.1l0.6,0.6v0.1l0.1,0.2H31l0.1,0.1v0.1l0.3,0.3v0.1l0.2,0.2l0.2,0.4v0.2l0.2,0.2v0.3l0.1,0.1v0.2l0.3,0.4l0.1,0.2v0.2
	l0.1,0.1l0.1-0.1l0.2-0.1l0.4-0.1l0.4-0.1l0.2-0.2h0.4l0.1,0.1v0.1h0.3l0.1,0.2H35l0.2,0.2V39l0.1,0.1l0.1,0.5l-0.2,0.1v0.3
	l-0.2,0.1v0.4l0.1,0.3l0.1,0.1v0.1l-0.2,0.2v0.1l-0.1,0.1v0.2l0.3,0.2V42h0.1l0.1,0.1v0.2l0,0l0.1,0.1v0.1l-0.1,0.2L35,43h-0.1
	l-0.1-0.1h-0.4L34.2,43L34,43.2v0.5l-0.1,0.1v0.2l-0.1,0.1v0.4l0.1,0.1v0.1l-0.3,0.3v0.1l0.1,0.1v0.2l-0.1,0.1l-0.1,0.2l0.1,0.2v0.2
	l-0.1,0.3v0.3l-0.1,0.1v0.3v0.2l-0.1,0.2V48l-0.3,0.4l-0.3,0.1l-0.2,0.1L32.3,49l-0.2,0.2L32,49.2L31.9,49l-0.3-0.1l-0.4-0.1
	l-0.2-0.3l-0.3-0.1l-0.1-0.2h-0.3l-0.1,0.1l0.1,0.1l-0.1,0.1h-0.1L30,48.9l0.1,0.3l0.2,0.1v0.1l-0.2,0.2h-0.2l-0.1-0.1h-0.2
	l-0.1,0.1h-0.2l-0.1-0.1l-0.2-0.1l-0.4,0.1l-0.3,0.3L28.2,49.6z" style="fill: rgb(210, 210, 230);"></path>
	<path name="Balboa" scale="6" move="10" data-id="384" id="path6601" class="cls-1" d="M32,57.7h0.3l0.1-0.1v-0.5l0.3-0.1l0.1-0.2l-0.1-0.1v-0.3l-0.1-0.1v-0.3h0.1l0.1,0.1h0.2v-0.1
	l-0.2-0.1V56l0.2-0.1l0.1,0.2h0.1l0.1-0.1l-0.2-0.2v-0.2l0.2-0.1l0.1-0.2h0.1l0.1,0.1l0.1-0.1L33.6,55l0.3-0.1H34l0.1-0.3l0.1-0.1
	l0.1,0.1l-0.1,0.1l0.1,0.1h0.1l0.1-0.2l0.1,0.1l0.1-0.1l0-0.2H35l-0.1,0.3H35l0.2-0.1l-0.1-0.1l0.1-0.1l0.1,0.2v0.1l0.2,0.1
	l-0.1-0.2l0.2-0.2h0.2l0.1-0.1l-0.1-0.1l0.1-0.1v-0.3l0.1-0.1v-0.1l-0.1-0.1l0.1-0.1v-0.3l0.1,0.1l0.2-0.1v-0.1h0.1l0.1-0.1V53
	L36.4,53v-0.1h0.1l0.1-0.2l0.4-0.3h0.2l0.1-0.2l0.1-0.1l-0.1-0.1L37.2,52v-0.2l0.1-0.1l0.1,0.1h0.1l0.1-0.1l-0.2-0.1l0.1-0.3
	l-0.1-0.2l0.1-0.4l0.1-0.1v-0.1h-0.4l-0.3-0.2h-0.2l-0.1-0.2l-0.2-0.1v-0.3l-0.1-0.1l-0.1,0.1h-0.2l-0.1-0.1h-0.1l-0.2-0.3l-0.3-0.2
	l-0.3-0.2L35,48.7l-0.3-0.4l-0.2-0.3V48l0.1-0.1l-0.4-0.1L34,47.4h-0.6l-0.1,0.2V48l-0.3,0.4l-0.3,0.1l-0.2,0.1L32.4,49l-0.2,0.2
	l-0.1,0.1L32,49l-0.3-0.1l-0.4-0.1l-0.2-0.3l-0.3-0.1l-0.1-0.2h-0.3l-0.1,0.1l0.1,0.1l-0.1,0.1h-0.1l-0.1,0.3l0.1,0.3l0.2,0.1v0.1
	l-0.2,0.2h-0.2l-0.1-0.1h-0.2l-0.1,0.1h-0.2l-0.1-0.1l-0.2-0.1l-0.4,0.1l-0.3,0.3v0.4l-0.2,0.3l-0.2,0.6l-0.4,0.8l-0.2,0.6L27,53.2
	l-0.1,0.3l0.1,0.3l0.6,0.2l0.4,0.3l0.1,0.3l0.2,0.2h0.6l0.4,0.2l0.2,0.3v0.3l0.4,0.3l0.5,0.5h0.4l0.1-0.1H31l0.3,0.1h0.2l0.3,0.2
	l0.2,0.3l0.1,0.3l0.2,0.3l0.1,0.1L32,57.7L32,57.7z" style="fill: rgb(210, 210, 230);"></path>
	<path name="Mercaderes" scale="5" move="10" data-id="399" id="path5560" class="cls-1" d="M35,69.2l0.3-0.1h0.1l0.1-0.1v-0.4l0.3-0.4l0.4-0.2h0.2v-0.2l0.1-0.2h0.2l0.3,0.1l0.2-0.3v-0.1
	l0.1-0.1h0.1l0.5-0.1l0.2-0.3l0.4-0.1l0.3-0.2l0.3,0h0.4l0.2-0.2l0.3-0.1l0.4-0.4l0.1-0.4l-0.1-0.2l0.2-0.2v-0.5l-0.1-0.1l0.2-0.1
	l-0.2-0.3v-0.3l0.1-0.2l-0.2-0.3L39.9,63l-0.1,0.1h-0.4L39.4,63l-0.1,0.2h-0.3l-0.3-0.1l-0.2,0.1l-0.4-0.1l-0.1,0.2h-0.1l-0.2-0.3
	l0.1-0.1l-0.2-0.4l-0.2-0.1l-0.1-0.1l0.2-0.2h0.2l0.1-0.2l-0.1-0.5L37.6,61v-0.3l0.1-0.2v-0.2l-0.3-0.1v-0.1l0.2-0.1l-0.2-0.2
	l-0.1-0.1l0.2-0.2h-0.2l-0.2-0.2h-0.1l-0.1-0.2L37,59.3l-0.1-0.1v-0.1h-0.2l-0.3-0.3h-0.2l-0.1-0.1L36,58.8h-0.1l-0.2-0.3h-0.1
	l-0.3-0.2l0,0l-0.1,0.1H35l-0.2-0.2h-0.2l-0.1-0.1h-0.1h-0.2L34.1,58L34,58.2l-0.1,0.1l-0.1,0.1l-0.1-0.1h-0.2l-0.3-0.3l-0.2,0.2
	L33,58l-0.1-0.1v-0.2l-0.3-0.1l-0.2,0.1h-0.3l-0.1,0.3l-0.3,0.2l-0.1,0.1v0.1l0.2,0.2v0.2l-0.1,0.1l-0.1-0.1h-0.3L30.8,59h-0.2
	l-0.1,0.2v0.4l0.1,0.1l-0.1,0.1V60l-0.1,0.1v0.1l0.1,0.1l-0.2,0.3l-0.2,0.2L30,61.1l-0.3,0.1h-0.3L29,61.3v0.2l-0.1,0.4h-0.1
	L28.6,62v0.3l-0.1,0.1l-0.1,0.2v0.3v0.3l-0.3,0.2v0.2L28,63.8V64l0.1,0.2L28,64.6l-0.1,0.2v0.2l0.2,0.1l0.1,0.3v0.1l0.1,0.1
	l-0.1,0.1L28.2,66v0.4l-0.1,0.1l-0.1,0.3v0.3l-0.1,0.2l-0.3,0.5l-0.3,0.3l-0.1,0.5L27,68.8v0.3l0.3,0.1h0.3l0.2,0.1h0.4h0.3l0.2,0.1
	h0.2l0.3,0.1v0.2l0.1,0.1l0.1-0.1l0.4-0.1l0.1-0.1h0.2v0.2l0.3,0.1l0.2,0.1V70h0.3l0.1-0.1l0.5-0.1l0.2-0.1H32l0.2-0.1h0.1l0.1,0.1
	l0.3-0.1l0.1-0.3l0.3-0.1v0.1l0.2,0.1l0.2-0.2l0.1,0.1H34v-0.2h0.1l0.1-0.2l0.3-0.1v0.2l0.3,0.2l0.1,0.1L35,69.2z" style="fill: rgb(210, 210, 230);"></path>
	<path name="Florencia" data-id="392" id="path6333" class="cls-1" d="M40.5,67.6h-0.4l-0.2-0.1l-0.2-0.1l-0.2-0.1L39.5,67h-0.1l-0.2-0.2v-0.3l-0.2,0l-0.3,0.2
	l-0.4,0.1L38,67.2l-0.5,0.1h-0.1l-0.1,0.1v0.1L37,67.8l-0.3-0.1h-0.2l-0.1,0.2V68h-0.2l-0.4,0.2l-0.3,0.4V69l-0.1,0.1h-0.1L35,69.2
	l-0.2,0.2v0.1l-0.1,0.2v0.3h0.1l0.2-0.3l0.2-0.1l0.4,0.2L36,70l0.4-0.1l0.2,0h0.5l0.1-0.1h0.4l0.4-0.2v-0.2l0.1-0.1l0.1-0.2l0.4-0.4
	l0.1-0.5l0.4-0.3h0.3l0.5-0.1l0.1-0.1h0.4h0.3L40.5,67.6z" style="fill: rgb(210, 210, 230);"></path>
	<path name="Bolivar" scale="5" move="10" data-id="385" id="path6590" class="cls-1" d="M40.9,67.8v-0.1l0.2-0.1h0.2l0.1,0.1l1.3,0l0.3-0.3h0.3l0.3-0.2l0.3,0l0.1-0.1l0.5,0.4l0.1,0.4
	l0.3,0.2l0.2,0.4v0.7l0.2,0.1l0.2,0.5l0.2,0.1l0.2-0.1h0.1l0.2,0.3h0.3l0.7,0.6v0.1h0.3l0.2-0.1l0.2,0.1l0.1,0.2l0.3-0.1v-0.2
	l-0.1-0.2v-0.1l-0.1-0.2v-0.1l0.1-0.1l0.1-0.3l-0.1-0.2l0.1-0.2l0.3-0.2l0.3-0.4l0.4-0.3h0.2l0.3,0.1l0.2-0.1v-0.2v-0.1l-0.1-0.1
	L49.3,68l-0.1-0.3v-0.3L49,67.2h-0.1v-0.3l-0.1-0.5l-0.1-0.2v-0.1L48.4,66l-0.1-0.2v-0.2h-0.1l0.1-0.2l-0.4-0.7l0.2-0.4L48,64h-0.2
	v-0.2l-0.2-0.2L47.5,63l-0.4-0.5L47,62.4l0.1-0.2h-0.2L46.6,62l-0.3,0.1l-0.2-0.2H46l-0.2-0.4l-0.1-0.4h-0.2v-0.2l0.1-0.1l-0.1-0.3
	l-0.1-0.2l-0.1-0.2h-0.2l-0.3-0.2l-0.2-0.3l-0.2-0.3l-0.2-0.1l-0.1,0.1l0.1-0.3l0.2-0.1l0.4-0.3v-0.3l0.3-0.1v-0.2h0.1l0.1-0.1v-0.3
	l0.2-0.1L46,57v-0.2h0.2l0.2-0.2h0.2l0.5-0.3l0.1-0.2l0.1-0.2l0.2-0.1l0.2-0.2v-0.2l-0.2,0.1h-0.3l-0.1-0.1h-0.2l-0.1,0.1l-0.3,0.1
	l-0.1,0.1l-0.2-0.1L46,55.6l-0.3-0.1v-0.1h-0.1v0.1l-0.1,0.1l-0.1-0.2h-0.1l-0.1,0.1L45,55.4l-0.1-0.1l-0.3-0.1V55h-0.1l-0.1,0.1
	h-0.3l-0.1,0.2l-0.2-0.1l0.1-0.1v-0.1h-0.2l-0.1,0.1L43.5,55h-0.1l-0.1-0.2l0.2-0.1l-0.1-0.1h-0.3L43,54.7l-0.3-0.1l-0.1-0.1
	l0.1-0.1h-0.2h-0.1l-0.2,0.2l-0.2,0.1l-0.3-0.4v-0.4l-0.3-0.2l-0.1,0.1h-0.2v0.1l0.1,0.1l0,0L41.2,54v0.1l-0.1,0.1l-0.3,0.4h-0.2
	l-0.2,0.3l0.1,0.2l-0.1,0.1v-0.1h-0.1l-0.1,0.1h-0.2l-0.1,0.2l-0.2,0.1v0.1l-0.2-0.1v-0.1l-0.2,0.1l-0.2-0.1l-0.1,0.1l-0.2,0.1
	L38.7,56l-0.2,0.2l-0.1,0.1h-0.1l-0.1,0.3L38,56.8h-0.2L37.7,57l-0.1-0.1h-0.1l-0.1,0.2h-0.1V57H37L37,57.2l-0.1,0.1l-0.2-0.1h-0.1
	V57h-0.2l-0.1,0.1l0.1,0.1l-0.1,0.1h-0.4l-0.3,0.3v0.3h-0.1l-0.1-0.1l-0.2,0.1V58l0.3,0.2h0.1l0.2,0.3h0.1l0.1-0.1l0.1,0.1h0.2
	l0.3,0.3h0.2v0.1l0.1,0.1l0.1-0.1L37,59h0.1l0.2,0.2h0.2l-0.2,0.2l0.1,0.1l0.2,0.2l-0.2,0.1V60l0.3,0.1v0.4l-0.1,0.2V61l0.2,0.3
	l0.1,0.5l-0.1,0.2h-0.2l-0.2,0.2l0.1,0.1l0.2,0.1l0.2,0.4l-0.1,0.1l0.2,0.3h0.1l0.1-0.2l0.4,0.1l0.2-0.1l0.3,0.1h0.3l0.1-0.2
	l0.1,0.1h0.4l0.1-0.1l0.5,0.2l0.2,0.3l-0.1,0.2v0.3l0.2,0.3l-0.2,0.1l0.1,0.1V65l-0.2,0.2l0.1,0.2l-0.1,0.4l-0.4,0.4l-0.3,0.1
	l-0.2,0.2H39v0.3l0.2,0.2h0.1l0.1,0.2l0.2,0.1l0.2,0.1l0.2,0.1h0.4l0.1,0.2L40.9,67.8z" style="fill: rgb(210, 210, 230);"></path>
	<path name="Santa Rosa" scale="3" move="10" data-id="412" id="path6581" class="cls-1" d="M61.5,88.4l-0.1,0.4l0.2-0.1l0.1-0.1l0.2-0.1l0.3-0.3l0.2-0.2v-0.5l0.1-0.2v-0.3h0.3l0.3-0.2h0.1
	l0.3-0.3l0.2-0.3l0.2,0.1H64l0.1-0.4l0.1-0.4l0.3-0.1v-0.2l0.2-0.1l0.1,0.1h0.6l0.6-0.1l0.2,0.1l0.2-0.1V85l0.3-0.3l0.1-0.3v-0.1
	l0.2-0.2l0.1-0.5l-0.4-0.1l0.3-0.4l-0.1-0.3l0.1-0.3h0.2l0.6-0.3l0.4-0.3l0.7-0.1h0.4l0.4-0.5l0.1-0.6l0.4-0.2l0.2-0.3L70,80.1
	l0.4-0.3l0.1-0.5l0.4-0.5l-0.1-0.1v-0.3l0.2-0.1l0.1-0.2h0.2v0.1l0.4,0.1H72l0.2,0.1h0.3l0.2-0.2l-0.1-0.3l-0.1-1.6l0.2-0.8l0.3-0.3
	l0.2-0.1l0.5-0.4l0.3-0.1v-0.2l0.4-0.4v-0.3l0.2-0.1l-0.1-0.2l-0.3-0.2l-0.4-0.6l0.3-0.3v-0.5l-0.6-0.4l-0.3,0.2h-0.6v-0.4l0.3-0.6
	l0.5-0.5l0.2-0.4l-0.1-0.6L73.2,69v-0.2l0.1-0.1l0.1-1l0.1,0v-0.1l-0.2-0.2v-0.3l-0.3-0.2L72.7,67l-0.3-0.1h-0.4l0.1,0.3l-1.3,0.9
	l-0.4,0.4H70L69.3,68l0.2-0.9v-0.8L69,66l-0.6,0.4l-0.1,0.3h-0.4l-0.3,0.2v0.3l-0.4,0.5h-0.5l-0.2-0.3l0.2-0.2v-0.4l-0.3-0.1v-0.1
	l0.5-0.3v-0.4H67v-0.2l-0.7-0.6v-0.3h-0.3l-0.5-0.4l-0.7-0.3l-0.3-0.3l-1.5-0.7l-0.3,0l-0.3-0.1l-0.1,0.1L62,63.2L61.3,63l-0.7-0.2
	l-0.4-0.3l-0.2-0.4l-0.3-0.3l-0.1-0.2h-0.4L58.9,61v0.3l-0.2,0.3v0.3L58.5,62l-0.6,0.6L57.6,63l-0.1,0.3l-0.2,0.3H57l-0.3,0.1
	l-0.1,0.5h-0.3l-0.2-0.2L56,63.7l-1.1-0.4h-0.8l-0.7,0.4l-0.2,0l-0.5,0.7l0.1,0.1l-0.1,0.2h-0.2h-0.2L52.1,65l-0.2,0.2L51.6,65
	l-0.2-0.3h-0.3L51.1,65l0.3,0.5L51.2,66l-0.4,0l-0.2,0.4l-0.3,0.2L50.2,67L50,67.4h-0.1l-0.1,0.3v0.2l-0.3,0.2v0.1v0.2l-0.2,0.1
	l-0.3-0.1h-0.2l-0.4,0.3l-0.3,0.4l-0.3,0.2l-0.1,0.2l0.1,0.2l-0.1,0.3l-0.1,0.1v0.1l0.1,0.2v0.1l0.1,0.2v0.2L47.6,71l0.4,0.2
	l0.1,0.2l0.3,0.4v0.4L48,72.5l0.1,0.1V73l-0.3,0.1l-0.6,0.6v0.7l0.4,0.5l-0.1,0.2l-0.2,0.1l-0.2,0.3h-0.2l-0.1,0.3v0.3l-0.6,0.4
	L46,77.1h-0.4l0.2,0.2l0.2,0.7l0.2,0.6l-0.2,0.4l-0.3,0.4v0.5l0.1,0.3l-0.1,0.4l-0.1,0.6l0.1,0.3H46l0.3,0.2l0.3-0.1h0.2h0.7
	l0.2-0.2l0.6-0.3l1-0.5l0.7-0.1l0.3-0.2l0.2,0h0.6l0.6-0.4l0.6-0.3l0.6-0.1l0.6-0.3l0.2-0.2l0.2,0.1l0.6-0.3l0.3-0.4l0.4-0.3l0.4,0
	l0.2,0.1l0.1,0.2l0.3,0.1l0.6,0.3l0.1,0.3l-0.1,0.4l0.1,0.2l0.8,0.4l0.3,0.1l0.4,0.3v0.3l0.2,0.2h0.3V81h0.6l0.1,0.4l-0.3,0.4
	l0.3,0.1l-0.1,0.3v0.5l-0.3,0.2v0.2l0.3,0.1l0.2,0.3l-0.2,0.3v0.5l-0.3,0.3l0.1,0.5l0.4,0.2v0.4l0.3,0.4L60,86.5l0.1,0.4l0.2,0.1
	l-0.1,0.3l0.6,0.3l0.4,0.3l0.3,0.4h0.2l-0.1,0.4" style="fill: rgb(210, 210, 230);"></path>
	<path name="San Sebastián" scale="6" move="10" data-id="410" id="path6576" class="cls-1" d="M57.5,56.8l-0.3,0.1L57,57h-0.2l-0.2-0.1l-0.4,0.1l-0.1,0.1l-0.2,0.1h-0.1v-0.1l-0.1,0.1
	l-0.2,0.1l-0.2-0.1v-0.3L55,56.8L54.8,57l-0.3,0.3h-0.2h-0.4L53.6,57v-0.2l-0.1-0.1l-0.4-0.1l-0.1,0.1l0.1,0.2L53.2,57l-0.1,0.4
	l-0.1,0.4v0.3l-0.1,0.2l-0.3,0.2l-0.1-0.1l-0.1,0.1v0.3L52.2,59v0.1l0.1,0.1v0.2l-0.1,0.1v0.1l0.1,0.2v0.3L52,60.3l-0.2,0.1
	l-0.2,0.2v0.1h-0.1l-0.1,0.1v0.4l-0.2,0.2h-0.1l-0.2,0.1h-0.1L50.4,62v0.2h-0.2L50,62.3l-0.3,0.2l-0.3-0.1L49,62.1l-0.2,0.1
	l-0.4-0.1L48.2,62h-0.1h-0.3l-0.3,0.2l-0.1-0.1L47.2,62l-0.1,0.2l0.2,0.2l0.4,0.5l0.2,0.6l0.2,0.2v0.2h0.2l0.1,0.3l-0.2,0.4l0.4,0.7
	l-0.1,0.2h0.1v0.2l0.1,0.2l0.2,0.1V66l0.1,0.2l0.1,0.5V67h0.2l0.1,0.3v0.3l0.1,0.3l0.1,0.2l0.1,0.1l0.3-0.2v-0.2l-0.1-0.2h0.3
	l0.2-0.4l0.1-0.4l0.3-0.2l0.2-0.4l0.4,0l0.1-0.5l-0.3-0.5l0.1-0.2h0.3l0.2,0.3l0.3,0.1l0.2-0.2l0.1-0.2h0.2h0.2l0.1-0.2l-0.1-0.1
	l0.5-0.7l0.2,0l0.7-0.4h0.8l1.1,0.4l0.1,0.2l0.2,0.2h0.3l0.1-0.5l0.3-0.1h0.2l0.2-0.3l0.1-0.3l0.3-0.3l0.6-0.6l0.3-0.1v-0.3l0.2-0.3
	v-0.3v-0.5h0.2l0.3-0.4l-0.1-0.4l-0.7-0.7h-0.4l-0.4-0.2v-0.3l0.2-0.1v-0.3V58l-0.3-0.2l-0.1-0.5l-0.1-0.1v-0.4L57.5,56.8z" style="fill: rgb(210, 210, 230);"></path>
	<path name="La Vega" scale="5" move="10" data-id="397" id="path6571" class="cls-1" d="M57.8,56.6l0.2-0.2h0.2l0.1-0.2v-0.3l0.1-0.1h0.3l0.5-0.3l0.3-0.3v-0.5l0.2-0.1l-0.1-0.1h-0.4
	l-0.6-0.4l-0.4,0.3h-0.2l-0.2-0.2h-0.4L57,53.9l-0.6-0.1l-0.2,0.2l-0.2-0.1l-0.5-0.1l0.1-0.2l-0.3-0.5l-0.3-0.3l0.2-0.1l0.1-0.2
	l-0.1-0.1V52L55,51.8v-0.3l-0.1-0.5l-0.3-0.3v-0.4L54.2,50l-0.3-0.1l-0.1-0.2l-0.6-0.3h-0.1h-0.2l-0.1-0.1l-0.2,0.1v0.1h-0.1
	l-0.1-0.2l-0.1,0.2L52,49.3h-0.1l-0.2,0.1h-0.2l-0.1-0.1h-0.5l-0.4-0.1h-0.2l-0.5-0.1l-0.1,0.1l-0.1-0.1l-0.1,0.1l-0.1-0.1L49.3,49
	l-0.4-0.2l-0.1,0.1l-0.2-0.1h-0.1l-0.1,0.1l-0.1-0.2l-0.3,0.1L48,48.9l-0.1-0.1h-0.1v0.1L47.5,49l-0.1,0.1l-0.1-0.1l-0.1-0.1
	L47.1,49l-0.2-0.1l-0.1,0.1L46.7,49h-0.2v0.1l-0.1,0.1l0.3,0.3l-0.1,0.4l-0.1,0.3l-0.2,0.1l-0.1,0.2l0.1,0.1v0.1l-0.2,0.2v0.2
	l0.1,0.1v0.1h-0.1l-0.1,0.1h-0.2l0.1,0.1l0.4,0.1l0.2,0.3v0.8l0.1,0.1l-0.1,0.1L46.4,53v0.3l0.1,0.1l0.1,0.2v0.4l-0.1,0.1v0.3
	l-0.2,0.1v0.1l0.1,0.1v0.1h0.3l0.1,0.1h0.3v0.1H47v0.1l-0.1,0.2v0.1h0.2l0.1,0.1h0.3h0.2h0.2l0.1,0.1h0.2h0.1l0.3,0.3h0.1l0.4,0.3
	h0.1l0.1,0.1v0.2l0.3,0.3v0.2l0.2,0.4h0.2l0.1,0.2l0.2,0.2l0.2-0.1h0.3l0.1-0.1l0.2,0.2l0.5,0.1v0.1l0.2,0.2l0.1,0.2l0.4-0.3h0.2
	l0.2-0.1l0.1-1l0.2-0.4l0.1-0.1l0.4,0.1l0.1,0.1v0.2l0.2,0.3h0.4h0.2l0.3-0.3l0.2-0.2l0.3,0.1V57l0.2,0.1l0.2-0.1l0.1-0.1V57h0.1
	l0.2-0.1l0.1-0.1l0.4-0.1l0.2,0.1H57l0.2-0.2l0.3-0.1h0.2L57.8,56.6z" style="fill: rgb(210, 210, 230);"></path>
	<path name="Sotara" scale="5" move="10" data-id="414" id="path6566" class="cls-1" d="M60.7,49.8l-0.2-0.1v-0.2l0.2-0.2v-0.4l-0.1-0.1v-0.2l0.2-0.3l-0.3-0.2v-0.2l0.1-0.2l-0.1-0.1
	l0.2-0.1l0.1-0.1l-0.1-0.4l0.1-0.3h0.3l0.2-0.2h0.2v-0.1v-0.1L61.2,46l-0.1-0.2h0.2l-0.1-0.2v-0.2l0.1-0.1l-0.1-0.1v-0.2L61.1,45
	l0.1-0.2v-0.3l-0.1-0.1l-0.1-0.1l0.1-0.1l0.1-0.5l0.1-0.1l0.1-0.2h0.2l0.1-0.1v-0.3l0.1-0.1l-0.1-0.3l-0.2-0.1h-0.1l-0.2-0.2v-0.2
	l0.3-0.3l-0.1-0.2l-0.1-0.1l-0.2-0.4l-0.3-0.5l-0.1-0.3l-0.4-1.3L60.2,39H60l-0.1-0.1l-0.2-0.1l-0.3-0.3l-0.1-0.1h-0.1l-0.1,0.1
	L59,38.5l-0.1-0.1h-0.1l-0.1,0.2h-0.1v-0.1h-0.1l-0.1-0.1h-0.1l-0.1-0.1h-0.4v-0.1h-0.1l-0.1,0.1l-0.1-0.1h-0.3v-0.1l-0.1,0.1
	L57,38.5h-0.2l-0.1,0.4L56.5,39l0.1,0.1l-0.1,0.1l0.1,0.1v0.1h-0.1v0.3l0.2,0.3l-0.1,0.2l-0.5,0.2l0.1,0.8h0.2v0.3l0.1,0.1l-0.2,0.2
	V42l0.2,0.1l0.1,0.5l-0.3,0.2h-0.2l-0.2,0.4h-0.2l-0.1-0.1h-0.2V43l0.1-0.1h-0.4L55,43l-0.1-0.2l-0.2-0.1l-0.2,0.1l-0.1-0.1h-0.1
	l-0.1,0.5l-0.3,0.2h-0.2v0.2l0.2,0.1L54,44l-0.1,0.1v0.1h0.2l0.2,0.1h0.1l0.2,0.2l0.3,0.2l0.1,0.1h0.3l0.1,0.1l0.5,0.1l0.3,0.2
	l0.1,0.2h0.2l0.1,0.3l-0.2,0.2l0.2,0.2v0.4l-0.1,0.3V47l0.3,0.3l-0.1,0.3v0.1l0.2,0.1V48l-0.1,0.1v0.7l-0.4,0.2v0.2L56,49.5
	l-0.3,0.1l-0.1,0.1H55l-0.1,0.1l-0.4-0.1l-0.2-0.3l-0.2-0.1h-0.4l0,0l0.2,0.2l0.3,0.1l0.4,0.4v0.4l0.3,0.3l0.1,0.5v0.3l0.2,0.1v0.5
	l0.2,0.1l-0.1,0.2l-0.2,0.1l0.3,0.3l0.3,0.5l-0.1,0.2l0.5,0.1l0.2,0.1l0.2-0.2l0.6,0.1l0.3,0.3h0.4l0.2,0.2h0.2l0.4-0.3l0.6,0.4h0.4
	L59.6,54l-0.1-0.2v-0.4l0.3-0.2l-0.2-0.6L59.2,52l-0.1-0.8l0.1-0.4l0.4-0.4l0.8-0.4L60.7,49.8l0.1-0.1L60.7,49.8z" style="fill: rgb(210, 210, 230);"></path>
	<path name="Puracé" scale="5" move="10" data-id="408" id="path6560" class="cls-1" d="M71.8,39.9h-0.2l-0.3-0.2l-0.1-0.2l-0.3-0.1l-0.4,0.1l-0.3-0.2l-0.1-0.3l-0.2-0.1h-0.4L69.4,39
	h-0.1l-0.2-0.3L69,38.6l-0.4-0.1l-0.3-0.3L68,38l-0.2,0.1l-0.4,0.1l-0.1,0.2h-0.4l-0.3,0.3h-0.1l-0.2-0.1l-0.1-0.2h-0.1v0.1
	l-0.2,0.1l-0.2,0.1v-0.1h-0.1h-0.2l-0.1,0.1l-0.1-0.1v-0.1h-0.2l-0.2,0.2h-0.2l-0.3-0.2h-0.1H64l-0.1-0.1l-0.1,0.1l-0.3-0.2h-0.4
	l-0.1-0.1h-0.1v0.2l0.3,0.2v0.4l0.3,0.3v0.2h-0.1l0.1,0.1l-0.2,0.2v0.5L63,40.3v0.2l-0.3,0.3V41l-0.1,0.1h-0.3v0.1l0.1,0.1l-0.2,0.1
	l-0.2,0.3H62v0.1L61.7,42v0.1l0.1,0.1l-0.1,0.1h-0.1v0.1l0.2,0.1l0.1,0.3l-0.1,0.1v0.3l-0.1,0.1h-0.2l-0.1,0.3l-0.1,0.1l-0.1,0.5
	L61,44.1l0.1,0.1l0.1,0.1v0.2l-0.1,0.2l0.1,0.1V45l0.1,0.1l-0.1,0.1v0.2l0.1,0.2h-0.2l0.1,0.2l0.4,0.1V46v0.1h-0.2l-0.2,0.2H61
	l-0.1,0.3l0.1,0.4l-0.1,0.1l-0.2,0.1l0.1,0.1l-0.1,0.2v0.2l0.3,0.2l-0.2,0.3v0.2l0.1,0.1V49l-0.2,0.2v0.2l0.2,0.1v0.2l0.1-0.1
	l0.2,0.2l0.3-0.1l0.4,0.1l0.6,0.6l0.4,0.1l0.5-0.4l0.3-0.2l0.3,0.1l0.3,0.4l0.5,0.3l0.5-0.1l0.5-0.5l0.3-0.2l0.2,0.1l0.2-0.5
	l-0.1-0.4l-0.2-0.1l0.1-0.4l0.1-0.9l0.3-0.2h0.3h0.6l0.4-0.5l0.3-1.1l0.4-0.5l0.1-0.7l0.4-0.9l0.3-0.3h0.4l0.9-0.3l0.8-0.1l0.4-0.3
	v-0.3l-0.3-0.3l-0.2-0.5l0.4-0.3l0.4-0.4l0.2-0.4l0.3-0.2v-0.2L72,40.1L71.8,39.9l0.3-0.2L71.8,39.9z" style="fill: rgb(210, 210, 230);"></path>
	<path name="Inzá" data-id="394" id="path6504" class="cls-1" d="M86.3,34.7l-0.1-0.1l0.3-0.2v-0.1l-0.1-0.1h0.1v-0.1l-0.1-0.1l0.1-0.4l0.2-0.1v-0.1l-0.1-0.1
	l0.1-0.1L86.5,33h-0.3l-0.1-0.2l-0.3-0.1v-0.2H86v-0.1l-0.2-0.1l-0.1,0.1h-0.4l-0.1,0.1l-0.3-0.3l-0.7-0.4l-0.1-0.2H84l-0.1-0.1
	h-0.2v-0.4L83.6,31l-0.1-0.4l-0.1-0.2h-0.2l-0.1,0.1l-0.1-0.2h0.3l0.1-0.3l0.3-0.1l0.1,0.1l0.1-0.2l0.4-0.3v-0.1h-0.4L84,29.5h-0.2
	l-0.1-0.2h-0.1v-0.2l0.1-0.1L83.6,29l-0.2-0.2v-0.2l-0.1-0.1v-0.2h0.1l-0.1-0.1L83.3,28L83,27.9l-0.1-0.1h-0.1L82.7,28h-0.1v0.1
	h-0.1v-0.3l-0.2-0.2h-0.1l-0.2,0.3v0.1l-0.3,0.1h-0.3l-0.4,0.2l-0.2,0.4l-0.2,0.1l-0.3-0.3l-0.2-0.5h-0.2v0.1h-0.1l-0.4,0.3
	l-0.1,0.2l-0.4-0.1h-0.4v-0.1l-0.4-0.2v-0.2L78,28L77.8,28l-0.1,0.4l-0.4,0.1v0.7l-0.5,0.3l-0.2,0.1l-0.3-0.2h-0.6l-0.1-0.2h-0.1
	v0.2h-0.1h-0.2L75,29.9l-0.1,0.9h-0.1v0.1l0.2,0.2l0.1,0.8l0.1,0.1v0.1l-0.1,0.1l-0.2,0.1l0.1,0.3l0.3,0.2h0.2l0.1,0.1l0.2,0.2v0.1
	l-0.2,0.1l0.1,0.1h0.2v0.3l-0.2,0.1l-0.1,0.2l-0.3,0.1v0.1l0.1,0.1v0.2l-0.1,0.1l-0.1,0.2l0.1,0.1v0.2l-0.2,0.1L75,35.4l-0.1,0.3
	l-0.3,0.1l-0.1-0.2h-0.1v0.2l-0.2,0.1h-0.2L74,36h-0.2l-0.3,0.1l-0.1,0.1l-1.1,0.1L72,36.6l-0.6,0.2l-0.1,0.1l0.1,0.1v0.6h0.1v0.1
	l-0.3,0.2l-0.4-0.2l-0.1,0.1l0.1,0.2l-0.2,0.2v0.6l0.1,0.3l0.1,0.4l0.3,0.1l0.1,0.2l0.3,0.2h0.2l0.4,0.1v-0.4l0.2-0.1l0.2-0.3L73,39
	v0.3h0.4l0.2,0.2h0.2l0.2,0.2l-0.2,0.1h0.5l0.4,0.2l1,0.5l0.7,0.2l0.5,0.1l0.6-0.1l0.2-0.1h0.3l0.5-0.3l0.1-0.3h0.4l0.4-0.3l0.2-0.2
	l0.2-0.2l0.4,0.2l0.4-0.2l0.1-0.3h0.4l0.3-0.2l0.2,0.1h0.3l0.2,0.2l0.5-0.1v-0.2l0.4-0.2h0.3l0.3-0.4l0.3-0.4L84,37.4l0.2-0.2
	l0.5-0.3l0.1-0.2v-0.3l0.3-0.3l0.4-0.1l0.1-0.3v-0.3l0.2-0.3l0.2-0.1h0.1L86.3,34.7z" style="fill: rgb(210, 210, 230);"></path>
	<path name="Páez" data-id="403" id="path6502" class="cls-1" d="M86.3,34.9h0.2l0.2,0.1l0.1,0.3h0.5l0.4,0.1v0.1l0.3,0.2h0.3l0.4,0.4l-0.2,0.1v0.3v0.2h0.3
	l0.1,0.4l0.3,0.2h0.2l0.2,0.2l0.2,0.3h0.2L90,38l0.7-0.1l0.2,0.1l0.4-0.2l0.1-0.4H91v-0.2l0.4-0.2l0.1-0.3l0.2-0.3h0.2l0.2-0.1
	l-0.3-0.1v-0.2l0.2-0.1l0.3-0.2l0.1-0.1l0.1,0.1l0.1-0.2h0.3l0.1-0.1l-0.3-0.1l-0.1-0.2v-0.4l0.1-0.1l0.1-0.4V34h-0.2l-0.2-0.4
	l-0.3-0.3h-0.1L92,33.1l0.1-0.1l0.1-0.4L92,32.5l-0.2-0.1l0.1-0.2V32l0.3-0.1l0.1-0.2h0.1l0.1-0.2l0,0v-0.3l0.4,0.1l0.1,0.1l0.2-0.3
	l0.2-0.1v-0.2l-0.1-0.1l0.2-0.1l0.1-0.5h0.1l0.1-0.3L94,30l0.2-0.5L94,29.4l0.1-0.1v-0.5l0.1-0.2h0.3l0.4-0.5l-0.1-0.3l0.3-0.1h0.2
	l0.2-0.2l-0.1-0.2v-0.1l0.2-0.2v-0.4l-0.1-0.1l0.3-0.1v-0.1l-0.1-0.1l0.2-0.1l-0.1-0.3l0.1-0.2l0.2-0.1l-0.2-0.3V25l0.1-0.1
	l-0.4-0.4h-0.3v-0.1h-0.4l-0.2-0.2v-0.1L94.6,24L94.4,24v0.1l-0.1,0.1l-0.1-0.2L94,24h-0.2l-0.2-0.2v-0.2l-0.4,0.1L93,23.6v-0.2
	l-0.1-0.1l-0.3,0.1l-0.2-0.2l-0.9,0.1L91,23v-0.2l-0.5-0.4l-0.2-0.3l-1.4-0.8l-0.8-0.8L87,19.9l-0.4-0.5l-1.7-1.2L84,17.5l-0.2-0.3
	l-0.3-0.7l-0.1-0.3l0.1-0.9l0.2-0.6l0.4-0.5v-0.3l-0.7-0.2l-0.4-0.3l0.2-0.3l-0.4-0.5l0.1-0.3h-0.2l-0.2,0.1l-0.2-0.2L82,12h-0.1
	l-0.2-0.1l-0.2,0.1l-0.4,0.1L81,12.3l0.1,0.1L81,12.8L80.7,13v0.5h-0.1v0.3l-0.2,0.1l-0.1-0.1h-0.1V14L80,14.2l0.3,0.7l-0.2,0.2
	h-0.2l-0.3,0.3v0.2l0.2,0.1l0.1,0.1l-0.1,0.1l-0.1,0.3l0.1,0.1v0.2l-0.2,0.1V17l0.2,0.1l-0.1,0.2l-0.5,0.3h-0.2l-0.1-0.1l-0.1-0.1
	l-0.1,0.2v0.3l-0.3,0.3h-0.2l0.1,0.2h0.1v0.2l-0.1,0.2H78l-0.5,0.3v0.2h-0.2L77.2,19L77,19.1v-0.2L77,18.8l-0.2,0.1l-0.5,0.3
	l-0.2,0.2l-0.2,0.2v0.2l0.1,0.2l-0.6,0.3h-0.3v0.2l0.1,0.1v0.1l-0.1,0.2l0.2,0.2l-0.1,0.5l0.1,0.2l-0.1,0.2L74.7,22l-0.3,0.5
	l-0.1,0.4l-0.3,0.3h0.2l0.2-0.1l0.2-0.2l0.1,0.1l0.2-0.1h0.4l0.3,0.2h0.2l0.1-0.1l0.3,0.1l0.2,0.2h0.3l0.3,0.2l-0.4,0.2h-0.5
	l-0.3-0.1l-0.3,0.1l-0.1-0.1l-0.2,0.1L75.2,24l-0.1,0.1L75,24.5l-0.2,0.5l0.1,0.2l-0.2,1l-0.1,0.3L74.3,27L74,27.3v0.3l0.1,0.2
	L74,28h-0.1v0.2l0.1,0.4l0.4,0.1l0.5,0.3l0.1,0.2l0.2,0.1l0.4,0.3v-0.2h0.1l0.1,0.2h0.6l0.3,0.3l0.2-0.2l0.3-0.5v-0.7l0.4-0.1
	l0.1-0.4l0.1-0.1l0.1,0.1V28l0.4,0.2v0.1h0.4l0.4,0.2l0.1-0.2l0.4-0.3h0.1v-0.1h0.3l0.2,0.5l0.3,0.3l0.2-0.1l0.2-0.4l0.4-0.2h0.3
	l0.3-0.1v-0.1l0.2-0.3h0.1l0.2,0.1v0.3h0.1v-0.1h0.1l0.1-0.2h0.1l0.1,0.1l0.3,0.1l0.1,0.2l0.1,0.1H83v0.2l0.1,0.1v0.2l0.2,0.2
	l0.1,0.1l-0.1,0.1v0.2h0.1l0.1,0.2h0.2l0.1-0.1h0.4v0.1l-0.4,0.3l-0.1,0.2l-0.1-0.1l-0.3,0.1l-0.1,0.3h-0.3l0.1,0.2l0.1-0.1h0.2
	l0.1,0.2l0.1,0.4l0.1,0.1v0.4h0.2l0.1,0.1h0.1l0.1,0.2l0.7,0.4l0.3,0.3l0.2-0.1h0.4l0.1-0.1l0.2,0.1v0.1h-0.1v0.2l0.3,0.1l0.1,0.2
	h0.3l0.1,0.1l-0.1,0.1l0.1,0.1v0.4l-0.2,0.1L86.2,34l0.1,0.1v0.1h-0.1l0.2,0.1v0.1L86,34.6l0.1,0.1l-0.3,0.1L86.3,34.9z" style="fill: rgb(210, 210, 230);"></path>
	<path name="Toribio" data-id="418" id="path6511" class="cls-1" d="M80.4,10.1v0.3l-0.3,0.3L79.6,11l-0.1,0.1l-0.4-0.2l-0.3-0.1l-0.2-0.2h-0.2l-0.3,0.3L77.7,11
	l-0.1,0.1l-0.1,0.2h-0.1l-0.1-0.2l-0.1,0.1l-0.2,0.1l-0.3-0.2h-0.2L76,11.3l-0.4,0.1l-0.4-0.1L75,10.9l-0.4-0.2l-0.1-0.1H74
	l-0.3,0.3L73.4,11v0.2l-0.1,0.1l0.2,0.2v0.3l-0.1,0.1v0.2l0.1,0.1v0.2l-0.1,0.2V13l-0.2,0.1l-0.1,0.1h-0.4h-0.1h-0.3h-0.1L72,13.3
	l-0.1-0.1l-0.1,0.1v0.2v0.3h-0.2l-0.2,0.3l-0.1,0.2v0.2l0.3,0.4v0.4l-0.1,0.2v0.3l-0.1,0.1v0.3l-0.2,0.4l-0.1,0.1v0.1l0.2,0.1
	l0.4,0.2v0.4V18l0.1,0.1v0.6L71.6,19v0.2h0.2l0.2,0.2v0.1h0.2l0.2,0.1v0.2l0.3,0.2h0.2l0.1,0.2l0.3,0.1h0.3l0.1-0.1h0.2l0.2,0.2
	l0.1-0.1l0.1-0.4l0.1-0.3h0.2l0.1-0.2h0.1v0.1h0.1l0.1-0.1H75v0.1l0.1,0.1L75.1,20h0.3l0.6-0.3l-0.1-0.2v-0.1l0.2-0.1l0.2-0.2
	l0.5-0.3l0.2-0.1l0.1,0.1v0.3l0.2-0.1l0.1,0.1h0.2V19l0.5-0.3h0.1l0.1-0.2v-0.2h-0.1L78,18.2h0.2l0.3-0.3v-0.3l0.1-0.2l0.1,0.1
	l0.1,0.1h0.3l0.5-0.3l0.1-0.2l-0.2-0.1v-0.4l0.2-0.1v-0.2l-0.1-0.1l0.1-0.3l0.1-0.1l-0.1-0.1l-0.2-0.1l-0.1-0.2l0.3-0.3H80l0.2-0.3
	L80,14.3l0.2-0.2v-0.2h0.1l0.1,0.1l0.2-0.1v-0.3h0.1V13l0.3-0.3l0.1-0.4L81,12.3l0.1-0.1l0.4-0.1l0.2-0.1l-0.1-0.2h0.1v-0.4
	l-0.2-0.4l-0.2-0.5v-0.1l-0.2-0.1L80.9,10h-0.3L80.4,10.1z" style="fill: rgb(210, 210, 230);"></path>
	<path name="Corinto" data-id="390" id="path6516" class="cls-1" d="M80.3,9.8V9.5l-0.1-0.1l0.1-0.1h0.3L81,9.2l-0.6-0.6l-0.5-0.1l-0.3-0.2h-0.2l-0.1,0.1h-0.2
	L79,8.2l-0.6-0.4h-0.3L78,7.9L77.7,8l-0.2-0.3V7.1l-0.2-0.3l-0.1-0.1V6.5l-0.4-0.2l-0.1,0.1l-0.3-0.3l-0.9-0.3l-0.6-0.4l-0.4-0.8
	L74,4.4h-0.2l-0.1,0.1H73l-0.1,0.1l-0.2-0.1h-0.2V4.4h-0.3l-1.6,4.1h0.3L71,8.4h0.4l0.2,0.3l0.2,0.4v0.2l0.1,0.1L72,9.7l0.1,0.1v0.1
	l-0.2,0.2v0.1l0.4,0.2l0.1,0.2l0.5,0.5h0.4V11l0.2,0.1l0.3-0.1l0.3-0.3h0.5l0.1,0.1l0.4,0.2l0.2,0.3l0.4,0.1l0.4-0.1l0.4-0.3h0.2
	l0.3,0.2l0.2-0.1l0.1-0.1l0.1,0.2h0.1l0.1-0.2l0.1-0.1l0.5-0.1l0.3-0.3h0.2l0.2,0.2l0.3,0.1l0.4,0.2l0.1-0.1l0.6-0.3l0.3-0.3v-0.3
	L80.3,9.8z" style="fill: rgb(210, 210, 230);"></path>
	<path name="Miranda" data-id="400" id="path6521" class="cls-1" d="M81.3,9.2l0.1-0.1h0.1l0.2-0.2V8.6l-0.1-0.1l0.1-0.2h0.1V8.1L81.6,8l-0.1-0.2l-0.1-0.2h-0.3
	l0.1-0.2l0.3-0.2V7.1l-0.1-0.1V6.8l-0.5-0.2V6.3L81,6.2l-0.1-0.4L81,5.5h0.3l0.3,0.1l0.2,0.2l0.2-0.2l0.4-0.3L82.5,5l-0.3,0.1
	L82,5.1l-0.1,0.1l-0.1-0.1l-0.4-0.1l-0.7-0.2l-0.4-0.2V4.5h-0.2l-0.1,0.1l-0.2,0.1h-0.2l-0.1-0.1h-0.2l-0.2,0.1L79,4.6l-0.2,0.1
	h-0.2V4.6h-0.2l-0.1-0.2V4.2h-0.1l-0.3,0.1l-0.1-0.1l-0.1,0.1v0.2l-0.1-0.1h-0.2l-0.2-0.1l-0.1-0.1l-0.2,0.3h-0.2l-0.1,0.1l-0.1-0.2
	l-0.2-0.2L76.1,4L76,3.5l-0.2-0.4l-0.2-0.1l-0.2-0.3l-0.2-0.1L75,2.5l-0.3-0.1l-0.1,0.1h-0.4l-0.1,0.1l-0.1-0.1l-0.2-0.1l-0.1,0.1
	l-0.1-0.1h-0.1l-0.1-0.1l-0.1,0.2l-0.1,0.1h-0.3v0.1l-0.1-0.1V2.3l-0.1-0.1h-0.3V2.1l-0.2-0.1h-0.7l-0.1,0.2l-0.2-0.1l-0.4,0.1
	l-0.3-0.1l-0.3,0.1l-0.2-0.1L70,2.4l-0.1-0.3L69.7,2l-0.6,0.8l0.3,0.4l-0.2,0.2l-0.4,0.2l-0.3,0.5h0.2l0.1-0.2H69l0.2,0.2l0.4-0.1
	h0.3L70,4.2h0.3l0.1-0.1l0.2,0.1l0.1,0.3l0.1,0.1L71,4.4l0.3,0.3h0.2l0.1-0.1l0.3-0.1h0.3h0.3v0.1h0.2l0.2,0.1L73,4.5h0.8l0.1-0.1
	h0.2l0.5,0.3l0.4,0.8l0.6,0.4l0.9,0.3l0.3,0.3l0.1-0.1l0.4,0.2v0.2l0.1,0.1L77.6,7v0.7L77.8,8L78,7.9l0.1-0.1h0.3l0.6,0.4l0.1,0.3
	h0.2l0.1-0.1h0.2L80,8.5l0.5,0.1l0.6,0.6L81.3,9.2z" style="fill: rgb(210, 210, 230);"></path>
	<path name="XXXX" data-id="" id="path6532" class="cls-1" d="M65,3.2l0.2,0.3l0.1,0.1l0.1,0.1l-0.1,0.1l0.2,0.1h0.1L65.5,4h0.2v0.2h0.2L66,4.1l0.1,0.1
	l0.1-0.1l0.3,0.1v0.1h0.4v0.1l0.3,0.1h0.2v0.1l0.1,0.1l0.1,0.2L67.8,5l0.1,0.1l-0.1,0.1l0.1,0.2h0.1h0.1L68.4,5l0.1-0.4l-0.2-0.2
	V4.1l0.3-0.5l0.5-0.2l0.2-0.2L69,2.8L69.5,2l-0.3-0.1h-0.2L69,1.9h-0.6l-0.1-0.2h-0.1l-0.3,0.1l-0.3-0.2h-0.2l-0.1-0.1h-0.2V1.3
	l-0.3-0.1L66.6,1V0.8h-0.4L66,0.7h-0.1h-0.2l-0.1-0.1h-0.2l-0.2-0.2V0.2L65,0.1l-0.1,0.1h-0.1v0.3h-0.1h-0.1v0.2l-0.1,0.1l-0.2-0.2
	v0h-0.1L64,0.7l0.3,0.2v0.3l-0.1,0.2v0.2L64,1.6l-0.3-0.2l-0.1-0.3l-0.1,0.1l-0.1,0.3v0.3l0.3,0.1l0.4-0.1L64.1,2h-0.2l-0.1,0.1
	L64,2.3h0.5l0.1,0.1l-0.2,0.1v0.1h0.3l0.3,0.3l-0.1,0.2L65,3.2z" disabled="disabled" style="pointer-events: none;"></path>
	<path name="XXXX" data-id="" id="path6537" class="cls-1" d="M64.9,3.2h-0.2L64.4,3l-0.2,0.2l0.1,0.2h0.4v0.2l-0.2,0.1l0.1,0.2h-0.2l-0.1-0.1l-0.1,0.1L64.3,4
	l-0.2,0.1l0.1,0.1h0.4l0.1,0.1l-0.1,0.1l-0.2,0.1v0.3h-0.1l-0.1-0.2H64l-0.1,0.2L63.7,5l-0.1-0.1h-0.1v0.3l-0.3,0.3l0.1,0.1l0.2,0.1
	v0.3h0.3v0.2h-0.1l-0.1,0.1l-0.2,0.1l0.3,0.2l-0.1,0.2h-0.1h-0.2L63,7.1l-0.3,0.2l0.3,0.2v0.3h-0.2v0.2v0.1l0.3,0.2h0.4l0.2,0.2
	l0.1,0.2L64.2,9l0.1,0.1l0.1-0.2h0.3l0.4,0.3h0.4l0.2,0.1h0.1V9.3V9.2l-0.1-0.2l-0.1-0.3l-0.4-0.3L65.1,8L65,7.9l-0.4-0.5V7l0.2,0.1
	h0.3l0.1,0.1v0.1l0.2-0.1L65.4,7l0.1-0.1l0.1-0.3l-0.1-0.1l0.1-0.1V6l0.1-0.1l-0.2-0.2V5.4l-0.1-0.2l0.1-0.1L65.4,5l0.2-0.1V4.7
	l-0.1-0.1h-0.1l-0.1-0.1h0.2V4.3h0.2l0.1-0.2V3.9h-0.2l-0.1-0.1h-0.1l-0.2-0.1l0.1-0.1l-0.1-0.1L65,3.4L64.9,3.2l-0.1-0.2L64.9,3.2z
	" disabled="disabled" style="pointer-events: none;"></path>
	<path name="Santander de Quilichao" data-id="411" id="path6544" class="cls-1" d="M62.7,7.6h-0.3V7.5l-0.2,0.1l0.2,0.1v0.1h-0.2l0.2,0.2l-0.2,0.1L62,8.1h-0.3l0.4,0.3v0.3h0.4
	l0.1,0.1l-0.2,0.2h-0.3L61.9,9V8.7h-0.1L61.7,9l0.1,0.2l-0.2,0.1L61,9.1V8.9h-0.2v0.2l0.4,0.3l-0.2,0.1l-0.3-0.1l-0.2,0.1l-0.1,0.3
	L60.4,10l0.1,0.2l-0.1,0.2l-0.2,0.1v0.1l-0.1,0.1L60,10.6l-0.2,0.2l0.1,0.2l-0.1,0.1v0.2l-0.1,0.1l0.1,0.1v0.2l0.1,0.1l-0.1,0.1v0.4
	h-0.1v0.3h-0.1l-0.2,0.2h-0.1l-0.1,0.1h-0.1l-0.2,0.3h-0.2v0.1l0.1,0.1v0.3l-0.1,0.1L59,14h0.1v0.2L59,14.3l0.1,0.2l-0.3,0.1
	l-0.2,0.1v0.3l0.1,0.1l-0.1,0.1h-0.1l-0.1,0.1h0.1v0.1l-0.1,0.1v0.1l0.1,0.1l0.2,0.2h0.2l0.4,0.2l0.2,0.4l0.4,0.3L59.8,17l0.1,0.1
	v0.2l-0.1,0.1v0.2l0.1,0.1h-0.1l-0.1,0.2h-0.1l-0.1-0.1l-0.3,0.1l-0.1,0.3l-0.1,0.1h-0.3l-0.2,0.3l-0.3,0.1v0.3l0.1,0.1l0.3,0.2
	l0.1,0.1h0.3l0.2,0.2h0.2v-0.1l0.3-0.2l0.1-0.3l0.3-0.2v-0.1h0.1l0.1,0.1h0.2l0.2-0.1l0.1,0.1h0.3l0.1,0.1h0.2v-0.1h0.2L61.5,19h0.1
	l0.1,0.3H62l0.2,0.2l0.1,0.2l0.4,0.2h0.6l0.1,0.2l0.1-0.1l0.1,0.1l0.2,0.2v0.1H64l0.1-0.1h0.2l0.2-0.2l0.1-0.2l0.1-0.3l0.1-0.1
	l0.1-0.3H65l0.1-0.1l0.1-0.2l0.1-0.1h0.2l0.5-0.1h0.2l0.2-0.1l0.1-0.3h0.2l0.2,0.1h0.3l0.2-0.2l0.3-0.2l0.2-0.2l0.1-0.3l0.4-0.3
	v-0.2l0.1-0.1l-0.2-0.3l-0.2-0.1l-0.4-0.1l-0.6,0.3L67,17.2h-0.1L66.8,17l-0.3-0.1v-0.3l0.1-0.1l0.1-0.4l0.2-0.1l-0.1-0.1v-0.1
	l-0.4-0.2l-0.1-0.1h-0.1l-0.4-0.4l0.1-0.1v-0.6l0.1-0.3l0.1-0.1l0.1,0.1l0.2-0.1l0.1-0.3h0.1l-0.1-0.1v-0.3l0.1-0.1l0.1-0.4
	l-0.2-0.3l-0.2-0.4v-0.1l-0.3-0.1L65.8,12h-0.1v-0.1l0.3-0.1l0.1-0.3l0.1-0.3l0.3-0.4l0.2-0.1l0.1-0.1l-0.1-0.1v-0.3l-0.2-0.3
	l-0.2-0.2V9.5l-0.2-0.2h-0.1l-0.2-0.1h-0.4l-0.4-0.3h-0.3L64.5,9l-0.1-0.1l-0.5-0.2l-0.1-0.2l-0.2-0.2h-0.4L63,8.2V8V7.8L62.7,7.6z" style="fill: rgb(210, 210, 230);"></path>
	<path name="Buenos Aires" data-id="386" id="path6550" class="cls-1" d="M50.7,4.6l0.1-0.2l0.4-0.1V4.2h0.1v0.1l0.3,0.2v0.2l0.1,0.1l0.1,0.1V5L52,5.1v0.1h-0.1v0.2l0,0
	v0.1l0.5,0.2v0.1l-0.1,0.1V6l0.4,0.1v0.1l-0.2,0.1l0,0l0.1,0.1l0.1,0.2l-0.1,0.1v0.1l0.1,0.1l-0.4,0.4l-0.1,0.3l-0.1,0.2L52.2,8
	l0.4,0.4L53,8.5l0.3,0.2l1,0.2l0.2,0.2l0.3,0.1l0.4,0.4l0.2,0.1l0.2-0.2l0.2,0.1h0.1L56,9.5l0.1,0.2h0.2V9.5l0.3-0.2l0.1-0.2V8.8
	h0.2l0.1-0.3h0.2l0.2,0.2V9l0.1,0.1v0.4l0.3,0.3V10l0.2,0.1l0.2-0.2l0.1,0.1h0.3l0.1-0.1l-0.3-0.3l0.1-0.1l0.2,0.1l0.3-0.1l0.1-0.2
	L59,9.2L59.2,9h0.1l0.1-0.1L59.6,9l0.1-0.1l-0.1-0.3l0.2-0.1H60L60,8.9h0.3l-0.1,0.4l0.3,0.3l-0.1,0.3L60.2,10l0.1,0.2l-0.1,0.2
	l-0.2,0.1v0.1L60,10.7l-0.1-0.1l-0.2,0.2l0.1,0.2l-0.1,0.1v0.2l-0.1,0.1l0.1,0.1v0.2l0.1,0.1l-0.1,0.1v0.4h-0.1v0.3h-0.1l-0.2,0.2
	h-0.1l-0.1,0.1H59l-0.2,0.3h-0.2v0.1l0.1,0.1v0.2l-0.1,0.1l0.2,0.3H59v0.2l-0.1,0.1l0.1,0.2l-0.1,0.1l-0.2,0.1v0.3l0.1,0.1l-0.1,0.1
	h-0.1l-0.1,0.1h0.1v0.1l-0.1,0.1v0.1l0.1,0.1l0.2,0.2h0.2l0.4,0.2l0.2,0.4l0.4,0.3L59.8,17l0.1,0.1v0.2l-0.1,0.1v0.2l0.1,0.1h-0.1
	l-0.1,0.2h-0.1l-0.1-0.1l-0.3,0.1l-0.1,0.3l-0.1,0.1h-0.3l-0.2,0.3l-0.3,0.1v0.3h-0.4l-0.1-0.1l-0.3,0.1l-0.2,0.2h-0.2h-0.1
	l-0.3-0.3v-0.1l0.1-0.1v-0.1l-0.1-0.2l-0.3-0.1L56,18l-0.1-0.3l-0.2-0.4h-0.1l-0.1-0.2l-0.3-0.3v-0.1l-0.1-0.1v-0.1l0.2-0.2h0.1
	l0.1-0.3h0.1l-0.1-0.1l0.1-0.1v-0.1l-0.1-0.1l-0.1,0.2l-0.2-0.3L55,15.3h-0.2v-0.1l0.1-0.1V15l-0.1-0.2L55,14l0.3-0.4v-0.2h-0.1
	v-0.1l0.3-0.3l-0.1-0.2v-0.2l0.2-0.1v-0.2l0.1-0.1l-0.1-0.2h-0.3L55,11.8l-0.4-0.2l-0.2,0.1H54l-0.1,0.1l-0.2-0.1l-0.2-0.1v-0.3
	l0.1-0.1h-0.2l-0.3,0.2l0.1,0.1v0.2L53,12.2l-0.2,0.2v0.1l-0.2,0.1h-0.1l-0.2,0.1L52.2,13H52l-0.1-0.1h-0.1l-0.4-0.3v-0.2L51,11.9
	L50.8,12h-0.1l-0.1-0.2h-0.4L50,11.9h-0.2v-0.1l0.1-0.1v-0.1l-0.1-0.1v-0.3l0.1-0.1l-0.1-0.5l0.1-0.2l0.3-0.3V9.9l0.3-0.3L50.5,9
	l0.1-0.2l0.1-0.8l-0.2-0.3V7.3l0.1-0.5l0.1-0.2V6.3L50.3,6V5.5l0.1-0.6L50.7,4.6z" style="fill: rgb(210, 210, 230);"></path>
	<path name="Caloto" data-id="389" id="path6524" class="cls-1" d="M66.5,8.8v0.1h-0.1V9l0.3,0.3l-0.1,0.1l0.1,0.1l0.1-0.1v0.1L67,9.7V10h-0.1l-0.1-0.1L66.7,10
	l0.4,0.3l0.1,0.3l0.2,0.1l0.2-0.1l0.2-0.2l0.3-0.2V10l0.2-0.2l0.1,0.3l-0.2,0.3v0.3l0.2,0.2l0.5,0.1l0.3,0.3h0.2l0.1-0.4l0.2-0.4
	l-0.2-0.2l-0.1-0.1h0.2l0.1-0.2l-0.1-0.7l-0.3-0.2l-0.2-0.7l-0.2-0.3l0.1-0.4l0.2-0.2l0.1,0.1l0.1,0.1l0.1,0.5l0.3,0.2l0.1-0.1h0.6
	h0.3l0.1-0.1h0.4l0.2,0.3L71.7,9v0.2l0.1,0.1l0.1,0.4L72,9.7v0.1L71.8,10v0.1l0.4,0.2l0.1,0.2l0.5,0.5h0.4v-0.1l0.2,0.1v0.2
	l-0.1,0.1l0.2,0.2v0.3l-0.1,0.1V12l0.1,0.1v0.2l-0.1,0.2v0.4l-0.2,0.1L73,13.2h-0.4h-0.1h-0.3h-0.1l-0.2,0.1l-0.1-0.1l-0.1,0.1v0.3
	v0.3h-0.2l-0.2,0.3l-0.1,0.2h-0.5l-0.5,0.4l-0.2,0.4l-0.2,0.2l0.1,0.1l-0.1,0.2l-0.2,0.1v0.1l-0.4,0.4h-0.2l-0.2,0.3l-0.1,0.2
	l-0.2-0.1h-0.2l-0.2,0.2l-0.4-0.2L67.3,17L67,17.3h-0.2l-0.1-0.2L66.5,17v-0.3l0.1-0.1l0.1-0.4l0.2-0.1l-0.1-0.1V16l-0.4-0.2
	l-0.1-0.1h-0.1l-0.4-0.4l0.1-0.1v-0.6l0.1-0.3l0.1-0.1l0.1,0.1l0.2-0.1l0.1-0.3h0.1L66.5,14v-0.3l0.1-0.1l0.1-0.4l-0.2-0.3l-0.2-0.4
	v-0.1l-0.3-0.1l-0.2-0.3h-0.1v-0.1l0.3-0.1l0.1-0.3l0.1-0.3l0.3-0.4l0.2-0.1l0.1-0.1l-0.1-0.1v-0.3L66.3,10l-0.2-0.2V9.6L66,9.4V9.3
	V9.2L65.9,9l-0.1-0.3l-0.4-0.3l-0.2-0.4l-0.1-0.2l-0.4-0.5V7.1L65,7.2h0.3l0.1,0.1v0.1l0.2-0.1l0.1-0.2l0.1-0.1h0.2l0.2-0.1L66.3,7
	l0.2,0.2v0.4l0.1,0.2h0.2L67,8.3l-0.2,0.1l-0.2-0.1l-0.3,0.3L66.5,8.8z" style="fill: rgb(210, 210, 230);"></path>
	<path name="XXXX" data-id="" id="path6526" class="cls-1" d="M66.6,8.4l0.2,0.1L67,8.4l-0.1-0.5h-0.2l-0.1-0.2V7.3l-0.2-0.2L66.2,7L65.9,7h-0.2l0.1-0.3
	l-0.1-0.1l0.1-0.1V6.2l0.1-0.1l-0.2-0.2V5.6l-0.1-0.2l0.1-0.1l-0.1-0.2l0.2-0.1V4.8l-0.1-0.1h-0.1l-0.1-0.1h0.2V4.5h0.2l0.1-0.1H66
	L66,4.2l0.1,0.1l0.1-0.1l0.3,0.1v0.1h0.4v0.1l0.3,0.1h0.2v0.1l0.1,0.1l0.1,0.2l0.3,0.1l0.1,0.1l-0.1,0.1L68,5.5h0.1h0.1l0.2,0.3V6
	l0.1,0.2l0.1,0.2h0.1l0.1-0.1L69,6.4v0.2l0.1,0.2l0.2,0.1l0,0h-0.1v0.2v0.1v0.5L69,7.8l-0.1,0.4l0.2,0.3l0.2,0.7l0.3,0.2l0.1,0.7
	l-0.1,0.2h-0.2l0.1,0.1l0.2,0.2l-0.2,0.4l-0.1,0.4h-0.2L68.9,11l-0.5-0.1l-0.2-0.2v-0.3l0.2-0.3l-0.1-0.3L68.1,10v0.2l-0.3,0.2
	l-0.2,0.2l-0.2,0.1l-0.2-0.1l-0.1-0.3l-0.4-0.3l0.1-0.1L67,10h0.1V9.7l-0.3-0.1V9.5l-0.1,0.1l-0.1-0.1l0.1-0.1l-0.3-0.3V9h0.1V8.8
	l-0.2-0.1L66.6,8.4z" disabled="disabled" style="pointer-events: none;"></path>
	<path name="Lopez de Micay" style="fill: rgb(210, 210, 230);" data-id="398" id="path6389" class="cls-1" d="M13.6,17.6l0.1-0.2h0.1V17l-0.1-0.2v-0.2l0.1-0.1l0.1,0.3l0.2,0.4l0.4-0.1V17h0.3v-0.1l-0.1-0.2
	v-0.2l-0.2-0.1v-0.4L14.2,16l0.1-0.1h-0.4h-0.1h-0.2l-0.1-0.1v-0.3h-0.1v-0.2l0.1-0.2l0.1-0.3l0.1-0.4l0.3-0.2h0.3l0.1,0.2h0.5
	l-0.1-0.1l-0.4-0.2l-0.1-0.2h-0.2l-0.3,0.1l-0.1,0.1l-0.4,0.1l-0.2-0.1L13,14.1h-0.3l-0.4-0.2h-0.2L11.9,14l-0.3,0.1l-0.2,0.4
	l-0.1,0.3l-0.4,0.3l-0.1,0.2l-0.2,0.2v-0.3l0.2-0.3l0.3-0.3l0.2-0.4l0.1-0.4l0.4-0.6l0.1-0.5H12l0.1,0.3l0.2,0.3l0.3-0.1l0.4,0.1
	l0.3-0.1l0.2-0.3l-0.1-0.3l-0.1-0.4l-0.4-0.1h-0.6V12l0.2-0.4l0.5-0.4l0.3,0.1l0.2,0.2l0.1-0.2l-0.1-0.2l0.3-0.2l0.3-0.5l0.2-0.1
	l0.1-0.2l0.3-0.3h0.2V9.7l-0.2-0.2l0.1-0.1V9l0.2,0.1L15,9.5l0.2,0.1l0.1-0.4L15.2,9l0.1-0.3l0.3-0.3l0.3-0.1l0.1-0.2l0.3-0.6
	l0.3-0.1l0.1-0.4l0.3-0.5l0.3-1.1h0.2h0.1v0.1l-0.2,0.1l0.1,0.1l-0.1,0.4l0.1-0.2V5.6l0.2-0.2l0.2-0.1l0.1,0.1v0.2L18,5.7h0.2
	l0.1,0.1L18.5,6l0.2,0.1l-0.1,0.1v0.2l-0.1,0.2l-0.2,0.2H18h-0.2L17.6,7v0.3v0.5l-0.1,0.2v0.2l0.4,0.3l0.1,0.2h0.3l0.4-0.2l0.4-0.1
	l0.5,0.1l0.3-0.3V7.5l0.1-0.1V6.9l-0.1-0.1l0.1-0.1l0.4-0.1l0.2-0.3V6l-0.3-0.2l-1.1-0.4V5.1l0.2-0.1l0.1-0.2h-0.2l-0.1-0.2V4.5
	l0.2-0.1l0.3,0.3l0.1,0.3L20,5.1h0.1h0.2l0.2-0.2V4.7l0.2-0.2l-0.2-0.3l0.1-0.2h0.2l0.2,0.2l0.3-0.1V3.9h0.4l0.2-0.3H22l0.2,0.2h0.3
	V3.7l0.1-0.1h0.2L23,3.8v0.4l0.2,0.3l0.2,0.1v0.5l0.2,0.1L24,5.1l0.5,0.4v0.1l-0.2,0.2l0.2,0.3l-0.2,0.3l0.1,0.2h0.3h0.2l0.2,0.4
	v0.4l-0.1,0.2v0.2h0.4h0.3L26,7.9h0.2V7.6l0.3-0.1l0.2-0.2V7L27,6.9l0.2-0.2l-0.1-0.3l0.2-0.1l0.2,0.3l0.3,0.1L27.9,7l0.4,0.3h0.6
	l0.2,0.2l-0.1,0.2h-0.3l-0.2,0.2L28.5,8H29v0.3h0.3V8l0.1-0.1l0.1,0.3h0.4v0.2l0.2,0.1v0.2L30.1,9l0.3-0.1V8.6l0.1-0.1l0.1,0.3
	l-0.1,0.2L30.7,9l0.1,0.2L31,9.3l0.1-0.1V8.9h0.1l0.1,0.2h0.2l0.1-0.3h0.1l-0.1-0.3l0.2-0.2V8.2h0.4l0.2-0.1l0.1-0.3l0.2,0.1
	l0.2-0.1l0.1-0.2h0.2l0.2-0.1l0.1-0.2l0.2-0.1V6.9L33.9,7l0.2-0.1l0.2,0.3h0.2l0.2-0.2l-0.1-0.2l0.1-0.2H35l0.3,0.2l0.1,0.3h0.3
	l0.2-0.2l0.2-0.2l0.3-0.1l0.1-0.3l0.3-0.1L37,6.3l0.2-0.1h0.1l0.2,0.3l0.1-0.1h0.2l0.3,0.2l0.6,0.3H39l0.4,0.1l0.8,0.4l0.3,0.2h0.3
	h0.4l0.3,0.2V8l0.2,0.3l0.4,0.1l0.1,0.1l-0.2,0.2l0.1,0.1L42.7,9l0.5,0.1h0.5l0.1,0.1h0.1L44,9.1l0.4-0.4l0,0V8.4l-0.1-0.1V8.1
	l0.2-0.2h0.1l0.2-0.3h0.1V7.1V7V6.1L45,5.9V5.6l0.2-0.1h0.2l0.1-0.1h0.1v0.1h0.3l0.2-0.3h0.6l0.1-0.1h0.3l0.1,0.1l0.3,0.2h0.4h0.1
	H48l0.1-0.2h0.1v0.1h0.1l0.1-0.1h0.3h0.1l0.1,0.1h0.6l0.1,0.1h0.1l0.5-0.5h0.3l-0.1,0.6V6l0.4,0.4v0.3l-0.1,0.2l-0.1,0.5v0.5
	l0.2,0.3l-0.1,0.8l-0.1,0.2l-0.1,0.6l-0.3,0.3v0.3l-0.3,0.3l-0.1,0.2l0.1,0.6l-0.1,0.1v0.3l0.1,0.1v0.1l-0.1,0.1l0.1,0.1l0,0v0.2
	l-0.2,0.1l-0.3,0.6h-0.1L49,13l-0.1,0.2l0.1,0.1v0.3l-0.2,0.3h-0.1l-0.1,0.3v0.4l-0.2,0.1h-0.3L48,14.7V15l-0.2,0.2l-0.2,0.6
	l-0.1,0.1V16l0.1,0.1v0.5l-0.1,0.1l-0.1,0.3l-0.2,0.1h-0.1l-0.2,0.1v0.2l-0.2,0.3v0.5l0.1,0.2l-0.1,0.4l-0.1,0.1l-0.1,0.2l-0.3,0.3
	H46l-0.1,0.1v0.3l-0.2,0.1L45.6,20l-0.1,0.2l-0.1-0.1l-0.1,0.1l-0.2,0.1v0.1l0.3,0.3l0.1,0.3l-0.1,0.2v0.2l-0.1,0.1L45,21.6
	l-0.1,0.3L44.8,22l0.1,0.2v0.2h-0.1l-0.1,0.2h-0.4l-0.2,0.2l0.1,0.1v0.1l-0.5,0.5h-0.3l-0.1-0.1h-0.3l-0.8-0.3l-0.2-0.2l-0.3-0.2
	l-0.5-0.1l-0.2-0.1l-0.3-0.1l-0.4-0.2h-0.2l-0.4-0.4l-0.5-0.2h-0.3L39,21.4h-0.1l-0.1,0.1l-0.2,0.2V22l-0.1,0.2v0.2l-0.1,0.2h-0.2
	l-0.2-0.1l-0.5-0.1L37,22.7h-0.4l-0.3-0.1H36l-0.6,0.2l-0.2,0.3L35,23.5l-0.2,0.1v0.1l-0.2,0.1l-0.4,0.1h-0.3h-0.2l-0.3,0.2
	l-0.2,0.3l-0.3,0.2h-0.5h-0.1L32,24.8L31.9,25l-0.2,0.4l-0.2,0.3v0.6l0.1,0.3l0.6,0.6H32l-0.1-0.1h-0.2h-0.2l-0.4-0.4l-0.4-0.2h-0.3
	l-0.3-0.3l-0.4-0.2l-0.1-0.3v-0.4l-0.2-0.3l-0.1-0.5l0.2-0.2V24l-0.3-0.7l-0.4-0.3h-0.3l-0.3-0.2l-0.1-0.5l0.2-0.4L28.3,21l-0.6-0.8
	l-0.7-0.1h-0.4l-0.2,0.1h-0.3l0.1-0.4l0.4-0.4h0.2l-0.1-0.1h-0.2l-0.4-0.5l-0.4-0.3l-0.1-0.2L25.4,18l-0.1,0.1h-0.4v0.2l-0.3,0.3
	l-0.2-0.1l-0.1-0.3h-0.2L24,18.3h-0.8l-0.1,0.1l-0.2-0.1l-0.2,0.1l-0.3-0.1l-0.1-0.2l-0.1,0.1L22.1,18l-0.2,0.1L21.8,18l-0.1,0.1
	h-0.2L21.4,18l-0.1,0.1h-0.2l-0.3-0.3h-0.3l-0.4-0.3l-0.3-0.1l-0.1,0.1l-0.1-0.1h-0.1l-0.1,0.1h-0.1L19,17.4l-0.3,0.1l-0.1,0.1
	l-0.1-0.1h-0.1l-0.1,0.3l-0.2-0.1h-0.1l-0.1,0.1l-0.2-0.1v-0.2h-0.2l-0.1-0.1H17l-0.1-0.2h-0.2h-0.2l-0.2-0.1v-0.1L16,17.1h-0.1
	l-0.2,0.1l-0.5-0.1L15.2,17h-0.1l-0.1,0.2l-0.2,0.2h-0.2v0.2l-0.2,0.2l-0.2-0.1v-0.2l-0.1-0.1l-0.1,0.1v0.1l0.2,0.1L14.3,18h-0.1
	v-0.1H14L14,18l0.1,0.1v0.1l-0.1,0.1l-0.2-0.2l0.1-0.1v-0.2h-0.3l-0.2-0.1L13.6,17.6z M13,17.6h0.1l0.2-0.2l0.1-0.1l0.1-0.4
	l-0.1-0.1v-0.2l0.1-0.1h0.2v0.1l0.1,0.3l0.2,0.1l0.2-0.1v-0.2l-0.2-0.4v-0.1V16h-0.2l-0.1,0.1h-0.3L13.3,16l-0.1-0.6l-0.1-0.2
	l0.1-0.2l0.2-0.1l0.1-0.2l-0.2-0.1h-0.1L13,14.9l-0.3,0.1l-0.4-0.1l-0.4,0.2v0.1l0.1,0.1l0.2,0.4l0.3,0.2v0.1h-0.1v0.1l0.2,0.1h0.1
	l-0.1,0.1v0.4l0.2,0.2l0.1,0.4L13,17.6z M13.2,14.5H13l-0.2,0.1l0,0h-0.3l-0.1-0.1h-0.1l-0.1,0.1h-0.3v-0.2l-0.2-0.1h-0.1v-0.1
	l0.1-0.1h0.1h0.6l0.1-0.1l0.3,0.1l0.1,0.2h0.2L13.2,14.5z M13.1,13.2h0.2l0.1-0.2l0.1-0.1v-0.1l-0.2-0.1v-0.3l-0.3-0.2l-0.1,0.1
	h-0.2l-0.1,0.1l0.2,0.2v0.1l-0.1,0.1v0.1l0.2,0.1L13.1,13.2L13.1,13.2z M18.9,6.6L19,6.5l-0.1-0.1l0.2-0.1l0.1-0.1L19.4,6h0.9
	l0.2,0.1l-0.1,0.2l-0.3,0.1l-0.4,0.2h-0.4h-0.1v0.1h0.2l0.3,0.1l-0.1,0.1l0.3,0.3v0.2l-0.1,0.1l-0.1,0.7l-0.1,0.1h-0.2l-0.1-0.1
	h-0.4l-0.4,0.3l-0.3,0.1h-0.1V8.3l-0.3-0.1L17.7,8l0.2-0.2l-0.1-0.6L17.9,7h0.5l0.5-0.2L18.9,6.6z"></path>
	<polygon class="st0" style="fill: #ebebef;cursor: pointer;" points="6.7,27 6.8,27.1 6.8,27.2 7,27.1 7.1,26.9 7.2,26.6 7.2,26.4 7,26.1 7,25.9 7.1,25.8 6.7,25.6
	6.4,25.6 6.3,25.7 6.3,26.1 6.1,26.4 6.1,26.7 "></polygon>
	<polygon class="st0" style="fill: #ebebef;cursor: pointer;" points="26.6,45.8 26.5,45.7 26.3,45.2 26.3,44.8 26.1,44.5 26,43.7 26.1,43.5 26.1,43 26.3,42.7 26.3,42.5
	26.1,42.4 26.1,41.5 26.4,40.7 26.1,40.1 25.8,40 25.1,39.8 24.7,39.7 23.6,39.3 23.2,39 23,38.7 23,38.4 22.6,37.5 22,36.9
	21.8,36.8 21,36 20.6,35.5 20.4,35.4 20.3,35.3 19.8,35 19.4,34.5 19.2,34.5 19.1,34.4 19,34.2 18.6,34 18.2,34 17.6,33.7
	17.3,33.5 17.2,33.5 17.1,33.3 16.8,32.8 16.5,32.5 16.4,31.6 16.1,31.4 15.8,31.4 15.7,31.3 15.5,31.3 15.4,31.5 15.3,31.5
	15.1,31.3 14.9,31.2 14.7,31 14.6,31.1 14.5,31 14.2,30.7 14.1,30.5 13.9,30.3 13.8,30.2 13.7,30 13.9,29.8 14,29.4 13.9,29.2
	13.9,29.1 13.9,29.1 14,28.9 13.8,28.8 13.7,28.6 13.7,28.5 13.4,28.3 13.3,28.3 13.2,28.1 13.2,28 12.9,27.8 12.8,27.9 12.6,27.9
	12.5,27.8 12.2,27.8 12.2,27.9 12.1,28 11.9,27.8 11.7,27.8 11.4,27.6 11.1,27.5 10.9,27.3 10.5,27.1 10.4,27.2 10.3,27.1 10.3,27
	10.1,26.8 10,26.8 10,27 9.9,27 9.8,26.8 9.5,27.1 9.2,27.2 9,27 9.1,26.9 9.1,26.7 8.9,26.7 8.8,26.7 8.6,26.9 8.5,27.1 8.3,27.1
	8.1,26.9 8.2,26.7 8.1,26.6 8,26.6 7.8,26.5 7.6,26.5 7.4,26.3 7.4,25.8 7.3,25.8 7.2,25.9 7.1,26.1 7.3,26.3 7.3,26.5 7.5,26.6
	7.6,26.7 7.7,26.7 7.7,26.8 7.5,26.8 7.4,26.8 7.1,27.3 6.9,27.4 6.7,27.3 6.5,27.4 6.6,27.7 6.7,28 6.5,28.1 6.5,28.7 6.6,28.9
	6.8,28.8 7,28.6 7.2,28.6 7.4,28.4 7.6,28.4 7.8,28.6 7.7,28.8 7.5,28.9 7.5,29 7.5,29 7.5,28.9 7.6,28.8 7.5,28.6 7.5,28.5
	7.4,28.5 7.2,28.7 7.2,28.9 7,28.9 6.5,29.2 6.2,29.4 5.9,29.3 5.8,29.4 5.8,29.5 5.7,29.6 5.7,29.4 5.9,29.1 6,29.2 6.3,29.1
	6.3,28.8 6.1,28.6 6.1,28.4 6,28.2 6,28 6.1,27.9 5.9,27.8 5.8,27.7 5.6,27.8 5.6,27.9 5.7,28 5.8,28.3 5.7,28.4 5.6,28.2 5.3,28
	5.2,27.9 5.4,27.8 5.4,27.6 5.5,27.6 5.6,27.5 5.5,27.3 5.4,27.2 5.3,27.2 5.1,27.1 4.9,27 4.7,26.9 4.6,26.7 4.3,26.7 4.1,26.8
	4.1,26.9 4.3,27.1 4.1,27.2 4,27.3 3.9,27.3 3.7,27.1 3.6,27.1 3.6,27 3.6,26.8 3.3,26.8 3.1,26.9 3.1,27 2.7,27 2.5,27.2 2.5,27.6
	2.4,27.7 2.4,27.8 2.5,27.8 2.7,27.8 3.3,28.5 3.5,28.7 3.5,28.8 3.3,28.7 3.2,28.6 2.8,28.1 2.6,28.1 2.2,27.9 2.1,27.8 2.1,27.6
	2,27.5 1.9,27.4 1.7,27.4 1.5,27.5 1.4,27.6 1.3,27.7 1.2,27.8 1.2,27.9 1,28 1.1,28.3 1.3,28.3 1.4,28.1 1.4,28 1.6,28.1 1.7,28.4
	2,28.5 2,28.7 1.8,28.6 1.6,28.7 1.5,28.6 1.5,28.1 1.4,28.1 1.4,28.4 1.3,28.4 1.3,28.8 1.4,28.9 1.4,29 1.3,29.2 1.3,29.3
	1.3,29.4 1.5,29.5 1.5,30.1 1.9,30.3 2.1,30.3 2.3,30 2.4,29.8 2.5,29.9 2.4,30.3 2.1,30.5 1.8,30.6 1.6,30.5 1.4,30.4 1.2,30.1
	1,29.7 1,29.5 0.9,29.3 0.3,29.3 0.9,29.8 0.9,30.2 1.3,30.5 1.8,32 2,32.4 2.2,33.6 2,34.1 2.2,35.4 2.7,36.3 3,36.5 3,36.7
	2.9,37 3.1,37.5 3.1,37.7 3.3,38.2 3.2,38.6 3.5,39 4.2,39.5 4.2,39.9 4.4,40.6 5,41.2 5,41.5 5.2,41.9 5,42.3 5.3,42.8 5.4,43.1
	5.6,43.3 5.6,43.6 5.9,43.9 6,44.2 6.5,44.7 6.8,44.8 6.8,45.4 6.8,45.6 6.9,46.1 7.1,46.4 7.4,46.4 7.8,46.7 8.2,47.3 8.7,47.3
	9.6,47.5 10,47.8 10.5,48.1 10.6,48.5 11.1,48.6 12,48.9 12.5,49.1 12.9,49.1 13.5,48.7 13.8,48.7 14.5,48.2 14.9,48.2 15,48.1
	15.5,48.2 15.8,48.1 16,47.8 16.4,47.7 16.5,47.5 16.8,47.5 17,47.7 17.5,47.7 17.9,47.8 18.4,47.5 18.6,47.4 18.7,47.5 19.9,47.3
	20,47.4 20.2,47.4 20.7,47.1 20.8,47 21,47 21.3,46.8 21.6,46.8 21.9,46.6 22,46.2 22.4,45.9 22.5,45.9 22.7,45.7 23.4,45.6
	23.5,45.7 23.8,45.8 24.2,45.8 24.6,45.9 24.9,45.9 25.1,45.9 25.5,46.2 25.6,46.2 26,46.3 26.3,46.3 26.3,46.1 26.6,46 "></polygon>
	<path name="XXXX" data-id="" id="path6427" class="cls-1" d="M16.9,17.1l0.1,0.2h0.4l0.1,0.1h0.2v0.2l0.2,0.1l0.1-0.1h0.1l0.2,0.1l0.1-0.3h0.1l0.1,0.1
	l0.1-0.1l0.3-0.1l0.2,0.3h0.1l0.1-0.1h0.1l0.1,0.1l0.1-0.1l0.3,0.1l0.4,0.3h0.3l0.3,0.3h0.2l0.1-0.1l0.1,0.1h0.2l0.1-0.1l0.1,0.1
	l0.2-0.1l0.2,0.1l0.1-0.1l0.1,0.2l0.3,0.1l0.2-0.1l0.2,0.1l0.1-0.1h0.8l0.1-0.1h0.2l0.1,0.3l0.2,0.1l0.3-0.3v-0.2h0.3l0.1-0.1
	l0.3,0.3l0.1,0.2l0.4,0.3l0.4,0.5h0.2l0.1,0.1h-0.2l-0.4,0.4l-0.1,0.4h0.3l0.2-0.1H27l0.7,0.1l0.6,0.8l0.1,0.9l-0.2,0.4l0.1,0.5
	l0.3,0.2h0.2l0.4,0.3l0.3,0.7v0.4l-0.2,0.2l0.1,0.5l0.2,0.3v0.4l0.1,0.3l0.4,0.2l0.3,0.3l-0.3,0.7l0.3,0.5l0.4,0.1l0.7,0.1l0.3,0.2
	l-0.2,0.1v0.3l0.2,0.4v0.4l-0.6,0.4l-0.5,0.5l-1.1,0.2l-0.4,0.3v0.3l0.1,0.1L29.2,31l0.1,0.2l0.3,0.3l-0.2,0.1h-0.3l-0.6,0.5
	l-0.1,0.1v0.4l0.1,0.4l-0.1,0.5l0.1,0.3L28.2,34v0.3l-0.1,0.7l-0.3,0.2l-0.3,0.3v0.4l-0.1,0.5l-0.3,0.2l-0.4-0.1l-0.2,0.3l0.3,0.4
	l-0.1,0.6l-0.5,0.8v0.5l-0.2,0.5v0.7L25.7,40l-0.6-0.2l-0.4-0.2l-1.1-0.4L23.2,39L23,38.7v-0.4l-0.4-0.9L22,36.8l-0.2-0.1L21,35.9
	l-0.4-0.4l-0.2-0.1l-0.1-0.2L19.8,35l-0.4-0.5h-0.2l-0.1-0.1v-0.2l-0.4-0.2h-0.4l-0.6-0.3l-0.3-0.2h-0.2l-0.1-0.2l-0.3-0.4l-0.3-0.4
	l-0.2-0.8l-0.3-0.3h-0.3l-0.1-0.1h-0.1l-0.2,0.2h-0.1l-0.2-0.2l-0.2-0.1L14.7,31h-0.1l-0.2-0.1l-0.3-0.3l-0.1-0.2l-0.2-0.3h-0.1
	l-0.1-0.2l0.2-0.1l0.1-0.5l-0.1-0.1v-0.1l0.1-0.1v-0.2l-0.2-0.1l-0.1-0.2v-0.1l-0.2-0.2h-0.1L13.2,28v-0.1l-0.3-0.2l-0.1,0.1h-0.2
	l-0.1-0.1h-0.3v0.1l-0.1,0.1l-0.2-0.1h-0.2l-0.3-0.3h-0.3l-0.2-0.3L10.5,27l-0.2,0.1L10.3,27v-0.1l-0.2-0.2H10v0.2H9.9l-0.1-0.2
	L9.5,27l-0.3,0.1L9,26.9l0.1-0.2v-0.1H8.9H8.7l-0.1,0.1L8.4,27H8.3l-0.2-0.3l0.1-0.1l-0.1-0.1l0.3-0.2v-0.2H8.3L8.4,26H8.3H8.1
	l0.1,0.3H8l-0.1-0.1H7.6l-0.1,0.1l-0.1-0.1l0.1-0.3l-0.1-0.2H7.2l-0.3-0.2H6.5l-0.2,0.1l-0.1,0.3l0,0l-0.1-0.4v-0.3v-0.2v-0.1
	l0.3-0.4l0.3-0.2v0.1l-0.1,0.1v0.2l0.1,0.1l0.1,0.3l0.1-0.3l-0.1-0.2l0.1-0.1h0.3l0.2-0.1l0.1,0.1l-0.1,0.1v0.3l0.1,0.1v0.1
	l-0.1,0.3l-0.1,0.1l0.2,0.1l0.2,0.2l0.2,0l0.3,0.1v-0.1L8,25.4H7.8l0.1-0.1h0.2v-0.1L8.4,25h0.1v0.1l0.4,0.3h0.3l0.1-0.1h0.1
	l0.5,0.3H10l0.1,0.1l0.1-0.1l-0.1-0.2H9.9l-0.1-0.1l-0.2-0.2l-0.1-0.1H9.2l-0.1,0.1L9,25.1V25l-0.4-0.3H8.4l-0.1,0.1l-0.6,0.1
	l-0.1,0.2l-0.2,0.2v-0.2L7.5,25v-0.2l-0.2-0.3l0.1-0.3l0.2-0.1L7.8,24h0.2l0.5,0.3v0.2h0.2v-0.1l-0.1-0.2v-0.3l0.1-0.1H9L9.2,24
	l0.1,0.1L9.4,24H10l-0.1-0.1l-0.1,0.2H9.6l-0.1,0.1l0.2,0.1l0.4-0.3l0.3-0.1h0.4l-0.4-0.2v-0.2l0.2-0.1h0.4l0.1-0.1h0.6l0.1-0.1
	l0.3-0.1v-0.2l0.1-0.1v-0.1H12v-0.1v-0.1h-0.2l-0.1,0.1l0.2,0.1l-0.1,0.2h-0.2l-0.2,0.2l-0.3-0.1v-0.1h-0.1l-0.3,0.1l-0.5,0.2
	l-0.1,0.2l-0.1,0.1L10,23.6l0.1-0.1L10,23.3H9.9l-0.1,0.1H9.6v-0.3H9.4v0.1l-0.1,0.1L9.1,23L9,22.9l-0.4-0.1L8.2,23L8,22.9H7.6v-0.3
	l0.2-0.3L7.9,22l0.4-0.2l0.3-0.3l0.4-0.1l0.3-0.1L9.5,21h0.3v-0.1h0.1L10,21h0.1v-0.2l0.2-0.1l-0.1-0.4v-0.3L10.1,20v-0.2l0.1-0.1
	h0.3l0.7,0.5h0.4l0.2-0.2l0.1-0.2v-0.2l0.2-0.1v-0.2l0.2-0.1l0.1-0.1l0.1-0.1v-0.1l-0.2-0.1h-0.3l-0.2,0.1l-0.1-0.1v-0.1h0.2
	l0.1-0.1l0.1-0.3h0.1l0.1,0.3l0.1,0.1h0.1v-0.1l0.4-0.1h0.2l0.1-0.2l-0.1-0.2l-0.1-0.1l0.1-0.2l0.2,0.1h0.3V18l-0.1,0.1l0.2,0.2
	l0.1-0.1v-0.1L13.8,18l0.1-0.1h0.1V18h0.1l0.1-0.2L14,17.7v-0.1l0.1-0.1l0.1,0.1v0.1l0.2,0.1l0.2-0.2v-0.2h0.2l0.2-0.2L15,17H15
	l0.1,0.1l0.5,0.1l0.2-0.1h0.1l0.1-0.1V17l0.2,0.1h0.2L16.9,17.1z M11.4,19.9h0.2l0.1-0.2l0.1-0.1v-0.3h0.1l0.2-0.3h0.1v-0.1H12
	l-0.2,0.1l-0.1-0.1l-0.1-0.1l0.1-0.1v-0.1l0.2-0.1l0.1-0.2v-0.1l0.2-0.1l0.1,0.1l0.2,0.1l0.1,0.2h0.2l0.1-0.1l0,0l0.1,0.1h0.2
	l0.1-0.1V18h-0.3l-0.4-0.2l-0.3-0.6L12,17.1h-0.2l-0.3-0.3l-0.1,0.1l-0.1,0.2l0.1,0.3l0.1,0.1l-0.1,0.1l-0.1-0.1v-0.2l-0.2-0.1
	l0.1-0.2l-0.1-0.2h-0.2v0.1L10.8,17l0.1,0.1l-0.1,0.2l-0.2,0.1v0.1l0.1,0.1v0.3l0.2,0.1h0l-0.2,0.3h-0.1l-0.2,0.1v0.2h0.1l0.3,0.4
	v0.1l0.4,0.3v0.3L11.4,19.9z" disabled="disabled" style="pointer-events: none;"></path>
	<path name="Piamonte" scale="3" move="10" data-id="405" id="path7153" class="cls-1" d="M78.2,93.2l-0.1,0v-0.4l-0.2-0.1l-0.1,0.1L77.7,93l-0.1,0.1l-0.1-0.2h-0.2l-0.1,0.1l-0.3,0.1
	l-0.3-0.1L76.6,93l-0.2,0L76,92.8h-0.3l-0.1-0.1l-0.1,0.1l0.1,0.2l-0.1,0L75,92.6h-0.2l-0.2-0.1v-0.2h-0.1l-0.1,0.1h-0.3L74,92.6
	h-0.2l-0.2-0.2h-0.3v-0.2H73l-0.6-0.5v-0.3l0.1-0.1L72.4,91l-0.2-0.1v-0.3l0.1-0.1l-0.1-0.2h-0.2l-0.1-0.2h-0.3l-0.1,0.1h-0.2v-0.1
	l0.3-0.2v-0.1l-0.2-0.1v-0.2l0.4-0.2l0.2-0.4l-0.1-0.1l-0.2-0.4l-0.4-0.2v-0.5l0.2-0.1l0.6-0.6v-0.2l0.4-0.4l0.4,0l0.2-0.3l0.3,0
	l0.3-0.6l0.4-0.4v-0.3l0.6-0.3l0.3-0.5l0.3,0.1l0.1-0.5l-0.4-0.3v-0.2l0.3-0.1l0.2-0.2l0.3-0.1l0.2-0.8L76,81.5l0.1-0.9l0.2-0.2
	l-0.2-0.5l0.3-0.1l0.2-0.2l0.1-0.4l0.1-0.3l0.4-0.2v-0.5h-0.3l-0.1-0.3l0.1-0.4l-0.2-0.1l-0.1-0.4l0.2-0.1v-0.4l-0.1-0.3l0.2-0.3
	h0.3v-0.3h0.3l0.2-0.3l-0.2-0.4l0.2-0.3l0.1-0.3h-0.3L77,74.3h-0.4l-0.3,0.1l-0.3-0.2l-0.2,0.2h-0.3l-0.4-0.3l-0.3-0.5l-0.3-0.1
	l0.1,0.2l-0.2,0.1v0.3l-0.4,0.4v0.2l-0.3,0.1l-0.5,0.4l-0.2,0.1l-0.3,0.3l-0.2,0.8l0.1,1.6l0.1,0.3l-0.2,0.2h-0.3l-0.2-0.1h-0.3
	l-0.4-0.1V78h-0.2l-0.1,0.2l-0.2,0.1v0.3l0.1,0.1l-0.4,0.5l-0.1,0.5l-0.4,0.3l0.1,0.3L70,80.7l-0.4,0.2l-0.1,0.6L69.2,82h-0.4
	l-0.6,0.1l-0.4,0.3l-0.6,0.3H67l-0.1,0.3l0.1,0.3l-0.3,0.4l0.4,0.1L67,84.2l-0.2,0.2v0.1l-0.1,0.3l-0.3,0.3v0.3l-0.2,0.1L66,85.4
	l-0.6,0.1h-0.6l-0.1-0.1l-0.2,0.1v0.2l-0.3,0.1l-0.1,0.4l-0.1,0.4h-0.2l-0.2-0.1l-0.2,0.3l-0.3,0.3H63l-0.3,0.2h-0.3v0.3l-0.1,0.2
	v0.5l-0.2,0.2l-0.4,0.2l-0.3,0.1l-0.1,0.1l-0.2,0.1l-0.2,0.3v0.3L60.8,90v0.2v0.2l-0.3,0.4v0.4l0.1,0.3l-0.1,0.4l-0.2,0.5l-0.4,0.4
	l0.1,0.2l0.1,0.3l-0.2,0.2l0.3,0.3V94v0.2l0.2,0.5l0.2,0.2l0.2,0.4v0.3l0.3,0.2h0.2l0.3,0.1l0.1,0.2l0.4,0.1l0.4,0.1h0.2h0.3
	l0.5,0.2v0.3l0.3,0.2l0.1,0.3l0.4,0.4h0.3h0.2l0.1,0.2l0.4,0.3v0.1l0.3,0.1l0.1,0.1l-0.1,0.1l0.1,0.3l0.2,0h0.3l0.2,0.2l0.2,0.1v0
	h0.1l0.2-0.2h0.1l0.1,0.1h0.1l0.1-0.1v-0.3h0.1l0.1-0.1v-0.2l0.1-0.1h0.2v0.1l0.3,0.2h0.3l0.2-0.1v-0.1l0.2-0.1h0.7l0.1,0.2h0.3
	l0.1,0.1l0.1,0.1h0.3l0.2-0.1l0.1,0.2L70,98.9l0.2,0.2v0.2l0.3,0.1l0.1-0.1l0.1-0.2l0.3-0.1l0.2-0.1h0.2v0.1l0.3,0.1l0.2-0.1
	l0.3,0.2l0.2-0.1V99l0.1-0.3l0.1-0.2l0.2-0.1l0.2,0.1v0.2l0.1,0.1l0.3-0.1l0.3-0.2l0.2-0.1l0.3,0.4l0.3,0.1l0.2-0.1l-0.2-0.4
	l0.2-0.2h0.9l0.7-0.3l0.2-0.3l-0.1-0.3l-0.3,0l-0.4-0.3v-0.3l0.1-0.1l0.2,0.1l0.5,0.2h0.5l0.2-0.1V97l-0.3-0.2v-0.3l0.2-0.1h0.4
	l0.5,0.3l0.4,0.4l0.6,0.1l0.2,0.1h0.3l0.4-0.2l0.2-0.4l0.4-0.1l0.2,0.1l0.4-0.2l0.4-0.4l-0.3-0.5v-0.2l-0.5-0.1v-0.2l0.3-0.1
	l0.3-0.3L81,94.7l-0.1-0.2h-0.1l-0.3,0.1l-0.1-0.1v-0.4L80,94.1l-0.2-0.1h-0.3l-0.2-0.1l0.2-0.2l-0.1-0.3H79l-0.2,0.1h-0.1h-0.3
	v-0.2L78.2,93.2z" style="fill: rgb(210, 210, 230);"></path>




</svg>