<svg data-id="9" id="Cesar" data-name="Cesar" xmlns="http://www.w3.org/2000/svg" viewBox="0 0 98.52 170">
    <defs>
        <style>.cls-1{fill: #ebebef;;stroke:#fff;stroke-miterlimit:3.86;stroke-width:0.25px;}</style>
    </defs>
    <path name="XXXX" data-id="" id="path5577" class="cls-1" d="M177.36,245.73l-.14.16.11.28-.11.37,0,.19.12.13v.57l.24.54-.12.19.19.27v.4l-.07.12,0,.34-.1.48-.26.11,0,.29.56.18v.52l-.16.13-.08.74-.25.25-.53-.13h-.24l-.41.8-.33.25H175l-.24.12-.14-.11-.08.09-.27-.07-.56.22v.23l-.28.16-.13-.07H173l-.09.23h-.38l-.08.06.06.07v.1l-.22.18-.13-.07-.54-.08,0-.2-.21,0-.46.2-.47-.25.15-.08V253l-.13-.09-.22-.49-1.23-1-.23-.07-.15-.41-.15,0-.38.3v.33l-.43.6-.71.38-.26,0-.27.28v.18l-.14.1-.17-.09-.68.37-.23.36-.31,0-.13-.14-.07-.59.1-.14v-.18l-.22-.15-.27.05-.19-.32-.06-3.08.2-.6-.07-3.83.22-.95h.43l.17.28.18.07.26-.23.29.05.18.15.29-.2.2,0,.27.23.68-.71.46.06.11.11h.59l0-.12v-.12l.24-.19.2,0,.17-.44.27,0,.23-.19.14-.32L170,242l.76.34v.26l-.2.24.07.36.48.06.18.15-.06,1.2.13.12.23,0-.06.33.49.27-.08.21.4.15.93,0,.38.44.39,0,.4.32.29-.13,0-.08.18-.11h.28l.22-.14h.41l.23-.27.32,0,.53-.16.48.09Z" transform="translate(-141.1 -152.7)" disabled="disabled" style="pointer-events: none;"></path>
    <path name="La Jagua de Ibirico" scale="3.7" move="10" data-id="435" id="path6441" class="cls-1" d="M188.8,224.6l0-.63.21-.29-.3-.52-.73-.27-.11-.27-.54.08-.71-.39-.36.27-.28-.27-.63.66.09.23a1,1,0,0,1-.19.08.66.66,0,0,1-.26,0l-.13.1h-.73l-.47-.41-.65,0-.39-.33-.56-.13-.25.23-.52-.06-.3.6-.35.1,0-.16-.11,0-.19.14-.37-.56.11-.18-.58-.17-.08-.21-.22.29-.06-.2-.26,0-.2-.06,0-.11-.18-.21-.58.21-.21-.1,0-.19-.13-.35-.21.25-.46-.17-.1-.23-.22,0-.11.15h-.23l-.35.27v.14l-.38,0-.35-.08,0-.23-.81-.06-.22.23-.28.1-.23-.1v-.19l-.31-.39-.81-.15-.15-.21.06-.47H172l-.06-.19L170.7,220l-.17.2-.3-.06-.07-.52H170l.2-.33.28.06,0,.11.21-.11.5,0,.3-.29.41,0,.08-.19h.13l.15.31.26-.1.17,0,.2-.3,0-.31.32,0,.3-.63.61-.16-.13-.19,0-.39.56-.47.34-.14,1.43-1,.18-.22.16-.07.06-.1-.14-.07v-.15l.15,0,.08-.14h.11l0-.22-.3-.25h-.45l-.2.1-.21-.24-.2.18,0,.16-.18.1,0-.3-.41-.06-.28-.19-.48,0-.22-.17.06-.48.23-.18.06-.61.12-.18-.06-.3h.41l.15-.29-.11-.17.3-.37.41,0,.24-.12.08.14-.11.08.07.09.47.08.2.15.32-.07.11.21.34,0,0,.13.26-.27.15.29.19,0,0,.27.18.2.34.11,0,.19.24,0V213l.26.08.3-.12v.27l.49.33.31-.23,0,.36.21.08.09.23-.34.25,0,.14h.28l.06.1,0,.36.43.06v.16l.13.15-.06.17.41,0,.41.18.06.25h.17l.2-.08.1.06,0,.15.24.31.69.1.3,0,.08-.14.35.08.47-.37.43-.17.15-.29.24.19,0,.25.45-.34.73.15.13.21.5-.09.06-.18.3-.09.3-.29v-.2l.15,0h.22l.21-.17v-.29l.26-.15.6,0,.09-.16.52,0,.13-.11,1.05.38.21-.09.71.32.48-.23.17-.29.52-.29.08-.31.28.27.78.26,1.67-.08-.06.36,0,.49-.11.6-.3.52v.45l-.27.33.26.33-.31.41-.81-.16-.83.45H193l-1,.73-.41.72v.32L191,220l-.55.7.32.67-.2.47-.36,0L190,222l-.48-.08-.4.67.66.29.25.37-.76.51.08.43-.51.4Z" transform="translate(-141.1 -152.7)" style="fill: rgb(210, 210, 230);"></path>
    <path name="XXXX" data-id="" id="path6506" class="cls-1" d="M169.07,202.74l.13-.6.11-.39-.37-.36.37-.74-.27-.74.1-.36.33.07.47-.07.1-.32.24-.32.13-.58-.2-.36.4-.13.3-.45.44-1.07.4-.6.07-.11,0-.22.3-.1h.63l1-.52v-.35l.37-.78v-.39l-.44-.25.24-.59.4-.25.18,0,.43-.19.17-.22.56-.11.05.16.66.17,0-.24.2-.27,0,.15h.67l.34-.15.17-.3.85-.83.11-.26.15,0-.06-.19.36-.23.18-.24-.16-.25.08-.23.48-.4.23-.48h.25v-.18l.28-.35h.1l.09.21.23-.13v-.22l.25-.24,0-.08.28-.07,0-.09-.18-.15.28-.17,0-.21.13-.06.05.2h.26v-.19l.3-.16.05-.3.37-.24.23,0,.31-.08.17-.22.4-.15.2.21V185l.3-.17,0-.24-.11-.1.24-.06,0-.18.59-.37-.22-.22.25-.3.13.11.37-.39-.24-.12-.06-.21-.35,0,0-.06.3-.23.26-.08.1-.25.09,0,.11.14.15,0,.18-.38-.25-.07v-.44l-.08-.07.19-.21.1.07.32-.34.16.06.11-.09-.39-.33.19-.53.2,0,0-.18h-.36l-.07-.18.22-.09-.1-.34,0-.19.14.1H187l.1-.13-.28-.1.26-.43.21,0,.06,0h.34l.09-.11.29,0,.12.21.12.06.22-.09.3.21,0,.1.15,0,.09-.08h.1l.84.52h.3l.17-.17.13,0,.08.1.29,0,.23.13.28,0,.28.23h.23l.2-.22.5,0L193,179h.27v6.87l-2.29,0v4.45H188.3l.09-.17-.29-.19h-.49l-.36.28-.45,0-.17.12h-.19l-.1-.18h-.19l-.18.18-.17-.08,0-.14-.23.05,0,.18-.15,0-.12-.05-.17.06-.16.16h-.29l-.2-.22.06-.09-.24-.06-.31.16v.86l-.26,0,0-.1-.33.05-.08.14-.14-.09-.46.19-.06.16-.16.06-.27-.09-.26.07-.08.18-.23-.1-.07-.2-.61,0-.14.13-.11-.05v0l-.28,0-.08-.07-.17,0-.08.12H180l-.13.1-.26,0,0-.07-.26.19-.1.38-.15.08-.38.46v.17l-.33.34,0,.23-.43.42h-.13l-.15.23.09.18.13.06,0,.12-.16.11v.27l-.26.14-.08-.09H175.7l-.15.12-.77.07-.41.33-.11,0-.14-.18-.16.05-2.54,5.33,0,.17h-.11l-.06-.11h-.39l-.18.06,0,.19-.46.78-.08.08,0,.2.1.06-.17.36-.79.52-.19-.19Z" transform="translate(-141.1 -152.7)" disabled="disabled" style="pointer-events: none;"></path>
    <path name="XXXX" data-id="" id="path6512" class="cls-1" d="M181.2,278.73l-.07-.33-.25-.09.11-.08v-.13l-.18-.06-.21-.38-.16-.05-.08-.21.21,0,.07-.12-.39-.34-.53-.08-.17.41h-.19l-.07.11h-.13l0-.28L179,277l-.56,0,.35-.45.54,0,.22-.35-.17-.74-.08-.12-.28,0-.42-.74.13-.45-.24-.32.16-.1-.34-.24-.12-.81.24-.38.11.2.47.06,1-.27,0-.24.14-.1v.2l.32.21.7,0,.29.3,0,.21.56.69.14,0,.23.25-.1.21-.49.95-.14.15-.1.27.08.49.19.12v.15l-.25.15-.09.64h.12l-.12,1.33-.16.07.38.29Z" transform="translate(-141.1 -152.7)" disabled="disabled" style="pointer-events: none;"></path>
    <path name="XXXX" data-id="" id="path6562" class="cls-1" d="M181.13,278.4l-.25-.09.11-.08v-.13l-.18-.06-.21-.38-.16-.05-.08-.21.21,0,.07-.12-.39-.34-.53-.08-.17.41h-.19l-.07.11h-.13l0-.28L179,277l-.56.05-.51-.09-.08.4-.27,0,0-.38-.39.31.08.44-.22.15-.06.47-.23,0-.07-.09-.58-.2-.13-.47-.6.8-.23.58-1.32,1-.05.44-.42.27v.14l-.16.06-.18-.16-.23.19,0,.26-.37.21,0,.88-.38.51-.19,0-.19.23v.18l-.18.06v.28l.09,0,0,.69-.23.41,0,.45-.21-.08-.12.16-.44.13-.53.39-.35.11-.14-.11-.11.24,0,.17-.48.3,1,2,.95,1.45-.11.13-.77-.49-.19,0-.13.26-.43,0-.37.3-.3,0-.2-.16-2,0,.78,1.95.62,0,.9.08.13.08h.21l.23-.17.06,0,0,.11.3.22.22,0L170,292l.33,0,.1-.29H171l.1-.12.58,0,.31.27.3,0,.17-.28.21,0,0,.12h.51l.06.19h.13l.29-.38.07.12h.1l.4-.43.45,0,.17-.15.76-.22.66,0,.08.14.56.19.55,0s.07-.18.12-.19l.41,0V291l.23,0s.36-.3.36-.3v-.42l.48-.44.45,0,.16-.05.08-.28-.24,0,0-.2-.21,0-.4.27-.3-.23-.21-.85-.63-.48-.54-.22v-.1l.23-.24.12-.93-.16-.23.25-.29.36.09.35-.18v-.43l-.26-.14.28-.22.24-.51.12-.29-.12-.19.19-.19.3-.15.23-.41-.06-.22-.15-.08.29-.62.33-.11.49-.47.21.07.25-.13v-.22l-.32-.45-.06-.57-.15-.15.09-.17.17-.06-.17-.25.4-.23-.12-.36-.13-.1.77-.55Z" transform="translate(-141.1 -152.7)" disabled="disabled" style="pointer-events: none;"></path>
    <path name="XXXX" data-id="" id="path5566" class="cls-1" d="M177.57,254.59l0-.29.25-.65-.73-.6-.32-.9.07-.3-.24,0-.41.8-.33.25H175l-.24.12-.14-.11-.08.09-.27-.07-.56.22v.23l-.28.16-.13-.07H173l-.09.23h-.38l-.08.06.06.07v.1l-.22.18-.13-.07-.54-.08,0-.2-.21,0-.46.2-.47-.25.15-.08V253l-.13-.09-.22-.49-1.23-1-.23-.07-.15-.41-.15,0-.38.3v.33l-.43.6-.71.38-.26,0-.27.28v.18l-.14.1-.17-.09-.68.37-.23.38-.08.37.11.35-.3.76,0,.59-.19.84-.34,0-.16.28.16,1.51h-.14l-.18-.23-.47-.17-1.46.3-.28.25.49.29.09,1.5.2,0,.85-.43.53,0,.65.53-.07,1.08.2,1.29.27.27h.41l.27-.24.81,0,.26-.41-.2-.1,0-.27.17,0,.09,0,.17,0-.05-.2.18.07.17-.13v-.45h.2l.62-.66-.14-.13.16-.21.06-.8-.28-.41.19,0,0-.34.14-.09.07-.51.4-.15v-.38l.62-.42,0-.3.57-.3h.4l.08.11.44,0,.23-.28.35-.09.06.18h.15l.07-.31.4-.06.12-.16.37,0,.07.09-.13.18.27.35H173l.17-.5.2,0,.19-.37.34,0,.33-.21h.22l.07.2.32.08.21-.25.29.11.7-.28.14.06.36,0,.45-.67Z" transform="translate(-141.1 -152.7)" disabled="disabled" style="pointer-events: none;"></path>
    <path name="XXXX" data-id="" id="path6509" class="cls-1" d="M164.69,232.08,165,232l.13-.22.31.08c.06,0,.17.14.17.14h.19l.31-.31.48-.07.13-.23H167l.11.16.15-.15.18.07-.06.27.41.23.16,0,.22-.26.19,0,.41.16.18-.21.21,0,.09.22.2,0,.2-.09.08.19.16,0,.6-.65h.71l.2-.33,0-.28h.33l.26-.54.5-.25.05-.17.29,0,.35-.23.45,0,.16.08.13-.23,0-.34.3.08.38-.33.11-.58H175l.35-1.1.17-.27.21,0,.12-.24,0-.2.29-.12,0-.18-.12,0,.06-.17.56-.3.17,0v-.25l.11-.05.3.21.37-.32.19.1.2-.18.73.41.27-.17.35,0,.23.15.23-.2.38.28-.15.24,0,.16.33,0,.11-.06.26.29-.15.19.15.12-.47.53.3.12.09.57.52.13.39.44h.08l.23-.34.33,0,0,.1.41,0,.2.19.44-.13.09-.09.31.22-.06.11.18,0,.68.06.43.38.3-.1.54.71.56-1.07-.35-.32.19-1,.69-.27.37-.62,0-.66,1-.93.5,0,0-.63.21-.29-.3-.52-.73-.27-.11-.27-.54.08-.71-.39-.36.27-.28-.27-.63.66.09.23a1,1,0,0,1-.19.08.66.66,0,0,1-.26,0l-.13.1h-.73l-.47-.41-.65,0-.39-.33-.56-.13-.25.23-.52-.06-.3.6-.35.1,0-.16-.11,0-.19.14-.37-.56.11-.18-.58-.17-.08-.21-.22.29-.06-.2-.26,0-.2-.06,0-.11-.18-.21-.58.21-.21-.1,0-.19-.13-.35-.21.25-.46-.17-.1-.23-.22,0-.11.15h-.23l-.35.27v.14l-.38,0-.35-.08,0-.23-.81-.06-.22.23-.28.1-.23-.1v-.19l-.31-.39-.81-.15-.15-.21.06-.47H172l-.06-.19L170.7,220l-.17.2-.3-.06-.07-.52H170l.2-.33.28.06,0,.11.21-.11.5,0,.3-.29.41,0,.08-.19h.13l.15.31.26-.1.17,0,.2-.3,0-.31.32,0,.3-.63.61-.16-.13-.19,0-.39.56-.47-.37-.07-.72-.19-.09-.25-.41-.13-.45-.26-.75,0-.15.1-.49-.25-.1-.1-.14,0-.38.27-1,.11-.19.2-.33.25-.55,0,0-.16-.24.09-.06.15-.49.27-.24,0v-.11h-.06l-.64.68-.38.2-.08.85.29.38.38,0,.43,0,.13.15,0,.13-.12,0,.06.23.17.12-.06.19-8.34.06v.2l-.12.27.19.35-.12.5-.14.22.23.44.23.07.47.18.5,0,.21.2,0,.3.19.12,0,.32-.39.3,0,.4.1.34.19.13.09.63.21.21v.51l.34.77-.19.17.06.54.45.28-.07.54.36.19v.47l.24.25.44.1.17.44-.06.21.29.41.07.53-.07.29.1.15-.09.31.28.85.29.48.39.09.05-.08.41-.29Z" transform="translate(-141.1 -152.7)" disabled="disabled" style="pointer-events: none;"></path>
    <path name="XXXX" data-id="" id="path6542" class="cls-1" d="M184.45,295.9,179,299.13h-.33l0-.25-.14-.25h-.12l.16-.27-.34-.42-.4,0-.13-.14-.49.25-.36.05-.15.66-.1.24-.22.07v.08l.23,0,0,.13-.17.06,0,.35-.28.1,0,.1.15.08-.15.2,0,.07.21.08,0,.09h-.14l-.38.58.07.6-.29.14.07.35h-.18l-.06-.07-.25.22-.07.42.16.05-.07.2L175,303l-.12.25v.28l.17.08-.29.25h-.28l-.33.32h-.43l-.17.18-.29-.11H173l-.37.42.07.23-.25.22-.47-.25-.19-.53,0-.26-.17-.13h-.3l-.77-.44-.06-.21-.7,0-.25.08-.26.4-1,.54-.14.35h-.22v-.13l-.34.08-.32.11-.39-.08v-.11h-.24l-.11.07-.32-.11-.06-.11-.09,0,0,.2-.26.2h-.16l0,.19.39.23.11.38.2.09-.08.18-.29,0V306l.23,0,.14.1-.09.22.18.14,0,.39-.07.1.2.36.84.27h.37l.44.22.44-.07h.14l.05.15.83.14.32-.13.11.1.72.16.14.18-.07.05.1.17h.29l.09.12-.11.1.52.63.18-.08H172l.17.22.48.11.08-.12H173l.18.39-.05.23.11.12.2.07.25.24-.09.12.11.09.75.15.11.12.36,0,.21-.19h.15l.61-.27.06-.3.12-.13.22.09.41-.1.14-.14.08.07.27-.05.15-.26h.11l.26-.29.2.09.82-.56V309H179l.14-.26-.16,0-.33-.07.23-.05.1-.26.42-.2-.07-.19.65-.57,0-.24.16-.28h.13l.34-.2.27-.63h.09l.47-.63.12.17.33-.27-.16-.13.1-.27.11,0,0-.2-.11,0v-.25h.61l0-.1-.13,0,0-.19-.17-.16-.17-.3.16-.18.11,0,.17-.2,0-.11h-.23L182,303l.06-.17-.06-.43-.25-.07-.11-.16V302h.1l0-.39h.1l.06-.15-.17-.08-.07-.13.12,0,.11-.15,0-.22-.18-.08-.07-.29.18-.08.15-.17-.06-.11,0-.07H182l.32-.1.13.12.21-.2.12,0,.07.12H183l.14-.22.35-.06.22.26.16-.16.39,0,0-.39.17-.44.24,0,.42-.21,0-.17.25-.16.21-.05V298l.17-.08v-1.26l-.31-1.16-.17,0-.54.41Z" transform="translate(-141.1 -152.7)" disabled="disabled" style="pointer-events: none;"></path>
    <path name="Curumaní" scale="4" move="15" data-id="429" id="path6556" class="cls-1" d="M177.92,239.53l.09-.3.46-.27.07-1,.58-.52.68.58,1-.46-.08-.4.23-.24,0-.18.21-.71-.15-.14.65-1.09.66.07.93-.66.43-1.38.48-.22.7-1.36.05-1.1.2-.48.4-.14.3.24.13-.26-.54-.71-.3.1-.43-.38-.68-.06-.18,0,.06-.11-.31-.22-.09.09-.44.13-.2-.19-.41,0,0-.1-.33,0-.23.34h-.08l-.39-.44-.52-.13-.09-.57-.3-.12.47-.53-.15-.12.15-.19-.26-.29-.11.06-.33,0,0-.16.15-.24-.38-.28-.23.2-.23-.15-.35,0-.27.17-.73-.41-.2.18-.19-.1-.37.32-.3-.21-.11.05v.25l-.17,0-.56.3-.06.17.12,0,0,.18-.29.12,0,.2-.12.24-.21,0-.17.27-.35,1.1h-.38l-.11.58-.38.33-.3-.08,0,.34-.13.23-.16-.08-.45,0-.35.23-.29,0-.05.17-.5.25-.26.54h-.33l0,.28-.2.33h-.71l-.6.65-.16,0-.08-.19-.2.09-.2,0-.09-.22-.21,0-.18.21-.41-.16-.19,0-.22.26-.16,0-.41-.23.06-.27-.18-.07-.15.15-.11-.16h-.19l-.13.23-.48.07-.31.31h-.19s-.11-.13-.17-.14l-.31-.08L165,232l-.36.1-.25.17-.16.12-.17.3,0,.59.17.27,0,.38-.18.23,0,.47-.09.25.47.08-.2.19.26.25.23.43v.31h.34l0,.34.21.25.23.06V237l-.21.05v.15l.17.06.08.39.21.27.05.57.18.12-.17.1,0,.26-.13.19.1.08,0,.16-.09,0,.06.06h.23l0,.17-.08.11,0,.13.14.09v.2l.15.06-.14.19.06.2.22.21-.2.1.09.33.27.05.2.22-.17.12.22.35.26.09.24-.09.26.08.26-.24h.22l.08-.31.14-.15.3.06.24-.2v-.14l.22-.22h.15l.2-.12h.74l.29-.07,0-.15.22-.11h.17l.38-.49h.25l.33.25h.2l.27-.29.23-.54.15,0,.11,0h.45l.05-.24.2-.17.65.11.72-.15.54.06H176l.62-.22.73.51.58.24Z" transform="translate(-141.1 -152.7)" style="fill: rgb(210, 210, 230);"></path>
    <path name="Becerril" scale="2.7" move="10" data-id="425" id="path6439" class="cls-1" d="M166.36,213.14l.43.17-.1.29.47.07v.15l.27,0,.26-.2.42,0,.17-.16-.11,0,.11-.14.09.1.24.09.11-.13.09.17.36.06.24-.3.39,0,.19-.21h.1V213l.27.09.21,0,.13-.25.26.08.14-.17.22,0,.14-.16.13,0,0,.1.62.17,0-.32.36-.14.09.26.35.13.11-.14h.58l.12-.24H174l.13.14.14-.08v-.16l.26-.21h.41l.15-.29-.11-.17.3-.37.41,0,.24-.12.08.14-.11.08.07.09.47.08.2.15.32-.07.11.21.34,0,0,.13.26-.27.15.29.19,0,0,.27.18.2.34.11,0,.19.24,0V213l.26.08.3-.12v.27l.49.33.31-.23,0,.36.21.08.09.23-.34.25,0,.14h.28l.06.1,0,.36.43.06v.16l.13.15-.06.17.41,0,.41.18.06.25h.17l.2-.08.1.06,0,.15.24.31.69.1.3,0,.08-.14.35.08.47-.37.43-.17.15-.29.24.19,0,.25.45-.34.73.15.13.21.5-.09.06-.18.3-.09.3-.29v-.2l.15,0h.22l.21-.17v-.29l.26-.15.6,0,.09-.16.52,0,.13-.11,1.05.38.21-.09.71.31.48-.22.17-.29.52-.29.08-.31.28.27.78.26,1.67-.08,0-.26-.15-.14.34-.48.37-.17.3,0,.2-.2-.12-.54.55-.42.45-1.08-.14-.64.45-1.24.34-.24.21-.71-.07-.23.51-.31.54-.87.34-.57.33-.09.9-1.21.36-.07.68-.86-.2-.45-.31-.05-.23.14L201,203l0-.48-.67-.34-.34.07-.16-.29.68-.32.1-.25-.56-.49.37-.23-.12-.48-.34-.06-.08-.19-.24.17h-.63l-.09.33-.28.12h-.26l-.23.21,0,.25-.13.29-.32,0-.17.27-.26-.11-.37.33-.38-.08-.13.21.06.16-.26.36-.43,0-.17.1,0,.15-.1.2-.5.07-.13-.07-.34.4-.43.6.13.25-.45.35-.3-.12-.28.08.08.19-.19.14-.45.1-.26.25-.69,0-.41.23L191,206l-.28,0-.17-.09h-.22l-.34-.22h-.2l-.62-.65-.13,0-.21.13-.22-.29h-.47l-.6.33-.26-.13-1,0-.3-.25-.26,0-.86.7,0,.27-.09.31-.62.15-.15.12-.18-.09-.28,0-.15.31-.26.09-.32.33-.44.05-.07-.22-.28-.1-.24,0-.09-.11-.15,0-.12.13h-.19l-.38-.19-.12.1-.2-.16-.15,0-.27.2h-.43l-.24.24-.17-.15-.18,0-.27.36h-.26l-.23.19-.11-.23-.42,0-.13-.28-.06.13-.18,0-.12.25,0,.16-.24.2h-.25l-.32-.2-.5,0-.23,0-.54.13v.13l-.38.5-.48.18-.28.38-.34.13-.06-.23-.17-.12h-.2v-.23l-.2-.29L173,208l-.34.32-.37,0-.53,0-.07-.06-.47-.1-.33.1-.47-.13-.27.23-.54,0-.23-.16-.17.13,0,.36-.74.22-.5.42v.36l-.25.48-.52.39L167,211l-.34.16h-.2l-.06.61.2.33-.14.58.27.29-.33.18Z" transform="translate(-141.1 -152.7)" style="fill: rgb(210, 210, 230);"></path>
    <path name="Agustín Codazzi" scale="2.5" move="10" data-id="423" id="path5025" class="cls-1" d="M199.55,199.75l.21-.27,0-.23.3-.21,0-.18-.14-.2.22-.33.31-.15.09-.36-.35-.38.49-1,.66-.44.14-.43-.26-.38.68-.46,0-.65-.51-.64.31-.3.08-.32,1.11-1.09.28-.46.35-.2.44-.88-.73-1.05.08-.68.59-1,.13-.66-.26-1,.67-.38v-.55l-.38-.5.24-.94-.38-.7-.28.2,0,.35,0,.38-.54.68-.28-.06,0,.48-.41,0-.43.52,0,.2-.22.29-.53.07-.46.51,0,.25-.26.13-.34.62-.43.1-.26.21-.75.35h-.3l-.15.27-.35-.1-.08-.13-.15.09,0,.1-.43.27-.09.39-.19-.08-.18.15,0,.24-.38.19v.23l-.22-.11-.3.17-.09.27-.34.17.06.27h-.34v-.13l-.32.23,0,.16-.13,0-.36.21H194l-.36.17h-.26l-.43-.25-.11-.17-.34-.08,0-.29-.49.12-.07.21-.23.35-.35.27.07.25.19.17v.52l-.49,0-.09.18,0,.36-1.07.85-.2,0-.45.31-.62,0-.54-.56-.09-.19-.51-.06-.17-.15-.09-.2h-.15l-.82.39-.49.27-.37-.06-.21.16,0,.19-.22.1H185v-.18l-.15-.15-.34,0-.13-.14.11-.13-.15-.27-.71.09-.54-.19-.09-.1-.23.08-.22.45h-.21l-.22-.14-.49,0-.5.25,0,.16-.15-.1-.32.12-.26.38-.54.29-.34.56-.56.22-.24.36,0,.18-.32.29-.19-.06-.39.44-.34.06-.09.27-.43.21.13.08-.09.48-.36.22,0,.11-.22.14-.09.31-.19-.18-.21.2v.15l-.18,0,.13.21h.37l.43.22,0,.27.21.21.16,0,0,.42-.22.22-.23.09-.09.45-.47.58h-.33l-.1-.08-.11.15,0,.2h-.33l-.15-.18-.28.35,0,.37-.21.13,0,.2-.35,0-.12-.14-.18.12v.25l-.34.33.06.44-.23,0-.09.33-.3.19v.16l-.28-.06-.15.31,0,.27-.28.27v.25l-.37.12-.21,0-.32.27-.05.33h-.13l0,.36-.41-.23-.28.31h-.17l-.34.31-.11.46-.37.29h-.15l-.17.25h-.38l-.13-.13-.24.17.06.29-.23.16-.09.25-.32,0-.12-.09h0l-.26.16h-.27l0,.49-.07.42.27.22-.07.49.27.16.1.34.24-.47v-.36l.5-.42.74-.22,0-.36.17-.13.23.16.54,0,.27-.23.47.13.33-.1.47.1.07.06.53,0,.37,0L173,208l.17.1.2.29v.23h.2l.17.12.06.23.34-.13.28-.38.48-.18.38-.5v-.13l.54-.13.23,0,.5,0,.32.2h.25l.24-.2,0-.16.12-.25.18,0,.06-.13.13.28.42,0,.11.23.23-.19h.26l.27-.36.18,0,.17.15.24-.24h.43l.27-.2.15,0,.2.16.12-.1.38.19h.19l.12-.13.15,0,.09.11.24,0,.28.1.07.22.44-.05.32-.33.26-.09.15-.31.28,0,.18.09.15-.12.62-.15.09-.31,0-.27.86-.7.26,0,.3.25,1,0,.26.13.6-.33h.47l.22.29.21-.13.13,0,.62.65h.2l.34.22h.22l.17.09.28,0,.32-.73.41-.23.69,0,.26-.25.45-.1.19-.14-.08-.19.28-.08.3.12.45-.35-.13-.25.43-.6.34-.4.13.07.5-.07.1-.2,0-.15.17-.1.43,0,.26-.36-.06-.16.13-.21.38.08.37-.33.26.11.17-.27.32,0,.13-.29,0-.25.23-.21h.26l.28-.12.09-.33h.63Z" transform="translate(-141.1 -152.7)" style="fill: rgb(210, 210, 230);"></path>
    <path name="XXXX" data-id="" id="path5059" class="cls-1" d="M205.16,177.25l.09-.85-.61-.1-.17-.5.29-.88-.25-.6-.45-.09-.91.31-.64.61-.28-.33-.86.7-.13-.11H201l-.46.58-.84.09-.32-.24-.6,0-.05-.36-.78.05-.28.22-.41.09-.42-.46-.59,0-.5-.43-.74,0-.36.2-.38.09-1.57,1,.2,0,.26.32.31,0,.33-.15v-.16l.4,0,.48.37.24,0,.51.64.69.5.25,0,.53.49.15,0,.08-.1h.05l.24.21,1.58-.18.29-.33h.31l.43-.25.43.25h.12l.24-.21.16-.05,0-.25.28,0,.27.18.53,0,.08.24.24,0,.42.11.41-.05.1-.13.84.65Z" transform="translate(-141.1 -152.7)" disabled="disabled" style="pointer-events: none;"></path>
    <path name="La Paz" scale="2.2" move="10" data-id="441" id="path5052" class="cls-1" d="M190.4,172.66l-.05.37-.3.21-.11.14-.56,0,0,.46-.22.11-.28,0-.1.4-.41.18.41.25-.26.16-.2-.13-.11.09.15.22-.12.14-.37-.07-.3.31.13.14-.05.2.18.12.23-.07.11.07-.21.58-.18-.11-.26.14v.22l-.15,0-.34.29,0,.29h-.23l.11.32-.07.22.26.14v.22l.21,0,.06,0h.34l.09-.11.29,0,.12.21.12.06.22-.09.3.21,0,.1.15,0,.09-.08h.1l.84.52h.3l.17-.17.13,0,.08.1.29,0,.23.13.28,0,.28.23h.23l.2-.22.5,0L193,179h.27v6.87l-2.29,0v4.45H188.3l.09-.17-.29-.19h-.49l-.36.28-.45,0-.17.12h-.19l-.1-.18h-.19l-.18.18-.17-.08,0-.14-.23.05,0,.18-.15,0-.12-.05-.17.06-.16.16h-.29l-.2-.22.06-.09-.24-.06-.31.16v.86l-.26,0,0-.1-.33.05-.08.14-.14-.09-.46.19-.07.16-.15.06-.28-.09-.25.07-.08.18-.24-.1-.06-.2-.61,0-.14.13-.11-.05v0l-.28,0-.08-.07-.17,0-.08.12H180l-.13.1-.26,0,0-.07-.26.19-.1.38-.15.08-.38.46v.17l-.33.34,0,.23-.44.42h-.12l-.15.23.09.18.13.06,0,.12-.16.11v.27l-.26.14-.08-.09H175.7l-.15.12-.78.07-.4.33-.11,0-.14-.18-.16.05-2.54,5.33,0,.17h-.11l-.06-.11h-.39l-.18.06,0,.19-.46.78-.08.08,0,.2.1.06-.17.36-.79.52-.19-.18h0l-.57.1-.1.81.1.41h-.37l-.17.42-.5.59v.48l.24.26.16.26-.1.26,0,.19.13.1-.26.32v.19l-.14.26.27.39.11.09.32,0,.09-.25.23-.16-.06-.29.24-.17.13.13h.38l.17-.25h.15l.37-.29.11-.46.34-.31h.17l.28-.31.41.23,0-.36h.13l.05-.33.32-.27.21,0,.37-.12v-.25l.28-.27,0-.27.15-.31.28.06v-.16l.3-.19.09-.33.23,0-.06-.44.34-.33v-.25l.18-.12.13.14.34,0,0-.2.21-.13,0-.37.28-.35.15.18h.33l0-.2.11-.15.1.08h.33l.47-.58.09-.45.23-.09.22-.22,0-.42-.16,0-.21-.21,0-.27-.43-.22h-.37l-.13-.21.18,0V198l.21-.2.19.18.09-.31.22-.14,0-.11.36-.22.09-.48-.13-.08.43-.21.09-.27.34-.06.39-.44.19.06.32-.29,0-.18.24-.36.56-.22.34-.56.54-.29.26-.38.32-.12.15.1,0-.16.5-.25.49,0,.22.14h.21l.22-.45.23-.08.09.1.54.19.71-.09.15.27-.11.13.13.14.34,0,.15.15v.18h.11l.22-.1,0-.19.21-.16.37.06.49-.27.82-.39h.15l.09.2.17.15.51.06.09.19.54.56.62,0,.45-.31.2,0,1.07-.85,0-.36.09-.18.49,0v-.52l-.19-.17-.07-.25.35-.27.23-.35.07-.21.49-.12,0,.29.34.08.11.17.43.25h.26l.36-.17h.35l.36-.21.13,0,0-.16.32-.23v.13h.34l-.06-.27.34-.17.09-.27.3-.17.22.11v-.23l.38-.19,0-.24.18-.15.19.08.09-.39.43-.27,0-.1.15-.09.08.13.35.1.15-.27h.3l.75-.35.26-.21.43-.1.34-.62.26-.13,0-.25.46-.51.53-.07.22-.29,0-.2.43-.52.41,0,0-.48.28.06.54-.68,0-.38,0-.35.28-.21.28-.61-.17-.22.24-.27.23-1.15-.48-.43,0-.26.24-.18-.16-.39,0-.72-.84-.65-.1.13-.41.05-.42-.11-.24,0-.08-.24-.53,0-.27-.18-.28,0,0,.25-.16.05-.24.21h-.12l-.43-.25-.43.25h-.31l-.29.33-1.58.18-.24-.21h-.05l-.08.1-.15,0-.53-.49-.25,0-.69-.5-.5-.64-.25,0-.48-.37-.4,0v.16l-.33.15-.31,0-.26-.32-.21,0-.13.08-.29.06-.17-.53.17-.77-.07-1-.67-.44-.13-.24-.44-.38-.59.11Z" transform="translate(-141.1 -152.7)" style="fill: rgb(210, 210, 230);"></path>
    <path name="Valledupar" scale="1.1" move="20" data-id="421" id="path5044" class="cls-1" d="M171.22,159.09l.21.16h.17l.42.25.29,0,.41.65.13.08v.17l-.14.15.28,11.09,1.11,1.3.78.64,0,.74-.28.18,0,.08.22.16,0,.53.34.21h.23a1.55,1.55,0,0,1,.21.19.39.39,0,0,1,0,.18l.26.13.37,0,.75.63,0,.22-.29,0-2,1.38-.31.05-2,.89-5.25.27-.39.21H166l-.14-.09-1.6,0-.1-.1h-.78l-.29.2-.09,0,0-.13h-.11l-.22.17h-.89l-.11.13-.11.08-.22.5-.25.21v.08h-.23l-.09-.11h-.31l-.21.12v.2l.08.08-.22,0-.31.31,0,.1.09,0v.15l0,.08-.44.23-.06.22-.35.2-.07.21-.14.09-.13,0v-.08l-.31.3V183l-.24.1,0,.12-.22.17v.23H158v.21h.1l.17.34h.12l.09-.13.11.11,0,.25.12.09v.17l-.14,0-.1,0-.14,0,.07.07h.08l.15.1.14-.09.15.05v.07l-.21.12v.19l.11.11.1,0,.1.1,0,.12-.08,0-.08.09v.1l.09.08-.14.09v.1l.14.06,0,.22-.12,0v.33h-.11l.06.11.18.08,0,.1-.11,0,.05.08.17.08v.16l-.11.13-.06-.09h-.19v.11l.11.07,0,.14-.06,0v.12l-.12.07,0,.12.14.14h.11l.1-.12H159v.19l.14.2,0,.19.11,0,.12-.13.13,0,0,.08.19,0-.07-.15-.08,0,0-.07h.14l.11.17h.12l0-.09.29,0,0,.13.26.11.21,0,.08.08-.17.11-.53.06-.25.31h-.5l-.24.21-.08.4-.47.4v.48l-.39.26s-.08.27-.08.31-.09.08-.09.08l0,.08.21.1v.16l-.1.08.37.32-.06.2h-.25l-.32.21-.32.09v.12l-.14,0-.07-.06-.43.3-.18.42,0,.32-.13.1.1.2.3.07.11.13.13-.08.13-.28h.07l.09.19.27.18.3-.08.22-.3h.21l.06.17-.07.19.15,0,.19-.19.3,0v.14l-.15.11.27.26.12.64.4.29.13,0,.09.07,0,.3.68.27.21.17v.21l-.2.14,0,.26.18.07.18.95L161,198l.11.27.15.09,0,.62.38.43.09.66.2.14.06.41h-.13l-.16-.14-.21.08.13.21,0,.38.27.68.15.13,0,.15-.23.21,0,1.19h-.1v.22l.56.5.39,0,.07.16-.18,0,.06.07.26.06,1-.35.67,0v.06l1.17.11.18.12h.42l0-.78.15-.27.06.11.35.05-.21.16.17.29v.42l.2.19.3-.16.1.29.19.18.38-.43.17-.42h.37l-.1-.42.1-.81.57-.1.13-.61.11-.39-.37-.36.37-.74-.27-.74.1-.36.33.07.47-.07.1-.32.24-.32.13-.58-.2-.36.4-.13.3-.45.44-1.07.4-.6h0l.07-.11,0-.22.3-.1h.63l1-.52v-.35l.37-.78v-.39l-.44-.25.24-.59.4-.25.18,0,.43-.19.17-.22.56-.11.05.16.66.17,0-.24.2-.27,0,.15h.67l.34-.15.17-.3.85-.83.11-.26.15,0-.06-.19.36-.23.18-.24-.16-.25.08-.23.48-.4.23-.48h.25v-.18l.28-.35h.1l.09.21.23-.13v-.22l.25-.24,0-.08.28-.07,0-.09-.18-.15.28-.17,0-.21.13-.06.05.2h.26v-.19l.3-.16.05-.3.37-.24.23,0,.31-.08.17-.22.4-.15.2.21V185l.3-.17,0-.24-.11-.1.24-.06,0-.18.59-.37-.22-.22.25-.3.13.11.37-.39-.24-.12-.06-.21-.35,0,0-.06.3-.23.26-.08.1-.25.09,0,.11.14.15,0,.18-.38-.25-.07v-.44l-.08-.07.19-.21.1.07.32-.34.16.06.11-.09-.39-.33.19-.53.2,0,0-.18h-.36l-.07-.18.22-.09-.1-.34,0-.19.14.1H187l.1-.13-.28-.1.26-.42v-.22l-.26-.14.07-.22-.11-.32H187l0-.29.34-.29.15,0v-.22l.26-.14.18.11.21-.58-.11-.07-.23.07-.18-.12.05-.2-.13-.14.3-.31.37.07.12-.14-.15-.22.11-.09.2.13.26-.16-.41-.25.41-.18.1-.4.28,0,.22-.11,0-.46.55,0,.11-.14.31-.22,0-.36.4-.18.07-.16-.17-.38.3-.15-.06-.26.06,0h.37l.2-.29H192l.21-.2-.28-.34.13-.11.06-.21.29-.12-.1-.42.18-.27.4.41.16-.39.31-.09.09-.24.53-.09.1-.5.51-.24-.42-.41.08-.5.8-.5-.11-.4.15-.08.17-.34-.2-.56v-.79l.56-.45-.19-.19-.17-.06-.27-.58-.61-.09-.17-.31-.47-.35-.23-.58-.38-.17-.91-.11-.23-.49-.69-.38-.09-.33H191l-.53.24-.19-.08-.23.1-1,0-.34-.18,0-.71-.29-.36-.52-.23-.25.27-.55.06-.35-.22-1.05,0-.38.18,0-.51.71-1,.67-.56.09-.5-.41-.41,0-.39.11-.51.15-.25-.21-.41v-.47H186l-.24-.36.2-.17,0-.31-.76-.08-.16-.44-.26-.33-.57.16-.48.62-.24.2-.61-.64-.37,0-.2-.27-.94-.05-.47.24-.28-.14-.34.08-1.32-.48-.85.06-.13.22-.67-.3-1.12.06-.13.18h-.31l-.57-.27-.62.35-.78.18-.58.5-1.12,0-.68.18-.68-.15-.74.29-.87-.09-.48.35-.19.27-1,.51-.33.51-.25.14-.2.33.34.28-.33.42.25.11.31-.2.27.18.4,0,.45-.15,0,.37H169l.52.11.29.51.47-.07.29.28,0,.23.6,0,.48.35-.65.46Z" transform="translate(-141.1 -152.7)" style="fill: rgb(210, 210, 230);"></path>
    <path name="Pueblo Bello" scale="3" move="15" data-id="439" id="path5038" class="cls-1" d="M159,176.93l.16.13.07,0,.11.08.08.55.1,0,.2.58-.08.3.18.13.25-.06.28.17.3,0a.39.39,0,0,1,.13.06h.11l0-.12.11,0,0,.12.29,0,.17-.23.2.07v.24l.21.18-.17.22v.2h.9l.22-.17H163l0,.13.08,0,.3-.2h.78l.1.1,1.6,0,.14.09h.82l.39-.21,5.25-.27,2-.89.31-.05,2-1.38.29,0,0-.22-.75-.63-.37,0-.26-.13a.39.39,0,0,0,0-.18,1.55,1.55,0,0,0-.21-.19h-.23l-.34-.21,0-.53-.22-.16,0-.08.28-.18,0-.74-.78-.64-1.11-1.3-.28-11.09.14-.15v-.17l-.13-.08-.41-.65-.29,0-.42-.25h-.17l-.21-.16-.2,0-.29,0v.26l.14.36-.47.27,0,.26.21.27-.67.26-.2-.32-.26,0V161l-.37,0-.44.29.16.82-.42.2-.07.33-.36.14.18.79-.25.31-.06.19,1,.2-.13.39.06.4-.22.25.09.55.44.35-.16.15,0,.75-.28.57-.5.12-.17.31.59,0,.43,0v.34l.31.34.92.3-.17.27.37.28,0,.83.31.27-.18.4-.48.1-.16-.16-.35,0-.32.27-.37.11-.19-.28-1.08,0-.23.32h-.19l-.35-.25-.4.2,0,.27-.07.41-.36.13v.14l.32.36,0,.29-.35.27-.47.16-.66-.3-.36-.16-.29.08-.23.1-.3-.05-.08.19.15.32v.18l-.16.09-.07.13.28.14-.18.1-.12.15v.14l-.12.18-.2-.05-.15-.08h-.2l-.24.22v-.24l-.55-.1-.28.1-.16,0,0,.19-.39.16-.16.26v.17l-.14.2-.41.07-.19.23-.16.2h-.26l-.16.16.07.08-.12.2h-.25l-.07-.11-.11,0-.22.25Z" transform="translate(-141.1 -152.7)" style="fill: rgb(210, 210, 230);"></path>
    <path name="XXXX" data-id="" id="path4244" class="cls-1" d="M146.42,196.07l-.48-.5-.2-.17-.26-.05-.13-.26,0-.53-.17-.26-.07-.26-.63-.59-.07-.25-.45-.53,0-.1.24-.25.16-.3v-.16l.09-.15.21-.1.15-.13,0-.68-.13-.33-.19-.19.11-.3.39-.22.18-.37v-.27l-.09-.32v-.19l0-.28-.14-.24.07-.22.23-.39.05-.28.35-.25.24-.3.07-.27.17-.18.26-.15v-.24l-.18-.15.07-.24,0-.27.16-.13v-.16l.11-.09.42,0c.08,0,.24-.17.24-.17l.52-.13.09-.27.06-.22-.14-.2v-.26l.25-.29.36-.12.4-.28.1-.22.47-.21.44-.32.08-.17,0-.09.08-.14h.2l.07-.08,0-.27.14-.29-.11-.17,0-.12h.18l.08,0v-.26l-.25-.24.1-.18.17-.12v-.22l-.05-.23-.21-.08.15-.19.25,0,0-.23.32-.08.24-.34.28,0,.19-.11.16-.17.07-.15,0-.2,0-.1.29-.17.22-.2.45-.24.34-.1.31,0,.21-.09,0-.13,0-.09.21,0,.15-.07.14.1.34.07h.17l.2-.25.23,0,.4.11.21-.08.12-.29.28-.08h.09l.46-.05.23-.14v.22l.42.39.26.07.09.1.09-.17.28-.22h.24l.22.07.08-.07h.14l.12.1v.35l.16.13.07,0,.11.08.08.55.1,0,.2.58-.08.3.18.13.25-.06.28.17.3,0a.39.39,0,0,1,.13.06h.11l0-.12.11,0,0,.12.29,0,.17-.23.2.07v.24l.21.18-.17.22v.22h0l-.1.11-.11.08-.22.5-.25.21v.08h-.23l-.09-.11h-.31l-.21.12v.2l.08.08-.22,0-.31.31,0,.1.09,0v.15l0,.08-.44.23-.06.22-.35.2-.07.21-.14.09-.13,0v-.08l-.31.3V183l-.24.1,0,.12-.22.17v.23H158v.21h.1l.16.34h.13l.09-.13.11.11,0,.25.12.09v.17l-.14,0-.1,0-.14,0,.07.07h.08l.15.1.14-.09.15.05v.07l-.21.12v.19l.11.11.1,0,.1.1,0,.12-.08,0-.08.09v.1l.09.08-.14.09v.1l.14.06,0,.22-.12,0v.33h-.11l.06.11.18.08,0,.1-.11,0,.05.08.17.08v.16l-.11.13-.06-.09h-.19v.11l.11.07,0,.14-.06,0v.12l-.12.07,0,.12.14.14h.11l.1-.12H159v.19l.14.2,0,.19.11,0,.12-.13.13,0,0,.08.19,0-.07-.15-.08,0,0-.07h.14l.11.17h.12l0-.09.29,0,0,.13.26.11.21,0,.08.08-.17.11-.53.06-.25.31h-.5l-.24.21-.08.4-.47.4v.48l-.39.26s-.08.27-.08.31-.09.08-.09.08l0,.08.21.1v.16l-.1.08.37.32-.06.2h-.25l-.32.21-.26-.11,0-.07-.32,0-.24.23h-.54l-.39.17h-.27l-.06-.11-.75.4-1,.19-1.28.14-2.08,1-.17.21-.28-.07-.15-.16h-.35l-.19.27h-.08l-.08-.08h-.26l-.59.31-.12,0-.43.19h-.31l0-.09-.19,0-1,1.24Z" transform="translate(-141.1 -152.7)" disabled="disabled" style="pointer-events: none;"></path>
    <path name="XXXX" data-id="" id="path4239" class="cls-1" d="M146.72,196.43l.28.64.41.13.38.31.21.84.08.36.1.18.37.25.19.31.3-.07.3-.2.57.29.24-.09.28.11.36.49.13.4.4.22.37.27,0,.27.08.2.28.19.23.3,0,.24.09.13.3.17.09.34.39.24-.09.25.12.29.29.27,0,.44.34.11.39.15.18.43.12.16.32.17h.28l.1.23.18.12.42.07.13.35.36,0,0,.33.16,0,.11.38,0,.22h.2l.24-.37-.17-.11v-.08l.1-.05,0-.36.51-.42v-.22l.22-.18.15.05h.25l3.7-3.36-.28-.7,0-.38-.13-.21.21-.08.16.14H162l-.06-.41-.2-.14-.09-.66-.38-.43,0-.62-.15-.09L161,198l.17-.19-.18-.95-.18-.07,0-.26.2-.14v-.21l-.21-.17-.68-.27,0-.3-.09-.07-.13,0-.4-.29-.12-.64-.27-.26.15-.11V194l-.3,0-.19.19-.15,0,.07-.19-.06-.17h-.21l-.22.3-.3.08-.27-.18-.09-.19h-.07l-.13.28-.13.08L157,194l-.3-.07-.1-.2.13-.1,0-.32.18-.42.43-.3.07.06.14,0v-.12l.31-.09-.25-.11,0-.07-.32,0-.24.23h-.54l-.39.17h-.27l-.06-.11-.75.4-1,.19-1.28.14-2.08,1-.17.21-.28-.07-.15-.16h-.35l-.19.27h-.08l-.08-.08h-.26l-.59.31-.12,0-.43.19h-.31l0-.09-.19,0-1,1.24Z" transform="translate(-141.1 -152.7)" disabled="disabled" style="pointer-events: none;"></path>
    <path name="XXXX" data-id="" id="path4233" class="cls-1" d="M158.75,215l.4.18.33.23v.5l.37.22.06.13-.16.36-.33.25-.24,0-.21.31-.22.39,0,.42.07.52.19.24,0,.2L159,219l.06.39.28.13v.11l8.34-.06.06-.19-.17-.12-.06-.23.12,0,0-.13-.13-.15-.43,0-.38,0-.29-.38.08-.85.38-.2.64-.68h.06v.11l.24,0,.49-.27.06-.15.24-.09,0,.16.55,0,.33-.25.19-.2,1-.11.38-.27.14,0,.1.1.49.25.15-.1.75,0,.45.26.41.13.09.25.72.19.36.07h0l.35-.14,1.43-1,.18-.22.16-.07.06-.1-.14-.07v-.15l.15,0,.08-.14h.11l0-.22-.3-.25h-.45l-.2.1-.21-.24-.2.18,0,.16-.18.1,0-.3-.41-.06-.28-.19-.47,0-.23-.17.06-.48.23-.18.06-.61.12-.18-.06-.31-.26.22v.16l-.14.08-.13-.14h-.11l-.11.24h-.59l-.11.14-.35-.13-.09-.26-.36.14,0,.32-.62-.17,0-.1-.13,0-.14.16-.22,0-.14.17-.26-.08-.13.25-.21,0-.27-.09v-.09H170l-.19.21-.39,0-.24.3-.36-.06-.09-.17-.11.13-.24-.09-.09-.1-.11.14.11,0-.17.16-.42,0-.26.2-.27,0v-.15l-.47-.07.1-.29-.43-.17.33-.18-.27-.29.14-.58-.2-.33.06-.61h.2L167,211l.17-.52.53-.39-.1-.35-.27-.16.07-.49-.27-.22.07-.42,0-.49h.27l.27-.16-.27-.39.14-.26V207l.26-.32-.13-.1,0-.19.1-.26-.16-.26-.24-.26v-.48l.13-.15-.19-.18-.11-.29-.3.16-.2-.19V204l-.17-.29.21-.16-.35-.05-.06-.11-.15.27,0,.78h-.42l-.18-.12-1.17-.11v-.06l-.66,0-1,.35-.27-.06-.06-.07.19,0-.08-.16-.39,0-.56-.51v-.21h.1l0-1.19.23-.21,0-.15-.14-.12-3.7,3.37h-.25l-.15-.05-.22.18v.22L157,206l0,.36-.1.05v.08l.18.11-.25.37h-.21l.15.68.09.27.21.28-.09.26-.33.37,0,.55.14.36.31.15.08.37.26.09.41.49.07.35-.1.3.06.57.29.38L158,213l.18.21,0,.42.17.33Z" transform="translate(-141.1 -152.7)" disabled="disabled" style="pointer-events: none;"></path>
    <path name="XXXX" data-id="" id="path4225" class="cls-1" d="M149.49,226.33l.19,0,0-.14h.33v.08l.27.06.27.24.05-.09h.2l.16.25.31.05.32-.22.24-.08.11.1.16,0,.16-.11-.05-.22.15-.15.62,0,.12-.79-.13,0,0-.37.28-.21v-.26l.64-.72.55-.09.49-.45.22-.06.05-.11.25-.09.07-.16.22,0v.08l.36.31,0-.14.48-.06,0,.16h.17l.19-.19.05-.21.16-.12.14,0,0-.07h.48l.45.46h1l-.61-1.47v-.12l.17,0,0-.1.2,0,.15-.23.12-.5-.19-.35.12-.27v-.31l-.28-.13L159,219l.07-.08,0-.2-.19-.24-.07-.52,0-.42.22-.39.21-.31.24,0,.33-.25.16-.36-.06-.13-.37-.22v-.5l-.33-.23-.4-.18-.44-1-.38.28-2.1,1.08-.76.44-.22-.07-.17.14h-.13l-.11-.32-.1-.25-.18-.07-.3,0-.23,0-.07.17-.16.15-.22,0,0,.31-.27,0-.57-.14-.25.23-.28,0-.25.12-.14-.14h-.12l0,.3-.21,0-.23.15-.09-.08-.12.08h-.12l-.07-.08-.3.11-.14.21h-.16l-.4-.17-.29.19-.2.35-.49-.14.06-.48-.26-.23-.47-.05-.15.29-1.11,0-.43.23-.46.56,0,.38-.4.15-.21-.2-.41.35-.06.25-.32.11,0,.3-.46.35-.5.39-.15.58-.52.53-.45.25-.62.39-.22.25.19.33.58.1.1.25.55,0,.28.18.36-.05.27.52.35.4.6.15.29.25-.06.32.65.51.24.39.63,0,.73.27.61.53.5.66.64-.11.65.35Z" transform="translate(-141.1 -152.7)" disabled="disabled" style="pointer-events: none;"></path>
    <path name="XXXX" data-id="" id="path4219" class="cls-1" d="M159.43,242.77l.71.44h.29l.39-.31.31-.05.67.12.07.19,1.54.6.37.05.25-.12h.78l.17.28.18.07.26-.23.29.05.18.15.29-.2.2,0,.27.23.68-.71.46.06.11.11h.59l0-.12v-.12l.24-.19.2,0,.17-.44.27,0,.23-.19.14-.32L170,242l.76.34v.26l-.2.24.07.36.48.06.18.15-.06,1.2.13.12.23,0-.06.33.49.27-.08.21.4.15.93,0,.38.44.39,0,.4.32.29-.13,0-.08.18-.11h.28l.22-.14h.41l.23-.26h.32l.53-.16.48.09.48-.53.35-.34-.18-.62.33-.27,0-.81.37-.23,0-.16-.31-.2.19-.55-.26-1.05-.46-.3-.08-.5.18-.64-.58-.24-.73-.51L176,239h-.63l-.54-.06-.72.15-.65-.11-.2.17-.05.24h-.45l-.11,0-.15,0-.23.54-.27.29h-.2l-.33-.25h-.25l-.38.49h-.17l-.22.11,0,.15-.29.07h-.74l-.2.12H169l-.22.22v.14l-.24.2-.3-.06-.14.15-.08.31h-.22l-.26.24-.26-.08-.24.09-.26-.09-.22-.35.17-.12-.2-.22-.27-.05-.09-.33.2-.1-.22-.21-.06-.2.14-.19-.15-.06V240l-.14-.09,0-.13.08-.11,0-.17h-.23l-.06-.06.09,0,0-.16-.1-.08.13-.19,0-.26.17-.1-.18-.12-.05-.57-.21-.27-.08-.39-.17-.06v-.15l.21-.05v-.24l-.23-.06-.21-.25,0-.34h-.34v-.31l-.23-.43-.26-.25.2-.19-.47-.08.09-.25,0-.47.18-.23,0-.38-.17-.27,0-.59.13-.23-.39-.09-.29-.48-.28-.85.09-.31-.1-.15.07-.29-.07-.53-.29-.41.06-.21-.17-.44-.44-.1-.24-.25v-.47l-.36-.19.07-.54-.45-.28-.06-.54.19-.17-.34-.77v-.51l-.21-.21-.09-.63-.19-.13-.1-.34,0-.4.39-.3,0-.32-.19-.12,0-.3-.21-.2-.5,0-.47-.18-.23-.07-.23-.43-.21,0,0,.1-.17,0v.12l.61,1.47h-1l-.45-.46h-.48l0,.07-.14,0-.16.12-.05.21-.19.19h-.17l0-.16-.48.06,0,.14-.36-.31v-.08l-.22,0-.07.16-.24.09-.06.11-.22.06-.49.45-.55.09-.64.72v.26l-.28.21,0,.37.13,0-.12.79-.62,0-.15.15.05.22-.16.11-.16,0-.11-.1-.24.08-.32.22-.31-.05-.16-.25h-.2l-.05.09-.27-.24-.27-.06v-.08h-.33l0,.14-.19,0-.08-.07-.4.4v.82l-.35.6.26.35V229l-.24.43.22.6.52.5,1,0,.2.42.49.18-.15.62,0,.4.22.47-.45.33.25.88-.49.49-.19.27-.29.28.06.38.33.54-.16.42.49.4.66-.11,1.66.42.84,0,.15-.3.37-.23.69.09.26.47-.15.69-.51.63,0,.88.41.79.81.54.86.69.38.18.29.32.51.26.44.42.42.41Z" transform="translate(-141.1 -152.7)" disabled="disabled" style="pointer-events: none;"></path>
    <path name="XXXX" data-id="" id="path5185" class="cls-1" d="M158.94,257.61l-.08-.3,0-.36-.13-.07,0-.1.24-.25.07-.5v-.47l.11,0,.05-.13-.15-.06v-.27l-.52-.44v-.17l-.45-.46-.1,0,0-.2-.26-.35h-.18l-.09-.2-.23-.07-.37-.43-.16,0-.56-.48,0-.24-.21-.2h-.1l-.44-.39-.09-.37-.17-.17-.08-.25-.11-.41-.15-.21.23-.13-.06-.79.25-.2.13-.4-.24-.12v0l.95-.49-.14-.51h.33l.35-.15.08-.28.31-.3-.26-.28.41-.16v-.51l.22-.16-.05-1.06.36-.36.27.22.22-.18-.12-.21.07-.19h.28l-.27-.38.37,0,.33.06-.09-.27.21-.32.61,0,.71.44h.29l.39-.31.31-.05.67.12.07.19,1.54.6.37.05.25-.12h.35l-.22.95.07,3.83-.2.6.06,3.08.19.32.27-.05.22.15v.18l-.1.14.07.59.13.14.31,0-.08.39.11.35-.3.76,0,.59-.19.84-.34,0-.16.28.16,1.51h-.14l-.18-.23-.47-.17-1.46.3-.28.25.49.29.09,1.5.2,0,.85-.43.53,0,.65.53-.07,1.08.21,1.34h0l-.3,0-.07-.2-.51-.05-.11-.16h-.29l-.15.11-.16,0-.08-.11-.28,0v.27l-.16.1-.19-.37-.22-.05,0,.09-.59.06-.22-.12v-.28l-.2-.13-.22.13v.17l-.29.05-.16-.15-.43-.06-.05.11H160l-.09-.21-.16,0,0,.15-.3.12,0-.12-.67,0-.13-.37.2,0,.17-.35-.12-.19h-.15l0-.33.33-.2,0-.7.12-.17.62-.3.09-.23.17-.14h.4l-.16-.2.12-.27-.57-.28-.23-.43-.29-.09-.41,0Z" transform="translate(-141.1 -152.7)" disabled="disabled" style="pointer-events: none;"></path>
    <path name="XXXX" data-id="" id="path5183" class="cls-1" d="M161.86,272l.21.26.84.43.15-.19.47,0,.11.13.2-.32.88-.08.23.13.35-.14.1-.25-.12-.13,0-.21.37-.1v-.21l.5-.36.49-.12,0,.15.44,0,.51.05.09.19.22.13.64-.37.42-.07,0,.12.38,0,.33-.45-.08,0,.11-.43.33-.18.18.18.73-.1.55-.56.45-.24.18-.26.24-.05.3.17h.36l.07-.13-.24-.21.1-.27-.37,0-.12-.21.05-.14-.24-.21-.24,0-.22-.3.06-.27-.42,0-.11-.18.13-.15-.05-.33-.19-.11.09-.29.46-.34-.1-.18-.34-.1.14-.35-.19-.2.19-.1,0-.2-.16-.08.38-.46h.26l.58-.43.36-.56,0-.23-.16-.05-.07-.5.34,0,.11-.09-.07-.37-.1-.05.1-.13.14,0,.3-.3-.05-.3.25-.18.18.07.24-.08.28-.59.13.2.32-.28h.25l.21-.36-.16-.35.34-.91L176,258l.42-.1.79-.53s.89,0,.93,0,.17-.29.17-.29l-.08-.13.07-.31.32-.14-.1-.31h-.31l-.34-.52-.11-.52-.15-.16-.06-.37-.57.33-.44.67-.37,0-.14-.06-.7.28-.29-.11-.21.25-.32-.08-.07-.2h-.22l-.33.21-.34,0-.19.37-.2,0-.17.5h-.18l-.27-.35.13-.18-.07-.09-.37,0-.12.16-.4.06-.07.31h-.15l-.06-.18-.35.09-.23.28-.44,0-.08-.11H170l-.57.3,0,.3-.62.42v.38l-.4.15-.07.51-.14.09,0,.34-.19,0,.28.41-.06.8-.16.21.14.13-.62.66h-.2v.45l-.17.13-.18-.07.05.2-.17,0-.09,0-.17,0,0,.27.2.1-.26.41-.81,0-.27.24h-.41l-.27-.26v0l-.29,0-.07-.2-.51-.05-.11-.16h-.29l-.15.11-.16,0-.08-.11-.28,0v.27l-.16.1-.19-.37-.22-.05,0,.09-.59.06-.22-.12v-.28l-.2-.13-.22.13v.17l-.29.05-.16-.15-.43-.06-.05.11H160l-.09-.21-.16,0,0,.15-.3.12,0-.12-.67,0-.13-.37.2,0,.17-.35-.12-.19h-.15l0-.33.33-.2,0-.7.12-.17.62-.3.09-.23.17-.14h.4l-.16-.2.12-.27-.57-.28-.23-.43-.29-.09-.41,0v.08l-.09,0,0,.16-.47.47-.36.1-.15.18-.1.11.08.68.15.11,0,.93-.2.18-.11.85-.16.4,0,.71-.07,0,0,.56.24.35.18.42.51.56h.1l.14.13,0,.26.16.15,0,.62.32.66.19.11.5.46.12.13,0,.19-.11.05V268l-.14.17,0,.47-.18.13.05.77.13.45.24.4.22.16.22.31,0,.36.43.43.46.21.07.16Z" transform="translate(-141.1 -152.7)" disabled="disabled" style="pointer-events: none;"></path>
    <path name="XXXX" data-id="" id="path5190" class="cls-1" d="M161.45,272.14v.16l-.12.47-.11,0V273l.21.31.07.45-.12.27-.1,0-.13,1,.11.06,0,.41-.19.37-.08,0v.33l.21.38-.08.75-.23.51-.07.28-.12.12.12.43.5.57,0,.14-.11,0-.27.18-.22.38-.11.08.07.21.07,0,.13.53.36.44v.3h-.14l-.26.57-.17,0-.25.24.1.47-.1.06,0,.42-.51.46-.22.84h-.1v.19l.28.44v.95l.27.44,0,.66.5.05v.06l.16.14.81-.09.06-.14-.2-.09,0-.76.13-.15-.13-.06.17-.26.65,0,.4-.21h2.21l-.26-.45v-.3l-.2-.13.07-.2-.07-.18-.13,0-.05-.54-.24-.3.26-.1.16-.4-.21-.13,0-.47.15-.11.29-.78.28-1.67.24-.22,0-.32-.1-.14,0-.14.09,0v-.1l-.27-.31,0-.22.32.09.45-.19.06-.23.49-.36,0-.23.5-.35,0-.44-.1-.12.09-.1-.35-.54v-.41l.21-.05.06.07.34.06.21-.17.27,0,.23.17.06-.17.14,0v.12l.35.13,0-.15-.1-.07L167.21,271l-.48-.06,0-.15-.49.12-.5.36v.21l-.37.1,0,.21.12.13-.1.25-.35.14-.23-.13-.88.08-.2.32-.11-.13-.47,0-.15.19-.84-.43-.21-.26-.48.06Z" transform="translate(-141.1 -152.7)" disabled="disabled" style="pointer-events: none;"></path>
    <path name="Aguachica" scale="2.7" move="10" data-id="422" id="path5195" class="cls-1" d="M160.1,287.38l-.22.48-.43.35.23.15.37.13-.09.36.12.29-.2.26-.12.52-.35,0-.22-.17-.17.1,0,.16.2.22.35,0,.27.09.1.53.24.28,0,.24.18.45.32.17.22,0,.17.07.21.33h.35l-.1.14-.32.1.27.36.3.14.17-.05.15,0,0,.47-.3.17,0,.14h.39l.32.31,0,.4.2.31-.22.36,0,.18.29.13h0l.36-.08.07.08.75-.08.54-.28.57-.11.11.19.8,0,.16.18.12-.07.61-.09.11.08.33-.28,0-.17.19-.17H168l.05-.15.06,0,.07.06.23-.05,0-.15-.46-.77-.76-2-.78-2,2,0,.2.16.3,0,.37-.3.43,0,.13-.26.19,0,.77.49.11-.13-.95-1.45-1-2,.48-.3,0-.17.11-.24.14.11.35-.11.53-.39.44-.13.12-.16.21.08,0-.45.23-.41,0-.69-.09,0v-.28l.18-.06v-.18l.19-.23.19,0,.38-.51,0-.88.37-.21,0-.26.23-.19.18.16.16-.06v-.14l.42-.27.05-.44,1.32-1,.23-.58.61-.8.14-.23h-.36l-.07-.22h-.25l-.34.1-.32-.23.18-.24-.51-.57h-1.24l-.71.28-.06-.19.59-.35.12-.39.42-.14.65-.62v-.34l.18-.25,0-.4.84-.74v-.67l-.15-.12.06-.12-.17-.25h-.19l-.18.11-.62-.55-.29,0-.22.08-.27-.21-.66.06-.17.21-.86.26-.29-.12v-.36h-.16l-.3,0-.12-.49h-.27l-.12.19-.31-.15,0-.16-.18-.06-.32.45-.38,0,0-.12-.42.07-.64.37-.22-.13-.09-.19-.47,0,1.07,4.56.1.07,0,.15-.35-.13v-.12l-.14,0-.06.17-.23-.17-.27,0-.21.17-.34-.06-.06-.07-.21.05v.41l.35.54-.09.1.1.12,0,.44-.5.35,0,.23-.49.36-.06.23-.45.19-.32-.09,0,.22.27.31v.1l-.09,0,0,.14.1.14,0,.32-.24.22-.28,1.67-.29.78-.15.11,0,.47.21.13-.16.4-.26.1.24.3.05.54.13,0,.07.18-.07.2.2.13v.3l.26.45h-2.21l-.4.21-.65,0-.17.26.13.06-.13.15,0,.76.2.09-.06.14-.81.09-.16-.14v-.06Z" transform="translate(-141.1 -152.7)" style="fill: rgb(210, 210, 230);"></path>
    <path name="XXXX" data-id="" id="path5176" class="cls-1" d="M161,307.35h5.47l-.2-.35.07-.1,0-.39-.18-.14.09-.22-.14-.1-.23,0v-.14l.29,0,.08-.18-.2-.09-.11-.38-.39-.23,0-.19h.16l.26-.2,0-.2.09,0,.06.11.32.11.11-.07h.24v.11l.39.08.32-.11.34-.08v.13h.22l.14-.35,1-.54.26-.4.25-.08.7,0,.06.21.77.44h.3l.17.13,0,.26.19.53.47.25.25-.22-.07-.23.37-.42h.31l.29.11.17-.18h.43l.33-.32h.28l.29-.25-.17-.08v-.28L175,303l.26-.05.07-.2-.16-.05.07-.42.25-.22.06.07h.18l-.07-.35.29-.14-.07-.6.38-.58h.14l0-.09-.21-.08,0-.07.15-.2-.15-.09,0-.09.28-.1,0-.35.17-.06,0-.13-.23,0V299l.22-.07.1-.24.15-.66.36-.05.49-.25.13.14.4,0,.34.42-.16.27h.12l.14.25,0,.25H179l5.4-3.23,0-.49-.25,0-.12-.22.13-.1v-.26l-.34-.23,0-.23h-.22l0,.07-.16-.07-.19.05-.2-.08,0-.14-.19-.25-.28.06-.25.28-.33-.08-.71.06-.32.26-.18,0,.12-.21,0-.16,0-.23-.26-.29v-.18l.1-.28-.17-.52-.14-.06,0-.23.19-.18.12-.25-.07-.27-.14-.07.11-.52-.21-.38.12-.12v-.11l-.21-.2.12-.25-.21-.3-.4-.06-.08.28-.16.05-.45,0-.48.44v.42s-.32.31-.36.3l-.23,0v-.16l-.41,0s-.12.19-.12.19l-.55,0-.56-.19-.08-.15-.66,0-.76.22-.17.15-.45,0-.4.43h-.1l-.07-.12-.29.38h-.13l-.06-.19h-.51l0-.12-.21,0-.17.28-.3,0-.31-.27-.58,0-.1.12h-.64l-.1.29-.33,0-.15.15-.22,0-.3-.22,0-.11-.06,0-.23.17h-.21l-.13-.08-.9-.08-.62.05.76,2,.46.77-.06.15-.22.05-.07-.06-.06,0-.05.15h-.46l-.19.17,0,.17-.33.28-.11-.08-.61.09-.12.07-.16-.18-.81,0-.1-.19-.57.11-.54.28-.75.08-.07-.08-.35.08-.31-.12-.18.16.27.15,0,.35-.1.36.22.12.52-.12h.2v.31l.2.4.37.19.19,0,.27.07.08.45.27,0,.1.29.2.25-.42.51.07.35.38.3.1.48-.26.37-.58.2-.22.38-.06.38-.54.15-.32.12-.32.47-.17.45-.32.32-.45.09-.45.31-.12.19-.3.28v.31l.12.55.4.05,0,.31v.22l.2.4-.35.31-.49.09-.32,0-.07.21.12.34-.05.21.2.24.05.14h5.47" transform="translate(-141.1 -152.7)" disabled="disabled" style="pointer-events: none;"></path>

</svg>