<svg id="Capa_1" data-name="Capa 1" xmlns="http://www.w3.org/2000/svg" viewBox="0 0 100.3 114.11">
   <defs>
      <style>.cls-1{fill: #ebebef;;stroke:#fff;stroke-miterlimit:3.86;stroke-width:0.25px;}</style>
   </defs>
   <path name="XXXX" id="path6694" class="cls-1" d="M188.11,233.9l-.05-.37.16-.3,0-.41.25-.18v-.5l.38-.3-.06-.28,0-.45-.14-.6-.38,0-.46.16.07.2-.2.09-.28.46-.52-.07,0,.19-.36.17h-.14l-.25.53-.32.59-.48.55-.86.87-.21.3.42-.06.59.5.61.14.07.39.87.18.36.3.39-.26v-.38l.32-.16.34-.42-.23-.39.07-.45Z" transform="translate(-140.01 -184.32)" disabled="disabled" style="pointer-events: none;"></path>
   <path name="Cachipay" data-id="483" id="path6696-9" class="cls-1" d="M166.53,241.58l-.29.39-.26,0-.25.24-.38.47H165l-.43-.05-.31.1-.12.45.13.3-.38.52-.44.16-.35-.2h-.35l-.38.34-.36-.18-.39.51-.53.44.35.32.12.39-.36.24-.07.41,0,.23-.15.31v.32l.15-.15h.25l.35-.19.29,0,.3-.19.21,0,.24-.12.4,0,.23-.24.07-.3h.25l.26-.47.26-.24.38-.1.43.1.13-.39.48-.21.15-.62.39-.49.2-.31.2-.79-.1-.3.18-.38-.18-.31Z" transform="translate(-140.01 -184.32)" style="fill: rgb(210, 210, 230);"></path>
   <path name="Zipacón" data-id="588" scale="10" move="10" id="path3065" class="cls-1" d="M167.29,245l.29-.22.35-.12.15-.34.16-.09.21-.28.64-.51.62-.89.14-.27.15-.16.07-.32-.48-.28-.37-.07-.32-.32h-.27l-.21-.26-.33-.1-.17-.25-.22-.11-.2.08-.23-.24,0,.3-.25-.07h-.18l-.14.14.25.28-.07.23h-.33v.5l.18.31-.18.38.1.3-.2.79-.2.31-.39.49-.15.62-.48.21-.13.39v.32l.19.14.74-.4.42-.13h.37l.24-.38.25,0Z" transform="translate(-140.01 -184.32)" style="fill: rgb(210, 210, 230);"></path>
   <path name="XXXX" id="path6700" class="cls-1" d="M174,250.34l-.28-.21-.31-.15-.17-.26,0-.78-.14-.44.1-.43-.26-.18-.25-.08.14-.42L173,247l-.46-.54,0-.32-.15-.23.15-.27-.22-.36,0-.32-.84-1.11-.47-.38-.11-.59-.25-.55-1,.15-.62.89-.64.51-.21.28-.16.09-.15.34-.35.12-.29.22.43.26-.16.92.94.14.51-.07.23.6.38-.12.06.28.36.17,0,1.45.49.08.5.25.76.55.13.41.61.57.85.36.68-.47Z" transform="translate(-140.01 -184.32)" disabled="disabled" style="pointer-events: none;"></path>
   <path name="Gutiérrez" data-id="518" scale="5" move="10" id="path2869" class="cls-1" d="M180.76,282.53h-.12l-.12.1-.05.35.15.19,0,.31.3,0,0,.08.19,0,.15-.11,0,.06h.31l.12-.05-.06-.13v-.24l.11,0,.13,0,.47-.09.08-.09h.4l.2-.15.06-.2.3-.25.05-.17.12-.16.09,0,.47-.37.11-.25.09-.58.43-.46.19,0,.05,0v.18l.12,0,.11-.08.12-.2.26-.09,0-.07.23-.11,0,.16.3,0,.07.13.26,0,.11-.15V280l-.16-.12,0-.56.09,0,.07-.15.12-.07.06,0,.09,0,.09-.33.08-.06,0-.35.06-.05.1,0,.19-.2.35,0,0-.06h.51l.13.11v.08l.23.1.15,0,.38-.42.41-.1.32.76.45.3.46-.39.59-.87,0-.48.43-.44.3-1-.21-.8.25-.55.44-.59.84-.25.32.22.27-.32-.07-1.39-.38-.48-.1-.62,0-1.17-.2-.25-.39-.14h-.41l-.3-.22H192l-.32.25-.18,0-.21-.48-.5.14-.61.3-.21-.26,0-.36-.45-.21-.23-.23-.14-.27-.61-.14-.66.46-.25,0-.28-.41-.36,0-.23-.23-.57,0-.6.22-.57-.1-.55.28,1.21.67.23.29-.07.4-.47.1-.31.72-.12.57-.65.57.31.46.58.32.43.13-.35.64-.13.78-.75-.24-.5.15h-.52l-.87.4v.38l-.1.1,0,.27-.11.15-.06.49-.12.1v.44l.14.17,0,.18.13.13.12,0,.2.06.21.24.32.25.14,0,.1,0,.14.09V277l-.07,0-.1.17-.16.1-.09.27,0,.13,0,.09-.27.1-.16.13-.5.1-.06,0-.1.06-.05.16h-.11l-.27.29-.15,0,0,0,.05,0,0,.1-.11.13,0,.39.07,0,.2.38V280l.14.18,0,.25-.06.05,0,.23-.1.06V281l-.15.06,0,.36-.09.07v.17l-.21.14-.11,0,0,0,.08.08,0,.08v.11l-.07.32Z" transform="translate(-140.01 -184.32)" style="fill: rgb(210, 210, 230);"></path>
   <path name="Fómeque" data-id="500" scale="4.7" move="10" id="path6703" class="cls-1" d="M200.11,246.7l-.39,1.07.18,1.56-1.32,1.83-.5.32v.64l-1.09.78-1.05,1L195,255l-.77,0-.69.27.32,1.28-.59.83.59,1,.16.48-.32.23.15.76-.15.56.21,1,.37.48.34.25.08.35h.5l.25.46.13.17.19-.42.5-.4.64-.64.37.18h.35l.47.29.54-.11.3-.94.64-.78,1-.82.82-.25,1.07-.21.5-.52.09-.71-.45-.32.5-.19.22-.59.82-.87h.76l.59-.21.38.39.76.28.41.73-.19.62.62,0,.43-1-.07-1,.28-.29.2-.8-.25-.32-.39-.81-.88.14-.76.44-1-.85-.11-1.28.11-1.26-.23-.33,0-.49-.53-.3-.07-.48-1-.69-.8-1,.18-.34-.25-.16-.52.18-.46-.46-.59-.06-.68.18Z" transform="translate(-140.01 -184.32)" style="fill: rgb(210, 210, 230);"></path>
   <path name="XXXX" id="path2851-3" class="cls-1" d="M188.37,240l.88-.25,1.51,0-.08.87,1.3.67h.65l.54.79.47.16.32.62.92.68.7-.07-.14,1.07.34.81.27-.48.31.09.27.72,0,.91.66.08.72-.14.75.09.38.32.37-.13.62,0-.39,1.07.18,1.56h0l-.68-.07-.16-.23-1.16,0-.37.27-.66-.18-.68.16-.77-.23-.3.3-.57.21-.14.75-.52.41-.41,1-.57-.28-.57-1.1-.66-.32.25-.55.32-.39-.7,0-.53-.69-.27,0-.28.25-.06.48-.37.25-.59.05-.37.36-.06-.13-.66.28-.4-.07-.13-.24,0-.24.09-.23-.16-.07h-.41l-.25.07-.21-.1v-.2l.09-.33.22-.24v-.33l.17-.13.21,0,0,.08.44.06h.06l.12,0,0-.18.18-.35v-.45l-.28-.16-.13,0-.23-.46.17-.47.06-.51,0-.21.11-.29v-.57l.07-.63-.08-.75-.07-.12-.32-.07-.17-.16,0-.41.1-.05.06-.45-.12-.09.06-.43.25-.4.41-.14.16-.17Z" transform="translate(-140.01 -184.32)" disabled="disabled" style="pointer-events: none;"></path>
   <path name="Choachi" data-id="491" id="path6706" class="cls-1" d="M193.89,256.51l-.59,0-.37-.25h-1l-.87.38.08-.33-.37-.1.13-.64-.45-.39-.23-.78-.45-.07-.44.14.09-.53-.77-.45-.54-.24,0-.35.16-.27.06-.73.06-.18v-.25l.11-.12h.16l.13-.29,0-.47.12-.32V250l.17-.31.37-.36.59-.05.37-.25.06-.48.28-.25.27,0,.53.69.7,0-.32.39-.25.55.66.32.57,1.1.57.28.41-1,.52-.41.14-.75.57-.21.3-.3.77.23.68-.16.66.18.37-.27,1.16,0,.16.23.68.07-1.32,1.83-.5.32v.64l-1.09.78-1.05,1L195,255l-.77,0-.69.27.32,1.28Z" transform="translate(-140.01 -184.32)" style="fill: rgb(210, 210, 230);"></path>
   <path name="Ubaque" data-id="577" id="path6708" class="cls-1" d="M193.88,259.77l-.72.15-.26-.15.15-.26-.28-.34-.54.09-.46,0-.25-.17-.26.1-.44-.14-.38-.29-.3.21h-.26l-.5-.28.14-.44-.32-.36-.72,0-.26-.22-.39.15-.36-.24-.38,0-.62-.64.16-.29-.53-.38L186,256l-.33-.19.22-.07.28-.49V255l.21-.13.12-.28v-.19l.29-.11-.11-.16.05-.18.17,0,.05-.13-.14-.13.07-.2.16,0,.41-.11.16-.17.12,0,.32,0,.54.24.77.45-.09.53.44-.14.45.07.23.78.45.39-.13.64.37.1-.08.33.87-.38h1l.37.25.59,0-.59.83.59,1,.16.48-.32.23.15.76Z" transform="translate(-140.01 -184.32)" style="fill: rgb(210, 210, 230);"></path>
   <path name="XXXX" id="path2857" class="cls-1" d="M182.5,262.69l-.16-.08v-.41l-.08-.31-.13-.05v-.2l.14-.12.07-.33.09,0,0-.15-.16-.09v-.35l.17-.11-.09-.5.13-.4.14-.05.18,0,.1-.13-.06-.17.14-.18.38,0,.57-.2.3,0,.27-.3-.08-.29.16-.39-.05-.3-.14-.15.15-.26.34.08.32-.14,0-.24.19-.27-.06-.22,0-.19h.11l.21-.28.32.18.08.14.53.38-.16.29.62.64.38,0,.36.24.39-.15.26.22.72,0,.32.36-.14.44.5.28,0,.26-.29.09v.3l-.31.33.13.41-.3.71-.86-.63-.3.08-.28-.12-.52.26-.37-.06-.56.3-.75.72-.11.38.06.31-.18.37-.36.38-.31.51,0,.59-.37.33,0,.67-.19.38.31.59,0,.43-.27.37-.43.24-.23.06-.14.27-.54-.25-.43-.55.23-.29.08-.27.32-.3.17-.56.31-.47v-.53l.08-.06,0-.37.08-.19v-.27l-.11,0-.2-.19,0-.21-.23-.08-.09.06-.33-.11Z" transform="translate(-140.01 -184.32)" disabled="disabled" style="pointer-events: none;"></path>
   <path name="Caqueza" data-id="486" scale="7.4" move="10" id="path6711" class="cls-1" d="M195.48,262.9,195,263l-.33-.13-.72.5.19.41.16.31.31.16.38.45.28.27.06.25.18.36-.28-.18-.14-.19-.29-.16-.41,0-.2-.27-.64-.35-.56-.65-.52-.17-.22.23-.44.22-.42,0-.39-.18-.26.42-.23.08-.19-.11-.31.35-.18,0-.44-.3-.24.17h-.28l-.08-.33.16-.31-.35-.75.11-.38-.2-.56v-.42l.21-.28.43-.16V261l.3-.71-.13-.41.31-.33v-.3l.29-.09,0-.26h.26l.3-.21.38.29.44.14.26-.1.25.17.46,0,.54-.09.28.34-.15.26.26.15.72-.15-.15.56.21,1,.37.48.34.25.08.35h.5l.25.46Z" transform="translate(-140.01 -184.32)" style="fill: rgb(210, 210, 230);"></path>
   <path name="XXXX" id="path2861" class="cls-1" d="M188.87,264.46l-.4.41-.2.59.3.49,0,.3-.77.76-1.11.14.09.43-.57,0-.6.22-.57-.1-.55.28.75.42.46.25.23.29-.07.4-.47.1-.31.72-.12.57-.65.57.31.46.58.32.43.13-.35.64-.13.78-.75-.24-.5.15h-.52l-.87.4-.12-.19h-.18l-.08.1-.17.05-.17-.22-.08-.05,0-.47.09-.09V273l-.14,0-.22-.1-.09-.14-.09,0-.06-.23-.08-.1,0-.27-.08,0,0-.3v-.29l.07-.07,0-.07H181l.07,0v-.12l-.11-.08,0,0-.19-.26,0-.24-.14-.08,0-.3-.15-.21-.06,0v-.25l0,0,.08-.24.15-.28.18-.23.08-.44.15-.22.24-.25.07-.19.29-.51.22-.16.41-.55.43.55.54.25.14-.27.23-.06.43-.24.27-.37,0-.43-.31-.59.19-.38,0-.67.37-.33,0-.59.31-.51.36-.38.18-.37-.06-.31.11-.38.75-.72.56-.3.37.06.52-.26.28.12.3-.08.86.63v.23l-.43.16-.21.28v.42l.2.56-.11.38.35.75-.16.31.08.33Z" transform="translate(-140.01 -184.32)" disabled="disabled" style="pointer-events: none;"></path>
   <path name="Quetame" data-id="546" scale="8" move="10" id="path2863" class="cls-1" d="M199.9,264.84l-.55.38-.23.77.08.33-.36.36h-.24l-.45.54-.25.58.13.38-.29.41h-.18l-.09-.28-.28.22-.25-.18-.54,0-.13.56,0,.5-.56.56-1-.55-.33-.11,0-.3H194l-.19-.37-.08-.42-.41-.43,0-.38.43-.38.15-.43-.18-.35.25-.43.22-.05.34-.39-.18-.12V265l.41,0,.29.16.14.19.28.18-.18-.36-.06-.25-.28-.27-.38-.45-.31-.16-.35-.72.72-.5.33.13.48-.09.13.18.19-.42.5-.4.64-.64.37.18h.35l.47.29.54-.11.57.34.09.55.57.32-.22.78.22.87Z" transform="translate(-140.01 -184.32)" style="fill: rgb(210, 210, 230);"></path>
   <path name="Guayabetal" data-id="517" scale="7.6" move="10" id="path2865" class="cls-1" d="M194,269l-.44.22-.2.18.2.25,0,1.17.1.62.38.48.07,1.39-.27.32-.32-.22-.84.25-.44.59-.25.55.21.8.41.41.48-.34,1,.3.43-.37.66-.34.36-.64.78-.14.48-.37.38-.06.75.57.53-.73.16-1.08.25-.18.43.34.64-.18,1.27.36.8.07.41-.23-.46-.8v-.8l-.36-.46.43-1.44-.43-.48-1.09-.64-.25-.57.13-1.19,0-1-.46-.73-.55.38-.23.77.08.33-.36.36h-.24l-.45.54-.25.58.13.38-.29.41h-.18l-.09-.28-.28.22-.25-.18-.54,0-.13.56,0,.5-.56.56-1-.55-.33-.11,0-.3Z" transform="translate(-140.01 -184.32)" style="fill: rgb(210, 210, 230);"></path>
   <path name="Fosca" data-id="501" scale="8.3" move="10" id="path2867" class="cls-1" d="M193.37,269.39l-.39-.14h-.41l-.3-.22H192l-.32.25-.18,0-.21-.48-.5.14-.61.3-.21-.26,0-.36-.45-.21-.23-.23-.14-.27-.61-.14-.66.46-.25,0-.28-.41-.36,0-.23-.23-.09-.43,1.11-.14.77-.76,0-.3-.3-.49.2-.59.4-.41h.28l.24-.17.44.3.18,0,.31-.35.19.11.23-.08.26-.42.39.18.42,0,.44-.22.22-.23.52.17.56.65.64.35.2.27v.23l.18.12-.34.39-.22.05-.25.43.18.35-.15.43-.43.38,0,.38.41.43.08.42.19.37-.44.22-.2.18Z" transform="translate(-140.01 -184.32)" style="fill: rgb(210, 210, 230);"></path>
   <path name="XXXX" id="path6717" class="cls-1" d="M169.71,242.51l1-.15.46-.57.34-.23-.12-.21.71-.57-.16-.27.2-.18.53.64.7.25.51-.35.06-.32.32-.43-.13-.25v-.28l.36-.43-.3-.34-.06-.71-.35-.55,0-.44-.2-.27-.23-.51-.48.3H172l-.26-.2h-.36l-.34-.32.11-.37-.38-.16-.14.37-.46-.55-.38-.14-.35.37-.59.09-.23.52-.25.35-.47,0-.55-.23-.68-.35-.57.42.07.55.34.34-.19.3v.59l.35.26.06.41.54,1.27.23.24.2-.08.22.11.17.25.33.1.21.26h.27l.32.32.37.07.48.28-.07.32-.15.16-.14.27Z" transform="translate(-140.01 -184.32)" disabled="disabled" style="pointer-events: none;"></path>
   <path name="Albán" data-id="475" scale="10" move="10" id="path6719" class="cls-1" d="M166.66,236.06l-.57-.72-.12-.85-.32-.18-.15-.34-.46,0-.32-.18-.27-.71-.32-.25-.46.23-.45.43-.14-.16.3-.55-.14-.39L163,232l-.93.7.42.44.33.5-.36.53.47.11-.29.39.18.32,0,.6.32-.12.32-.34,0-.32.3.18.2.46-.06.87.27.48.18.37.43.52-.29.09.09.25-.27.28v-.5l-.26-.16-.15.36-.19.16.11.45.65-.11.77-.69.5.18.13.33.49-.05v-.59l.19-.3-.34-.34-.07-.55.57-.42Z" transform="translate(-140.01 -184.32)" style="fill: rgb(210, 210, 230);"></path>
   <path name="Guayabal de Síquima" data-id="516" scale="9" move="10" id="path6721" class="cls-1" d="M162.08,232.68l-.62-.27.28.43-.18.39-.28,0-.45.45.22.7-.33.43.48.58-.18.9.41.57-.34.48.16.74-.13.72.53.3.88.13.56-.21.42-.34.27,0-.11-.45.19-.16.15-.36.26.16v.5l.27-.28-.09-.25.29-.09-.43-.52-.45-.85.06-.87-.2-.46-.3-.18,0,.32-.32.34-.32.12,0-.6-.18-.32.29-.39-.47-.11.36-.53-.33-.5-.42-.44" transform="translate(-140.01 -184.32)" style="fill: rgb(210, 210, 230);"></path>
   <path name="Sasaima" data-id="555" scale="8" move="10" id="path6723" class="cls-1" d="M168.84,235.73l.28-.36v-.43l-.16-.63-.46-.57-.74-.73-.08-.64.16-.49,0-.24-.34-.34,0-.35.11-.44.42-.59-.37-.5v-.31l-.24-.32.29-.18.39-.15-.4-.07-.44.11-.3.34-.35-.25-.36-.12-.15.65-.07.69-.49-.4-.21-.3-.71.68-.58.89h-.38l-.06.4.12.21-.38.58-.27.1.23.38.14.39-.3.55.14.16.45-.43.46-.23.32.25.27.71.32.18.46,0,.15.34.32.18.12.85.57.72.68.35.55.23.47,0,.25-.35.23-.52Z" transform="translate(-140.01 -184.32)" style="fill: rgb(210, 210, 230);"></path>
   <path name="Villeta" data-id="585" scale="8" move="10" id="path6725" class="cls-1" d="M166.19,228.47l-.66.08,0-.4.11-.19-.08-.46-.64-.12-.06-.36.12-.35.29-.4-.37-.33-.27.18-.18-.25-.29-.1-.23.41.07.15-.3.13-.29-.19-.48.06-.47-.19-.19.27-.23,0-.14-.29-.29.13-1.12-.06-.17-.14-.21.26-.36,0-.22.12-.37-.29-.22.37.33.44-.15.51.07.56-.29.32.36.28.24.44-.18.53.07.27-.25.36.45.77-.08.62.19,1.34.42-.06.36-.27.3,1.08.46-.45.28,0,.18-.39-.28-.43.62.27.93-.7.27-.1.38-.58-.12-.21.06-.4H164l.58-.89.71-.68.21.3.49.4.07-.69.15-.65Z" transform="translate(-140.01 -184.32)" style="fill: rgb(210, 210, 230);"></path>
   <path name="Quebradanegra" data-id="545" scale="8.5" move="10" id="path6727" class="cls-1" d="M164.2,225.77l.09-.25-.15-.21v-.14l-.21-.24.15-.24v-.39l.21-.57,0-.34-.15-.43-.11-.28-.34,0-.12.24-.27-.16,0-.24-.13-.05v-.22l.23-.15,0-.23.12-.16-.08-.18-.22.06-.23-.19-.2,0-.25.42,0,.35-.07.3-.27-.08-.22,0-.31-.36h-.1l-.09.39-.43.29-.39-.14-.37.1-.08.28-.32,0-.31-.32-.3.15-.12.52.1.28-.11.31,0,1.14-.18.52.15.52.37.29.22-.12.36,0,.21-.26.17.13,1.12.07.29-.13.14.29.23,0,.19-.27.47.19.48-.06.29.19.3-.13-.07-.15.23-.41Z" transform="translate(-140.01 -184.32)" style="fill: rgb(210, 210, 230);"></path>
   <path name="XXXX" id="path6729" class="cls-1" d="M163.76,221.89l.55-.35.11-.32-.22-.32,0-.29.23-.48-.09-.46-.3-.32.55-.19,0-.52,0-.57.6-.09,0-.23-.32-.26-.09-.43-.34-.27-.37.06h-.32l.12-.32,0-.34-.43-.53-.75.37-.66-.18-.69.59,0,.41.16.39-.23.23v1.08l-.45.41.43.16.18.43-.32.53-.2.75.05.75-.06.26-.24.2-.41.13-.24.3-.31,0-.09.15.31.32.32,0,.08-.28.37-.1.39.14.43-.29.09-.39h.1l.31.36.22,0,.27.08.07-.3,0-.35.25-.42.2,0,.23.19.22-.06.08.18-.12.16,0,.23-.23.15v.22l.13.05,0,.24.27.16.12-.24,0-.76Z" transform="translate(-140.01 -184.32)" disabled="disabled" style="pointer-events: none;"></path>
   <path name="Nimaima" data-id="535" scale="10.6" move="10" id="path6731" class="cls-1" d="M170.19,219l-.17.36-.43.22-.22.25-.19.39,0,.42,0,.47-.53.66,0,.21-.24.16.1.48.19.48,0,.43-.15.34-.28.16-.44.07-.55-.49-.6.53-.25-.29-.17-.16H166v.42l-.33.53-.22.42-.1.44v.35l.24.35-.22.05-.37-.33-.27.18-.18-.25-.29-.1.09-.25-.15-.21v-.14l-.21-.24.15-.24v-.39l.21-.57,0-.34-.15-.43.44-.09.16.23.7,0,.46.28.68-.16.73-1.35.25-1.33.11-.87.48-.2.32-.55.55,0,.84-.16.3.35Z" transform="translate(-140.01 -184.32)" style="fill: rgb(210, 210, 230);"></path>
   <path name="Nocaima" data-id="536" scale="" move="10" id="path6733" class="cls-1" d="M168.3,224.06l.31.27v.26l.21.25,0,.31.24.1h.52L170,225l.25.26-.05.65.21.34-.35.54-.42.22-.31.37-.51,0-.46.21-.31-.42-.3-.07v.28l-.27.32-.28,0-.08.27-.17.15.28.49-.3.34-.35-.25-.36-.12-.66.08,0-.4.11-.19-.08-.46-.64-.12-.06-.36.12-.35.29-.4.22-.05-.24-.35v-.35l.1-.44.22-.42.33-.53v-.42h.34l.42.45.6-.53.55.49.44-.07Z" transform="translate(-140.01 -184.32)" style="fill: rgb(210, 210, 230);"></path>
   <path name="Vergara" data-id="581" id="path6735" class="cls-1" d="M176.2,223.35l-.53.3-.45.48-.62-.4-.52-.08-.3-.12-.46.39-.39.28-.44.55.14.26v.26l-.28-.05-.09.18.17.23-.21.32-.27-.2-.3.37-.11.29-.42.4,0,.24-.36.08-.24-.19-.88,0,.42-.22.35-.54-.21-.34.05-.65L170,225l-.36.28h-.52l-.24-.1,0-.31-.21-.25v-.26l-.31-.27.28-.16.15-.34,0-.43-.19-.48-.1-.48.24-.16,0-.21.53-.66,0-.47,0-.42.19-.39.22-.25.43-.22.17-.36.38.09.64,0,.3-.16.22-.35.44.28,0,.46.53.77.06.44,1,.11.09.23.8.21.54.36.64.21.48,0,.07.82-.09.85Z" transform="translate(-140.01 -184.32)" style="fill: rgb(210, 210, 230);"></path>
   <path name="Supatá" data-id="564" scale="8.5" move="10" id="path6737" class="cls-1" d="M179.93,227.33l-.3.26-.24.34-1,.59.17.12-.89.76-.29-.1-.25.28,0,.22-.3.09-.35-.4-.08-.27-.19,0-.52-.59h-.56l-.23-.1-.29-.23-.63-.44h-.23l-.43.25-.43-.58,0-.45-.3,0-.23-.19,0-.53-.22-.33.21-.32-.17-.23.09-.18.28.05V225l-.14-.26.44-.55.85-.67.3.12.52.08.62.4.45-.48.53-.3,1.11.5,1.17.76.18.48v.43l.18.19.27,0,0,.39.16.42.66.38,0,.46Z" transform="translate(-140.01 -184.32)" style="fill: rgb(210, 210, 230);"></path>
   <path name="La Vega" data-id="525" scale="7" move="10" id="path6739" class="cls-1" d="M173.37,228.05l-.23.33-.3,0-.52.58-.78,0-.44.31.36.65-.1.34.16.13.32-.17.09.22.26-.15.1.14-.45.35v.16l-.38.31,0,.26.46.46.07.55.22.35.43.2.33,0-.06.86-.16.46-.62.56-.31.12-.72.75-.38-.16-.14.37-.46-.55-.38-.14-.35.37-.59.09.28-.36v-.43l-.16-.63-.46-.57-.74-.74-.08-.63.16-.49,0-.24-.34-.34,0-.35.11-.44.42-.59-.37-.5v-.31l-.24-.32.29-.19.39-.14-.4-.07-.44.11-.28-.49.17-.15.08-.27.28,0,.27-.32V227l.3.07.31.42.46-.21.51,0,.34-.39h.85l.24.19.36-.08,0-.24.42-.41.11-.28.3-.37.27.2.22.33,0,.53.23.19.3,0,0,.45.43.58Z" transform="translate(-140.01 -184.32)" style="fill: rgb(210, 210, 230);"></path>
   <path name="San Francisco" data-id="553" scale="7" move="10" id="path6741" class="cls-1" d="M176.88,229.89l-.25.78-.25.25-.09.28,0,.36.32.39-.1.3-.47.35-.34-.1-.67.62,0,.33-.18.16-.17,0-.16.65-.38.5-.16.3-.38.42-.29.9-.48.3H172l-.26-.2h-.36l-.34-.32.11-.37.72-.75.31-.12.62-.56.16-.46L173,233l-.33,0-.43-.2-.22-.35-.07-.55-.46-.46,0-.26.38-.31v-.16l.45-.35-.1-.14-.26.15-.09-.22-.32.17-.16-.13.1-.34-.36-.65.44-.31.78,0,.52-.58.3,0,.23-.33.43-.25H174l.63.44.29.23.23.1h.56l.52.59.19,0,.08.27.35.4Z" transform="translate(-140.01 -184.32)" style="fill: rgb(210, 210, 230);"></path>
   <path name="XXXX" id="path6743" class="cls-1" d="M184,229.2l-.32.16-.29-.07-.17.11-.24-.15-.17.17,0,.66-.11.57v.83l-.34,1.23.08.27-.32.2,0,.55-.26.32-.34.21h-.19l.1.3,0,.32-.2.06-.41.56-.29.15-.47,0-.59.52.12.18-.41.29-.36.52h-.43l-.26.08-.08-.33.12-.32.31-.48-.71-.63,0-.23-.3-.24-.1-.24-.58-.5-.14-.21-.08-.26.08-.39-.07-.25-.49-.6.47-.35.1-.3-.32-.39,0-.36.09-.28.25-.25.25-.78.3-.09,0-.21.25-.29.29.1.89-.76-.17-.12,1-.59.24-.34.3-.26.8.32.2-.2,0-.35.37-.75.29,0,.09-.29.73-.26.41.12.59-.21.19.46,0,.94.69.16,0,.34-.59.83,0,.29.36.43Z" transform="translate(-140.01 -184.32)" disabled="disabled" style="pointer-events: none;"></path>
   <path name="XXXX" id="path6745" class="cls-1" d="M178.15,237.28l-.54.38-.31.32-.36.08-.12.37-.35.24-.24.29h-.41l-.24.36-.22-.1H175l-.17.19-.35-.25-.3-.34-.06-.71-.35-.55,0-.44-.2-.27-.23-.51.29-.9L174,235l.16-.3.38-.5.16-.65.17,0,.18-.16,0-.33.67-.62.34.1.49.6.07.25-.08.39.08.26.14.21.58.5.1.24.3.24,0,.23.71.63-.31.48-.12.32.08.33Z" transform="translate(-140.01 -184.32)" disabled="disabled" style="pointer-events: none;"></path>
   <path name="XXXX" id="path6747" class="cls-1" d="M178.84,237.21h.3l-.43.85-.51.62-.13.32-.19.72-.16.15,0,.36-.21.31-.24-.14-.19.08-.34.45-.3-.38-.16.49-.25.42-.62.66-.16.5.11.27,1,.68-.23.29-1,.8,0,.26-.24.28.06.25.11.26-.18.3,0,.43-.12.24-.45-.4-.49-.42-.43-.21-.31-.26-.19-.31-.29,0-.16-.11-.84-1.11-.47-.38-.11-.59-.25-.55.46-.57.34-.23-.12-.2.71-.58-.16-.27.2-.18.53.64.7.25.51-.35.06-.32.32-.43-.13-.25v-.28l.36-.43.35.25.17-.19h.35l.22.1.24-.36h.41l.24-.29.35-.24.12-.37.36-.08.31-.32.54-.38.26-.08Z" transform="translate(-140.01 -184.32)" disabled="disabled" style="pointer-events: none;"></path>
   <path name="XXXX" id="path6749" class="cls-1" d="M184.12,235.31v.1l-.62.09-.09-.38-.16.17-.12-.27-.21.26-.2-.18h-.29l-.2-.17-.45,0-.33-.07,0-.32-.1-.3h.19l.34-.21.26-.32,0-.55.32-.2-.08-.27.34-1.23v-.83l.11-.57,0-.66.17-.17.24.15.17-.11.29.07.32-.16.62.2h.5l-.16.32.05.35.22.32.6.18.06.23.39.09.25.32.05.46h-.14l-.25.53-.32.59-.48.55-.86.87-.21.3-.18.8Z" transform="translate(-140.01 -184.32)" disabled="disabled" style="pointer-events: none;"></path>
   <path name="XXXX" id="path6751" class="cls-1" d="M179.43,242.91l-.12-.23.1-.33-.14-.18,0-.31-.23,0-.22.28-.44-.4-.34.18-.19-.41.15-.36-.35-.3-.61.75-.11.24-.12-.19.12-.23-.2-.46.34-.45.19-.08.24.14.21-.31,0-.36.16-.15.19-.72.13-.32.51-.62.43-.85h-.3l.36-.52.41-.29-.12-.18.59-.52.47,0,.29-.15.41-.56.2-.06.33.07.45,0,.2.17h.29l.2.18.21-.26.12.27.16-.17.09.38.62-.09,0,1.52-.14.32-.42.47L182.47,239l-.23.47-.51-.17-1.31,1.29-.09.53-.65.71.27.58-.52.5Z" transform="translate(-140.01 -184.32)" disabled="disabled" style="pointer-events: none;"></path>
   <path name="XXXX" id="path6753" class="cls-1" d="M179,245.72l-.27.18-.5,0-.52.11-.28-.06-.49-.62-.24-.42-.38-.41-.05-.46-.24-.16.23-.29-1-.68-.11-.27.16-.5.62-.66.25-.42.16-.49.3.38.2.46-.12.23.12.19.11-.24.61-.75.35.3-.16.36.2.41.34-.18.44.4.22-.28.23,0,0,.31.14.18-.1.33.12.23.17.29,0,.39h.28l.34-.18.25.09.05.28-.14.23.06.49-.08.14-.19.07-.13-.09,0-.13H180l-.12.12.06.17.23.19v.25l-.08,0,.1.13-.11,0-.12-.08-.07.06-.07.15-.25.11h-.41l-.1,0Z" transform="translate(-140.01 -184.32)" disabled="disabled" style="pointer-events: none;"></path>
   <path name="XXXX" id="path6755" class="cls-1" d="M179,245.72l.08.12.21.1V246l-.14,0v.21l.17.24.08,0,0,.09-.23.16V247l-.07.08.06.13.1,0,.06.12.21-.13.06.09.11-.12h.09v-.28h.1l.2.22-.05.12h-.1l-.2.11h-.09l.05.17-.12,0-.15-.08-.11.1.27.18h.31l.06-.05.09.18-.13.1-.17,0,0,.14-.06.06h-.18v.11l-.08,0-.09-.06-.19.05,0,.12-.22,0-.14.13-.16.26-.22,0,.07-.13.11,0,.06-.17h-.1l-.1.06-.22-.05-.11-.12-.13.06v.16l-.21,0-.15.21.1.11-.19,0v-.09l-.15-.07-.08.08.12.17-.12.13-.14,0-.05.07-.1-.07-.09-.2h-.16l-.05-.09-.17.12.05.07.31.2v.11l-.15.06.06.08,0,.1.14.09-.1,0v.08h-.13l0-.09-.27-.23-.39.12-.43,0-.39.6-.46-.35-.33.47-.35.11-.28-.21-.31-.15-.17-.26,0-.78-.15-.44.1-.43-.26-.18-.25-.08.14-.42L173,247l-.46-.54,0-.32-.15-.23.15-.27-.22-.36,0-.32.16.1.29,0,.19.31.31.26.43.21.94.82.12-.24,0-.43.18-.3-.11-.26-.06-.25.24-.28,0-.26,1-.8.24.16.05.46.38.41.24.42.49.62.28.06.52-.11.5,0,.28-.18Z" transform="translate(-140.01 -184.32)" disabled="disabled" style="pointer-events: none;"></path>
   <path name="San Bernardo" data-id="551" scale="6" move="10" id="path3023" class="cls-1" d="M175.48,273.67l-.4-.08-.33.19-.19-.11-.2.21-.5,0-.67.2-.54.08-.43,0-.31-.19h-.22l-.18.19-.36-.4-.41-.09-.62.17h-.36l-.43-.48-.41,0-.53-.16-.32-.22-.75-.23-.42.31h-.45l-.44-.22-.14-.64-.34-.39-.51-.41-.47.19-.24-.1-1,.54.25.34v.21l.5.31.42.39.12.45.21.24.06.45.2.37.21.27-.1.24.28.24,0,.29-.37.34-.13.34,0,.48-.23.29,0,.22.08.21-.08.16.13.41.33-.23.71.24.37.22.59.16.25.43.25.17.31.43,0,.44.12.2-.06.35.1.29,0,.29.28.22.07.33.63.07v-.22l.14-.11.05-.42.16-.22.17,0,.34-.39-.06-.57.07-.11v-.37l.18-.24v-.22l.08-.15v-.36l.18-.15,0-.23h.13v-.12l.27-.2,0-.33.21-.28.07-.24-.09-.27h.17l.13.15.3.06.13.23,0,.16.22.18.18,0,.11.27.1.06h.17l.11.19.22,0,.15.12.33.06.34,0,.12.11.28.07.15.24.29,0,.14.2h.12l0-.11h.26l.16-.45,0-.67.2-.43-.12-.21.21-.11.11-.7.19-.24v-.24l.17-.25-.18-.12.07-.77-.06-.79Z" transform="translate(-140.01 -184.32)" style="fill: rgb(210, 210, 230);"></path>
   <path name="Arbelaez" data-id="478" scale="5.5" move="10" id="path3025" class="cls-1" d="M160.33,270.71l.85-.19.16.12.34-.13.33.16.41,0,.64.75.27.47,1-.54.24.1.47-.19.51.41.34.39.14.64.44.22h.45l.42-.31.75.23.32.22.53.16.41,0,.43.48h.36l.62-.17.41.09.36.4.18-.19h.22l.31.19.43,0,.54-.09.67-.19.51,0,.19-.21.19.11.33-.19.4.08,0-.3-.12-.3.18-.18-.39-.14-.25.31h-.3l-.17.17h-.65l-.39-.24h-.29l-.64.16-.31-.19-.35.12-.42-.35-.22-.33v-.32l-.21-.65-.51-.07-.3-.13-.52-.43-.45-.22-.23-.3-.1-.24-.07-.49-.18-.21-.4-.14-.71-.15-.6-.47-.65-.43-.37-.12h-.3l-.18-.19-.38.36-.62.15-.51.42-.79.08-.44.17-.66.79-.38,0-.38.26-.37.07-1.44,0,.31.18.61.15Z" transform="translate(-140.01 -184.32)" style="fill: rgb(210, 210, 230);"></path>
   <path name="Fusagasuga" data-id="504" scale="5" move="10" id="path3027" class="cls-1" d="M159.39,270.21l1.43,0,.37-.07.38-.26.38,0,.66-.79.44-.17.79-.08.51-.42.62-.15.38-.36.18.19h.3l.37.12.65.43.6.47.71.15.4.14.18.21.07.49.1.24.23.3.45.22.52.43.3.13.5.07h0l.4.05.33.19.64-.32.33.11.3-.18-.65-.29-.56-.51-.53-.32v-.45l-.82-1-.06-.26-.3-.37.34-.93.1-.61.32-.74-.19-.48.06-.25.33-.49,0-.3.17-.17-.28-.44.3-.5,0-.33.22-.05.71,1.15h.21l.41.32.29-.15.37.19.56-.22.37-.39-.17-.18-.51-.29-.32,0,.34-.69-.61-.21-.75-.07,0-.52.37-.07-.44-.85-.67.56-.29.12.11.6-.27.53-.51-.08-.63.11-.39-.26-.3-.3-1.59,0-.36.18-.22.24v.24l.09.18-.5.69-.45.11-.51.62-.07.42-.14.25-.2.17-.23.12-.25.37-.09.33-.19.32-.46.51-.42.44-.5.34-.64.38-.5.2-.27,0-.17.12-.51.11-.83.41-.25.09-.19-.08-.21.08-.36.31-.26.27.06,0-.15.13.06.24h.22l.13.17Z" transform="translate(-140.01 -184.32)" style="fill: rgb(210, 210, 230);"></path>
   <path name="Pasca" data-id="542" scale="5" move="10" id="path6764" class="cls-1" d="M173.67,263.24l.51.29.17.18-.37.39-.56.22-.37-.19-.29.15-.41-.32h-.21l-.71-1.15-.22.05,0,.33-.3.5.28.44-.17.17,0,.3-.33.49-.06.25.19.48-.32.74-.1.61-.34.93.3.37.06.26.82,1v.45l.53.32.56.51.65.29-.3.18-.33-.11-.64.32-.33-.19-.4-.05.22.65v.32l.22.33.42.35.35-.12.31.19.64-.16h.29l.39.24h.65l.17-.17h.3l.25-.31.39.14h.16l.15-.12.24-.09.26-.54.19-.1v-.27l.24-.69v-.3l.7-.49.07-1.35-.36.05-.37-.21v-.2l-.31-.1,0-.09.39-.3.09-.6-.52-.26-.27-.26.38,0,0-.2.16-.25-.33-.43v-.83l.35-.51v-.26l.25-.6v-.5l.11-.31-.27-.48-.42-.36-.63-.22h-.77l-.78.85-.45.41Z" transform="translate(-140.01 -184.32)" style="fill: rgb(210, 210, 230);"></path>
   <path name="Tibacuy" data-id="571" scale="8.6" move="10" id="path6766" class="cls-1" d="M159.06,269.53l.26-.27.36-.31.21-.08.19.08,1.08-.5.51-.11.17-.12.27,0,.5-.2.64-.38.5-.34.42-.44.46-.51.19-.32.09-.33.25-.37.23-.12.2-.17.14-.25.07-.42h0l-.18-.32-.31,0-.22-.25-.27.09-.49-.56L164,263l-.36.84v.66l-.09.2-.5-.65-.43.15h-.3l-.27.28-.25,0-.27.13-.39.38,0,.54-.36.27-1.14,1.1-.31.14-.19.46-.38.64-.23,1,.16.09.09.24.28,0Z" transform="translate(-140.01 -184.32)" style="fill: rgb(210, 210, 230);"></path>
   <path name="Silvania" data-id="558" scale="8" move="10" id="path6770" class="cls-1" d="M172.17,256.47l-.37.18h-.42l-.25-.06-.5.33-.52-.08-.52.11-.64,0-.29-.16-.29.11-.27-.09-.54.24-.58.06-.45.58-.2.49-.15.49-.55.66-.27.82-.4.85-.05.26-.41,1L164,263l.36.28.49.56.27-.09.22.25.31,0,.18.32.51-.62.45-.11.5-.69-.09-.18v-.25l.22-.23.36-.18,1.59,0,.3.3.39.26.63-.11.51.08.27-.53-.11-.6.29-.12.67-.56-.45-.68.36-.53.09-.87-.23-.71.26-.64-.16-.91Z" transform="translate(-140.01 -184.32)" style="fill: rgb(210, 210, 230);"></path>
   <path name="La Mesa" data-id="522" id="path6772" class="cls-1" d="M165.08,245.38l-.43-.1-.38.1-.26.24-.26.47h-.25l-.07.3-.23.24-.4,0-.24.12-.21,0-.3.19-.29,0-.35.19h-.25l-.15.15v-.32h-.21l-.2.24-.25.07-.26-.27-.07-.34-.32,0-.18-.11-.25.27,0,.19-.48.3-.11.42-.34.32,0,.29.09.36.24,0,.4.74.16.55.35.14.07.19.26,0,.34.18.2.39h.2l.06.32.33.08.13.26.55.21.54.15.27.06.22.4.26-.35.27-.07.17-.21h.3l.28-.24.29-.1.08-1v-.67l.2,0,.52.31.19,0v-.19l-.13-.3.45-.2v-.81l.31-.2.9-.91.36-.53.27,0,.17-.34-.28-.22.14-.16.16-.92-.43-.26-.25,0-.24.38h-.37l-.42.13-.74.4-.19-.14v-.32Z" transform="translate(-140.01 -184.32)" style="fill: rgb(210, 210, 230);"></path>
   <path name="Anolaima" data-id="477" id="path6774" class="cls-1" d="M161.12,238.76h-.32l-.26-.12-.13.25,0,.23.34.63.28.24,0,.81-.35-.06-.53.37.15.28,0,.3.35.36.42.24.07.24-.25.49-.15.5v.42l.07.54.22.56.53-.44.39-.51.36.18.38-.34h.35l.35.2.44-.16.38-.52-.13-.3.12-.45.31-.1.43.05h.37l.38-.47.25-.24.26,0,.29-.39v-.5h.33l.07-.23-.25-.28.14-.14H167l.25.07,0-.3-.54-1.27,0-.39-.37-.28-.49.05-.13-.33-.5-.18-.77.69-.9.15-.44.34-.56.21-.88-.13-.53-.3Z" transform="translate(-140.01 -184.32)" style="fill: rgb(210, 210, 230);"></path>
   <path name="Anapoima" data-id="476" scale="7.3" move="10" id="path6776" class="cls-1" d="M158.47,248.66l-.16.39h-.2l-.19.16v.25l-.17.13,0,.4h-.33l-.21-.3-.2-.05-.41-.27-.36.23.39.24h.17l.17.23v.31l.23.24,0,.46.19.33-.05.23.28.57,0,.41.23.37.25.13.16.34.26.23.16.28,0,.37-.21.31-.33.2-.12.23.07.24.27,0,.23-.2.31-.09.27.27.06.24-.16.36-.33.3-.24.24-.06.19.34.2.23-.21.24.05.17-.16.24.12.1.25.35-.08.58.18v.27l.28-.14.42.42.79-.65.26,0,.25-.07.32.15.26-.25.22-.27-.14-.29,0-.67.18-.3-.43-.33h-.3l-.23.14-.54-.39h-.21l-.16-.2.4-.33.29-.35,0-.28L162,253l.34-.25.37-.16.07-.21-.22-.4-.81-.21-.55-.21-.13-.26-.33-.08-.06-.32h-.2l-.2-.39-.34-.18-.26,0-.07-.19-.35-.14-.16-.55-.4-.74-.24,0Z" transform="translate(-140.01 -184.32)" style="fill: rgb(210, 210, 230);"></path>
   <path name="Apúlo" data-id="548" scale="8" move="10" id="path6778" class="cls-1" d="M156.28,249.6l-.09.44-.18.26v.27l0,.54-.22.69-.07.49-.34.73-.09.77.07.56-.08.55-.16.23,0,.53.07.42-.19.33.24.48h.25l.36.29-.05.34-.16.49.19.55,0,.32-.2.23.19.25.31-.08.32,0,.53.22.41,0,.14.16.77,0-.18-.35.09-.33-.25-.62-.26-.2-.06-.25.4-.3.15.1h.52l.47-.08.38-.15-.35.41.18.16-.22.3.34.57.18.1.14-.23.22.17.1-.45.23.14.36-.33-.05-.24.46-.43.27-.1-.42-.42-.28.14V257l-.58-.18-.35.08-.1-.25-.24-.12-.17.16-.24-.05-.23.21-.34-.2.06-.19.57-.54.16-.36-.06-.24-.27-.27-.31.09-.23.2-.27,0-.07-.24.12-.23.33-.2.21-.31,0-.37-.16-.28-.26-.23-.16-.34-.25-.13-.23-.37,0-.41-.28-.57.05-.23-.19-.33,0-.46-.23-.24v-.31l-.17-.23h-.17l-.39-.24Z" transform="translate(-140.01 -184.32)" style="fill: rgb(210, 210, 230);"></path>
   <path name="" id="path6780" class="cls-1" d="M172.33,252.94l-.33.49.19.31-.08.2h-.28l-.28,0-.32-.2h-.18l-.47.25-.21-.2h-.5l-.36-.1-.22-.24-.44,0-.26.3,0,.17-.21.21.21.2-.09.16.1.19v.17l-.37.23-.21.56-.38.57-.49.61-.13.26.58-.06.54-.24.27.09.29-.11.29.16.64,0,.52-.11.52.08.5-.33.25.06h.42l.37-.18.29-.42.39.58.34-.19,0-.36.29-.14.14-.53-.14-.78-.34-.21,0-.29-.52-.36-.25-.83Z" transform="translate(-140.01 -184.32)" style="fill: rgb(210, 210, 230);"></path>
   <path name="San Antonio de Tenquendama" data-id="550" scale="8.5" move="10" id="path6782" class="cls-1" d="M170,248.59v-.24l-.34,0-.19.3h-.26l-.48.41h-.14l-.17.23-.37-.42h-.25l0,.41-.24.26v.23l-.12.16-.18,0v.29l-.08.17.22.5.08.46,0,.53.29.46.54.28.53.81.44,0,.22.24.36.1h.5l.21.2.47-.25h.18l.32.2.28,0h.28l.08-.2-.19-.31.33-.49,0-1,.29-.87.55-.2.14-.1-.85-.36-.61-.57-.13-.41-.76-.55-.5-.25-.49-.08Z" transform="translate(-140.01 -184.32)" disabled="disabled" style="pointer-events: none;"></path>
   <path name="El Colegio" data-id="496" scale="8.5" move="10" id="path6784" class="cls-1" d="M167.23,250l-.24,0-.28-.1-.27,0-.34.18-.38.44-.34.39-.35.27-.32.22h-.35l-.29.1-.28.24h-.3l-.17.21-.27.07-.26.35-.07.21-.37.16L162,253l.37.48,0,.28-.29.35-.4.33.16.2H162l.54.39.23-.14h.3l.43.33-.18.3,0,.67.14.29-.22.27.15.12.14,0,.34-.36.48-.23.6.37.22,0,.2-.29V256l.64-.46.3-.11.39.08.26.26.09.38,0,.44.24.09.34-.42.38-.57.21-.56.37-.23v-.17l-.1-.19.09-.16-.21-.2.21-.21,0-.17.26-.3-.53-.81-.54-.28-.29-.46,0-.53-.08-.46-.22-.5.08-.17V250Z" transform="translate(-140.01 -184.32)" style="fill: rgb(210, 210, 230);"></path>
   <path name="Viotá" data-id="586" scale="6.5" move="10" id="path6786" class="cls-1" d="M163.25,256.76,163,257l-.32-.15-.25.07-.26,0-.79.65-.27.1-.46.43.05.24-.36.33-.23-.14-.1.45-.22-.17-.14.23-.18-.1-.34-.57.22-.3-.18-.16.35-.41-.38.15-.47.08h-.52l-.15-.1-.4.3.06.25.26.2.15.33.1.29-.09.33.18.35-.11.18-.47,0,.58.49.12.41-.18.16-.32-.11v.38l-.16.21.26.16.36-.14.4.28-.11.18v.39l.25.25v.4l.1.16,0,.38-.24.32.22.27h.2l.3-.25.48,0,.31.21h.53l.34.18.2-.12.19.2,0,.42.27-.13.25,0,.27-.28h.3l.43-.15.5.65.09-.2v-.66L164,263l.53-.71.41-1L165,261l.4-.85.27-.82.55-.66.15-.49.21-.49.44-.58.13-.26.15-.19-.24-.09,0-.44-.09-.38-.26-.26-.39-.08-.3.11-.64.46v.32l-.2.29-.22,0-.6-.37-.48.23-.34.37h-.14l-.15-.12Z" transform="translate(-140.01 -184.32)" style="fill: rgb(210, 210, 230);"></path>
   <path name="Tena" data-id="569" scale="10.8" move="10" id="path6788" class="cls-1" d="M167.56,246.14l-.14.16.28.22-.17.34-.27,0-.36.53-.9.91-.31.2v.81l-.45.2.13.3V250l-.19,0-.52-.31-.2,0v.67l-.08,1h.35l.67-.49.72-.83.34-.18.27,0,.28.1.24,0,.18,0,.12-.16v-.23l.24-.26,0-.41h.25l.37.42.17-.23h.14l.48-.41h.26l.19-.3.34,0,0-1.21-.36-.17-.06-.28-.37.14-.24-.62-.51.07-.94-.14Z" transform="translate(-140.01 -184.32)" style="fill: rgb(210, 210, 230);"></path>
   <path name="Tocaima" data-id="573" scale="5" move="10" id="path3091" class="cls-1" d="M156,250.57l-.25.18-.36.5-.43.59.11.31-.24-.11-.2.17.08.24-.1.41-.24.42-.68.86-.26.08-.11.2-.41.44-.14.06-.13.24-.25.26-.18,0-.3.4-.12,0-1,1.11-.3.24-.6,1-.28.34-.21.18-.28.14h-.24l-.23-.07-.17,0-.22.24,0,.39-.07.33-.33.41.26.49-.1.45.13.65.1.74.07.3,0,.48.48-.3.33-.15.26-.33.22-.07.24.08.19-.09.13-.26.25-.24h.2l.21-.17,0-.22.26-.16.41-.09.45-.05.38.05.23-.12.33.27v.36l.18.19.43-.11.61.15.05.2.45.13.31.05v.23l.43.11.42.29.52.48.1.66.94-.56.36,0,.38-.17.4,0,.36.32.24-.32,0-.38-.1-.16v-.4l-.25-.25v-.39l.11-.18-.4-.28-.36.14-.26-.16.16-.21v-.38l.32.11.18-.16-.12-.41-.58-.49.47,0,.11-.18-.77,0-.14-.16-.41,0-.53-.22-.32,0-.31.08-.19-.25.2-.23,0-.32-.19-.55.16-.49.05-.34-.36-.29h-.25l-.24-.48.19-.33-.07-.42,0-.53.16-.23.08-.55-.07-.56.09-.77.34-.73.07-.49.22-.69,0-.54Z" transform="translate(-140.01 -184.32)" style="fill: rgb(210, 210, 230);"></path>
   <path name="Quipile" data-id="547" scale="6.5" move="10" id="path3093" class="cls-1" d="M160.15,241.1l0-.48-.23-.07-.16.32-.27.28-.44.06-.31-.24-.4.13-.26-.27-.18.5,0,.52-.12.36-.25.27-.44.18h-.4l-.07.48-.16.64-.15.57,0,.6.06.39-.11.3.16.23.19-.11.23.17-.28.55-.17.55-.42.59-.15.33-.2.2v.53l.18.17h.32l.41-.38.26.22-.18.2v.48l.41.27.2.05.21.3h.33l0-.4.17-.13v-.25l.19-.16h.2l.16-.39-.09-.36,0-.29.34-.32.11-.42.48-.3,0-.19.25-.27.18.11.32,0,.07.34.26.27.25-.07.2-.24H161l.15-.31,0-.23.07-.41.36-.24-.12-.39-.35-.32-.22-.56-.07-.54v-.42l.15-.5.25-.49-.07-.24-.42-.24-.35-.36,0-.3-.15-.28Z" transform="translate(-140.01 -184.32)" style="fill: rgb(210, 210, 230);"></path>
   <path name="Bituima" data-id="480" scale="8.5" move="10" id="path3095" class="cls-1" d="M160.82,233.64l-.29.93-.28.56-.69.07.18.34-.06.21-.62.32-.21.58,0,.34-.34.59.11.49-.06.77-.18.58v.68l-.3.73.26.27.4-.13.31.24.44-.06.27-.28.16-.32.23.07,0,.48.53-.37.35.06,0-.81-.28-.24-.34-.63,0-.23.13-.25.26.12h.32l.13-.72-.16-.74.34-.48-.41-.57.18-.9-.48-.58.33-.43-.22-.7h0Z" transform="translate(-140.01 -184.32)" style="fill: rgb(210, 210, 230);"></path>
   <path name="Viani" data-id="582" scale="8" move="10" id="path3097" class="cls-1" d="M156.73,235.74l-.1.5.27.67,0,.43-.13.53.33.64.1.63.28.84.25.54.42.13.23-.55v-.68l.18-.58.06-.77-.11-.49.34-.59,0-.34.21-.58.62-.32.06-.21-.18-.34.69-.07.28-.56.29-.93-.3-1.08-.36.27-.42.06-.19-1.34-.87,0-.64.27-.2.58-.64.46,0,.9.3.28-.44.75v.53l-.29.46Z" transform="translate(-140.01 -184.32)" style="fill: rgb(210, 210, 230);"></path>
   <path name="XXXX" id="path6794" class="cls-1" d="M152.58,265.25l-.61.05-.28.3-.15.32h-.16l-.58-.64-.3.33-.8-.71h-.39l-.17-.18.26-.34-.29-.25-.15-.41,0-.22-.29-.44.33-.15.26-.33.22-.07.24.08.19-.09.13-.26.25-.24h.2l.21-.17,0-.22.26-.16.41-.09.45-.05.38.05.23-.12.33.27v.36l.18.19.43-.11.61.15.05.2.45.13.31.05v.23l.43.11.42.29.52.48.1.66-.41.22-.33.05-.1-.23h-.22l-.83.75-.16,0-.34-.25-.39-.23-.23,0-.24.28-.25.08-.24.3Z" transform="translate(-140.01 -184.32)" disabled="disabled" style="pointer-events: none;"></path>
   <path name="Puli" data-id="544" scale="7" move="10" id="path3103" class="cls-1" d="M151.13,242.69l-.37.24-.37-.18-.24,0-.27.63-.32-.19-.2.22-.13-.3-.31-.22h-.24l-.09.41-.29.44-.32.35,0,.29.34.34,0,.29-.19.23-.32.14-.45.62,0,.42-.15.33.52.67-.16.27.13.3-.13.37.32.49.26.06,0,.29,0,.52.29.28.57.09.22-.16.17-.46.39-.26.42-.14.58.19h.31l.33-.28.22-.3.06-.29.2,0,.22.28.28,0,.25.46h.64l.38-.3.39-.09.13-.2h.23l.39-.34.59.06.28.3v-.53l.2-.2.15-.33.42-.59.17-.55.28-.55-.23-.17-.19.11-.16-.23.11-.3-.06-.39,0-.6.15-.57-.68-.09-.24.19-.64.14-.39.27h-.32l-.26.28-.45-.26-.31,0-1.09-.89-.33-.11-.29-.38-.34-.2Z" transform="translate(-140.01 -184.32)" style="fill: rgb(210, 210, 230);"></path>
   <path name="Jerusalen" data-id="519" scale="6.6" move="10" id="path6799" class="cls-1" d="M149,250.13l0,.34-.21.16v.25l-.3.29-.25.08,0,.3-.28.42.19.42-.18.14-.22,0-.28.28v.3l-.49.35,0,.34.22.39.07.27.21,0,0,.24.39.31-.12.54,0,.55v.41l-.27.55.46.11.28.69.25.11.12.24.62.61.28-.14.21-.18.28-.34.6-1,.3-.24,1-1.11.12,0,.3-.4.18,0,.25-.26.13-.24.14-.06.41-.44.11-.2.26-.08.68-.86.24-.42.1-.41-.08-.24.2-.17.24.11-.11-.31.79-1.09.25-.18v-.27l.18-.26.09-.44.36-.23v-.48l.18-.2-.26-.22-.41.38h-.32l-.18-.17-.28-.3-.59-.06-.39.34h-.23l-.13.2-.39.09-.38.3h-.64l-.25-.46-.28,0-.22-.28-.2,0-.06.29-.22.3-.33.28h-.31l-.58-.19-.42.14-.39.26-.17.46-.22.16Z" transform="translate(-140.01 -184.32)" style="fill: rgb(210, 210, 230);"></path>
   <path name="La Peña" data-id="524" scale="8.4" move="10" id="path3997" class="cls-1" d="M168.5,218.87l.41-1.05,0-1.08.39-.18,0-.74,0-.26-.2-.33-.33-.08-.35-.37-.46,0-.23-.14-.42.16-.2.2-.34,0-.38-.23-.17.25-.25.19,0,.31-.67.52H165l-.23-.26-.86.41,0,.34-.12.32h.32l.37-.06.34.27.09.44.32.25,0,.23-.6.09,0,.57,0,.53-.55.18.3.32.09.46-.23.48,0,.29.22.32-.11.32-.55.35,0,.76.34,0,.11.28.44-.09.16.23.7,0,.46.28.68-.16.73-1.35.36-2.2.48-.2.32-.55Z" transform="translate(-140.01 -184.32)" style="fill: rgb(210, 210, 230);"></path>
   <path name="El Peñon" data-id="497" scale="8.3" move="10" id="path3999" class="cls-1" d="M168.5,218.87l.55,0,.84-.16.3.35.38.09.64,0,.3-.16.22-.35.44.28.41-.23.43-.76.05-.61-.28-.21.3-.14.59.48.36-.13.51.09.43-.44.09-.45,0-.26,0-.59-.07-.48,0-.55-.23-.14v-.55l-.22-.45v-.62l-.57-.28-.69.23v.35l-.41-.26-.11.44-.66-.16-.3-.21-.07-.34-.41-.39-.29-.62-.34-.27-.32.16-.43.59-.37-.23-.44-.07-.29.34,0,.36.12.35.33.4.55.1.44.51,0,.43-.21.45,0,.48.06.39-.07.44-.81-.2,0,.74-.39.18,0,1.08-.41,1.05Z" transform="translate(-140.01 -184.32)" style="fill: rgb(210, 210, 230);"></path>
   <path name="Topaipí" data-id="575" scale="7.4" move="10" id="path6807-4" class="cls-1" d="M175,214.59l.23-.07-.05-.53.44-.18,1,.23.21-.41-.51-.28-.31-.5-.05-.73.18-.48.39-.44,0-.93-.52-.69,0-.39-.2-.37.09-.52-.25,0-.34-.28-.78-.28-.31,0-.18.35.06.5h-.5l-.76-.7h-.25l-1,1-1-.31-.21-.28-.23-.15h-.34l-.16-.25v-.46l-.31-.6H169l0,.32-.22.14-.09.32-.34.06-.24.42.06.26.78.88.15.35,0,.77.24.17-.26.66,0,.56.44.07.37.23.43-.59.32-.16.34.27.29.62.41.39.07.34.3.21.66.16.11-.44.41.26v-.35l.69-.23.57.28v.62l.22.45v.55l.23.14Z" transform="translate(-140.01 -184.32)" style="fill: rgb(210, 210, 230);"></path>
   <path name="XXXX" id="path4015" class="cls-1" d="M201,204.36l-.66,1-.48.51-.12.57.21.39-.59,1-.62.25,0,.52-.46.58-.11.41-.43.29-.37,0-1.77-1.37.75-.44-.14-.82-.52-.39-.34-.53-.69-.11.16-1.05.87-.3.07-.32.77-.16.16-.16.27.57.53.16.29-.46-.16-.2,0-.37.27-.41.73.11.41-.2,0-.35.71-.25.33-.51.34.62.89.71Z" transform="translate(-140.01 -184.32)" disabled="disabled" style="pointer-events: none;"></path>
   <path name="XXXX" id="path4017" class="cls-1" d="M203.25,205.51l-.36.34-.73.14.29.46.07.77-.38.6-.41,1.1-.28.11,0,.41-.73.67.05.64-.09.5-.25.09-.57-1.1-.37-.18-.13-.41-.73,0-.46-.11.11-.41.46-.58,0-.52.62-.25.59-1-.21-.39.12-.57.48-.51.66-1,.32-.78.93-.44.42,1,1-.35.3.48-.21.64Z" transform="translate(-140.01 -184.32)" disabled="disabled" style="pointer-events: none;"></path>
   <path name="XXXX" id="path4019" class="cls-1" d="M204.53,205.05l.66.65.83-.78.2.84-.2.42,1.46.57.27.62.5-.2.76.27.48.46.49-.06.57.28.07.57-.17.52-.43,0-.71.71-.87.53-.86-.21-.3.39-.63.37-.46.52-.73.05-.34.36-.68,0-.23-.59-.39.16-.36-.14-.25-.3h-.37l-.41.55-.27.09-.48.53-.64-.07-.13-1.24-.16-.13-.05-.64.73-.67,0-.41.28-.11.41-1.1.38-.6-.07-.77-.29-.46.73-.14.36-.34.48-.59Z" transform="translate(-140.01 -184.32)" disabled="disabled" style="pointer-events: none;"></path>
   <path name="XXXX" id="path4021" class="cls-1" d="M210.44,210.16l-.16-.36.17-.58-.43,0-.71.71-.87.53-.86-.21-.3.39-.63.37-.46.52-.73.05-.34.36-.68,0-.23-.59-.39.16-.36-.14-.25-.3h-.37l-.41.55-.27.09-.48.53-.64-.07.16,1.44.85.46.59.62.13.48.53.48L203,216l.62.16-.09.23.57-.14.82.32-.05.37.37.32.38,0,.28.09,1-.78.29-.41-.13-.57-.34-.32.45-.28.07-.27.89-.76.43-.06.64-.44.09-.71.5-.39.11-.45.25-.42.3-.58Z" transform="translate(-140.01 -184.32)" disabled="disabled" style="pointer-events: none;"></path>
   <path name="XXXX" id="path4023" class="cls-1" d="M201.2,213.56l-1,.8-.45.87-.62.39-.7-.44-.14-.29-.52.43-.46-.48-.32,0-.38-.32.07-.62-.89.55-1.19-1-.16-.35.3-.38.61.13.19-.5,1-.32.25-.48-.11-.8.32-.57.38-.3.37,0,.43-.29.46.11.73,0,.13.41.37.18.57,1.1.25-.09.09-.5.16.13.13,1.24.16,1.44Z" transform="translate(-140.01 -184.32)" disabled="disabled" style="pointer-events: none;"></path>
   <path name="XXXX" id="path4025" class="cls-1" d="M199.08,215.62l.12.39-1,1-.14.59-.52.05,0,.52-.36-.16-.3.14-.09.41.09.62-.71.5-.09-.77-.29.09-.28-.23,0-.66-.3-.14-.27.07-.09-.39-.37-.12-.11-.5.14-.73-.35-.34-.06-.28.5-.55.57-.18.66-.57.89-.55-.07.62.38.32.32,0,.46.48.52-.43.14.29.7.44Z" transform="translate(-140.01 -184.32)" disabled="disabled" style="pointer-events: none;"></path>
   <path name="XXXX" id="path4027" class="cls-1" d="M204.89,217l-.41.29-.36-.13-.37.18-.09.39-.43.25-.32-.23-.25.41-.71-.5-.25.11-.13.58-1,1.12-.69.32-.88.91-.6-.48-.11-.34-.61.5-.3.32-.16-.23,0-.73-.43-.48-.09-.62.09-.41.3-.14.36.16,0-.52.52-.05.14-.59,1-1-.12-.39.62-.39.45-.87,1-.8.84.46.6.62.13.48.53.48L203,216l.62.16-.09.23.57-.14.82.32-.05.37Z" transform="translate(-140.01 -184.32)" disabled="disabled" style="pointer-events: none;"></path>
   <path name="XXXX" id="path4029" class="cls-1" d="M210.17,211.52l-.25.42-.11.45-.5.39-.09.71-.64.44-.43.06-.89.76-.07.27-.45.28.34.32.13.57-.29.41.54.12-.31.59.88.78,0,.43.45.64.18.39.3-.2.77.46.37.45,0,.32.41.09.21-.22.29.41.5.27.19-.43,1.2.68.44.74.36-.21.14.27h.45l.75.76.79-.09.28-.63.45-.5-.18-.3h-.64l-.42-.21-.15-.41-.14-.78.23-.44-.85-.3-.06-1.58.48-.48-.46-.12-.3-.89.09-.33-.34-.8.11-.55-1-.81-1-.43-.77.18-1-1,.21-.53,0-1Z" transform="translate(-140.01 -184.32)" disabled="disabled" style="pointer-events: none;"></path>
   <path name="Tibirita" data-id="572" scale="11" move="10" id="path4031" class="cls-1" d="M214.84,227.56l1.28-.51.46-.55.09-.59-.07-1.1-.39-.65-.32-1.31-.8.09-.75-.76h-.45l-.44.94.23.35,0,.52-.5.32-.41,1,.23.37.41.07.75.64-.11,1.28.44.32Z" transform="translate(-140.01 -184.32)" style="fill: rgb(210, 210, 230);"></path>
   <path name="XXXX" id="path4033" class="cls-1" d="M213.45,223.12l-.29.64-.37,0-.18-.32,0-.55-.57-1-.36,0-.57-.38-.52,0-1.44,1.12.23.51-.61.34-.35.41,0,.39-.69,1.1L206.71,227l-.36.87-.21.51-.31-.19v.39l-.35.62v.55l.21.21-.3.48-.23.57-.36-.41,0-.58-.41-.55-.59-.16-.43.19-.5-.51h-.39l-.25-.27.25-.48-.27-.18-1.71,0,.59-.55.39-.59,1.05-.92v-.29l-.5-.39.75-.3-.05-.55-.68-.64,0-.43-.73-1.22-.36-.09.09-.52.48-.48.14-.51.36,0L202,221l.39.3.52-.1.68-.73,0-.36.36.36,0-.57.43-.76.55-.8,1-1,1-.78.54.12-.31.59.88.78,0,.43.45.64.18.39.3-.2.77.46.37.45,0,.32.41.09.21-.22.29.41.5.27.19-.43,1.2.68.44.74.36-.21.14.27-.44.94Z" transform="translate(-140.01 -184.32)" disabled="disabled" style="pointer-events: none;"></path>
   <path name="Macheta" data-id="527" scale="6.5" move="10" id="path4035" class="cls-1" d="M213.43,225.71l0,1.42-.46.5-.39.69-.43,0-.34.3-.39,0-.41.46-.27.75-1.16,1.08-.53.89-.63.71-.6.41-.61.09-.64-.16-.57.64-.52-.27-.5-.6-.41.07-.48-.46.18-.27-.11-.3.41.12.54-.71.23-.57.3-.48-.21-.21v-.55l.35-.62v-.39l.31.19.57-1.38,1.76-2.74,0-.39.35-.41.61-.34-.23-.51,1.44-1.12.52,0,.57.38.36,0,.57,1,0,.55.18.32.37,0,.29-.64.23.35,0,.52-.5.32-.41,1,.23.37.41.07Z" transform="translate(-140.01 -184.32)" style="fill: rgb(210, 210, 230);"></path>
   <path name="Manta" data-id="529" id="path4037" class="cls-1" d="M214.07,227.63l.11-1.28-.75-.64,0,1.42-.46.5-.39.69-.43,0-.34.3-.39,0-.41.46-.27.75-1.16,1.08-.53.89.37.55,0,.64.25.53.5.36.62.16.68.05,1.25-.07h.47l0-.1-.32-.46.32-.46-.05-.37.64-.69.32-.69.55-.59.05-.55.55-.37-.83-1.15,0-.62Z" transform="translate(-140.01 -184.32)" style="fill: rgb(210, 210, 230);"></path>
   <path name="Gachetá" data-id="511" scale="5.5" move="10" id="path6825" class="cls-1" d="M214.34,236.55l.34.34-.5.05-.54.66,0,.83-.29.71-.14.77.09.87-.89.07-.82-.25-.83.07-.15.39.16.43-.61-.32-.71-.16-.5-.34-.71-1.1-.54-.3-.43.16-.26-.29-.29-.39-.37.16-.52.52h-.77l-.73-.8-1.12.05-.36-.21,0-.5.57-.34.32-.62-.11-.34.18-.3.34-.07.14-.28.52-.13-.25-.39,1.46-.32.09-.69-.14-1,.57-.64.64.16.61-.09.6-.41.63-.71.37.55,0,.64.25.53.5.36.62.16.68.05,1.25-.07h.46l.13.73.45.64.37,0,.32.6Z" transform="translate(-140.01 -184.32)" style="fill: rgb(210, 210, 230);"></path>
   <path name="XXXX" id="path6827" class="cls-1" d="M201.5,226.92l-.66-.94-.46,0-.34-.35-.75-.27-.52-.12-.35.48,0,.37-.43,0-.62,1.74-.45-.37-.35.41-.45-.16-.5-.48,0-.34,1-.21-.14-.55.34-.45.41-.14.16-.64.43-.32,0-.62h-.34l-.87-.66,0-.51.44-.36.34,0,.23-.59-.6.07-.06-.69.52-.55.3-.32.61-.5.11.34.6.48.88-.91.69-.32,1-1.12.13-.58.25-.11.71.5.25-.41.32.23.43-.25.09-.39.37-.18.36.13.41-.29.37.32.38,0,.28.09-1,1-.55.8-.43.76,0,.57-.36-.36,0,.36-.68.73-.52.1L202,221l.09-.41-.36,0-.14.51-.48.48-.09.52.36.09.73,1.22,0,.43.68.64.05.55-.75.3.5.39V226l-1.05.92Z" transform="translate(-140.01 -184.32)" disabled="disabled" style="pointer-events: none;"></path>
   <path name="XXXX" id="path6829" class="cls-1" d="M196.88,221.2l-.51-.18v.84l-1-.59-.23.27-.48-.48-.36.23.25.85-.5-.39-.05.41-.43.6-.34-.16-.23-.46-.64-.71-.54.55-.12.66-.84-.41-.48-.11-.61-.6-.41,0-.09-.28-.82-.5-.82.5-.05-.34-.29-.37-.07-.59-.59.21L186,220l-.14-1.12.21-.23-.18-.46,0-.34-.27-.37.32-.14,0-.73.53-.11.48.48.32-.57.36.2.14-.29.63-.69.39.14.23.57.75.2.27.3-.25.57.71.6,0,.36.39.37.61-.25.3-.28,0-.25.28-.5.41-.07V217l1-.53.5-.43.35.34-.14.73.11.5.37.12.09.39.27-.07.3.14,0,.66.28.23.29-.09.09.77.71-.5.43.48,0,.73.16.23-.52.55Z" transform="translate(-140.01 -184.32)" disabled="disabled" style="pointer-events: none;"></path>
   <path name="XXXX" id="path6831" class="cls-1" d="M195.58,227.17h-1.05l-.73.5-.45.6-.6-.57-.36-.09-.3-.32.44-.3,0-.39-.27-.3.11-.68-.18-.51.71-.66.5-.8.11-.89.43-.6.05-.41.5.39-.25-.85.36-.23.48.48.23-.27,1,.59V221l.51.18.06.69.6-.07-.23.59-.34,0-.44.36,0,.51.87.66h.34l0,.62-.43.32-.16.64-.41.14-.34.45.14.55-1,.21,0,.34Z" transform="translate(-140.01 -184.32)" disabled="disabled" style="pointer-events: none;"></path>
   <path name="XXXX" id="path6833" class="cls-1" d="M192.09,227.29l-.75.45-.11-.57-.69.37-.45-.25-.64.11-.64-.32-1,0-.46.23-.27-.14v-.41l.32-.07.11-.92.52-.8.23-.71,0-1.48-.47,0-.46-.23-.55-.18-.43.16.21-.71-.48-.68,0-.46L186,220l.62.14.59-.21.07.59.29.37.05.34.82-.5.82.5.09.28.41,0,.61.6.48.11.84.41.12-.66.54-.55.64.71.23.46.34.16-.11.89-.5.8-.71.66.18.51-.11.68.27.3,0,.39-.44.3Z" transform="translate(-140.01 -184.32)" disabled="disabled" style="pointer-events: none;"></path>
   <path name="Chacala" scale="4" move="10" id="path6837" class="cls-1" d="M223.77,242.28l-.87-.41-.91.64,0,.69-.5.5.54.92-.13,1-.55.27-.36.92-.46.69-.64.32-1.18,1-.55,0-.36.23-1,1.28-.32,1-1,.32-.27.55-.82.64.09.41-.36.51-.46.36-.82.09-.59.23-.32.64-.36-.59,0-.5-.54.18-.69-.05-1.18-.87-.82.3-.32.66-.39-.8.26-.49-.14-.73.25-.6,0-.52-.21-.32.34-.51V250l.39-.32,0-.39.39-.6V248l.39-.52.59.3h.83l1.08.18.37-.69.27-.71-.25-.29.09-.8h.52l.51-.48.41-.05.68.07,1.05-.23,1.39-.44.52-.75,1,.11.75-.57.48.23.64-.37.34-.54-.23-.42.5-.2.41-.3,0-.34.82-.78.62.12.73.09,1,.28.76.74Z" transform="translate(-140.01 -184.32)" disabled="disabled" style="pointer-events: none;"></path>
   <path name="Gama" data-id="508" scale="8" move="10" id="path6839" class="cls-1" d="M209,240.67l-.45.68,0,.49-.41.5v.8l-.46.27-.22,1.06.13.8.66-.14.32.34,0,.51.5.59.32.6,0,.34.59.3h.83l1.08.18.37-.69.27-.71-.25-.29.09-.8h.52l.51-.48.41-.05,0-.23-.84-.25L212,244l-.18-1-.41-.8-.64-.78-.61-.32-.71-.16-.5-.34Z" transform="translate(-140.01 -184.32)" style="fill: rgb(210, 210, 230);"></path>
   <path name="Junín" data-id="520" scale="5" move="10" id="path6841" class="cls-1" d="M199.49,246.74l-.13-.74-.18-.39.16-.82.66-.62.82-.07.41.27.38-.06.66.5-.11-.66.45-.51-.16-.32.3-.34.09-.82-.18-1-.23-.71-.32-.09,0-.37-.61-.78.5-.25.68,0,.23-.44.36.21,1.12-.05.73.8h.77l.52-.52.37-.16.55.68.43-.16.54.3.71,1.1-.45.68,0,.49-.41.5v.8l-.46.27-.22,1.06.13.8.66-.14.32.34,0,.51.5.59.32.6,0,.34L209,248v.62l-.39.6,0,.39-.39.32v.29l-.34.51.21.32,0,.52-.25.6.14.73-.26.49-.88.14-.76.44-1-.85-.11-1.28.11-1.26-.22-.33-.05-.49-.53-.3-.07-.48-1-.69-.8-1,.18-.34-.25-.16-.52.18-.46-.46-.59-.06-.68.18-.62,0Z" transform="translate(-140.01 -184.32)" style="fill: rgb(210, 210, 230);"></path>
   <path name="XXXX" id="path6843" class="cls-1" d="M190.76,239.69l.15-.74-.23-.16.21-.52,1.16.23.52-.87.14-.78-.14-.46.39-.16-.09-.62-.21-.5.55-.94.5-.52.21.64.47-.1.35.21.11.39.27.16.69.18.43-.11.45.43.41,0,.3.34.36-.2.35.18,0,.25.25.14.57.46.39.52.75.19-.25.52.57-.36.11.73.27.36,0,.37.18.16.53.11.61.78,0,.37.32.09.23.71.18,1-.09.82-.3.34.16.32-.45.51.11.66-.66-.5-.38.06-.41-.27-.82.07-.66.62-.16.82.18.39.13.74-.37.13-.38-.32-.75-.09-.72.14-.66-.08,0-.91-.27-.72-.31-.09-.27.48-.34-.81.14-1.07-.7.07-.92-.68-.32-.62-.47-.16-.54-.79H192l-1.3-.67.08-.87Z" transform="translate(-140.01 -184.32)" disabled="disabled" style="pointer-events: none;"></path>
   <path name="XXXX" id="path6845" class="cls-1" d="M204.14,232.2l-.32.23-.45,0-.64-.28-.55,0-.27-.48-.25-.8-.32.36-.64.1-.43-.26-.5.69-.66-.37-.25-.39h-.66l-1.12-.29-.71-.46-.68.48-.11.71-1.05.87-.68.69-.14.64.21.64.47-.1.34.21.12.39.27.16.69.18.43-.11.45.43.41,0,.3.34.36-.2.35.18,0,.25.25.14.57.46.39.52.75.19-.25.52.57-.36.11.73.27.36,0,.37.18.16.53.11.5-.25.68,0,.23-.44,0-.5.57-.34.32-.62-.11-.34.18-.3.34-.07.14-.28.52-.13-.25-.39,1.46-.32.09-.69-.14-1-.52-.27-.5-.6-.41.07-.48-.46Z" transform="translate(-140.01 -184.32)" disabled="disabled" style="pointer-events: none;"></path>
   <path name="XXXX" id="path6847" class="cls-1" d="M196.53,227.81l-.25.25.28.35.38,0-.06.78-.39.41.09.37-.21.32.71.46,1.12.29h.66l.25.39.66.37.5-.69.43.26.64-.1.32-.36.25.8.27.48.55,0,.64.28.45,0,.32-.23.18-.27-.11-.3.41.12.54-.71-.36-.41,0-.58-.41-.55-.59-.16-.43.19-.5-.51h-.39l-.25-.27.25-.48-.27-.18-1.71,0,.59-.55.39-.59-.66-.94-.46,0-.34-.35-.75-.27-.52-.12-.35.48,0,.37-.43,0-.62,1.74-.45-.37-.35.41Z" transform="translate(-140.01 -184.32)" disabled="disabled" style="pointer-events: none;"></path>
   <path name="XXXX" id="path6849" class="cls-1" d="M188.54,238.31l.11-.5.26-.05.25-1.25.25-.46-.09-.55.27-.62h-.43l-.62-.39,0-.3-.41-.29-.07.45.23.39-.34.42-.32.16v.38l-.39.26-.36-.3-.87-.18-.07-.39-.61-.14-.59-.5-.42.06-.18.8,0,1.62-.14.32-.42.47.56.29.15.31,0,.2.17.15h.12l.1.08-.07.08.1.13h.14l0-.15.11-.19,0,.06.13-.09,0,.15v.13l.11.07.1-.06.09,0,.13-.18h.11l.1.08-.06-.14.09-.09.1.19.13,0,.06.12.1-.11h.08l0,.08.2,0,.33.32h.59l0,.11.48-.05,0-.07.15,0Z" transform="translate(-140.01 -184.32)" disabled="disabled" style="pointer-events: none;"></path>
   <path name="Villagómez" scale="10" move="10" id="path4005" class="cls-1" d="M179.11,213.63,179,214l.16.34-.19.18.41.3.53.92.77.48.41.77-1,.16-.59-.11-.39.21,0,.68-.48.25-.46.05-.45,1.12-.23,0,0-1.17.12-1.37-.16-.57.09-.51-.39-1,.07-.55-.14-.48-.29,0-.51-.28-.31-.5-.05-.73.18-.48.39-.44.48.14h.48l0,.5.41.94.41.14.41.71Z" transform="translate(-140.01 -184.32)" style="fill: rgb(210, 210, 230);"></path>
   <path name="Pacho" data-id="538" scale="5" move="10" id="path4009" class="cls-1" d="M185.88,218.18l.18.46-.21.23L186,220l.11.64,0,.46-.5.68-.32-.09-.41.28.09.32-.73.64-.25.68.21.8.38.67-.32.34-.13.5-.5.3-.19-.46-.59.21-.41-.12-.73.26-.09.29-.29,0-.37.75,0,.35-.2.2-.8-.32,0-.46-.66-.38-.16-.42,0-.39-.27,0-.18-.19v-.43l-.18-.48-1.17-.76-1.11-.5.09-.85-.07-.82-.48,0-.63-.21-.55-.36-.8-.21-.09-.23-1-.11-.06-.44-.53-.77,0-.46.41-.23.43-.76.05-.61-.28-.21.3-.14.59.48.36-.13.51.09.43-.44.09-.45,0-.26,0-.59-.07-.48,0-.55.23-.07-.05-.53.44-.18,1,.23.21-.41.29,0,.14.48-.07.55.39,1-.09.51.16.57-.12,1.37,0,1.17.23,0,.45-1.12.46-.05.48-.25,0-.68.39-.21.59.11,1-.16.8-.34.82,0,.39-.3.43.48.29.27.53.14v.27l.54.28.41.07.21.32.39,0Z" transform="translate(-140.01 -184.32)" style="fill: rgb(210, 210, 230);"></path>
   <path name="XXXX" id="path6854" class="cls-1" d="M189.25,239.73l1.51,0,.15-.74-.23-.16.21-.52,1.16.23.52-.87.14-.78-.14-.46.39-.16-.09-.62-.21-.5.55-.94-.4.06-.45-.29-.48-.57-1-.66-.33.08-.3-.28v-.8l-.1-.21-.24.13-.74-.48-.32,0,0,.45.06.28-.38.3v.5l-.25.18,0,.41-.16.3.05.37.41.29,0,.3.62.39h.43l-.27.62.09.55-.25.46-.25,1.25-.26.05-.11.5-.4.89,0,.21.17.08v.12l-.14.08.09.13.07.16Z" transform="translate(-140.01 -184.32)" disabled="disabled" style="pointer-events: none;"></path>
   <path name="XXXX" id="path6856" class="cls-1" d="M193.35,228.27l-.58.45-1.22.73.25.65.19.13-.11.41-.79.65h-.34l-.27-1-.44-.37-.42.05-.36.45.17.36-.64.36.32,0,.74.48.24-.13.1.21v.8l.3.28.33-.08,1,.66.48.57.45.29.4-.06.5-.52.14-.64.68-.69.64-.53L194,231l.58-.58-.73-1-.16-.77-.36-.33Z" transform="translate(-140.01 -184.32)" disabled="disabled" style="pointer-events: none;"></path>
   <path name="XXXX" id="path6858" class="cls-1" d="M194,231l1.15.82.41-.34.11-.71.68-.48.21-.32-.09-.37.39-.41.06-.78-.38,0-.28-.35.25-.25-.45-.16-.5-.48h-1.05l-.73.5-.45.6.36.33.16.77.73,1L194,231Z" transform="translate(-140.01 -184.32)" disabled="disabled" style="pointer-events: none;"></path>
   <path name="XXXX" id="path6860" class="cls-1" d="M183.58,226.21l0,.94.69.16,0,.34-.59.83,0,.29.36.43.62.2h.5l-.16.32.05.35.22.32.6.18.06.23.39.09.25.32.05.46.36-.17,0-.19.52.07.28-.46.2-.09-.07-.2.46-.16.38,0,.14.6.64-.36-.17-.36.36-.45.42-.05.44.37.27,1h.34l.79-.65.11-.41-.19-.13-.25-.65,1.22-.73.58-.45-.6-.57-.36-.09-.3-.32-.75.45-.11-.57-.69.37-.45-.25-.64.11-.64-.32-1,0-.46.23-.27-.14v-.41l.32-.07.11-.92.52-.8.23-.71,0-1.48-.47,0-.46-.23-.55-.18-.43.16.21-.71-.48-.68-.5.68-.32-.09-.41.28.09.32-.73.64-.25.68.21.8.38.67-.32.34-.13.5-.5.3Z" transform="translate(-140.01 -184.32)" disabled="disabled" style="pointer-events: none;"></path>
   <path name="XXXX" id="path3922" class="cls-1" d="M175.67,262l.3-.54,0-.77-.18-.55.21-.39-.09-.64.29-.3,0-.32.39-.66.09-.69-.14-.37.05-.57.47-.36-.38-.14,0-.34-.34,0-.16-.16-.57-.14-.27-.27-.16-.44-.25-.18-.45.16-.73,0-.28.35.14.77-.14.53-.29.14,0,.36-.34.19-.39-.57-.29.41.16.91-.26.64.23.71-.09.87-.36.53.45.68.43.85-.36.07,0,.52.75.07.61.21-.34.69.32,0,.45-.41.78-.85Z" transform="translate(-140.01 -184.32)" disabled="disabled" style="pointer-events: none;"></path>
   <path name="XXXX" id="path3924" class="cls-1" d="M178.77,251.8V252l.15.36-.08.19-.13.36.28.08-.12.06-.13.32.14.1.09.67.15.32-.39.26-.06.15-.22.12.13,0v.14l.3.34-.14.3v.39l.3.12-.1.12h-.24l0,.32.07,0,0,.28.08.38-.2.33v.39l-.31.45.15.62-.09.29-.19.25-.84,1.81-.14.39-.16.21.08.35-.16.46-.27-.48-.42-.36-.63-.22.3-.54,0-.77-.18-.55.21-.39-.09-.64.29-.3,0-.32.39-.66.09-.69-.14-.37.05-.57.47-.36-.38-.14,0-.34-.34,0-.16-.16-.57-.14-.27-.27-.16-.44-.25-.18-.45.16-.73,0-.28.35-.34-.22,0-.29-.52-.36-.25-.83,0-1,.29-.87.55-.2.82-.57.35-.11.33-.47.46.35.39-.6.43,0,.39-.12.27.23h0l-.05.08-.13,0v.18l.05.13h.1v.12h-.09v.1l.14.12h.07l.06.06.11,0,.26.3.21.36.37.41.15,0,.47.11h.13l.34.27Z" transform="translate(-140.01 -184.32)" disabled="disabled" style="pointer-events: none;"></path>
   <path name="XXXX" id="path3928" class="cls-1" d="M184.25,238.32l-.08.05v.15l-.15.16h-.11l0,.2.12.07.15.22,0,.17-.07.07v.21l-.08,0,0-.14.06-.11-.06-.07-.13,0,0,.14-.08.11.06.1.2,0v.06l-.1.07,0,0,.21,0V240l-.28.15h-.07l-.12.15v.25l-.06.06.08.07-.14.16-.15,0-.17-.16,0-.2-.16-.06-.19.16-.06,0-.12.16-.14.26-.14.05-.08,0-.09.14.07.15-.14.17.07,0v.11l0,0-.09.16.06.05v.15l-.12.14.11.06-.05.22-.08.09h-.09l-.09.09v.29l-.12.06,0,0-.08,0v.21l.08,0-.13.15-.16,0,0,.16-.14.07.06.11.15,0,.1.11,0,.06h-.06l-.07.09.11.09v.19l.14.14-.19,0-.16-.1-.05-.12-.14.13-.09,0-.05.1-.18.05,0-.11.16-.08,0-.08-.18.05-.11.1-.27.1-.06-.49.14-.23-.05-.28-.25-.09-.34.18h-.28l0-.38-.17-.3.52-.5-.27-.58.65-.71.09-.53,1.31-1.29.51.17.23-.47,1.07-1.28.56.29.15.31Z" transform="translate(-140.01 -184.32)" disabled="disabled" style="pointer-events: none;"></path>
   <path name="Medina" data-id="530" scale="3" move="10" id="path6865" class="cls-1" d="M220.15,266.13l0-.55.64-.55.87-.55,1.14-1.1,1.36.1,1.05-.32,1-.69,1.05-1.1.87-.59H229l.28-.69.45-.78.55.05.41-1.56.41-.5.77-.09.05-.69-.18-.32.77-1.55-.36-.6.27-.53-.3-.25L231,253.2l0-.64-.23-.41.1-.62.63-.73v-.25l-.27,0-.39.23-.84,0-.27-.25-.25.07-.14-.76-.43.14-.44-.07-.47-.41h-.48l-.5-.18-.25.32-.48.25-.75-.6-.44-.09-.38-.07,0-.45-.23-.21-.5.07-.34-.19-.59-.09-.53-.27-.52.14-.16-.3-.48-.32-.36-.65-.46.69-.64.32-1.18,1-.55,0-.36.23-1,1.28-.32,1-1,.32-.27.55-.82.64.09.41-.36.51-.46.36-.82.09-.59.23-.32.64,0,.31-.31.14-.18.36.07.55-.41.38-.3.15-.54.55v.82l-.19.55.73.73.14.51.82.73-.18,1.28.22.55.1.73.91,1.14v.83l.22.45-.09.74.14.36,1,.78,1.23.14.77.73,1,.14.86-.28.32-.45.55.18.14-.55.41-.41Z" transform="translate(-140.01 -184.32)" style="fill: rgb(210, 210, 230);"></path>
   <path name="Ubalá" data-id="576" scale="4" move="10" id="path6835" class="cls-1" d="M222.31,239.82l.55-.73-.73-.41.13-.51-.55-.37-.36-.09-.32-1.06-.37-.64-.82.09-.64-.13-.79-.51-.19.55-.91-.64-.82-.05-.6.51-.73.14-.65,0-.17.55.34.34-.5.05-.54.66,0,.83-.29.71-.14.77.09.87-.89.07-.82-.25-.83.07-.15.39.16.43.64.78.41.8.18,1,.89.46.84.25,0,.23.68.07,1.05-.23,1.39-.44.52-.75,1,.11.75-.57.48.23.64-.37.34-.54-.23-.42.5-.2.41-.3,0-.34.82-.78.61.12ZM230.7,247l-.18-.5-.39-.39.27-.62.07-.53.44-.51-.12-.43-.39.07-.34-.23-.55.18-.5-.07-.11-.23-.35.09-.25-.13-.85.89-.32.05-.48-.32-.29,0-.39-.41.23-.46-.19-.27-.22-.49-.19-.55-.39-.39-1.44.61-.87-.41-.91.64,0,.69-.5.5.54.92-.13,1-.55.27-.36.92.36.65.48.32.16.3.52-.14.53.27.59.1.34.18.5-.07.23.21,0,.45.82.16.75.6.48-.25.25-.32.5.18H228l.47.41.44.07.43-.14.09-.91.52-1.54h.48l.5-.28Z" transform="translate(-140.01 -184.32)" style="fill: rgb(210, 210, 230);"></path>
   <path name="XXXX" id="path4984" class="cls-1" d="M230.44,247.39H230l-.52,1.54-.09.91.14.76.25-.07.27.25.84,0,.39-.23.27,0v.25l-.63.73-.1.62.23.41,0,.64,1.07.07.3.26-.27.52.36.6-.77,1.55.18.32-.05.69-.77.09-.41.5-.41,1.56-.55-.05-.45.78-.28.69h-.81l-.87.59-1.05,1.1-1,.69-1.05.32-1.36-.1-1.14,1.1-.87.55-.64.55,0,.55-.78,1.1L220,267l.29-.29.75-.21,1.69-.11.91-.23.82.54,1.05.49,1.11.33,1.16.12.6.33.54-.21.66.32.33,0,.17.22.62.05.22.07,0,.12.34.06.06.14.24.09H232l.09.32.32.12,0,.28.15.14.16-.07.11,0,.33.48,0,.13.1.06.12-.18h.14l.11.27-.11.06,0,.15.3.05.09.16.12.14.31,0,.14.18.12.32.12.05.06-.34h.14l.06.22-.05.24-.22,0,.07.12.2,0,.09-.11.15,0,0,.16.19,0,.45-1.47.86-5,.46-4.19.16-.44,0-.91.57-2,.3-1.58,0-1.48.5-3.16.32-1,.8-5.53.07-.64.23-.48-.39-.26-.61-.46-.53.92.34.34-.39.46,0,.42-.48.48-.11,1-.44.26-.39.8-.52-.17-.31-.51-.27.34h-.44l-.84.55-.44-.36-.48-.07-.29-.23-.51,0-.29-.25h-.42l-.75-.44-.62.18Z" transform="translate(-140.01 -184.32)" disabled="disabled" style="pointer-events: none;"></path>
   <path name="La Palma" data-id="523" scale="8" move="10" id="path4988-4" class="cls-1" d="M165.56,205.85l-.41.48-.27-.18-.18.23.48.61-.35.92-.66.75-.45.14.25.41.93.44-.09.66-.32.41-.52.3-.09.46-.25.23.11.94-.39.2.35.32.27.46-.57.23-.32-.07-.18.25.07.32-.44.48v.53l-.47.48.66.18.75-.37.43.53.86-.42.23.27h.29l.67-.52,0-.31.25-.19.17-.25.38.23.34,0,.2-.2.42-.16.23.14.46,0,.35.37.33.08.2.33,0,.26.81.2.07-.44-.06-.39,0-.48.21-.45,0-.43-.44-.51-.55-.1-.33-.4-.12-.35,0-.36.29-.34,0-.56.26-.66-.24-.17,0-.77-.15-.35-.78-.88-.06-.26.25-.42.33-.06.09-.32.22-.14v-.12l-.76.05-.52.36-.91,0-.37.14.1-1.21-.82-.23-.19-.3Z" transform="translate(-140.01 -184.32)" style="fill: rgb(210, 210, 230);"></path>
   <path name="Caparrapí" data-id="485" scale="4" move="10" id="path4990" class="cls-1" d="M159.39,200l-.29.21.09.48-.44.25v.3l-.43.34,0,.37-.25.32-.92.71-.29.41-.25.07-.21.66.07,1.65-.2.48.2.43-.14.3-.4.36-.19.3.12.3-.32.16,0,.41-.23.34.36.44-.09.34.34.53.41-.07.46.55,0,.34-.22.3v.39l-.21.41,0,.37-.2.16,0,.89-.16.59-.3.42-.09.59.36.69-.07.32-.29.64-.18.29,0,.67.28.2,0,.44.39.39.55.09.39.39.5.16.61-.07.39.11.43-.11.48.14.75.07.41-.28.3-.25.45-.41v-1.08l.23-.23-.16-.39,0-.41.69-.59.47-.48v-.53l.44-.48-.07-.32.18-.25.32.07.57-.23-.27-.46-.35-.32.39-.2-.11-.94.25-.23L164,211l.52-.3.32-.41.09-.66-.93-.44-.25-.41.45-.14.66-.75.35-.92-.48-.61.18-.23.27.18.41-.48.28-.46v-.8l.5-.66-.23-.23-.05-.66-.31-.19-.57-1.09-.09-.71-.26-.05-.27-.34,0-.55-.53-.34-.34.29-.66-.13-.57-.26-.5.12-.41.41-.61.21-.25-.23-.32.13-.37-.45-.59.11Z" transform="translate(-140.01 -184.32)" style="fill: rgb(210, 210, 230);"></path>
   <path name="San Cayetano" data-id="552" scale="6" move="10" id="path4007" class="cls-1" d="M188,209.54l-.81.88-.49-.41.07-.81-.45-.37h-.55l-.83-.57-.06-.37-.42-.64-.57,0-.22-.38.25-.6V206l-.77.66-.07.57-.27.43v.28l-.28.13.07.74-.3.22.35.35.11.46-.09.34.27.25-.25.16-.36-.21-.46.07-.5.53-.09.82-.57-.07-.16.39-.14.21-.27-.14-.27.37,0,.34-.82.78L179,214l.16.34-.19.18.41.3.53.92.77.48.41.77.8-.34.82,0,.39-.3.43.48.29.27.53.14v.27l.54.28.41.07.21.32.39,0,0-.34-.27-.37.32-.14,0-.73.53-.11.48.48.32-.57.36.2.14-.29.63-.69.39.14.5-.46,0-.66.18-.81.48-.5.13-.57-.34-.27.09-.37L188.31,211l-.2-.48.45-1Z" transform="translate(-140.01 -184.32)" style="fill: rgb(210, 210, 230);"></path>
   <path name="Yacopí" data-id="587" scale="3" move="10" id="path4986" class="cls-1" d="M178.63,204.54l-.95-1.31v-.71h-.24l-1,.68h-.79l-.49.64-.31-.3-.15-.77.53-1.36-.17-1.21-.66-.81-.88-.07-.74-.57-.4-.21-.22-.57,0-.62-.41-.78.17-.3-.17-.33h-.38l.21-.3.52-.24.07-.37-.32-.33.68-.72.47,0,.06-1,.41-.31-.14-.73-1-.43-.24-.41-.35-.13.21-.34.48-.34.37-.74-.45-.44.14-.54-.52-.57-.13-.48.29-.73-.46-.25-.3.11,0-.29,0-.68-1-.63v-.47l-.59.27-.62,1-.8.2-.79,1-.21.37-.1-.37h-.38l-.49.61-.45.1v.37l-.34-.06-.45.23-.11.3-.51-.23-.35-.3-.45,0,0,.23-.18-.13-.07-.47h-1.07l-.13.17-.12.17.23.18-.11.37.16.18.47.07.21.37-.18.16-.46,0v.25l.41.35.34.18-.27.32V191l-.36.05.27.55-.11.25-.35-.28-.2.6-.18.52.32,1.06-.35.43.21.41-.48.39-.34-.07,0,.35-.37.06-.34.37,0,.34-.52,1-.23.1-.43.64-.12.71.16.66-.29.55.11.34.59-.11.37.45.32-.13.25.23.61-.21.41-.41.5-.12.57.26.66.13.34-.29.53.34,0,.55.27.34.26.05.09.71.57,1.09.31.19.05.66.23.23-.5.66v.8l-.28.46.19.3.82.23-.1,1.21.37-.14.91,0,.52-.36.76-.05v-.2h.25l.31.6v.46l.16.25h.34l.23.15.21.28,1,.31,1-1h.25l.76.7h.5l-.06-.5.18-.35.31,0,.78.28.34.28.25,0L176,208l.25-.06,0-.27.4-.49.37,0,.39-.55.32-.23L178,206l.35-.15,0-.26.51-.64.06-.51Z" transform="translate(-140.01 -184.32)" style="fill: rgb(210, 210, 230);"></path>
   <path name="XXXX" id="path4996" class="cls-1" d="M153.31,205.69l-.09-.15-.26-.1-.35-.45v-.44l-.14-.25V204l.06-.14,0-.19-.14-.15-.07-.3,0-.45-.19-.19-.19-.26L152,202l.24-.12.75-.48.62-.71.22-.54-.06-.38h.1l0-.15-.17-.12-.22-.55-.12-.09-.61,0-.15-.1.15-.13.16-.64.15,0,.09-.11v-.45l.16-.51.18,0,.34-.5v-.15l.11-.06.08-.12-.13,0-.08-.16.26-.34v-.14l-.21-.23V195l.15-.09-.17-.18,0-.14.15-.07,0-.21-.3-.27,0-.29.16-.15.2-.39.36-.14.28-.48,0-.35.11-.1V192l-.27-.35-.51-.12-.24-.19,0-.46-.17-.33-.38-.16-.25.17-.29-.1-.19-.48,0-.3.18-.15.29.17.29-.08.22-.16h.18l.07-.1-.11-.2.26-.32.21,0,.59-.28,0-.09h.21l0,.31.06.1,0,.25.31-.27.23,0,.12.19.29.1.35,0,.08.12.14,0v-.4l.13-.19.38-.05.06.09.12,0v-.17l.31-.25.33.5.13-.23.52.13.18-.27-.38-.23.1-.37.45-.21,0,.24.21.13.21-.27-.24-.23.72-.44.35,0,0,.54.31.14.25-.27-.25-.24.31-.17.21.41.87.2,0,.47.28.07.08-.12.24.17-.11.37.16.18.47.07.21.37-.18.16-.46,0v.25l.41.35.34.18-.27.32V191l-.36.05.27.55-.11.25-.35-.28-.38,1.12.32,1.06-.35.43.21.41-.48.39-.34-.07,0,.35-.37.07-.34.36,0,.34-.52,1-.23.09-.43.64-.12.71.16.66-.29.55.11.34-.29.21.09.48-.44.25v.3l-.43.34,0,.37-.25.32-.92.71-.29.41-.25.07-.21.66.07,1.65-.2.48.2.43-.14.3-.4.37-.19.29.12.3-.32.16,0,.41-.23.34-.37-.13-.27.23-.57,0-.25-.39.09-.59.25-.1.57-.73-.64-.39-.57-.2-.22-.53-.14-.17Z" transform="translate(-140.01 -184.32)" disabled="disabled" style="pointer-events: none;"></path>
   <path name="Venecia" data-id="537" scale="8" move="10" id="path3019" class="cls-1" d="M160.06,282.31h-.22l-.06-.24.15-.09,0-.13-.31-.11.07-.13.28-.32-.06-.13-.22.06.11-.24.24,0v-.26l.28-.2.09-.24-.09-.11.41-.56.22,0,0-.28.33-.24.41-.26.07-.13h.11l.26-.26-.07-.29.22-.17,0-.33.3,0,.83.72.37.49.24-.06.24.09.52-.64.33-.23.71.24.37.22.59.16.25.43.25.17.31.43,0,.44.12.2-.06.35.1.29,0,.29.28.22.07.33h0L168,282v.34l-.25.23h-.32l-.27-.37-.61,0-.23.09h-.46l-.32-.13-.54.13-1.1-.13-.32-.21-.09-.3-.5,0-.41.41-.32,0-.38-.28-.34.28-.12.36-.59-.07-.32.3-.24-.12h0l-.11-.13Z" transform="translate(-140.01 -184.32)" style="fill: rgb(210, 210, 230);"></path>
   <path name="Pandi" data-id="540" scale="7.3" move="10" id="path3021" class="cls-1" d="M163.42,278.3l.37.49.24-.06.24.09.52-.64h0l-.13-.41.08-.16-.08-.21,0-.22.23-.29,0-.48.13-.34.37-.34,0-.29-.28-.24.1-.24-.21-.27-.2-.37-.06-.45-.21-.24-.12-.45-.42-.39-.5-.31v-.21l-.25-.34-.27-.47-.64-.75-.41,0-.33-.16-.34.13-.16-.12-.85.2.06.34.3.31.11.26-.11.35.26.63-.06.31.39,0,.13.15-.08.16,0,.24.46.1,0,.11h.26l.26.29,0,.52-.15.09.13.19,0,.26-.17,0,0,.15.26.11,0,.19-.17.13.13.16v.32l.35.07.13.26-.31.11.11.76-.1.22Z" transform="translate(-140.01 -184.32)" style="fill: rgb(210, 210, 230);"></path>
   <path name="Cabrera" data-id="482" scale="4" move="10" id="path6757" class="cls-1" d="M165.2,295.1l.25,0,.35-.34.19-.35,0-.12.06,0,.12,0,.36-.41.09-.36.14-.06.3-.45.17-.57,0,0,.11-.22.13-.73v-.19l.08-.16.2-.12.12-.34.13-.16v-.1l.16,0,.26-.2.16-.6.16-.29V289l.07-.06v-.21l.18-.28,0-.48,0-.06.13-.25.06-.62.15-.42-.13-.13.06-.45-.09-.18.07-.07v-.51l-.26-.3,0-.21-.48-.31h-.15l0-.2.18-.13.06-.23v-.22l.31-.33v-.6l.08-.09-.09-.75-.09-.12h0l-.63-.07L168,282v.34l-.25.23h-.32l-.27-.37-.61,0-.23.09h-.46l-.32-.13-.54.13-1.1-.13-.32-.21-.09-.3-.5,0-.41.41-.32,0-.38-.28-.34.28-.12.36-.59-.07-.32.3-.23-.12-.12-.13-.14.09-.09.57-.15.08v.27l-.26.23v.62l.13,0-.09.85.33.5h.28l.52.28.11.35-.11.16v.67l-.19.11.15.2-.06.28-.59.2-.11,1.33.22.45,0,.22-.37.22,0,.5-.33.52-.15.09-.09.67.48.25.41.05.11.23.27.07h.23l.36.2v.31l.34.28.36,0,0,.16.4.07.23-.12v-.16l.34-.11.06.11.59.05,0,.16h.45l.09-.16.16,0,.09.34.1.11.06.66-.14.17-.51,1.12-.13.13-.05.37,0,.41.2.22-.05.29-.16,0-.14.4.11.19.48.51h.27l.15-.38-.21-.28,0-.29-.15-.07,0-.2.45-.29.12,0,.37-.52,0-.34.06-.22.13,0,.1-.46Z" transform="translate(-140.01 -184.32)" style="fill: rgb(210, 210, 230);"></path>
   <path name="XXXX" id="path4013" class="cls-1" d="M200.1,201.59l.1-1.27.2-.14,0-.38-.73-.72v-.33h-.59l-.34.57-.34.48h-.54l-.44.38h-.61l-.51.79-.57-.27-.82.65v.38l-.22.12-.34-.43-.2.12-.2.45-.62-.61,0-.3H193l-.07.4.31.88.32.4-.11.41.31,1.28v.92l.19-.05.18-.41.91-.73.69.3.77-.16.16-.16.27.57.53.16.29-.46-.16-.2,0-.37.27-.41.73.11.41-.2,0-.35.71-.25.32-.51Z" transform="translate(-140.01 -184.32)" disabled="disabled" style="pointer-events: none;"></path>
   <path name="XXXX" id="path4011" class="cls-1" d="M188.11,210.56l.2.48,1.48,1.08-.09.37.34.27-.13.57-.48.5-.18.81,0,.66-.5.46.23.57.75.2.27.3-.25.57.71.6,0,.36.39.37.61-.25.3-.28,0-.25.28-.5.41-.07V217l1-.53.5-.43-.06-.28.5-.55.57-.18.66-.57-1.19-1-.16-.35.3-.38.61.13.19-.5,1-.32.25-.48-.11-.8.32-.57.38-.3-1.77-1.37.75-.44-.14-.82-.52-.39-.34-.53-.69-.11.16-1.05.87-.3.07-.32-.69-.3-.91.73-.18.41-.19.05v.23l-.58.54-.45-.31-.18-.3-.51.1h-.39l-.13-.2-.31.44h-.44l-.5.55-.14-.24-.41.3,0,.48.35.33-.1.27-.35.17.14.24-.28,1-.95.65Z" transform="translate(-140.01 -184.32)" disabled="disabled" style="pointer-events: none;"></path>
   <path name="Paime" data-id="539" scale="7" move="10" id="path6809" class="cls-1" d="M183.94,205.76l-.38-.44.38-.27-.07-.3-.48,0-.07-.61h-.42v-.27l-.34-.1-.52,1.11.07.74-.35.7-.66-.49-.36-.58-.44.3-.87-.64-.49-.47-.05.51-.51.64,0,.26L178,206l-.26.42-.32.23-.39.55-.37,0-.4.49,0,.27L176,208l-.13.29-.09.52.2.37,0,.39.52.69,0,.93h0l.48.14h.48l0,.5.41.94.41.14.41.71h.34l.82-.78,0-.34.27-.37.27.14.14-.21.16-.39.57.07.09-.82.5-.53.46-.07.36.21.25-.16-.27-.25.09-.34-.11-.46-.35-.35.3-.22-.07-.74.28-.13v-.28l.27-.43.07-.57.76-.66Z" transform="translate(-140.01 -184.32)" style="fill: rgb(210, 210, 230);"></path>
   <path name="Guadas" data-id="512" scale="2.9" move="10" id="path4994" class="cls-1" d="M148.13,229.55l.14-.78.34-.54-.07-.31.24-.51v-.59l.46-.25.22-.78-.32-.68.49-.69,0-.48.17-.64-.36-.36-.29-.5-.22-.58.12-.47.58-.6.33-1.09-.29-.82-.26-.17H149l-.34,0-.06-.27.19-.22.25-.23,0-.17-.13-.18v-.49l.13-.27.33-.17-.28-.84.14-.66-.65-1,.16-.79.52-.58.73-.27-.12-1.35.72-.79-.56-.85.23-.2.25.51.47.12,1-.51-.63-1.33.26-.28.35,0,.39-.12.08-.71-.17-.18-.32-.18-.19-.31,0-.4.26-.17.55,0,.24.14.33-.1.14.17.22.53.57.2.64.39-.57.73-.25.1-.09.59.25.39.57,0,.27-.23.37.13.36.44-.09.34.34.53.41-.07.46.55,0,.34-.22.3v.39l-.21.41,0,.37-.2.16,0,.89-.16.59-.3.42-.09.59.36.69-.07.32-.29.64-.18.29,0,.67.28.2,0,.44.39.39.55.09.39.39.5.16.61-.07.39.11.43-.11.48.14.75.07.41-.28.3-.25.43.16.18.43-.32.53-.2.75.05.75-.06.26-.24.2-.41.13-.24.3-.31,0-.09.15-.3.15-.12.52.1.28-.11.31,0,1.14-.18.52.15.52-.22.37.33.44-.15.51.07.56-.29.32.36.28.24.44-.18.53.07.27-.25.36.45.77-.08.62-.87,0-.54-.79v-.78l-1-.14-.39.21-.48-.41-.68,0-.66-.18-.48.29-.32-.36-.43.32-.84.34-.5,0-.76-.55-1-.39-.57,0-.71.35-.31.35Z" transform="translate(-140.01 -184.32)" style="fill: rgb(210, 210, 230);"></path>
   <path name="XXXX" id="path3107" class="cls-1" d="M145.87,268l0,.13.35.06.2.31-.11.3-.24.35.22.13.13-.08.26,0,.17.13-.3.16.13.15.09-.11.22,0,0,.22-.13.09.09.22.11-.18.32,0,.22-.28.26,0,0,.33.13.2,0,.67.2.13,0-.35.35-.1,0-.24.22,0,0,.31.14.14.55-.36.36-.35.1.05.28-.21.27.22.06-.31.35,0,.15-.51.39-.35,0-.25.19,0,.24-.16v-.22l.22-.24.12-.06,0-.12.38-.48,0-.27-.07-.32-.16-.33.1-.47,0-.54-.61.05-.28.3-.15.32h-.16l-.58-.64-.3.33-.8-.71h-.39l-.17-.18.26-.34-.29-.25-.15-.41,0-.22-.3-.44-.48.3-.24-.17-.2-.16h-.29l-.19.33-.18,0-.17.08v.2l-.28.2.06.18.22.15-.06.16-.36,0-.16.12.1.21.41.15,0,.23-.24.13,0,.14.34,0v.18l-.18.15.22.1-.11.2-.35,0-.14.08.13.07H147l.3.24.1.19-.07.24-.56.34-.19.06-.22-.08-.11.18-.21,0-.19-.18h-.23l-.14.24,0,.27.12.29Z" transform="translate(-140.01 -184.32)" disabled="disabled" style="pointer-events: none;"></path>
   <path name="Chaguaní" data-id="488" scale="8" move="10" id="path4992-0" class="cls-1" d="M149.12,230.8l.32.2h.43l.22-.36-.14-.41-1-.51.32-.35L150,229l.57,0,1,.39.76.55.5,0,.84-.34.43-.32.32.36.48-.29.66.18.68,0,.48.41.39-.21,1,.14v.78l.54.79h0l-.64.27-.2.58-.64.46,0,.9.3.28-.44.75v.53l-.29.46H155.5l-.61.17-.3-.42-.92-.23-.78-.67-.11-.63-.39-.15-.2-.42-.06-.51-.82-.55-1-.23-.89.32-.32-.72-.34-.87Z" transform="translate(-140.01 -184.32)" style="fill: rgb(210, 210, 230);"></path>
   <path name="San Juan de Río Seco" data-id="554" scale="5.5" move="10" id="path6796" class="cls-1" d="M147.71,237.28l.1-.42-.16-.62,0-.55.23-.08.53.33.39-.17,0-.42,0-.17-.41-.28v-.62l.48-.3,0-.27-.33-.84-.38-.19-.43-.27.09-.69.4-.42.52-.47.34.87.32.72.89-.32,1,.23.82.55.06.51.2.42.39.15.11.63.78.67.92.23.3.42.61-.17h1.23l-.1.5.27.67,0,.43-.13.53.33.64.1.63.28.84.25.54.42.13-.07.18-.18.5,0,.52-.12.36-.25.27-.44.18h-.4l-.07.48-.16.64h0l-.68-.09-.24.19-.64.14-.39.27h-.32l-.26.28-.45-.26-.31,0-1.09-.89-.33-.12-.29-.37-.34-.2-.08-.27-.24-.22v-.26l.36-.53-.11-.28v-.59l.13-.23,0-.32.42-.47.14-.28-.07-.37-.46,0-.35-.17-.52-.13-.2-.29-.48.06-.76.24-1-.25h-.53l-.31-.36Z" transform="translate(-140.01 -184.32)" style="fill: rgb(210, 210, 230);"></path>
   <path name="Beltran" data-id="479" scale="5.7" move="10" id="path3109" class="cls-1" d="M147,237.92l.31.36h.53l1,.25.76-.24.48-.06.2.29.52.13.35.17.46,0,.07.37-.14.28-.42.47,0,.32-.13.23v.59l.11.28-.36.53v.26l.24.22.08.27-.37.24-.37-.18-.24,0-.27.63-.32-.19-.2.22-.13-.3-.31-.22h-.24l-.09.41-.29.44-.32.35,0,.29.34.34,0,.29-.19.23-.32.14-.45.62,0,.42-.15.33.52.67-.16.27.13.3-.13.37.32.49.26.06,0,.29,0,.52.29.28.57.09,0,.34-.21.16v.25l-.3.29-.25.08,0,.3-.28.42h0l-.43-.13-.27-.18-.27.09-.49-.38-.34.26-.19-.1-.3.18-.18-.42-.92-.37-.35-.35.24-.5.29,0,.46-.33-.05-.72.26-.19.4-.16.19-.17-.06-.48-.68-.26-.61-.48.13-.52.33-.42-.13-.61-.53-.48-.39-.63.22-.63.39-.22.72-.59h1.07l.15-.27-.13-.39.2-.33,0-.33.28-.11.76-.41.49-.5-.11-1,.14-.83-.18-.26-.32-.12-.66-.18-.16-.22,0-.19Z" transform="translate(-140.01 -184.32)" style="fill: rgb(210, 210, 230);"></path>
   <path name="XXXX" id="path3111" class="cls-1" d="M144.49,259.29l.49-.72,0-.76.37-1,.13-.33.35-.17.07-.22-.42-.35-.17-.76-.44-.18v-.24l.24-.34,0-.24-.37-.33.08-.46.16-.24-.09-.35-.48-.11-.09-.43.2-.33.46-.13.43.26.25-.17.3-.18.19.1.34-.26.49.38.27-.09.27.18.43.13.19.42-.18.14-.22,0-.28.28v.3l-.49.35,0,.34.22.39.07.27.21,0,0,.24.39.31-.12.54,0,.55v.41l-.27.55.46.11.28.69.25.11h0l-.21.2-.17.27-.33-.15-.27.33-.17,0-.26.32v.23l-.43.47,0,.18-.51.29-.07.21-.71.66-.48.11,0-.22.2-.2-.17-.23v-.35h-.19l-.16.13-.11-.11,0-.88Z" transform="translate(-140.01 -184.32)" disabled="disabled" style="pointer-events: none;"></path>
   <path name="XXXX" id="path3115" class="cls-1" d="M145.48,267.66l0-.27.14-.24h.23l.19.18.21,0,.11-.19.22.08.19-.06.56-.34.07-.24-.1-.19-.3-.24h-.37l-.13-.07.14-.08.35,0,.11-.2-.22-.1.18-.15v-.18l-.34,0,0-.14.24-.13,0-.23-.41-.15-.1-.21.16-.12.36,0,.06-.16-.22-.15-.06-.18.28-.2v-.2l.17-.08.18,0,.19-.33h.29l.44.33,0-.48-.07-.3-.1-.74-.13-.65.1-.45-.26-.49-.37.14-.49,0-.16.17-.28,0-.09.39-.25.19-.08.31-.52.75-.64.68v.24l-1.2,1.19v.11l-1,1.14-.67-.05-.26,0-.4.2-.45.61-.31.13-.13.26.09.13h.5v.26l-.15.13h-.16l-.52.48-.11.33.31.26-.05.26.46.68.48,0,.35-.22.11.05.48-.07.57-.39.22.11.32-.07.35-.5.7-.5.07.33.43.17.24-.19h.41Z" transform="translate(-140.01 -184.32)" disabled="disabled" style="pointer-events: none;"></path>
   <path name="XXXX" id="path3113" class="cls-1" d="M142.05,264.72l.28-.46-.28-.5.15-.33.72-.19.13-.35-.11-.24.07-.76.28-.13,0-.33-.13-.15.11-.42.24-.19-.28-.29.06-.85.37-.19.37.08.29-.07,0,.87.11.11.16-.13h.19v.35l.17.23-.2.2,0,.22.48-.11.71-.66.07-.21.51-.29,0-.18.43-.47v-.23l.26-.32.17,0,.27-.33.33.15.17-.27.21-.2.12.24.62.61h-.24l-.23-.07-.17,0-.22.24,0,.39-.07.33-.33.41-.37.14-.49,0-.16.17-.28,0-.09.39-.25.19-.08.31-.52.75-.64.68v.24l-1.2,1.19v.11l-1,1.14-.67,0Z" transform="translate(-140.01 -184.32)" disabled="disabled" style="pointer-events: none;"></path>
   <path name="Nilo" data-id="534" scale="5.2" move="10" id="path6768" class="cls-1" d="M149.25,270.8l.11.26.13-.15H150l.33.33s-.33.13-.22.15l.4.09,0,.11-.24.19.33.44.1-.2.18.09.1.31.4-.1.06.43h.2l.27-.44.41,0,.05-.2.14-.16h.39l.18.32-.24.37.09.24.29-.13,0-.3.61-.18-.13-.3.72-.53.06.18.29-.2-.11-.48.26-.15.13-.15-.24-.13,0-.55.33,0,.13.08.22-.19.34-.16,0-.21.11-.05.11.29.2.11,0-.37.33-.33.54,0,.42-.13,0-.15.37-.05.05.18.46.24.24-1,.38-.64.19-.46.31-.14,1.14-1.1.36-.27,0-.54.39-.38h0l0-.42-.19-.2-.2.12-.34-.18h-.53l-.31-.21-.48,0-.3.25H159l-.22-.27-.36-.32-.4,0-.38.17-.36,0-.94.56-.41.22-.33.05-.1-.23h-.22l-.83.75-.16,0-.34-.25-.39-.23-.23,0-.24.28-.25.08-.24.3,0,.54-.1.47.16.33.07.32,0,.27-.38.48,0,.12-.12.06-.22.24v.22l-.24.16-.19,0,0,.25-.39.35-.15.51-.35,0-.06.31-.27-.22-.28.21-.1-.05-.36.35-.54.37Z" transform="translate(-140.01 -184.32)" style="fill: rgb(210, 210, 230);"></path>
   <path name="Bogotá" title="Bogotá" url="" scale="1.3" move="10" id="path6769" class="cls-1" d="M39.5,97.9L39,98.2L38.1,98l-0.4-0.4c-0.8-0.4-1.9,1.1-2.2,2.3c-0.3,1.2-1.9,3.2-1.9,3.2s-1.1,1.2-1.2,1.2
	c-0.1,0-0.7,0.2-0.7,0.2l-0.2,0.6c0,0,0-0.1,0.3,0.4c0,0,0.2,0.5,0.2,0.5c0,0,0.3,0.3,0.1,0.5c-0.2,0.2-0.3,0.3-0.3,0.5
	c-0.1,0.2-0.5,1.1-0.5,1.1s-0.4,0-0.4-0.3c0-0.3-0.5-0.3-0.5-0.3l-0.7,0.5l-0.5,0.7l-0.4,0.9c0,0-0.2-0.3-0.5,0.1s-0.6,0.3-1,0.5
	s-0.2,0.4-0.2,0.7s0.1,0.5-0.2,0.5s-0.3,0.4-0.4,0.8s-0.4,0.3-0.4,0.1c0-0.2-0.2-0.3-0.2-0.2c0,0-0.5,0-0.5,0l-0.4,0.3l-0.3,0.3
	l-0.6,0.1l-0.1-0.1v-0.1l0.4-0.2h0.1l0.4-0.6v-0.4l0-0.1h0.1l0.1-0.5h0.2l0.4-0.4l0.2-0.4l0-0.1h0.1l0.4-0.5l0.1-0.4l0.1,0l0.3-0.5
	l0.2-0.6l0.1-0.2l0.1-0.8V107l0.1-0.1l0.2-0.1l0.1-0.4l0.1-0.2v0h0.1l0.3-0.3l0.2-0.6l0.2-0.3v-0.3l0.1-0.1v-0.2l0.2-0.3v-0.5
	l0.1-0.3l0.1-0.6l0.2-0.5l-0.1-0.1l0.1-0.4l-0.1-0.1l0,0v-0.6l-0.3-0.3v-0.2l-0.6-0.4h-0.1l0.2-0.1l0.1-0.3l0-0.2l0.3-0.3v-0.6
	l0.1-0.1L29,97.5l-0.1-0.1v0l0.1-0.1l0.1-0.4l0.1-0.1h0.2l0.4-0.5l-0.1-0.6l0.1-0.1v-0.4L30,95v-0.2l0.1-0.1l0-0.4l0.2-0.2v-0.2h0.1
	v-0.2l0.3-0.2v-0.4l0.2-0.2l0.1-0.3l0,0l0,0l0.3,0.1l0.1,0.2V93l0.3,0.2h0.1l0.1,0.2l0.2,0.1h0.1l0.1,0.2h0.2l0.1,0.1L33,94h0.3
	l0.1,0.1l0.3,0.1l0.2,0.3h0.3l0.1,0.2h0.3v-0.1h0.2l0.2-0.5l0-0.7l0.2-0.5l-0.1-0.2l0.2-0.1l0.1-0.7l0.2-0.2v-0.2l0.2-0.3l-0.2-0.1
	l0.1-0.7l-0.1-0.8v0l0,0v-0.5l-0.1-0.2l0.2,0l0.2-0.1l0.3-0.1l0.3-0.5l0.2-0.1v-0.3l0.2-0.7l0-0.3l0.7-0.5l0.1-1.6l-0.5,0.1L37,84.4
	v-0.2l-0.3-0.1l0.3-0.3l0.1-0.7l-0.6-0.3l0,0h0.2v-0.3l0.2-0.3l-0.4-0.5V81l0.4-0.5v-0.3l0.2-0.6l0-0.5l0.1-0.3l-0.1-0.3l0.1-0.4
	l-0.1-0.3l0.1-0.2l0.2-0.4l0.8-1.8l0.2-0.3l0.1-0.4l-0.1-0.6l0.3-0.4v-0.4l0.2-0.3l-0.1-0.4v-0.4h-0.1v-0.1H39l0.2-0.3l-0.4-0.2
	v-0.3l0.2-0.3l-0.3-0.4v-0.1l0.1,0l0.1-0.2l0.4-0.3l-0.2-0.4L39,69.1L38.9,69l0.1-0.2l0.4-0.2l-0.5-0.1L39,68l-0.2-0.4v-0.1l0.1-0.1
	L38.5,67l-0.1,0l-0.5-0.1h-0.1l-0.3-0.3l-0.2-0.4l-0.3-0.3h-0.1l-0.1-0.1h0v-0.3H37v-0.1h0.4l-0.4-0.3v-0.1l0.1,0v-0.1l0.1,0.1
	l0.1-0.1h0.1l0.2-0.2H38l-0.2-0.2l0.1-0.1h0.3v-0.2l0,0.1l0.2,0l-0.1,0.3h0.5l0.2-0.3l0.1-0.1h0.3V64l0,0l0.1,0h0.2v-0.1h0.1
	l0.1-0.1v-0.1H40l0.2-0.2L40,63.1l-0.1,0.1l0-0.1L40,63h0.2l0.1-0.3l-0.3-0.3h-0.3v0.3l-0.1,0l0-0.1l-0.2,0.1l0-0.1h-0.1l0,0v-0.3
	l0.2-0.2V62h-0.1l-0.1-0.2v0h0.1v-0.3l-0.3-0.1l0,0l0,0h0.4l0.3-0.1l0.1-0.1l0.1,0h0.4l-0.1-0.2v-0.4l-0.1-0.1l0.2-0.1l0.1-0.2v0
	l0.4-0.1v0.2l0.4-0.1l0-0.1h0.1l0,0l0.2,0.1h0.5l-0.3-0.3v-0.2h0v-0.2l-0.2-0.2v-0.1h0.1l0.3-0.4h-0.2l0.1-0.1v-0.3l0,0h0.1l0.1-0.1
	l0.1-0.4l-0.1,0l0-0.1v-0.3l0,0l0.1-0.1v-0.2l0.1-0.1l-0.1-0.2l0,0l0.2-0.1l0.2-0.3l0.1-0.1h0l0.2-0.1l0,0.2l0.2,0.2h0.3l0.3-0.3
	l-0.1-0.1l0-0.3l0.1-0.1l0.4-0.2v-0.4h-0.1v-0.2l0.1-0.1v-0.3l-0.2-0.3L44,54.5l0,0l0.2-0.2l0.2,0.2h0.1l0,0l0.2,0.3H45v-0.1
	l0.2,0.1l0.1-0.1h0.1l0.1-0.2l0.1,0.1l0.1-0.1l0,0.1h0.1l0.1,0.2l0.1-0.1h0.2l0.3,0.3h0.5v0.1l0.7-0.1v-0.1H48l0,0l0,0.3l0.1,0.1
	L48,55.4l0.2,0.2l0.1,0.2l0.1,0.4l-0.1,0.1l-0.4,0.1l-0.3,0.4l-0.1,0.6l0.1,0.1l0,0.3l-0.1,0.1v0.5l0.2,0.2l0.3,0.1l0,0l0.1,0.7
	L48,60.1v0.5l-0.1,0.3l0,0.2l-0.1,0.5l-0.2,0.5l0.3,0.6h0.2l0.2,0.1v0.3l-0.2,0.3l0,0.1l0,0l-0.3,0v-0.1h-0.4l-0.3,0.2V64l-0.2,0.2
	l-0.1,0.4l0,0.3l0.3,0.2l0.3-0.1h0.4l0,0l0,0.1l0,0.3l0.2,0.4l0.5,0.1l0.4-0.2v0.2l-0.1,0.3l0,0.5l-0.1,0.2h-0.1l-0.2,0.2v0.3
	l-0.1,0.2l-0.1,0.7L48,68.5v0.2l-0.4,0l-0.2,0.2L47,69h-0.2l-0.1,0.4l0.1,0.1h-0.1l-0.1,0.3l0.1,0.1L46.4,70v0.3l-0.1,0.2L46,70.6
	v0.3l-0.2,0.4l-0.4,0.1l0.2,0.1l-0.1,0.2h-0.2v0.3l0,0.2l-0.2,0.3v0.2l-0.2,0.1l-0.4-0.1l-0.2,0.4l0.2,0.2l0,0.2l-0.2,0.4l0.1,0.3
	l-0.2,0.2h-0.2l-0.6,0.2h-0.4l-0.2,0.3l0.1,0.2l0,0h-0.1l-0.2,0.1l-0.2,0.5l0.1,0.4l-0.2,0.1v0.5l0.1,0.1l-0.1,0.4L42,77.3v0.3
	l0.1,0.1l0.1,0.2v0.5l0.2,0.1l0,0.1l0.4,0.1l0.1-0.1l0.1,0v0.2l0.3,0.3h0v0.1l-0.1,0.2l0,0.4l-0.1,0.1v0.6l-0.3,0.4l-0.2,0.6
	l-0.3,0.3L42.3,82l-0.3,0.3l0.1,0.1L41.8,83l-0.2,0.1l-0.3,0.6l-0.1,0.2l-0.2,0.2l-0.2,0.2l-0.1,0.5L40.5,85l-0.2,0.3l-0.1,0.2
	l0,0.4h0.1l0.1,0.1v0.3l0.1,0.1v0.2l0.2,0.3l0.1,0.1v0.1h0l-0.1,0.1V88H41v0.2l0.1,0.1l0.1,0.3h0.1l0.1,0.1l0.2,0.1l0,0.6l0.1,0.1
	l0.2,0.3l0.3-0.1l0.1-0.1h0.1l0.1,0.1l0,0v0.4l-0.1,0.1v0.3l-0.1,0.1l-0.1,0.5L42,91.2v0.5l0.1,0.2v0.2l0.2,0.2h0.2l0.1,0l0.2,0.2
	l0.4,0.3h0.1l-0.1,0L43,93.2l0,0.2l-0.2,0.1l-0.2,0.1l-0.4,0.1h-0.1L42,93.7l0,0.1h-0.1l-0.3,0.3h-0.1v0.1h-0.1v0.1l-0.1,0.1V95h0.1
	l0.2,0.3v0.4l0.1,0.2V96l-0.1,0v0.2l-0.1,0.1v0.2l-0.1,0.1V97l-0.1,0.1v0.2l-0.1,0.1h-0.4l0.3,0.3l0,0.1L41,98l-0.3,0.1h-0.1
	l-0.2,0.2C40.2,97.9,39.5,97.9,39.5,97.9z M23.5,112.5l0,0.1" style="fill: rgb(210, 210, 230);"></path>




</svg>