<?xml version="1.0" encoding="utf-8"?>
<!-- Generator: Adobe Illustrator 25.0.0, SVG Export Plug-In . SVG Version: 6.00 Build 0)  -->

<svg version="1.1" data-id="14" id="Capa_1" xmlns="http://www.w3.org/2000/svg" xmlns:xlink="http://www.w3.org/1999/xlink" x="0px" y="0px" viewBox="0 0 148.3 121.7" style="enable-background:new 0 0 148.3 121.7;" xml:space="preserve">
<style type="text/css">
	.cls-1{fill: #ebebef;;stroke:#FFFFFF;stroke-width:0.25;stroke-miterlimit:3.86;}
</style>
	<path name="XXXX" data-id="" id="path5050" class="cls-1" d="M51.7,109l-0.4-0.7l-0.1-0.3l-0.4-0.3l-0.3-0.7v-0.2l-0.9-1.2v-0.6l-0.1-0.1h-0.2l-0.1,0.2
	l-0.6-0.2l-0.1-0.2l-0.3,0.2l-0.9-0.1L47,105l-0.5-0.5v-0.3h-0.1l-0.1,0.1h-0.7l-0.1,0.1l-0.2-0.2h-0.6l-0.1-0.4l-0.1,0.1l-0.6-0.1
	l-0.3-0.2h-0.3l-1.1-0.8l-1.3-0.3l-0.2,0.3l-1.1,0.6l-1.4,1.9l-0.3,0.1l0.5,0.1h0.3l0.1,0.1l0.3-0.1l0.1-0.1l0.2-0.1l0.1-0.1
	l0.2,0.1l-0.1,0.3l-0.1,0.1v0.3l0.3,0.1l0.5,0.5l0.3,0.1l0.2,0.4h0.3l0.3,0.2v0.4l-0.1,0.1l0.1,0.1v0.2l0.4,0.3l0.5,0.1l0.1,0.1v0.1
	l0.6,0.2l0.6,0.1h0.2l0.1,0.2l0.4,0.4l0.4,0.1l0.1,0.2v0.3l0.4,0.1l0.1,0.3l0.7,0.7l0.1,0.3l0.6,0.3l0.2-0.1l0.4,0.1v0.1l0.2,0.5
	l0.3,0.2l0.4-0.1l0.4,0.3l0.6-0.7l0.2-1l1-0.8l0.9-0.5v-0.8L51.7,109z" disabled="disabled" style="pointer-events: none;"></path>
	<path name="XXXX" data-id="" id="path5040" class="cls-1" d="M53.6,106.7v0.6l-0.1,0.4l-0.9,0.4l-0.3,0.5l-0.6,0.4l0,0l-0.4-0.7l-0.1-0.3l-0.4-0.3l-0.3-0.7
	v-0.2l-0.9-1.2v-0.6l-0.1-0.1h-0.2l-0.1,0.2l-0.7-0.2l-0.1-0.2l-0.3,0.2l-0.9-0.1L47,105l-0.5-0.5v-0.3h-0.1l-0.1,0.1h-0.7l-0.1,0.1
	l-0.2-0.2h-0.6l-0.1-0.4l-0.1,0.1l-0.6-0.1l-0.3-0.2h-0.3l-1.1-0.8l-1.3-0.3l-0.2,0.3l-1.1,0.6l-1.4,1.9l-0.4,0.2h-0.3l-0.2,0.3
	l-0.3,0.1l-0.7,0.6l-0.4,0.1l-0.5,0.3l-0.4,0.6l-0.3-0.1l-0.2-0.2l-0.2-0.1l-0.3-0.7l-0.7-0.1l-0.2-0.4l-0.5-0.4l-0.3-0.7l-0.4-0.2
	l-1-0.1l-0.3-0.6l-0.8-0.4l-0.1-0.4h-0.3l-0.6,0.3l-0.2-0.1l-0.3,0.1H27l-0.4-0.2v-0.8l-0.3-0.4l-0.6-0.3l-0.3,0.3l-0.6,0.1
	l-0.4-0.3l-1.2,0.1l-0.4,0.2v-0.6l0.8-1.2l0.8-0.7l0.1-0.6L24,98.5L23.9,98l0.1-0.6l0.2-0.3L24,96.6v-0.6h-0.4l-0.3-0.4l0.2-0.2
	v-0.4L22.7,95l-0.2-0.5l-0.3-0.4l-0.6,0.2L21,95l-0.3,0.2L20,94.5h-0.4l-0.2-0.3l-1.1-0.1l-0.5,0.3l-0.3-0.2L17,94.3l-1.5-0.6
	l-1,0.1l-0.2,0.3l-0.8-0.4h-0.6l0.9-0.8l0.5-1.3l0.3,0.1h0.8l0.4-0.5l0.2-0.3l0.6-0.1h0.4l0.6-0.3l0.2,0.2l1.5,0.1l0.5-0.3l0.2-0.2
	l0.8-0.1l0.9-0.3l0.4-0.4H23l0.5,0.6l0.5-0.3l1.4-0.1l0.5-0.3l0.3,0.2h0.3l0.3-0.2l0.2,0.1l0.3,0.3l0.3-0.6l0.8-0.4l1.4-0.3l0.6-0.4
	l0.4-0.5l0.9-0.3l0.5-0.7h0.3l1,0.6h0.4l0.7,0.3L34.2,87l0.5-0.6l0.6-0.1l0.5-0.6l0.8-0.3l0.5-0.4l1.1,0.1v0.2l-0.3,0.3l0.1,0.6
	l-0.2,0.2v0.2h0.2l0.1,0.3h0.3l0.1,0.5h0.2v0.1l-0.3,0.4v0.2l0.4,0.4v0.2l-0.6,0.6v0.3H38l-0.5,0.4V91l-0.1,0.1v0.1h0.4l1,0.2
	l-0.1,0.2l-0.2,0.9l0.1,0.3h0.2l0.1-0.3l0.5-0.4h0.2L40,92v0.1h0.7l0.1-0.1l0.1,0.3l0.1-0.1h0.3l0.7,0.7l0.1,0.4l-0.5,0.4l-0.1,0.6
	l0.3,0.1v0.4l-0.1,0.1v0.2h0.3l0.1,0.4v0.8l0.3,0.1l0.1,0.2h0.4h0.3l0.6,0.3v0.4l0.3,0.1l0.5,0.6l0.2,0.3v0.2l0.8,0.9H46l2,0.6
	l0.3-1.4l0.4,0.2l0.1,4.1l0.3,0.3l0.7-0.1l0.7-0.6l0.9,0.2l1.2,1.2l0.1,0.6L53,105l0.1,1l0.4,0.3L53.6,106.7z" disabled="disabled" style="pointer-events: none;"></path>
	<path name="Barrancas" scale="2.9" move="10" data-id="654" id="path4223" class="cls-1" d="M68.2,83.2l-1.4-1.5l-0.7-0.8h-0.2l-1.1-0.6l-0.1-0.3L63.5,80l-1.3-0.6L62,78.8l0.2-0.6l-0.4,0.2
	l-0.5,0.8l-0.6-0.1l-0.1-0.2l-0.3,0.4l-0.2-0.4l-3.1,3v0.7h-0.3l-0.1,0.2l-0.1,0.4h-0.2l-0.3,0.4H56l0.2,0.6h-0.4l-0.2,0.4l-0.2-0.2
	h-0.1l-0.1,0.2l-0.4,0.2l-0.1,0.3l-0.2-0.2v-0.3L54,84.3l-0.5,0.2l-0.1,0.2L53,84.4L52.8,84h-0.6l-0.8-1h-0.4l-0.4-0.6l-0.9-0.1
	L49,82l-0.9-0.1L48,81.1l-0.2-0.6l-0.7,0.1l-0.1,0.1l-0.6,0.1l-0.1,0.4l-0.2,0.1l-0.1,0.3l0.2,0.1l-0.1,0.2L45.8,82l-0.6,0.8v0.1
	l-0.9,0.9l-0.1,0.2l0,0l0.7,0.9l0.9,0.9l1.6,1.8l0.5,1h0.4l0.1,0.2v0.9l0.3,0.4h0.6l0.4,0.4l0.4,0.6l0.1,1.2l0.4,0.3l0.4,0.4h0.2
	l0.2,0.3h1.3l0.5,0.2l0.4,0.1l0.2,0.2h0.4l0.2,0.4l0.5,0.3l0.4,0.1l0.5,0.6l0.6,0.2l0.3,0.4l0.4,0.6l0.6,0.5v-0.2l0.6-0.4v-0.8
	l0.5-1.1l0.5-0.6v-0.7l1.2-0.2l0.8,0.2l0.3-0.8l0.6-0.1l0.2-0.5l1-0.4l0.2-0.6l0.5-0.3l0.6-0.5l0.1-0.9l0.8-0.9L65.6,87l0.2-0.3
	l0.6-0.4l0.4-0.5l-0.4-0.2l0.1-0.3l0.9-0.6l0.1-0.8l0.4-0.3L68.2,83.2z" style="fill: rgb(210, 210, 230);"></path>
	<path name="XXXX" data-id="" id="path5017" class="cls-1" d="M108,45.7l24.9-8.2l-0.1-0.1h-0.3l-0.2,0.1l-0.3-0.2l-0.1-0.5l-0.2-0.1l0.2-0.4h0.3l0.4,0.3h0.3
	l0.6-0.4h0.5l0.2,0.2h0.4l0.2-0.5l0.3-0.3l0.3-0.1l0.2,0.2l0.7-0.2l-0.1-0.4v-0.5l0.2-0.6l0.5-0.4l0.1-1.2l0.5-0.4l-0.1-0.2
	l-0.5,0.1l-0.5,0.6l-0.3,0.1h-0.9l-0.1-0.1l-0.2-0.2l0.2-0.2h0.5l0.1-0.1l-0.3-0.3l0.1-0.2l0.6,0.1l0.3,0.3l0.2-0.3h0.2v-0.1
	l-0.5-0.1v-0.2l0.3-0.1l0.5,0.5l0.4,0.2l0.2,0.4l0.4,0.1l0.6-0.3l0.4-0.7l1.6-1.6l0.4-0.1l0.5-0.7l0.5-0.1l0.3-0.4l0.7-0.6l0.8,0.1
	l0.4-0.5h0.3l0.4-0.4h0.3l0.4-0.3l0.5-0.1l1.1-1.9l0.4-0.5l-0.2-0.4v-2.2l-0.2-0.6l-1.4-2.2l-0.7-1.1l-0.2-0.6l-0.4-0.5l-0.5-0.9
	l-1.5-2l-0.4-1.3l-0.9-1l-0.4-0.9V9.8l0.2-0.2l-0.1-0.4l-0.7-0.4l-0.6-0.7l-0.5-0.1l-1.3-1.4l-1.6-0.6l-0.5-0.3l-0.3,0.1l-0.1,0.4
	l-0.6-0.1l-1-0.7l-1.6-0.8l-1.1-0.1L131,4.1l-0.5,0.3h-0.4l-0.5-0.3l-0.5,0.3L128.2,4l-0.2-0.8l-0.4-0.3l-0.6-0.1l-0.6-0.6l-1-0.2
	l-1.5-0.7l-0.3,0.1l-0.3-0.2h-1l-0.5,0.2l-0.7-0.4l-0.4,0.5l-0.3-0.1l-1.6-0.1l-1.3-0.4l-0.9-0.6h-0.5L116,0.1l-0.9,0.2l-1,0.6
	l-1.3,0.3l-0.6,0.5l-0.4,0.8l-0.1,0.2l0.1,0.2l1-0.6h0.7l0.3-1l0.6-0.1l0.3-0.4h0.2v0.3L114.2,2l-0.3,0.1l0.1,0.3l0.9-0.3l0.6-0.7
	l0.2,0.1l-0.2,0.4l0.2,0.1l0.6-0.6h0.7v0.3l-0.6,0.5l0.5-0.3L117,2l-0.4,0.3h-0.3l-0.1,0.3l-0.5,0.2l-0.4,0.4l0.2,0.3l0.4-0.3h0.7
	L116,3h0.3l0.2-0.1h0.1l1.1-0.4l0.5,0.2L118,3l-0.6,0.3L117,3.5l-1,0.1l-0.5,0.5l-0.8-0.3h-0.3l-0.4,0.1l0.1,0.1l0.5,0.1v0.2
	l-0.4,0.2l0.2,0.1l1,0.5l-0.5,0.4h-0.3l-0.1,0.1h-0.8l0.1-0.2l0.4-0.1l-0.1-0.4l-0.3-0.3h-0.4l0.1,0.3l-0.2,0.2L113,4.8l-0.1-0.1
	h-0.1V5l-0.4-0.5l0.1-0.5l0.6-0.4V3.4L113,3.4l0.1-0.2h0.2l0.2,0.2l-0.2-0.6l-0.7-0.2l-0.4,0.5v0.4l-0.2,0.4l-0.8,0.2l-0.4,0.3
	l-0.4,0.2l0.2,0.1l0.3-0.2h0.6l0.1,0.3l0.1,0.1v0.6l-0.1,0.1l-0.1,0.6l-1.2,0.9l-0.9,0.5l-0.5-0.1l-0.4,0.1L108,8.1L108,8.8
	l-0.3,0.2L106.9,9L106,8l-0.2-0.4l-0.1-0.1V6.7l0.1-0.2h0.2l1.5-0.9V5.4l-0.5-0.2L107,5.1h-0.2l-0.3,0.2l-0.1,0.5l-0.7,0.4l-0.3,0.4
	h-0.4l-0.3-0.4h-0.3l-0.6,0.5l-0.4,0.6l-0.9,1l-1.6,1.1l-1.2,1.2l-0.8,0.6l-0.3,0.1h0.5v0.4h0.2l0.1-0.4l0.2-0.4h0.5l0.4,0.2
	l0.3-0.2l1-0.1l0.2-0.2h0.2l0.3,0.2l0.1,0.3l0.4,0.2l-0.2,0.2H103l-0.3,0.2V12l0.2,0.2l-0.1,0.7l0.6,0.4l0.4,0.3l0.3-0.4l0.2,0.1
	l-0.1,0.2l-0.2,0.2l0.4,0.3l0.1,0.3h0.1l0.4-0.6h0.1l-0.1,0.6l-0.1,0.1l-0.4,0.4V15l0.4,0.4v0.1h-0.2l-0.2,0.2H104l-0.1,0.1
	l-0.3-0.1h-0.5l-0.1-0.1h-0.4l-0.4,0.1l-0.6,0.6h-0.4l-0.2,0.2h-0.1v0.2l0.9,0.9l-0.2-0.1h-0.4l-0.3,0.3l-0.1,0.2l-0.1,0.1l-0.2-0.2
	l-0.4,0.1l-0.4,0.2l-0.8,0.1l-0.1,0.1h-0.4l-0.2-0.2l-0.4-0.1l-0.2,0.2l-0.3-0.2l-0.1-0.4h-0.1l0.1-0.2h0.1l0.1-0.2v-0.6l-0.1-0.1
	l-0.1-0.2h-0.1l-0.1,0.1L97,16.1l-0.5-0.1v-0.2l0.3-0.2v-0.3l0.1-0.1l0.2,0.3l0.4-0.2L97.2,15v-0.3l0.4-0.3l0.6-0.1l0.4-0.4v-0.3
	l0.3-0.9l0.1-0.1v-0.2l-0.2-0.1l-0.1-0.3h-0.1l-0.1,0.1h-0.3l-0.1-0.2h-0.2l-0.7,0.4l-0.3,0.1L96,12.8l-1.5,0.1l-0.2,0.1h-0.5
	l-1.1,0.4h-0.8l-0.3,0.2L91.6,14v0.8l-0.2-0.6v-0.5l0.1-0.2l-0.1-0.1h-0.6l-0.2,0.1l-0.2-0.1l-1.1-0.2h-1.2L88,13.4l-0.5,0.1
	l-0.1,0.3L87,13.9l-0.2,0.3h-0.1l-0.3,0.3l-0.1,0.1v0.2l0.2,0.1l0.4,0.2l0.1-0.2h0.7l0.3,0.3l0.1,0.5l0.1,0.1l-0.1,0.1l0.1,0.8
	l0.4,0.8v0.6l-0.1,0.2l0.1,0.4l0.2,0.3l-0.1,1l0.2,0.5v0.7l-0.6,0.9l-0.2,0.7l-0.4,1.3l-0.5,0.6l-0.4,0.5l-0.3,1l-0.2,0.7l-0.7,0.6
	l-0.3,1.2l-0.4,0.6v0.5l-0.6,1.6l-0.5,0.7l-0.7,0.6v0.4l0.2,0.1l-0.4,0.4h-0.2L82,33.8l0.4-0.4l0.1-0.3l-0.3,0.1l-0.2,0.3l-0.4,0.2
	l-0.8,0.7l-0.2,0.1l-0.7,0.6l-0.8,0.5l-0.7,0.2l-1.2,0.8l-0.4,0.1l-0.1,0.2l-0.4,0.3l-0.1,0.4l0.1,0.4l0.5,0.4l0.1,0.8l0.3,0.3v0.3
	V40l0.3,0.4L77.1,41h-0.3l-0.4,0.2l0.1,0.4l0.2,0.2v0.2L76.7,42v0.3l-0.3,0.3v0.6l-0.3,0.3l-0.3-0.1v0.3l-0.3,0.2l-0.3,0.9l-0.2,0.3
	l0.2,0.3v0.1v0.3l0.3,0.2l0.1,0.3l-0.2,0.3l-0.5,0.1L75,46.9l0.1,0.1l-0.3,0.2v1.3l0.4,0.4v0.3l0.7,0.4h0.4l0.9,0.4l0.4,0.5l0.7,0.7
	V53l0.5,0.2l0.4-0.1l0.6,0.1l0.3,0.3l0.9,0.8l0.9,0.4l0.6-0.1l0.7-0.2l0.4,0.4l0.3-0.1h1.5l0.5-0.2l0.3,0.1h1l0.9-0.4l0.3,0.1h0.9
	l5.4-8.1l1.2-1.4l0.8-0.2l0.9-0.1V45l-0.2,0.2l0.1,0.1h0.2v0.2l-0.2,0.2l0.2,0.3l0.5,0.1l0.4,0.2v0.3l-0.2,0.1v0.5l0.1,0.1l0.3,0.3
	L108,45.7z" disabled="disabled" style="pointer-events: none;"></path>
	<path name="XXXX" data-id="" id="path5007" class="cls-1" d="M44.6,98.1l-0.5-0.6l-0.3-0.1v-0.4l-0.6-0.3H43h-0.4l-0.1-0.2l-0.3-0.1L42,95.7l0.2-0.1L42,95.3
	h-0.3V95l0.1-0.1v-0.2l-0.3-0.1l0.1-0.6l0.5-0.4l-0.1-0.4l-0.7-0.7h-0.3l-0.1,0.1L41,92.3l-0.1,0.1h-0.7v-0.1l-0.4,0.2h-0.2L39,92.9
	l-0.1,0.3h-0.2l-0.1-0.3l0.2-0.9l0.1-0.2l-1-0.2h-0.4v-0.1l0.1-0.1v-1.1l0.5-0.4h0.2v-0.3l0.6-0.6v-0.2l-0.4-0.4v-0.2l0.3-0.4v-0.1
	h-0.2l-0.1-0.5h-0.3l-0.1-0.3h-0.2v-0.2l0.2-0.2L37.9,86l0.3-0.3v-0.2l0.4-0.3l0.2-0.4h0.4l0.2-0.2l0.1-0.2l0.4-0.1l0.1,0.3l0.9,0.1
	l0.5-0.2l0.5-0.1l0.2,0.2l0.6,0.1l0.3-0.3l0.4-0.1l0.3,0.1v0.3l0.1,0.1l-0.1,0.2l-0.3,0.1v0.7l0.1,0.5l0.2,1.1l-0.2,0.8l-0.3,0.2V89
	l0.5,0.7l0.1-0.4l0.5,0.3l0.1,0.6l-0.1,0.3H45l0.2-0.2l0.2,0.4l0.3,0.1l0.4,0.5h0.4v0.2L46,91.8l0.3,0.2v0.2l-0.1,0.1v0.4l-0.2,0.1
	v0.9l0.2,0.1v0.7l0.4,0.3l-0.1,0.9h-0.1l-0.4,0.4l-0.3-0.2l-0.4,0.4l0.1,1l0.5,0.6V98l-0.3,0.5l-0.4,0.1L44.6,98.1z" disabled="disabled" style="pointer-events: none;"></path>
	<path name="XXXX" data-id="" id="path4231" class="cls-1" d="M47.1,80.4l-0.1,0.1l-0.6,0.1l-0.1,0.4l-0.2,0.1l-0.1,0.3l0.2,0.1l-0.1,0.2l-0.6,0.1l-0.6,0.8
	v0.2l-0.9,0.9L44,84.1l-0.3,0.2l-0.3-0.1L43,84.3l-0.3,0.3l-0.6-0.1l-0.2-0.2l-0.5,0.1l-0.5,0.2L40,84.5l-0.2-0.3l-0.4,0.1l-0.1,0.2
	l-0.2,0.2h-0.4l-0.2,0.4l-0.4,0.3L37,85.3l-0.5,0.4l-0.8,0.3l-0.5,0.6l-0.6,0.1l-0.5,0.5l0.3,0.7l-0.7-0.3h-0.4l-1-0.6h-0.3
	l-0.5,0.7l-0.9,0.3l-0.4,0.5l-0.6,0.4l-1.4,0.3l-0.8,0.4l-0.3,0.6L27,89.8l-0.2-0.1l-0.3,0.2h-0.3l-0.3-0.2L25.4,90L24,90.1
	l-0.5,0.3L23,89.8h-0.9l-0.4,0.4L21,90.5l-0.8,0.1L20,90.8l-0.5,0.3L18,91l-0.2-0.2l-0.6,0.3h-0.4l-0.6,0.1v-0.4l0.7-0.7l0.3-0.1
	l0.4-0.4l-0.1-0.9l0.7-0.9l0.5-0.1l0.4,0.2l0.5-0.3l0.1-0.5v-0.4l0.1-0.6l0.3-0.2l0.1-0.4l-0.4-0.5l-0.4-0.1v-0.2l0.2-0.3l0.1-0.4
	l0.4-0.4h0.2l0.3-0.3l0.1-0.4l0.8-0.5h0.5l1.2-0.6l0.2-0.2h0.6l0.3-0.2l0.1-0.4l0.8-1.2l0.3-0.5H26l0.2-0.5l-0.1-0.4h0.3l0.1-0.2
	l-0.2-0.5l0.4-0.6l1.3-0.3l0.2,0.1l0.4-0.6l-0.1-0.2l0.3-0.3l0.4-0.7l-0.1-0.9l0.2-0.2l-0.1-0.4v-0.7l0.3-0.3l0.2-0.3l-0.1-0.5
	l0.6-0.4V71h-0.4l-1.3-1.1l-0.2-0.4l-0.6-0.6h-0.2l-0.1-0.5L26.8,68l-0.2-0.5v-0.3l-0.2-0.3l0.3-0.4l0.4-0.1l0.5-0.6h0.2l0.1,0.4
	l0.3,0.1l0.3,0.2l0.2-0.1l0.2-0.3l-0.2-0.2l-0.1-0.4h-0.1l-0.1-0.3l-0.4,0.2l-0.1-0.3l0.1-0.2l0.1-0.5l0.9-0.5L30,63l0.1,0.1
	l-0.4,0.4v0.2l-0.5,0.6L29.1,65l0.2-0.1l0.2,0.1l0.2-0.2l0.4-0.1l0.1-0.3h0.2l0.2,0.3l0.2-0.2l0.3-0.1v0.5l0.3-0.1h0.3l0.1-0.3
	l-0.6-0.6l-0.4-0.1l-0.1-0.2l0.2-0.1l0.1-0.2l0.4-0.1l0.1-0.4l-0.6-0.1l-0.4,0.1l-0.3-0.1l0.6-0.5l0.6-0.1l0.4-0.1l0.2,0.1l0.1,0.9
	l0.4-0.2h0.2l0.1,0.7h0.3l0.2,0.3v0.2l0.4,0.1l0.1-0.1l0.2-0.1l0.1-0.5l-0.2-0.1l-0.1-0.3l-0.4-0.4l0.1-0.2l0.4-0.3v-0.5h0.3
	l0.3-0.4v-0.4L34,61.1l-0.5,0.2h-0.1l-0.8,0.3l-0.4,0.3l-0.1-0.1l0.2-0.1l0.2-0.2l0.9-0.4l1.2-1.1l0.7-1.1l0.8-0.7l0.9-0.9l1.7-0.9
	l0.8-0.5l0.7-0.1l0.1,0.4l0.1-0.2l-0.1-0.2l0.4-0.5l0.7-0.3l1.1-0.8l0.9-0.4l0.8-0.2l0.3-0.3h0.3l0.3-0.1l0.4,0.3v0.3l-0.2,0.4
	l0.3,0.6h0.5l0.2,0.3v0.3l0.7,0.5l1.3-0.1l0.3,0.2l0.5,0.2l0.4-0.3l0.6,0.4l0.8-0.2l0.2,0.2v0.5l0.4,0.6l0.3-0.2l0.6-0.1l0.1,0.3
	l0.4,0.3l0.4-0.1h0.6l0.3-0.3l0.2,0.2h0.6l0.4,0.3l0.1,0.4l0.5,0.2l0.2,0.4l0.1,0.6l0.7,0.3l0.3,0.3l0.6,0.2h0.4l0.6,0.4l0.7,0.4
	l0.1,0.5l0.2,0.2l0.1,0.5v0.6l0.4,0.7l0.1,0.5l0.4,0.6l0.1,0.9v1.1L61,67.1l0.6,0.8l-0.5,0.9l0.5,0.5v0.4l0.4,1.1v1.1l-0.8,0.5v0.3
	h-1.6l-0.4,2.1L59,75.1v0.2l-0.2,0.1l0.4,0.4L58.7,76l-0.2,0.6l-0.5-0.2h-1.1l-0.2-0.1L55.4,77h-0.9l-0.9,0.1l-1.3,0.6h-0.5
	l-0.7,0.6l-0.5,1.2l-0.7,0.4h-0.8L48.4,80l-0.6,0.3L47.1,80.4z" disabled="disabled" style="pointer-events: none;"></path>
	<path name="XXXX" data-id="" id="path5019" class="cls-1" d="M5.5,70.8l0.1,0.4l0.3,0.4l-0.2,0.9l-0.4,0.1l0.1,0.2l-0.1,0.1L5,73l0.3,0.3H4.8v0.2L5,73.9
	l-0.1,0.9l-0.3,0.1l-0.1,0.2l0.2,0.4l-0.3,0.3l-0.3-0.1L3.4,76l-0.2,0.4H2.9l-0.2,0.9l-0.6,0.3l-0.3,0.3l-0.4-0.2l-0.2,0.1v0.3H0.8
	v0.3L1,78.5l-0.2,0.2l0.2,0.2L1.3,79v0.4l0.4,0.2l-0.1,0.5l-0.4,0.3v0.5l-0.3,0.2l0.3,0.1l0.2,0.3l-0.4,0.2L1.4,82L1,82.5l0.3,0.2
	L1.1,83l0.6,0.1l-0.2,0.5l-0.8,0.7v0.4L1,84.9v0.3l-0.4,0.1v0.8l-0.4,0.8l0.6,0.4l0.8,1L1.4,89l0.4,0.4l-0.3,1.2L1.8,91v0.9l0.6,1
	l0.6,0.4l-0.1,0.4l0.2,0.3v0.6l0.5,1.2l0.5-0.4l1,0.1l0.8-0.4l0.8,0.2l0.8-0.2h1.3l0.7-0.6l0.9-0.2l0.7-0.4l0.7,0.3h0.3l0.2-0.2H13
	l0.9-0.8l0.5-1.3l0.3,0.1h0.8l0.4-0.5l0.2-0.3v-0.4l0.7-0.7l0.3-0.1l0.4-0.4l-0.1-0.9l0.7-0.9l0.5-0.1l0.4,0.2l0.5-0.3l0.1-0.5v-0.4
	l0.1-0.6l0.3-0.2l0.1-0.4L19.8,85l-0.4-0.1v-0.2l0.2-0.3l0.1-0.4l0.4-0.4h0.2l0.3-0.3l0.1-0.4l0.8-0.5h0.5l1.2-0.6l0.2-0.2h0.6
	l0.3-0.2l0.1-0.4l0.8-1.2l0.3-0.5H26l0.2-0.5l-0.1-0.4h0.3l0.1-0.2l-0.2-0.5l0.4-0.6l1.3-0.3l0.2,0.1l0.4-0.6L28.4,76l0.3-0.3
	l0.4-0.7l-0.1-0.9l0.2-0.2l-0.1-0.4v-0.7l0.3-0.3l0.2-0.3l-0.1-0.5l0.6-0.4V71h-0.4l-1.3-1.1l-0.2-0.4l-0.6-0.6h-0.2l-0.1-0.5
	L26.8,68l-0.2-0.5v-0.3l-0.2-0.4L25.7,67L25,67.5l-0.9,0.9h-0.4L23,69.3l-0.7,0.1l-1.1,0.5l-1.5,0.3l-1.2,0.4l-0.4,0.3l-0.3-0.2
	h-0.6l-0.7,0.3l-0.3-0.2h-1.6L13.9,71l-2.4-0.2l-0.2-0.2h-0.4L9.9,71l-0.6,0.2l-0.6,0.2L7,71.3l-1-0.3L5.5,70.8" disabled="disabled" style="pointer-events: none;"></path>
	<path name="Fonseca" scale="3.5" move="10" data-id="658" id="path5028" class="cls-1" d="M57.2,96.2l-0.4-0.6l-0.3-0.4L55.8,95l-0.5-0.6l-0.4-0.1L54.3,94l-0.2-0.4h-0.4l-0.2-0.2L53,93.2
	L52.5,93h-1.3l-0.2-0.3h-0.2l-0.4-0.4l-0.4-0.3L50,90.9l-0.4-0.6L49.2,90h-0.6l-0.3-0.4v-0.9l-0.1-0.2h-0.4l-0.5-1l-1.6-1.8
	l-0.9-0.9L44.1,84l0,0L44,84.1l-0.3,0.2v0.3l0.1,0.1L43.7,85l-0.3,0.1v0.7l0.1,0.5l0.2,1.1l-0.2,0.8l-0.3,0.2v0.4l0.5,0.7l0.1-0.4
	l0.5,0.3l0.1,0.6l-0.1,0.3h0.4l0.2-0.2l0.2,0.4l0.3,0.1l0.4,0.5h0.4v0.2l-0.5,0.2l0.3,0.2v0.2L46,92.1v0.4l-0.2,0.1v0.9l0.2,0.1v0.7
	l0.4,0.3l-0.1,0.9h-0.1l-0.4,0.4l-0.3-0.2l-0.4,0.4l0.1,1l0.5,0.6v0.1l-0.3,0.5l-0.4,0.1v0.2l0.8,0.9h0.5l2,0.6l0.3-1.4l0.4,0.2
	l0.1,4.1l0.3,0.3l0.7-0.1l0.7-0.6l0.9,0.2l1.2,1.2l0.1,0.6l0.4,0.4l0.1,1l0.4,0.3l0.3-0.4v-0.6l0.4-0.5l0.1-0.9l1-0.7l-0.2-0.9
	l0.4-0.8l-0.3-0.3l0.3-0.4l0.2-0.6l0.7-0.2l0.5,0.2l0.3-0.5l-0.1-0.7l0.2-0.2L57.3,98l0.5-0.5l0.1-0.8L57.2,96.2z" style="fill: rgb(210, 210, 230);"></path>
	<path name="XXXX" data-id="" id="path3510" class="cls-1" d="M45.7,118h-1.8v0.6h-1.2v0.5h-1.5v0.6h-1.1v0.5h-2.6v-5.9h-2.7l-0.1-0.8l-0.8-0.4l-1.7,2.7
	l-0.7-0.3l-0.6,0.1l-0.6,0.6h-0.4h-0.6l-0.3,0.2l0.2,0.5l-0.1,0.2l-0.5,0.2l-0.1,0.4l0.7-0.1l0.5,0.4l0.1,0.3l0.8,0.5l0.1,1.2
	l-0.2,0.9l0.2,0.6l0.3-0.1l2-1.3l0.4-0.1l0.4-0.2h0.9l0.6,0.5H36l0.5,0.6l0.5-0.1l0.3-0.3l0.9-0.1l0.1,0.4h0.7l0.4,0.3l0.9-0.1
	l0.5-0.7h0.3l0.1,0.1l1-0.8l0.3,0.4l0.7-0.7l1-0.4l0.5,0.1L45,119l0.2-0.6l0.4-0.2L45.7,118z" disabled="disabled" style="pointer-events: none;"></path>
	<path name="XXXX" data-id="" id="path3498" class="cls-1" d="M47,117.3l0.6-1.2l0.5-0.5l0.2-0.6l-0.6-0.1l-1.1-0.4h-0.5l-0.5,0.4l-0.7-0.1l-0.5-0.3l-1.5-0.2
	h-0.9l-1.4-0.7l-0.4-0.6l-0.2-0.3l-1.1-0.3l-0.3-0.2l-0.4-0.8v-0.4l-0.7,0.6h-0.7l-0.3-0.1l-1.4,0.1l-0.7,0.4l-0.5,0.5h-0.7v-0.3
	l-0.6,0.3l-0.1,0.6l-0.6,0.1l-0.1,0.3l-0.4,0.1l-0.2,0.5l-0.5-0.5l-0.2,0.3l0.1,0.5l-0.3,0.1l-0.1,0.3l-0.1,0.1l0.3,0.4l-0.2,0.3
	h-0.5l-0.2,0.3h-0.4l-0.1,0.1l0.1,0.3H30h0.4l0.6-0.6l0.6-0.1l0.6,0.3l1.7-2.7l0.8,0.4l0.1,0.8h2.7v5.9h2.6v-0.5h1.1V119h1.5v-0.5
	H44v-0.6h1.8L47,117.3z" disabled="disabled" style="pointer-events: none;"></path>
	<path name="XXXX" data-id="" id="path3431" class="cls-1" d="M68,81.1l0.4,0.2l0.3,0.4l-0.1,0.5l0.4,0.3l-0.6,0.3l-0.3,0.4l-1.4-1.5l-0.6-0.8h-0.2l-1.1-0.6
	l-0.1-0.3l-1.2-0.1l-1.3-0.6L62,78.8l0.2-0.6l-0.4,0.2l-0.5,0.8l-0.6-0.1l-0.1-0.2l-0.3,0.4L60,78.9l-3.1,3v0.7h-0.3l-0.1,0.2
	l-0.1,0.4h-0.2l-0.3,0.4H56l0.2,0.6h-0.4l-0.2,0.4l-0.2-0.2h-0.1l-0.1,0.2l-0.4,0.2l-0.1,0.3l-0.2-0.2v-0.3L54,84.3l-0.5,0.2
	l-0.1,0.2L53,84.4L52.8,84h-0.6l-0.8-1h-0.4l-0.4-0.6l-0.9-0.1L49,82l-0.9-0.1L48,81.1l-0.2-0.6l0.6-0.3l0.7-0.1h0.8l0.7-0.4
	l0.5-1.2l0.7-0.6h0.5l1.3-0.6l0.9-0.1h0.9l1.2-0.7l0.2,0.1h1.1l0.5,0.2l0.2,0.4l0.4,0.3l0.4,0.2v0.6l0.4,0.4l0.3-0.1l0.1,0.1H61
	l0.2-0.4l0.4-0.1l0.5-0.3l0.6-0.4l0.2,0.1L62.5,78l-0.1,1l0.6,0.5l1,0.2l0.8-0.1l0.5,0.2l0.4,0.5l0.7,0.1l0.6-0.1l0.6,0.1l0.5,0.4
	l0.5,0.1L68,81.1z" disabled="disabled" style="pointer-events: none;"></path>
	<path name="XXXX" data-id="" id="path3422" class="cls-1" d="M68.4,80.8l0.5-0.8l2.1-1.6l-1.6,0l-0.5-0.7h-0.3l-0.8,0.5l-0.3-0.5l-0.9-0.4l-0.4-0.8H68
	l0.5,0.2H69l1,0.2l0.3,0.2h1.4l0.1-0.6l0.3-0.1l0.4,0.2h0.7l0.4-0.2V76l-0.3-0.5l-0.1-1.4L73,73.5l-0.2-1.4l-0.7-0.4l-0.3-2.1
	L71.3,69l-0.1-0.6h-0.6l-1.9-1.1l-0.1-0.8l-0.3-0.7l-0.8-0.4l-0.2-1L67,64.1v-0.7L66.6,63v-0.2l0.2-0.2l-0.1-0.6l-1,0.6l-1.5,0.3
	l-0.2,0.7l-0.8,0.4v0.2l1,0.1l-0.3,0.3v0.8l-0.2,0.6l-1.7,1.5l-0.4-0.2l-0.3,0.2l0.6,0.8l-0.5,0.9l0.5,0.5V70l0.4,1.1v1.1l-0.8,0.5
	v0.3h-1.6L59.4,75l-0.3,0.2v0.2L59,75.5l0.4,0.4l-0.5,0.2l-0.3,0.6l0.2,0.4l0.4,0.3l0.4,0.2v0.6l0.4,0.4l0.3-0.1l0.1,0.1h0.7
	l0.2-0.4l0.4-0.1l0.5-0.3l0.6-0.4l0.2,0.1l-0.5,0.4l-0.1,1l0.6,0.5l1,0.2l0.8-0.1l0.5,0.2l0.4,0.5l0.7,0.1l0.6-0.1l0.6,0.1l0.5,0.4
	l0.5,0.1L68.4,80.8z" disabled="disabled" style="pointer-events: none;"></path>
	<path name="XXXX" data-id="" id="path4217" class="cls-1" d="M76.2,37.6l0.1,0.4l0.5,0.4l0.1,0.8l0.3,0.3v0.3v0.3l0.3,0.4l-0.4,0.6h-0.3l-0.4,0.2l0.1,0.4
	l0.2,0.2V42l-0.1,0.1v0.3l-0.3,0.3v0.6l-0.3,0.3l-0.3-0.1v0.3l-0.3,0.2l-0.3,0.9l-0.2,0.3l0.2,0.3v0.1v0.3l0.3,0.2l0.1,0.3l-0.2,0.3
	l-0.5,0.1L75,46.9l0.1,0.1l-0.3,0.2v1.3l0.4,0.4v0.3l0.7,0.4h0.4l0.9,0.4l0.4,0.5l0.7,0.7v1.9l0.5,0.2l0.4-0.1l0.6,0.1l0.3,0.3
	l0.9,0.8l0.9,0.4l-0.3,0.4L80.6,55l-0.8,0.2l-0.3,0.4L78.6,55l-1.2-0.2l-1,0.4l-0.7-0.2l-0.8,1.2h-0.7l-1,0.7l-1.7,0.6l-0.7,0.3
	l-0.7,0.5l-0.9,0.1L68,59.1L67.5,59l-0.4,0.2l-1,0.4L63.5,59L63,58.8l-1,0.5l-0.8,1.3l-0.7-0.2l-1.3,0.4l-0.6-0.5h-0.4l-0.6-0.2
	l-0.3-0.3l-0.7-0.3l-0.1-0.6l-0.2-0.4l-0.5-0.2l-0.1-0.4l-0.4-0.3h-0.6l-0.2-0.2l-0.3,0.3h-0.6l-0.4,0.1l-0.4-0.3l-0.1-0.3L52,57.3
	l-0.3,0.2l-0.4-0.6v-0.5l-0.2-0.2l-0.8,0.2l-0.6-0.4l-0.4,0.3l-0.5-0.2l-0.4-0.1L47.2,56l-0.7-0.5v-0.3l-0.2-0.3h-0.5l-0.3-0.6
	l0.2-0.4v-0.4l-0.4-0.3l0.4-0.3l0.4-0.6h0.1l0.3,0.5l0.2-0.2l0.5-0.1l0.7-0.6l0.2-0.1v-0.1l-0.4-0.1v-0.3l-0.2-0.1l-0.6,0.3
	l-0.8,0.8H46l0.3-0.4l1.4-1.4l0.3-0.2l0.3-0.9l0.6-0.6l0.9-0.4l1-0.7l0.1,0.1l0.2,0.1l-0.1-0.3l0.4-0.4l0.6-0.6l0.4-0.4l0.6-0.1
	l0.8-0.6l0.8-0.2l0.5-0.3l1.7-0.2l1.7-0.8l0.8-0.1l0.7,0.1l0.3-0.2l0.7-0.3l0.9-1l1.1-0.1l0.5,0.2l0.1,0.1l0.1-0.2l1.1-0.4l0.5-0.4
	v-0.3l0.8-0.7l1.1-0.2l0.5,0.3l0.3-0.2h1.5l1.3-0.2l0.7-0.4l1.3-0.3l0.5-0.4l1.1-1l0.6-0.3l0.7-0.4l0.5-0.1L76.2,37.6z" disabled="disabled" style="pointer-events: none;"></path>
	<path name="Villanueva" scale="4.4" move="15" data-id="666" id="path4232" class="cls-1" d="M48.4,113.1l-0.1,1.2v0.7l-0.6-0.1l-1.1-0.4h-0.5l-0.5,0.4l-0.7-0.1l-0.5-0.3l-1.5-0.2h-0.9
	l-1.4-0.7l-0.5-0.9l-1.1-0.3l-0.3-0.3l-0.4-0.8l-0.1-0.4l-0.7,0.6H37l-0.3-0.1l-1.4,0.1l-0.7,0.4l-0.5,0.5h-0.7v-0.3l-0.5-0.5
	l0.1-0.6l0.9-0.6l-0.1-0.5l0.2-0.1l0.2-0.4l-0.2-0.7v-0.9l0.7-0.5l0.3,0.1l0.4-0.6l0.5-0.3l0.4-0.1l0.7-0.6l0.3-0.1l0.2-0.3h0.3
	l0.2-0.1l0.5,0.1h0.3l0.1,0.1l0.3-0.1l0.1-0.1l0.2-0.1l0.1-0.1l0.2,0.1l-0.1,0.3l-0.1,0.1v0.3l0.3,0.1l0.5,0.5l0.3,0.1l0.2,0.4h0.3
	l0.3,0.2v0.5l-0.1,0.1l0.1,0.1v0.2l0.4,0.3l0.5,0.1l0.1,0.1v0.1l0.6,0.2l0.6,0.1h0.2l0.1,0.2l0.4,0.4l0.4,0.1l0.1,0.2v0.3l0.4,0.1
	l0.1,0.3l0.7,0.7l0.1,0.3l0.6,0.3l0.2-0.1l0.4,0.1v0.1l0.1,0.5l0.3,0.2l0.4-0.1L48.4,113.1" style="fill: rgb(210, 210, 230);"></path>
	<path name="XXXX" data-id="" id="path4234" class="cls-1" d="M89,54.6h-0.9l-0.3-0.1l-0.9,0.4h-1l-0.3-0.1l-0.5,0.2h-1.5L83.3,55L83,54.6l-0.7,0.2h-0.6
	l-0.3,0.4L80.5,55l-0.8,0.2l-0.3,0.4L78.4,55l-1.2-0.2l-1,0.4l-0.7-0.2l-0.8,1.2H74L73,57l-1.7,0.6l-0.7,0.3l-0.7,0.5L69,58.5
	l-1.1,0.6L67.4,59L67,59.2l-1,0.4l-2.6-0.6l-0.5-0.2l-1,0.5l-0.8,1.3l-0.7-0.2l-1.2,0.4l0.7,0.4l0.1,0.5l0.2,0.2l0.1,0.5v0.6
	l0.4,0.7l0.1,0.5l0.4,0.6l0.1,0.9v1.1l0.4,0.2l1.7-1.5l0.2-0.6v-0.8L64,64l-1-0.1v-0.2l0.8-0.4l0.2-0.7l1.5-0.3l1-0.6l0.1,0.6
	l-0.2,0.2v0.2l0.4,0.4v0.7l0.5,0.4l0.2,1l0.8,0.4l0.3,0.7l0.1,0.8l1.9,1.1H71l0.1,0.6l0.5,0.6l0.3,2.1l0.7,0.4l0.2,1.4l0.2,0.7
	l0.1,1.4l0.3,0.5v0.2l-0.4,0.2h-0.6L72,76.1l-0.3,0.1l-0.1,0.6h-1.4l-0.3-0.2l-1-0.2h-0.5l-0.5-0.2h-1.8l0.4,0.8l0.9,0.4l0.3,0.5
	l0.8-0.5h0.3l0.5,0.7l1.7,0.1l0.3,0.6l0.4,0.1l0.5-0.4l1.1-0.2l0.6-0.4h0.3l1.1-0.3l0.8-0.3l0.6-0.6l0.7,0.2l0.3,0.3l0.9-0.1
	l0.3,0.1h1l1.2,0.3l1,0.1l0.2-0.2l0.4,0.1l15.8-29.9L98,47.2l-0.1-0.1v-0.5l0.2-0.1v-0.3l-0.4-0.2L97.2,46L97,45.7l0.2-0.2v-0.2H97
	l-0.1-0.1l0.2-0.2v-0.2l-0.9,0.1L95.5,45l-1.1,1.6L89,54.6z" disabled="disabled" style="pointer-events: none;"></path>



	<svg version="1.1" data-id="14" id="Capa_1" xmlns="http://www.w3.org/2000/svg" xmlns:xlink="http://www.w3.org/1999/xlink" x="0px" y="0px" viewBox="0 0 148.3 121.7" style="enable-background:new 0 0 148.3 121.7;" xml:space="preserve">
<style type="text/css">
	.cls-1{fill: #ebebef;;stroke:#FFFFFF;stroke-width:0.25;stroke-miterlimit:3.86;}
</style>
		<path name="XXXX" data-id="" id="path5050" class="cls-1" d="M51.7,109l-0.4-0.7l-0.1-0.3l-0.4-0.3l-0.3-0.7v-0.2l-0.9-1.2v-0.6l-0.1-0.1h-0.2l-0.1,0.2
	l-0.6-0.2l-0.1-0.2l-0.3,0.2l-0.9-0.1L47,105l-0.5-0.5v-0.3h-0.1l-0.1,0.1h-0.7l-0.1,0.1l-0.2-0.2h-0.6l-0.1-0.4l-0.1,0.1l-0.6-0.1
	l-0.3-0.2h-0.3l-1.1-0.8l-1.3-0.3l-0.2,0.3l-1.1,0.6l-1.4,1.9l-0.3,0.1l0.5,0.1h0.3l0.1,0.1l0.3-0.1l0.1-0.1l0.2-0.1l0.1-0.1
	l0.2,0.1l-0.1,0.3l-0.1,0.1v0.3l0.3,0.1l0.5,0.5l0.3,0.1l0.2,0.4h0.3l0.3,0.2v0.4l-0.1,0.1l0.1,0.1v0.2l0.4,0.3l0.5,0.1l0.1,0.1v0.1
	l0.6,0.2l0.6,0.1h0.2l0.1,0.2l0.4,0.4l0.4,0.1l0.1,0.2v0.3l0.4,0.1l0.1,0.3l0.7,0.7l0.1,0.3l0.6,0.3l0.2-0.1l0.4,0.1v0.1l0.2,0.5
	l0.3,0.2l0.4-0.1l0.4,0.3l0.6-0.7l0.2-1l1-0.8l0.9-0.5v-0.8L51.7,109z" disabled="disabled" style="pointer-events: none;"></path>
		<path name="XXXX" data-id="" id="path5040" class="cls-1" d="M53.6,106.7v0.6l-0.1,0.4l-0.9,0.4l-0.3,0.5l-0.6,0.4l0,0l-0.4-0.7l-0.1-0.3l-0.4-0.3l-0.3-0.7
	v-0.2l-0.9-1.2v-0.6l-0.1-0.1h-0.2l-0.1,0.2l-0.7-0.2l-0.1-0.2l-0.3,0.2l-0.9-0.1L47,105l-0.5-0.5v-0.3h-0.1l-0.1,0.1h-0.7l-0.1,0.1
	l-0.2-0.2h-0.6l-0.1-0.4l-0.1,0.1l-0.6-0.1l-0.3-0.2h-0.3l-1.1-0.8l-1.3-0.3l-0.2,0.3l-1.1,0.6l-1.4,1.9l-0.4,0.2h-0.3l-0.2,0.3
	l-0.3,0.1l-0.7,0.6l-0.4,0.1l-0.5,0.3l-0.4,0.6l-0.3-0.1l-0.2-0.2l-0.2-0.1l-0.3-0.7l-0.7-0.1l-0.2-0.4l-0.5-0.4l-0.3-0.7l-0.4-0.2
	l-1-0.1l-0.3-0.6l-0.8-0.4l-0.1-0.4h-0.3l-0.6,0.3l-0.2-0.1l-0.3,0.1H27l-0.4-0.2v-0.8l-0.3-0.4l-0.6-0.3l-0.3,0.3l-0.6,0.1
	l-0.4-0.3l-1.2,0.1l-0.4,0.2v-0.6l0.8-1.2l0.8-0.7l0.1-0.6L24,98.5L23.9,98l0.1-0.6l0.2-0.3L24,96.6v-0.6h-0.4l-0.3-0.4l0.2-0.2
	v-0.4L22.7,95l-0.2-0.5l-0.3-0.4l-0.6,0.2L21,95l-0.3,0.2L20,94.5h-0.4l-0.2-0.3l-1.1-0.1l-0.5,0.3l-0.3-0.2L17,94.3l-1.5-0.6
	l-1,0.1l-0.2,0.3l-0.8-0.4h-0.6l0.9-0.8l0.5-1.3l0.3,0.1h0.8l0.4-0.5l0.2-0.3l0.6-0.1h0.4l0.6-0.3l0.2,0.2l1.5,0.1l0.5-0.3l0.2-0.2
	l0.8-0.1l0.9-0.3l0.4-0.4H23l0.5,0.6l0.5-0.3l1.4-0.1l0.5-0.3l0.3,0.2h0.3l0.3-0.2l0.2,0.1l0.3,0.3l0.3-0.6l0.8-0.4l1.4-0.3l0.6-0.4
	l0.4-0.5l0.9-0.3l0.5-0.7h0.3l1,0.6h0.4l0.7,0.3L34.2,87l0.5-0.6l0.6-0.1l0.5-0.6l0.8-0.3l0.5-0.4l1.1,0.1v0.2l-0.3,0.3l0.1,0.6
	l-0.2,0.2v0.2h0.2l0.1,0.3h0.3l0.1,0.5h0.2v0.1l-0.3,0.4v0.2l0.4,0.4v0.2l-0.6,0.6v0.3H38l-0.5,0.4V91l-0.1,0.1v0.1h0.4l1,0.2
	l-0.1,0.2l-0.2,0.9l0.1,0.3h0.2l0.1-0.3l0.5-0.4h0.2L40,92v0.1h0.7l0.1-0.1l0.1,0.3l0.1-0.1h0.3l0.7,0.7l0.1,0.4l-0.5,0.4l-0.1,0.6
	l0.3,0.1v0.4l-0.1,0.1v0.2h0.3l0.1,0.4v0.8l0.3,0.1l0.1,0.2h0.4h0.3l0.6,0.3v0.4l0.3,0.1l0.5,0.6l0.2,0.3v0.2l0.8,0.9H46l2,0.6
	l0.3-1.4l0.4,0.2l0.1,4.1l0.3,0.3l0.7-0.1l0.7-0.6l0.9,0.2l1.2,1.2l0.1,0.6L53,105l0.1,1l0.4,0.3L53.6,106.7z" disabled="disabled" style="pointer-events: none;"></path>
		<path name="Barrancas" scale="2.9" move="10" data-id="654" id="path4223" class="cls-1" d="M68.2,83.2l-1.4-1.5l-0.7-0.8h-0.2l-1.1-0.6l-0.1-0.3L63.5,80l-1.3-0.6L62,78.8l0.2-0.6l-0.4,0.2
	l-0.5,0.8l-0.6-0.1l-0.1-0.2l-0.3,0.4l-0.2-0.4l-3.1,3v0.7h-0.3l-0.1,0.2l-0.1,0.4h-0.2l-0.3,0.4H56l0.2,0.6h-0.4l-0.2,0.4l-0.2-0.2
	h-0.1l-0.1,0.2l-0.4,0.2l-0.1,0.3l-0.2-0.2v-0.3L54,84.3l-0.5,0.2l-0.1,0.2L53,84.4L52.8,84h-0.6l-0.8-1h-0.4l-0.4-0.6l-0.9-0.1
	L49,82l-0.9-0.1L48,81.1l-0.2-0.6l-0.7,0.1l-0.1,0.1l-0.6,0.1l-0.1,0.4l-0.2,0.1l-0.1,0.3l0.2,0.1l-0.1,0.2L45.8,82l-0.6,0.8v0.1
	l-0.9,0.9l-0.1,0.2l0,0l0.7,0.9l0.9,0.9l1.6,1.8l0.5,1h0.4l0.1,0.2v0.9l0.3,0.4h0.6l0.4,0.4l0.4,0.6l0.1,1.2l0.4,0.3l0.4,0.4h0.2
	l0.2,0.3h1.3l0.5,0.2l0.4,0.1l0.2,0.2h0.4l0.2,0.4l0.5,0.3l0.4,0.1l0.5,0.6l0.6,0.2l0.3,0.4l0.4,0.6l0.6,0.5v-0.2l0.6-0.4v-0.8
	l0.5-1.1l0.5-0.6v-0.7l1.2-0.2l0.8,0.2l0.3-0.8l0.6-0.1l0.2-0.5l1-0.4l0.2-0.6l0.5-0.3l0.6-0.5l0.1-0.9l0.8-0.9L65.6,87l0.2-0.3
	l0.6-0.4l0.4-0.5l-0.4-0.2l0.1-0.3l0.9-0.6l0.1-0.8l0.4-0.3L68.2,83.2z" style="fill: rgb(210, 210, 230);"></path>
		<path name="XXXX" data-id="" id="path5017" class="cls-1" d="M108,45.7l24.9-8.2l-0.1-0.1h-0.3l-0.2,0.1l-0.3-0.2l-0.1-0.5l-0.2-0.1l0.2-0.4h0.3l0.4,0.3h0.3
	l0.6-0.4h0.5l0.2,0.2h0.4l0.2-0.5l0.3-0.3l0.3-0.1l0.2,0.2l0.7-0.2l-0.1-0.4v-0.5l0.2-0.6l0.5-0.4l0.1-1.2l0.5-0.4l-0.1-0.2
	l-0.5,0.1l-0.5,0.6l-0.3,0.1h-0.9l-0.1-0.1l-0.2-0.2l0.2-0.2h0.5l0.1-0.1l-0.3-0.3l0.1-0.2l0.6,0.1l0.3,0.3l0.2-0.3h0.2v-0.1
	l-0.5-0.1v-0.2l0.3-0.1l0.5,0.5l0.4,0.2l0.2,0.4l0.4,0.1l0.6-0.3l0.4-0.7l1.6-1.6l0.4-0.1l0.5-0.7l0.5-0.1l0.3-0.4l0.7-0.6l0.8,0.1
	l0.4-0.5h0.3l0.4-0.4h0.3l0.4-0.3l0.5-0.1l1.1-1.9l0.4-0.5l-0.2-0.4v-2.2l-0.2-0.6l-1.4-2.2l-0.7-1.1l-0.2-0.6l-0.4-0.5l-0.5-0.9
	l-1.5-2l-0.4-1.3l-0.9-1l-0.4-0.9V9.8l0.2-0.2l-0.1-0.4l-0.7-0.4l-0.6-0.7l-0.5-0.1l-1.3-1.4l-1.6-0.6l-0.5-0.3l-0.3,0.1l-0.1,0.4
	l-0.6-0.1l-1-0.7l-1.6-0.8l-1.1-0.1L131,4.1l-0.5,0.3h-0.4l-0.5-0.3l-0.5,0.3L128.2,4l-0.2-0.8l-0.4-0.3l-0.6-0.1l-0.6-0.6l-1-0.2
	l-1.5-0.7l-0.3,0.1l-0.3-0.2h-1l-0.5,0.2l-0.7-0.4l-0.4,0.5l-0.3-0.1l-1.6-0.1l-1.3-0.4l-0.9-0.6h-0.5L116,0.1l-0.9,0.2l-1,0.6
	l-1.3,0.3l-0.6,0.5l-0.4,0.8l-0.1,0.2l0.1,0.2l1-0.6h0.7l0.3-1l0.6-0.1l0.3-0.4h0.2v0.3L114.2,2l-0.3,0.1l0.1,0.3l0.9-0.3l0.6-0.7
	l0.2,0.1l-0.2,0.4l0.2,0.1l0.6-0.6h0.7v0.3l-0.6,0.5l0.5-0.3L117,2l-0.4,0.3h-0.3l-0.1,0.3l-0.5,0.2l-0.4,0.4l0.2,0.3l0.4-0.3h0.7
	L116,3h0.3l0.2-0.1h0.1l1.1-0.4l0.5,0.2L118,3l-0.6,0.3L117,3.5l-1,0.1l-0.5,0.5l-0.8-0.3h-0.3l-0.4,0.1l0.1,0.1l0.5,0.1v0.2
	l-0.4,0.2l0.2,0.1l1,0.5l-0.5,0.4h-0.3l-0.1,0.1h-0.8l0.1-0.2l0.4-0.1l-0.1-0.4l-0.3-0.3h-0.4l0.1,0.3l-0.2,0.2L113,4.8l-0.1-0.1
	h-0.1V5l-0.4-0.5l0.1-0.5l0.6-0.4V3.4L113,3.4l0.1-0.2h0.2l0.2,0.2l-0.2-0.6l-0.7-0.2l-0.4,0.5v0.4l-0.2,0.4l-0.8,0.2l-0.4,0.3
	l-0.4,0.2l0.2,0.1l0.3-0.2h0.6l0.1,0.3l0.1,0.1v0.6l-0.1,0.1l-0.1,0.6l-1.2,0.9l-0.9,0.5l-0.5-0.1l-0.4,0.1L108,8.1L108,8.8
	l-0.3,0.2L106.9,9L106,8l-0.2-0.4l-0.1-0.1V6.7l0.1-0.2h0.2l1.5-0.9V5.4l-0.5-0.2L107,5.1h-0.2l-0.3,0.2l-0.1,0.5l-0.7,0.4l-0.3,0.4
	h-0.4l-0.3-0.4h-0.3l-0.6,0.5l-0.4,0.6l-0.9,1l-1.6,1.1l-1.2,1.2l-0.8,0.6l-0.3,0.1h0.5v0.4h0.2l0.1-0.4l0.2-0.4h0.5l0.4,0.2
	l0.3-0.2l1-0.1l0.2-0.2h0.2l0.3,0.2l0.1,0.3l0.4,0.2l-0.2,0.2H103l-0.3,0.2V12l0.2,0.2l-0.1,0.7l0.6,0.4l0.4,0.3l0.3-0.4l0.2,0.1
	l-0.1,0.2l-0.2,0.2l0.4,0.3l0.1,0.3h0.1l0.4-0.6h0.1l-0.1,0.6l-0.1,0.1l-0.4,0.4V15l0.4,0.4v0.1h-0.2l-0.2,0.2H104l-0.1,0.1
	l-0.3-0.1h-0.5l-0.1-0.1h-0.4l-0.4,0.1l-0.6,0.6h-0.4l-0.2,0.2h-0.1v0.2l0.9,0.9l-0.2-0.1h-0.4l-0.3,0.3l-0.1,0.2l-0.1,0.1l-0.2-0.2
	l-0.4,0.1l-0.4,0.2l-0.8,0.1l-0.1,0.1h-0.4l-0.2-0.2l-0.4-0.1l-0.2,0.2l-0.3-0.2l-0.1-0.4h-0.1l0.1-0.2h0.1l0.1-0.2v-0.6l-0.1-0.1
	l-0.1-0.2h-0.1l-0.1,0.1L97,16.1l-0.5-0.1v-0.2l0.3-0.2v-0.3l0.1-0.1l0.2,0.3l0.4-0.2L97.2,15v-0.3l0.4-0.3l0.6-0.1l0.4-0.4v-0.3
	l0.3-0.9l0.1-0.1v-0.2l-0.2-0.1l-0.1-0.3h-0.1l-0.1,0.1h-0.3l-0.1-0.2h-0.2l-0.7,0.4l-0.3,0.1L96,12.8l-1.5,0.1l-0.2,0.1h-0.5
	l-1.1,0.4h-0.8l-0.3,0.2L91.6,14v0.8l-0.2-0.6v-0.5l0.1-0.2l-0.1-0.1h-0.6l-0.2,0.1l-0.2-0.1l-1.1-0.2h-1.2L88,13.4l-0.5,0.1
	l-0.1,0.3L87,13.9l-0.2,0.3h-0.1l-0.3,0.3l-0.1,0.1v0.2l0.2,0.1l0.4,0.2l0.1-0.2h0.7l0.3,0.3l0.1,0.5l0.1,0.1l-0.1,0.1l0.1,0.8
	l0.4,0.8v0.6l-0.1,0.2l0.1,0.4l0.2,0.3l-0.1,1l0.2,0.5v0.7l-0.6,0.9l-0.2,0.7l-0.4,1.3l-0.5,0.6l-0.4,0.5l-0.3,1l-0.2,0.7l-0.7,0.6
	l-0.3,1.2l-0.4,0.6v0.5l-0.6,1.6l-0.5,0.7l-0.7,0.6v0.4l0.2,0.1l-0.4,0.4h-0.2L82,33.8l0.4-0.4l0.1-0.3l-0.3,0.1l-0.2,0.3l-0.4,0.2
	l-0.8,0.7l-0.2,0.1l-0.7,0.6l-0.8,0.5l-0.7,0.2l-1.2,0.8l-0.4,0.1l-0.1,0.2l-0.4,0.3l-0.1,0.4l0.1,0.4l0.5,0.4l0.1,0.8l0.3,0.3v0.3
	V40l0.3,0.4L77.1,41h-0.3l-0.4,0.2l0.1,0.4l0.2,0.2v0.2L76.7,42v0.3l-0.3,0.3v0.6l-0.3,0.3l-0.3-0.1v0.3l-0.3,0.2l-0.3,0.9l-0.2,0.3
	l0.2,0.3v0.1v0.3l0.3,0.2l0.1,0.3l-0.2,0.3l-0.5,0.1L75,46.9l0.1,0.1l-0.3,0.2v1.3l0.4,0.4v0.3l0.7,0.4h0.4l0.9,0.4l0.4,0.5l0.7,0.7
	V53l0.5,0.2l0.4-0.1l0.6,0.1l0.3,0.3l0.9,0.8l0.9,0.4l0.6-0.1l0.7-0.2l0.4,0.4l0.3-0.1h1.5l0.5-0.2l0.3,0.1h1l0.9-0.4l0.3,0.1h0.9
	l5.4-8.1l1.2-1.4l0.8-0.2l0.9-0.1V45l-0.2,0.2l0.1,0.1h0.2v0.2l-0.2,0.2l0.2,0.3l0.5,0.1l0.4,0.2v0.3l-0.2,0.1v0.5l0.1,0.1l0.3,0.3
	L108,45.7z" disabled="disabled" style="pointer-events: none;"></path>
		<path name="XXXX" data-id="" id="path5007" class="cls-1" d="M44.6,98.1l-0.5-0.6l-0.3-0.1v-0.4l-0.6-0.3H43h-0.4l-0.1-0.2l-0.3-0.1L42,95.7l0.2-0.1L42,95.3
	h-0.3V95l0.1-0.1v-0.2l-0.3-0.1l0.1-0.6l0.5-0.4l-0.1-0.4l-0.7-0.7h-0.3l-0.1,0.1L41,92.3l-0.1,0.1h-0.7v-0.1l-0.4,0.2h-0.2L39,92.9
	l-0.1,0.3h-0.2l-0.1-0.3l0.2-0.9l0.1-0.2l-1-0.2h-0.4v-0.1l0.1-0.1v-1.1l0.5-0.4h0.2v-0.3l0.6-0.6v-0.2l-0.4-0.4v-0.2l0.3-0.4v-0.1
	h-0.2l-0.1-0.5h-0.3l-0.1-0.3h-0.2v-0.2l0.2-0.2L37.9,86l0.3-0.3v-0.2l0.4-0.3l0.2-0.4h0.4l0.2-0.2l0.1-0.2l0.4-0.1l0.1,0.3l0.9,0.1
	l0.5-0.2l0.5-0.1l0.2,0.2l0.6,0.1l0.3-0.3l0.4-0.1l0.3,0.1v0.3l0.1,0.1l-0.1,0.2l-0.3,0.1v0.7l0.1,0.5l0.2,1.1l-0.2,0.8l-0.3,0.2V89
	l0.5,0.7l0.1-0.4l0.5,0.3l0.1,0.6l-0.1,0.3H45l0.2-0.2l0.2,0.4l0.3,0.1l0.4,0.5h0.4v0.2L46,91.8l0.3,0.2v0.2l-0.1,0.1v0.4l-0.2,0.1
	v0.9l0.2,0.1v0.7l0.4,0.3l-0.1,0.9h-0.1l-0.4,0.4l-0.3-0.2l-0.4,0.4l0.1,1l0.5,0.6V98l-0.3,0.5l-0.4,0.1L44.6,98.1z" disabled="disabled" style="pointer-events: none;"></path>
		<path name="XXXX" data-id="" id="path4231" class="cls-1" d="M47.1,80.4l-0.1,0.1l-0.6,0.1l-0.1,0.4l-0.2,0.1l-0.1,0.3l0.2,0.1l-0.1,0.2l-0.6,0.1l-0.6,0.8
	v0.2l-0.9,0.9L44,84.1l-0.3,0.2l-0.3-0.1L43,84.3l-0.3,0.3l-0.6-0.1l-0.2-0.2l-0.5,0.1l-0.5,0.2L40,84.5l-0.2-0.3l-0.4,0.1l-0.1,0.2
	l-0.2,0.2h-0.4l-0.2,0.4l-0.4,0.3L37,85.3l-0.5,0.4l-0.8,0.3l-0.5,0.6l-0.6,0.1l-0.5,0.5l0.3,0.7l-0.7-0.3h-0.4l-1-0.6h-0.3
	l-0.5,0.7l-0.9,0.3l-0.4,0.5l-0.6,0.4l-1.4,0.3l-0.8,0.4l-0.3,0.6L27,89.8l-0.2-0.1l-0.3,0.2h-0.3l-0.3-0.2L25.4,90L24,90.1
	l-0.5,0.3L23,89.8h-0.9l-0.4,0.4L21,90.5l-0.8,0.1L20,90.8l-0.5,0.3L18,91l-0.2-0.2l-0.6,0.3h-0.4l-0.6,0.1v-0.4l0.7-0.7l0.3-0.1
	l0.4-0.4l-0.1-0.9l0.7-0.9l0.5-0.1l0.4,0.2l0.5-0.3l0.1-0.5v-0.4l0.1-0.6l0.3-0.2l0.1-0.4l-0.4-0.5l-0.4-0.1v-0.2l0.2-0.3l0.1-0.4
	l0.4-0.4h0.2l0.3-0.3l0.1-0.4l0.8-0.5h0.5l1.2-0.6l0.2-0.2h0.6l0.3-0.2l0.1-0.4l0.8-1.2l0.3-0.5H26l0.2-0.5l-0.1-0.4h0.3l0.1-0.2
	l-0.2-0.5l0.4-0.6l1.3-0.3l0.2,0.1l0.4-0.6l-0.1-0.2l0.3-0.3l0.4-0.7l-0.1-0.9l0.2-0.2l-0.1-0.4v-0.7l0.3-0.3l0.2-0.3l-0.1-0.5
	l0.6-0.4V71h-0.4l-1.3-1.1l-0.2-0.4l-0.6-0.6h-0.2l-0.1-0.5L26.8,68l-0.2-0.5v-0.3l-0.2-0.3l0.3-0.4l0.4-0.1l0.5-0.6h0.2l0.1,0.4
	l0.3,0.1l0.3,0.2l0.2-0.1l0.2-0.3l-0.2-0.2l-0.1-0.4h-0.1l-0.1-0.3l-0.4,0.2l-0.1-0.3l0.1-0.2l0.1-0.5l0.9-0.5L30,63l0.1,0.1
	l-0.4,0.4v0.2l-0.5,0.6L29.1,65l0.2-0.1l0.2,0.1l0.2-0.2l0.4-0.1l0.1-0.3h0.2l0.2,0.3l0.2-0.2l0.3-0.1v0.5l0.3-0.1h0.3l0.1-0.3
	l-0.6-0.6l-0.4-0.1l-0.1-0.2l0.2-0.1l0.1-0.2l0.4-0.1l0.1-0.4l-0.6-0.1l-0.4,0.1l-0.3-0.1l0.6-0.5l0.6-0.1l0.4-0.1l0.2,0.1l0.1,0.9
	l0.4-0.2h0.2l0.1,0.7h0.3l0.2,0.3v0.2l0.4,0.1l0.1-0.1l0.2-0.1l0.1-0.5l-0.2-0.1l-0.1-0.3l-0.4-0.4l0.1-0.2l0.4-0.3v-0.5h0.3
	l0.3-0.4v-0.4L34,61.1l-0.5,0.2h-0.1l-0.8,0.3l-0.4,0.3l-0.1-0.1l0.2-0.1l0.2-0.2l0.9-0.4l1.2-1.1l0.7-1.1l0.8-0.7l0.9-0.9l1.7-0.9
	l0.8-0.5l0.7-0.1l0.1,0.4l0.1-0.2l-0.1-0.2l0.4-0.5l0.7-0.3l1.1-0.8l0.9-0.4l0.8-0.2l0.3-0.3h0.3l0.3-0.1l0.4,0.3v0.3l-0.2,0.4
	l0.3,0.6h0.5l0.2,0.3v0.3l0.7,0.5l1.3-0.1l0.3,0.2l0.5,0.2l0.4-0.3l0.6,0.4l0.8-0.2l0.2,0.2v0.5l0.4,0.6l0.3-0.2l0.6-0.1l0.1,0.3
	l0.4,0.3l0.4-0.1h0.6l0.3-0.3l0.2,0.2h0.6l0.4,0.3l0.1,0.4l0.5,0.2l0.2,0.4l0.1,0.6l0.7,0.3l0.3,0.3l0.6,0.2h0.4l0.6,0.4l0.7,0.4
	l0.1,0.5l0.2,0.2l0.1,0.5v0.6l0.4,0.7l0.1,0.5l0.4,0.6l0.1,0.9v1.1L61,67.1l0.6,0.8l-0.5,0.9l0.5,0.5v0.4l0.4,1.1v1.1l-0.8,0.5v0.3
	h-1.6l-0.4,2.1L59,75.1v0.2l-0.2,0.1l0.4,0.4L58.7,76l-0.2,0.6l-0.5-0.2h-1.1l-0.2-0.1L55.4,77h-0.9l-0.9,0.1l-1.3,0.6h-0.5
	l-0.7,0.6l-0.5,1.2l-0.7,0.4h-0.8L48.4,80l-0.6,0.3L47.1,80.4z" disabled="disabled" style="pointer-events: none;"></path>
		<path name="XXXX" data-id="" id="path5019" class="cls-1" d="M5.5,70.8l0.1,0.4l0.3,0.4l-0.2,0.9l-0.4,0.1l0.1,0.2l-0.1,0.1L5,73l0.3,0.3H4.8v0.2L5,73.9
	l-0.1,0.9l-0.3,0.1l-0.1,0.2l0.2,0.4l-0.3,0.3l-0.3-0.1L3.4,76l-0.2,0.4H2.9l-0.2,0.9l-0.6,0.3l-0.3,0.3l-0.4-0.2l-0.2,0.1v0.3H0.8
	v0.3L1,78.5l-0.2,0.2l0.2,0.2L1.3,79v0.4l0.4,0.2l-0.1,0.5l-0.4,0.3v0.5l-0.3,0.2l0.3,0.1l0.2,0.3l-0.4,0.2L1.4,82L1,82.5l0.3,0.2
	L1.1,83l0.6,0.1l-0.2,0.5l-0.8,0.7v0.4L1,84.9v0.3l-0.4,0.1v0.8l-0.4,0.8l0.6,0.4l0.8,1L1.4,89l0.4,0.4l-0.3,1.2L1.8,91v0.9l0.6,1
	l0.6,0.4l-0.1,0.4l0.2,0.3v0.6l0.5,1.2l0.5-0.4l1,0.1l0.8-0.4l0.8,0.2l0.8-0.2h1.3l0.7-0.6l0.9-0.2l0.7-0.4l0.7,0.3h0.3l0.2-0.2H13
	l0.9-0.8l0.5-1.3l0.3,0.1h0.8l0.4-0.5l0.2-0.3v-0.4l0.7-0.7l0.3-0.1l0.4-0.4l-0.1-0.9l0.7-0.9l0.5-0.1l0.4,0.2l0.5-0.3l0.1-0.5v-0.4
	l0.1-0.6l0.3-0.2l0.1-0.4L19.8,85l-0.4-0.1v-0.2l0.2-0.3l0.1-0.4l0.4-0.4h0.2l0.3-0.3l0.1-0.4l0.8-0.5h0.5l1.2-0.6l0.2-0.2h0.6
	l0.3-0.2l0.1-0.4l0.8-1.2l0.3-0.5H26l0.2-0.5l-0.1-0.4h0.3l0.1-0.2l-0.2-0.5l0.4-0.6l1.3-0.3l0.2,0.1l0.4-0.6L28.4,76l0.3-0.3
	l0.4-0.7l-0.1-0.9l0.2-0.2l-0.1-0.4v-0.7l0.3-0.3l0.2-0.3l-0.1-0.5l0.6-0.4V71h-0.4l-1.3-1.1l-0.2-0.4l-0.6-0.6h-0.2l-0.1-0.5
	L26.8,68l-0.2-0.5v-0.3l-0.2-0.4L25.7,67L25,67.5l-0.9,0.9h-0.4L23,69.3l-0.7,0.1l-1.1,0.5l-1.5,0.3l-1.2,0.4l-0.4,0.3l-0.3-0.2
	h-0.6l-0.7,0.3l-0.3-0.2h-1.6L13.9,71l-2.4-0.2l-0.2-0.2h-0.4L9.9,71l-0.6,0.2l-0.6,0.2L7,71.3l-1-0.3L5.5,70.8" disabled="disabled" style="pointer-events: none;"></path>
		<path name="Fonseca" scale="3.5" move="10" data-id="658" id="path5028" class="cls-1" d="M57.2,96.2l-0.4-0.6l-0.3-0.4L55.8,95l-0.5-0.6l-0.4-0.1L54.3,94l-0.2-0.4h-0.4l-0.2-0.2L53,93.2
	L52.5,93h-1.3l-0.2-0.3h-0.2l-0.4-0.4l-0.4-0.3L50,90.9l-0.4-0.6L49.2,90h-0.6l-0.3-0.4v-0.9l-0.1-0.2h-0.4l-0.5-1l-1.6-1.8
	l-0.9-0.9L44.1,84l0,0L44,84.1l-0.3,0.2v0.3l0.1,0.1L43.7,85l-0.3,0.1v0.7l0.1,0.5l0.2,1.1l-0.2,0.8l-0.3,0.2v0.4l0.5,0.7l0.1-0.4
	l0.5,0.3l0.1,0.6l-0.1,0.3h0.4l0.2-0.2l0.2,0.4l0.3,0.1l0.4,0.5h0.4v0.2l-0.5,0.2l0.3,0.2v0.2L46,92.1v0.4l-0.2,0.1v0.9l0.2,0.1v0.7
	l0.4,0.3l-0.1,0.9h-0.1l-0.4,0.4l-0.3-0.2l-0.4,0.4l0.1,1l0.5,0.6v0.1l-0.3,0.5l-0.4,0.1v0.2l0.8,0.9h0.5l2,0.6l0.3-1.4l0.4,0.2
	l0.1,4.1l0.3,0.3l0.7-0.1l0.7-0.6l0.9,0.2l1.2,1.2l0.1,0.6l0.4,0.4l0.1,1l0.4,0.3l0.3-0.4v-0.6l0.4-0.5l0.1-0.9l1-0.7l-0.2-0.9
	l0.4-0.8l-0.3-0.3l0.3-0.4l0.2-0.6l0.7-0.2l0.5,0.2l0.3-0.5l-0.1-0.7l0.2-0.2L57.3,98l0.5-0.5l0.1-0.8L57.2,96.2z" style="fill: rgb(210, 210, 230);"></path>
		<path name="XXXX" data-id="" id="path3510" class="cls-1" d="M45.7,118h-1.8v0.6h-1.2v0.5h-1.5v0.6h-1.1v0.5h-2.6v-5.9h-2.7l-0.1-0.8l-0.8-0.4l-1.7,2.7
	l-0.7-0.3l-0.6,0.1l-0.6,0.6h-0.4h-0.6l-0.3,0.2l0.2,0.5l-0.1,0.2l-0.5,0.2l-0.1,0.4l0.7-0.1l0.5,0.4l0.1,0.3l0.8,0.5l0.1,1.2
	l-0.2,0.9l0.2,0.6l0.3-0.1l2-1.3l0.4-0.1l0.4-0.2h0.9l0.6,0.5H36l0.5,0.6l0.5-0.1l0.3-0.3l0.9-0.1l0.1,0.4h0.7l0.4,0.3l0.9-0.1
	l0.5-0.7h0.3l0.1,0.1l1-0.8l0.3,0.4l0.7-0.7l1-0.4l0.5,0.1L45,119l0.2-0.6l0.4-0.2L45.7,118z" disabled="disabled" style="pointer-events: none;"></path>
		<path name="XXXX" data-id="" id="path3498" class="cls-1" d="M47,117.3l0.6-1.2l0.5-0.5l0.2-0.6l-0.6-0.1l-1.1-0.4h-0.5l-0.5,0.4l-0.7-0.1l-0.5-0.3l-1.5-0.2
	h-0.9l-1.4-0.7l-0.4-0.6l-0.2-0.3l-1.1-0.3l-0.3-0.2l-0.4-0.8v-0.4l-0.7,0.6h-0.7l-0.3-0.1l-1.4,0.1l-0.7,0.4l-0.5,0.5h-0.7v-0.3
	l-0.6,0.3l-0.1,0.6l-0.6,0.1l-0.1,0.3l-0.4,0.1l-0.2,0.5l-0.5-0.5l-0.2,0.3l0.1,0.5l-0.3,0.1l-0.1,0.3l-0.1,0.1l0.3,0.4l-0.2,0.3
	h-0.5l-0.2,0.3h-0.4l-0.1,0.1l0.1,0.3H30h0.4l0.6-0.6l0.6-0.1l0.6,0.3l1.7-2.7l0.8,0.4l0.1,0.8h2.7v5.9h2.6v-0.5h1.1V119h1.5v-0.5
	H44v-0.6h1.8L47,117.3z" disabled="disabled" style="pointer-events: none;"></path>
		<path name="XXXX" data-id="" id="path3431" class="cls-1" d="M68,81.1l0.4,0.2l0.3,0.4l-0.1,0.5l0.4,0.3l-0.6,0.3l-0.3,0.4l-1.4-1.5l-0.6-0.8h-0.2l-1.1-0.6
	l-0.1-0.3l-1.2-0.1l-1.3-0.6L62,78.8l0.2-0.6l-0.4,0.2l-0.5,0.8l-0.6-0.1l-0.1-0.2l-0.3,0.4L60,78.9l-3.1,3v0.7h-0.3l-0.1,0.2
	l-0.1,0.4h-0.2l-0.3,0.4H56l0.2,0.6h-0.4l-0.2,0.4l-0.2-0.2h-0.1l-0.1,0.2l-0.4,0.2l-0.1,0.3l-0.2-0.2v-0.3L54,84.3l-0.5,0.2
	l-0.1,0.2L53,84.4L52.8,84h-0.6l-0.8-1h-0.4l-0.4-0.6l-0.9-0.1L49,82l-0.9-0.1L48,81.1l-0.2-0.6l0.6-0.3l0.7-0.1h0.8l0.7-0.4
	l0.5-1.2l0.7-0.6h0.5l1.3-0.6l0.9-0.1h0.9l1.2-0.7l0.2,0.1h1.1l0.5,0.2l0.2,0.4l0.4,0.3l0.4,0.2v0.6l0.4,0.4l0.3-0.1l0.1,0.1H61
	l0.2-0.4l0.4-0.1l0.5-0.3l0.6-0.4l0.2,0.1L62.5,78l-0.1,1l0.6,0.5l1,0.2l0.8-0.1l0.5,0.2l0.4,0.5l0.7,0.1l0.6-0.1l0.6,0.1l0.5,0.4
	l0.5,0.1L68,81.1z" disabled="disabled" style="pointer-events: none;"></path>
		<path name="XXXX" data-id="" id="path3422" class="cls-1" d="M68.4,80.8l0.5-0.8l2.1-1.6l-1.6,0l-0.5-0.7h-0.3l-0.8,0.5l-0.3-0.5l-0.9-0.4l-0.4-0.8H68
	l0.5,0.2H69l1,0.2l0.3,0.2h1.4l0.1-0.6l0.3-0.1l0.4,0.2h0.7l0.4-0.2V76l-0.3-0.5l-0.1-1.4L73,73.5l-0.2-1.4l-0.7-0.4l-0.3-2.1
	L71.3,69l-0.1-0.6h-0.6l-1.9-1.1l-0.1-0.8l-0.3-0.7l-0.8-0.4l-0.2-1L67,64.1v-0.7L66.6,63v-0.2l0.2-0.2l-0.1-0.6l-1,0.6l-1.5,0.3
	l-0.2,0.7l-0.8,0.4v0.2l1,0.1l-0.3,0.3v0.8l-0.2,0.6l-1.7,1.5l-0.4-0.2l-0.3,0.2l0.6,0.8l-0.5,0.9l0.5,0.5V70l0.4,1.1v1.1l-0.8,0.5
	v0.3h-1.6L59.4,75l-0.3,0.2v0.2L59,75.5l0.4,0.4l-0.5,0.2l-0.3,0.6l0.2,0.4l0.4,0.3l0.4,0.2v0.6l0.4,0.4l0.3-0.1l0.1,0.1h0.7
	l0.2-0.4l0.4-0.1l0.5-0.3l0.6-0.4l0.2,0.1l-0.5,0.4l-0.1,1l0.6,0.5l1,0.2l0.8-0.1l0.5,0.2l0.4,0.5l0.7,0.1l0.6-0.1l0.6,0.1l0.5,0.4
	l0.5,0.1L68.4,80.8z" disabled="disabled" style="pointer-events: none;"></path>
		<path name="XXXX" data-id="" id="path4217" class="cls-1" d="M76.2,37.6l0.1,0.4l0.5,0.4l0.1,0.8l0.3,0.3v0.3v0.3l0.3,0.4l-0.4,0.6h-0.3l-0.4,0.2l0.1,0.4
	l0.2,0.2V42l-0.1,0.1v0.3l-0.3,0.3v0.6l-0.3,0.3l-0.3-0.1v0.3l-0.3,0.2l-0.3,0.9l-0.2,0.3l0.2,0.3v0.1v0.3l0.3,0.2l0.1,0.3l-0.2,0.3
	l-0.5,0.1L75,46.9l0.1,0.1l-0.3,0.2v1.3l0.4,0.4v0.3l0.7,0.4h0.4l0.9,0.4l0.4,0.5l0.7,0.7v1.9l0.5,0.2l0.4-0.1l0.6,0.1l0.3,0.3
	l0.9,0.8l0.9,0.4l-0.3,0.4L80.6,55l-0.8,0.2l-0.3,0.4L78.6,55l-1.2-0.2l-1,0.4l-0.7-0.2l-0.8,1.2h-0.7l-1,0.7l-1.7,0.6l-0.7,0.3
	l-0.7,0.5l-0.9,0.1L68,59.1L67.5,59l-0.4,0.2l-1,0.4L63.5,59L63,58.8l-1,0.5l-0.8,1.3l-0.7-0.2l-1.3,0.4l-0.6-0.5h-0.4l-0.6-0.2
	l-0.3-0.3l-0.7-0.3l-0.1-0.6l-0.2-0.4l-0.5-0.2l-0.1-0.4l-0.4-0.3h-0.6l-0.2-0.2l-0.3,0.3h-0.6l-0.4,0.1l-0.4-0.3l-0.1-0.3L52,57.3
	l-0.3,0.2l-0.4-0.6v-0.5l-0.2-0.2l-0.8,0.2l-0.6-0.4l-0.4,0.3l-0.5-0.2l-0.4-0.1L47.2,56l-0.7-0.5v-0.3l-0.2-0.3h-0.5l-0.3-0.6
	l0.2-0.4v-0.4l-0.4-0.3l0.4-0.3l0.4-0.6h0.1l0.3,0.5l0.2-0.2l0.5-0.1l0.7-0.6l0.2-0.1v-0.1l-0.4-0.1v-0.3l-0.2-0.1l-0.6,0.3
	l-0.8,0.8H46l0.3-0.4l1.4-1.4l0.3-0.2l0.3-0.9l0.6-0.6l0.9-0.4l1-0.7l0.1,0.1l0.2,0.1l-0.1-0.3l0.4-0.4l0.6-0.6l0.4-0.4l0.6-0.1
	l0.8-0.6l0.8-0.2l0.5-0.3l1.7-0.2l1.7-0.8l0.8-0.1l0.7,0.1l0.3-0.2l0.7-0.3l0.9-1l1.1-0.1l0.5,0.2l0.1,0.1l0.1-0.2l1.1-0.4l0.5-0.4
	v-0.3l0.8-0.7l1.1-0.2l0.5,0.3l0.3-0.2h1.5l1.3-0.2l0.7-0.4l1.3-0.3l0.5-0.4l1.1-1l0.6-0.3l0.7-0.4l0.5-0.1L76.2,37.6z" disabled="disabled" style="pointer-events: none;"></path>
		<path name="Villanueva" scale="4.4" move="15" data-id="666" id="path4232" class="cls-1" d="M48.4,113.1l-0.1,1.2v0.7l-0.6-0.1l-1.1-0.4h-0.5l-0.5,0.4l-0.7-0.1l-0.5-0.3l-1.5-0.2h-0.9
	l-1.4-0.7l-0.5-0.9l-1.1-0.3l-0.3-0.3l-0.4-0.8l-0.1-0.4l-0.7,0.6H37l-0.3-0.1l-1.4,0.1l-0.7,0.4l-0.5,0.5h-0.7v-0.3l-0.5-0.5
	l0.1-0.6l0.9-0.6l-0.1-0.5l0.2-0.1l0.2-0.4l-0.2-0.7v-0.9l0.7-0.5l0.3,0.1l0.4-0.6l0.5-0.3l0.4-0.1l0.7-0.6l0.3-0.1l0.2-0.3h0.3
	l0.2-0.1l0.5,0.1h0.3l0.1,0.1l0.3-0.1l0.1-0.1l0.2-0.1l0.1-0.1l0.2,0.1l-0.1,0.3l-0.1,0.1v0.3l0.3,0.1l0.5,0.5l0.3,0.1l0.2,0.4h0.3
	l0.3,0.2v0.5l-0.1,0.1l0.1,0.1v0.2l0.4,0.3l0.5,0.1l0.1,0.1v0.1l0.6,0.2l0.6,0.1h0.2l0.1,0.2l0.4,0.4l0.4,0.1l0.1,0.2v0.3l0.4,0.1
	l0.1,0.3l0.7,0.7l0.1,0.3l0.6,0.3l0.2-0.1l0.4,0.1v0.1l0.1,0.5l0.3,0.2l0.4-0.1L48.4,113.1" style="fill: rgb(210, 210, 230);"></path>
		<path name="XXXX" data-id="" id="path4234" class="cls-1" d="M89,54.6h-0.9l-0.3-0.1l-0.9,0.4h-1l-0.3-0.1l-0.5,0.2h-1.5L83.3,55L83,54.6l-0.7,0.2h-0.6
	l-0.3,0.4L80.5,55l-0.8,0.2l-0.3,0.4L78.4,55l-1.2-0.2l-1,0.4l-0.7-0.2l-0.8,1.2H74L73,57l-1.7,0.6l-0.7,0.3l-0.7,0.5L69,58.5
	l-1.1,0.6L67.4,59L67,59.2l-1,0.4l-2.6-0.6l-0.5-0.2l-1,0.5l-0.8,1.3l-0.7-0.2l-1.2,0.4l0.7,0.4l0.1,0.5l0.2,0.2l0.1,0.5v0.6
	l0.4,0.7l0.1,0.5l0.4,0.6l0.1,0.9v1.1l0.4,0.2l1.7-1.5l0.2-0.6v-0.8L64,64l-1-0.1v-0.2l0.8-0.4l0.2-0.7l1.5-0.3l1-0.6l0.1,0.6
	l-0.2,0.2v0.2l0.4,0.4v0.7l0.5,0.4l0.2,1l0.8,0.4l0.3,0.7l0.1,0.8l1.9,1.1H71l0.1,0.6l0.5,0.6l0.3,2.1l0.7,0.4l0.2,1.4l0.2,0.7
	l0.1,1.4l0.3,0.5v0.2l-0.4,0.2h-0.6L72,76.1l-0.3,0.1l-0.1,0.6h-1.4l-0.3-0.2l-1-0.2h-0.5l-0.5-0.2h-1.8l0.4,0.8l0.9,0.4l0.3,0.5
	l0.8-0.5h0.3l0.5,0.7l1.7,0.1l0.3,0.6l0.4,0.1l0.5-0.4l1.1-0.2l0.6-0.4h0.3l1.1-0.3l0.8-0.3l0.6-0.6l0.7,0.2l0.3,0.3l0.9-0.1
	l0.3,0.1h1l1.2,0.3l1,0.1l0.2-0.2l0.4,0.1l15.8-29.9L98,47.2l-0.1-0.1v-0.5l0.2-0.1v-0.3l-0.4-0.2L97.2,46L97,45.7l0.2-0.2v-0.2H97
	l-0.1-0.1l0.2-0.2v-0.2l-0.9,0.1L95.5,45l-1.1,1.6L89,54.6z" disabled="disabled" style="pointer-events: none;"></path>



</svg></svg>
