<svg id="Capa_1" data-name="Capa 1" xmlns="http://www.w3.org/2000/svg" viewBox="0 0 122.85 129.02">
   <defs>
      <style>.cls-1{fill: #ebebef;;stroke:#fff;stroke-miterlimit:3.86;stroke-width:0.25px;}</style>
   </defs>
   <path name="Campoalegre" data-id="623" scale="4" move="10" id="path5003" class="cls-1" d="M192.2,219l-.15.33,0,.25.1.26-.2.25-.16-.23-.42.29v.28l-.42.25-.54,0-.1.37.12.43-.78,0,0,.22v.24l-1,.13-.5.61v.37l-.44.24-.54,0,0,.25.18.14-.22.18-.6.06-.56.68,0,.3-.58.29-.34.43.26.22-.16.33h-.3l-.86.45,0,.39-.2-.11-1.14,0-.06.15.22.41-.58.28-.15.61h-.28l.1.37-.34.35-.63.1-.23.08-.18-.12v-.67l-.18-.13.16-.3-.18-.51.22-.13v-.36l-.36-.31-.3,0,0-.47-1.48-2-.68-1,0-1.06.3-.33,0-.28-.26-.7-.28-.22.14-.69.24-.43v-.88l-.14-.51v-.25l-.05-.37-.31-.1.36-.25.13.08.46-.14v-.3l.32-.12,0-.16-.35-.14,0-.24.62.14.29-.17L179,216l.49-.24V216l.16.23.08.43.18.13,0-.25.4,0,.47-.59-.25-.16v-.21l.5-.48.23.09.2-.24-.13-.26.36-.35.2.16.8-.22.57-.53.37.18-.06.29-.22.18,0,.56.28.38-.18.21.38.38,0,.41.34.08.44-.49.42,0,.18.21.64-.33.62-.08.88.43.22-.21.32.17,0,.3.6.84.3,0,0,.33,1.3,1-.38.65.28.12.38-.22.66,0,.4-.39.38-.12Z" transform="translate(-111.66 -154.35)" style="fill: rgb(210, 210, 230);"></path>
   <path name="Agrado" data-id="618" scale="5.6" move="10" id="path5018-1" class="cls-1" d="M166.17,239.09l-.19.21h-.22v.21l.16.12,0,.18.09,0,.1.56-.07.65-.22.17.11.39h.22l.06-.09.11.28-.24.19-.13,0-.44.43-.13,0,0,.33.26.12.18-.18.1.11-.23.33-.27.12,0,.63.19.12-.08.61h.22l-.13.3-.11-.06-.48.28-.08.43-.36-.07-.05-.17-.24.28.11.25-.46.21.24.39.53.05c.06,0,.13.18.19.18s.12.06.2.08,0,.14,0,.14l-.16,0-.34.5-.24-.08-.22.21,0,.25-.63.25-.11-.07-.21.14,0,.16-.39.11-1,0-.09-.13h-.08l0-.29-.53-.68-.22.2-.52-.06-.52-.26.1-.44-.44-.51,0-.33-.24-.27,0-.32.41.06.2-.18.25,0,.17.35.16,0,.07-.28.51,0,.21-.22,0-.33-.83-.21-.71.09-.56.41-.51-.35-.17-.61.17-.23-.3-.6V243l.25-.13.09-1-.22-.45-.56-.53,0-.62.5-.22.09-.26-.26-.26.21-.22-.2-.17v-.26l.18-.36-.21-.52.34-.4.51,0c.09,0,.43.43.43.43l.4-.43h.34l.15.22h.49l.21.1.2-.21.33.07.78.79.31.15.43.82.59-.2.24.39.21-.18,0-.23-.22-.34.15-.39.73-.42.18.19,0,.37.4.12.24.33.32-.23.2.17Z" transform="translate(-111.66 -154.35)" style="fill: rgb(210, 210, 230);"></path>
   <path name="Pital" data-id="639" scale="6" move="10" id="path5022" class="cls-1" d="M161.73,248.33h0l-.17.26-.39.09-.24.24-.28,0,0,0-.06-.24-.42,0,.06-.33-.5-.37,0-.34-.5-.21-.48.15-.48-.6-1.12,0-.72.37-.58-.33.06-.24-.52-.53-.48-.1-.46.24-1-.65-.74.45,0,.26-.48.43-.52.16-.06-.2-.36-.23-.46-.42.16-.35.38,0,.06-.37.54,0-.24-.53s.52-.28.6-.3,0-.64,0-.64l.28-.12,0-.36,0-.41-.16-.13-.56.31-.3-.27v-.61l.54-.47,0-.57-.42-.16v-.43l.44-.35h.34l.1.31.2,0,.22-.1.16.24.4-.08-.06-.22.32-.43.76-.33.24,0,.22-.18-.06-.29.22-.06.24-.22-.1-.21.12-.32.28,0,.2-.21.12-.21.39.11.65.46-.11.66.49.09.08.29.48-.25.16,0,.27.26-.09.26-.5.22,0,.62.56.53.22.45-.09,1-.25.13v.32l.3.6-.17.23.17.61.51.35.56-.41.71-.09.83.21,0,.33-.21.22-.51,0-.07.27-.16,0-.17-.35-.25,0-.2.18-.41-.06,0,.32.24.27,0,.33.44.51-.1.44.52.26.52.06.22-.2.53.68,0,.29Z" transform="translate(-111.66 -154.35)" style="fill: rgb(210, 210, 230);"></path>
   <path name="Tesalia" data-id="647" scale="4.3" move="10" id="path5025-6" class="cls-1" d="M171.3,229l0,.06-.11.07.15.29.36.23-.1.13-.48-.12-.15-.27-.21.06s-.21.66-.25.73-.17,0-.17,0l0,.36.39.41-.14.5-.12-.1-.21.47h-.34l-.21.24.1.33-.26.11-.49-.34,0-.15-.43.14-.1.16.2.15-.2.3L168,233l-.26.46-.5.06-.19-.2-.5.28-.07.35-.3-.09,0-.25-.21.05-.2-.16.2-.22.24,0,.24-.24-.37-.23-.69.68-.42-.08.11-.28.28-.06-.11-.39h-.42l-.1.18-.46-.06v-.12l.36-.25-.2-.48-.29,0-.1.16-.19,0-.29-.27,0-.12-.49.13-.08.3-.66.29-.23-.11-.08.2.27.16-.31.22-.57-.31v-.24l-.19,0-.16.29-.34-.09-.12-.35h-.27l.14.13v.18l-.25-.08-.29,0-.08-.22-.32,0-.33.15-.83-.31-.5-.83.45-.3.1-.41.38.05v-.39l.38-.59,0-.39.28-.08,0-.51-.1-.29.1-.24-.08-.15-.12,0h-.22l-.26-.49,0-1.1.58-.53.18-.69.36-.23.06.15.86,0,.2-.13-.12-.26.06-.41-.66-.55h-.2l-.52-.33.16-.24-.12-.47.34-.1.22-.49.26-.21.14,0,.22-.1,0-.63.2-.31.4-.16.48.32,0,.54-.16.07.19.95.52.1.67.49.73-.65h.33l.89-.7.44.11.17.43.38.05.08.14-.2.13.05.45-.17.17,0,.25.19.08-.19.31.09.13h-.13l.1.58-.24.24v.42l.46.61v.63l.36.19-.05.43-.19.16-.12.25.24.2.87,0v.13l.24-.2.53.06,0,.14.48.05.1-.24.42,0,.36-.45.84.3.48.35,0,.61.67.51Z" transform="translate(-111.66 -154.35)" style="fill: rgb(210, 210, 230);"></path>
   <path name="Altamira" data-id="621" scale="6" move="10" id="path5030-8" class="cls-1" d="M160.39,249.28l.23-.41.28,0,.24-.24.39-.09.17-.26h.11l.09.13,1,0,.39-.11,0-.16.21-.14.1.06.25.34.05.14-.19.16,0,.31.16.14,0-.16h.54l.16.3-.13.16.34.32.11.21-.47.32v.25l-.24.23h-.25l-.49.49-.33,0-.26.18.11.11,0,.58-.37.3.11.35-.18.34,0,.61-.78.74-.2,0-.45.36,0,.25-.4.17-.27,1-.32-.16-.48.66h-.33l-.14-.45-.31.16-.14.78-.37.41-.08.43-.24.33-.29.28-.48-.32-.73-.22-.31.11-.33-.38,0-.92-.16-.08.06-.24-.46-.51-.4,0-.5-.57,0-.21h-.47v-.08l.42-.63-.08-.34.08-.51.42-.82.48-.22.54-.19.38-.39h.26l.43-.17.12-.19-.19-.29.45-.37.55-.12.45-.34.26,0,.37.12.27.36-.18.28.25.45.26.07.19-.2.57,0,.16-.44.24-.13.14-.3-.13-.3-.14-.65.13-.45-.21-.36Z" transform="translate(-111.66 -154.35)" style="fill: rgb(210, 210, 230);"></path>
   <path name="XXXX" id="path5032-2" class="cls-1" d="M171.9,227.84l.08-.17.23,0,.21-.19.05-.36.23-.16V227H173l.21-.29.29-.12.09.1.35-.26-.09-.24.16-.86.3-.45.33.07.26-.19.33-.41L175,224l.12-.79.18,0,.43-.12.25-.48-.11-.28.25-.43.28,0,.52-.16.07-.31h-.4l-.14-.41.24-.19.35-.14v-.29l-.21-.12.28-.31.37,0,.24-.42v-.88l-.14-.51v-.25l-.05-.37-.31-.1.36-.25.13.08.46-.14v-.28l-.35-.06-.1-.48-.25-.07-.08-.2.28-.15.18-.53-.31-.65,0-.28-.22.09-.14-.14-.46,0-.49.33.08.2-.27.18L176,215l-.82.2-.25.19-.36-.38-.31,0-.15.33-.62.31v.18l-1,.7-.1.22-.2.14-.6.88-.08.72-.6.49-.14.47.14.2-.06.1-.68,0-.12-.12h-.84l.07.44-.14.09-.07.44-.23.18.35.83.07.88.16.28-.33.07.12,1-.31.16.08.62.3.23,0,.47-.21.14.11.46.17.2-.23.49.39.34-.14.27.84.3.48.35,0,.61.68.51v.05l.19-1,.39-.26Z" transform="translate(-111.66 -154.35)" disabled="disabled" style="pointer-events: none;"></path>
   <path name="Timana" data-id="650" id="path5036-5" class="cls-1" d="M148.54,266.29l.73-.08.25-.72.16-.06.42-.73h.46l.16-.21-.4-.16,0-.59.24.24.24-.14.12-.22.38,0,.18-.23h.22l.46-.47,0-.26.54-.43,0-.51.32-.41.78-.06,0-.39.24-.12H154l.68-.65.46,0,.14.14.24-.12-.46-.74.44-.3-.1-.21.24-.51.47-.12-.33-.37,0-.91-.16-.09.06-.24-.46-.51-.4,0-.5-.57,0-.21h-.47l0,.4.1.23-.22.34-.44,0-.32.37,0,.37-.5.12-.06.39-.86.22-.76.68-.08.28-.4-.1v-.31l-.46-.16-.44.12-.26.35-.18.08-.3-.2-.16.28-.26.19-.28.3,0,.8-.26,0-.24.28h-.3l.06.4v.15l-.22.18v.69l.16.21-.06.16-.2.06-.16.33.08.45-.24.1-.08.37.42.59,0,.3.22,0,.2-.09.36.51,0,.39-.36.14.12.19.24,0,.12.39.48.32.22-.12Z" transform="translate(-111.66 -154.35)" style="fill: rgb(210, 210, 230);"></path>
   <path name="Elías" data-id="625" id="path5038-5" class="cls-1" d="M144.84,259.37l.07-.23.61-.22,1.38-1.4.45-.22.5-.51.26-1,.31-.58.47,0,.46.25.28.38h.26l.22.29.3.08.31-.27.26-.1.38.27.22-.39.19-.05.23.1.05.36.33-.29-.16-.21.14-.08.31.15.19-.29.31.12.72-.22,0,.48.1.23-.22.34-.44,0-.32.37,0,.37-.5.12-.06.39-.86.22-.76.68-.08.28-.4-.1v-.31l-.46-.16-.44.12-.26.35-.18.08-.3-.2-.16.28-.26.19-.28.3,0,.8-.26,0-.24.28h-.3l-.1-.18-.4-.06-.1.16-.58,0-.16.17-.42-.23-.34-.67v-.25l-.3-.08Z" transform="translate(-111.66 -154.35)" style="fill: rgb(210, 210, 230);"></path>
   <path name="Oporapa" data-id="626353" id="path5044-9" class="cls-1" d="M146.28,251.63l-.33.12-.41.6-.31,0-.68.49-.83,0-.26-.17-.08.24h-.21l0-.21-.63.08-.21-.18-.54,0-.17-.11-.27,0-.41.37-.35,0-.48-.88.11-.41-.19-.39-.83-.44-.49.13,0,.32-.31,0-.19.18.46.23.19.36.32.09.21-.16.26.16,0,.23.79.76,0,.85.12.06-.12.32-.24.08-.13.86.5.47v.39l-.23.07.37.51.35,0,.34.44.28.09.53-.26-.1-.19.51-.24h.36l1,.92h.77l.24.24.84,0,.22.3h.45l.48-.49.45-.22.5-.51.26-1,.31-.61-1-.89.58-.54v-.37l.3-.31v-.17H148l-.12-.57.19-.2L148,252l-.46.1-.22-.33-.37-.1-.17.11-.42-.11" transform="translate(-111.66 -154.35)" style="fill: rgb(210, 210, 230);"></path>
   <path name="La Argentina" data-id="632" scale="3.5" move="10" id="path5058-3" class="cls-1" d="M151.26,246.52a8.48,8.48,0,0,1-.72.53c-.08,0-.12.32-.12.32h-.34l-.14.37-1.16.33-.26.26-.62.31-.14.83.26.31-.08.39-.38.1-.12.35-.82.41-.33.59-.34.13-.41.6-.31,0-.68.49-.83,0-.26-.17-.08.24h-.21l0-.21-.63.08-.21-.18-.54,0-.17-.11-.27,0-.41.37-.35,0-.48-.88.11-.41-.19-.39-.83-.44-.49.13,0,.32-.31,0-.2.19v.46h-.24l-.55.26-.6-.13-.09-1.35-1.06-1.23L132,247.92h-.38l-.55-.41-.33-.36-.95-.76-.27,0-.17.11h-.28v-.19l.1-.2-.1-.22-.47-.1-.12-.5-.26-.26-.2,0-.6-.52.05-.65-.49-.78.23-1.2.48-.18.31,0-.12.93.16.36.3-.22.16,0,.18.16.42-.06.32.21.28.53h.48l.74.22.86.67.68.09.84.32.68.49.44.13,1.12.87.42.55,0,.51.3.21.38,1.26.84.64,1-.09.12-.38.5-.66.16,0,.44-.59H140l.14.35.66-.08.22-.21.56-.08-.06-.24.3-.21.22,0,.4-.24.52.18.08-.12,1.16-.08.26-.17.54.09,0,.16.46.18.16-.2.9-.63.28.14.1-.27.26-.22V246l.32-.85.24-.13,0-.51.36.09.3.53-.18.12,0,.43.38.3.38-.3,0-.45.38-.41.34-.16.12-.27.58-.43.78-.16.18-.18.14,0,.12.12h.2l.18-.21.58,0,0,.36-.28.12s.06.62,0,.64-.6.3-.6.3l.24.53-.54,0-.06.37-.38,0-.16.35Z" transform="translate(-111.66 -154.35)" style="fill: rgb(210, 210, 230);"></path>
   <path name="XXXX" id="path5071-9" class="cls-1" d="M161.19,248.77" transform="translate(-111.66 -154.35)" disabled="disabled" style="pointer-events: none;"></path>
   <path name="Tarqui" data-id="646" scale="5.5" move="10" id="path5073-6" class="cls-1" d="M160.6,248.9l-.21.38.2.36-.13.45.14.65.13.3-.14.3-.24.13-.16.44-.56,0-.2.2-.26-.07-.25-.45.18-.28-.27-.36-.37-.12-.26,0-.45.34-.55.12-.45.37.19.29-.12.19-.43.17h-.26l-.38.39-.54.19-.48.22-.42.82-.08.51.08.34-.42.63-.72.22-.31-.12-.19.29-.31-.15-.14.08.16.21-.33.29-.05-.36-.23-.1-.19.05-.22.39-.38-.27-.26.1-.31.27-.3-.08-.22-.29h-.26l-.28-.38-.46-.25-.47,0-1-.89.58-.54v-.37l.3-.31v-.17H148l-.12-.57.19-.2L148,252l-.46.1-.22-.33-.37-.1-.17.11-.43-.11.32-.59.82-.41.12-.35.38-.1.08-.39-.26-.31.14-.83.62-.31.26-.26,1.16-.33.14-.37h.34s0-.3.12-.32.7-.53.72-.53l.36.22.06.2.52-.16.48-.43,0-.26.74-.45,1,.65.46-.24.48.1.52.53-.06.24.58.33.72-.37,1.12,0,.48.59.48-.14.5.21,0,.34.5.37-.06.33.42,0,.06.24Z" transform="translate(-111.66 -154.35)" style="fill: rgb(210, 210, 230);"></path>
   <path name="Hobo" data-id="629" scale="4.9" move="10" id="path5075" class="cls-1" d="M171.9,227.84l.08-.17.23,0,.21-.19.05-.36.23-.16V227H173l.21-.29.29-.12.09.1.35-.26-.09-.24.16-.86.3-.45.33.07.26-.19.33-.41L175,224l.12-.79.18,0,.43-.12.25-.48-.11-.28.25-.43.28,0,.52-.16.07-.31h-.4l-.14-.41.24-.19.35-.14v-.29l-.21-.12.28-.31.37,0-.14.7.28.22.26.7,0,.28-.3.33,0,1.06.68,1,1.48,2,0,.47.3,0,.36.31v.36l-.22.13.18.51-.16.3.18.13v.67l.18.12.23-.08v.27l-.26.12v.26l-.4.82-.34,0,.1.29-.6.42L179,232l.06.62-.54.18-.38-.1H178l-.47-.37.16-.49-.3-.41-.42.19-.16-.37-.74-.1-.14.22-.38-.28-.32.12-.1-.23-.8,0-.12-.34.08-.23L174,230l.12-.11-.2-.45h-.5l-.08-.38H173l-.24.24-.24-.37.16-.36-.32-.57-.46-.15Z" transform="translate(-111.66 -154.35)" style="fill: rgb(210, 210, 230);"></path>
   <path name="Palermo" data-id="637" scale="3.3" move="10" id="path5007-7" class="cls-1" d="M172.76,199.42l-.42-.11-.09-.26.26-.15.05-.3-.43-.35-.45.21-.14-.16,0-1.07.27-.14,0-.32-.28-.26-.27.07-.05-.22.17-.15-.33-.08-.17-.31-.69-.07-.59.47-.55.6-.16.21-1.12.07-.15.26-.22.12.07.62.08.16v.45l-.18.37-.05,1.19.77.84.44.1.3-.14.62.5.08.7.32.12-.18.56.52.26.64-.41.36.27.26-.21.54.31.3-.14.3.28.82.27.48-.27.08.21.22.08v.18l.16.39-.14.31-.38.18-.28.57-.52.41-.34,1.2-.5.41v.47l-.74.84-.86-.19-.18-.28-.66,0-.22-.23-.3,0L169,208l-.6,0-.36.3-.26,0-.1.27-.42.35.08,1.43.58-.17.68.19.11.24.24,0,.2-.18.38.42h.34l.61.53v.38l.82-.4.75.24.14.49.42-.23h.4l-.14.84.29,0v.35l.41,0,.53-.49.34.13,0,.76.29.29-.27.26-.23.92.31,0,.36.38.25-.19.82-.2.11.16.27-.18-.08-.2.49-.33.46,0,.14.14.22-.09,0,.28.31.65-.18.53-.28.15.08.2.25.07.1.48.35.06.33-.14,0-.16-.35-.14,0-.24.62.14.29-.17L179,216l.49-.24V216l.16.23.08.43.18.13,0-.25.4,0,.47-.59-.25-.16v-.21l.5-.48.23.09.2-.24-.13-.26.36-.35.2.16.8-.22.57-.53,0-.27-.23-.1-.07-.28h.26l.46-.51.07-.3.65-.86-.05-.44.17-.43.55-.13.14-.28-.16-.58.62-.38.16-1.08-.27-.42,0-.49-.19-.09v-.18l-.41,0,0-.24.24-.06.06-.27-.49-.34.08-.21.37.08v-.13l-.34-.24.16-.4-.13-.18-.23-.14-.15-.43.51-.53,0-.16h-.7l0-.43-.28-.75v-.31l-.3-.16-.5-1.23.2-.45-.06-.22-.2,0-.24-.16v-.35l-.71-.37-.32.14-.7-.12-.26.18-.48-.46-.88.1.16-.47-.12-.14.22-.19-.06-.61-.64-.2,0-.37-.74-.19v-.59l-.18,0-.12.25v.38l-.42.82.16.88-.22.59-.7.39V200l-.42.3-.16.33-.4,0-.24-.29-.48-.1-.28.21h-.4l.42-.39-.12-.17-.46,0-.26-.34-.32.22-.48-.28Z" transform="translate(-111.66 -154.35)" style="fill: rgb(210, 210, 230);"></path>
   <path name="Colombia" data-id="624" scale="3.5" move="10" id="path7529" class="cls-1" d="M207,185.53l.71-.88.27,0,.67-.71-.06-.35.22-.45.18.16.35-.06.61-.56.32,0,.08-.37-.2-.21.39-.61.24-.06.61-.75-.08-.47.46-.44.21,0,.14-.25-.16-.08,0-.35.22-.17.14-.29.45-.18.06.06.69-.58h.24l.37-.42.08-.29.43,0,.46-.37-.12-.17.16-.12v-.31l-.2-.06v-.36l-.39-.08-.2-.45-.32-.19-.08-.35.18-.11-.16-.35-.09-.41.19-.17-.06-.72.44-.34,0-.35.39-.33.61-.06.16.25.3,0,.21-.37.14,0,.31-.33,0-.44.38-.3-.09-.31.14-.1,0-.21-.42-.08-.07-.27.15-.12-.17-.42-.26-.21,0-.45.69-.39.16-.36,0-.24.49-.4.32.31.21-.2.32,0,.14-.18-.14-.23.12-.29.1-.39-.18-.15.16-.33.19.14.31-.48,0-.34.67-.55,0-.43.16-.13.17.17.57-.31v-.27l.32-.27.16.15.66-.25,1-.92.78-.76.56-.21.49-.54.08-.42.53-.58.94-.66.23-.44,0-.44.24-.55.34-.17-.07-.65.34-.59.43-.45-.21-.21.12-.33v-.27l.27,0-.05-.42.42.05.11.24.27.08h.24l.37.2v.33l.34.28.37,0,0,.16.41.07.24-.12v-.17l.34-.11.07.11.59.06,0,.16H232l.09-.16.16,0,.09.35.1.12.06.69-.14.18-.52,1.16-.14.13-.05.39,0,.43.2.23-.05.3-.16,0-.14.41.11.21.48.53h.28l.35,0,.25-.27.14-.06h.23l.26-.24,0-.19.22-.09.22.31,0,.3.31.33,0,.21-.3.14-.31.64-.35.05-.23,0-.34.22.21.11-.16.37-.22.11-.26.19h-.18l-.31.58-.19.73-.42.2h-.46l-.18-.2-.39,0v.33l-.41.63-.62.27-.27,1-.28.85v.43l.1.13,0,.1-.39.14-.28.38v.6l.15.1-.8,1.19-.51.45-1,1.58-.11,0-.18-.27-.42.23-.2-.08-.11-.36-.25.06-.14.28,0,.19-.24.3h-.33l-.18.18.12.28-.33.47-.16.06-.21.59-.31.09-.07.29-.5.46.05.32.83.4v.43l.18.1,0,.46-.13.47-.17.07-.08.08.33.28,0,.37.11.2.31,0,.12.18-.2,0V179l-1,.71-.1.43.26.42-.11.23-.47.12-.38.13-.11.23.57.4.21.52.08.06-.05.3.16.1v.23l.35.3.13.67-.39.81-.15.15-.07.33.46.29.11.26-.31,0-.29.2-.34.14-.16.16v.27l-.33.23-.48.74.13.26-.28,0-.15-.1-.22.35,0,.17-.38.24-.33.46.28.17-.14.19-.21-.06-.45.26,0,.3.13.12-.11.22-.27.15.17.12v.19l.28.23-.22.31-.25-.09-.43.63.15.18-.73.46-.16,0-.81.67-.42.74-.14,0-.09.48.17.27-.34.23,0,.36.2.25-.32.56-.79.43-.59-.19-.18.19.1.18-.38.29-.26.53-.75.4.13.5.15.24-.28.29h-.49l-1,.34-.1.26-.7-.12-.34-.35-.71-.12-.32-.27-.48-1.2-.4-.14-.72.38-.54-.28h-.26l-.34.1-.3-.33,0-.32.38-.08.34-1,.38-.19-.28-.22.2-.27.3.11.76-.64,0-.26.44-.61.44-.15-.2-.3.24-.13.6-1v-.43l-.58-.24-.16-1.27-.22-.08v-.57l-.82-.49-.08-.34-.64-.33-.58-.8-.14-.69.16-.41-.42-.16-.07-.39Z" transform="translate(-111.66 -154.35)" style="fill: rgb(210, 210, 230);"></path>
   <path name="Tello" data-id="648" scale="3.9" move="10" id="path7563" class="cls-1" d="M204.44,207.91l-.14-.45-.77.14-.38-.73.36-.48-.27-.09-.11-.31.24-.17-.08-.36-.34,0-.26.28-.58-.28-.3.14-.28-.23-.42.21-.12-.14-.46,0-.38-.29-.48,0-.32-.53h-.26l-.22.35-.48,0-.34-.44-.34,0-.6.59-.92.06-.1-.51-.7-.59.5-.43-.46-.29-.14-1.4-.74-.29-1.76.1-.18.39-.36-.14-.6.32-.16-.47-.56-.14.06-.33-.56-.16-.26-.41,0-.24-1.12-.78-.64-.12-.26.2-.24-.3.22-.06,0-.41.7-.76.1-.59-.47-.48-.37-.23-.59,0-.79-1.3.25-.15.06-1-.06-.69.47.11.1.26.32-.22h.42l.12.16.56,0-.16-.26,0-1.68.7-.57.1.21.2.16.06.41.24-.23.44.06,1,.45.24.27-.16.39.3.28.26.06.14.29.48.28,0,.56.58.16.68.81.62.23,0,.28.6.23.22,1,.6.16.32-.51.4.41h.28l.08-.31.3.11.1-.57.6-.68.94.53.32.31.2-.1.22.1.08.47.32.14.3-.26.28.2.28-.2.34.26.18-.14,1,.61.18.45.16,0,.1,0,.38.43.36-.21.2.35.54.16.24-.1.54.43s-.08.67-.08.8-.46.53-.46.53l.18.18s0,.33,0,.45a1,1,0,0,1-.14.35l.12,1.22.12.1-.54.27.08.91.91.2.07-.46,1.29,0,.22.19.12.13-.51,1.2-.83.83v.17l-.71.4-.28.59Z" transform="translate(-111.66 -154.35)" style="fill: rgb(210, 210, 230);"></path>
   <path name="Rivera" data-id="641" scale="5.2" move="10" id="path7600" class="cls-1" d="M193.51,217.88l-.25.15.09.46-.41.36-.74.12-.37-.41-.38.12-.4.39-.66,0-.38.22-.28-.12.38-.65-1.3-1,0-.33-.3,0-.6-.84,0-.3-.32-.17-.22.21-.88-.43-.62.08-.64.33-.18-.21-.42,0-.44.49-.34-.08,0-.41-.38-.38.18-.21-.28-.38,0-.56.22-.18.06-.29-.37-.18,0-.27-.23-.1-.07-.28h.26l.46-.51.07-.3.65-.86-.05-.44.17-.43.55-.13.14-.28-.16-.58.61-.38,1.71.56,1.3.1.14-.28.7,0,.74.59,0,.49.38.47-.08.51,1.22.73.8.1.32.28-.26.24-.1.26-.13-.13-.16,0,.14.56.16,0,.09.2-.07.16.5.2,0,.42-.14.11.46.49.49-.09.21.13.07.25.13.11-.09.26.1.23-.23.53-.21,0-.18.36.14.29Z" transform="translate(-111.66 -154.35)" style="fill: rgb(210, 210, 230);"></path>
   <path name="Algeciras" data-id="620" scale="3.5" move="10" id="path7605" class="cls-1" d="M193.69,218.62l.36.4.4.07,0,.24-.26.22-.16.93-.74.63-.13.76.35.68v.56l.68.69.09.4.08.41-1.16.71v.47l-.11.53-.24.07v.16l-.44.39-.23.35-.11.56-.34.13.06.38.44.27-.19.1-.14.56-.25.36-.52-.36-.48,0-.33.19-.21-.21-.79.06-.23.17.23.11,0,.22h-.1l0,.13-.25,1.12-1.28,1.48.22.41v0l-.57.19v.22l-.43.89-.23.14-.17-.35-.15.13,0,.26-.43.34.14.93-.55.9-.45.07-.1.59-.77.5-.6-.44-.22.18v.69l-.68,1.36-.58.42-.44,0-.2-.27-.23.1-.92.57-.44-.71-.72,0,0-.23.32-.49,0-.49-.16-.1,0-.73-.7-.31-.1-.71-.84-.68-.18-.28.28-.08.06-1.21.28-.69.74-.47L178,233v-.3h.15l.38.1.54-.18L179,232l.32-.53.6-.42-.1-.29.34,0,.4-.82v-.26l.26-.12v-.27l.63-.1.34-.35-.1-.37H182l.15-.61.58-.28-.22-.41.06-.15,1.14,0,.2.11,0-.39.86-.45h.3l.16-.33-.26-.22.34-.43.58-.29,0-.3.56-.68.6-.06.22-.18-.18-.14,0-.25.54,0,.44-.24v-.37l.5-.61,1-.13v-.24l0-.22.78,0-.12-.43.1-.37.55,0,.41-.25v-.28l.42-.29.16.23.2-.25-.1-.26,0-.25.15-.34.74-.11.4-.36Z" transform="translate(-111.66 -154.35)" style="fill: rgb(210, 210, 230);"></path>
   <path name="Gigante" data-id="627" scale="30" move="20" id="path7614" class="cls-1" d="M179.51,242.16l-1-.17-.24-.16h-.39l-.61.51h-.14l-.74.68h-.26l-.3-.19-.26.42-.28-.27-.17,0v.35l-.38.2-.09-.17-.28,0-.39-.51h-.3l-.48.88-.28-.06-.43.36-.65-.87.13-.17-.26-.29-.72-.2-.46.07-.09-.36-.2.09-.34-.12,0-.34-.75-1.09-1.8-.59-.85.39h-.45v-.08l-.1-.56-.09,0,0-.18-.16-.12v-.21H166l.19-.21-.2-.17-.32.23-.24-.33-.4-.12,0-.37-.18-.2,0-.28.37-.4h.41l.46-.26,0-.32.51-.19.86.07.17.23.27,0,.17-.23v-.41l-.19-.33.19-.52.51-.82.29-.19.38-.6.15-.54.28.28.82-.71-.11-.36-.11-.63.24-.54.12.1.14-.5-.39-.41,0-.36s.13,0,.17,0,.25-.73.25-.73l.21-.06.15.27.48.12.1-.13-.36-.23-.15-.29.11-.07.19-1,.38-.25.47.14.32.57-.16.36.24.37.24-.24h.38l.08.38h.5l.2.45L174,230l.26.36-.08.23.12.34.8,0,.1.23.32-.12.38.28.14-.22.74.1.16.37.42-.19.3.41-.16.49.47.37v.3l.72.25-.74.47-.28.69-.06,1.21-.28.08.18.28.84.68.1.71.7.31,0,.73.16.1,0,.49-.32.49,0,.23.72,0,.43.72c0,.06-.44.71-.44.71l.31.43-.06.11Z" transform="translate(-111.66 -154.35)" style="fill: rgb(210, 210, 230);"></path>
   <path name="Garzón" data-id="626" scale="3.6" move="10" id="path7619" class="cls-1" d="M179.34,243l-.17.46-.28.43.17.2-.57.55-.7.29-.37.63,0,.66.09.09,0,.37.31.12H178l.29.23-.29.43v.37l-.11.29-.39.41-.15,1,.12.23-.28.21-.74-.21L176,250l-.59.49-.62-.06-.57.55-.87.17-.57-.09-.62.35v.29l-.34.37-.05.69.05.23-.34.35-.36,0-.17.26.11.31-.11.43-.34.29-.37-.14-.17.17.2.09v.2l-.2.29.14.26-.11.11-.34.09-.31.37-.05.52-.29.06-.08.23,0,.13h-.21l-1-.57-.11-.51-.37-.16-2.26,0-1.06-.92-.09-.56-.33-.06-.23.13-.27-.38.2-.19-.21-.33-.05-.37-.19.17-.36-.11.17-.32-.11-.35.37-.3,0-.58-.11-.11.26-.18.33,0,.49-.49h.25l.24-.23v-.25l.47-.32-.11-.21-.34-.32.13-.16-.16-.3h-.54l0,.16-.16-.14,0-.31.19-.16-.05-.14-.24-.33.63-.25,0-.25.22-.21.24.08.34-.5.16,0s.09-.11,0-.14-.15-.08-.2-.08-.13-.18-.19-.18l-.53-.05-.24-.39.46-.21-.11-.25.24-.28.05.17.36.07.08-.43.48-.28.11.06.13-.3h-.22l.08-.61-.19-.12,0-.63.27-.12.23-.33-.1-.11-.18.18-.26-.12,0-.33.12,0L166,242l.13,0,.24-.19-.11-.28-.06.09H166l-.11-.39.22-.17.07-.57h.44l.85-.39,1.8.59.75,1.09,0,.34.34.12.2-.09.09.36.46-.07.72.2.26.29-.13.17.65.87.43-.36.28.06.48-.88h.3l.39.51.28,0,.09.17.38-.2V243l.17,0,.28.27.26-.42.29.19h.27l.74-.68h.14l.61-.51h.39l.24.16,1,.17Z" transform="translate(-111.66 -154.35)" style="fill: rgb(210, 210, 230);"></path>
   <path name="Gigante" data-id="627" id="path7624" class="cls-1" d="M169.15,257.24l-.08.25-.88.38L168,258l-.5,0,.22.35-.14.4-1.1,1.35-.28.12-.12.72-.19.55.45.63-.06.26-.31.2-.08.37-.37.81-.45.32h-.34l-.73.52-.51.12-.53-.91-.43-.14.09-.72-.57-.35-.34.09-.15-.54.17-.11,0-.61-1.07-.21-.3.25H160l0-.43h-.35l-.86-.82.07-.92-.43,0,.24-.36,0-.16-.4-.06-.25-.29.24-.33.08-.43.37-.41.14-.78.31-.16.14.45h.33l.48-.66.32.16.27-1,.4-.17,0-.25.45-.36.2,0,.78-.74,0-.63.37.11.19-.17.05.37.21.33-.2.19.27.38.23-.13.33.06.09.56,1.06.92,2.26,0,.37.16.11.51,1,.57h.2Z" transform="translate(-111.66 -154.35)" style="fill: rgb(210, 210, 230);"></path>
   <path name="Suaza" data-id="645" id="path7632" class="cls-1" d="M163,263.88l-.43-.14.09-.72-.57-.35-.34.09-.15-.54.17-.11,0-.61-1.07-.21-.3.25H160l0-.43h-.35l-.86-.82.07-.92-.43,0,.24-.36,0-.16-.4-.06-.25-.3-.29.29-.48-.32-.73-.22-.33.12-.45.1-.24.51.1.21-.44.3.46.74-.24.12-.14-.14-.46,0-.68.65h-.16l-.24.12,0,.39-.78.06-.32.41,0,.51-.54.43,0,.26-.46.47h-.22l-.18.23-.38,0-.12.22-.24.14-.24-.24,0,.59.4.16-.16.21h-.46l-.42.73-.16.06-.24.71.14.33.42.11.2.26.66-.67.36.16,0-.28.28-.09.18,0v.32l.4,0,.26.29.54-.33.32.06.72,1.08,0,.19-.14,0-.06.49.72.9.28,0-.1.59.38.26,0,.23-.18.06,0,.45-.12.08-.12.71.36.21-.12.92.64,1,0-.38.25-.17,0-.58.85-.69.73.06.34.26.37-.18.36-.54.57.14,1.13-.66,0-.23.68-.12L161,270l0-.6.17-.23-.14-.55.14-.26-.11-.37.37-.41.53-.14.88-1.09-.17-.55.22-.46.34-.06.2-.11,0-.38Z" transform="translate(-111.66 -154.35)" style="fill: rgb(210, 210, 230);"></path>
   <path name="Pitalito" data-id="640" scale="3.5" move="10" id="path7659" class="cls-1" d="M131.84,272.94l.8-.55.06-.41.64-.65,0-.71-.26-.11v-.16l.18-.06.12-.39.76-.47.42-.63,0-.22h.22l0-.39.4-.37.18,0,0-.24v-.27l.1,0,.08-.29-.3-.18-.14-.41.2,0,.28-.24.11-.25.29-.09.12-.14h.52l.1-.1v-.23l.15-.05.28.24.19,0,.06-.21.1-.18.09-.17-.35-.41.12-.26.69-.39,0-.49,0-.46.28-.38,1-.25.38-.36.57-.44.52-.11-.26-.12,0-.25-.52-.16,0,.1h-.4l-.6-.36-.18-.35-.2.3H138l-.1-.24-.54-.08,0-.14.38-.47.44,0,.08-.25.12,0,.28.31.06-.19.38-.18-.06-.27.14-.12.24.18.06.11.24.08V259l.48-.21.1.17,0,.21.36-.15.52.05.08.14.66.06.06.35.26.18.28-.16.76.22.25.35.7-.49.52-.17.05-.17.3.09v.25l.34.67.42.23.16-.17.58,0,.1-.16.4.06.1.18.06.41v.15l-.22.18v.69l.16.21-.06.16-.2.06-.16.33.08.45-.24.1-.08.37.42.59,0,.3.22,0,.2-.08.36.51,0,.39-.36.14.12.19.24,0,.12.39.48.32.22-.12.06.33-.6.32-.28-.14-.26.53.1.23v.34l-.26.21.14.22-.34.06-.2-.08-.16.18-.76.05-.56.83.26.43.3.1v.64l-.52.67-.42.1-.12.29,0,.26h-.58l-.4.43-.26,0-.34.14-.26,0-.28-.34v-.59l-.22-.26-.06-.45.28-.39-.16-.18-.74.08-.16-.18,0-.37-.16-.1-.66.1-.2.1h-.3l-.16.29-.6.06-.44.41-.62-.21,0-.16-.54.59-.22.57-.28,0-.06-.16-.2.08-.22.47-.34.06-.3.61-.08.51h-.54l-.26.25-.16.47L135,274l0,.27.2.22-.2.41-.2.35.08.59-.26.31v.65l-.14.51-.34.14-.42.55-.06.35-.38.33-.46.83-.27.26-.8-.58-.33.29-.8,0,0-.52.36-.85.6-.64.24-.59-.08-.75-.14-.23,0-.3.14-.15.1-1.3.1-.06v-.23l-.3-.22,0-.37-.42-.31Z" transform="translate(-111.66 -154.35)" style="fill: rgb(210, 210, 230);"></path>
   <path name="San Agustín" data-id="643" scale="2.7" move="10" id="path7653" class="cls-1" d="M122.45,249l-.13.58.3.2.17.48-.27.69-.24-.14-.4.24-.67.69-.61.1-.67-.34-.4-.59-.44-.13-.33.27-.64.48-.54-.17-.7-.82-.5-.17-.34.08-.27-.25-.3.2-.24.24-1,.55-.5.55-.17.51.17,1.06.44.88.21.73-.38.31,0,.56.17.31.26.36-.23.17v.65l-.41.45-.62.33-.4.06-.13.17v.36l-.19.29-.24,0-.23.26-.09.18,0,.5.13.17.07.72.34.23.07.28v.38l-.24.2v.35l.54.25.5,0,.84.92.11.51-.33.56-.25,0-.06.67.53.8.45,0,.14.3.41.34.25.57.53.39.84.32.86.28.44-.52.17-.08.32.2.41-.07,1.94,1,.34.45.93.4.58.48.32,0,.07.45.84.8,0,.22-.17,0,0,.57-.68.35,0,.18.36.2v.54l-.19.33.22.4H124l.49-.7-.05-.35.34-.25.52-.05.17-.42.8-.48.59.45v1.12l-.22,1.15.88.75.61,0,.44-.55,1.64-1.25-.07-.4.49,0,.36.14.23-.18.6,0,.8-.55.06-.41.64-.65,0-.71-.26-.11v-.16l.18-.06.12-.39.76-.47.42-.63,0-.22h.22l0-.39.4-.37.18,0,0-.24v-.27l.1,0,.08-.29-.3-.18-.14-.41.2,0,.28-.24.11-.25H135l-.53.36-.32.31h-.2l0,.08h-.11l0-.32-.05-.21h-.08l-.27-.36,0-.19-.25-.1-.25-.05,0-.14-.1-.06.06-.27-.16-.24-.32-.17-.26-.36.06-.27-.22-.1-.28-.53,0-.14.12-.13-.1-.16-.4-.14-.16-.51-.18-.06-.12-.23.36-.43,0-.16-.26-.26v-1.19l.14-.14v-.14l-1.24-.51,0-.17-1.12-.32-.32.1-.5-.14-.08-.25-.74-.24,0-.33-.22-.35-.52,0-.14-.28.08-.45-.64-.33-.08-.41-.52-.16,0-.31.28-.3,0-.49-.08-.21.14-.26.24-.27.12-.32-.2-.64-.3-.14.06-.33.22-.06.06-.24-.1-.43-.34-.23-.44-.55.2-.2-.18-.29-.32-.3.24-.25-.12-.22-.26.14-.28-.41.16-.18-.06-.12-.34,0,0-.11-.56-.3,0-.23-.31-.22-.23-.48Z" transform="translate(-111.66 -154.35)" style="fill: rgb(210, 210, 230);"></path>
   <path name="Isnos" data-id="631" scale="3.7" move="10" id="path7648" class="cls-1" d="M126.18,242.09l.4.94v.19l-.28.43-.31.29.07.65-.2.43-.24.15.05.27.26.17v.28l-.33.26-.09-.19-.15.29.06.3.38.2,0,.39-.11.21.18.63.61.46,0,.48-.24.37-.24.1.46.45.63,0,.79.86.08.46.59.93,0,.36.52.62.76.65.43.07.79.53.45-.08.61,0,.89,1,.76.31.05.28.65,0,1.16.88,1.09.11.46.51h.4l.31.32.13.4h.31l.27.1v-.16h.76l.43.48.53.24-.48.21v.21l-.24-.08-.06-.11-.24-.18-.14.12.06.27-.38.18-.06.19-.28-.31-.12,0-.08.25-.44,0-.38.47,0,.14.54.08.1.24h.6l.2-.3.18.35.6.36h.4l0-.1.52.16,0,.25.26.12-.52.11-.57.44-.38.36-1,.25-.28.38,0,.46,0,.49-.69.38-.12.27.35.41-.09.17-.1.18-.06.21-.19,0-.28-.24-.15.05v.23l-.1.1h-.52l-.12.13-.29.11H135l-.53.36-.32.31h-.2l0,.08h-.11l0-.32-.05-.21h-.08l-.27-.36,0-.19-.25-.1-.25-.05,0-.14-.1-.06.06-.27-.16-.24-.32-.17-.26-.36.06-.27-.22-.1-.28-.53,0-.14.12-.13-.1-.16-.4-.14-.16-.51-.18-.06-.12-.23.36-.43,0-.16-.26-.26v-1.19l.14-.14v-.14l-1.24-.51,0-.17-1.12-.32-.32.1-.5-.14-.08-.25-.74-.24,0-.33-.22-.35-.52,0-.14-.28.08-.45-.64-.33-.08-.41-.52-.16,0-.31.28-.3,0-.49-.08-.21.14-.26.24-.27.12-.32-.2-.64-.3-.14.06-.33.22-.06.06-.24-.1-.43-.34-.23-.44-.55.2-.2-.18-.29-.32-.3.24-.25-.12-.22-.26.14-.28-.41.16-.18-.06-.12-.34,0,0-.11-.56-.3,0-.23-.31-.22-.23-.48.37-.27.37,0,.73,0,.44-.69.34-1.54.43-.68.14-.89.47-1.17Z" transform="translate(-111.66 -154.35)" style="fill: rgb(210, 210, 230);"></path>
   <path name="Saladoblanco" data-id="642" scale="3.5" move="10" id="path7642" class="cls-1" d="M127,243.06l.49.78-.05.65.6.52.2,0,.26.26.12.5.47.1.1.22-.1.2v.19h.28l.17-.11.27,0,.95.76.33.36.55.41H132l3.59,1.46,1.06,1.23.09,1.35.6.13.55-.26h.24v-.47l.46.23.19.36.32.09.21-.16.26.16,0,.23.79.76,0,.85.12.06-.12.32-.24.08-.13.86.5.47v.39l-.23.07.37.51.35,0,.34.44.28.09.53-.26-.1-.19.51-.24h.36l1,.92h.77l.24.24.84,0,.22.3h.45l-.9.91-.61.22-.12.39-.52.17-.7.49-.25-.35-.76-.22-.28.16-.26-.18-.06-.35-.66-.06-.08-.14-.52-.05-.36.15,0-.21-.1-.17-.53-.24-.43-.48h-.76v.16l-.27-.1h-.31l-.13-.4-.31-.32h-.4l-.46-.51-1.09-.11-1.16-.88-.65,0-.05-.28-.76-.31-.89-1-.61,0-.45.08-.79-.53-.43-.07-.76-.65-.52-.62,0-.36-.59-.93-.08-.46-.79-.86-.63,0-.46-.45.24-.1.24-.37,0-.48-.61-.46-.18-.63.11-.21,0-.39-.38-.2-.06-.3.15-.29.09.19.33-.26v-.28l-.26-.17-.05-.27.24-.15.2-.43-.07-.65.31-.29.28-.43V243l-.4-.94h.45l.62-.23Z" transform="translate(-111.66 -154.35)" style="fill: rgb(210, 210, 230);"></path>
   <path name="La Plata" data-id="633" scale="3" move="10" id="path7637" class="cls-1" d="M156.08,238.11l-.12.22-.2.21-.28,0-.12.32.1.21-.24.22-.22.06.06.29-.22.18-.24,0-.76.33-.32.43.06.22-.4.08-.16-.24-.22.1-.2,0-.1-.31h-.34l-.44.35v.43l.42.16,0,.57-.54.47v.61l.3.27.56-.31.16.13,0,.41-.58,0-.18.21h-.2l-.12-.12-.14,0-.18.18-.78.16-.58.43-.12.27-.34.16-.38.41,0,.45-.38.3-.38-.3,0-.43.18-.12-.3-.53-.36-.09,0,.51-.24.13-.32.85v.23l-.26.22-.1.27-.28-.14-.9.63-.16.2-.46-.18,0-.16-.54-.09-.26.17-1.16.08-.08.12-.52-.18-.4.24-.22,0-.3.21.06.24-.56.08-.22.21-.66.08-.14-.35h-.26l-.44.59-.16,0-.5.66-.12.38-1,.09-.84-.64-.38-1.26-.3-.21,0-.51-.42-.55-1.12-.87-.44-.13-.68-.49-.84-.32-.68-.09-.86-.67-.74-.22h-.48l-.28-.53-.32-.21-.42.06-.18-.16-.16,0-.3.22-.16-.36.12-.93.75-.06.52-.42,0-.45-.38-.4-.27-.7.52-.41.5-.49.29-.55.38-.25v-.32l-.31-.4-.19-.35.28-.16v-.48l.2-.1.21-.38.7-.38,0,.38.58,0,.26.24h.24l.27.3-.2.21h.67l.5.31,1.28.65.87.27.67.21.77-.14.27-.17.37,0,.67-.34.17-.38h.54l.47-.37.23-.31.3-.31.44.31.47-.21.13-.37.54,0,.34-.31.3.18h.33l.24.3.6-.06,0-.28.53-.27h.44l.37-.58.33-.62-.1-.79.2-.31.61-.41.07-.27.06-.45.34-.37.47-.18.07-.44.06-.38.27-.34.24-.21.16-.06.37.13h.25l.2.18.12.36.6,0,.57.12,0,.19.33.22h.38l.53.51-.24.14,0,.44v.29l.38,0,.07.46.33.32.24,0,.23.25.22.43h.24l.11.29.86-.09.21.17.52-.32.08-.48-.29,0v-.21l.45-.29.12-.34.21-.41h.31l-.05.57.76.57-.06.29.58.63.3.08-.32.29.3.3-.32.37.06.76-.56.73v.8l-.14.4" transform="translate(-111.66 -154.35)" style="fill: rgb(210, 210, 230);"></path>
   <path name="Paicol" data-id="636" scale="4.7" move="10" id="path7589" class="cls-1" d="M155.47,232l-.35-.14v-.25l.31-.09.55.06.18.11.4-.13.38.16.45-.21.12-.29.32,0,.5.82.83.31.33-.15.32,0,.08.22.29,0,.25.08v-.18l-.15-.13h.27l.12.35.34.09.16-.29.19,0v.24l.57.31.31-.22-.27-.16.08-.2.23.11.66-.29.08-.3.49-.13,0,.12.29.27.19,0,.1-.16.29,0,.2.48-.36.25v.12l.46.06.1-.18h.42l.11.39-.28.06-.11.28.42.08.69-.68.37.23-.24.24-.24,0-.2.22.2.16.21-.05,0,.25.3.09.07-.35.5-.28.19.2.5-.06L168,233l.44-.19.2-.3-.2-.15.1-.16.43-.14,0,.15.49.34.26-.11-.1-.33.21-.24h.34l0,.07.12.66.1.33-.82.71-.28-.28-.15.54-.38.6-.29.19-.51.82-.19.52.19.33v.41l-.17.23-.27,0-.17-.23-.86-.07-.51.19,0,.32-.46.26h-.41l-.37.4,0,.29h0l-.73.42-.15.39.22.34,0,.23-.21.18-.24-.39-.59.2-.43-.82-.31-.15-.77-.79-.34-.07-.2.21-.21-.1h-.49l-.15-.22h-.34l-.4.43s-.34-.43-.43-.43l-.51,0-.34.4.21.52-.18.36v.26l.2.17-.21.22-.17,0-.48.25-.08-.29-.49-.09.11-.66-.65-.46-.39-.12-.32-.15.14-.4v-.8l.56-.73-.06-.76.32-.37-.3-.3.32-.29-.3-.08-.58-.63.06-.29-.76-.57.05-.58Z" transform="translate(-111.66 -154.35)" style="fill: rgb(210, 210, 230);"></path>
   <path name="Nátaga" data-id="634" scale="5.4" move="10" id="path7584" class="cls-1" d="M160.22,219.41l.15.26.53.23v.22l.21.31.14,0,.19.2h0l-.42.17-.2.31,0,.63-.22.1-.14,0-.26.21-.22.49-.34.1.12.47-.16.24.52.33h.2l.66.55-.06.41.12.26-.2.13-.86,0-.06-.15-.36.23-.18.69-.58.53,0,1.1.26.49h.22l.12,0,.08.15-.1.24.1.29,0,.51-.28.08,0,.39-.38.59v.39l-.38-.05-.1.41-.44.31-.33,0-.12.29-.45.21-.38-.16-.4.13-.18-.11-.56-.06.34-.32.14-.19.1.12.19-.29h.35l.14-.12-.33-.17-.19-.29v-.58l.12-.2.17-.51v-.24h-.26l-.22-.6-.33-.39h-.14l-.14-.19.16-.15.14-.48-.23-.17-.22-.17.17-.25V226l.31-.17.09-.32.19,0,.14-.26h0v-.44l.46.09.14.19.28-.43.2-.08v-.21l-.14-.18.24-.08.16-.61.18-.07.1-.34.14.26.26-.65-.2-.2.1-.08,0-.68.13-.3h.42l.47-.64-.17-.44.42-.21.27.05.24-.28-.13-.28Z" transform="translate(-111.66 -154.35)" style="fill: rgb(210, 210, 230);"></path>
   <path name="Iquira" data-id="630" scale="4" move="10" id="path7579" class="cls-1" d="M159.7,219.39l.21-.27,0-.52-.12-.14.36-.13-.05-.14-.19-.15.24-.15-.07-.37.16-.32.24-.07-.26-.46-.05-.13.19-.16-.58-.52-.41-.05,0-.12-.41,0-.24-.25,0-.15-.07-.19-.34.1,0,.17-.19.17-.17-.27-.15-.12-.24,0-.29-.27,0-.27-.46.08-.17-.15.05-.22-.14-.2-.39.1L156,214l-1.2.14-.57-.29v-.25l-.63-.49-.25-.39,11.43-.06.52.46,1,.46.08.52.32.09.22.58-.25.23.25,1,.26.12.62,1.27-.11.46-.23.08v.35l.14.29v.61l.79,0,.45.52h.36l.07.44-.14.09-.07.44-.23.18.35.83.07.88.16.28-.32.07.11,1-.31.16.08.62.3.23,0,.46-.21.15.11.46.17.2-.22.49.38.34-.14.27-.36.45-.42,0-.1.24-.48-.05,0-.14-.53-.06-.24.2v-.13l-.87,0-.24-.2.12-.25.19-.16.05-.43-.36-.19v-.63l-.46-.61v-.42l.24-.24-.1-.58h.13l-.09-.13.19-.31-.19-.08,0-.25.17-.17-.05-.45.2-.13-.08-.14-.38-.05-.17-.43-.44-.11-.89.7h-.33l-.73.65-.67-.49-.52-.1-.19-.95.16-.07,0-.54-.49-.33-.16-.2-.14,0-.21-.31v-.22l-.53-.23-.15-.26-.5.15Z" transform="translate(-111.66 -154.35)" style="fill: rgb(210, 210, 230);"></path>
   <path name="Teruel" data-id="649" scale="3.2" move="10" id="path7574" class="cls-1" d="M151.54,211.67l-1-1.13-1.35-.88-.53-.69-2.11-1.57-1.2-1L145,206l-.34-1-.1-.44.16-1.24.88,0,.29-.5h.29l.62-.29.58.2.19.44-.29.44.29.69.44.69.43,0v.44l.43.25.05.78.58-.19.43.19.49-.1.09.3.29.25h.48l.44,0-.1.3.34.64.38-.3.58-.05.1.25.43.59.77.74.39.29.77-.24h.38l.39.1.24-.55.43-.44.58-1.13.34-1.19.43.16.46.66,1.07-.06.31.24.26-.55.19,0,.54,1,1.64-.7.4-.49.53.81-.22.55,0,.49.31.17-.71,1.25.63.28-.12.67.17.63.91.33.54.08.19.31h.46l1.13-1.35.48-.09.58-.17.68.19.11.24.24,0,.2-.18.38.42h.34l.61.53v.38l.82-.4.75.24.14.49.42-.23h.4l-.14.84.29,0v.35l.41,0,.53-.49.34.13,0,.76.29.29-.27.26-.24.92-.14.33-.62.31v.18l-1,.7-.1.22-.2.14-.6.88-.08.72-.6.49-.14.47.14.2-.06.1-.68,0-.12-.12h-1.2l-.45-.52-.79,0v-.61l-.14-.29v-.35l.23-.08.11-.46-.62-1.27-.26-.12-.25-1,.25-.23-.22-.58-.32-.09-.08-.52-1-.46-.52-.46-11.42.06Z" transform="translate(-111.66 -154.35)" style="fill: rgb(210, 210, 230);"></path>
   <path name="Santa Maria" data-id="644" scale="4" move="10" id="path7558" class="cls-1" d="M165.27,198.58H165l-.78.61-.4.8-1.17.84-.49.06-1.13.56-.91.24-1.06.94-.87.78-.63.2,0,.79.28,1.23-.09.33.43.16.46.66,1.07-.06.31.24.26-.55.19,0,.54,1,1.64-.7.4-.49.53.81-.22.55,0,.49.31.17-.71,1.25.63.28-.12.67.17.63.91.33.54.08.19.31h.46l1.13-1.35.48-.09-.08-1.44.42-.34.1-.27.26,0,.36-.3.6,0,.24-.15.3,0,.22.23.66,0,.18.28.86.19.74-.84v-.47l.5-.41.34-1.2.52-.41.28-.57.38-.18.14-.31-.16-.39v-.18l-.22-.08-.08-.21-.48.27-.82-.27-.3-.28-.3.14-.54-.31-.26.21-.36-.27-.64.41-.52-.26.18-.56-.32-.12-.08-.72-.62-.48-.3.14-.44-.1-.76-.86,0-1.16.18-.37v-.47l-.08-.15-.07-.61Z" transform="translate(-111.66 -154.35)" style="fill: rgb(210, 210, 230);"></path>
   <path name="Neiva" data-id="616" scale="2.5" move="10" id="path7551" class="cls-1" d="M203.87,208.92l-.49.07-.19.52-.67.14-.22.18,0,.34-.33.27-.07.29-.71.86-.46.55-.12,0-.12.3.22.16,0,.32-.27.16-.05.26-.7.44-.15.48-.88,1.22-.35.08-.3.6-.12-.11-.27.11-.19.47-.3.3-.27,0-.27-.37h-.16l-.1.15H196l-.18.31-.24.19h-.16l-.18-.21-.24,0-.21.13-1.09.26-.13-.29.18-.36.21,0,.23-.53-.1-.23.09-.26-.13-.11-.07-.25-.21-.13-.49.09-.46-.49.14-.11,0-.42-.5-.2.07-.16-.09-.2-.16,0-.14-.56.16,0,.13.13.1-.26.26-.24-.32-.28-.8-.1-1.22-.73.08-.51-.38-.47,0-.49-.74-.59-.7,0-.14.28-1.3-.1-1.7-.56.16-1.08-.27-.42,0-.49-.19-.09v-.18l-.41,0,0-.24.24-.06.06-.27-.49-.34.08-.21.37.08v-.13l-.34-.24.16-.4-.13-.18-.23-.14-.15-.43.51-.53,0-.16h-.7l0-.43-.28-.75v-.31l-.3-.16-.5-1.23.2-.45-.06-.22-.2,0-.23-.16v-.35l-.72-.37-.32.14-.7-.12-.26.18-.48-.46-.88.1.16-.47-.12-.14.22-.19-.06-.61-.64-.2,0-.37-.74-.19v-.59l-.18,0-.12.25v.38l-.42.82.16.88-.22.59-.7.39V200l-.42.3-.16.33-.4,0-.24-.29-.48-.1-.28.2h-.4l.42-.38-.12-.17-.46,0-.26-.34-.32.22-.48-.29-.4,0-.42-.11-.09-.26.26-.15.05-.3-.43-.35-.45.21-.14-.16,0-1.07.27-.14,0-.32-.28-.26-.27.07-.05-.22.17-.15-.33-.08-.17-.31-.69-.07-.59.47-.55.6-.16.21-1.14.07.86-1.67.32-.18.23.06s.37-.29.4-.47.06-.79.06-.79l.28-.26-.26-.21.57-1-.06-.88.2-.35,0-.4.44-.82.2.14.48-.69.66-.43,0-.37.4-.2.5.39.06-.19,1.16.11.22.1.34-.25.44-1,.46-.08.18.37.28.14.4-.39.38,0,.2.35.66-.1,0-.25.28.19.26-.35h.24l.4.33.56-.43.28-.41h.28l.06-.33.68-.49h.26l0,.47.36.12v-.34l.28-.68h.27l.24.25-.21.41.09.22-.19.27,0,.57-.5.61-.14.47-.4-.06-.2.41.12.2-.06.31h-.38l-1.34,3.34.1.29-.26.14-.18.39.42.63.28.15,0,.24-.2,0-.38.69.24.19.24-.31.64,0,.14.18.66.21.26-.16.46.28-.2.29,0,.36.26.27.34-.37.39.08,0,0,.25.34,0,.3.13.3,0,.37.38.27.78-.17.3.17,0,.42h.22l.34-.06.34.15,0,.32.2,0,.24-.87.42-.21.06-1,.18-.08-.08-.65.42-.27.81,1.3.59,0,.37.23.47.48-.1.59-.7.76,0,.41-.22.06.24.3.26-.2.64.12,1.12.78,0,.24.26.41.56.16-.06.33.56.14.16.47.6-.32.36.14.18-.39,1.76-.1.74.29.14,1.4.46.29-.5.43.7.59.1.51.92-.06.6-.59.34,0,.34.44.48,0,.22-.35h.26l.32.53.48,0,.38.29.46,0,.12.14.42-.21.28.23.3-.14.58.28.26-.28.34,0,.08.36-.24.17.11.31.29.09-.38.47.38.74.77-.14.14.45Z" transform="translate(-111.66 -154.35)" style="fill: rgb(210, 210, 230);"></path>
   <path name="Aipe" data-id="619" scale="3.5" move="10" id="path7545" class="cls-1" d="M191.91,180.32l0,.25h-.26l-.16-.37h-.33l-.06.22-.3-.22,0-.44.34-.14-.32-.23v-.19L191,179l-.16-.16-.43.1-.33-.18,0-.15-.62,0-.23-.19-.65.71,0,.31-.32.08-.1.33.2.15.06.45-.43.31,0,.36.23.12-.21.25-.44-.35.12-.15-.24-.18h-.23l-.16-.13,0-.23-.12-.08-.26,0-.15.23-.3-.21.16-.25-.2-.06-.35,0-.12-.23-.34,0-.17-.23.19-.12-.19-.27h-.3l-.2-.12-.06-.31-.39-.13-.14-.27-.31.15,0,.37.21.23-.37.1-.22.46-.49-.33V179h-.24l-.33.19-.34-.17.06-.09-.26-.06-.32.12-.31-.12v.44l.17.2-.26.18.14.5-.31.09v.32l.14.2-.83,0-.29-.26s-.4.15-.4.26a.42.42,0,0,0,.06.21l-.35.2H179l-.11-.32-.4.24.06.32-.46.44,0,.35-.4.12-.37.23-.11-.35.14-.29-.2-.21-.4.09-.09.2-.6,0-.09-.12-.6-.18-.12-.17-.31.32.17.29-.32.29-.11.65.2.32-.37.23-.64-.17-.25-.21-.69.29-.32,0-.06.24.44.44-.15.79-.31.2-.18.12.41.24-.06.17L172,186l-.4.55.17.44-.37.38-.23-.06-.92.88v.5l-.55.53.15.17.34-.06.06.33-.29.2v.41l.2.24-.46.26.38.47-.46.53-.06.58-.35.09.12.62.28.47.57-1-.06-.88.2-.35,0-.4.44-.82.2.14.48-.69.66-.43,0-.37.4-.2.5.39.06-.19,1.16.11.22.1.34-.25.44-1,.46-.08.18.37.28.14.4-.39.38,0,.2.35.66-.1,0-.25.28.19.26-.35h.24l.4.33.56-.43.28-.41h.28l.06-.33.68-.49h.26l0,.47.36.12v-.34l.28-.68h.27l.24.25-.22.41.1.22-.2.27,0,.57-.5.61-.14.47-.4-.06-.2.41.12.2-.06.31h-.38l-1.34,3.34.1.29-.26.14-.18.39.42.63.28.15,0,.24-.2,0-.38.69.24.19.24-.31.64,0,.14.19.66.2.26-.16.46.28-.2.29,0,.36.26.27.34-.37.39.08,0,.05.25.33,0,.3.13.3,0,.37.38.27.78-.17.3.17,0,.42h.22l.34-.06.34.15,0,.32.2,0,.24-.87.42-.21.06-1,.18-.08-.08-.65.43-.27.26-.15.06-1-.06-.69-.28-.23-.12-.61-.33-.31,0-.52.53-.41.06-.37.23-.23.22-.47.63,0,.11-.31.54-.06.31-.17,0-.29-.28-.35.06-.46.22-.21.23-.85s-.19-.18-.19-.24a3.5,3.5,0,0,1,.13-.44l-.09-.23-.4-.4-.13-.6.07-.26v-.35l-.2-.31,0-.63.19-.47.6-.38.11.11.11-.31s-.31-.19-.3-.29.46-.37.46-.37l.08.28.59.06.22-.42-.86-.47,0-.46.52-.26.18.46.39,0,.21-.5.33-.16.13-.42.87-.34,0-.39Z" transform="translate(-111.66 -154.35)" style="fill: rgb(210, 210, 230);"></path>
   <path name="XXXX" id="path7534" class="cls-1" d="M192.24,180.32l.12-.43-.31-.44,0-.48.61-.49.25.14.73-.31,0-.23-.33-.22.06-.29.35,0,.16.15.31-.27.28,0,0,.16.26.21.35-.23,4.26.11.16.12.09-.06.44.19-.54.45v.57l.3,0,.43.54.06.33-.35.06.15.21-.43.1-.22-.06-.27.38-.46-.09-.05.64-.14.15.23.23.08.29-.41.27.06.31.16.06.13.35-.15.15.17.12,0,.31-.29.31,0,.25.2.17v.29l-.44,0-.14.23.1.12-.31.19,0,.45.39.19.34,0,.13.1.5.19.29-.13h.32v.13l.25.08.14-.23.79-.08.2.12v.19l.14.17-1,.36-.6,1.43-.44.23-.62,1.12a3.07,3.07,0,0,0,.08.67l.46.66-.26.1-.38-.25-.44,0-.22.37-.6.35-.66,0-.2.33-.28-.19-.08-.2-.44-.08-.14.16-.46-.25-.08.11-.26-.15,0-.2-.32,0-.5-.37-.2.39-.2,0-.3-.14v.37l-.26.26.38.25,0,.85-.28.13-.38.55.14.2-.08.29.28.12-.34.43-.46-.39-.14.16-.26-.06-.3-.28.16-.39-.24-.27-1-.45-.44-.06-.24.23-.06-.41-.2-.16-.1-.21-.7.57,0,1.68.16.26-.56,0-.12-.16h-.42l-.32.22-.1-.26-.47-.11-.28-.23-.12-.61-.33-.32,0-.51.53-.41.06-.37.23-.23.22-.47.63,0,.11-.31.54-.06.31-.17,0-.29-.28-.35.06-.46.22-.21.23-.85s-.19-.18-.19-.25a3.84,3.84,0,0,1,.13-.43l-.09-.23-.4-.4-.13-.6.07-.26v-.35l-.2-.31,0-.63.19-.47.6-.38.11.11.11-.31s-.31-.19-.3-.29.46-.37.46-.37l.08.28.59.06.22-.42-.86-.47,0-.47.52-.25.18.46.39,0,.21-.5.33-.16.13-.42.87-.34,0-.38Z" transform="translate(-111.66 -154.35)" disabled="disabled" style="pointer-events: none;"></path>
   <path name="Baraya" data-id="622" scale="3.8" move="10" id="path7322" class="cls-1" d="M206.7,185.64l.07.39.42.16-.16.41.14.69.58.8.64.33.08.34.82.49v.57l.22.09.16,1.26.58.25v.42l-.6,1-.24.13.2.3-.44.15-.44.61,0,.26L208,195l-.3-.11-.2.27.28.22-.38.19-.34,1-.38.08,0,.32.3.33.34-.1h.26l.54.28.72-.38.4.14.48,1.2.32.27.7.13.35.34.7.12.13.27,0,.08-.47.08-.41,1.05-.57.82-.11.55-.56.08-.21,0-.53.56.21.14-.08.42-.4.34-.19-.23-.27.08v.35l-.33,0-.08-.13h-.24l-.47.36-.05.31-.22-.17-1.29,0-.05.45-.92-.2-.08-.91.54-.27-.12-.1-.12-1.22a1,1,0,0,0,.14-.35c0-.12,0-.45,0-.45l-.18-.18s.46-.41.46-.53.08-.8.08-.8l-.54-.43-.24.1-.54-.16-.2-.35-.36.21-.38-.43-.1,0-.16,0-.18-.45-1-.61-.18.14-.34-.26-.28.2-.28-.2-.3.26-.32-.14-.08-.47-.22-.1-.2.1-.32-.31-.94-.53-.6.68-.1.57-.3-.11-.08.31h-.28l-.4-.41-.32.51-.6-.16-.22-1-.6-.23,0-.28-.62-.23-.68-.81-.58-.16,0-.56-.48-.28-.14-.29.14-.16.46.39.34-.43-.28-.12.08-.29-.14-.2.38-.55.28-.13,0-.85-.38-.25.26-.26v-.37l.3.14.2,0,.2-.39.5.37.32,0,0,.2.26.15.08-.11.46.25.14-.16.44.08.08.2.28.19.2-.33.66,0,.6-.35.22-.37.44,0,.38.25.26-.1-.46-.66a3.07,3.07,0,0,1-.08-.67l.62-1.12.44-.23.6-1.43,1-.36.29.37.51-.06,0-.17.34-.35h.79l.47.18.1.21.35.17.2-.35h.14l.18.1.31,0,.38-.33h.21l.12.18.38,0,.27-.41.26.16" transform="translate(-111.66 -154.35)" style="fill: rgb(210, 210, 230);"></path>
   <path name="Palestina" data-id="638" scale="5" move="10" id="path7667" class="cls-1" d="M140.48,274.13l0-.27.78-.55.44-.06.62-.51.26.12.18-.3.35-.19-.29-.35v-.59l-.22-.26-.06-.45.28-.39-.16-.18-.74.08-.16-.19,0-.36-.16-.1-.66.1-.2.1h-.3l-.16.29-.6.06-.44.4-.62-.2,0-.16-.54.59-.22.57-.28,0-.06-.16-.2.08-.22.47-.34.06-.3.61-.08.51h-.54l-.26.25-.16.47L135,274l0,.27.2.22-.2.41-.2.35.08.59-.26.31v.65l-.14.51-.34.14-.42.55-.06.35-.38.33-.46.83-.26.27-.05.62-.33.34.57.87.71.44.4.65.55.41.44.06.23-.27.37.24,0-.54.27-.63.17-.06.17,0,.64-.54.37-.64.26-.16.15-.54-.16-.19-.08-.64-.13-.09v-.23h.19l.55-.34.6-.13.29-.3h.28l.2-.2.07-.2.43-.24H140l.23-.18.13-.75h.12l.1-.29-.15-.13-.39-.41-.16-.41.06-.13.28-.08.24-.17-.17-.2.06-.31Z" transform="translate(-111.66 -154.35)" style="fill: rgb(210, 210, 230);"></path>
   <path name="Acevedo" data-id="617" scale="4" move="10" id="path7673" class="cls-1" d="M135.49,282.56l.27-.63.17-.06.17,0,.64-.54.37-.64.26-.16.15-.54-.16-.19-.08-.64-.13-.09v-.23h.19l.55-.34.6-.13.29-.3h.28l.2-.2.07-.2.43-.24H140l.23-.18.13-.75h.12l.1-.29-.15-.13-.39-.41-.16-.41.06-.13.28-.08.24-.17-.17-.2.06-.31.15-.26,0-.27.78-.55.44-.06.62-.51.26.12.18-.3.36-.2.24,0,.34-.14.26,0,.4-.43H145l0-.26.12-.29.42-.1.52-.68v-.63l-.3-.1-.26-.43.56-.84.76,0,.16-.18.2.08.34-.06-.14-.22.26-.21v-.34l-.1-.23.26-.53.28.14.6-.32-.06-.33.75-.08.13.32.42.11.2.26.66-.67.36.16,0-.28.28-.09.18,0v.32l.4,0,.26.29.54-.33.32.06.72,1.08,0,.19-.14,0-.06.49.72.9.28,0-.1.59.38.26,0,.23-.18.06,0,.45-.12.08-.12.71.36.21-.12.92.66,1-.34.06-.36-.26-.43,0-.11.32-.62.29-.59.08-.54-.29-.71.18-.79.54-.08.35-.2.29-.48.06-.22.46-.12.46-.62.34,0,.26-.16.2-.51.18-.29-.06-.5.17-.2.35.31.4-.11.37-.09.09,0,.46-.17.41-.5.2-.43-.12-.5.29-.91,1.38h-.2l-.36.43-.34.06-.11-.26-.54,0-.08.23h-.51l-.2-.4h-.23l-.39.37-.4.12-.08.63-1.5.52-.11.35-.42.06-.73-.08-.48-.34-.66-.05-.35.4-.41.06-.47-.24h-.43l-.34.1Z" transform="translate(-111.66 -154.35)" style="fill: rgb(210, 210, 230);"></path>
   <path name="Baraya" data-id="622" id="path7322" class="cls-1" d="M206.7,185.64l.07.39.42.16-.16.41.14.69.58.8.64.33.08.34.82.49v.57l.22.09.16,1.26.58.25v.42l-.6,1-.24.13.2.3-.44.15-.44.61,0,.26L208,195l-.3-.11-.2.27.28.22-.38.19-.34,1-.38.08,0,.32.3.33.34-.1h.26l.54.28.72-.38.4.14.48,1.2.32.27.7.13.35.34.7.12.13.27,0,.08-.47.08-.41,1.05-.57.82-.11.55-.56.08-.21,0-.53.56.21.14-.08.42-.4.34-.19-.23-.27.08v.35l-.33,0-.08-.13h-.24l-.47.36-.05.31-.22-.17-1.29,0-.05.45-.92-.2-.08-.91.54-.27-.12-.1-.12-1.22a1,1,0,0,0,.14-.35c0-.12,0-.45,0-.45l-.18-.18s.46-.41.46-.53.08-.8.08-.8l-.54-.43-.24.1-.54-.16-.2-.35-.36.21-.38-.43-.1,0-.16,0-.18-.45-1-.61-.18.14-.34-.26-.28.2-.28-.2-.3.26-.32-.14-.08-.47-.22-.1-.2.1-.32-.31-.94-.53-.6.68-.1.57-.3-.11-.08.31h-.28l-.4-.41-.32.51-.6-.16-.22-1-.6-.23,0-.28-.62-.23-.68-.81-.58-.16,0-.56-.48-.28-.14-.29.14-.16.46.39.34-.43-.28-.12.08-.29-.14-.2.38-.55.28-.13,0-.85-.38-.25.26-.26v-.37l.3.14.2,0,.2-.39.5.37.32,0,0,.2.26.15.08-.11.46.25.14-.16.44.08.08.2.28.19.2-.33.66,0,.6-.35.22-.37.44,0,.38.25.26-.1-.46-.66a3.07,3.07,0,0,1-.08-.67l.62-1.12.44-.23.6-1.43,1-.36.29.37.51-.06,0-.17.34-.35h.79l.47.18.1.21.35.17.2-.35h.14l.18.1.31,0,.38-.33h.21l.12.18.38,0,.27-.41.26.16" transform="translate(-111.66 -154.35)" style="fill: rgb(210, 210, 230);"></path>
   <path name="Palestina" data-id="638" id="path7667" class="cls-1" d="M140.48,274.13l0-.27.78-.55.44-.06.62-.51.26.12.18-.3.35-.19-.29-.35v-.59l-.22-.26-.06-.45.28-.39-.16-.18-.74.08-.16-.19,0-.36-.16-.1-.66.1-.2.1h-.3l-.16.29-.6.06-.44.4-.62-.2,0-.16-.54.59-.22.57-.28,0-.06-.16-.2.08-.22.47-.34.06-.3.61-.08.51h-.54l-.26.25-.16.47L135,274l0,.27.2.22-.2.41-.2.35.08.59-.26.31v.65l-.14.51-.34.14-.42.55-.06.35-.38.33-.46.83-.26.27-.05.62-.33.34.57.87.71.44.4.65.55.41.44.06.23-.27.37.24,0-.54.27-.63.17-.06.17,0,.64-.54.37-.64.26-.16.15-.54-.16-.19-.08-.64-.13-.09v-.23h.19l.55-.34.6-.13.29-.3h.28l.2-.2.07-.2.43-.24H140l.23-.18.13-.75h.12l.1-.29-.15-.13-.39-.41-.16-.41.06-.13.28-.08.24-.17-.17-.2.06-.31Z" transform="translate(-111.66 -154.35)" style="fill: rgb(210, 210, 230);"></path>
   <path name="Acevedo" data-id="617" id="path7673" class="cls-1" d="M135.49,282.56l.27-.63.17-.06.17,0,.64-.54.37-.64.26-.16.15-.54-.16-.19-.08-.64-.13-.09v-.23h.19l.55-.34.6-.13.29-.3h.28l.2-.2.07-.2.43-.24H140l.23-.18.13-.75h.12l.1-.29-.15-.13-.39-.41-.16-.41.06-.13.28-.08.24-.17-.17-.2.06-.31.15-.26,0-.27.78-.55.44-.06.62-.51.26.12.18-.3.36-.2.24,0,.34-.14.26,0,.4-.43H145l0-.26.12-.29.42-.1.52-.68v-.63l-.3-.1-.26-.43.56-.84.76,0,.16-.18.2.08.34-.06-.14-.22.26-.21v-.34l-.1-.23.26-.53.28.14.6-.32-.06-.33.75-.08.13.32.42.11.2.26.66-.67.36.16,0-.28.28-.09.18,0v.32l.4,0,.26.29.54-.33.32.06.72,1.08,0,.19-.14,0-.06.49.72.9.28,0-.1.59.38.26,0,.23-.18.06,0,.45-.12.08-.12.71.36.21-.12.92.66,1-.34.06-.36-.26-.43,0-.11.32-.62.29-.59.08-.54-.29-.71.18-.79.54-.08.35-.2.29-.48.06-.22.46-.12.46-.62.34,0,.26-.16.2-.51.18-.29-.06-.5.17-.2.35.31.4-.11.37-.09.09,0,.46-.17.41-.5.2-.43-.12-.5.29-.91,1.38h-.2l-.36.43-.34.06-.11-.26-.54,0-.08.23h-.51l-.2-.4h-.23l-.39.37-.4.12-.08.63-1.5.52-.11.35-.42.06-.73-.08-.48-.34-.66-.05-.35.4-.41.06-.47-.24h-.43l-.34.1Z" transform="translate(-111.66 -154.35)" style="fill: rgb(210, 210, 230);"></path>
</svg>