<svg id="Capa_1" data-name="Capa 1" xmlns="http://www.w3.org/2000/svg" viewBox="0 0 72.34 122.55">
   <defs>
      <style>.cls-1{fill: #ebebef;;stroke:#fff;stroke-miterlimit:3.86;stroke-width:0.25px;}</style>
   </defs>
   <path name="XXXX" id="path5020" class="cls-1" d="M183.22,236l-.26.19-.36,0-.32-.18-.22.18-.36.38-.24,0-.16,0-.2-.06-.49.26-.05.35-.36-.06-.36.26,0,.25-.49.19-.29-.06-.18.31v.28l-.63.33-.29-.13-.13.57-.56.86-.58.29-.41.82.16.08L176,242l-.25-.14-.24.51.13.51-.67.35-.29,0,.07.51-.2,0h-.36l-.14,0-.29.09-.09.2h-.13l-.25-.14-1.25-.08,0-.2-.36.35-.36-.18h-.72l-.33.33-.63.4-.18-.24-.33.09-1.19,0-.13.29-.76-.16-.72.62v.2h-.25l0-2.85.2-.11.12-1.71.71,0,.08.24.17.11.21-.22,0,.09H168l.1.17h.3l.3-.19.13-.34.55-.22.79-.3.27-.64.19-.36,1.65-.1.25.29.27.11.35-.06.16.14v.33l.55.18.87-.25.6-.28.21.1.08-.46-.1-.18H176l.49-.5.1-1.4-.21-.3-.08-.28.19-.16-.06-.73-.32-.17-.06-.47.27-.06.28-.41h.6l.05.21.38.11.3.23,0-.16.22-.15.07-.28.6-.44.12-.25.46-.39.42-.09-.05-.19.3-.31.44-.12.13-.39.44-.14.54.09.25.25.13,0,.16-.33.19-.06.31,0v-.58l.23-.16.17.21h.59l1.12-.53-.18-.2.84-.69,0-.31.73-.45,0-.2.06-.18.8.08.22-.18.44-.13-.13-.17v-.19l.07-.15,0-.6-.11-.23.08-.23.24.07,1.38-.17.11-.14.57.08.22.3.51.07L191,227l-.09-.11,0-.15,0-.19.22-.25.33-.06-.13-1.23.21-.16,0-.19.33-.14.21.33.14-.19.54,0,0-.6.37,0,.06-.11h.43l0,.67h.25l0,.12-.41.53,0,.07.43,0,.32.14.08.55-.1.28.1.09.12.95.41.22.32-.29,1.12-.13.26.36.34.06.32-.23.14-.23h.21l.92-.17.17-.08h.4l.2-.19-.12-.09v-.19l.23.13.13-.14.25,0,.39.27,0,.21.3.39-.19.55.18.23,0,.42.16.34-.39.28-2.1,1.12-.76.45-.21-.08-.18.15h-.13l-.11-.33-.1-.26-.18-.07-.3,0-.22,0-.07.17-.16.16-.23,0,0,.31-.26,0-.58-.15-.25.24-.28,0-.25.12-.13-.14h-.13l0,.3-.22,0-.23.15L193,231l-.13.09h-.12l-.07-.09-.3.12-.14.21h-.15l-.41-.16-.28.19-.2.35-.5-.13.06-.5-.26-.23-.47-.06-.14.3-1.12,0-.42.25-.47.57,0,.39-.4.15-.21-.2-.4.36-.07.25-.32.11,0,.31-.45.37-.5.39-.15.59-.52.55-.46.26-.62.4-.22.25Z" transform="translate(-141.83 -141.46)" disabled="disabled" style="pointer-events: none;"></path>
   <path name="XXXX" id="path5009" class="cls-1" d="M198.94,223.39l.34-.38.08-.26-.21-.3-.09-.27-.19-.92-.11-.4-.15,0,0-.35-.35,0-.14-.36-.42-.07-.17-.12-.11-.25-.28,0-.32-.17-.12-.17-.18-.44-.38-.15-.35-.12,0-.45-.3-.28-.12-.29.1-.25-.4-.26-.09-.34-.29-.18-.09-.13,0-.25-.23-.31-.28-.19-.09-.2,0-.28-.37-.28-.4-.22-.12-.42-.37-.5-.27-.11-.24.09-.58-.3-.3.21-.29.07-.2-.32-.37-.25-.1-.19-.07-.36-.21-.87-.39-.31-.4-.14-.28-.66-.27-.31-.18.13H188l-.42.75-.56-.46-.36.16-.65-.05-.49.31.13.2-.29.57-1.12.07-.4.28-.18.27-.27,0-.45-.4-.29-.15,0-.13.25-.22-.09-.16-.38,0-.54-.35-.6.15-.13-.24,0-.24-.22-.14-.38.27-.21-.2H180l-.36.24-.14,0-.62.26-.09.18-.38.09-.56.51-.11,1-.43.55,0,.2.18.16-.31.41.13.09v.44l.12.16-.14.17.07.22-.23.14-.11.69v.25l-.24.14.13.17,0,.6-.21.28.21.07.31.77,0,.6-.32.17-.18.51-.22.31.27.11-.07.4.36.61-.2.27.36.46.42.16.23.22.76,0,.27.22,0,.15.18.38-.09.24.05.44.4.11.27-.07,0-.33.11,0,.5.24v.4l.44,0,.25.4-.22.22,0,.24.13.8.79.66h.17l.14.2,0,.26.22.13,0,.4-.34.53,0,.31-.22.24,0,.31-.23.24.23.15-.21.56.07.19.23-.13,0-.2.2-.26.3,0,.29-.2.06-.9.29-.37.79-.33.31-.31h.56l.6-.64h.34l.11-.27-.15-.11.26-.37,0-.24h.22l.4-.38,0-.15.22-.07.2.09.45,0,.92-.73.44-.09.61-.64.56-.24a1,1,0,0,0,.6,0l.31-.13.27.15.45-.42.94.16-.07-.36.25,0,.49.18.07.22h.29l.76.24.16-.13.2.13.45-.17.38.15.22-.15.25,0,0,.42h.45l.13.42.18-.29h.18l.45.18h.36l.35.13.14-.31.36-.11-.21-.22.14-.09.72,0Z" transform="translate(-141.83 -141.46)" disabled="disabled" style="pointer-events: none;"></path>
   <path name="Aracataca" data-id="669" scale="2.5" move="15" id="path4218" class="cls-1" d="M208.1,168h-.48l-1-.39-.15.16c0,.06-.69-.11-.69-.11l-.68-1.08-1.32-.34-.31-.61-.54,0-.25.18-.43.43-.27,0-.21.23-.52,0-.08,0-.67.48-.35.3-.33.48v.38l-.16.26-.25.16-.08.19,0,.38-.19.23-.72.27-.62.47-.38.17-.09.33v.09l-.25.4-.49.19-.3.17-.42.41-.35.18-.61.46-.28.06-.2-.06-.31,0-.48.3-.24.1.05.22-.16.18-.09,0-.19-.23-.18.21-.08.3-.23.22-.18-.07-.23,0,0,0,.28.07-.12.21-.25-.07-.19-.06-.42.13-.26.06-.2.23-.54.43-.46.23-.46.14-.22.27-.51.28-.2,0-.08-.07-.07.09,0,.17-.12.26-.16.14-.42.35-.71.24h-.26l-.35.26-.34.27v.42l-.13.24,0,.31-.16.5-.33.16-.2.24,0,.14-.32,0-.24-.22-.21-.11-.13-.26,0-.17-.16-.45-.17,0-.09.14-.37,0-.16.08-.14-.17v-.19l-.09-.11-.19,0-.19.09-.32,0-.23.05,0,.07-.37,0-.21-.15-.18-.24-.17-.11-.21,0H181l-.14-.16-.09-.31-.14-.19-.3-.17-.4-.19h-.5l-.15,0H179l0,.15-.06.07-.14-.1h-.07l-.17-.26-.42-.09-.13,0-.17-.24h-.25l-.16,0-.14.06-.19-.06.21.43.22.08.16.67-.12.15.11.44.2.09,1.28,1.78.5-.11.34.2.18-.09.17,0-.05.48.45.11,0,.23-.14.33v.37l.43.94-.3,0-.35,0h-.54l.1.32-.29.14-.32.27.13.17,1,.31.43,0,.29.34-.05.15.2.12,0,.24.27.1,0-.15.17-.12.2-.19.15.12.25.17.24.39h.18l.2.08.1-.05,0-.27.12-.1.15.1,0,.24-.05.17.05,0,.25,0,.13.19-.38.22-.12.17.17.25.3-.05.1-.17h.13v.19l.07.15.25-.12.07.14.25.2.3.2h.4l.17.05.3.19.15.27,0,.34.15.52.15.19.15.22.14,0,0-.24.2-.15.22.3.47.1h.3l.3.47.17-.07.18-.1.12.07.39,0,.21-.22.86-.45,1.26-.37.14-.12.34-1,.21-.23.23-.57s.3-.08.35-.15a1.24,1.24,0,0,1,.26-.19l.14.07.28.33h.09l.12-.08.53-.07.58-.44.37-.36v-.6l.14-.12.19,0,.27,0,.49.34h.23l.05-.09h.46l.38.07.16.17h.19l.09-.12v-.24l.07,0,.28.07.63.1.37-.12.34-.33.28-.21.51-.1v-.21l.16-.07.18.12.16,0h.21l0-.07.41-.43.15-.08.14-.26.06-.16.19.05.46-.12.42,0,.23-.37.23-.24.43-.12.18-.05.09-.24.3-.11.31,0,.28.13.16.19H205l.11-.26,0-.34.28-.18s0-.1.13-.08l.21,0,.17-.08,0-.16.21-.17.39-.09.37-.32.56-.2v-.31l.35,0,.42-.36.1-.3-.19-.15-.06-.36-.24-.21.11-.2H209l.25-.09.16-.2.52-.11.27,0,.06-.19.26-.32-.19-.8.36-.15.08-.34.42-.2-.17-.85.44-.3.37,0v-.54l.27,0,.19.32.67-.27-.21-.27,0-.27.47-.27-.14-.38v-.26l.29,0,.65-.49-.48-.35-.6,0,0-.24-.28-.28-.47.07-.3-.52-.51-.11h-.6l0-.38-.45.14-.39,0-.28-.19-.31.21-.25-.11.33-.44-.34-.28.2-.34.25-.14.16-.26Z" transform="translate(-141.83 -141.46)" style="fill: rgb(210, 210, 230);"></path>
   <path name="Santa Marta" data-id="667" scale="2" move="10" id="path5103" class="cls-1" d="M210.71,167.94l.19-.28-.46-1,0-.57-.19-.29.12-.34-.54-.31-.54-.83v-.78l-.28-.36.23-1.05-.32-.32.14-.55-.74-.87-.51-.32.37-.73,0-.68.39-.11,0-.26-.23-.19v-.31l.69-.59.14-.46-.52-.11.1-.23-.23-.16.39-.42-.42-.23.38-.18-.19-.23-.28-.13.28-.19v-.45l.39-.24.08-.41-.32-.21,0-.39-.35-.06-.16-.14.21-.17-.18-.16,0-.24h.35l0-.23.2-.13.31.18.3-.25.55-.25.15-.78.31,0,.15-.38.57-.32.28.08.31-.22-.21-.32.07-.17.23-.08.12-.78-.16-.34v-.16l.38,0L212,148l.25-.09.12-.12-.1-.18.34-.07.17-.79-.24-.32-.06-.31-.79,0-.17-.09-.75.13-.48.16-.62,0-.49.19-.34-.11-.88.16-.26.11h-.2l-.17-.18-.81-.2-.24-.12-.25.12-.09.12-.15-.05-.24.17h-.19l-.58-.08-.1-.14-1-.22-.79-.28-.38,0-.44.5-.74,0-.81-.24-1.1-.27-1-.32h-.77l-.22-.29-.63-.31-.77-.64-.4-.29-.49,0-.28-.1-.2-.17-.57-.14-.13-.11h-.2l-.19-.12-.54,0-.22-.14,0-.17-.16-.21-.09.12-.13-.14,0-.2h-.23l-.06-.13-.21,0-.06.09-.22-.18.14-.1-.14-.15h-.52l-.11.17-.24-.3-.49,0-.22-.12-.19.19-.13-.25-.28.09-.24,0,0-.17h-.21l-.16.09,0,.16h-.22l0,.17-.13-.06-.23-.17,0-.22-.11-.12-.19.08-.31.12-.1.2.11.24.16.12-.16.29-.17.05-.14-.06h-.24v-.15l.21,0-.19-.25-.14-.06,0-.17.11-.15h-.17l-.11.25-.28-.08-.11-.12,0,.18-.07.32-.15.06.26.29-.08.22,0,.17-.11.23-.3-.09.08-.22-.14.11-.08-.11-.22.19-.19-.13-.14-.27.12-.25.11-.11-.11-.31-.11.11-.19-.1-.12-.09,0-.29-.06-.11-.27.21v.16l.21.36,0,.15.21.17.08.2-.13.14-.11.19-.17-.08.08-.14-.05-.11-.24,0-.14-.17.13-.11-.35-.14-.06-.15-.21.07v.16l.05.09-.11.22.2.2-.17.11-.16,0-.09.08h-.16l.08-.16v-.31l-.19.09-.27-.12.21-.2v-.17l-.37-.11v.18l-.23.07-.05.34-.24.09-.22-.14-.09.09.39.5.1.3.26.17v.14l.13.12-.36.16-.19,0-.1-.15h-.12l-.11.29-.25-.06,0-.34.16-.16-.27,0-.12-.06-.11.09-.11.08-.16-.05-.14.1-.08.2-.16,0v-.14l-.19-.08-.11,0,0,.26.16.11-.09.2-.16.33-.11.17,0,.16h-.11l-.08.16-.2,0v.23l.31,0,.13-.06,0,.2.27,0,0,.15-.18.05-.22.08-.11.15-.52.17-.28-.06-.22.22.06.11.2-.14.1.07-.11.14.08.1v.26l-.3.37-.19.13,0,.12h-.27l-.17.13-.13.26h-.13l-.09.05.22.23.13.06v.19l-.1.11.24,0,.09.38-.19.74-.33.25v.17l-.12.09.09.16.22.14.21.78.19.65-.24.48-.11.4.05.23-.11.19v.09l.18,0v.23l.13.21.27.07.17.42.1.48-.08.39.14.29.34-.19.18-.31.27.11.72-.55.31-.28h.36l.11.13.79-.16h.6c.13,0,.29.2.29.2l.34-.33.11,0,.42-.18.32.18.27,0-.18.4.24.22v.7l.32.05c.17,0,.2.24.2.24l.47-.29.11.22.11.24-.11.29.47.33.6-.22.36,0,.31-.33.41,0a2,2,0,0,1,.22.44c0,.09-.18.13-.18.13l-.06.66.31.24.27-.13.06.2.68.22.13.15.16-.06,0-.42.29.07.45-.07.33.29v.19l.38.33.09.4.29-.13.54,0,.23.27.49,0,.47,0,.47.24.24-.15.59,0,.2-.28.33.39v.49l.16.11.16-.07.35.05.21.26.78,0,.47,0,.33.44-.22.27-.11.33.33.37-.09.49-.13.2.11.46-.2.17.2.38-.31.35.16.22-.21.42-.4.13,0,.33-.16.31.34.09,0,.44.36-.06v.08l.29.36-.09.31.47.17.6-.35v.33l.47,0,.34.22.45-.2.27.16.8-.09.32-.29,1.11-.53.34.28.29-.22.54,0,.31.61,1.32.34.68,1.08s.65.17.69.11l.15-.16,1,.39h.48l1.47.74.17-.26Z" transform="translate(-141.83 -141.46)" style="fill: rgb(210, 210, 230);"></path>
   <path name="XXXX" id="path5138" class="cls-1" d="M178.26,182.26l.13.06.19.31h.1l.06.17.3.15.37.12.31-.26.29-.14-.1-.32h.54l.35,0,.3,0-.43-.94V181l.14-.33,0-.23-.45-.11.05-.48-.17,0-.18.09-.34-.2-.5.11L177.9,178l-.2-.09-.11-.44.12-.15-.16-.67-.22-.08-.22-.43-.15-.41-.21-.36-.26-.23,0-.33-.09-.24-.25-.23-.37-.12-.3-.1-.26,0-.26-.4-.37-.19-.11-.06v-.28l-.13-.07.06-.19v-.1l-.12-.07h-.14l-.21-.37-.09-.07-.19,0-.44-.12L173,172l-.44-.21-.5-.12-.19-.13,0-.2,0-.18-.31.1-.4.39-.15.71-.3.37-1,.51-.55.1-.32-.12-.22.12-.1,0,.15-.36-.47.19.07.25.17.12.2.41-.17.32-.2.08-.07.39-.1,0,.1.14-.08.1-.15.05-.15.34-.37.22.07.52.15.05.2-.18.33.1.27.22.4.15.24.34.28.22.34.49.15.12.28.05,0,.1.25,0,.27-.12h.5l.22.15v.14l.3.39.27.2h.3l.37,0,.32.2.72.1.43-.15.07-.12.12,0,.13.18.22.09h.23l.15.08,0,.12.25.07.28,0,.19.1v.12l.2.44.28.2.22.1.37.12v.17l.23.39.1.2.37.27.1.29.27.66Z" transform="translate(-141.83 -141.46)" disabled="disabled" style="pointer-events: none;"></path>
   <path name="XXXX" id="path2693" class="cls-1" d="M170.67,230.62l-.47.13-.36.27,0,.11-.7.11,0-.31-.27-.24-.27,0-.36-.4-.33-.05.44-.74-.65-.09-.14-.25h0l.34-.4.1-.31.85-.49-.36-.09-.38-1.06-.43-.4.23-.22.17-1.12.23-.07.09-.37.33-.22,0-.49.33-.26,0-.66.42-.2-.38-.51-.83.46-.42-.13V222l-.27-.55.4-1.35.23-.29-.67-.39-.27-.24-.88-.09-.67-.38v-.22l-.24-.22.76-.22.09-.48.6-.75h.23l.15-.14,1.3-.46,0-.33.72-.53v-.53l-.22-.09.27-.22,0-1.3.38-.68.83-.64.32-.45.33.1-.2.37.2.09.13-.2.54,0,.29.35.41-.05.8.84,0,.24-.11.16.49.46.3.49.35-.14.34.44.63.25.6.66.11.37h.52l.11.27.22.15v.24l-.24.14.13.17,0,.6-.21.28.21.07.31.77,0,.6-.32.17-.18.51-.22.31.27.11-.07.4.36.61-.2.27.36.46.42.16.23.22.76,0,.27.22,0,.15.18.38-.09.24.05.44.4.11.27-.07,0-.33.11,0,.5.24v.4l.44,0,.25.4-.22.22,0,.24.13.8.79.66h.17l.14.2,0,.26.22.13,0,.4-.34.53,0,.31-.22.24,0,.31-.23.24.23.15-.21.56.07.19-.09,0H181l-.16.4-.22.24,0,.28-.11.07-.16,0-.38.24-.4.35-.31-.31-.21.12-.11.24h-.31l-.23-.13-.08.19-.56.07-.38,0-.27.37-.38.18-.07-.49-.25,0-.06-.22-.41-.42-.6-.31-.36.26-.49.09-.45-.17-.48.3-1,.75-.23,0-.06-.12-.17,0,0-.27-.07-.07.09-.19-.09-.19-.72-.33v-.18l-.39-.45Z" transform="translate(-141.83 -141.46)" disabled="disabled" style="pointer-events: none;"></path>
   <path name="XXXX" id="path2663" class="cls-1" d="M168.09,209.51l.18,0,.69,0,.22-.34.7-.53h.19l-.24-.36-.14-.14V208l-.24-.18.29-.13.06-.5-.13-.08.18-.35.16,0,.33-.61,0-.28-.25-.09.06-.24-.23-.23.17-.17.13-.49.14-.28.35-.12,0-.23-.19-.18,0-.45-.36-.23-.24-.38-.46-.14-.22-.14-.05-.21-.7-.89-.41-.22v-.42l-.54-.11-.36-.25-.12-.26-.5-.07v-.31l-.21-.2-.36,0-.25-.25.07-.27-.12-.2-.5-.11-.56.11-.29.28-.31,0-.4.45-.81.22-.33-.11-.24.29-.17-.17-.35-.06-.41.2-.43-.2.05-.38-.36-.1,0,.42.23.39-.19.43-.34.42v.42l.09.19-.42.22,0,.22h-.68l0,.3.18.22-.18.23v.42l-.44,0-.37-.17-.33.25.21.09.09,1-.22.17.32.11.09.19.26.09,0,.33-.11.22.21.56-.13.53-.27,0-.38.34-.44.08-.09-.14-.1.11,0,.45.22.48-.3.17,0,.41-.19.06-.39-.11-.29-.34v-.24l-.3-.07,0,.21,0,.19.16.23-.15.11,0,.6.27.62.52.14.14.51.71-.12.1.23.58.14h.4l.12.31h.34l.69.23.3.35h.4l.6.6.16.44.75.46.18-.69.06-.54.27-.38.19-.6-.15-.23-.5-.29-.07-.4.18-.41.19-.22.12-.29.36,0h.32l.6.34.6,0,.6-.3.48-.42,2.23.86.06.09Z" transform="translate(-141.83 -141.46)" disabled="disabled" style="pointer-events: none;"></path>
   <path name="XXXX" id="path2649" class="cls-1" d="M154.44,200.17l-.15-.13.38-.56-.12-.24,0-.14.68,0-.33-.68-.24-.39-.2.07-.33-.23h-.56l-.13.15-.34,0,0-.36.06-.11-.13-.18-.54.17v-.27l-.25-.32-.32.09-.19.2h-.68l-.38-.18-.14-.19-.47-.09-.29-.41-.57,0-.19-.31-.66,0-.64.25-.71.77-.09.51.09.2-.2.25-.79.41.07.14-.44.75,0,.13.27,0,.22-.16.22,0v-.16l.27.14.35-.06.27-.25.17,0,.25-.27.73-.28.59.39.17.32.4.06.2-.08.19.12,0,.25.31.11,0,.55,1.05.71.27,0,.27.3.49,0,.53-.23.24-.28.24.24.24-.15.28-.53.22.09.23-.13Z" transform="translate(-141.83 -141.46)" disabled="disabled" style="pointer-events: none;"></path>
   <path name="XXXX" id="path2713" class="cls-1" d="M182.3,178.08l-.05.08-.37,0-.21-.15-.18-.24-.17-.11-.21,0H181l-.14-.16-.09-.31-.14-.19-.3-.17-.4-.19h-.49l-.06,0,0-1.56-.32.25h-.19l-.19-.37-.38,0,.22-.45v-.6l-.39-.17-.1-.7-.24-.28v-.47l.14-.6-.21-.18v-.28L178,171l.05-.52-.08-.14h-.35l-.69-.53-.07-.36.35-.35.06-.67.08-.15v-.22l-.5-.08-.15-.26-.23-.08.11-.09.06-.36.27-.07,0-.17-.17,0-.1-.39.24-.05.1-.13.31.05.1.17.22-.36.28-.06.13.08-.13.22h.75l.22-.14h.24l.14-.23-.1-.26-.16,0-.11-.2.26-.5,0-.38-.76,0-.3-.13,0-.43.8,0,.08-.17-.2-.24,0-.23-.17-.08.23-.36.3.11,0-.4.21-.14-.18-.19.18-.16-.16-.17a4.5,4.5,0,0,0,.49-.06c.09,0,.09-.08.09-.08l-.08-.23h.19l.57-.28.53.18.23-.15h.37l.58.28.35.65-.06.24-.14.09.3.41.31,0,.11.64.21.15-.27.36-.25-.16.09.44.35.59-.13.08v.56l.22.22.37.58.11,0,0-.32.22-.15.25,0,.32-.72-.27-.27v-.71l.22,0,.64.44V165l.14.28-.11.28-.35.28.14.16-.14.57.65,1,.17.59h-.26l0,.16-.18,0,0,.16-.1.08.07.1h.17l.6.34.18.47,0,.31-.17.3,0,.14.2,0,.05.06-.08.13,0,.17-.23.34v.84l-.12,0,0,.33-.24.29h-.24l-.12.39-.22,0-.4.39-.33.2-.24.13.17.28H184l-.33.43.19.24-.14.12.21.44v.11l.31.15v.24l-.56,0-.39.29.12.08.11.34h-.23l-.4.44-.11.05.05.25-.24.06-.17.19,0,.14h.22l.09.17-.23.2-.15.06,0,.21Z" transform="translate(-141.83 -141.46)" disabled="disabled" style="pointer-events: none;"></path>
   <path name="XXXX" id="path5157" class="cls-1" d="M176.31,159.68l-.87.28-1.36.52-1.9.3-2.49,0-.39,0h-1.81l-1.64-.39.05,6-.05.35.09.31-.05,0-.07.32.05.27a.86.86,0,0,1,.1.34,4.08,4.08,0,0,0,0,.61l.47.34.32.42v.73l.13.81-.2.83.15.32,0,.81.07.49.15.12.37,0,.43-.17.15-.17.57-.24-.15.36.1,0,.22-.12.32.12.55-.1,1-.51.3-.37.15-.71.4-.39.3-.1,0,.18,0,.2.19.13.5.12.44.21.26.21.44.12.19,0,.09.07.21.37h.14l.12.07v.1l-.06.19.13.07v.28l.11.06.37.19.26.4.26,0,.3.1.37.12.25.23.09.24,0,.33.26.23.21.36.14.4.21.07.14-.06.16,0h.25l.17.24.13,0,.42.09.17.26h.07l.14.1.06-.07,0-.15h.28l.09,0h0l0-1.55-.32.25h-.19l-.19-.37-.38,0,.22-.45v-.6l-.39-.17-.1-.7-.24-.28v-.47l.14-.6-.21-.18v-.28L178,171l.05-.52-.08-.14h-.35l-.69-.53-.07-.36.35-.35.06-.67.08-.15v-.22l-.5-.08-.15-.26-.23-.08.11-.09.06-.36.27-.07,0-.17-.17,0-.1-.39.24-.05.07-.15-.1-.22-.41.09-.07-.2-.27.06-.17-.14.14-.14.07-.17.34-.11v-.2l-.22-.18.15-.4.17-.05,0-.12.26-.13.32-.42-.08-.28v-.23l-.33-.42.06-3.78Z" transform="translate(-141.83 -141.46)" disabled="disabled" style="pointer-events: none;"></path>
   <path name="XXXX" id="path5162" class="cls-1" d="M153.55,173.49l1-.06.41.13.32-.18.33.22h.73l1.53-.48.1.11-.08.34.2.11v.16l.15,0,.15-.3.45,0,.16-.06.09.11.56-.05.63-.76.27.29,1.2-.34.41-.31.62,0,.65-.29,1-.05,1.07.25.49-.16.58.34-.26.48.07.74.6,0,.17-.12-.16-.11-.07-.49,0-.81-.15-.32.2-.83-.13-.81v-.73l-.32-.42-.47-.34a4.08,4.08,0,0,1,0-.61.86.86,0,0,0-.1-.34l-.05-.27.07-.32.05,0-.09-.31.06-.35-.07-6-.14,0-1.36-.21-.28-.17-.35,0-1.1-.41-2.45-.81-.71-.17-1.57-.32-1.07-.54-.75-.37-.27-.15L152.6,156l-.28-.14-.21-.17-1-.46-.52-.06-.38-.16-.06-.11-.15-.06-.46.07-.91-.28-.49-.23-.63-.17-.57-.3.16.32.08.48.17.21.21.32v.28l0,.41.35.72.46.46.25.23.26,0,.12,0,.68,0,.38.11.3.52.26.18.74,1,.61,1.21.1.46,0,.34,0,.27,0,.29,0,.06v.29l0,.33.1.36.31.27.42.17.19.17.53.23.29.16,0,.31-.72.56-.2.28.05.4,0,.32,0,.3-.07.2,0,.6-.2.53v.46l.3.82v.68l.22.78.25.49.08.72-.2.52,0,.72.09.78Z" transform="translate(-141.83 -141.46)" disabled="disabled" style="pointer-events: none;"></path>
   <path name="XXXX" id="path5167" class="cls-1" d="M153.68,174.13l.09.46v.76l-.25.86-.21.27-.26.14-.32.16-.3.3,0,.22.14.35.55.48.21.17.23.69,0,.32,0,.3-.38.54,1,.26.43-.15.34.08.13-.66.6-.25.4,0,.08.11.23,0,.07.34.33.4v.47l.19.2.6-.28.13.1-.34.78-.11.67.49.28.43,0,.46-.21.24.18-.14.25.06.24,3.13,0,.33.28.38-.17-.14-.23.18-.49-.24-.22.49-.21h.27l.25-.33.1.1.95.17.07-.34.13-.18.41.46.21-.16.16.14.42-.14.26-.4.6-.39-.16-.38,1.41-1,0-.45.38-.55-.08-.42-.33-.08.41-.57-.24-.36h-.17l-.26-.17.05-.3-.05-.41-.15,0-.07-.52.37-.22.15-.34.15-.05.07-.1-.09-.14.09,0,.08-.39.2-.08.17-.32-.2-.41-.17-.12-.08-.24-.09,0-.15.17-.43.17-.35,0-.18.12-.6,0-.07-.74.26-.48-.58-.34-.49.16-1.07-.25-1,.05-.65.29-.62,0-.41.31-1.2.34-.27-.29-.64.76-.55.05-.09-.11-.16.06-.45,0-.15.3-.15,0v-.16l-.2-.11.08-.34-.1-.11-1.53.48h-.73l-.33-.22-.32.18-.41-.13-1,.06Z" transform="translate(-141.83 -141.46)" disabled="disabled" style="pointer-events: none;"></path>
   <path name="XXXX" id="path5172" class="cls-1" d="M149,187.45l.58-.18L150,187l1,0,.11.07,1.35.14.52.31.3-.17.55.07.13.11.56-.14,1-.79.21-.53.44-.56.54-.63.2-.53V183l.17-.16.06-.64.11-.68.34-.78-.13-.1-.6.28-.19-.2v-.47l-.33-.4-.07-.34-.23,0-.08-.11-.4,0-.6.25-.13.66-.34-.08-.43.15-1-.26-.24.34,0,1.69-.23.58-.8.31-.3.29-.57.08-.26.45-.26.33-.28.31-.28.06-.23.15-.15.5.05.29-.08.24-.3.27-.07.45-.14.75Z" transform="translate(-141.83 -141.46)" disabled="disabled" style="pointer-events: none;"></path>
   <path name="XXXX" id="path5177" class="cls-1" d="M146.39,191.22l.17,0,.34.32,1,.5.49-.06.25.39h.25l.18-.09h.11l.08.2.44,0,.14.34.43.47h.4l.46.56.17-.22h.6l.11.17h.32l0,.31.09.17,0,.39.53.33.19-.06.42.89.8.53h.37l.13,0,.13.36v.27l.43.59h.25l.29.53.24.16,1-.42.25,0,.29-.14.16.18v.21l.27.18v.27l.19-.06.39-.11.3.06h.41l.35.23.19,0,.22.42.21,0,.12.09h0l.37.11-.05.38.43.2.41-.2.35.06.17.17.24-.29.33.11.81-.22.4-.45.31,0,.29-.28.55-.12-.06-.43-.33-.39v-.49l-.32-.25-.43-.38v-.29l-.47-.16-.21-.09-.17-.33-.51-.34,0-.21-.14-.09.08-.17-.07-.19-.88-1,.15-.49v-.59l-.21-.37.08-.21-.55-.36,0,.08-.49,0-.4.25-.39,0-.13-.11-.46.22v.19l-.29.06-.23-.37v-1.33l-.09-.14.09-.12,0-.21-.14-.14-.11-.51.14-.13.08-.31-.27-.37-.13-.45.14-.05h.15l.09-.51-.2-.19,0-.58.24-.22.07-.51-.64,0-.38-.18-.27.07-.17.21-.13-.44-.36-.31-.22-.22h-.26l-.45.57-.21.53-1,.79-.56.14-.13-.11-.55-.07-.3.17-.52-.31-1.35-.14L151,187l-1,0-.49.23-.57.17v.5l-.14.33-.29.45-.19.32-.18.22-.25.16-.5.22-.51.3-.35.51-.19.39Z" transform="translate(-141.83 -141.46)" disabled="disabled" style="pointer-events: none;"></path>
   <path name="XXXX" id="path5182" class="cls-1" d="M144,198.37l.75,0,0,.31-.14.28.44.28.2.3.5-.08,0-.14.44-.75-.07-.14.79-.41.2-.25-.09-.2.09-.51.71-.77.64-.25.66,0,.19.31.57,0,.29.41.47.09.14.19.38.18h.68l.19-.2.32-.09.25.32v.27l.54-.17.13.18-.06.11,0,.36.34,0,.13-.15h.31l.09-.3.16,0,.07-.2.18-.06.09-.16,0-.32.29-.37-.4,0-.8-.53-.42-.89-.19.06-.53-.33,0-.39-.09-.17,0-.31H152l-.11-.17h-.6l-.17.22-.46-.56h-.4l-.43-.47-.14-.34-.44,0-.08-.2H149l-.18.09h-.25l-.25-.39-.49.06-1-.5-.35-.33-.16,0,.05,1-.2.55-.16.44-.69.94-.12.3-.45.5-.24.95-.33,1.16-.29.46Z" transform="translate(-141.83 -141.46)" disabled="disabled" style="pointer-events: none;"></path>
   <path name="Fundacion" data-id="678" scale="2.5" move="16" id="path4224" class="cls-1" d="M211.18,177.68l-.12.4.05.41-.21.25.09.57.43.36-.16.15,0,.77-.28.59-.5.12-.17.31.59,0,.43,0V182l.31.35.93.32-.18.27.38.28,0,.85.32.28-.19.41-.48.11-.16-.17-.35,0-.32.28-.37.11-.19-.29-1.08,0-.23.33h-.18l-.36-.26-.39.21,0,.27-.08.43-.35.13V186l.31.38,0,.29-.36.28-.47.16-.66-.3-.36-.17-.29.08-.23.11-.29-.05-.09.19.16.32,0,.19-.16.09-.07.14.28.14-.17.1-.13.16v.14l-.12.19-.19-.06-.16-.08H205l-.25.22v-.24l-.54-.1-.29.1-.15,0,0,.19-.39.17-.15.26,0,.17-.14.21-.41.07-.19.24-.16.21h-.26l-.16.16.07.08-.12.21-.25,0-.07-.1-.1,0-.23.26-.12-.1H201l-.09.07-.21-.07h-.25l-.28.22-.09.18-.08-.11-.27-.07-.42-.39v-.23l-.23.14-.45,0h-.09l-.28.09-.13.29-.21.09-.4-.12-.23,0-.19.26h-.18l-.33-.07-.14-.1-.16.07-.21,0,0,.09,0,.13-.21.09-.32,0-.33.11-.46.24-.21.21-.3.17,0,.1,0,.21-.07.16-.16.17-.18.11-.29,0-.23.35-.33.08,0,.24-.25,0-.14.2.2.07,0,.24v.23l-.16.12-.1.18.24.25,0,.26-.09,0h-.17l-.05.12.11.17-.15.31,0,.26-.07.09h-.2l-.07.15.05.08-.09.18-.44.33-.47.22,0,.08-.7-.47v-.39l-.52-1.32-.21-.2V194l-.46-.31.17-.25-.3-.28-.27,0-.2-.37-.33,0,.09.21-.09.46-.29.07-.28.21-.73-.84-.35-.85-.79-.63,0-.28-.68-.79-.14,0,0,.14-.24.25v.17l-.38.34-.15,0-.28-.14-.29.09-.22.25-.38,0v.25l-.26.18-.23.38-.37-.5-.39-.2-.32-.6v-.17l-.32-.12V190h.28l.07-.47-.19-.08v-.23l.19-.2-.24-.35.11-.7-.16-.33-.3-.15,0-.27-.29-.37-.06-.31.17-.1.05-.39-.22-.15-.49-.1-.51-.26-.22-.52v-.67l-.16-.37-.31-.18-.05-.52-.36-.38-.28-.07-.17-.29V182l.32.23.13.06.19.31h.1l.06.17.3.15.37.13.12.16.88.29.11,0,.43,0,.29.34-.05.15.2.12,0,.24.27.1,0-.15.17-.12.2-.19.15.12.25.17.24.39h.18l.2.08.1-.05,0-.27.12-.1.15.1,0,.24-.05.17.05,0,.25,0,.13.19-.38.22-.12.17.17.25.3-.05.1-.17h.13v.19l.07.15.25-.12.07.14.25.2.3.2h.4l.17.05.3.19.15.27,0,.34.15.52.15.19.15.22.14,0,0-.24.2-.15.22.3.47.1h.3l.3.47.17-.07.18-.1.12.07.39,0,.21-.22.86-.45,1.26-.37.14-.12.34-1,.21-.23.23-.57s.3-.08.35-.15a1.24,1.24,0,0,1,.26-.19l.14.07.28.33h.09l.12-.08.53-.07.58-.44.37-.36v-.6l.14-.12.19,0,.27,0,.49.34h.23l.05-.09h.46l.38.07.16.17h.19l.09-.12v-.24l.07,0,.28.07.63.1.37-.12.34-.33.28-.21.51-.1v-.21l.16-.07.18.12.16,0h.21l0-.07.41-.43.15-.08.14-.26.06-.16.19.05.46-.12.42,0,.23-.37.23-.24.43-.12.18-.05.09-.24.3-.11.31,0,.28.13.16.19H205l.11-.26,0-.34.28-.18s0-.1.13-.08l.21,0,.17-.08,0-.16.21-.17.39-.09.37-.32.56-.2v-.31l.35,0,.42-.36.1-.3-.19-.15-.06-.36-.24-.21.11-.2H209l.25-.09.16-.2.52-.11.27,0Z" transform="translate(-141.83 -141.46)" style="fill: rgb(210, 210, 230);"></path>
   <path name="XXXX" id="path4230" class="cls-1" d="M186.2,206.81l-.22-.3-.09-.3-.23-.13,0-.29-.18-.19-.17-.33.17-.2-.17-.31-.11-.06,0-.45-.27-.24,0-.29,0-.24-.14-.12.14-.19v-.09l.17,0,0-.18-.22-.09v-.47l-.09-.12.09-.34-.2-.36-.34-.25-.17-.06.13-.21,0-.84.07-.2-.21-.24-.58.21-.7.4-.06.25-.3.16-.21-.19-.14-.28-.33.17-.13-.17-.25,0v.15l-.09.22a.22.22,0,0,0-.23,0l-.22.23h-.22l-.24-.23H180l-.28-.47V200l.14-.12,0-.21.26-.15v-.45l.13-.14-.05-.33.39-.25-.12-.24.2-.37.19-.08.07-.31-.12-.15.26-.3.05-.67-.23-.31.16-.22-.22-.17.22-.3,0-.51.29-.64.63-.17,0-.32.28-.23-.07-.26L182,193l.14-.14.24,0,.11-.33v-.21h0l.23-.38.26-.18v-.25l.38,0,.22-.25.29-.09.28.14.15,0,.38-.34v-.17l.24-.25,0-.14.14,0,.68.79,0,.28.79.63.35.85.73.84.28-.21.29-.07.09-.46-.09-.21.33,0,.2.37.27,0,.3.28-.17.25.46.31v.19l.21.2.52,1.32v.39l.69.47-.06.14-.39.29-.37.12-.24.3v.27l.13.2-.06.22-.09.28-.52.14s-.16.17-.23.17l-.43,0-.11.1V199l-.16.14,0,.28-.08.24.19.16V200l-.26.14-.18.19-.07.28-.24.3-.35.26,0,.29-.24.4-.06.23.13.24,0,.28v.2l.1.33v.28l-.19.38-.38.22-.12.31.19.19.14.34,0,.7-.15.14-.21.09-.09.16v.16l-.16.31-.23.25Z" transform="translate(-141.83 -141.46)" disabled="disabled" style="pointer-events: none;"></path>
   <path name="XXXX" id="path4235" class="cls-1" d="M188.72,210.31l-.48-.51-.2-.18-.26-.05-.14-.27,0-.54-.16-.27-.08-.27-.63-.6-.06-.26-.46-.55-.22-.3-.09-.3-.23-.13,0-.29-.18-.19-.17-.33.17-.2-.17-.31-.11-.06,0-.45-.27-.24,0-.29,0-.24-.14-.12.14-.19v-.09l.17,0,0-.18-.22-.09v-.47l-.09-.12.09-.34-.2-.36-.34-.25-.17-.06.13-.21,0-.84.07-.2-.21-.24-.58.21-.7.4-.06.25-.3.16-.21-.19-.14-.28-.33.17-.13-.17-.25,0v.15l-.09.22a.22.22,0,0,0-.23,0l-.22.23h-.22l-.24-.23H180l-.26-.45-.46.25-.68.11h-.22l-.08.17.4.41.2.25,0,1-.27.17.19.39-.23.25.09.38-.14.12v.19l-.18-.17h-.25L178,204l-.17,0-.14-.39-.32-.05-.14-.2,0-.31-.52-.23-.14,0-.26-.32v-.29l-.27,0-.08-.36.13-.1-.22-.3-.48,0-.44-.53.14-.28-.32-.14-.19.22-.55-.19-.47-.48-.91-.22-.19.1-.19-.27-.3-.09-.27.14-.15-.2.12-.47-.18-.35-.4,0-.29-.12-.14-.27-.14-.36-.68-.07-.34-.06-.08-.63-.25-.19-.19,0h-.44l-.23.42-.37,0,0,.28-.12.24-.39-.46-.15.49.14.57.18.49.05.41h-.37l-.11.25-.09.41.13.26.36.25.54.11v.42l.41.22.7.89.05.21.22.14.46.14.24.38.36.23,0,.45.19.18,0,.23-.35.12-.14.28-.13.49-.17.17.23.23-.06.24.25.09,0,.28-.33.61-.16,0-.18.35.13.08-.06.5-.29.13.24.18v.19l.14.14.24.36h-.19l-.7.53-.22.34-.69,0h-.18l0,1.06h.31l.38-.06.14.2.17-.2.72.13.18.31.38.09.13.11.14,0,.25.22.33.11-.2.37.2.09.13-.2.54,0,.29.35.41-.05.8.84,0,.24-.11.16.49.46.3.49.35-.14.34.44.63.25.6.66.11.37h.52l.11.27.22.15.11-.7.23-.14-.07-.22.14-.17-.12-.16v-.44l-.13-.09.31-.41-.18-.16,0-.2.43-.55.11-1,.56-.51.38-.09.09-.18.62-.26.14,0,.36-.24h.44l.21.2.38-.27.22.14,0,.24.13.24.6-.15.54.35.38,0,.09.16-.25.22,0,.13.29.15.45.4.27,0,.18-.27.4-.28,1.12-.07.29-.57-.13-.2.49-.31.65.05.36-.16.56.46.42-.75h.58l.19-.13Z" transform="translate(-141.83 -141.46)" disabled="disabled" style="pointer-events: none;"></path>
   <path name="XXXX" id="path5036" class="cls-1" d="M191.22,244.05l-.24.44.22.61.52.52,1.05,0,.19.43.5.18-.16.64,0,.41.21.49-.45.33.25.9-.49.5-.19.28-.28.29.05.38.33.56-.16.43.5.42.65-.12,1.66.43.84,0,.16-.32.36-.24.69.1.27.49-.15.7-.52.64v.91l.41.81.8.56.87.7.38.19.28.32.51.27.44.42.43.44-.2.32.08.27-.33-.06-.37.05.27.39h-.28l-.06.2.11.22-.22.18-.27-.23-.36.37.05,1.09-.22.16v.52l-.41.17.26.28-.31.32-.07.28-.36.16-.32,0,.14.53-1,.5L196.05,262l-.15,0-.25.15h-.74l-.43.17-.31-.41-.39,0-.29-.1-.22-.44-.58-.14-.29.05-.07.17-.21.25-.41-.2-.44,0-.26-.31h-.59l0-.44.22-.37.49.17.2-.09-.49-.34-.22-.35-.45-.45-.53.45-.45-.05-.34-.25,0-.71h-.19l-.29.1v.24l-.19.52-.51.42-.38,0-.41-.36-.28,0-.25.19-.59.36-.6-.32-.22-.29.07-.23-.28-.17-.4.15-.46.23-.23-.16-.2-.39.32-.19.16.12.31-.13.08-.3-.24-.21-.4-.44h-.15l-.22.14-.23.11h-.61l0-.33.24-.23-.2-.29-.37.09-.19-.06-.22-.09-.17-.18.16-.33.91-.85.27-.13,1.43-1.15.45-.24.9-.78-.09-.31.36-.31.16-.84,0-.44-.2-.22.23-.25-.21-.22v-.33l.14-.29,0-.53.41-.06.11-.16.45,0,.16.13.47.05.11-.2v-.22l.2-.45.48-.22.11-.84-.09-.2.43-1.17.09-.36.42-.26-.47-.53.25,0v-.42l.33-.2.23.06.18-.29H190l.3-.31.33-.15h.57Z" transform="translate(-141.83 -141.46)" disabled="disabled" style="pointer-events: none;"></path>
   <path name="XXXX" id="path5041" class="cls-1" d="M181.46,257l.12-.37-.27-.24-.4-.1-.3,0-.4-.33-.48-.64-.14-.39-.54.13-.27-.43.4-.22-.07-.2-.23-.23-.56-.65-.31-.55-.32-.26-.38.12-.37-.08-.67.37-.8.24-.27-.26-.11-.34.11-.44.39-.38,0-.43-.21-.52.53-.37.16,0,.2-.22h.45l.09-.34.09-.13.45,0,.29-.66.18-.75-.16-.51.41-.47h.33V247l.2-.13.3.06.24-.15h.36l.14-.13.74-.42v-.4l-.52-.2-.13-.44.09-.27h.31l.18-.13.18,0,.27-.15v-.2l.77-.53.24,0v-.2l.16-.08.22.24.16-.18.2.14h.18l0-.27.23-.09.49.24.27.4.61.11.22-.31.36-.53.43-.24.67-.62.38-.16.32-.57.27-.71.38,0,.11-.2.61,0,.2.13.27-.22h.83l.36.28.25-.13.43,0,.09.11.64-.11.65.36-.4.42v.83l-.34.62.25.36V244h-.57l-.33.15-.3.31h-.13l-.18.29-.23-.06-.33.19v.43l-.25,0,.47.53-.42.26-.09.36-.43,1.17.09.2-.11.84-.48.22-.2.45v.22l-.11.2-.47-.05-.16-.13-.45,0-.11.16-.41.06,0,.53-.14.29V251l.21.22-.23.25.2.22,0,.44-.16.84-.36.31.09.31-.9.78-.45.24-1.43,1.15-.27.13-.91.85-.16.33Z" transform="translate(-141.83 -141.46)" disabled="disabled" style="pointer-events: none;"></path>
   <path name="XXXX" id="path5046" class="cls-1" d="M170.2,249.94l.18-.41.42-.39,0-.36.31-.33h.27s-.07-.28.11-.35a6.15,6.15,0,0,0,.76-.53l.36-.13,2.24-1.9.92-.81,2.06-1.06.51-.4.13-.51-.11-.35-.09-.44.56-.57.05-.51.6-.51.49-.5.27-.31-.06-.2.31-.51.2-.13.29-.46-.07-.8,0-.28.38-.22,0-.38.18,0,.24,0,.36-.38.22-.18.32.18.36,0,.25-.19h.34l.19.35.58.1.09.25.55,0,.28.18.36,0,.28.53.34.4.6.16.3.26-.07.33.66.52.23.4.63,0,.73.27.62.55.41.57-.44,0-.25.13-.36-.28h-.83l-.27.22-.2-.13-.61,0-.11.2-.38,0-.27.71-.32.57-.38.16-.67.62-.43.24-.36.53-.22.31-.61-.11-.27-.4-.49-.24-.23.09,0,.27h-.18l-.2-.14-.16.18-.22-.24-.16.08v.2l-.24,0-.77.53v.2l-.27.15-.18,0-.18.13h-.31l-.09.26.13.45.52.2v.4l-.74.42-.14.13h-.36l-.24.15-.3-.06-.2.13v.35H178l-.41.47.16.51-.18.75-.29.66-.45,0-.09.13-.09.34h-.45l-.2.22-.16,0-.54.38-1.31-.81-.42-.2-.39-.24-.58-.14-1.07.2-.69.32-.48.44-.43-.14Z" transform="translate(-141.83 -141.46)" disabled="disabled" style="pointer-events: none;"></path>
   <path name="XXXX" id="path5051" class="cls-1" d="M169.72,250.09l-.53-.91-.25-.55-.29-.57-.16-.51-.12-.43-.43.07-.28-.19-.95.31-.5.37-.63.61-.71.4-.12,0-.06-.29.43-.15L165,248l.38-.42v-.35l-.32,0,.29-.26v-.29l.39-.35H166l.24-.13-.18-.16,0-.13.38-.35-.11-.11v-.2l.72-.62.76.16.13-.29,1.19,0,.33-.09.18.24.63-.4.33-.33h.72l.36.18.36-.35,0,.2,1.25.08.25.14h.13l.09-.2.29-.09.14,0h.36l.2,0-.07-.51.29,0,.67-.35-.13-.51.24-.51.25.14.38-.89-.16-.08.41-.82.58-.29.56-.86.13-.57.29.13.63-.33V238l.18-.31.29.06.49-.2,0-.24.36-.26.36.06.05-.35.49-.26.2.08V237l-.38.22,0,.28.07.8-.29.46-.2.13-.31.51.06.2-.27.31-.49.5-.6.51-.05.51-.56.57.09.44.11.35-.13.51-.51.4-2.06,1.06-.92.81-2.24,1.9-.36.13a6.15,6.15,0,0,1-.76.53c-.18.07-.11.35-.11.35h-.27l-.31.33,0,.36-.42.39-.18.41-.24.23Z" transform="translate(-141.83 -141.46)" disabled="disabled" style="pointer-events: none;"></path>
   <path name="XXXX" id="path5056" class="cls-1" d="M158,241.68l0-.48.27-.42.29.05.19-.11.19-.38.19-.09.3-.37-.13-.1.08-.12.06-.3.54-.2.05-.78-.18-.39v-.28l.59-.62.38-.92.19,0,.65-.14.27-.24v-.39l.22-.17,0-.26.66.07.3-.26.32-.28.26-.35.31-.76-.12-.72.36-.41.65-.41.31-.49-.05-.82.26-.69.91-.49,0,.19.2.24.72.33.22.22.48,0,.37.05.36.4.27,0,.27.24,0,.31.7-.11,0-.11.36-.27.47-.13.24-.29.4.44V231l.73.33.08.19-.09.19.06.07,0,.28.17,0,.06.13.23,0,1-.76.48-.29.45.17.49-.09.36-.26.6.31.41.42.06.22.25,0,.07.49.38-.18.27-.37.38,0,.56-.07.08-.19.23.13H179l.11-.25.21-.11.31.31.4-.35.38-.24.16,0,.11-.07,0-.28.22-.25.16-.39h.32l.31-.18,0-.2.2-.26.3,0,.29-.2.06-.9.29-.37.79-.33.31-.31h.56l.6-.64h.34l.11-.27-.15-.11.26-.37,0-.24h.22l.4-.38,0-.15.22-.07.2.09.45-.05.92-.72.44-.09.61-.64.56-.24a1,1,0,0,0,.6,0l.31-.13.27.15.45-.42.94.16-.07-.36.25,0,.49.18.07.22h.29l.76.24.16-.13.2.13.45-.17.38.15.22-.15.25,0,0,.42h.45l.13.42.18-.29h.18l.45.18h.36l.35.13.14-.31.36-.11-.21-.22.14-.09.73,0V224l.14.36.32.16.07.38.26.09.41.5.07.36-.1.31,0,.38-.4-.28-.25,0-.13.14-.23-.13v.19l.12.09-.2.19h-.4l-.17.08-.92.17h-.21l-.14.23-.31.23-.35-.06-.26-.36-1.12.13-.32.29-.41-.22-.12-.95-.1-.09.1-.28-.08-.55-.32-.14-.43,0,0-.07.41-.53,0-.12h-.25l0-.67h-.43l-.06.11-.37,0,0,.6-.54,0-.14.19-.21-.33-.33.14,0,.19-.21.16.13,1.23-.33.06-.22.25,0,.19,0,.15.09.11-.26.23-.51-.07-.22-.3-.57-.08-.11.14-1.38.17-.24-.07-.08.23.11.23,0,.6-.07.15v.19l.13.17-.44.13-.22.18-.8-.08-.06.18,0,.2-.73.45,0,.31-.84.69.18.2-1.12.53h-.59l-.17-.21-.23.16v.57l-.31,0-.19.06-.16.33-.13,0-.25-.25-.54-.09-.44.14-.13.39-.44.12-.3.31.05.19-.42.09-.45.39-.13.25-.6.44-.07.28-.22.15,0,.16-.3-.23-.38-.11-.05-.21h-.6l-.28.41-.27.06.06.47.32.17.06.73-.19.16.08.28.21.3-.1,1.4-.49.5h-.54l.1.18-.08.46-.21-.1-.6.28-.87.25-.55-.18v-.33l-.16-.14-.35.06-.27-.11-.25-.29-1.65.1-.19.36-.27.64-.79.3-.55.22-.13.34-.3.19h-.3l-.09-.17h-.32l0-.09-.21.22-.17-.11-.08-.24-.71,0-.11,1.71-.21.11,0,2.85h.23l.12.11-.38.35,0,.13.18.16-.24.13h-.29l-.39.35v.29l-.29.26.32,0v.35L165,248l.11.24-.43.15.05.28-.28.5-.47,0-.26-.36h-.34l-.09-.91-.42-.49-.25-.2-.21-.2-.19-.3-.2-.35-.3-.28.1-.59-.2-.38-.24-.23-.39,0-.48,0-.66-.47-.63-.29-.31-.77,0-1-.25-.28-.61-.36Z" transform="translate(-141.83 -141.46)" disabled="disabled" style="pointer-events: none;"></path>
   <path name="XXXX" id="path5061" class="cls-1" d="M158,241.2l.27-.42.29.05.19-.11.19-.38.19-.09.3-.37-.13-.1.08-.12.06-.3.54-.2.05-.78-.18-.39v-.28l.59-.62.38-.92.19,0,.65-.14.27-.24v-.39l.22-.17,0-.26.65.07.3-.26h0l.32-.28.26-.35.31-.76-.12-.74v-.47h-.35l-.15-.2-.13-.09.13-.09,0-.45-.22-.27.15-.22v-.4l.17-.23v-.15l-.17-.07-.15-.23-.29-.13-.24-.35-.22-.1-.09-.17.16-.18-.11-.2-.29-.09,0-.4-.14-.14h-.13l0-.13h-.09l0-.18-.16,0-.19-.11H161l-.27-.33-.1-.43-.27.32-.3.18-.76.46H159l-.88.34-.17.24-.43-.28h-.87l-1.07.66-.23.45.14.19.19-.11.37.34.25.4.16,0,.28.12.12.31-.12.47v.54l-.6.46-.55.46h-.5l-.12.26-.13.13-.46.06-.17.14v.19l-.22.07-.27.35-.18-.42-.17.14-.27-.21h-.22l-.36-.28-.21.1,0,.32-.21.17-.49.11,0,.22-.46.59,0,.53-.35.38h-.12l.06.51-.73.82-.74.71-.34.46.41.71.72-.46.68-.61,1.18.16.63.79.17.57-.05.55.5.41.53-.18,1-.34.49.4.44.07.43.28.43,1.16.31.26.62.08.58.05Z" transform="translate(-141.83 -141.46)" disabled="disabled" style="pointer-events: none;"></path>
   <path name="XXXX" id="path5066" class="cls-1" d="M150.67,235.28h.12l.35-.38,0-.53.46-.59,0-.22.49-.11.21-.17,0-.32.21-.1.36.28h.22l.27.21.17-.14.18.42.27-.35.22-.07V233l.17-.14.46-.06.13-.13.12-.26h.5l.55-.46.6-.46V231l.12-.47-.12-.31-.28-.12-.16,0-.25-.41-.37-.33-.19.11-.14-.19.23-.46,1.07-.65h.88l.42.28.17-.24.88-.34h.31l.76-.46.3-.18.27-.32.1.43.27.33h.26l.19.11.16,0,0,.18h.09l0,.13h.13l.14.14,0,.4.29.09.11.2-.16.18.09.17.22.1.24.35.29.13.15.23.17.07v.15l-.17.23v.4l-.15.22.22.27,0,.45-.13.09.13.09.15.2h.35l0,.45.34-.37.65-.41.31-.49-.05-.82.26-.69.91-.49,0,.19.2.24.72.33.22.22.52,0,.44-.73-.65-.09-.15-.25h0l.35-.4.1-.31.85-.49-.36-.09-.38-1.06-.43-.4.23-.22.17-1.12.23-.07.09-.37.33-.22,0-.49.33-.26,0-.66.42-.2-.38-.51-.83.46-.42-.13V222l-.27-.55.4-1.35.23-.29-.67-.39-.27-.24-.88-.09-.67-.38v-.22l-.24-.22.76-.22.09-.48.6-.75h.23l.15-.14,1.3-.46,0-.33.72-.53v-.53l-.22-.09.27-.22,0-1.3.38-.68.83-.64.32-.46-.25-.22-.14,0-.13-.11L170,211l-.18-.31-.72-.13-.17.2-.14-.2-.38.06h-.31l0-1.06-.06-.1-2.23-.86-.48.42-.6.3-.6,0-.6-.34h-.32l-.36,0-.12.29-.19.22-.18.41.07.4.5.29.15.23-.19.6-.27.38-.06.54-.22.84v.29l-.09.32-.33.16-.3.55,0,.44-.1.34-.26.28.24.22-.05.31-.33,0-.2.12-.42-.54-.36,0-.46-.23-.54.29-.3.41-.11-.16-.32,0-.34-.25-.81.44-.1.19-.69.06-.21-.06-.76-.19-.39-.3-.15.46-.31.32-.49.1-.54.35-.52,0,.06.39v.34l-.37.25-.06.22h-.32l-.08-.2-.57-.08v.25l-.24.12H151l0,.33-.84.44-.44-.11-.18.28-.28.15-.4,0-.21.25-.78.26,1.32,1.51,0,1.23-.57,1.18-.59.25-.16.76.1.71.61.73.59.18.39-.48L150,226l.3.59,0,2,.28.29.62.09.36-.06.22.27.11.43-.12.21-.08.5-.07.55-.29.37-.58.27-.45.49-.47.32-.37.45-.13.49s.06.47.06.61.51.23.51.23l.43.73.36.3Z" transform="translate(-141.83 -141.46)" disabled="disabled" style="pointer-events: none;"></path>
   <path name="XXXX" id="path5071" class="cls-1" d="M150.29,209.89l.57-.27.09-.28.59-.06.38.61.41.2.11.22.67-.45,1.34-.53.52.4,1.16,0,.42-.06.53.12.14.51.71-.12.1.23.58.14h.4l.12.31h.34l.69.23.3.35h.4l.6.6.16.44.75.46,0,.15v.29l-.09.32-.33.16-.3.55,0,.44-.1.34-.26.28.24.22-.05.31-.33,0-.2.12-.42-.54-.36,0-.46-.23-.54.29-.3.41-.11-.16-.32,0-.34-.25-.81.44-.1.19-.69.06-.21-.06-.76-.19-.39-.3-.15.46-.31.32-.49.1-.54.35-.52,0,.06.39v.34l-.37.25-.06.22h-.32l-.08-.2-.57-.08v.25l-.24.12H151l0,.33-.84.44-.44-.11-.18.28-.28.15-.4,0-.21.25-.77.26-.95-.59-.44-.43-.57-.64-.27-.54-.28-.67,0-.71.24-.87.34-.61.05-1.69.91-.8,1.38-.43.62-.62.22-.55.9-.52Z" transform="translate(-141.83 -141.46)" disabled="disabled" style="pointer-events: none;"></path>
   <path name="XXXX" id="path5187" class="cls-1" d="M150.07,209.17l-1.27-1-.26-.59,0-.18.37-.29h.26l.19-.31.2-.08.18.27v-.3l.19-.34.65-.22.44-.69.37.14.16.11H152l.08.16-.11.37.11.08.27-.26.36,0,.24-.28-.11-.42.19-.11.17-.3-.19-.32V204l-.42-.36-.16-.44.38-.17.14-.11h.22l0-.1-.17-.29.44-.31.21-.29-.18-.35.65-.58h.43v-.25l.29-.25-.19-.37h-.22l-.15-.12.38-.56-.12-.24,0-.14.68,0-.33-.68-.24-.39-.2.07-.33-.23h-.24l.08-.28.16,0,.07-.2.18-.06.09-.16,0-.32.27-.37.12,0,.13.36v.27l.43.59h.25l.29.53.24.16,1-.42.25,0,.29-.14.16.18v.21l.27.18v.27l.19-.06.39-.11.3.06h.41l.35.23.19,0,.22.42.21,0,.14.1h0l-.05.42.23.39-.19.43-.34.42v.42l.09.19-.42.22,0,.22h-.68l0,.3.18.22-.18.23v.42l-.44,0-.37-.17-.33.25.21.09.09,1-.22.17.32.11.09.19.26.09,0,.33-.11.22.21.56-.13.53-.27,0-.38.34-.44.08-.09-.14-.1.11,0,.45.22.48-.3.17,0,.41-.19.06-.39-.11-.29-.34v-.24l-.3-.07,0,.21,0,.19.16.23-.15.11,0,.6.3.63-.46.07-1.16,0-.52-.4-1.35.53-.66.45-.11-.22-.41-.2-.38-.61-.59.06-.09.28-.57.27Z" transform="translate(-141.83 -141.46)" disabled="disabled" style="pointer-events: none;"></path>
   <path name="XXXX" id="path5147" class="cls-1" d="M144,198.44l-.59,1.08-.29.55-.06.58-.39.81-.69,1.4.23,1.09.57.71.69.32.93-.24.84,0,.29.37,1,.39.81.64,1,.9.1.3.37-.3h.26l.19-.31.2-.08.18.27v-.3l.19-.34.65-.22.44-.69.37.14.16.11H152l.08.16-.11.37.11.08.27-.26.36,0,.24-.28-.11-.42.19-.11.17-.3-.19-.32V204l-.42-.36-.16-.44.38-.17.14-.11h.22l0-.1-.17-.29.44-.31.21-.29-.18-.35.65-.58h.43v-.25l.29-.25-.19-.37h-.2l-.25.14-.22-.09-.28.53-.24.15-.24-.24-.24.28-.53.23-.49,0-.27-.3-.27,0-1.05-.71,0-.55-.31-.11,0-.25-.19-.12-.2.08-.39,0-.18-.33-.59-.39-.73.28-.25.27-.17,0-.27.25-.35.06-.27-.14v.16l-.22,0-.22.16-.25,0-.52.09-.2-.3-.44-.28.14-.28,0-.31-.74,0Z" transform="translate(-141.83 -141.46)" disabled="disabled" style="pointer-events: none;"></path>
   <path name="XXXX" id="path5136" class="cls-1" d="M179.27,184.29l-.16-.37-.31-.18-.05-.52-.36-.38-.28-.07-.17-.29V182l-.27-.66-.1-.29-.37-.27-.1-.2-.23-.39V180l-.37-.12-.22-.1-.28-.2-.2-.44v-.12l-.19-.1-.28,0-.25-.07-.05-.12-.14-.08h-.23l-.22-.09-.13-.18-.12,0-.07.12-.43.15-.72-.1-.32-.2-.37,0H172l-.27-.2-.3-.39v-.14l-.22-.15h-.5l-.27.12-.25,0,0-.1-.28-.05-.15-.12-.34-.49-.28-.22-.24-.34-.4-.15-.28-.22-.32-.1-.19.17,0,.41-.05.3.26.17h.17l.24.36-.41.57.33.08.08.42-.38.55,0,.45-1.41,1,.16.38-.6.39-.26.4-.42.14-.16-.14-.21.16-.41-.46-.12.18-.08.34-.95-.17-.1-.1-.25.33h-.27l-.49.21.24.22-.18.49.14.23-.38.17-.33-.28-3.13,0-.06-.24.14-.25-.24-.18-.46.21-.43,0-.5-.3-.05.67L157,183v1.35l-.2.53-.54.62h.27l.22.22.36.31.13.44.17-.21.27-.07.38.18.64,0-.07.51-.24.22,0,.58.2.19-.09.51h-.15l-.14.05.13.45.27.37-.08.31-.14.13.11.51.14.14,0,.21-.09.12.09.14v1.33l.23.37.29-.06v-.19l.46-.22.13.11.39,0,.4-.25.49,0,0-.08.55.36-.08.21.21.37v.59l-.15.49.88,1,.07.19-.08.17.14.09,0,.21.51.34.17.33.21.09.47.16v.29l.43.38.32.25v.49l.33.39.09.45.48.1.12.2-.07.27.25.25.36,0,.21.2V200l.5.06.08-.4.11-.25h.37l-.05-.41-.18-.49-.14-.57.15-.49.39.46.12-.24,0-.28.37,0,.23-.42H169l.19,0,.26.19.07.62.34.07.68.07.14.36.14.27.29.12.4,0,.18.35-.12.47.15.2.27-.14.3.09.19.27.19-.1.91.22.47.48.55.19.19-.22.32.14-.14.28.44.53.48,0,.22.3-.13.1.08.36.27,0v.29l.26.32.14,0,.52.24,0,.31.14.2.32.05.14.39.17,0,.05-.23h.25l.18.17v-.19l.14-.12-.09-.38.23-.25-.19-.39.27-.17,0-1-.2-.25-.4-.41.08-.17h.22l.68-.11.45-.24h0V200l.14-.12,0-.21.26-.15v-.45l.13-.14-.05-.33.39-.25-.12-.24.2-.37.19-.08.07-.31-.12-.15.26-.3.05-.67-.23-.31.16-.22-.22-.17.22-.3,0-.51.29-.64.63-.17,0-.32.29-.23-.08-.26L182,193l.14-.14.24,0,.11-.33v-.21l-.37-.5-.39-.2-.32-.6v-.17l-.32-.12V190h.28l.07-.47-.19-.08v-.23l.19-.2-.24-.35.11-.7-.16-.33-.3-.15,0-.27-.29-.37-.06-.31.17-.1.05-.39-.22-.15-.49-.1-.51-.26-.22-.52Z" transform="translate(-141.83 -141.46)" disabled="disabled" style="pointer-events: none;"></path>
   <path name="Ciénaga" data-id="673" id="path2625" class="cls-1" d="M179.76,155.54l.17-.31.27.11.72-.55.31-.28h.36l.11.13.79-.16h.6c.13,0,.29.2.29.2l.34-.33.11,0,.42-.18.32.18.27,0-.18.39.24.23v.7l.32,0c.17,0,.2.25.2.25l.47-.29.11.22.11.24-.11.29.47.33.6-.22.36,0,.31-.33.41,0a2,2,0,0,1,.22.44c0,.08-.18.13-.18.13l-.06.66.31.24.27-.13.06.2.68.22.13.15.16-.06,0-.42.29.06.45-.06.33.29v.19l.38.33.09.4.29-.13.54,0,.23.27.49,0,.47,0,.47.24.24-.15.59,0,.2-.28.33.39v.49l.16.11.16-.07.35.05.21.26.78,0,.47,0,.33.44-.22.27-.11.33.33.37-.09.49-.13.2.11.46-.2.17.2.38-.31.35.16.22-.21.42-.4.13,0,.33-.16.31.34.09,0,.44.36-.06v.08l.29.36-.09.31.47.17.6-.35v.33l.47,0,.34.22.45-.2.27.16.8-.09.32-.29,1.11-.53.36.27h0l-.41.4-.27,0-.21.23-.52,0-.08,0-.67.48-.35.3-.33.48v.38l-.16.26-.24.16-.09.19,0,.38-.19.23-.72.27-.62.47-.38.17-.09.33v.09l-.25.4-.49.19-.3.17-.42.41-.35.18-.61.46-.28.06-.2-.06-.31,0-.48.3-.24.1.05.22-.16.18-.09,0-.19-.23-.18.21-.08.3-.23.22-.18-.07-.23,0,0,0,.28.07-.12.21-.25-.07-.19-.06-.42.13-.26.06-.2.23-.54.43-.46.23-.46.14-.22.27-.51.28-.2,0-.08-.07-.07.09,0,.17-.12.26-.16.14-.42.35-.71.24h-.26l-.35.26-.34.27v.42l-.13.24,0,.31-.16.5-.33.16-.2.24,0,.14-.32,0-.24-.22-.21-.11-.13-.26,0-.17-.16-.45-.17,0-.09.14-.37,0-.16.08-.14-.17v-.19l-.09-.11-.19,0-.19.09-.32,0-.2,0,0-.21.15-.06.23-.2-.09-.17h-.22l0-.14.17-.19.24-.06-.05-.25.11-.05.4-.44h.23l-.11-.34-.12-.08.39-.29.56,0v-.24l-.31-.15v-.11l-.21-.44.14-.12-.19-.24.33-.43h.19l-.17-.28.24-.13.33-.2.4-.39.22,0,.12-.39h.24l.24-.29,0-.33.12,0V171l.23-.34,0-.17.08-.13-.05-.06-.2,0,0-.14.17-.3,0-.31-.18-.47-.6-.34h-.17l-.07-.1.1-.08,0-.16.18,0,0-.16h.26l-.17-.59-.65-1,.14-.57-.14-.16.35-.28.11-.28-.14-.28v-.17l-.64-.44-.22,0v.71l.27.27-.32.72-.25,0-.22.15,0,.32-.11,0-.37-.58-.22-.22v-.56l.13-.08-.35-.59-.09-.44.25.16.27-.36-.21-.15-.11-.64-.31,0-.3-.41.14-.09.06-.24-.35-.65-.58-.28h-.37l-.23.15-.53-.18-.57.28h-.19l.08.23s0,0-.09.08a4.5,4.5,0,0,1-.49.06l.16.17-.18.16.18.19-.21.14,0,.4-.3-.11-.23.36.17.08,0,.23.2.24-.08.17-.8,0,0,.44.3.12.76,0,0,.38-.26.5.12.2.15,0,.1.26-.14.23h-.24l-.22.14h-.75l.13-.22-.13-.08-.28.06-.22.36-.1-.17-.34-.07-.1-.22-.41.09-.07-.2-.27.06-.17-.14.14-.14.07-.17.34-.11v-.2l-.22-.18.15-.4.17-.05,0-.12.26-.13.32-.42-.08-.28v-.23l-.33-.42.06-3.79.67-.43.34-.34.14-.33,0-.34.17-.14.58-.42,0-.16,0-.21.44-.33.21-.36.16-.27-.13-.22Z" transform="translate(-141.83 -141.46)" style="fill: rgb(210, 210, 230);"></path>

</svg>