<svg id="Capa_1" data-name="Capa 1" xmlns="http://www.w3.org/2000/svg" viewBox="0 0 198.69 173.2">
    <defs>
        <style>.cls-1{fill: #ebebef;;stroke:#fff;stroke-miterlimit:3.86;stroke-width:0.25px;}</style>
    </defs>
    <path name="Villavicencio" data-id="693" scale="2.5" move="15" id="path5126-8" class="cls-1" d="M136.93,176l.06.05.27,0,.18-.19.27-.06,0,0,.23.11,0,.23.62.56,0,.22-.22.26.07.16.17,0,.2.46-.39.21-.17.34.07.28-.73.72-.85.3-.32.34h-.36l-.31.33v.44l.16.09.12.29-.25.12v.26l.11.69.13.07,0,.29-.37.43,0,.55.26.09.16.29.32.21v.26l.5.32.19-.22.41-.1.06.32.42.14,0-.27.31-.08.06.27,1.61-.09,0,.12,1.07.06.15-.12.35,0,0,.19.59.42.12-.2H143l.21-.22h.33v.1l.7.45h.61l.34-.2.15.17.47.08.25.27.31-.23.18,0v.12l.58.29h.34l.31-.21.42-.15v.15l.64.42.19-.21.35-.07.4.41.11-.22,1.2-.05.22.1-.07.15.44.25.28-.25.11.13h.5l.09.24.39-.16.1.1.39,0,.12.1v.16l.41.27.29,0,.13.19.25-.13.09,0v.15s.34.15.39.16.26.21.26.21l.5-.12.6.21.4,0,.06-.21.34-.07.12.2.77.18.19.18-.16.12.38.33.2-.23.54-.05.16.18.43,0,.2-.13.32-.05v.1l.5.23.17-.25.5-.07.31.22.09-.34.33-.19.14.1,0-.3.16-.09.16.09-.06.16.48.31v.15l.25.18.17-.16.09,0,0,.16.17.09.59,0,.14.11-.33.21v.16l.2,0,.29.28.1-.27.2-.06.06.12.19,0,.16-.14.23.16.17.2.29-.14,0-1.37-.45-1.2-.38,0-.08-.56L166,186l.05-.41-.21-.23V185L166,185l.08-.31-.21-.07-.2-.36.41-.36v-.23l.2-.12-.15-.33-.26.12-.3-.05.18-.79.55-.48h.26l.22-.2-.3-.18-.18-.51-.15-.08-.33.31-.17-.28h-.58l-.76-.41-.21-.31-.32-.1-.16.36-.25.25-.58-.3-.3-.59.1-.17.13-.34-.26,0-.43.16-.67-.23-.16-.21-.29.16h-.29l0-.24-.48.21-.31-.13-.62.58H159l-.28-.2-.44.15-.25-.29-.44.08,0-.15-.53,0-.1-.22-.52-.11-.21.28-1,.29-.74-.22-.09-.16-.39.16-.69-.43-.15.15-.45,0-1.43-.83-.17.05-.21-.17-1,0-.1-.31h-.19l-.38.27-.55,0-.34-.4-.64-.13-.68-.39-.2-.49-1.05,0-.11-.44-.29-.1-.48.23-.3-.54-.85-.58-.48.08-.25-.47.36-.58h.39l.36-.54-.3-.25,0-.68-.95-.51-.11-.19,0-.51-.28,0-.11.17-.36,0-.27-.22-.36.18v.4l-.3.11-.43-.33-.62.06-.24.29-.41-.2-.36.29h-.32a1,1,0,0,0-.34-.3,5.73,5.73,0,0,0-1.18-.06l0-.19-.5.19-.57.47.42.47-.41,1.4.34.44v.78l.44.77Z" transform="translate(-76.86 -139.17)" style="fill: rgb(210, 210, 230);"></path>
    <path name="XXXX" id="path6274" class="cls-1" d="M169.63,169l.43-4.06.15-.42,0-.89.59-.51.47,0,.75-.59-.18-.27.25-.08.23.31.43,0,.16-.27.22.52.41-.15.37.4.43.09v.18l.88.49.55-.11.49.59.57.25.09.54-.34.26.1.21.68.2.15.27.43-.13.19.36.24-.21.14.25.14-.2s.31.42.22.42-.18.14-.18.14l.44.11,0,.37.23,0,0-.27.38.16.11.42-.38.25.25.12.43-.36.07-.36-.3-.25.25-.21-.13-.24-.41-.09,0-.82-.41-.2.08-.38.35-.25-.16-.34-.36-.08V164l4.36.05.44-.1.52-.16.3.32.43-.12.23.3-.3.18-.14-.13-.2.29.27.1.51.27.25.53-.08.26.44.11.27-.2.19.2-.2.37-.34.09.1.32.63.35.35-.1.45.33-.36.21c-.07.06-.48,0-.48,0l-.2-.18-.29.08-.1.47.24.16.64.36.39-.29.19-.28s.75.19.82.19.08.32.08.32l-.41.29-.34,0-.1.37.38.18.39-.18.44.21.08.66-.51.49-.15-.09-.14.29.53.36-.17.25v.42l-.2.34-.17.32-.22.34-.43.2-.4-.09-.44-.15v-.4l-.63-.34-.32.08-.11.19.07.22.18.23.1.53-.2.46-.33,0-.32-.37-.76-.45-.28,0-.26.11,0,.26.13.13.32,0,.11.24-.19.2H184l-.56-.47-.07-.21-.22-.58-.29-.1-.25.17-.1.3.07.21.2.24,0,.43-.17.94-.22.15-.31-.15v-.37l.13-.19,0-.23-.17-.25h-.43l-.23.36.18.71.17.35.36.18.07.34-.35.52-.46.14-.52-.31-.61.1-.15.57-.18.17-.14.57-.14.43-.27.44h-.13s-.39-.19-.39-.26.14-.36,0-.36h-.28V178l-.41.4-.36-.4-.49,0,.19.39-.17.44-.19-.11.09-.45-.28-.22-.29.33-.31-.21.14-.19-.18-.21-.46,0-.22-.27-.22-.45-.24-.32-.26-.11-.31.16.08.31.18.51-.19.48-.62,0-.12-.17.1-.25.16-.2-.28-.26-.32.07-.31.22-.23-.08v-.27l.29-.09.08-.26-.13-.17-.36,0-.15-.24L173,176l.16-.14,0-.57-.2-.1-.17.07-.06.34-.21.19-.22,0-.23-.15,0-.27,0-.17.25.07.13-.12,0-.14-.33,0h-.21l0-.14.24-.13.3,0,.07-.18-.53-.12-.3.13-.22-.1,0-.12.09-.19.2-.11.18-.16.24,0,.26-.08v-.19l-.46-.33-.35,0-.31,0-.21.1,0,.29-.32.34-.18-.1.1-.21,0-.25-.29.15-.14-.1,0-.21-.12,0-.3.37-.16,0-.11-.24-.27-.07-.16-.32Z" transform="translate(-76.86 -139.17)" disabled="disabled" style="pointer-events: none;"></path>
    <path name="XXXX" id="path5142-2" class="cls-1" d="M113.2,187l.81,1.28,1,.84.46,1.14,1,0,.56.48.66.05,1.44.54,3.24.38,2,.58,3.27.21.22.4.61.05.13.21.4,0,1.24-.76h.94l.63.33.28.48h.2l.68.46.23-.28.13.21.07.68,1.22,1.07.53.16.68.48h0l.36.24.37,0,.12.28-.14.2.05.23.48.41.4,1.27.21.2-.28.21-.84-.08-.38-.25-.55.46.12.58-.5.08-.46.54-.37-.06-.48-.46-.32,0-.36-.22h-.24l-.87-.63-.2-.23h-.16l-.19.16-.45,0-.07-.05-.21.1-.11.19-.14.09h-.21l-.36.34-.1.6-.21.1h-.16l-.11.24-.3.08-.26-.11v-.32l-.72-.11-.4-.35h-.16l-.18.16h-.09l-.21-.38H127l-.13.18-.88.2-.62,0-.53.55.11.65.09.06v.22l-.89.24-.11.26-.39.19-.56,0-.11-.14-.73-.07-.85-.27v-.33l-.35-.3,0-.28.12-.14-.08-.34-.2-.06,0-.1-.49-.47-.45-.06-.27-.18-.06-.19-.27-.22-.1-.25-.25-.54-.46,0-.1.15-.3-.13-.24.14,0,.21-.2.14h-.46l-.83-.18-.48-.56-.23-.13-.27,0-.1.09h-.64l-.29.12-.51.41h-.2l-.69-.91.06-.21-.18-.14-.36-.08-.1-.28-.86-.1-.29.12-.17.41.33.53,0,.41.06.29-.1.76-.56.6-.16,0-.65.33L109,201l-.41.14-.36.28-.18-.21h-.82l-.15.16H107l-.21-.16h-.41l0-.12h-.12l0,.28-.39,0-.23.18-.18-.19-.73-.08-.36.25-.16-.06-.06-.28.16-.24-.33-.37h-.12l-.27-.5-.32-.17-.4,0v-.39l.17-.19h.16l.07.27h.11l.08-.31.06-.07v-.14l-.32-.34v-.17l.24-.19h.2l.4-.27.16-.35.16-.12.31,0,.18-.11v-.15l.27-.24.08-.21.13-.09.11-.23.23-.2.14-.11.16.09.24-.15v-.32l.26-.3.33-.07.18.07.08.27.16.08-.08.29.22,0,.26-.22.22-.07,0,.08h.35l.14-.26.06-.43-.29-.35-.37-.05-.09-.29.17-.11,0-.3-.26-.54-.2-.15-.16-.51-.07-.25.28-.47h.09l.08.22.52.08.87-.89.08-.33.21-.1.05-.69.31-.31.42-.06.08.12h.1l.07-.27-.11-.75-.14-.1,0-.15.1,0,.26.14.29-.1.33-.35.21-.76.34-.32-.1-.24.08-.23.11-.08.09-.4.47-.5.16-.28.52-.31H113Z" transform="translate(-76.86 -139.17)" disabled="disabled" style="pointer-events: none;"></path>
    <path name="Restrepo" data-id="716" scale="3" move="18" id="path5128" class="cls-1" d="M144.88,163.27l.13.49.78.71-.17,1.25.22.53.09.71.15.2-.26.7-.21.24.3,1.26-.39.55.57.33,0,.63-.21.14.14.18.54.07.53.62-.07.55.14.13.18-.2a2.17,2.17,0,0,1,.27.07.07.07,0,0,1,0,.11l.3-.16.09-.29.4.07.41.47-.06.49.43.07.25.34,0,.5h.27l.55.71.13.54.57.37.14-.1.06.39.43.33.37.12.47.87-.13.09.07.16.77.38.05.34.24.12.25-.09a5.2,5.2,0,0,1,.71.06c.09,0,.22.25.22.25h.23l0-.29.1.07.15.26a2.74,2.74,0,0,0,.37.07c.09,0,0,.11,0,.11l.64-.24,0-.2.43.09.19.26.76-.15-.06-.09,1-.11.07-.14.54-.16.21.2.52-.29.3.07.13.2,1-.42,0-.27.39.06.09.23.95-.56.18-.43.63,0,.1.29.68-.06.2-.36.23,0,.23.36.47,0,.18-.19.23.12.45,0,1.12-.69,0,.54.18.17.64,0,.27.13.2-.17.11.24-.26.16.2.07.31-.07.36.41-.08.26-.29-.38-.41.16-.26.5-.19.05H168l-.07-.24-.48.33-.05.14-.26.07-.72-.19-.14-.23-.53.28-.24.48-.74,0-.07-.1-.79,0-.07-.22-.26.09-.14.27c0,.09-.39.11-.39.11l-.28.24-.27,0-.43.16-.67-.23-.16-.21-.29.16h-.29l0-.24-.48.21-.31-.13-.62.58H159l-.28-.21-.44.16-.25-.29-.44.08,0-.15-.53,0-.1-.22-.52-.11-.21.28-1,.29-.74-.22-.09-.16-.39.16-.69-.43-.15.15-.45,0-1.43-.83-.17.05-.21-.17-1,0-.1-.31h-.19l-.38.27-.55,0-.34-.4-.64-.13-.68-.39-.2-.49-1.05,0-.11-.44-.29-.1-.48.23-.3-.54-.85-.58-.48.08-.25-.47.36-.58h.39l.36-.54-.3-.25,0-.68-.95-.51-.11-.19,0-.51.48-.27,0-1.24.5-.68.45-.24.13-.39-.45-1.17-.88-1.28-.57-.31.29-.65.59-.21-.15-.9.25-.13,0-.63.47-.54.26-.35Z" transform="translate(-76.86 -139.17)" style="fill: rgb(210, 210, 230);"></path>
    <path name="XXXX" id="path5118" class="cls-1" d="M136.85,163l.19.86-.23.56.66.79.73-.16.74,0,1,.52,0,1.2.33.58.67.58.29-1.13.36-.43.57-.17.34-.22.57.31.88,1.28.44,1.17-.12.39-.45.24-.5.68,0,1.24-.48.27-.28,0-.11.17-.36,0-.27-.22-.36.18v.4l-.3.11-.43-.33-.62.06-.24.29-.41-.2-.36.29h-.32a1,1,0,0,0-.34-.3,5.73,5.73,0,0,0-1.18-.06l0-.19-.5.19-.58.47-1-.62-.24-.55.13-1.16,0-1-.44-.71-.21-.84.21-.75-.54-.31-.09-.54-.54-.33.28-.91.61-.75,1-.8.78-.25,1-.19Z" transform="translate(-76.86 -139.17)" disabled="disabled" style="pointer-events: none;"></path>
    <path name="XXXX" id="path5130-1" class="cls-1" d="M183.94,163.91l-.43.09-4.36-.05v.28l.36.08.16.34-.35.25-.08.38.41.2,0,.82.41.09.13.24-.25.21.3.25-.07.36-.43.36-.25-.12.38-.25-.11-.42-.38-.16,0,.27-.23,0,0-.37-.44-.11s.09-.14.18-.14-.22-.42-.22-.42l-.14.2-.14-.25-.24.21-.19-.36-.43.13-.15-.27-.68-.2-.1-.21L177,165l-.09-.54-.57-.25-.49-.59-.55.11-.88-.49v-.18l-.43-.09-.37-.4-.41.15-.22-.52-.16.27-.43,0-.23-.31-.25.08.18.27-.75.59-.47,0-.59.52.54-1.92.28-1.53,0-1.44.48-3.06.31-1,.76-5.3.55.47.22,0,.07.52.31.33.15.44,0,.3.23.27.69.32.21.35-.17.39.25.43.51.23v.33l.54.53h.23l.57.85.28,0,.56.86v.46l.34.09.29.59-.12.46.29.61.61.36.29.46.92.65.19.71.34.53.59.21.16.55.33.14,0,.41.53.44H183l.05-.23.61.21.22.68-.2.17Z" transform="translate(-76.86 -139.17)" disabled="disabled" style="pointer-events: none;"></path>
    <path name="XXXX" id="path5120-4" class="cls-1" d="M144.19,162.56l-.25.33-.48.56,0,.63-.25.13.15.9-.59.21-.29.65-.34.22-.57.17-.36.43-.29,1.13-.67-.58-.33-.58,0-1.2-1-.52-.74,0-.73.16-.66-.79.23-.56-.19-.87.08-.32.48-.51.09-.68-.43-.31.47-.18.22-.58.79-.84h.71l.57-.2.37.38.72.26.39.71-.17.6.58,0,.42-.93-.07-1,.26-.28.2-.78-.24-.31.3-.64.79-.29,1.13.84.65,0,.52-.17,0,.49.35.57,0,.3-.3.14-.17.35.07.52-.4.37-.28.15-.52.53v.8Z" transform="translate(-76.86 -139.17)" disabled="disabled" style="pointer-events: none;"></path>
    <path name="Cumaral" data-id="705" scale="3" move="15" id="path7039" class="cls-1" d="M168.8,173.88l-.43,1.43-.18,0,0-.16-.14,0-.09.11-.18,0-.08-.11.22-.05,0-.23,0-.21h-.13l-.06.33-.12,0-.11-.3-.13-.18-.3,0-.12-.14-.08-.16-.29,0,0-.15.1-.05-.1-.27h-.13l-.11.18-.1-.06,0-.13-.32-.47-.1,0-.16.08-.14-.14,0-.27-.3-.12-.09-.31h-.36l-.23-.09,0-.13-.32-.06,0-.11-.22-.08-.59,0-.15-.22-.32,0-.63-.32-.53.2-.57-.31L160,171l-1.07-.32-1-.47-.78-.52-.87.21-1.61.11-.72.2-.29.29-.63.18-.39.4-.13.53-.52-.18-.31.45-.82.26L150,172l-.74-.71-1.17-.13-1-.76-.13-.35.08-.71-.21-.44v-.8l-.73-.91-.25.7-.21.24.3,1.26-.39.55.57.33,0,.63-.21.14.14.18.54.07.53.62-.07.55.14.13.18-.2a2.17,2.17,0,0,1,.27.07.07.07,0,0,1,0,.11l.3-.16.09-.29.4.07.41.47-.06.49.43.07.25.34,0,.5h.27l.55.71.13.54.57.37.14-.1.06.39.43.33.37.12.47.87-.13.09.07.16.77.38.05.34.24.12.25-.09a5.2,5.2,0,0,1,.71.06c.09,0,.22.25.22.25h.23l0-.29.1.07.15.26a2.74,2.74,0,0,0,.37.07c.09,0,0,.11,0,.11l.64-.24,0-.2.43.09.19.26.76-.15-.06-.09,1-.11.07-.14.54-.16.21.2.52-.29.3.07.13.2,1-.42,0-.27.39.06.09.23.95-.56.18-.43.63,0,.1.29.68-.06.2-.36.23,0,.23.36.47,0,.18-.19.23.12.45,0,1.12-.69,0,.54.18.17.64,0,.27.13.2-.17.11.24-.26.16.2.07.31-.07.36.4.18-.09V178l.14.07.21-.08.09-.14.18-.06.15.22h.24l.41-.3,0-.34.23-.06.19,0,.06-.17-.3-.11v-.11l.22-.17.29,0,.09.24v.18h.1l.26-.18,0-.1h.14v.33l.18.05.18-.09.25,0,.3-.09.08-.26-.13-.17-.36,0-.15-.24L173,176l.16-.14,0-.57-.2-.1-.17.07-.06.34-.21.19-.22,0-.23-.15,0-.27,0-.17.25.07.13-.12,0-.14-.33,0h-.21l0-.14.24-.13.3,0,.07-.18-.53-.12-.3.13-.22-.1,0-.12.09-.19.2-.11.18-.16.24,0,.26-.08v-.19l-.46-.33-.35,0-.31,0-.21.1,0,.29-.32.34-.18-.1.1-.21,0-.25-.29.15-.14-.1,0-.21-.12,0-.3.37-.15,0-.12-.24-.27-.07-.16-.31Z" transform="translate(-76.86 -139.17)" style="fill: rgb(210, 210, 230);"></path>
    <path name="XXXX" id="path7065" class="cls-1" d="M174.83,205l-.18-.21h-.33l-.33-.29-.17-1,.17-.23-.3-.31L173,203l-.38.18-.43-.24-.68-.1-.13-.28-.61-.11,0-.41.25-.13-.15-.36-.48,0,.12-.24-.25-.46-.38-.23.26-.26-.16-.23-.45-.11.1-.44.2-.15V199c-.08-.48-.55.09-.78.26l-.18-.18-.45,0-.21.39.21.26-.66.43-.15.57-.23-.07v-.11l-.27,0,.21-.27-.12-.15-.65.08v-.36l-.27-.16v-.2h.27a2.62,2.62,0,0,0,0-.33c0-.1-.43-.46-.43-.46l-.29.25-.25,0,0-.43.34-.16v-.78l-.3-.09v-.21l.42-.18.2.23.39-.12-.28-.29,0-.13.23-.2.2.22H167v-.41l.61-.18.3.16.3-.11-.3-.32,0-.2.26-.11.18.18.4-.18-.16-.36,0-.63.25-.05.43-.4,0-.32h.3l.14-.37.31-.13v-.27l-.34-.14,0-.38.27.09v-.4l.22-.18.18.2.36.11.1-.25-.27-.18,0-.33.26-.15-.06-.28.23-.22-.4-.2-.26,0-.31-.33,0-.12-.17-.09-.24.13-.18-.3-.07-.28-.35-.05-.09-.15-.26.22v.38l-.27-.14,0-.3-.21.14-.37-.06,0-.15-.39.21h-.48l-.26.13-.17-.19,0-.44,0-1.37-.45-1.2-.38,0-.08-.56L166,186l.05-.41-.21-.23V185L166,185l.08-.31-.21-.08-.2-.35.41-.36v-.23l.2-.12-.15-.33-.26.12-.3-.05.18-.79.55-.48h.26l.22-.2-.3-.18-.18-.51-.15-.08-.33.31-.17-.28h-.58l-.76-.41-.21-.31-.32-.1-.16.36-.25.25-.58-.3-.3-.59.1-.18.14-.33.28-.24s.36,0,.39-.11l.14-.27.26-.09.07.22.79,0,.07.1.74,0,.24-.48.53-.28.14.23.72.19.26-.07.05-.14.48-.33.07.24h.33l.19-.05.26-.5.41-.16.29.38.08-.26.18-.1V178l.14.07.21-.08.09-.14.18-.06.15.22h.24l.41-.3,0-.34.23-.06.19,0,.06-.17-.3-.11v-.11l.22-.17.29,0,.09.24v.18h.1l.26-.18,0-.1h.14v.33l.18.05.18-.09.26,0v.27l.23.08.31-.22.32-.07.28.26-.16.2-.1.25.12.17.62,0,.19-.48-.18-.51-.08-.31.31-.16.26.11.24.32.22.45.22.27.46,0,.18.21-.14.19.31.21.29-.33.28.22-.09.45.19.11.17-.43-.19-.4.49,0,.36.4.41-.4v-.43h.28c.12,0,0,.29,0,.36s.39.26.39.26h.13l.27-.44.14-.43.14-.57.18-.17.15-.57.61-.1.52.32.46-.15.35-.52-.07-.34-.36-.18-.17-.35-.18-.71.23-.36h.43l.17.25,0,.23-.13.19v.37l.31.15.22-.15.17-.94,0-.43-.2-.24-.07-.21.1-.3.25-.17.29.1.22.58.07.21.56.47h.24l.19-.2-.11-.24-.32,0-.13-.13,0-.26.26-.11.28,0,.76.45.32.37.33,0,.2-.46-.1-.53-.18-.23-.07-.22.11-.19.32-.08.63.35v.39l.44.15.4.09.43-.2.22-.34.17-.32.2-.34v-.42l.17-.26.27-.25.32-.21h.27l.37.45,0,.5.43.48.71-.09.44-.74.48-.67.67-.22,1,.22.35.36.41,0,.62-.14.37,0,.32-.28.62-.1.11.07.18.65.12.07.34-.29.21-.33,1.08-1.12-.09-.43.09-.24.39-.22L199,168l.34,0,.12.31,1.49.59.05.17.75.12.3-.05.16.1.21.52.23.27.41-.08.32-.78.9-.27.59-.74.42,0,.45.64,0,.64.23.43.57-.09.51-.62.2-.15h.39l.87-.26,1.08-.83.55-.67.9-.72.34-.91,1.15-.38.37-.45.78-.07.57-.41.07-.45.52-.15,1.2.24,2.09-.16.61-.34,1.24.1.58.43.66.36.74-.15h.9l.71.19.69.79v.47l-.38.17-.61-.32-.14-.2-.21,0-.25.09-.27.35-.13.29-.27-.25h-.32l-.21-.26-.34.11-.06.26-.76,1.22-.47.2-.43.84.14.35-.14.18-.23,0-.31.81.18,1-.3.14-.18,1,.07.33.25.25-.32.24a2.36,2.36,0,0,0,0,.38c0,.08.34.24.34.24l-.23.24-.29,0-.21.73-.22.2.34.33-.34,0-.09.24.33.26-.09.21-.31.15.22.37-.06.49-.19.16-.49,1.21-.43.44-.51-.08-.43.33-.06.33.88.86.37,0,.88.9,0,.38.21.15h.45l.84.38,0,.18.38-.07v-.35l1.18-.45h.4l.4-.47.15.05.13.4-.27.11-.09.22.18.16,0,.48.1.1-.23.26-.25,0-.16.13,0,.46-.17.21-.11.15.14.07.18.41-.05.32-.09.11-.07.31h-.33l-1-.82-.43-.11-.14.15-.15.4.24.13.53,0,.45.53.09.77-.27.38-.61.22-.46-.31-.77,0-.16.32.34.24.43-.13.44.35-.07.15-.45,0-.6.51-.09.51.09.42.43.29.21.28,0,.27-.59.11-.53-.29-.49,0-.3.44,0,.55.57.44.15.33-.23.11-.13.29a.53.53,0,0,0-.3.09,5.13,5.13,0,0,0-.42.51l-.05.35.14.14,0,.5-.27.43-.48-.2.11-.29.18-.07.16-.84-.27-.11-.34.49-.32,0-.11-.2h-.18l-.11.22-.78-.12-.47.11-.1.36.28.16.22,0-.15.31.18.09.07-.21.29-.06.09-.24.73.3v.34l-.55.11,0,.15.5.36-.07.17h-.55l-.29-.29-.55.17-.34.62.41.4,0,.25-.27.28-.54-.13-.27.31.16.27.31.17-.2.38-.5-.11-.39.31,0,.44.8.42.41.07v.33l-.62.24-.38-.13-.29.2.13.37.27-.2.25.07-.06.24.24.23,0,.28-.34.12-.25-.31-.31.17,0,.24-.42.05-.33.18-.1.31-.26.15-.25-.25-.48.15,0,.18-.25,0-.12.15.1.34-.66.23-.15-.39L209,200l-.18.26-.68-.18-.23.2-.17-.2h-.21l-.38-.6v-.15l-.78-.44h-.33l-.15-.28-.61.07-.1-.1-.38-.05-.35.41-.51-.8-.45,0,0-.19-.48-.15-.38.13-.35-.23-.46.05,0-.29-.33-.2.2-.18-.43-.31-.1.05-.28-.21.1-.18-.23-.15-.27.18-.59-.08.11-.23-.54-.18-.27,0-.13-.46-.3-.11-.31.24-.15-.31-.25-.13-.23.2-.43-.05,0-.31-.3-.13-.15-.13h-.53l0,.19h-.38l.08-.47-.46-.13-.1-.18-.23,0-.3.49-.43-.24-.51-.12-.4.07-.3-.33.17-.21-.1-.26-.28,0-.1-.18-.3,0,0,.23-.48.18-.25-.08-.3.26-.21-.31-.4,0,0-.13-.6-.21-.36.31.13.23,0,.26-.4-.23h-.25l.07.28-.5,0-.05-.13-.38.1,0,.16-.43.1,0,.08.18,0-.25.36,0,.39-.51.2.3.16-.07.13-.46.07.18.24-.18.2-.38.26-.25,0-.1.13.07.18,0,.41-.51,0-.2.3h-.45l-.18.42.18.18-.18.1-.3-.23-.26,0,.13.33-.53.47.28.2,0,.31-.23.05-.17-.25-.46-.06-.2.34h-.2l.07-.41-.5-.16,0,.36-.78.39-.15-.16-1,.13,0,.37-.33.23-.38-.16-.4.29-.28.07-.15.6h-.36l-.6.77H178l-.86.67.1.42.23.1,0,.26-.27.25.27.19.07.5-.57,0-.06.48-.53.38-.21,0-.33.45-.2,0-.11-.09-.51,0-.2,0Z" transform="translate(-76.86 -139.17)" disabled="disabled" style="pointer-events: none;"></path>
    <path name="XXXX" id="path7069" class="cls-1" d="M166.37,189.9l.17.19.26-.13h.48l.39-.21,0,.15.37.06.21-.14,0,.3.27.14v-.38l.26-.22.09.15.35.05.07.28.18.3.24-.13.17.09,0,.12.31.33.26,0,.4.2-.23.22.06.28-.26.15,0,.33.27.18-.1.25-.36-.11-.18-.2-.22.18v.4l-.27-.09,0,.38.34.14v.27l-.31.13-.14.37h-.3l0,.32-.43.4-.25.05,0,.63.16.36-.4.18-.18-.18-.26.11,0,.2.3.32-.3.11-.3-.16-.61.18v.41h-.18l-.2-.22-.23.2,0,.13.28.29-.39.12-.2-.23-.42.18v.21l.3.09v.78l-.34.16,0,.43.25,0,.29-.25s.43.36.43.46a2.62,2.62,0,0,1,0,.33h-.27v.2l.27.16v.36l.65-.08.12.15-.21.27-.29-.11-.37.31.16.21.53-.2.15,0,0,.4.09.19-.27.42-.41-.18-.16.07-.09.34-.41.27-.22.29-.46,0-.34.21-.14-.27-.31,0,0-.09.34-.18-.2-.2-.32.16-.31-.39-.64-.2-.23.09-.45-.13-.41.16,0,.22-.43.11-.28-.38h-.15l-.05.14-.52-.12-.18-.34-.41,0-.2.31-.21,0-.13-.21-.37.19-.13,0-.09-.34-.34.1.09.24-.34.47-.18-.13v-.29l-.25-.07-.22.18-.32-.09-.11-.25h-.36l-.19-.29,0-.28-1.44-7.05-.2-.33-.24.18-.05.3-.39.15-.49,0-.29-.21-.11.1.24.15-.05.16-.17.06-.19.36-.31,0-.14-.15-.35-.17-.44,0-.1-.31-.17,0-.2.19-.1-.14-.21,0v-.19l.11-.1.1-.39.27-.15,0-.19.23-.11.08.18.18,0v-.23l-.25-.25V192l.13-.17,0-.47.23-.28.05-.44.33-.3,0-.84.3-1.07.41-.05-.15-.38.07-.28.14,0,.08-.28.2-.2.28,0,.13.19.25-.13.09,0v.15s.34.15.39.16.26.21.26.21l.5-.12.6.21.4,0,.06-.21.34-.07.12.2.77.18.19.18-.16.12.38.33.2-.23.54-.05.16.18.43,0,.2-.13.32-.05v.1l.5.23.17-.25.5-.07.31.22.09-.34.33-.19.14.1,0-.3.16-.09.16.09-.06.16.48.31v.15l.25.18.17-.16.09,0,0,.16.17.09.59,0,.14.11-.33.21v.16l.2,0,.29.28.1-.27.2-.06.06.12.19,0,.16-.14.23.16.17.2.29-.14Z" transform="translate(-76.86 -139.17)" disabled="disabled" style="pointer-events: none;"></path>
    <path name="XXXX" id="path7083" class="cls-1" d="M153.9,187.4l-.08.28-.14,0-.07.28.15.38-.41.05-.3,1.07,0,.84-.33.3-.05.44-.23.28,0,.47-.13.17v.64l.25.25v.23l-.18,0-.08-.18-.23.11,0,.19-.27.15-.1.39-.11.1,0,.19-.23.32-.21.17-.58.06-.1-.23-.43.3-1.29-.18,0-.25-.53-.43-.48,0-.61-.59-.68-.1-.56.18-.43-.36-.35.15.2.46-.33.33-.18-.15-.48-.15-.5.12-.48-.33-1,0-.88-.48-.18-.2-.38-.16-.23,0-1.34-.79-.22-.49-.41-.15h-.23l-.3-.14-.38-.17-.15-.26-.43.21h-.2l-.18-.28H136l-.13-.26-.53.05-.35.31-.73.12-.18-.28-.53,0-.23-.33.05-.26-.78-.38-.13-.33H132l-.38.18-.56-.13-.2-.35.13-.23-.56-.41.1-.26-.43-.15-.27.15-.71-.17-.48-.54-1.17,0-.5.48-.53-.1-.08-.43-.68,0-.15-.56.27-.25-.2-.56.23-.18-.08-.38-.5-.51-.38-.08-.79-.91-.63,0-.15-.33-.33-.1,0-.49-.41-.07-.24-.17-.36,0-.25-.23.08-.14.11-.07.06,0,.09,0,.08-.32.08-.06,0-.34,0-.05.1,0,.18-.2.33,0,0,0h.48l.12.11v.07l.23.1.14,0,.36-.4.39-.1.31.73.43.29.44-.38.56-.84,0-.46.42-.43.28-.93.39.4.46-.33.93.29.42-.36.63-.33.35-.62.74-.14.45-.35.37-.07.72.56.5-.71.16-1.05.23-.17.42.33.61-.18,1.22.36.76.06.39-.22.06-.18.06.05.27,0,.18-.19.27-.06,0,0,.23.11,0,.23.62.56,0,.22-.22.26.07.16.17,0,.2.46-.39.21-.17.34.07.28-.73.72-.85.3-.32.34h-.36l-.31.33v.44l.16.09.12.29-.25.12v.26l.11.69.13.07,0,.29-.37.43,0,.55.26.09.16.29.32.21v.26l.5.32.19-.22.41-.1.06.32.42.14,0-.27.31-.08.06.27,1.61-.09,0,.12,1.07.06.15-.12.35,0,0,.19.59.42.12-.2H143l.21-.22h.33v.1l.7.45h.61l.34-.2.15.17.47.08.25.27.31-.23.18,0v.12l.58.29h.34l.31-.21.42-.15v.15l.64.42.19-.21.35-.07.4.41.11-.22,1.2-.05.22.1-.07.15.44.25.28-.25.11.13h.5l.09.24.39-.16.1.1.39,0,.12.1v.16l.42.27Z" transform="translate(-76.86 -139.17)" disabled="disabled" style="pointer-events: none;"></path>
    <path name="XXXX" id="path7096" class="cls-1" d="M157,201.21l0-.28-1.44-7.05-.2-.33-.24.18-.05.3-.39.15-.49,0-.29-.21-.11.1.24.15-.05.16-.17.06-.19.36-.31,0-.14-.15-.35-.17-.44,0-.1-.31-.17,0-.2.19-.1-.14-.21,0-.22.32-.21.17-.58.06-.1-.23-.43.3-1.29-.18,0-.25-.53-.43-.48,0-.61-.59-.68-.1-.56.18-.43-.36-.35.15.2.46-.33.33-.18-.15-.48-.15-.5.12-.48-.33-1,0-.88-.48-.18-.2-.38-.16-.22,0-1.34-.79-.23-.49-.41-.15h-.22l-.69-.31-.38.15v.17l.1.11.06.07-.15.11v.21l.39.21.08.24.28.07.08.23.24.16.09.2-.13.11-.29.59-.63.55-.34,0-.31.27v.09l.14,0v.24l.33.32,0,.34.66.58v1l.37.26.64-.05.18.3.54.13.3-.2,1.13.54.09.32h.37l.52-.19.45.21.32.43h.38l.32-.16.34.18.12.24.49,0,.37.18.31-.23.41.12,0,.24.41.36.89.32,0,.34.46.35.82.07.2.3.86-.12.32-.38.36.14.19.4c0,.07.43,0,.43,0h.47l.21-.19.63-.11.37.32.22-.12.57.12.16.27.43-.09.16-.3H154l.05.32.23-.11.16.07.07.43h.13l.07-.26h.14l.08.4.28-.16.16.21h.31c.1,0,.3-.23.3-.23l.23.09v.31l.41-.13.08-.21.15-.1.34.07Z" transform="translate(-76.86 -139.17)" disabled="disabled" style="pointer-events: none;"></path>
    <path name="XXXX" id="path7098" class="cls-1" d="M137.45,190.9v.17l.1.11.06.07-.15.11v.21l.39.21.08.24.28.07.08.23.24.16.09.2-.13.11-.29.59-.63.55-.34,0-.31.27v.09l.14,0v.24l.33.32,0,.34.66.58v1h0l-.27,0-.25-.38-.16-.07-.2.22h-.47l-.12-.29-.36,0-.37-.24-.68-.48-.53-.16-1.22-1.07-.07-.68-.13-.21-.23.28-.68-.46h-.2l-.28-.48-.63-.33h-.94l-1.24.76-.4,0-.13-.2-.61-.06-.22-.4-3.27-.21-2-.58-3.24-.38-1.44-.54-.66-.05-.56-.48-1,0-.46-1.14-1-.84L113.2,187l-.15-1.24h.19l.1-.12h.18l0,.21.42.28.15,0,.33-.39.13,0,.08.09H115l.06-.17h.2l.28.24.07.43.18.14H116l.29,0,0,.08.17,0,.14-.11,0,.06h.3l.11-.05,0-.13v-.23l.1,0,.13,0,.44-.09.09-.08.38,0,.18-.14.06-.19.29-.25,0-.16.11-.15.09,0,.45-.35.1-.24.09-.57.41-.44.18,0,0,.06v.17l.12,0,.11-.08.12-.19.25-.09,0-.07.22-.1,0,.15.28,0,.08.12h.24l.1-.15V183l-.15-.1v-.55l.08,0,.24.23.36,0,.24.17.41.08,0,.48.33.1.15.33.64,0,.78.91.38.08.5.51.08.38-.23.18.2.56-.27.25.15.56.68,0,.08.43.53.1.5-.48,1.17,0,.48.54.71.18.27-.16.43.16-.1.25.56.41-.13.23.21.35.55.13L132,189h.43l.13.33.78.38-.05.26.23.33.53,0,.18.28.73-.12.35-.31.53-.05.13.26h.91l.18.28h.2l.43-.21.15.26Z" transform="translate(-76.86 -139.17)" disabled="disabled" style="pointer-events: none;"></path>
    <path name="La Uribe" data-id="709" scale="1.2" move="10" id="path7137" class="cls-1" d="M126.43,263.22l0,.39-.3.08-.27-.22,0-.33-.17-.05-.11.38.06.22-.07.15h-.24l-.16.39-.22.12-.33-.16,0-.2.29,0,.24-.22-.19-.18-.26.07-.09.12-.12,0-.15-.28.18-.14v-.16l-.43-.26-.08-.31-.16-.06-.27.25-.2,0-.22-.31-.26.06-.23-.2.35-.17,0-.4-.44-.15-.24.24-.31-.13-.46.18-.45-.16h-.33l-.13.26.17.25-.08.37-.45,0-.15-.22.29-.37-.25-.33-.26.38-.24-.23-.84.38-.31-.13,0-.31-.47-.26-.22.11-.29-.09-1,.44-.22-.24-1-.16-.35.18-.6.06-.24-.43-.6-.14-.29.14,0,.39-.26,0-.65-.24-1.1.22-.09.46H111l-.11-.24h-.34l-.13-.53-.07-.06-.24.54-.36.21L109,262l-.28-.25-.72.36-1.36-.11-.46-.32-1,.72-1.07-.07-.43-.54h-.29l-1.07.68H102l-1.47.79-.57-.54-.82.51,0,.46-.54-.1-.39.82-.61-.32,0,.43.39.29-.32.25v.36l.32.47-.21.22-.43.93h-.33l-.14.58-.79.75L89.28,267l-.39.09.17-.59v-.69l.64-.15-.15-.91L88.46,264l-.19-.49-.1-1.48.66-.8,1.19-.57-.16-.6.79-.77h1l.06-.33-.33-.47.2-.44.82.27.6-1.6-.27-1-1-.37-.29-.5-1,0-.17-.53.66-.64-.16-.63.63-1-.17-.24H90.12l.1-.57a10.86,10.86,0,0,1-.66-1,3.53,3.53,0,0,1-.07-.77l-.46-.16-.3-.74.17-.33-.33-.4.69-.4-.53-1.71,0-.77-1-.3-1.75.34-.3.43-.46-.07h-.79l-.76.4-.56-.4,0-1-.83-.64.17-.87L82,242.3l-1.15.63-.56.11-.14.53-.23,0-.36-.4H78.12l-.23.2-.17-.36.27-.94-.24-.7-.59-.07-.15-.65h.23l.08.12.3,0v-.32l.25-.08.18.22.38-.32.07-.4-.2-.12.5-.52.2,0,.53-.07.1-.52.53-.76.39-1,.44-.08,0-.07-.12-.25.09-.24L82,236h.46l.27-.27-.15-.23-.12-.46.7-.37.25-.49.36-.28-.1-.17.17-.17.56.18.74-.4.29-.53-.18-.23,0-.34.32-.21-.16-.25.08-.45.13,0,.39-.69.76-.63.15,0,.69-.43-.13-.16.4-.59.23.08.2-.28-.26-.22v-.18l-.16-.11.26-.14.1-.2-.12-.11,0-.29.42-.24.2.06.13-.18-.27-.16.31-.42.37-.23,0-.16.21-.32.14.09.27,0-.13-.24.45-.69.31-.22v-.25l.15-.15.32-.12.28-.19.29-.05-.11-.25-.43-.26.06-.31.14-.14.37-.76-.12-.62-.32-.28v-.21L91,221l0-.27-.08-.07-.2-.48-.53-.37.11-.22.35-.12.44-.11.11-.21-.25-.39.09-.4.94-.67v-.26l.18,0-.11-.17-.29,0-.1-.19,0-.34-.31-.26.08-.08.15-.06.12-.44,0-.43-.17-.09v-.4l-.78-.38,0-.29.48-.43.06-.27.29-.09.2-.54.15-.07.31-.43-.11-.26.17-.17h.3l.23-.28,0-.17.14-.27.23-.06.1.34.19.08.39-.22.17.25h.11l.95-1.48.47-.41.75-1.12-.14-.09v-.56l.26-.36.37-.12,0-.09-.09-.13v-.4l.26-.79.26-.95.58-.24.39-.59v-.31l.36,0,.17.19h.43l.4-.19.18-.68.29-.54h.17l.24-.18.2-.1.15-.34-.19-.11.32-.2.21,0,.34,0,.29-.6.27-.13,0-.2-.29-.3,0-.28-.21-.3.15.06.55.12.24,0,.16-.26.39,0,.32.17.27.5h.12l.33.37-.16.25.06.27.16.06.36-.25.73.08.18.19.23-.18.39,0,0-.28h.12l0,.12h.4l.22.16h.1l.15-.16.82,0,.18.2.36-.28L109,201l.92-.91.65-.33.16,0,.56-.6.1-.76-.06-.29v-.41l.2,0,.07.1,0,.28.21.49.14.1,0,.22-.19.25v.3l.6.38,0,.51-.08,0-.13.39-.28.18-.31,0,0,.16.22.59-.24.24-.33,0,.18.28v.51l-.14.41-.23-.11-.18.06v.45l.2.16-.08.31-.18-.13-.49.29.1.36.2.22-.08.43.19-.08.2,0,.06.31,0,.46-.4,1,0,.48.2.24,0,.29.07.52-.38.84-.36.38-.14.65-.14.53-.29.45-.1.39,0,.26-.13.55,0,.44-.2.49-.39.12-.17.73-.56.32.05.49.22.27,0,.37.31.9.47.15-.2.59-.29.14-.15.52.27.24-.14.91.24.27,0,.78-.2.17-.24,0-.12.51-.11,0-.09.24.25.24.18.95.13.31,0,.73.62.66h.19l.17.22-.2.3,0,.14.28.06.06.34-.2.17.09.07,0,.18.16.11.13.52,0,.54-.18.42-.12.1.5.51v.44l-.38.29-.09.31,0,.33.2.09.11.26,0,.25.2.2.05.42.36.33.34.57v.29l.14.09,0,.15-.15.25,0,1.1.09.62.11.24.25.31,0,.33.15.22.23,0,.13.35-.11.22,0,.57.15.09.09.46.11.09V237l-.2.18.18.17v.22l-.13.12,0,.37.18.36v.32l.42.43.1.22v.48l.49.46.11.47-.13.35.06.11.36.2,0,.13-.11.16V242l.3.16.09.27-.14.17.61.55V244l.2.13,0,.42-.49.79-.05.36.14.15v.22l-.07.2,0,.36.14.19,0,.16.74.09.12.15,0,.24.22,0,.05.18.14.18.35.09,0,.4.22.19.29.09,0,.11-.12.09.12.47.33.33.3.15,0,.33.13.33v.14l.27.08.31.31.36.11.11.09v.35l.18.14.13.64.24.13.25-.07.34.27,0,.18-.06.11.09.39.33.1.36,0,.11.19v.19l-.18.16v.1l.2.25,0,.28-.3.1,0,.34.29.33h.63l.07.15-.17.13,0,.16H121l0,.17-.37,0v.14l.13.08-.27.24.28,0,.25-.14,0,.24.44.19,0,.19-.26.21-.26-.1.06.31.17.12,0,.28-.24.1-.07-.2h-.23v.15l.21.08v.42l.12,0,.16-.07h.13l0,.12.41,0,.08.19-.14.16.07.13.21,0-.05-.27.12-.19.19.23V259l.1,0-.11.19.07.14h.31l.07.15-.15.13v.18l.44.1.08-.24.17,0-.05.17V260l.17.05.08-.15,0-.23.1-.13.27.26.1.42-.1.29.1.24.29.07.22.08v.34l.17.16.5.06.14,0,.11.31.13.1,0,.2-.25.17,0,.11h.17l.07-.17h.28l.1.3.3-.05.13.07.3-.16.08.07-.2.28.21.4Z" transform="translate(-76.86 -139.17)" style="fill: rgb(210, 210, 230);"></path>
    <path name="Mesetas" data-id="707" id="path7015" class="cls-1" d="M124.61,261.42l-.17-.16v-.34l-.22-.08-.29-.07-.1-.24.1-.29-.1-.42-.27-.26-.1.13.06.23-.09.15-.17-.05v-.17l.05-.17-.17,0-.08.24-.44-.1v-.18l.15-.13-.07-.15h-.31l-.07-.14.11-.19-.1,0v-.22l-.18-.23-.13.19.05.27-.21,0-.07-.13.14-.16-.08-.19-.41,0,0-.12h-.13l-.16.07-.12,0V258l-.21-.08v-.15H121l.07.2.24-.1,0-.28-.17-.12-.05-.31.25.1.26-.21,0-.19-.44-.19,0-.24-.26.14-.28,0,.27-.24-.13-.08v-.14l.37,0,0-.17h-.24l0-.16.17-.13-.07-.15h-.63l-.29-.33,0-.34.3-.1,0-.28-.2-.25V254l.19-.16,0-.19-.11-.19-.36,0-.32-.1-.1-.39.06-.11,0-.18-.34-.27-.25.07-.24-.13-.12-.64-.19-.15v-.34l-.11-.09-.36-.11-.31-.31-.27-.08v-.14l-.13-.33,0-.33-.3-.15-.33-.33-.12-.47.12-.09,0-.11-.29-.09-.22-.19,0-.4-.35-.09-.14-.18-.05-.19h-.22l0-.24-.12-.15-.74-.09,0-.16-.14-.19,0-.36.07-.2v-.22l-.14-.15.05-.36.49-.79,0-.42-.2-.13v-.89l-.61-.55.14-.17-.09-.27-.3-.16v-.26l.11-.16,0-.13-.36-.2-.06-.11.13-.35-.11-.48-.49-.45v-.48l-.1-.22-.42-.43v-.32l-.18-.36,0-.37.13-.12v-.22l-.18-.17.2-.18v-.29l-.11-.09-.09-.46-.15-.09,0-.57.11-.22-.13-.35-.23,0-.15-.22,0-.33L111,234l-.11-.24-.09-.62,0-1.1.15-.25,0-.15-.14-.09,0-.29-.35-.57-.36-.33-.05-.42-.2-.2,0-.25-.11-.26-.2-.09,0-.33.09-.31.38-.29v-.44l-.5-.51.12-.1.18-.42,0-.54-.13-.52-.16-.11,0-.18-.09-.07.2-.17-.06-.34-.28-.06,0-.14.2-.3-.17-.22h-.19l-.62-.66,0-.73-.13-.31-.18-.95-.25-.24L108,221l.11,0,.12-.51.24,0,.2-.17,0-.78-.24-.27.14-.91-.27-.24.15-.52.29-.14.2-.59-.47-.15-.31-.9,0-.37-.22-.27-.05-.49.56-.32.17-.73.39-.12.2-.49,0-.44.13-.55,0-.26.1-.39.29-.45.14-.53.14-.65.36-.38.38-.84-.07-.52,0-.29-.19-.24,0-.48.4-1,0-.46-.06-.31-.2,0-.19.08.08-.44-.2-.21-.1-.36.36-.21.2.55.43,0,.38.14v1.33l-.54,1,0,.69,1,1.36-.25.62.07.43-.07.75h1.25l.43-.5.58-.29-.15-.5.47-.51.57.58.46-.4,1.08.11.35.43-.35.33v.86l.46.61-.14.62.43.25-.25.75-.5.18,1.11.65.53-.21,1,0,.43-.25.39.36-.07.43.52.44.34.16.45,0,.6.39.22.44.16.22.18.11.26.75.41.49.12.27,0,.54-.2.18v.49l.25.47.11.53.34.65H124l.89.22.38.26.26.11.08.25-.08.09-.08.49-.39.65-.54.51-.09.25,0,.5.14.18.25.12.09.27-.09.33-.53.71-.38.33,0,.36.1.15.12-.17h.17v.21l.15.14.15.05.06.18-.16.27-.37.09v.22l-.39.64-.16.1,0-.31-.1-.13-.09.16-.14,0-.08.11-.06,0,.11-.22,0-.22h-.08l-.09.07,0-.13.1-.11.12,0,0-.23L123,227l-.17,0-.1-.17.15-.09v-.54l-.45-.1-.26.12h-.52l-.19-.17-.07,0-.1.47-.44.77-.24.18v.3l.12.13,1,2.94-.11.5-.68.34-.4.07.18.62-.71.64.5.44.18.72-.61.75.53.43-1,.11-.18.65H119l-.17-.4-.36.22-.36.54.43.5.36,0v.32l-.36.18,0,.65.21.29-.36.25h-.53l-.47.4-.21-.11-.86.29.07.54.57.32h.36l.64.76-.07,1.22-.28.11.42.75s.76.33.9.36,0,.22,0,.22h.54l.32-.25.39.1.55-.19.33-.19,1.13.25.21.3.2.1-.19.3-.2,0-.24.06-.2.46-.15.46-.18-.07,0,.22.19.09.06.18-.25.2-.09.3-.17-.1-.24,0-.06.33-.14.15-.11-.16-.13.14.16.41,0,.37.22,0,0,.27-.17,0-.13.18,0,.18.37.17-.15.13.15.15h.19l0-.28.32.11.15.23.44-.14.12-.07.12.19-.21.15.12.12.23-.1.08.28-.15.18.37,0,.13-.12.22.06V249l.25.38-.1.15v.1h.63l.18.15.19-.13.16.13,0,.23.19,0-.06.24-.23.15-.13.25.07.34.22,0,.1-.06.19.11,0,.22-.12.16.18.17v.4l-.17.06.1.2.22.2,0,.13-.1.08V253h-.19l-.06-.09-.18.06,0,.1-.16.18h-.34l-.09.28-.29.33-.19-.07-.15.22.17.18.35.07.09.27h.16l.11-.21h.31l.18-.12.13.21-.1.21,0,.07.3-.19.09.05,0,.29.35.2v.17l0,.12-.15,0-.08.15.2.11v.07l-.22.18.25,0,.15,0-.06.48-.18.09,0,.07.45,0,0,.13-.25.16.44.08.11.25-.1.11,0,.43-.16,0-.09-.11-.13.11-.14-.2-.14,0-.09.15.16.17.1.52.19.23v.37l-.09.18-.09-.16h-.11l-.21.32v.41l.19.33,0,.22-.17.06.17.14v.09l-.34.28,0,.22.15.18-.07.25Z" transform="translate(-76.86 -139.17)" style="fill: rgb(210, 210, 230);"></path>
    <path name="XXXX" id="path7144" class="cls-1" d="M126.43,263.22l0,.39-.3.08-.27-.22,0-.33-.17-.05-.11.38.06.22-.07.15h-.24l-.16.39-.22.12-.33-.16,0-.2.29,0,.24-.22-.19-.18-.26.07-.09.12-.12,0-.15-.28.18-.14v-.16l-.43-.26-.08-.31-.16-.06-.27.25-.2,0-.22-.31-.26.06-.23-.2.35-.17,0-.4-.44-.15-.24.24-.31-.13-.46.18-.45-.16h-.33l-.13.26.17.25-.08.37-.45,0-.15-.22.29-.37-.25-.33-.26.38-.24-.23-.84.38-.31-.13,0-.31-.47-.26-.22.11-.29-.09-1,.44-.22-.24-1-.16-.35.18-.6.06-.24-.43-.6-.14-.29.14,0,.39-.26,0-.65-.24-1.1.22-.09.46H111l-.11-.24h-.34l-.13-.53-.07-.06-.24.54-.36.21L109,262l-.28-.25-.72.36-1.36-.11-.46-.32-1,.72-1.07-.07-.43-.54h-.29l-1.07.68H102l-1.47.79-.57-.54-.82.51,0,.46-.54-.1-.39.82-.61-.32,0,.43.39.29-.32.25v.36l.32.47-.21.22-.43.93h-.33l-.14.58-.79.75L89.28,267l-.39.09-.28.94-.07.65-.23.38h-.6l-.38,1.07-.79,1.6-.87.68-.6,1.64,0,2.1-.48.5.18.49h.64l.79.39V277l.53-.49.38.76.79.08.41.72.61,0,.18.42,1,.61v.42L88.8,280l.23.35.82.19.53.53h.94l.6-.34.64,1.07-.18,1.75.49.69s-1.13.42-1.21.42H91l-.64.49.07,1.68-1,1.07.64.19.42-.53,1.58.3.26.38-.56.88,1,1,.3,0-.19.92,1.54,1.51.15.53-.49.72L94,295l-.34.15.19.57.56.53-.19.91-.19.34.08,1.63.3.34,1.31.22,1.53.69.11.49,1.34.68,1.16-.08,1.39-.26.3.12h.6l.48.41.23.76.64.74,1,.43.69-.38.76-.73,1.33-.06,1.39.84.84,2.12v2.73l.76.69,1.39,0,.46-.59.44.2.39-.48.38.13.48-.3-.09-.41.53-.67,0,.24.73-.24-.17-.11.89-.15.14.38.92.66.87-.07.6.26-.21.49.53.26.17.38-.43.31.13.53.39.18.07.42.58.09.86-.86,1.31-.09.69.47-.16.62.21.23.64-.49.53.18.41-.08.36.5-.36.54.44.8.51,0s.21-.7.33-.75,1-.23,1-.23l.41-.47,1.08-.16.23-.23h.33l.18.21.45.24.09.52.79.27h.82l.41.37,1.41-.31.2.4.52-.07.27-.59.62-.26,1-.53h.51l.82.23.49-.07,0-.35.62-.06,1,.47.59-.25.78,0,.81,1.17.6,0,.14-35.7.35.41.43,0,.48-.51,0-.28-.46-.39,0-.73.3-.49.52,0,.41-.51-.22-.33-.56-.1-.06-.28-.31-.41.13-.26L143,272l.1-.36.82-.07.56-.38.15-.24s.44.21.44.3-.07.71-.07.71l-.32.15.26.68.77.15.39-.25.13-.37.28-.3.52-.13.39-.28v-.36l.19-.17.65.08s-.18.73-.18.84.31.47.31.47l.19.75-.15.26-.11.45.39.11.3-.19v-.37l-.21-.23.36-.48.48-.08.41.19.62-.36.61.4,0,.69.37.21.41-.36.11-.62-.45-.73,0-.58.46-.26.36,0,0-.59-.24-.1-.12-.18,0-.14-.1-.08-.23.08v-.18l.28-.3v-.13l-.16-.1.21-.1-.05-.35-.15-.15,0-.2.25-.13.09-.29-.09-.19.26-.2v-.25l.13,0v-.19l-.16-.07,0-.1-.22.2-.08-.11-.1-.22.07-.48-.19-.17v-.12l.2-.2V266l-.07,0-.06-.15-.13-.08-.29-.27v-.19l-.17-.06-.15-.32-.08,0-.13.27-.11-.11-.15,0-.14.19h-.11l-.1-.21-.16.16-.13.06,0,.22h-.13l-.1-.15-.27-.07,0-.36-.36-.28,0-.26-.23-.1,0-.16.32-.06.34-.23-.07-.14v-.18l-.19-.11.32-.19,0-.28-.11-.14.07,0,0-.28-.42-.33-.24-.26v-.26l.31-.26,0-.47h-.86l0-.18.25-.22-.18-.18h-.36l-1-.57.25-.76-.64-.61v-.43l-.25-.15-19.33,5.33-.11.13-.37,0Z" transform="translate(-76.86 -139.17)" disabled="disabled" style="pointer-events: none;"></path>
    <path name="Lejanías" data-id="710" scale="3" move="16" id="path7005" class="cls-1" d="M121,215.06l.1-.32.28-.32h.07l.28-.3-.09-.12.09-.08,0-.25-.35-.19v-.16l.21-.16L122,213l0-.24.2-.06.19.18,0,.1.19.17.09-.06h.41l.09.26h.17l.08-.16.46,0,.21-.17.16,0,.06.19.34.11.08.17.72.47.86.38.14.14.83.42.23,0,.1.08v.14l.11.09.31.1,1,.23,1.24.1.34.08.46,0-.05-.3-.11-.11,0-.22-.21-.1-.1-.45.09-.1.1-.62-.16-.16,0-.78-.49-.39-.05-.15-.43,0-.24,0L129,212l-.89-.27-.67-.33h-.13l-.09.18-.12-.09,0-.16h-.2l-.21-.27V211l-.19,0,0,.34h-.28l0-.1-.15,0-.1.2-.22-.09-.09-.27.15-.13.07-.25.13-.06,0-.12-.16-.08,0-.55-.64-.58-.07-.19-.18-.08-.23-.28v-.42a3,3,0,0,0-.33-.12l-.37,0-.22-.17-.13-.41-.17-.12v-.47l-.3-.19-.26-.05,0-.15-.22-.31h-.16l-.25.19-.24-.14v-.27l.23-.27v-.21l-.22-.18.09-.26-.07-.69-.44-.29-.11-.17,0-.42.41-.43-.09-.29-.13,0v-.09l-.63-.65,0-.23.12-.11,0-.35v-.31l-.35-.3,0-.28.12-.14-.08-.34-.2-.06,0-.1-.49-.47-.45-.06-.27-.18-.06-.19-.27-.22-.1-.25-.25-.54-.46,0-.1.15-.3-.13-.24.14,0,.21-.2.14h-.46l-.83-.18-.48-.56-.23-.13-.27,0-.1.09h-.64l-.29.12-.51.41h-.2l-.69-.91.06-.21-.18-.14-.36-.08-.1-.28-.86-.1-.29.12-.17.41.32.53.19,0,.07.1,0,.28.21.49.14.1,0,.22-.19.25v.3l.6.38,0,.51-.08,0-.13.39-.28.18-.31,0,0,.16.22.59-.24.24-.33,0,.18.28v.51l-.14.41-.23-.11-.18.06v.45l.2.16-.08.31-.18-.13-.13.08.2.55.43,0,.38.13v1.33l-.54,1,0,.69,1,1.36-.25.62.07.43-.07.75h1.25l.43-.5.57-.29-.14-.5.47-.51.57.58.46-.4,1.08.11.35.43-.35.33v.86l.46.61-.14.62.43.25-.25.75-.5.18,1.11.65.53-.21,1,0,.43-.25.39.36-.07.43.54.45.33.16Z" transform="translate(-76.86 -139.17)" style="fill: rgb(210, 210, 230);"></path>
    <path name="San Juan de Arama" data-id="718" scale="2.5" move="16" id="path7011" class="cls-1" d="M120.72,227.94l-.12-.13v-.3l.24-.18.44-.77.1-.47.07,0,.19.17h.52l.26-.12.45.1v.54l-.15.09.1.17.17,0,.17.07,0,.23-.12,0-.1.11,0,.13.09-.07h.08l0,.22-.11.22.06,0,.08-.11.14,0,.09-.16.1.13,0,.31.16-.1.39-.64v-.22l.37-.09.16-.27-.06-.18-.15-.05-.15-.14v-.21h-.17l-.12.17-.1-.15,0-.36.38-.33.53-.71.09-.33-.09-.27-.25-.12-.14-.18,0-.5.09-.25.54-.51.39-.65.08-.49.08-.09-.08-.25-.26-.11-.38-.26-.89-.22h-.34l-.34-.65-.11-.53-.25-.47v-.49l.2-.18,0-.54-.12-.27-.41-.49-.26-.75-.18-.11-.16-.22-.22-.44-.6-.39H121l.1-.32.28-.32h.07l.28-.3-.09-.12.09-.08,0-.25-.35-.19v-.16l.21-.16L122,213l0-.24.2-.07.19.19,0,.1.19.17.09-.06h.41l.09.26h.17l.08-.16.46,0,.21-.17.16,0,.06.19.34.11.08.17.72.47.86.38.14.14.83.42.23,0,.1.08v.14l.11.09.31.1,1,.23,1.24.1.34.08.46,0,.1.12.63.24,1,.33.13.13.63.19.21.09.17,0,.66.77v.18l-.12.12-.35,0L134,218l.22.31.28,0,.11-.14h.19l0,.11.59.45.44.19.48.29.09.2.19.16.25,0v.17l-.19.24.2.4.45,0,.28.45.61.43.25,0,.26.29,0,.18.42.3.19-.06,0,0h.16l.49.28h.22s0,.23,0,.23l.11.05.8,0,.1.16.12,0h.21l.61.46,0,.27.7.48.12.28-.14,0-.11.21.19.13.18-.13.62.54,1,.38.3.48.36.24-.32.32.25.4.91-.11.16-.11.77.4,0,.57.38.4-.13.22.07.39.36.11.3.39.29-.27.46.06.68.54.34,0s.84.79.95.86.38-.45.38-.45l.16.36,0,.4-.27.11-.07.32.18.31-.41.71v.33h0l-.37.06-.1.2-.43-.09-.38-.41-.45.07-1-.71,0-.17-.43-.1-.09.2-.23-.1-.11-.2-.47-.21-.11-.21h-.33l0,.17.24.12.09.22-.3.12.05.16-.33.07-.46-.09-.26-.32-.23.06-.29-.34.23-.16-.08-.24-.24,0-.23.18s0,0-.13-.2-.42,0-.42,0l-.19.15-.14-.25a3.47,3.47,0,0,0-.43,0,1.05,1.05,0,0,0-.16.2s-.32-.17-.32-.22.14-.13.14-.13l-.23-.17a1.42,1.42,0,0,0-.25.07s-.12.18-.12.18h-.22l-.05-.15-.27-.3-.38.08-.17-.16-.18,0V230h-.23l-.14.08h-.18v-.27l-.31-.23-.39.49-.32-.06-.46-.37h-.5l-.32-.41h-.32l-.16-.23-.24-.07-.68-.43-.05-.11-.6,0,0-.07-.28,0-.55.24-.21-.13-.29-.05-.28-.49-.41,0-.05-.23-.21.07-.13,0-1.61,1-.79-1-.09.21-.09-.1h-.32l-.58.35h-.57l-.92.82.11.31-.48.46-.37.18-.32-.25h-.43l-.3.2-.32.5-.24-.14-.15.16-.35,0-.21-.17-.39.21-.14-.14-.25,0-.16-.14-.34,0-.26.13-.23,0-.3-.11-.55.2-.23-.12-.82.14,0,.34-.24.15Z" transform="translate(-76.86 -139.17)" style="fill: rgb(210, 210, 230);"></path>
    <path name="El Castillo" data-id="701" scale="3.5" move="16" id="path7037" class="cls-1" d="M136.64,205.76l0,.14.16.23,0,.29-.1.12v.14l.16.15-.08.32-.08.12V208l.24.22-.11.12.15.12,0,.69-.22.33,0,1.27.23.26,0,.37h-.13l-.07.34.12.25h-.19l-.12-.19-.7.09-.14-.06-.24.21-1.06.37-.27-.07-.31.3-.36-.09-.8,0-.17.1-.13,0-.13-.18-.93,0,0-.09h-.1l-.15.15-.36-.15-.05-.05-.23.08-.38,0-.43,0-.24,0L129,212l-.89-.27-.67-.33h-.13l-.09.18-.12-.09,0-.16h-.2l-.2-.27V211l-.19,0,0,.34h-.28l0-.1-.15,0-.1.2-.22-.09-.09-.27.15-.13.07-.25.13-.06,0-.12-.16-.08,0-.55-.64-.58-.07-.19-.17-.08-.24-.28v-.42a3,3,0,0,0-.33-.12l-.37,0-.22-.17-.13-.41-.17-.12v-.47l-.3-.19-.26-.05,0-.15-.22-.31h-.16l-.25.19-.24-.14v-.27l.23-.27v-.21l-.22-.18.09-.26-.07-.69-.44-.29-.11-.17,0-.42.41-.43-.09-.29-.13,0v-.09l-.63-.65,0-.23.12-.11,0-.34.86.28.73.07.11.14.56,0,.39-.19.11-.27.89-.23v-.22l-.09-.06-.11-.65.53-.55.62,0,.88-.2.13-.18h.19l.21.38h.09l.18-.16h.16l.4.35.72.11v.32l.25.11,0,.26.09.07v.32l-.46.32-.2-.14-.08.11v.15l.13.12.05.7.86.43.17.28.24.14.14.14.4.05.23-.15.21.12,1,.15.79,1.3.49-.5,1.69.12.43-.28.86.11.25.61.36.49Z" transform="translate(-76.86 -139.17)" style="fill: rgb(210, 210, 230);"></path>
    <path name="El Dorado" data-id="702" scale="7.5" move="19" id="path7040" class="cls-1" d="M136.45,204.15l-.17-1-.25-.27-.44-1-.24-.26-.16-.76-.37-.45-.37-.06-.48-.46-.32,0-.36-.22h-.24l-.87-.63-.2-.23h-.16l-.19.16-.45,0-.07-.05-.21.1-.11.19-.14.09h-.2l-.37.34-.1.6-.21.1h-.16l-.11.24-.31.09,0,.25.09.07v.32l-.46.32-.2-.14-.08.11v.15l.13.12.05.7.86.43.17.28.24.14.14.14.4.05.23-.15.21.12,1,.15.79,1.3.49-.5,1.69.12.43-.28.86.11Z" transform="translate(-76.86 -139.17)" style="fill: rgb(210, 210, 230);"></path>
    <path name="Prueba" data-id="728" id="path5150" class="cls-1" d="M142.22,210.1l-.31.13-.29.44.11.48-.23.29-.52.49-.06.51-.84,1.07-.17.65.26.47L140,215l-.63.36h-.45l-.13.39.14.35-.16.17-.41,0-.2.3-.31,0-.13.22.31.25,0,.36,0,.57-.42.51-.43.81-.22.25-.25,0-.19-.16-.09-.2-.48-.29-.44-.19-.59-.45,0-.11h-.19l-.11.14-.28,0L134,218l.14-.17.35,0,.12-.12v-.18l-.66-.77-.17,0-.21-.09-.63-.19-.13-.13-1-.33-.63-.24-.1-.12-.05-.3-.11-.11,0-.22-.21-.1-.1-.45.09-.1.1-.62-.16-.16,0-.78-.49-.39-.06-.16.39,0,.23-.08.05.05.36.15.15-.15h.1l0,.09.93,0,.13.18.13,0,.17-.1.8,0,.36.09.31-.3.27.07,1.06-.37.24-.21.14.06.7-.09.12.19h.19l-.12-.25.07-.34H137l0-.37-.23-.26,0-1.27.22-.33,0-.69-.15-.12.11-.12-.24-.22v-.73l.08-.12.08-.32-.16-.15v-.14l.1-.12,0-.29-.16-.23,0-.14.27-.23.37-.2.63,0,.43-.31.12-.3h.48l.46.64.23.91.53.51.07.41-.1.2.33.66.58,0,1,1.07.1.5Z" transform="translate(-76.86 -139.17)"></path>
    <path name="XXXX" id="path7078" class="cls-1" d="M136.91,219.73l-.19.24.2.4.45,0,.28.45.61.43.25,0,.26.29,0,.18.42.3.19-.06,0,0h.16l.49.28h.22s0,.23,0,.23l.11.05.8,0,.1.16.12,0h.21l.61.46,0,.27.7.48.12.28-.14,0-.11.21.19.13.18-.13.62.54,1,.38.3.48.36.24-.32.32.25.4.91-.11.16-.11.57.29.14-.28h.05l0-.12-.09-.08v-.23l.06,0,.05-.29-.16-.18-.08-.23-.31-.2-.06-.36-.53-.33-.62,0-.08.1-.14,0,0-.15-.33-.43-.34,0-.35-.39,0-.23.17-.09.09-.25.29,0,0,.08.76.11.07.12.53,0,.07-.17.13,0,.1.23.46,0,.09-.12h0l0,.07.38,0,.1.26.42,0,.42-.32h.28l.09-.19-.25-.13,0-.18.33-.16.6,0-.07-.75.23.27.23,0,.06.05h.23l.08-.11.64,0,.34.33.15.54.41.23.4-.06.22-.4.08,0,0,.1.29,0,.39-.46.17-1.31,0-.42-.23-.23.08-.51-.28-.89-.51-.25,0-.08-.14,0-.09.08-.27,0-.09-.19-.14-.07-.07-.29.16-.07v-.07l-.17-.06-.41-.35v-.21l-.18.14-.35-.25-.39-.13-.49.17-.42,0-.36.25h-.49l-.32-.33-.35,0,0-.11.08-.13-.15-.29h-.17v-.25l-.7-.62-.21-.41-.45-.14-.3.18,0-.11-.14-.07-.15-.22.18-.21-.16-.31v-.15l-.24-.26,0-.31-.3-.12L145,214l-.15-.08.11-.14v-.36l-.24-.24,0-.27-.18-.12.2-.16-.07-.16-.35-.25v-.11l-.44-.41-.47-.36.06-.41-.32-.07v-.32l-.11-.09-.11.11-.31-.16-.08-.14-.3-.12-.31.13-.29.44.11.48-.23.29-.52.49,0,.51-.85,1.07-.17.65.26.47L140,215l-.63.36h-.45l-.13.39.14.35-.16.17-.41,0-.2.3-.31,0-.13.22.31.25,0,.36,0,.57-.42.51-.43.81-.22.25Z" transform="translate(-76.86 -139.17)" disabled="disabled" style="pointer-events: none;"></path>
    <path name="XXXX" id="path7087" class="cls-1" d="M150.94,232l.41-.71-.18-.31.07-.32.27-.11,0-.4-.16-.36s-.27.52-.38.45-.95-.86-.95-.86l-.34,0-.68-.54-.46-.06-.29.27-.3-.39-.36-.11-.07-.39.12-.22-.37-.4,0-.57-.2-.11.14-.27h.05l0-.13-.09-.08v-.23l.06,0,.05-.29-.16-.18-.08-.23-.31-.2-.06-.36-.53-.33-.62,0-.08.1-.14,0,0-.15-.33-.43-.34,0-.35-.39,0-.23.17-.09.09-.25.29,0,0,.08.76.11.07.12.53,0,.07-.17.13,0,.1.23.46,0,.09-.12h0l0,.07.38,0,.1.26.42,0,.42-.32h.28l.09-.19-.25-.13,0-.18.33-.16.6,0-.07-.75.23.27.23,0,.06.05h.23l.08-.11.64,0,.34.33.15.54.41.23.4-.06.22-.4.08,0,0,.1.29,0,.39-.46.17-1.31,0-.42.48-1v-.38l.48-.41,0-.1-.12-.12,0-.15.11-.06-.14-.14-.06-.34.1-.89.12,0v-.24l.25-.07.36-.54.51-.31.33-.38-.09-.27-.23-.15V215l.17-.19.06-.42.12-.09.07-.49.61-.36,0-.19.7-.42h.17l.06.15.49.09.07.11,0,.23.08.14.55,0,0,.17.23,0,0-.06h.12l.33.2,0,.14.62.15.12.22-.05.14.14.15h.1l.05-.32.22,0,0,.11H161l.11.07.26.79.28.25.25.2v.38l.33-.13.1-.3.2.41-.25.48.3.18.08-.1.71,0,.15.18-.25.25.53.26.38-.15.2.28-.2.27-.41.06-.1.25.28.2.1.46.35,0,.46.4-.33.31.46.53.45,0,.25-.31.66.44-.15.35.28,0,.23-.17.27,0,.11.26.27-.08.36.46.71-.05.4-.18.4,0-.12.46.33.18.05.23-.28.23v.23l.78.4.08.18h.1l.11.07.07,0v-.21h.1l.25.3-.06.22.09.07-.11.22-.07.1.41.37v.16l-.1.09,0,0,.19.09.17.13.21-.09,0-.21.12-.09.17.06,0,.28.16-.06,0-.19L172,224l.15-.1.2.18-.12,0,0,.09.1.07v.32l.21.1.2-.1.17.2.08.33.08.09.21-.05.07-.19.28-.08.18.09,0,.15H174l.28-.25,0-.12h.19l.08.15h.2l0,.09-.17.12v.1l.32,0h.17v.21l.2.08.15,0,0-.13-.19-.15.05-.09.38.07,0,.12.54.29v.16l-.07.05-.06.16-.11,0v.1l.06,0,.07.24.21.14.14-.09,0-.31.11-.13h.16s.15.21.18.21a.62.62,0,0,0,.14,0l0-.19-.18-.09v-.17l-.14-.07.07-.09.33,0,.13.1h.11l.1-.11.08,0,0,.22.1,0,.42-.23h.3l0-.22h.08l.16.22.29-.26h.24l.14.25-.17.08.14.09.28-.14-.08-.12.05-.09.11.09.24-.18h.15l0,.21h0l.16-.14.38,0s.37-.13.37-.13l0-.59.11,0,.1.13.14-.22.6.32h0l-.09.75-.36.11-.46.68-.13.94.24.25v.83l-.12.22,0,.63.24.18.12.73-.52,1.19-.7.41-.23.54.21.32.36-.05,0,.5.32.18-.2.22v.3l.25.11.07.38-.35.27-.06.27.25.14.07.4-.37.09-.06.56.25.14.06.25-.36.51v.25l.23.14v.38l-.28.24,0,.27.68.34.09.39-.41.27,0,.24.39.11.06.21-.26.35-.27.21,0-.35-.4-.09-.27-.33,0-.23-.59.23,0,.36-.23-.07-.13-.2-.61-.18-.07-.23H178l-.07-.29v-.18l-.25-.18,0-.54-.18,0-.21.18h-.49l-.55.32-.61.9H174l-1.59-1.35-4.18-3.61-4.35,2.12-2.36,1.43-5.26,4v.41a2.17,2.17,0,0,1-.34.19c-.32.08-.07.08-.12.3,0,.07-.2.43-.27.36s-.29-.29-.3-.27-.17.31-.42.18a2.45,2.45,0,0,1-.48-.36c-.13.24-.13.14-.31,0s-.32,0-.51,0l-.33-.44.13-.46c-.15-.08-.22.07-.39,0-.41-.1-.11-.18-.09-.27a.3.3,0,0,0,0-.2h0l.23-.29v-.44l-.18-.2,0-.53.43-.31.1-.69.23-.12v-.54l-.48-.41-.25-.94-.43,0-1-.74-.13-.35-.68-.21-.17-.27.48-3.13Z" transform="translate(-76.86 -139.17)" disabled="disabled" style="pointer-events: none;"></path>
    <path name="XXXX" id="path7100" class="cls-1" d="M171.71,269.74l-.48.13-.84.88-.52.49-.32.09-.11-.73-.26-.52-.51-.12-.54.42v.33l.9.53-.23.41-.57.06-.28,0-.17.28s-.54.41-.69.37a3.73,3.73,0,0,1-.47-.24l.13-.79.21-.45-.26-.48-1,.39-.41.54a6.26,6.26,0,0,1-.62.12,2.39,2.39,0,0,1-.52-.23l.35-.71-.26-.24-.35.13-.19.58-.5.26-.34-.11-.46.28-.9,0-.13.22.34.43.82-.19.35.12-.09.18.3.53-.45.5h-.39a.74.74,0,0,0-.19-.37,2.71,2.71,0,0,0-.65-.17l-.77.41-.65.68h-.48l-.62-1-.43-.25-.39.1-.17.37.28.47-.35.64-.71.22-.3.15-.24-.19.07-.46.58-.25.15-.95-.39-.21-.11-.28-.64.13-.54.28.28.21v.67l-.17.32v.51l-.61.2-.56-.28.07-.28.41-.3.06-.47-.39-.26-1-.09-.52.41.11.34-.19.67-.33.19-.54-.3.13-.58a5.13,5.13,0,0,0,.48-.73c0-.08-.13-.62-.13-.62l-.2-.28-.13-.58,0-.59-.24-.1-.12-.18,0-.14-.1-.08-.23.08v-.18l.28-.3v-.13l-.16-.1.21-.1-.05-.35-.15-.15,0-.2.25-.13.09-.29-.09-.19.26-.2v-.25l.13,0v-.19l-.16-.07,0-.1-.22.2-.08-.11-.1-.22.07-.48-.19-.17v-.12l.2-.2V266l-.07,0-.06-.15-.13-.08-.29-.27v-.19l-.17-.06-.15-.32-.08,0-.13.27-.11-.11-.15,0-.14.19h-.11l-.1-.21-.16.16-.13.06,0,.22h-.13l-.1-.15-.27-.07,0-.36-.36-.28,0-.26-.23-.1,0-.16.31-.06.34-.23-.07-.14v-.18l-.19-.11.32-.19,0-.28-.11-.14.07,0,0-.28-.42-.33-.24-.26v-.26l.31-.26,0-.47h-.86l0-.18.25-.22-.18-.18h-.36l-1-.57.25-.76-.64-.61v-.43l-.25-.15-.21.22-19.12,5.11-.11.13-.37,0-.21-.39.2-.28-.08-.07-.3.16-.13-.07-.3.05-.1-.3h-.28l-.07.17h-.17l0-.11.25-.17,0-.2-.13-.11-.11-.3-.14-.06.07-.25L125,261l0-.22.34-.28v-.09l-.17-.14.17-.06,0-.22-.19-.33v-.41l.21-.32h.11l.09.16.09-.17v-.38l-.19-.23-.1-.52-.16-.17.09-.15.14,0,.14.2.13-.11.09.11.16,0,0-.43.1-.11-.11-.25-.44-.08.25-.16,0-.13-.45,0,0-.07.18-.09.06-.48-.15,0-.25,0,.22-.18v-.07l-.2-.11.08-.15.15,0,0-.12V255l-.35-.2,0-.29-.09-.05-.3.19,0-.07.1-.21-.13-.21-.18.12h-.31l-.11.21H124l-.09-.27-.35-.07-.17-.18.15-.22.19.07.29-.33.09-.28h.34l.16-.18,0-.1.18-.06.06.09H125v-.26l.1-.08,0-.13-.22-.19-.1-.21.17-.06v-.4l-.18-.17.12-.16,0-.22-.19-.11-.1.06-.22,0-.07-.34.13-.25.23-.15.06-.24-.19,0,0-.23-.16-.13-.19.13-.18-.15h-.63v-.1l.1-.15-.25-.38v-.23l-.22-.06-.13.12-.37,0,.15-.18-.08-.28-.23.1-.12-.12.21-.15-.12-.19-.12.07-.44.14-.15-.23-.32-.11,0,.28H121l-.15-.15.15-.13-.37-.17-.06-.18.14-.17h.17l0-.27-.22,0,0-.37-.16-.41.13-.14.11.16.14-.15.06-.33.24,0,.17.1.09-.29.25-.21-.06-.18-.19-.09,0-.22.18.07.15-.46.2-.46.24-.06.2,0,.19-.3-.2-.1-.21-.3-1.13-.25-.33.19-.55.19-.39-.1-.32.25H119s.11-.18,0-.22-.9-.36-.9-.36l-.42-.75.28-.11.07-1.22-.64-.76H117l-.57-.32-.07-.54.86-.29.21.11.47-.4h.53l.36-.25-.21-.29,0-.65.36-.18v-.32l-.36,0-.43-.5.36-.54.36-.22.17.4h.4l.18-.65,1-.11-.53-.43.61-.75-.18-.72-.5-.44.71-.64-.18-.62.4-.07.68-.34.11-.51.24-.15,0-.34.82-.14.23.12.55-.2.3.11.23,0,.26-.13.34,0,.16.14.25,0,.14.14.39-.21.21.18.35,0,.14-.16.25.14.32-.5.3-.2h.43l.32.25.37-.18.48-.46-.11-.31.92-.82h.57l.58-.35h.32l.09.1.09-.21.79,1,1.61-1,.13,0,.21-.07.05.23.41,0,.28.49.29.05.21.13.55-.24.28,0,0,.07.6,0,.05.11.68.43.24.07.16.23h.32l.32.41h.5l.46.37.32.06.39-.49.31.23v.27h.18l.14-.08H141v-.19l.18,0,.17.16.38-.08.27.31.05.14h.22s.07-.16.12-.18a1.42,1.42,0,0,1,.25-.07l.23.17s-.14.08-.14.13.31.23.31.23a1.19,1.19,0,0,1,.17-.21,3.47,3.47,0,0,1,.43,0l.14.25.19-.15s.28-.21.42,0,.13.2.13.2l.23-.17H145l.08.24-.23.17.29.33.23,0,.26.31.46.09.33-.07-.05-.16.3-.12-.09-.22-.24-.11,0-.18h.33l.11.21.47.21.11.2.23.1.09-.2.43.1,0,.17,1,.71.45-.06.38.4.43.09.1-.2.37-.06-.48,3.13.17.27.68.21.13.35,1,.74.43,0,.25,1,.48.4V239l-.23.12-.1.69-.43.31,0,.53.18.2v.44l-.23.29h0a.3.3,0,0,1,0,.2c0,.09-.32.17.09.27.17,0,.24-.11.39,0l-.12.39,0,.07-.67.27-.28-.18-.72.11-.57-.25-.32.54-.13.2v.65l-.86.86h-.35l-.22.47-.11.54-.39.43v.72h.54l.18-.29.42-.07v.61l-.14.43.68-.21.54.72-.11.61.82.07.14.19,0,.24-.14.36.22.14.46-.07.18.25-.15.13.12.14.26,0,0,.1.14,0,.08-.15.29,0,.13.22-.12.2.26.09.32.05.07-.22.15.33.26.32.31,0,.06.16-.18.17,0,.31.27.07,0,.14.21.05.09-.1.3,0v.22l.16.16.17-.09.08.11h.15l.09-.17.22.23h.13l.13-.12.33.33.13-.14.24,0,.25.18-.12.12-.17,0,.12.2-.05.18.26.11.19.27.21.27-.3.2,0,.16.13.06.27,0-.17.24-.23,0-.06.2.1.18-.23.17,0,.24.25.18-.17.1,0,.15.2.08-.15.16.06.14.19,0-.1.1,0,.14.33,0,0,.15.21.08-.13.12,0,.12.26.13L158,257l-.05.23-.21,0,0,.24.15.16-.2.15.15.13-.13.12v.18l.15.24-.21.08-.15.32.12.22-.33.24-.07.16.31.21.11.19-.15.1.05.18.17.12,0,.28-.09.23.13.28-.08.42.21.11,0,.31-.19.11,0,.1.23.05,0,.19.12.14-.13.08.09.13.28.1-.4,0,0,.16.18.19.63.06v.21l-.12.23.11.12h.26l.1.25.17.14v.14l.12-.2.18.1-.08.13.21.07.1-.13.14,0-.05.11.24.13.06-.11,0-.17.26-.27.1.11.2-.07.15.24,0,.11-.15,0,0,.07.3.16.21-.21.1,0,0,.07.37.41h.12l.08-.12.13.14.18-.21h.13l0,.12-.12.1.13.06h.12l.2.26.19-.13.2.15v.2l-.12.07,0,.09h.38l.17-.2.09,0-.1.12.12.1.14-.05,0,.2.18,0-.06-.38.3-.23.21.25.1,0,0-.2-.2-.23.07-.23.24,0,0,.29.12.1.1-.09.16.25.08.34.14.1.08-.08.07.16.27,0-.05.15-.16.11h-.07v.15l.18.07.15.08,0,.06-.11,0v.09h.39l0,.13.12.06v.07l-.2.06,0,.13.21,0,.2-.36.16,0-.19.33.07.18h.23l.28.32h.33v.2l.52.4.13-.13.06.1h.07l.12-.17.26.06.14.2v.2l.15.11,0,.26.19.07.15-.28.22-.05.26.16.1-.26.36-.19.12.15.42.18.4.47,0,.22.1.07.07-.08h.2l.11.08.44-.39Z" transform="translate(-76.86 -139.17)" disabled="disabled" style="pointer-events: none;"></path>
    <path name="XXXX" id="path7104" class="cls-1" d="M184.93,249.63l-.29-.31,0-.24-.43-.07-.2.12h-.13l0-.2-.32-.05v-.27l-.3-.07-.19.09,0-.22-.15,0v.1l.11.11-.27.25-.15-.08v-.16l.15-.12-.22-.38-.17-.1.08-.31.11-.09.14.38h.12l.07-.14-.13-.15.09-.1,0-.16-.58-.8-.19.05v-.12l.15-.09-.16-.18-.13.12-.19-.25-.26-.13-.19-.27-.34-.07,0-.22.21-.13.13.09.07-.12,0-.24h-.07l-.1-.18.35,0,.3-.2.47,0,.1-.47.36,0,.4.25.42-.07.08-.43.32-.29-.11-.29.72,0-.11-.54-.29,0,.07-.72.11-.07,0-.47.18,0,.46-1,.61-.18.11-.25-.54-.21.32-.4-.11-.18h-.21l0-.4.21-.18v-.39l.29-.22,0-.21.29,0,.21.36-.25.29v.36l.22.25-.22.54,1,.22.57.18.79.9.5.11.71,1,.83.51.25.57.07-.21h.43l-.08.61.76.47.07.47s.68-.08.46.18l-.21.25.25.11.57.1.54.4L193,246l.32,1.19.4-.36.64,0,.11.33-.18.32.36.47.46.22-.14-.4.46-.07.08.21.53,0,.5.32.18.76.22.18.17-.14.36.32.11-.22h.32l0,.69.25.25.14-.4.07.33.29.11.07.57.28,0,.18-.11h.36l-.18.4.4.21.6.18.25.58.4-.15.1-.64.65-.47,2.79,1.22.28.36-.05.44-.47,0-.61-.09-.34.25,0,.33.4.42-.09.61-.22.68-.56.34-.7-.24-.9,0-.73-.25-.89-.35-.29.33.23.27-.17.61L199,256l-.47-.39-.44.12-.45.73.21.41.87.15-.24.6-.54.06-.47-.21-.5.51v.5l.19.27.11.88,0,.5.17.47-.56.36h-.37l-.15-.42.35-.58-.07-.67-.88-.66-.95.34-.6.75-.37.19,0,.39.3.79-.54.67-.67-.39-.06-.71.24-.47-.16-.66-.82-.67-.75,0-.93.84-.3,1.11-.95,1-1.21-.19-.56-.6-.75-.17-.43-.52-.09-.51-.67-.46-.61.06-1,.79-.36,0-.77.85-.45.27-.28,0-.43.19h-.27s-.12.6-.34.6h-.51l-.49-.24-.31.36.19.79-.4.58-.61.55-.68,0Z" transform="translate(-76.86 -139.17)" disabled="disabled" style="pointer-events: none;"></path>
    <path name="XXXX" id="path7106" class="cls-1" d="M171.73,269.18l.34-.3.35.22.41,0,0-.41.35-.11.38.3.05.9.26.07.55-.69.61-.45.61-.33.52-.46v-.27l.61.06.18.24.4.06.18-.21-.12-.18-.25-.06-.21-.31.06-.66.34-.46.39.06.22.43s.33.39.45.39l.71,0,.15-.49,0-.45-.19-.24-.27-.67h-.52l-.18.3h-.4l-.24-.39.27-.58.37-.41,6.81-14.46-.29-.31,0-.24-.43-.07-.2.12h-.13l0-.2-.32-.05v-.27l-.3-.07-.19.09,0-.22-.15,0v.1l.11.11-.27.25-.15-.08v-.16l.15-.12-.22-.38-.17-.1.08-.31.11-.09.14.38h.12l.07-.14-.13-.15.09-.1,0-.16-.58-.8-.19.05v-.12l.15-.09-.16-.18-.13.12-.19-.25-.26-.13-.19-.27-.34-.07,0-.22.21-.13.13.09.07-.12,0-.24h-.07l-.09-.17v-.35l-.32-.34-.06-.29-.24-.09-.26-.25,0-.16.12-.09,0-.06h-.18l-.09-.15.07-.06v-.33l.31,0,.15-.12,0-.1-.17-.08,0-.06.2,0v-.18l-.13,0V242l-.11,0-.12-.15.14-.14-.06,0-.14,0-.25-.12-.06-.16.17-.22h.2v-.18l-.18-.1.1-.11.17,0,.3-.2-.12-.15,0-.37-.4-.08-.27-.32,0-.24-.59.24,0,.36-.23-.08-.13-.19-.61-.18-.07-.24H178l-.07-.29v-.18l-.25-.18,0-.54-.18,0-.21.18h-.48l-.56.33-.61.9H174l-2-1.71-3.75-3.27-4.35,2.13-2.36,1.42-5.26,4v.41a1.56,1.56,0,0,1-.34.18c-.33.09-.08.09-.12.31,0,.06-.2.43-.27.36s-.29-.29-.3-.27-.18.31-.43.18a2.45,2.45,0,0,1-.48-.36c-.12.24-.13.14-.3,0s-.33,0-.51,0a3.06,3.06,0,0,1-.34-.43l-.67.26-.29-.18-.72.11-.58-.25-.12.2-.32.54v.65l-.86.86h-.35l-.22.47-.11.54-.39.43v.72h.54l.18-.29.42-.07v.61l-.14.43.68-.21.54.72-.11.61.82.07.14.19,0,.24-.14.36.22.14.46-.07.18.25-.15.13.12.14.26,0,0,.1.14,0,.08-.15.29,0,.13.22-.12.2.26.09.32.05.07-.22.15.33.26.32.31,0,.06.16-.18.17,0,.31.27.07,0,.14.21.05.09-.1.3,0v.22l.16.16.17-.09.08.11h.15l.09-.17.22.23h.13l.13-.12.33.33.13-.14.24,0,.25.18-.12.12-.17,0,.12.2-.05.18.26.11.19.27.21.27-.3.2,0,.16.13.06.27,0-.17.24-.23,0-.06.2.1.18-.23.17,0,.24.25.18-.17.1,0,.15.2.08-.15.16.06.14.19,0-.1.1,0,.14.33,0,0,.15.21.08-.13.12,0,.12.26.13L158,257l-.05.23-.21,0,0,.24.15.16-.2.15.15.13-.13.12v.18l.15.24-.21.08-.15.32.12.22-.33.24-.07.16.31.21.11.19-.15.1.05.18.17.12,0,.28-.09.23.13.28-.08.42.21.11,0,.31-.19.11,0,.1.23.05,0,.19.12.14-.13.08.09.13.28.1-.4,0,0,.16.18.19.63.06v.21l-.12.23.11.12h.26l.1.25.17.14v.14l.12-.2.18.1-.08.13.21.07.1-.13.14,0-.05.11.24.13.06-.11,0-.17.26-.27.1.11.2-.07.15.24,0,.11-.15,0,0,.07.3.16.22-.21.09,0,0,.07.37.41h.12l.08-.12.13.14.18-.21h.13l0,.12-.12.1.13.06h.12l.2.26.19-.13.2.15v.2l-.12.06,0,.1h.38l.18-.2.08,0-.1.12.12.1.14-.05,0,.2.18,0-.06-.37.3-.23.21.25.1,0,0-.2-.2-.23.07-.23.24,0,0,.29.12.1.1-.09.16.25.08.34.14.1.08-.08.07.16.27,0-.05.15-.16.11h-.06v.15l.17.07.15.08,0,.06-.11,0v.09h.39l0,.13.12.06v.07l-.2.06,0,.13.21,0,.2-.36.16,0-.19.33.07.18h.23l.28.32h.33v.2l.52.4.13-.13.06.1h.07l.12-.17.26.06.14.2v.2l.15.11,0,.26.19.07.15-.28.22-.05.26.16.1-.26.36-.19.12.15.42.18.4.47,0,.22.1.07.07-.08h.2l.11.08.45-.39Z" transform="translate(-76.86 -139.17)" disabled="disabled" style="pointer-events: none;"></path>
    <path name="XXXX" id="path7118" class="cls-1" d="M275.11,139.34l-.71.26-.67.62-1.31.35-.65.43-.27,0-.18.26-.37.93-.76.55-.27,0-.49.18-1.37.47-.91-.19-.6.24-.64.38-.58-.24-.39.17-.32.6-1.26.73-1,.06-.94.29-.69.66-.71.27-1.31.23-.8.64-.83.55-.57.81-1.06.22-1.65.26-.62.22-.8.43-.73.62-1.15.12-1.24.47-1.08,1-.32.81-.6,0-.64.27-.69.85-.73.24h-.62l-.41.22-.37.4-1.05.29-.35,0-1,1-.87.09-.41-.23-.53.09-1.58-.38-.69.36-.48.57-.13.72-1,.67-.32.28v.26l-.58.63-.52.81-.67.14-.87.64-.16.43.09.27-.11.45-.85.84-.74.38v.4l-.62.65,0,.29-1,.71-.07.29-.64.36-.3.33-1.14.1-1-.17-.69.29-.59.31-.78-.63v-.41l-.38.17-.61-.32-.14-.2-.21,0-.25.09-.27.35-.13.29-.27-.25h-.32l-.21-.26-.34.11-.06.26-.76,1.22-.47.2-.43.84.14.35-.14.18-.23,0-.3.81.17,1-.3.14-.18,1,.07.33.25.25-.32.24a2.36,2.36,0,0,0,0,.38c0,.08.34.24.34.24l-.23.24-.29,0-.21.73-.22.2.34.33-.34,0-.09.24.33.26-.09.22-.31.14.22.37-.06.49-.19.16-.49,1.21-.43.44-.51-.08-.43.33-.06.33.88.86.37,0,.88.9,0,.38.21.15h.45l.84.38,0,.18.38-.07v-.35l1.18-.45h.4l.4-.47.15.05.13.4-.27.11-.09.22.18.16,0,.48.1.1-.23.26-.25,0-.16.13,0,.46-.17.22-.11.14.14.07.18.41-.05.32-.09.11-.07.31h-.33l-1-.82-.43-.11-.14.15-.15.4.24.13.53,0,.45.53.09.77-.27.38-.61.22-.46-.31-.77,0-.16.32.34.24.43-.13.44.35-.07.15-.45,0-.6.51-.09.51.09.42.43.3.21.27,0,.27-.59.11-.53-.29-.49,0-.3.44,0,.55.57.44.15.33-.23.11-.13.29a.53.53,0,0,0-.3.09,4.75,4.75,0,0,0-.41.51l-.06.35.14.14,0,.5-.27.43-.48-.2.11-.29.18-.07.16-.84-.27-.11-.34.49-.32,0-.11-.2h-.18l-.1.22-.79-.12-.47.11-.1.36.28.16.22,0-.15.31.18.09.07-.21.29-.06.09-.24.73.3v.34l-.55.11,0,.15.5.36-.07.17h-.55l-.29-.29-.55.17-.34.62.41.4,0,.25-.27.28-.54-.13-.27.31.16.27.31.17-.2.38-.5-.11-.39.31,0,.44.8.42.41.07v.33l-.62.24-.38-.13-.29.2.13.37.27-.2.25.07-.06.24.24.23,0,.28-.34.13-.25-.32-.31.17,0,.24-.14.27.16.17.18.1.35,0,.09.13-.2.24,0,.22-.15.22-.29-.15-.16.05.07.26.25.24L212,201v.22l.26.24-.18.2.16.22.26,0,.11-.22.42.2,0,.4-.13.06-.22-.2-.37.2.17.2.29.11-.26.2-.38,0-.13-.29h-.14l-.17.24.2.25v.19l-.32.09,0,.33.37,0,.2.2-.2.64-.31.1-.24,0-.28.31.53.36.81.15,0,.42-.26,0-.18-.11-.44.05-.18-.16-.28,0,0,.42h.37c.07,0,.38.34.38.34l-.27.42-.19-.11-.27.37-.24-.44-.31.13,0,.29-.43.27.14.11h.35l0,.26-.25.13,0,.29.39.26-.13.23-.24,0-.23-.18h-.39l-.35.28,0,.29-.33.18-.38-.11-.37.17-.12.23s.2.24.31.26l.36.05a2,2,0,0,1,0,.28c0,.09-.24.16-.24.16l.37.08-.1.23h-.36l.15.31h.2l.22.11,0,.2-.46,0,.06.25h.25l.3-.09,0,.09-.14.09,0,.32.29.21-.2.11-.31-.2-.29.28.07.38-.27-.18,0-.18-.14-.11-.28.16,0,.24-.23.14h-.2l-.35.36,0,.18.51.06.16.13-.29.18-.11.46.33.16-.48,0-.12.22.47,0-.16.13v.58l-.15,0-.11-.27-.31,0-.22.31.24.35-.26,0-.11.28-.22-.2-.2.07-.12.31.14.13,0,.21.17.08.12.21,0,.27.36,0,.07.2-.23.33.23.23.46-.13.28.54-.07.3.41.59.28-.15.3.18-.18.4.34.31.46-.1.89.15.2-.36.26.33.38.1-.1.31.49-.18.28-.3.53.28.49-.13v-.23l.84.46.1-.26,1.05.28.28-.38.1.23.52.08.07.35.36,0,.05.3.41.13.36.56-.23.31.13.46.28.15.23.84-.21.25.46.31-.05.76.41.31.36-.41.84-.26.49,0,.35-.41.77-.25.08-.31.2-.17.13.22.23,0,.46-.43h.23l.36-.23.56.28.48-.1.28-.34v-.4l.57-.21.4.11-.2-.49.26-.3.74-.39.38.21.41-.28v-.21l.36-.22.18,0,.15.25.3-.33.26-.08.33-.3.33,0,.18-.63.16,0,.35.41.34,0,.28-.4-.16-.28.29-.13.61,0,.25-.39.31-.1.64.46.59.1.07-.25-.12-.23.25-.26.41,0,.15-.21.28-.17.64.33.16-.18h.4l0,.2h.2l.49-.4h.38l.21-.31.2.15-.07.46.58.31.16.38.25,0,.08-.28h.25l.26.23.38-.41.33-.1.08-.46.69-.33s0-.12.13-.4.33-.08.33-.08l.31.2.28-.2.3.56.13-.51.54-.41.38.05.16-.3-.11-.31.36-.07.23-.31.33-.15.18.3.31.16.13-.13.53-.25-.13-.23.08-.72.26-.05.33.36.28-.33.23.1.51-.23,0-.28.66-.51.72.1.25.39.49.22.43-.07.23.05.82-.18.07-.23.92.46.44-.33.15.41.21.3.84.13,0,.23.63-.18.11.2,0,.23.46.13.38-.2.26.28.59-.18-.05-.26.15-.17.41.15.2-.21.54,0,.2-.13.39.13.38-.31,0-.28.64-.23.26.16.43-.46,1,.1.28.38h.31l.2-.23.62,0,.33.11.36-.39.36.13.12.18.39.08.25-.28.33,0,.13.21.26,0,.15.43.26-.07,0-.28H263l.1.51-.1.28.31.15h.36l.15.43.54.2.3-.25.31.2,0,.23.72-.18,0-.17-.21-.41.36-.2,0,.17.39,0,.2-.33h.33l.26.23.18-.21.46.1v.21l.3.13.44-.11.28.16.28-.21,0-.25h.33l.33.38.56.05.08.36-.21.28.34.12.1.31.64-.18,0,.64-.31.3.49.56.36,0,.3.25-.12.66.84.59.36-.56.43,0,.23.25.33-.33.49.21.15.33-.23.33.62.28-.16.43.44.24Z" transform="translate(-76.86 -139.17)" disabled="disabled" style="pointer-events: none;"></path>
    <path name="XXXX" id="path7132" class="cls-1" d="M182.2,224.87l.4,0,.15.3.32,0,.21-.29-.18-.14.29,0,.55.25.29-.29.27.22-.16.32.28,0,.11-.36.16,0,.09.19h.56l.33-.09.08.29.46-.07.05-.34.06-.22.27.13.44-.18,0-.4.47.09.09.27.17-.11.27.27-.12.31h.27l.16-.18.18,0,.12.25.23-.06.09-.39h.13l.09.18.25.07.3-.18,0-.13-.31-.12,0-.13.16-.07.16-.23.2.07-.05.21.3.36.21-.14-.1-.31.25-.09.43,0V224l-.34-.18.08-.22.12-.05.22-.54.3,0,.14.4-.16.25.25,0,.14-.2.27.17.15.36-.13.12.2.16.18-.37-.15-.26.11-.07.38,0-.08-.29-.32-.14,0-.24.33-.12.43.12v.25l.25.18.22-.12-.09-.22.07-.3.27-.13.14.22.31-.08v-.21l-.29-.22-.3-.27.26-.36h.42l.14.15h.48l.34-.26.13.22.37-.11.13-.48.39-.06.11-.39.3-.09.1.21-.12.33.17.16-.11.27.71.39.49-.25,0-.25.3.07.18.31.34,0,0-.34.3.09,0,.36h.09l.15.21h.26l0-.09.3-.14-.51-.31.3-.55.34.14.16.38.77-.09.14-.27-.1-.27.26-.06.07-.37-.26-.22.18-.18.35.31.45.19-.12-.39.16-.15.34.09-.13-.27.29-.12.23.14.07-.38.23,0,.15.29-.11.22.37,0,0-.32-.23-.16.07-.2h.16l.29-.25-.11-.33.32.06.22.19L205,219v-.27h.25l-.14-.33-.29,0c-.12,0,0-.28,0-.28l.38-.11.07.12.18-.07-.11-.27H205l0-.23.2-.11-.06-.23.18-.08.13.2.43.09.3-.25-.07-.4.21-.27.09-.1,0-.21-.15-.13.13-.31.2-.07.22.2.11-.28.26,0-.24-.35.22-.31.31,0,.11.27.15,0v-.58l.16-.13-.47,0,.12-.22.48,0-.33-.16.11-.46.29-.18-.16-.13-.51-.06,0-.18.35-.36h.2l.23-.14,0-.24.28-.16.14.11,0,.18.27.18-.07-.38.29-.28.31.2.2-.11-.29-.21,0-.32.14-.09,0-.09-.3.09h-.25l-.06-.25.46,0,0-.2-.22-.11h-.2l-.15-.31h.36l.1-.23-.37-.08s.24-.07.24-.16a2,2,0,0,0,0-.28l-.36-.05c-.11,0-.31-.26-.31-.26l.12-.23.37-.17.38.11.33-.18,0-.29.35-.28h.38l.24.18.24,0,.13-.23-.39-.26,0-.29.25-.13,0-.26h-.35l-.14-.11.43-.27,0-.29.31-.13.24.44.27-.37.19.11.27-.42s-.31-.34-.38-.34h-.37l0-.42.28,0,.18.16.44-.05.18.11.26,0,0-.42-.81-.15-.53-.36.28-.31.24,0,.31-.1.2-.64-.2-.2-.37,0,0-.33.32-.09V203l-.2-.25.17-.24H212l.13.29.38,0,.26-.2-.29-.11-.17-.2.37-.2.22.2.13-.06,0-.4-.42-.2-.11.22-.26,0-.16-.22.18-.2-.26-.24V201l.42-.27-.25-.24-.07-.26.16-.05.29.15.15-.22,0-.22.2-.24-.09-.13-.35,0-.18-.1-.16-.17.14-.28-.42.06-.33.18-.1.31-.26.15-.25-.25-.48.15,0,.18-.25,0-.12.15.1.34-.66.23-.15-.39L209,200l-.18.26-.68-.18-.23.2-.18-.2h-.2l-.38-.6v-.15l-.78-.44h-.33l-.15-.28-.61.07-.1-.1-.38-.05-.35.41-.51-.8-.45,0,0-.19-.48-.15-.38.13-.35-.23-.46.05,0-.29-.33-.2.2-.18-.43-.31-.1.05-.28-.21.1-.18-.23-.15-.27.18-.59-.08.11-.23-.54-.18-.27,0-.13-.46-.3-.11-.31.24-.15-.31-.25-.13-.23.2-.43-.05,0-.31-.3-.13-.15-.13h-.53l0,.19h-.38l.08-.47-.46-.13-.1-.18-.23,0-.3.49-.43-.24-.51-.12-.4.07-.3-.33.17-.21-.1-.26-.28,0-.1-.18-.3,0,0,.23-.48.18-.25-.08-.3.26-.21-.31-.4,0,0-.13-.6-.21-.36.31.13.23,0,.26-.4-.23h-.25l.07.28-.5,0-.05-.13-.38.1,0,.16-.43.1,0,.08.18,0-.25.36,0,.39-.51.2.3.16-.07.13-.46.07.18.24-.18.2-.38.26-.25,0-.1.13.07.18,0,.41-.51,0-.2.3h-.45l-.18.42.18.18-.18.1-.3-.23-.26,0,.13.33-.53.47.28.2,0,.31-.23.05-.17-.25-.46-.06-.2.34h-.2l.07-.41-.5-.16,0,.36-.78.39-.15-.16-1,.13,0,.37-.33.23-.38-.16-.4.29-.28.07-.15.6h-.36l-.6.77H178l-.86.67.1.42.23.1,0,.26-.27.25.27.19.07.5-.57,0-.06.48-.53.38-.21,0-.33.45-.2,0-.11-.09-.51,0-.2,0V205l-.18-.21h-.33l-.33-.29-.17-1,.17-.23-.3-.31L173,203l-.38.18-.43-.24-.68-.1-.13-.28-.61-.11,0-.41.25-.13-.15-.36-.48,0,.12-.24-.25-.46-.38-.23.26-.26-.16-.23-.45-.11.1-.44.2-.15V199c-.08-.48-.55.09-.78.26l-.18-.18-.45,0-.21.39.21.26-.66.43-.15.57-.23-.07v-.11l-.27,0-.29-.11-.37.31.16.21.53-.2.15,0,0,.4.09.19-.27.42-.41-.18-.16.07-.09.34-.41.27-.22.29-.46,0-.34.21-.14-.27-.31,0,0-.09.34-.18-.2-.2-.32.16-.31-.39-.64-.2-.23.09-.45-.13-.41.16,0,.22-.43.11-.28-.38h-.15l-.05.14-.52-.12-.18-.34-.41,0-.2.31-.21,0-.13-.21-.37.19-.13,0-.09-.34-.34.1.09.24-.34.47-.18-.13v-.29l-.25-.07-.22.18-.32-.09-.11-.25h-.36l-.34-.07-.17.1-.07.21-.42.13,0-.31-.23-.09s-.2.23-.3.23h-.31l-.16-.21-.28.16-.08-.4h-.14l-.07.26h-.13l-.07-.43-.16-.07-.23.11-.05-.33h-.15l-.16.31-.43.09-.16-.27-.57-.13-.22.13-.37-.32-.63.1-.21.2-.47,0s-.39.13-.43.06l-.19-.4-.36-.14-.32.38-.86.12-.2-.3-.82-.08-.46-.34,0-.34-.89-.32-.41-.36,0-.24-.41-.12L145,199l-.37-.18-.49,0-.12-.24-.34-.18-.32.16H143l-.32-.43-.45-.21-.52.19h-.37l-.09-.32-1.13-.54-.3.2-.54-.13-.18-.3-.64.05-.38-.27-.26,0-.25-.38-.17-.07-.19.22h-.48l-.13.2.05.23.48.41.4,1.27.21.2-.28.21-.84-.08-.38-.25-.55.46.12.58-.5.08-.46.54.37.45.16.76.24.26.43,1,.26.27.17,1-.14.28.25.6.36.51.36-.21.63,0,.43-.31.12-.3h.48l.46.64.23.91.53.51.07.41-.1.2.33.66.58,0,1,1.07.1.5.08.39.31.13.08.14.31.16.11-.11.11.09v.32l.32.07-.06.41.47.36.44.41v.11l.35.25.06.16-.19.16.18.12,0,.27.24.24v.36l-.11.14.15.08.08-.16.3.12,0,.31.24.26v.15l.16.31-.18.21.15.22.14.07,0,.11.3-.18.45.14.21.41.7.62v.25h.17l.15.29-.09.13,0,.11.35,0,.32.33h.49l.36-.25.42,0,.49-.17.39.13.35.25.18-.14v.21l.41.35.17.06v.07l-.16.07.07.29.14.07.09.19.27,0,.09-.08.14,0,0,.08.51.25.28.89-.08.51.23.24.48-1v-.38l.48-.41,0-.1-.12-.12,0-.15.11-.06-.14-.14-.06-.34.1-.89.12,0v-.24l.25-.07.36-.54.51-.31.33-.38-.09-.27-.23-.15V215l.17-.19.05-.42.13-.09.07-.49.61-.36,0-.19.7-.42h.17l.06.15.49.09.07.11,0,.23.08.14.55,0,0,.17.23,0,0-.06h.12l.33.2,0,.14.62.15.12.22-.05.14.14.15h.1l.05-.32.22,0,0,.11H161l.11.07.26.79.28.25.25.2v.38l.33-.13.1-.3.2.41-.25.48.3.18.08-.1.71,0,.15.18-.25.25.53.26.38-.15.2.28-.2.27-.41.06-.1.25.28.2.1.46.35,0,.46.4-.33.31.46.53.45,0,.25-.31.66.44-.15.35.28,0,.23-.17.27,0,.1.26.28-.08.36.46.71-.05.4-.18.4,0-.12.46.33.18.05.23-.28.23v.23l.78.4.08.18h.1l.11.07.07,0v-.21h.1l.25.3-.06.22.09.07-.11.22-.07.1.41.37v.16l-.1.09,0,0,.19.09.17.13.21-.09,0-.21.12-.09.17.06,0,.28.16-.06,0-.19L172,224l.15-.1.2.18-.12,0,0,.09.1.07v.32l.21.1.2-.1.17.2.08.33.08.09.21-.05.07-.19.28-.08.18.09,0,.15H174l.28-.25,0-.12h.18l.09.15h.2l0,.09-.17.12v.1l.32,0h.17v.21l.19.08.16,0,0-.13-.19-.15.05-.09.38.07,0,.12.54.29v.16l-.07.05-.06.16-.11,0v.1l.06,0,.07.24.21.14.14-.09,0-.31.11-.13h.16s.15.21.18.21a.62.62,0,0,0,.14,0l0-.19-.18-.09v-.17l-.13-.07.07-.09.33,0,.13.1h.11l.1-.11.08,0,0,.22.1,0,.42-.23h.3l0-.22h.08l.16.22.29-.26h.24l.13.25-.16.08.14.09.28-.14-.08-.12.05-.09.11.09.24-.18h.14l.05.21h0l.16-.14.38,0s.37-.13.37-.13l0-.59.11,0,.1.13.14-.22.6.32h0Z" transform="translate(-76.86 -139.17)" disabled="disabled" style="pointer-events: none;"></path>
    <path name="XXXX" id="path7163" class="cls-1" d="M180.81,240.18l.26-.35-.06-.21-.39-.11,0-.24.41-.27-.09-.39-.68-.34,0-.27.28-.24v-.38l-.23-.14V237l.36-.51-.06-.25-.25-.14.06-.56.37-.09-.07-.4-.25-.14.06-.27.35-.27-.07-.38-.25-.1v-.31l.2-.22-.32-.18,0-.5-.36.05-.21-.32.23-.54.7-.41.52-1.19-.12-.73-.24-.18,0-.63.12-.22v-.83l-.24-.25.13-.93.46-.69.36-.11.09-.75h0l.19-.07.4,0,.15.3.32,0,.21-.29-.18-.14.29,0,.55.25.29-.29.27.22-.16.32.28,0,.11-.36.16,0,.09.19h.56l.33-.09.08.29.46-.07.05-.34.06-.22.27.13.44-.18,0-.4.47.09.09.27.17-.11.27.27-.12.31h.27l.16-.18.18,0,.12.25.23-.06.09-.39h.13l.09.18.25.07.3-.18,0-.13-.31-.12,0-.13.16-.07.16-.23.2.07-.06.21.31.36.21-.14-.1-.31.25-.09.43,0V224l-.34-.18.08-.22.12-.05.22-.54.3,0,.14.4-.16.25.25,0,.14-.2.27.17.15.36-.13.12.2.16.18-.37-.15-.26.11-.07.38,0-.08-.29-.32-.14,0-.24.33-.12.43.12v.25l.25.18.22-.12-.09-.22.07-.3.27-.13.14.22.31-.08v-.21l-.29-.22-.3-.27.26-.36h.42l.14.15h.48l.34-.26.13.22.37-.11.13-.48.39-.06.11-.39.3-.09.1.21-.12.33.16.16-.1.27.71.39.49-.25,0-.25.3.07.18.31.34,0,0-.34.3.09,0,.36h.09l.15.21h.26l0-.09.3-.14-.51-.31.3-.55.34.14.16.38.77-.09.14-.27-.1-.27.26-.06.07-.37-.26-.22.18-.18.35.31.45.19-.12-.39.16-.15.34.09-.13-.27.29-.12.23.14.07-.38.23,0,.15.29-.11.22.37,0,0-.32-.23-.16.07-.2h.16l.29-.25-.11-.33.32.06.22.19L205,219v-.27h.25l-.14-.33-.29,0c-.12,0,0-.28,0-.28l.38-.11.07.12.18-.07-.11-.27H205l0-.23.2-.11-.06-.23.18-.07.13.19.43.09.3-.25-.07-.39.21-.28.09-.1.17.08.11.21,0,.27.36,0,.07.2-.23.33.23.23.46-.13.28.54-.07.3.41.59.28-.15.3.18-.18.4.34.31.46-.1.89.15.2-.36.26.33.38.11-.1.3.49-.18.28-.3.53.28.49-.13v-.23l.84.46.1-.26,1.05.28.28-.38.1.23.52.08.07.35.36,0,.05.3.41.13.36.56-.23.31.13.46.28.15.23.84-.21.25.46.31-.05.76.41.31.36-.41.84-.25.49,0,.35-.41.77-.25.08-.31.2-.17.13.22.23,0,.46-.43h.23l.36-.23.56.28.48-.1.28-.34v-.4l.57-.21.4.11-.2-.49.26-.3.74-.39.38.21.41-.28v-.21l.36-.22.18,0,.15.25.3-.33.26-.08.33-.3.33,0,.18-.63.16,0,.35.41.34,0,.28-.4-.16-.28.29-.13.61,0,.25-.39.31-.1.64.46.59.1.07-.25-.12-.23.25-.26.41,0,.15-.21.28-.17.64.33.16-.18h.4l0,.2h.2l.49-.4h.38l.21-.31.2.15-.07.46.58.31.16.38.25,0,.08-.28h.25l.26.23.38-.41.33-.1.08-.46.69-.33s0-.12.13-.4.33-.08.33-.08l.31.2.28-.2.3.56.13-.51.54-.41.38.05.16-.3-.11-.31.36-.07.23-.31.33-.15.18.3.31.16.13-.13.53-.25-.13-.23.08-.72.26-.05.33.36.28-.33.23.1.51-.23,0-.28.66-.51.72.1.25.39.49.23.43-.08.23.05.82-.18.08-.23.91.46.44-.33.15.41.21.3.84.13,0,.23.63-.18.11.2,0,.23.46.13.38-.2.26.28.59-.18-.05-.26.15-.17.41.15.2-.21.54,0,.2-.13.39.13.38-.31,0-.28.64-.22.26.15.43-.46,1,.1.28.38h.31l.2-.23.62.06.33.1.36-.38.36.12.12.18.39.08.25-.28.33,0,.13.21.26,0,.15.43.26-.07,0-.28H263l.1.51-.1.28.31.15h.36l.15.43.54.2.3-.25.31.2,0,.23.72-.18,0-.17-.21-.41.36-.2,0,.17.39,0,.2-.33h.33l.26.23.18-.21.46.1v.21l.3.13.44-.11.28.16.28-.21,0-.25h.33l.33.38.56.05.08.36-.21.28.34.12.1.31.64-.18,0,.64-.31.3.49.56.36,0,.3.25-.12.66.84.59.36-.56.43,0,.23.25.33-.33.49.21.15.33-.23.33.62.28-.16.43.44.25.07,24.63-.41.17-.28.32-.5.15-.46-.17-.34-.56-.07-.29L273,244l-.24-.21h-.27l-.12.21.17.28.13.53-.53.37-.46.18-.48-.2-.2-.38,0-.5-.34-.48-.22-.12h-.34l-.13.2.07.34-.24.32-.94,0-.62.34v.32l-.32.47-.59.15-.28-.11-.22.28-.31,0-.2-.41.13-.45-.23-.34-.45,0-.45.28-.34.62-.47.06-.62-.47-.15-.62L264,244l-.19-.71-1-.51-.62.08s-.11.58-.11.73a2.8,2.8,0,0,0,.32.67l-.13.75-.36.56-.23.08-.17.39-.3.28-.41-.07-.25-.32.51-.71-.24-.55-.76-.24-.28.21-.45.22,0,.24.34.27v.22l-.27.56a3.34,3.34,0,0,1,.08.47c0,.13-.59.34-.59.34l-.39-.21v-.2l-.47-.62-1.53-.62-.13-.29-1-.76-.18-.26-.27.17a1.71,1.71,0,0,1,.07.39,3.25,3.25,0,0,0-.07.38,8.72,8.72,0,0,0,.3.84l-.26.59-.5.12-.46-.24-.18-.62-1.06-.43-.66,0-.3,0-.2.35-.3.48-.58,0-.25-.15-.29-.24-.92-.29-.31.17v.3l.52.26.09.54s-.24.41-.3.41h-.47l-.75-.29-.83.31h-.16l-.5.36.28.34-.12.63-.34.06-.44-.3-.27.09-.94-.18-.36-.17.21-.56.46-.48.21-.52-.06-.73-.61-.26-.58.19a2.16,2.16,0,0,0-.23.5c0,.1.19.63.19.71a4.25,4.25,0,0,1-.57.61l-.59-.29-.36-.43-.56-.27-.49-.44-.5-1.06-.88-.68-.52.1-.08.56.67,1-.19.62-.24.93-.51.63-.36.38-.41-.42.05-.62.39-.94-.23-.69-.68-.39-.89-.26-.28-.11-.44.22-.57.12-.27,0-.25.38.34.1.51-.16h.39l.39.3v.73l-.49.77-.34-.19-.76-.16-1.21.26-1.57.46-.87.15-.85-.24-.21-.16-1,.29-.48.43-.3.65-.33.41-.2-.24v-.4l-.24-.59-.72-.42-1.07.16-1,.59-.83,0-1-.45-.86-.62-.27-.34.1-.44-.18-.39-.42-.49-.06-.41-.51-.5-.68-.15-.32.37.11.59-.44.42-.56-.1-.93-.51-.88,0-.55,1.11-.23.54.3.79s0,.73,0,.79.49.35.49.35a1.73,1.73,0,0,0,.08.43c0,.06.27,0,.27,0l.2.44-.2.44-.41.49-.43,0-.92-.53-.49-.49,0-.3-.25-.39-.47-.32,0-.43-.21-.24h-.71l-.45.31,0,.7s.44.62.47.68-.6.6-.6.6H213l-.21.21-.32,0L212,250l0-.52-.36-.15-.59.12-.8.44-.75.23-.32.42-.5.94-.93,1.08-.94.36-.21.38-.31-.33-.53-.15-.55-.38-.34.37,0-.43-.28-.36-2.79-1.22-.65.47-.1.64-.4.15-.25-.58-.6-.18-.4-.21.18-.4h-.36l-.18.11-.28,0-.07-.57-.29-.11-.07-.33-.14.4-.25-.25,0-.69h-.32l-.11.22-.35-.32-.18.14-.22-.18-.18-.76-.5-.32-.53,0-.08-.21-.46.07.14.4-.46-.22-.36-.47.18-.32-.11-.33-.64,0-.4.36L193,246l.47-.43-.54-.4-.57-.1-.25-.11.21-.25c.22-.26-.46-.18-.46-.18l-.07-.47-.75-.47.07-.61h-.43l-.07.21-.25-.57-.83-.51-.71-1-.5-.11-.79-.9-.57-.18-1-.22.22-.54-.22-.25v-.36l.25-.29-.21-.36-.29,0,0,.21-.29.22v.39l-.21.18,0,.4h.21l.11.18-.32.4.54.21-.11.25-.61.18-.46,1-.18,0,0,.47-.11.07-.07.72.29,0,.11.54-.72,0,.11.29-.32.29-.08.43-.42.07-.4-.25-.36,0-.1.47-.47,0-.3.2-.35,0,0-.35-.32-.34-.06-.29-.24-.09-.26-.25,0-.16.12-.09,0-.06h-.18l-.09-.15.07-.06v-.33l.31,0,.15-.12,0-.1-.17-.08,0-.06.19,0v-.18l-.13,0V242l-.11,0-.12-.15.14-.14-.06,0-.14,0-.25-.12-.06-.16.17-.22h.2v-.18l-.18-.1.1-.11.17,0,.3-.19-.12-.16Z" transform="translate(-76.86 -139.17)" disabled="disabled" style="pointer-events: none;"></path>

</svg>