<svg data-id="17" id="Capa_1" data-name="Capa 1" xmlns="http://www.w3.org/2000/svg" viewBox="0 0 113.02 118.7">
   <defs>
      <style>.cls-1,.cls-2{fill: #ebebef;;stroke:#fff;stroke-miterlimit:3.86;stroke-width:0.25px;}.cls-2{opacity:0.99;isolation:isolate;}</style>
   </defs>
   <path name="XXXX" data-id="" id="path2991" class="cls-1" d="M133.06,183l0,.2-.09.1.18.27-.25.09,0,.23-.15.06.33.22.31,0,0-.17.25.12-.09.23-.31.1,0,.17v.11l.38,0,.13-.11.12.11,0,.23-.16.13,0,.22.14.23-.07.31-.14.06-.35.27.15.21h.35l0,.1-.18.12,0,.18.13-.05.47.08V187l-.1.08.11.14h.28l.12-.27.3,0,.19-.14,0,.35.19.27,0,.37.5.23.43-.13.17.07v.16l.15.22-.09.19-.3.17,0,1,0,.26-.12.22h-.22l-.2.3v.26l-.2,0-.11-.13-.22,0L135,191l.09.18-.25.41-.49.27-.21.27-.27-.07-.16.23.16.35.46.15.06.35s-.21.19-.27.23,0,.28,0,.28l-.28.1-.25-.28-.4.13-.47.27-.59.07-.16-.08-.19.13,0,.27-.25.2-.23-.11-.17-.34-.45-.42-.3.1-.32.35,0,.24.52.55-.13.34h-.27l-.54-.7-.65-.42-.16-.12-.55,0-.09-.27,0-.39-.44-.2.05-.26-.53,0,.17-.22-.08-.22-.4-.22,0-.27.44-.68,0-.51.2-.37.13.15-.09.33.55.05.07.15.07-.33-.14-.24.45-.22.33,0,0-.11-.5-.16-.29-.2.07-.26.17-.24V189l.14-.16.26-.11.68-.66.09-.44.38-.84v-1l.22-.37.31-.05v.18l-.27.09-.06,1.12-.36.62.11.46.16-.07v-.24l.18-.31.35-1.12.13-.71.24-.22,0-.08h-.33l-.4-.33.14-.49h.15l.46-.15,0-.38-.15-.11.55-1.12.6-1,.41-1,.2,0,0,.13-.18.58.18.15-.44.64,0,.15.22-.28.18,0,0-.28.42.26-.31.11-.06.58.35.17ZM136.77,244l-.5-.21-.16.37.08.21h.52l-.09.48-.17-.09-.41.06-.22,0-.18.11-.21-.23v-.33l-.28-.16h-.22l-.45-.14-.09-.35-.25-.25-.83-.26-.06-.26-.29-.36h-.42l-.34-.46.22-.49-.45-.1h-.21l-.22-.3-.27-.05-.09.16h-.25l-.22-.58h-.34l-.16-.27-.17-.07-.12.09-.31-.14.11-.22,0-.1-.13,0-.34-.53,0-.29.09,0,0-.2-.29-.1-.16-.51-.17-.14-.19-.46.13-.16-.21-.23-.22,0-.13.19-.2-.07v-.21l-.46-.48H127l0,.12-.12.06-.11-.18-.29-.25-.09-.45-.19-.1.06-.15-.2,0-.08-.14,0-.23-.16-.13-.11-.33-.28-.06-.12.16h-.41l-.33-.38-.28-.1-.42-.36-.06-.42-.36-.14-.3.17-.39.17-.42-.37,0-.25-.27,0-.29,0-.22.19-.33-.18-.06-.06L121,233l-.28-.21.07-.28.11-.07-.17-.14h-.3l-.19-.3,0-.31h-.23l-.25-.14,0-.12.43,0,.09-.05.14,0,.13.28h.15v-.28l-.14-.19-.11-.19-.22.06-.11.25-.27,0-.15-.19-.11.14h-.19l-.13.13-.14-.39.16-.17.42-.1.41-.34h.23l.06-.2.47-.37.17,0,.21-.17,0-.15H121l-.67.56-.41.08-.25-.17-.37,0,0-.16L119,230l-.59-.2-.26-.64-.63-.59-.36-.38,0-.64.12-.06.21.14.57.24.49-.1.23-.29-.15-.41h0l-.12.44-.3.14-.67-.25-.22-.47-.06,0-.08-.17-.31-.2.14-.19h.22l.31.28.26.05.13.08.22-.22-.07-.31h.13l.17.12.36,0,.19-.23-.07-.22-.14.28-.11,0-.44-.1-.33,0-.2.05.18.17,0,.05-.31-.14-.31-.22-.3,0-.12.14-.26,0-.22,0,.18,0-.38.58-.22,0-.11-.15-.46-.18,0-.53-.22-.08-.26-.36,0-.11-.44-.33-.31,0-.2-.26h-.22l0-.14-.55-.44-.51-.17-.18-.14h-.13L112,224l-.14-.16-.53,0-.11-.07-.15.11.15.29h.64L112,224l.13,0,.07.24.26.09.07-.09a3.67,3.67,0,0,0,.55.2c.09,0,.11.27.11.27l.27.06.09.16-.45-.18-.28,0-.82-.44h-.44l-.31-.07-.46-.46-.47-.79-.11-.31-.24-.44,0-.13.29-.07.15.18.38-.1v-.24l-.17-.22,0-.22-.16-.08,0-.11h.24l.09-.22v-.14l.35-.19-.37,0-.34.11-.06.22-.16.26.18.29h-.26l0-.37.14-.4.37-.22.47-.13,1-.84v-.11l.59-.6h0l0,.09h.16l0-.24.24-.13h-.26l-.16,0,.11-.08v-.14l.53-.5.31-.69.49-.44,0-.26.55-.77.14-.05,0,.09-.22.27.35-.14.42-.52.36-.27.53-.11.57-.35.46-.88.22-.53.11,0,.38-.36.33-.17h.16l0,.17-.42.2-.28.33,0,.2.7-.53.47-.37.42,0,.13-.14h.4l.28.07.2-.09.36-.13-.09-.24H121l0,.28.22-.11h.26l0,.36-.38.44.09.46-.17.28-.16.25.22.17.22-.44.16-.11,0-.48.42-.27.18,0,.11.22.17,0,.18-.35.11,0,.31-.2.44,0,0,.2.17.11-.22.26-.42.09,0,0h-.16l-.33.28.2.24h.18l.09.18H123l.09-.09-.14,0,0-.16.16-.06.2.15,0,.29.42.18.18.35.15-.22-.13-.31-.22-.09,0-.35.16-.05,0-.17.2-.11.26,0,0,.11.2-.06.15,0,0,.07.13.17.09.6.13.09.49.68-.11.95h-.22l-.33.19-.22,0-.2-.2-.49.13-.13.25.22-.11.2,0,.18.13a4.9,4.9,0,0,0,.5,0l.16,0,.35.14.11.17.42-.24.07-.81-.29-.91v-.57l.16-.35.17,0,0,.4.27.42.33.2,0,.31.22-.07.07-.46,0-.31-.14,0,0-.11.13,0,.16.2v.53l.08.31.58.48,0,.33-.27.05-.13.24.51-.07.17-.37,0-.29-.42-.35-.06-.42-.23-.18,0-.17h.29l.37-.38h.18l.2.22h.31l.08.64.31.09.29-.29v-.33l-.09-.06-.24.28-.13-.3.24-.62.22,0,0,.42.53-.09.62-.33.18-.22.37.07v.28l-.15.2.22.18-.07.5.22-.13.18.18.44.44,0,1.5.11.13,0,.33.2.11v-.29l-.15-.35,0-1.08.2-.53h.24l.31.62.75.33-.09.44-.26,0-.27.27.75-.22.22-.53.29-.22.42,0v-.07l-.38-.07-.26.14-.24-.86,0-1.39.29-.27h.33l.42-.28.2,0-.29-.15-.2.09-.13-.22,0-.64.78-1.19.31-.6-.14-.17-.2.2-.22-.27-.11-1.17-.29-.5.14-.18.16-.13h.1l.07.16.2,0-.06-.26.29-.12v-.29l-.14-.08-.18-.26,0-.07.17.11.16-.13-.13-.15h-.15l0-.41.11-.05v-.13h-.25l-.16-.15,0-.24.18,0,0-.37-.12-.2.09-.13.16,0,.1-.21-.14-.19.13-.12.17,0,.14-.2-.08-.19-.16,0,0-.12.24-.06.11.08.17-.07,0-.26.17-.11h.08l.11-.16-.12-.23.2-.09.17-.67.14-.09.08-.6.13-.17v-.18l-.31-.19-.09-.11-.11,0v-.11l.15-.08.12.07.27,0-.05-.17,0-.35-.29-.24.07-.23.38-.15,0-.23.2-.15.17.34-.09.38-.13,1.11-.16,1.57v1.45l.17.25.22,1.08.09,1,.33,1.35.85,1.43,1.18,1.14.09.34.19.24,0,.69-.4.44-.8.33,0,.2-.19.14.11.16-.09.36.5.31,1.05.13.24.25.38.12,1,1.57.67,2.4v.59l.27,1-.06,1.23.33,1.74.23.48v.36l-.14.17-.08.57-.46.55-.11.44-.3,1.11-.06.91.28.11.22.19.33,0,.65-.44,1-1.07,0-.26.22,0,.43-.36V225l.11-.12.31.12.19-.08-.1-.15-.12,0-.14-.09.09-.18-.23-.15,0-.21.59.11.13-.17-.19-.13.1-.18.22.2h.15l0-.09.11,0-.06.22.15.3,0,.11.19,0,.22,0-.11-.18,0-.24.17-.06.35.06.08-.2-.16-.07-.09-.18.23,0,.18.08.06-.19-.05-.11v-.26l-.33-.11,0-.31-.13-.11.1-.22.14.22.37-.08.18-.24h.11l.09.25.44.19.06-.3.27-.22h0l.14.14.1.52,0,1.39-.13.47v.14l-.06.14-.16.41-.2.52.09.59.13,1,0,.68v1.35l0,1L149,231l.05.9.06.17-.2.59-.14.15.15.53.16.13-.1.25-.2.08.17.12,0,.47.21.17-.19.11v.24l-.2-.1-.19.11.08.18-.28-.07-.16.1L148,235l-.08-.06-.24,0-.05-.21.13-.11-.08-.11-.22-.05-.09-.1-.33-.18-.08.09-.31-.09-.18-.19.07-.1-.15-.1-.28,0-.09-.25.06-.11-.08-.05h-.19l-.11-.07.13-.13-.05-.11-.34,0,.06-.21.25-.11-.33-.36-.27,0-.22.11-.17,0-.2-.28-.11.11.2.24-.16.11-.07.17-.16-.32-.1,0-.07.2-.08,0,0,.17-.22-.2.11-.35-.18-.15-.2.15,0,.16-.12.25-.35-.14.06.2-.19.11v.15h.21l.19.3-.25.08-.38-.33-.19,0-.19.13-.11-.17-.09,0-.13.31h-.25l-.09.24-.18-.13-.09,0-.16.25-.33.11-.08.08-.07-.13-.26.14v.33h-.25l-.15-.08-.18.07,0,.23-.19-.06-.13-.14h-.12l-.18.21-.28-.13-.11,0,0,.22-.13.17h-.31l.09.34-.23.11.28.19,0,.22-.22.22.1.13.3,0-.08.23-.19,0-.13.13.08.34-1.37,7Zm-17.86-31.55.27-.08h.2l.13-.16.51-.09V212h-.42l-.4.18-.29.18Zm5.61.38-.11,0-.17.16-.36,0,0-.07-.18-.2v-.31l-.18-.13,0-.13.2-.07.26.07.49-.16,0-.17.42-.35.33,0,0,.27,0,.24.06.24-.17.09-.29-.07-.09.14,0,.26Zm-2-1.3.44,0,.13-.14h.35l.09-.28-.37-.05-.08.13-.28.05-.33.18Z" transform="translate(-109.8 -168.19)" disabled="disabled" style="pointer-events: none;"></path>
   <path name="XXXX" data-id="" id="path4483" class="cls-1" d="M189.29,258.12l-.28,0-.25,0-.19.2-.15.26-.46.14-.21,0-.44.52,0,.31-.29.21h-.33l0,.28.29.14.28-.1.28.11-.08.16.08.39.42-.06.27.39-.17.3.2.37.21.08.72.39.42-.09.18.28a2.49,2.49,0,0,0,.31.05c.08,0,.3-.24.3-.24l.58,0,.49.38.26,0,.19-.44.38-.09.86.05.19-.17.27.06.08.14.17,0,1,.45.67.29.82.84.57.32.09.29.6.1.19.25.73.06.36-.19.37.25.15.51-.14.42.11.41.17.11.08.34.14.1.07.26.44.13a2.44,2.44,0,0,1,.34-.18c.17-.06.27.16.27.16l.14.25.47.39.05.16.89.44.21.38.77.57,1,.94.56.19,1.42-5.22-1.19-.51-.52.09-.81-.2-.39-.58-.3-.19-.43-.55s-.11-.56-.11-.63-.3-1.05-.3-1.05l-.07-.59-.46-.52-.5-.22,0-.22-.46,0-.94.2-.88.25-.5-.08-.22-.11-.69,0-.47-.36-.66-.17a3,3,0,0,1-.51.17h-.62l-.11.17h-1.09l-.2-.31-.41,0-.08.23-.33.14s-.25.33-.31.33l-.43,0-.34.14-.14-.29-.44,0-.57-.41.06-.28a2.54,2.54,0,0,1-.28-.42c0-.07,0-.32-.05-.36s-.53-.35-.53-.35h-.33l-.16-.3-.32-.15Z" transform="translate(-109.8 -168.19)" disabled="disabled" style="pointer-events: none;"></path>
   <path name="La Cruz" scale="8" move="10" data-id="750" id="path2871" class="cls-1" d="M219.92,229.16l.37-.55.74-.53v-.38l.16-.35.25,0,.18-.39.21-.13.06-.3-.43-.55v-.88l.65-.71.32-.19,0-.49-.12-.15.33-.48,0-.48-.37-.45-.07-.21-.42-.2-.07-.28-.19-.13-.2.13-.29,0-.05-.17-.83-.73-.29,0-.26-.41h-.12l-.19.18h-.59l-.14.37-.37.23-.31.31-.47.29-.24-.09-.39.23-.3.14-.24.06-.23-.27-.25-.61-.7-.43-.23.21-.27.53-.45.2,0,.16-.83.71-.42.09.4.28.62-.15.12,0-.08.86-.32.9,0,.4.12.34.35.74.58.41.7.66.79.33.53.48H217l.67.63h0l.2.1.07.16.12.34L218,229l.17.16h.11l.12.2-.05.14h.43l.71-.34Z" transform="translate(-109.8 -168.19)" style="fill: rgb(210, 210, 230);"></path>
   <path name="San Bernardo" scale="8.7" move="15" data-id="773" id="path2873" class="cls-1" d="M217.7,228.26l-.67-.63h-.41l-.53-.48-.79-.33-.7-.66-.58-.41-.35-.74-.13-.36-.36,0-.89.39-.22-.05-1.18.5.54.28,0,.48-.58.37-.16.33-.2.36.26,0,.22.28v.52l.2.46a3.74,3.74,0,0,0,.46.14c.06,0,.29.23.29.23h.43l.86-.47.47-.55.5.13v.07l.6-.37,1.35.06.16.31,1.07.36.18-.05.06.12.34,0-.07-.16-.2-.1Z" transform="translate(-109.8 -168.19)" style="fill: rgb(210, 210, 230);"></path>
   <path name="XXXX" data-id="" id="path2875" class="cls-1" d="M214.21,228.11V228l-.5-.13-.47.55-.86.47h-.43s-.23-.23-.29-.23a3.74,3.74,0,0,1-.46-.14l-.2-.46v-.52l-.22-.28-.26,0-.18.5v.35l-.29.67-.27.18-.31.17-.12.28.12.41v.28l-.48.28-.16.22.08.31-.3.37.12.09.13.25.55,0,.06.07.53.12.67-.07.17-.46.12,0,.42,0,.13-.25.29-.13.58-.66,0-.36.16-.38,1.4-1.13.31-.33Z" transform="translate(-109.8 -168.19)" disabled="disabled" style="pointer-events: none;"></path>
   <path name="San Pablo" scale="7.5" move="18" data-id="775" id="path2879" class="cls-1" d="M210.56,219.69v-.28l.19-.12.05-.26.53-.45.15-.59.42-.34.34.06.62-.08.09-.15.42,0,.52.1,0-.13.27-.12.18,0,.13.17,1.48-.06.29-.41h.32l.32-.24.37-.06.17-.09.56.53.06.54.36.24.27.54,0,.85.22.16.19.66.21.1h-.59l-.14.37-.37.22-.31.32-.47.29-.24-.09-.39.23-.3.14-.24.06-.23-.27-.25-.61-.69-.43-.48-.37-.62.14-.13,0-.06-.33-.44-.19-.66.49-.54-.21,0-.3-.48-.09-1,.47h-.36l-.27-.09Z" transform="translate(-109.8 -168.19)" style="fill: rgb(210, 210, 230);"></path>
   <path name="Arboleda" scale="9.4" move="15" data-id="726" id="path2883" class="cls-1" d="M208.6,231.28l-.31-.21-.48,0-.39.25-.38-.08-.34-.3-.25,0-.29.18-.34,0-.68-.11,0-.14.25-.33.39-.34.32-.61-.18-.43.24-.4-.21-.41.13-1.25.25-.1.26-.39.2.19.29.12.35.33,0,.24.38.31.47,0,.44.08.17.24.46,0,.14.12,0,.29.25.19.06.19-.31.17-.12.28.12.41v.28l-.48.28-.16.22.08.31-.3.36Z" transform="translate(-109.8 -168.19)" style="fill: rgb(210, 210, 230);"></path>
   <path name="San Pedro de Cartago" scale="10" move="15" data-id="776" id="path2885" class="cls-1" d="M209.77,229l.27-.18.29-.67v-.35l.18-.5.2-.36.16-.33.58-.37,0-.48-.54-.28-.45.16-.46-.19-.3-.39-.36-.3-.09-.69-.33-.09-.47-.19-.32-.06,0,.59L208,225l-.28.47-.39.16-.47.55-.16.25-.15.22.2.19.29.12.35.33,0,.24.38.31.47,0,.44.08.17.24.46,0,.14.13,0,.28.25.19.06.19Z" transform="translate(-109.8 -168.19)" style="fill: rgb(210, 210, 230);"></path>
   <path name="La Union" data-id="754" id="path2887" class="cls-1" d="M209.51,220.1l-.61,0-.25.07-.42.19-.48-.13-.4-.21-.26.09-.25.32-.11,0V220l.12-.29v-.2l-.14-.07-.33-.23V219l-.34.18-.13.2h-.15l0,.22-.48-.05-.12-.12-.19.23-.24-.11-.05-.19-.39.15-.15.31-.31.11-.17-.11h-.18l-.2.11-.37,0-.2.17.5.19,0,.38.16.16-.34.39.14.09-.13.25.5.18.26-.08.37.39.71.13.19.83.31.31v.86l.32.11.25.24.11.62.25.18,0,1.08.37.28.15-.22.16-.25.47-.55.39-.16L208,225l.14-.72,0-.59.32.06.47.19.33.09.09.69.36.3h0l.3.39.46.19.12-.52-.44-.37.14-.27-.26-.34,0-1-.75-1-.09-.64h-.26l.08-.29.36-.5Z" transform="translate(-109.8 -168.19)" style="fill: rgb(210, 210, 230);"></path>
   <path name="Buesaco" scale="4" move="10" data-id="729" id="path2889" class="cls-1" d="M209.31,243.05l.22.06,1.1-.43.28-.44.5-.63.32-.25.09.16.56-.06.47-.47.63-.19.56-.72.51-.37.32.13.27-.19.07-.38.19-.17.56.24.08.24,0,.26.41.15.65-.12.75-.71v-.4l.39-.33-.17-.29-.44,0-.14-.16-.37.07,0,.26-.38.43h-.24l-.07-.31-.13-.18-.4,0s0-.29-.13-.31l-.34,0,0-.36-.58-.15-.66.26s-.07.18-.16.18-.38-.29-.38-.29l-.11-.24-.13-.18-.29-.75-.49-.38-.24-.37-.14-1-.15-.06-.65-.82-.77-.23-.34-.75H210l-.66-.31-.47-.13,0-.29.54-.34-.06-.07-.55,0-.13-.25-.43-.31-.48,0-.39.25-.38-.08-.34-.3-.25,0-.29.18-.34,0-.68-.11,0-.15-.73-.08-.2.11-.28,0-.46.14-1-.17-.05-.15-.37,0-.07.42-.2.24c-.08.08-.49.09-.49.09l-.17.33.09,1.08.24.19-.08.31.25.47.45.13.68.52s0,.31,0,.4.22.32.22.32l-.35,1.19-.17.08-.16.28v.48l-.69,1.21-.37.32.38.74,0,.22.22.58.22.22.62.75.49.13.89-.13.22.13-.08.36.48.71,1,.57.53.4.76.14.89-.31.44-.31.27.08.43.42Z" transform="translate(-109.8 -168.19)" style="fill: rgb(210, 210, 230);"></path>
   <path name="Pasto" scale="3.2" move="10" data-id="722" id="path2891" class="cls-1" d="M201.18,238.81l.39.74,0,.22.22.58.22.22.62.75.49.13.89-.13.22.13-.08.36.48.71,1,.57.53.4.76.14.89-.31.44-.31.27.08.43.42-.18.2v.46l-.28.22.22.44.34.31-.31.51-.28.28.16.28-.07.53.07.75.28.85-.06.46,0,.91-.25.41.16.12.25.75.31.35.6.09.25.38.13.59.15.16.22.44.22.15,0,.5-.47.69-.38.22-.18.53-.47.75-.1.63.16.66-.13.53-.22.28-.05.43-.1.45-.44.86-.07.59-.79.93-.71.28-.35.29.11.4.35.44-.13.24-.29-.15-.23-.44-.22-.14-.06-.29.22-.22-.16-.22-.47-.11-.13-.25.27-.16-.09-.44-.21.05-1.22-.71-.36,0-.08-.4-.87-.32-.75-.43,0-.28-.57-.36a.9.9,0,0,1-.34.06,3.42,3.42,0,0,1-.4-.3l-.18.13h-.51l-.61-.38-.16-.39-.42-.3h-.25l-.52-.58-.46-.08.07-.3.33-.22.15-.4.52-.49.14-.3h.1l.16-.22-.33-.22,0-.24.11-.09.08-.49.06-.09,0-.35-.11-.18v-.32l.2-.26h.18l.14-.33-.3-.28-.05-.28-.39,0-.27-.39-.09-.33-.21,0,0-.12.09-.28-.2-.11-.11,0v-.2l.2-.14.11-.3.36-.13.1-.36.31-.31-.11-.11,0-.27-.46-.78-.42-.14-.13-.25-.2-.05-.44-.34-.06-.66-.14-.52-.41-.78-.52-.44-.52-.25.25-.36.14-.3-.15-.18.21-.13.07-.15-.32-.42.12-.41.21,0,.26-.46-.14-.42-.12,0-.17-.11v-.26l.11,0,.46-.51,0-.28.44-.49.31-.27.18-.36.63-.28.09-.29,0-.36.14-.11.15.3.18.13v.2l.31.34.38.08.3.47h.17l.36-.63.08,0,.14.48.22.15.59-.14Z" transform="translate(-109.8 -168.19)" style="fill: rgb(210, 210, 230);"></path>
   <path name="Tangua" scale="5.8" move="10" data-id="781" id="path2893" class="cls-1" d="M197.68,256.09l-.41.17-.38-.05-.6.11-.11-.26-.07-.33-.53-1.18-.31-.22-.2-.84.13-.11V253l-.42.2-.71-.05h-.71l-.2-.4-.4-.13-.18-.24.13-.31,0-.33-.42,0-.46-.23.37-.24.15-.62-.09-.2.11-.39.32-.05-.07-.22.42-.27.45-.48,0-.43.24-.22.25.05.33-.29.53-.33.36-.47.35-.09.25-.42-.16-.31-.2-.82s.11-.82,0-.91a3.57,3.57,0,0,1-.26-.46l-.18-.11h-.24l-.17-.3.32-.11.4,0,.1-.18.16,0,.53.25.52.44.41.78.14.52.06.66.44.34.2.05.13.25.42.14.46.78,0,.27.11.11-.31.31-.1.36-.36.13-.11.3-.2.14v.2l.11,0,.2.11-.09.28,0,.12.21,0,.09.33.27.39.39,0,.05.28.3.28-.14.33h-.18l-.2.26v.32l.11.18,0,.35-.06.09-.08.49-.11.09,0,.24.33.22-.16.22h-.1l-.14.3-.52.49-.15.4-.33.22-.07.3Z" transform="translate(-109.8 -168.19)" style="fill: rgb(210, 210, 230);"></path>
   <path name="Funes" scale="5" move="10" data-id="743" id="path2895" class="cls-1" d="M206.41,265.29l-1.19-.5-.52.09-.81-.2-.39-.58-.3-.19-.43-.55s-.11-.56-.11-.63-.3-1.05-.3-1.05l-.07-.59-.46-.52-.5-.22,0-.22-.46,0-.94.2-.88.25-.5-.08-.22-.11-.69,0-.47-.36-.66-.17a3,3,0,0,1-.51.17h-.62l-.11.17h-1.09l-.2-.31-.41,0-.08.23-.33.14s-.25.33-.31.33l-.43,0-.34.14-.14-.29-.44,0-.57-.41.06-.28a2.54,2.54,0,0,1-.28-.42c0-.07,0-.32-.05-.36s-.53-.35-.53-.35h-.33l-.16-.3-.31-.14.36-.46.05-.31.23-.17,0-.18-.17-.25.27-.17.11-.47.16-.34-.11-.4-.29-.43v-.4l.12-.15-.12-.24-.36-.4v-.32l.11-.31-.05-.09.42-.07.07-.37.31-.18,0-.4.12-.18.14.07.37-.21-.07-.19.1-.13.35,0,.29.17.47.23.42,0,0,.33-.13.31.18.24.4.13.2.4h.71l.71.05.42-.2v.4l-.13.11.2.84.31.22.53,1.18.07.33.11.26.6-.11.38.05.41-.17.46.08.52.58h.25l.42.3.16.39.61.38h.51l.18-.13a3.42,3.42,0,0,0,.4.3.9.9,0,0,0,.34-.06l.57.36,0,.28.75.42.87.33.08.4.36,0,1.22.71.21-.05.09.44-.27.16.13.25.47.11.16.22-.22.22.06.29.22.14.23.44.29.15.08.43-.16.22.1.3Z" transform="translate(-109.8 -168.19)" style="fill: rgb(210, 210, 230);"></path>
   <path name="XXXX" data-id="" id="path2897" class="cls-1" d="M201.6,270l-.9-.31-.6-.6,0-.18-.09-.39-1-.18-.09.12-.4-.13-.17-.16h-.58l-1.9-.62-.15-.17-.4.12-.51-.28-.11-.26-.43-.24-.49,0-.64-.42-.08-.2h-.63l-.46.1-.82-.07-.22-.2h-.35l-.58-.8-.2-.82-.22-.27-.22,0-.29-.35-.33-.34-.27-.17-.42,0-.07-.06-.31.35h-.27l-.44.05-.56-.09-.37.13-.36-.26,0-.45-.23-.25.1-.49-.18-.2,0-.49-.08-.06v-.45l.3-.13,0-.33.2-.2.39-.06.19.09.26-.09.28.14.28-.1.28.11-.08.16.08.39.42-.06.27.39-.17.3.2.37.21.08.72.39.42-.09.18.28a2.49,2.49,0,0,0,.31.05c.08,0,.3-.24.3-.24l.58,0,.49.38.26,0,.19-.44.38-.09.86.05.19-.17.27.06.08.14.17,0,1,.45.67.29.82.84.57.32.09.29.6.1.19.25.73.06.36-.19.37.25.15.51-.14.42.11.41.17.11.08.34.14.1.07.26.44.13a2.44,2.44,0,0,1,.34-.18c.17-.06.27.16.27.16l.14.25.47.39.05.16.89.44.21.38.8.58,1,.93.58.2-.57,2.05-1.22-.28-.09-.35-.67-.38,0-.49-.53-.76Z" transform="translate(-109.8 -168.19)" disabled="disabled" style="pointer-events: none;"></path>
   <path name="XXXX" data-id="" id="path2899" class="cls-1" d="M201.9,270.34l-.3-.36-.9-.31-.6-.6,0-.18-.09-.39-1-.18-.09.12-.4-.13-.17-.16h-.58l-1.9-.62-.15-.17-.4.12-.51-.28-.11-.26-.43-.24-.49,0-.64-.42-.08-.2h-.63l-.46.1-.82-.07-.22-.2h-.35l-.58-.8-.2-.82-.22-.27-.22,0-.29-.35-.33-.34-.27-.17-.42,0-.07-.06-.31.35h-.27l-.44.05-.56-.09-.37.13-.36-.26,0-.45-.23-.24-.17.31,0,.26-.38,0-.18.26-.27.22.25.36-.14.38-.31.06-.49-.06-.48.44-.65,0,0,.32-.71,1.2-.46.39.12.26-.27.68-.42.07-.14.26.53.23.12-.29.4-.17.41.08.57.64.55.17.2-.21,1.47-.8.58-.55,1.26-.07.28-.13.37.11,0,.14.78.3,1.92,1.89.94.64h.27l2,1.31,1.85.92.33.29,8.73.29.06-.19-1.23-.28-.08-.36-.67-.37v-.47Z" transform="translate(-109.8 -168.19)" disabled="disabled" style="pointer-events: none;"></path>
   <path name="XXXX" data-id="" id="path2901" class="cls-1" d="M189.63,253l.05.09-.11.31v.32l.36.4.12.24-.12.15v.4l.29.43.11.4-.16.34-.11.47-.27.17-.34-.2h-.3l-.38.44-.25-.13-.38,0-.3.22h-.18l-.24-.19-.39-.1-.68-.34-.73-.14-.35.2-.61,0-.11-.16-.05-.28-.24-.3-.33-.09-.11-.25-.25-.33,0-.23.32.12.77-.23.6-.08.49-.27.66-.08.52-.34.92-.27.49-.36.14-.44.55,0,.55.16Z" transform="translate(-109.8 -168.19)" disabled="disabled" style="pointer-events: none;"></path>
   <path name="XXXX" data-id="" id="path2903" class="cls-1" d="M183.61,254.82l.33.11.77-.23.6-.08.49-.27.66-.08.52-.34.92-.27.49-.36.14-.44-.14-.15h-.25l-.16-.16v-.28l-.23-.21,0-.58.11-.11L188,251l-.25-.14-.46-.07-.42.27-.41,0-.61-.21-.13-.18-.45-.1,0-.14-.18-.12-.06.25.05.15-.27.13h-.31l-.14.17,0,.24-.2.15,0,.27.11.09,0,1-.26.88-.34.67-.1.5Z" transform="translate(-109.8 -168.19)" disabled="disabled" style="pointer-events: none;"></path>
   <path name="XXXX" data-id="" id="path2905" class="cls-1" d="M189.63,253l.42-.07.07-.37.31-.18,0-.4.12-.18.14.07.37-.21-.07-.19.1-.13L191,251l.09-.42-.17-.21-.24-.44-.56-.07-.1-.13h-.14l-.11-.33.08-.39.24-.08-.18-.27-.21-.3-.65.26-.14.12h-.49l-.56-.5-.36.06v.33l-.44,0-.73.53-.36,0-.22.37-.67.16-.19-.2-.36-.09.08.23-.05.22.11.12.3.13.12.19.18.12,0,.14.45.1.13.18.61.21.41,0,.42-.27.46.07.25.14-.09.37-.11.11,0,.58.23.21v.28l.16.16h.25l.14.15.55,0,.55.16Z" transform="translate(-109.8 -168.19)" disabled="disabled" style="pointer-events: none;"></path>
   <path name="Yacuanquer" scale="8" move="10" data-id="784" id="path2907" class="cls-1" d="M191.14,251.38l.35,0,.29.18.38-.25.15-.62-.09-.2.11-.39.32-.05-.07-.22.42-.27.45-.48,0-.43.24-.22.25.05.33-.29.53-.33.36-.47.35-.09.25-.42-.16-.31-.2-.82s.11-.82,0-.91a3.57,3.57,0,0,1-.26-.46l-.18-.11h-.24l-.17-.29-.41.09-.33.42-.4.8-.6.46-1.27.6s-.69,0-.8,0-.71-.25-.71-.25l-.52-.21.12.35.16.13-.16.29.22.37-.11.43-.22.11,0,.15.09.27,0,.35.21.31.18.27-.24.08-.08.39.11.33H190l.1.13.56.07.24.44.17.21L191,251l.19.43Z" transform="translate(-109.8 -168.19)" style="fill: rgb(210, 210, 230);"></path>
   <path name="Consaca" scale="9" move="10" data-id="731" id="path2909" class="cls-1" d="M194.59,244l.32-.12.4,0,.1-.18.17,0,.25-.36.14-.3-.15-.18-.26,0-.26-.14-.17-.43h-.42l-.2-.24.13-.32-.07-.19-.4.17-.18.06-1-.11-.13-.15-1.06-.24-.32-.23-.51,0c-.1,0-.23-.17-.23-.17h-.22l-.26.24-.49-.1-.15-.13-.9-.06-.24-.1v-.32l-.21-.05,0,.48-.18.4,0,.24.24.13,0,.4-.09.23.4.28.05.34.15.18,0,.41.46.47.27.59.14.14,0,1-.22.26.53.21s.6.23.71.25.8,0,.8,0l1.27-.6.6-.46.4-.8.33-.42.41-.09Z" transform="translate(-109.8 -168.19)" style="fill: rgb(210, 210, 230);"></path>
   <path name="Alb치n" scale="8.2" move="10" data-id="723" id="path2911" class="cls-1" d="M195.82,242.81l.21-.13.07-.15-.32-.42.12-.41.21,0,.26-.46-.14-.42-.12,0-.17-.11v-.26l.11,0,.46-.51,0-.28.44-.49.31-.27.18-.36.63-.28.09-.29,0-.36.14-.11v-.23l-.11-.19.15-.28-.23-.3.16-.55-.27-.12-.31.22-.05.25-.8-.07-.82.32-.23.33-.32.06-.27.61-.4.16,0,.91.27.14v.56l.25.33-.17,1.61.14.66-.13.38.18.44.26.14.26,0Z" transform="translate(-109.8 -168.19)" style="fill: rgb(210, 210, 230);"></path>
   <path name="Guaitarilla" scale="8" move="12" data-id="745" id="path2913" class="cls-1" d="M189.65,248.3l0-.35-.09-.27,0-.15.22-.11.11-.43-.22-.37.16-.29-.16-.13-.13-.35.22-.26,0-1-.14-.14-.27-.59-.46-.47,0-.41-.15-.18-.2.15v.2l-.19.22v.2l-.24.19-.5,0-.14.23.09.27-.36.2-.64.1-.16.16-.16-.26-.2-.07-.42-.49,0-.17-.17-.3-.44.36-.2.09,0,.2v.27l-.12.13-.1.45-.25.12.21.25v.17l-.11.26v.3l.17.27-.08.34c0,.08-.41.38-.44.44s-.17.79-.19.85-.26.14-.26.14l.26.75.49.27.09.22h.1l.36.1.19.2.67-.16.22-.37.36,0,.73-.53.44,0v-.33l.36-.06.56.5h.49l.14-.12.65-.27Z" transform="translate(-109.8 -168.19)" style="fill: rgb(210, 210, 230);"></path>
   <path name="Ancuy치" scale="10" move="10" data-id="725" id="path2915" class="cls-1" d="M188.65,242.81l-.05-.34-.4-.28.09-.23,0-.4-.24-.13,0-.24.18-.4,0-.47-.31-.24-.11-.64-.18-.27.11-.29.4-.29.14-.35-.22-.26-.2,0h-.13l-.36.29-.23,0-.35.07-.27.23-.29-.11-.22.37.14.55.22.34-.29.51-.09.66-.18.27-.2,1.37-.33.42,0,.62.17.3,0,.17.42.49.2.07.16.26.16-.16.64-.1.36-.2-.09-.27.14-.23.5,0,.24-.19v-.2l.19-.22V243l.2-.15Z" transform="translate(-109.8 -168.19)" style="fill: rgb(210, 210, 230);"></path>
   <path name="Sandon치" scale="10" move="5" data-id="772" id="path2917" class="cls-1" d="M194.57,241.52l-.4.17-.18.06-1-.11-.13-.15-1.06-.24-.32-.23-.51,0c-.1,0-.23-.17-.23-.17h-.22l-.26.24-.49-.1-.15-.13-.9-.06-.24-.1v-.32l-.21-.05-.31-.23-.11-.64-.18-.27.11-.29.4-.29.14-.35-.23-.26.23-.21h.22l0-.34-.36-.27.11-.33.53-.67h.25c.08,0,.25-.18.25-.18l0-.75.29,0,.4,0,.17.31h.26l.14.42-.13.25.06.3.37.15.11.23v.39l-.21.19.17.55.13.36.31.07.2.39.44,0,.57.33.16-.14.33.12.19.66.22.1.3.77.29,0,.28.1,0,.33.22.15,0,.23Z" transform="translate(-109.8 -168.19)" style="fill: rgb(210, 210, 230);"></path>
   <path name="La Florida" scale="6.5" move="10" data-id="751" id="path2919" class="cls-1" d="M195.12,242.28l.13-.39-.14-.66.17-1.61-.25-.33v-.56l-.27-.14,0-.91.4-.16.27-.61.32-.06.23-.33.82-.32.8.07.05-.25.31-.22.27.12.28-.06.09-.21.36-.17v-.34l.21-.06,0-.32-.3-.08-.24-.37.19-.49-.12-.55.07-.61-.48.49-.32.06-.11.11,0,.38-.21.23-.27.16-.07.23-.24.3-.55.09-.22-.25h-.27l-.25.4-.52.4.05.32-.2.23-.33,0-.36.33-.27.69-.24,0-.28.3-.42-.3-.1-.56-.2-.11.22-.78-.21-.16,0-.45-.33-.28-.75-.29-.29-.36L191,234v.28l-.19.2-.06.49-.3.2,0,.41.14.42-.13.25.06.3.37.15.11.23v.39l-.21.19.17.55.13.36.31.07.2.39.44,0,.57.33.16-.14.33.12.19.66.22.1.3.77.29,0,.28.1,0,.33.22.15,0,.24.07.18-.13.32.2.24Z" transform="translate(-109.8 -168.19)" style="fill: rgb(210, 210, 230);"></path>
   <path name="Cachagui" scale="6" move="10" data-id="737" id="path2921" class="cls-1" d="M201.18,238.8l.38-.31.69-1.21v-.48l.16-.28.17-.08.35-1.19s-.22-.22-.22-.32,0-.4,0-.4L202,234l-.45-.13-.25-.47.08-.31-.24-.19-.09-1.08.17-.33s.41,0,.49-.09l.2-.24.07-.42-.42-.19-.09-.44-.14-.09-.6.22-.45-.6-.32-.4.08-.47-.22-.05h-.42l-.46-.25-.16-.72-.24-.45-.21,0-.35.35v.4l.09.55.47.35.21,0,.33.29,0,.68-.21.12.08.43.24.25V231l-.24.44-.25.08.06.5.17.16-.11.51-.07.6.12.55-.19.49.24.37.3.08,0,.32-.21.06v.34l-.36.17-.09.21-.28.06-.16.55.23.3-.15.28.11.19v.23l.15.3.18.13v.2l.31.34.38.08.3.47h.17l.36-.63.08,0,.14.48.22.15.59-.15Z" transform="translate(-109.8 -168.19)" disabled="disabled" style="pointer-events: none;"></path>
   <path name="El Tambo" scale="7" move="10" data-id="742" id="path2923" class="cls-1" d="M198.78,232.66l.11-.5-.17-.16-.06-.5.25-.08.24-.44v-.29l-.24-.25-.08-.43.21-.12,0-.68-.33-.29-.21,0-.47-.35L198,228l-.23.16-.54-.33-.58.15-.64-.48-.4-.09-.2-.49-.6-.2-.05-.33-.33-.05-.34.2,0,.27.18.3-.15.37-.22,0,0,.19.1.11.1.5.14.08.16.39-.07.42-.14.06v.29l-.25.22-.31.29-.19,0-.44.31-.05.13.19,0v.15l-.28.22-.27-.09-.33.12-.06.16-.14-.11-.22.11-.17-.22-.37-.09-.34.17-.25.33-.27-.27-.24-.22-.4,0-.4-.06-.2.24,0,.39-.22.27.14.6.19.12.2.36V233l-.28.27v.14a2.93,2.93,0,0,1,.05.39,1.24,1.24,0,0,1-.13.37l.32.11.11.16-.08.22-.25.16V235l.11.28.28,0,.4,0,.17.31h.26l0-.41.3-.2.06-.49.19-.2V234l.53-.08.29.36.75.29.33.28,0,.45.21.16-.22.78.2.11.1.56.42.3.28-.3.24,0,.27-.69.36-.33.33,0,.2-.23-.05-.32.52-.4.25-.4h.27l.22.25.55-.09.24-.3.07-.23.27-.16.21-.23,0-.38.11-.11.32-.06.48-.49Z" transform="translate(-109.8 -168.19)" style="fill: rgb(210, 210, 230);"></path>
   <path name="San Lorenzo" scale="6" move="10" data-id="774" id="path2925" class="cls-1" d="M200.21,220l.49.21v.2l.26.15-.2.37v.42l.25.4,0,.48-.16.18-.15.62.28.51,0,.4-.38.51-.05.69.2.64-.37.33v.22l-.83.25-.2.49-.32.16-.27-.11-.14,0-.1.19.24.45.16.72.46.25h.42l.22.05-.08.47.32.4.45.6.6-.22.14.09.09.44.42.19.37,0,.05.15,1,.17.46-.14.28,0,.2-.11.74.08.24-.32.39-.34.32-.61-.18-.43.24-.4-.21-.41.13-1.25.25-.1.26-.39-.37-.28,0-1.08-.25-.18-.11-.62-.25-.24-.32-.11v-.86L205,223l-.19-.83-.71-.13-.37-.39-.26.08-.5-.18.13-.25-.14-.09.34-.39-.16-.16,0-.38-.48-.19-.57.11-.15.13-.31,0,0-.11-.26-.13-.31-.17v-.2l-.2,0-.17.15Z" transform="translate(-109.8 -168.19)" style="fill: rgb(210, 210, 230);"></path>
   <path name="XXXX" data-id="" id="path2927" class="cls-1" d="M195.64,272.48l-.33-.29-1.85-.92-2-1.31h-.27l-.94-.64-1.92-1.89-.78-.3,0-.14-.37-.11-.28.12-1.26.08-.58.55-1.47.8-.2.21-.55-.17-.57-.64-.41-.08-.4.17-.12.29-.53-.23.14-.26.42-.07.27-.68-.12-.26.46-.39.71-1.2,0-.32.65,0,.48-.44.49.06.31-.06.14-.38-.25-.36.27-.22.18-.26.38,0,0-.26.17-.32.1-.49-.18-.2,0-.49-.08-.06v-.45l.3-.13,0-.33.2-.2.39-.06.19.09.25-.09,0-.29-.34-.26-.33-.2-.38,0-.31.25H185V260l-.25.25h-.33v.1l-.18.06-.08-.24-.31.1-.22.14,0,.11h.17l0,.25.14.15-.14.17,0,.42-.15.1-.19.43,0,.32-.48-.05-.13-.34,0-.15-.21-.09-.67,0-.07-.12h-.11l-.14.09-.25,0,0-.19-.11-.17-.45-.1-.07-.12h-.28l-.23.15,0,.18-.2.15-.06.37-.23.09-.41-.44H179v.39l.18.1.12.3.18.11-.11.2-.11.1,0,.32.31,0,.53.39v.22l-.24.09-.44.3-.18.52.11.22.31.29-.24.33-.44.08-.41.29,0,.31-.24.31,0,.39-.26.22.13.26.61-.05.45.17.25.5-.15.42.32.59v.22h.57l.06-.11.26.06.11.14.57.14,0,.17.67.1.35.3.29,0,.38.25-.06.28.1.14.43.09.39,0V271l.71.56h.22l.33.3.67.05.17.08,0-.08.81-.11.14-.18,1.15,0,.1-.07.37,0,.15-.17.12,0,.36.32.16-.07.05.25-.31.18,0,.11.36.07.11.27-.17.09v.1l.12.12-.07.1-.06.41.1.18v.76l-.21.2-.18.29V275l-.24.53-.23,0-.29.27-.06.32-.35.2-.09.25v.53l-.22.29,0,.4-.2.38v.25l-.12.12v.21l.24.42v.53l.1.13-.17.56-.19.28-.1.63.06.2.25.29s0,.36,0,.46-.12.13-.12.13v.33l.13.12-.06.24-.07.09v.31l.13.13-.07.26-.36.24v.14l-.16.14,0,.12.12,0,.07.21,3.55-1.35.06-.17.23,0,.36-.46h.18l.21.26.26-.08.1-.24.29.06.19.16v.13l-.1.18.12.45.27.17.06.19.23.38.5.23.16.17.26.09v.13l-.11.08,0,.07H194l.41.32.19,0,0-.18-.33-.32.13-.08.36.09v-.23l.17-.16.33.22.19.33.15-.05,0-.17.13,0,0,.18.8.16.16.14.54-.1.33.29c0,.05,0,.17,0,.17l.16,0,.16-.12.08.07.22.44.29.07.17.2h.38l.57.18.53-.1.25-.25.33,0,.12.22.57.1.38-.14.21.19.44,0,.16-.21.08.16.35,0,.34-.21h.2l.12-.1v-.1l.21-.08.23-.33.16-.06.11-.14,0-.23.4-.15.24.07,0,.13h.2l.2-.14.15,0,.19.31.24.06.18.23.52,0a.38.38,0,0,1,.11.08l.23-.05.15-.25.46,0,.07.16.19.14h.1l.16.09.11.31.08,0,.32-.08-.23-.38,0-.24.31,0,.15.18.2-.26.11,0,0-.09-.36-.28.09-.29h.2l.13.18.11,0,.11-.15-.33-.33,0-.36-.23-.06,0-.28.32-.23.18-.25-.27-.23-.12-.12-.29.08-.14-.08-.19-.56,0-.35.24-.33v-.18l.11-.27,0-.31-.25-.13-.16-.45-.34-.19,0-.16.19-.16v-.27l-.45-.44.12-.18.09-.37-.79-.74,0-1.3.25-.36.3.32h.23v-.28l.13-.11.08-.2-.33-.3v-.27l.2-.12,0-.39h.16l0-.15-.44-.49-.58-.07h-1.14l-.74-.45-.79-1-.3-.24Z" transform="translate(-109.8 -168.19)" disabled="disabled" style="pointer-events: none;"></path>
   <path name="XXXX" data-id="" id="path2929" class="cls-1" d="M184.67,256.45l-.11-.16-.05-.28-.24-.3-.34-.1-.06.31,0,.42-.36.17h-.15l-.37.17-.23.52.14.42-.05.28.08.16.39.14.27.23.31,0,.07.28-.1.28.29.25.07.41.24.12.19-.15.31,0h.29l.31-.25.38,0-.22-.38-.44-.3-.05-.19.22-.19,0-.45-.23-.25.18-.17-.07-.24L185,257l-.25-.31-.11-.22Z" transform="translate(-109.8 -168.19)" disabled="disabled" style="pointer-events: none;"></path>
   <path name="Pupiales" scale="7" move="17" data-id="768" id="path2931" class="cls-1" d="M182.86,254.71l.35-.08.41.18,0,.23.25.33.11.24-.07.31,0,.42-.36.17h-.15l-.37.17-.23.52.14.42-.05.28.08.16.39.14.27.23.31,0,.07.28-.1.28.29.25.07.41.24.12.19-.15.31,0V260l-.25.25h-.33v.1l-.18.06-.08-.24-.31.1-.22.14,0,.11h.17l0,.25.14.15-.14.17,0,.42-.15.1-.19.43,0,.32-.48-.05-.13-.34,0-.15-.21-.09-.67,0-.07-.12h-.11l-.14.09-.25,0,0-.19-.11-.17-.45-.1-.07-.12h-.28l-.23.15-.16-.17-.47-.18s-.2.41-.29.35a2.45,2.45,0,0,0-.46-.18v-.18l.26-.24-.11-.42-.37-.48,0-.34.65-.12,0-.12-.65-.35-.05-.31.51-.76.15-.66.16-.25.31-.3.08-.21v-.18l.41-.35.42-.36.54-.18h.4l.55-.24.42,0,.21-.22Z" transform="translate(-109.8 -168.19)" style="fill: rgb(210, 210, 230);"></path>
   <path name="Linares" scale="7" move="3" data-id="756" id="path2933" class="cls-1" d="M188.11,238l.23-.21h.22l0-.34-.36-.27.11-.33.53-.67h.25c.08,0,.25-.18.25-.18l0-.75-.11-.28v-.17l.25-.16.08-.22-.11-.16-.32-.11a1.24,1.24,0,0,0,.13-.37,2.93,2.93,0,0,0-.05-.39v-.14l.28-.27v-.16l-.2-.36-.19-.12-.14-.6.22-.27,0-.39.2-.24v-.38l-.34-.21v-.12l.3-.28.15-.4-.09-.31.09-.28.24-.21.06-.36-.1-.26h-.61l-.15.22-.31.12-.34.33v.44l.07.22-.18.31-.15.56-.38.06-.58.54,0,.15-.47,0-.32.16-.06.19-.15.05-.16.24-.06.49-.38.55-.33.18-.14.51.14.35,0,.36-.22.2,0,.53-.11.11v.53l.28.47.34.31.35.37.27-.17.09-.16.15.11-.06.27-.31.42.11.62.31.38.06.38.29.11.27-.23.35-.07.23,0,.36-.29h.13l.19,0Z" transform="translate(-109.8 -168.19)" style="fill: rgb(210, 210, 230);"></path>
   <path name="El Pe침ol" scale="8" move="10" data-id="739" id="path2935" class="cls-1" d="M189.39,230.82v-.38l-.34-.21v-.12l.3-.28.15-.4-.09-.31.09-.28.24-.21.06-.36-.1-.26.09-.19.55-.6.36-.17.23-.31-.12-.24.08-.28.29,0,.26-.31-.07-.3s.14-.06.14-.13.16-.81.16-.81l-.3-.24-.12-.36v-.3l-.21-.16.73-.16h.49l.2.14.15-.31h.13l.38-.25.29.13.44-.3.15.29.13.12-.13.24-.19.15-.09.16-.32.16,0,.36.33.22.18.31,0,.74-.07.17,0,.19.38.09.07.35-.35.2,0,.27.18.3-.15.37-.22,0,0,.19.1.11.1.5.14.08.16.39-.07.42-.14.06v.29l-.25.21-.31.3-.19,0-.44.31-.05.13.19,0v.15l-.28.22-.27-.09-.33.12-.06.16-.14-.11-.22.11-.17-.22-.37-.09-.34.17-.25.33-.27-.27-.24-.22-.4,0-.4-.05Z" transform="translate(-109.8 -168.19)" style="fill: rgb(210, 210, 230);"></path>
   <path name="Taminango" scale="7" move="8" data-id="780" id="path2937" class="cls-1" d="M200.11,220.14l-.18-.18v-.19l-.37-.18h-.26l-.2-.1h-.37l-.41,0-.29-.15h-.39l-.32-.17-.39.21h-.18l-.07.13-.18-.07-.28.22-.19-.11-.44.24-.4,1,.21.31-.49.44-.07.25-.22-.05-.11.18-.49.16,0,.31-.14.42.15.29.13.12-.13.24-.19.15-.09.16-.32.16,0,.36.33.22.18.31,0,.74-.07.17,0,.19.38.09.07.36.32,0,.05.33.6.2.2.49.4.09.64.48.58-.15.54.33L198,228v-.39l.35-.35.2,0,.11-.19.14,0,.27.11.32-.16.2-.49.83-.25v-.22l.37-.33-.2-.64.05-.69.38-.51,0-.4-.28-.51.15-.62.16-.18,0-.48-.25-.4v-.42l.2-.37h0l-.26-.14v-.2l-.51-.22Z" transform="translate(-109.8 -168.19)" style="fill: rgb(210, 210, 230);"></path>
   <path name="XXXX" data-id="" id="path2941" class="cls-1" d="M178.72,261.08l-.24,0-.2-.14-.13-.15-.37-.22-.3,0,.08-.31-.31-.32-.24-.38-.14-.12-.12-.21.16-.47-.22-.6.44-.6.1-.61.28-.28.29.06.23-.53.16-.35h.15l0-.22.31-.09H179l.2.37.24.16.48,0v.18l-.08.21-.31.3-.16.25-.15.66-.51.76.05.31.65.35,0,.12-.65.13,0,.33.38.48.11.42-.26.24V261a2.45,2.45,0,0,1,.46.18c.09.07.29-.35.29-.35l.47.18.15.17,0,.18-.2.15-.06.37-.23.09-.41-.44h-.32l-.3-.2-.05-.26Z" transform="translate(-109.8 -168.19)" disabled="disabled" style="pointer-events: none;"></path>
   <path name="XXXX" data-id="" id="path2939" class="cls-1" d="M179.11,263l-.27-.15-.24-.13-.07-.31-.42-.18h-.23l-.24-.18,0-.24-.35-.25-.4.13-.16.48-.61.3h-.61l-.11-.17-.25,0,.07-.21.22-.12-.12-.14v-.25l-.32-.1-.5-.72-.19-.08-.07-.39.17-.11.17-.27.37-.07.25-.31-.2-.22-.05-.24.15-.29.18,0,.22-.12H176l.16.29.36.33.21,0,.13.21.14.12.24.38.31.32-.08.31.3,0,.37.22.13.15.2.14.24,0,.05.27.26.17v.4l.18.1.12.3.18.11-.11.2-.11.1,0,.32Z" transform="translate(-109.8 -168.19)" disabled="disabled" style="pointer-events: none;"></path>
   <path name="XXXX" data-id="" id="path2943" class="cls-1" d="M179.91,256.08l.41-.35.42-.36.54-.18h.4l.55-.24.42,0,.21-.22-.05-.16,0-.22.07-.18-.2-.22-.43.22-1.08-.06-.36-.16-.38.18-.24-.2,0-.33-.36-.07-.16-.31-.46.24-.45-.29-.22.37.16.33-.16.14,0,.31h-.34l0,.2-.31.4-.5-.07-.19-.63-.44-.31-.25-.56-.58-.53h-.44l-.33-.18-.45-.06-.32.05-.1.52-.47.09-.3.26.09.36-.13.14-.18.24-.12.27-.35,0-.3.25v.28l-.3.25-.28-.08-.14.08-.18.28-.2.08.09.58.47.32h.49l.39.25.3.47.32.26.48.77.57.3h.27l.35.17.19,0,.22-.12H176l.16.29.36.33.22,0,.16-.47-.22-.6.44-.6.1-.61.28-.28.29.06.23-.53.16-.35h.15l0-.22.31-.09H179l.2.37.24.16Z" transform="translate(-109.8 -168.19)" disabled="disabled" style="pointer-events: none;"></path>
   <path name="XXXX" data-id="" id="path2945" class="cls-1" d="M182.81,254.55l.05.16.35-.08.41.18.09-.49.34-.67.26-.88,0-1-.11-.09,0-.26-1-.1-.54.14-.28.44-.39.16h-.3l-.17.17,0,.2-.34,0-.46-.22-.88-.14-.63-.67-.36-.24-.27-.53.1-.86-.15-.5h-.29l-.19.19-.34,0-.27-.24-.19.06-.16.15-.15.21,0,.73-.12.1-.3,0-.46.24-.64.07-.24,0-.05.12.11.36.37.36,0,.14-.21.11,0,.55-.12.27.34.18h.44l.58.53.25.56.44.31.19.63.5.07.31-.4,0-.2h.34l0-.31.16-.14-.16-.33.22-.37.45.29.46-.24.16.31.36.07,0,.33.24.2.38-.18.36.16,1.08.06.43-.22.2.22-.07.18,0,.22Z" transform="translate(-109.8 -168.19)" disabled="disabled" style="pointer-events: none;"></path>
   <path name="Tuquerres" scale="6" move="10" data-id="783" id="path2947" class="cls-1" d="M184.14,251.37l.2-.15,0-.24.14-.17h.31l.27-.13-.05-.15.06-.25-.12-.19-.3-.13-.11-.12.05-.22-.08-.23-.1,0-.09-.22-.49-.27-.26-.75s.25-.08.26-.14.16-.79.19-.85.43-.36.44-.44l.08-.34-.17-.27v-.3l.11-.26v-.17l-.21-.25-.81-.66-.21-.3-.47-.08-.41,0-.81-.41.2-.36,0-.5.22-.29.05-.37.23-.13.32-.09,0-.5.25-.24-.05-.47.29-.62-.16-.63.14-.3-.13-.37-.32.62-.29.14-.08.54-.64.56-.53.17-.36.58-.11.52-.13.48.11.51-.09.33-.27.23-.19.44.39.59-.2.77-.36.32v.22l.34.2-.56,1.14-.68.47h-.36l-.09.24.31.26-.27.57-.14,0,0,.43.15.51-.1.86.27.53.36.24.63.67.88.14.46.22.34,0,0-.2.17-.17h.3l.39-.16.28-.44.54-.14,1,.09Z" transform="translate(-109.8 -168.19)" style="fill: rgb(210, 210, 230);"></path>
   <path name="Providencia" scale="10" move="8" data-id="766" id="path2949" class="cls-1" d="M184.23,245.11l.26-.12.1-.45.12-.12v-.29l-.25.07-.18-.16,0-.5-.18-.3.21-.6,0-.36L184,242l-.22-.72s0-.36,0-.42a1.42,1.42,0,0,0-.17-.33s-.08-.6-.09-.66a.29.29,0,0,0-.08-.11l0-1-.55-.45-.29,0,.29.43.12.37-.14.3.16.63-.29.62.05.47-.25.24,0,.5-.32.09-.23.13-.05.37-.22.29,0,.5-.2.36.81.41.41,0,.47.08.21.3.8.66Z" transform="translate(-109.8 -168.19)" style="fill: rgb(210, 210, 230);"></path>
   <path name="Mallama" scale="3.5" move="14" data-id="759" id="path2951" class="cls-1" d="M177.14,249.22l-.17.15-.15.21,0,.73-.12.1-.3,0-.46.24-.64.07-.24,0-.05.12.11.36.37.36,0,.14-.21.11,0,.55-.12.28-.44-.07-.32.05-.1.52-.47.09-.3.26.09.36-.13.14-.18.24-.36,0-.34-.28,0-.23-.48-.22-.25.12-.09.16-1.19-.08-.49-.44-.36-1-.43-.25-.39-.07-.42-.39-.07-.32v-.41l-.15-.32-.21-.09,0-.11-.18-.06-.08-.16.12-.17-.09-.07-.33.15L167,250l-.16-.08,0-.16-.09-.23.14-.22.23-.35,0-.34-.19-.27.1-.47-.29-.28-.25-.33-.17-.31.11-.22.34-.16.43-.47.25-.52.39-.4.58-.44,1.06-1,.26-.41-.05-.55.15-.44.17-.22v-.75l-.3-.38,0-.45-.33-.25-.4,0-.06.14-.19.14-.14-.31-.5-.43v-.25l.14-.2-.06-.05-.29,0-.26-.12,0-.24.14-.18v-.58l-.19-.13.08-.38.16-.07.06-.07.19.24h.36l.31.16.26.32s.36-.34.42-.37a10,10,0,0,0,.55-.85l0-.17.43-.66.25-.75v-.94l-.17-.22V234l.32-.53.47-.23.19.12.18-.08.12.15,0,0,.14,0-.05.31.14,0,.2,0,.09.06.07.18h.15l.09.18-.13.53h.17l.16.16v.32l-.11.13-.08.19-.1.06v.13l.29.08,0,.93-.19.09.09.18-.15.06-.14-.1-.13,0-.07.2-.16.07,0,.29.11.05-.41.48h-.15l-.12.16.05.24-.21.34-.19.1v.28l.15.12v.47l.23.54.13.28,0,.44.26.29.12.59.42.46.38.21.74.77.21.09.26.47.58.43.68.87.73.35.64.15.25.34,0,1.74.12.29-.1.83-.17.08Z" transform="translate(-109.8 -168.19)" style="fill: rgb(210, 210, 230);"></path>
   <path name="Santacruz" scale="3.5" move="14" data-id="778" id="path2953" class="cls-1" d="M178.41,249.2l0-.44.14,0,.27-.57-.31-.26.09-.24H179l.68-.47.56-1.14-.34-.2v-.22l.36-.32.2-.77-.39-.59.19-.44.27-.23.09-.33-.11-.51.13-.48.11-.52.36-.58.53-.17.64-.56.08-.54.29-.14.33-.63-.3-.43-.13.2-.25.09-.06.13-.4-.16-.11-.17-.51,0-.11-.54.15-.51.08-.05.1-.3-.14-.25-.08-.5.14-.19.09-.17-.11-.19,0-.42.09-.19.07,0,0-.47.13-.19-.3-.22-.13.13-.62,0-.18.09,0,.13-.38.05-.07.07v.3l-.11.19-.22,0-.11.37.06.38-.09.39-.15.44-.18-.13h-.29l-.47-.23.1-.27-.44-.33-.27-.62h-.33l.13-.27,0-.19-.39-.11-.11-.27.11-.23-.16-.35-1,.1-.11-.17-.32.29h-.23v-.23l-.44-.19-.22-.41.15-.23-.17-.27-.33.1-.45-.18,0-.17-.28-.11,0-.16s.14,0,.18-.07a1.33,1.33,0,0,0,0-.3l-.35-.11-.06-.27-.22-.11-.33-.29.05-.27-.47-.17-.1.37-.23,0h-.3l-.13-.23-.34-.13,0-.27.17-.07v-.25l-.14,0-.19.22-.37.12,0,.3.23.14-.07.07-.31,0,0,.17.24.2h.34l.24.32-.1.28-.26.15.08.12.18.06,0,.29.13.06.31-.28.2.11,0,.22.12.11-.13.12-.19-.21-.09.21-.21.14.21.17.09.24.11.14,0,0,.14,0-.05.31.14,0,.2,0,.09.06.07.18h.15l.09.18-.13.53h.17l.16.16v.32l-.11.13-.08.19-.1.06v.13l.29.08,0,.93-.19.09.09.18-.15.06-.14-.1-.13.06-.07.19-.16.07,0,.29.11.05-.41.48h-.15l-.12.16.05.24-.21.34-.19.1v.28l.15.12v.47l.23.54.13.28,0,.44.26.29.12.59.42.46.38.21.74.77.21.09.26.47.58.43.68.87.73.35.64.15.25.34,0,1.74.12.29-.1.83-.17.08.28.25.18-.06.27.24.34,0,.19-.18Z" transform="translate(-109.8 -168.19)" style="fill: rgb(210, 210, 230);"></path>
   <path name="Samaniego" scale="3.2" move="14" data-id="771" id="path2955" class="cls-1" d="M184.7,244.13l0-.19.2-.09.44-.36,0-.62.33-.42.2-1.37.18-.27.09-.66.29-.51-.22-.34-.14-.55.22-.37-.06-.38-.31-.38-.11-.62.31-.42.06-.27-.15-.11-.09.16-.27.17-.35-.37-.34-.31-.28-.47v-.53l.11-.11,0-.53.22-.2,0-.36-.14-.35.14-.51.33-.18.38-.55.06-.49-.35,0-.35.09v.19l-.52.19-.28-.13v-.28l-.18-.05-.62.19-.17-.2-.31-.05-.36.17-.21-.14v-.59l-.13-.29.27-.31,0-.22-.5-.28-.91.05-.21-.11-.19.12-.28,0-.06,0,0,.16-.19.2-.16-.09,0-.33-.15,0-.08.14-.36-.05,0-.28-.2-.24v-.34l-.2-.13-.11.14-.4.13-.09-.17-.28-.13-.08-.47-.32,0-.34-.38-.39-.11-.19,0,0-.19-.14-.16-.39-.08.17-.2-.06-.28-.24-.16.25-.17v-.22l-.15,0-.1-.28.21,0,.2-.45-.08-.2,0-.26-.09-.42-.21-.05,0-.26-.14-.06-.1-.11.13-.11h.12l.13-.23-.13-.19h-.2l-.1-.25,0-.25-.17,0-.11.22-.1,0-.17-.13.13-.28-.18,0-.34-.1-.13.08,0,.16-.25.08-.13-.24.08-.08,0-.17.22-.08-.23-.14-.22.08-.29-.17-.19,0-.22.15.19.12-.28.13-.09.36-.38.37-.09-.17-.68,0-.16.22-.12-.15-.41,0,.05.18-.21.21-.14-.15-.36-.09-.26,0V224l.2.36-.18.2h-.36l-.15.2.24.26,0,.31.66-.09.18.18-.18.16-.33,0-.13.29-.32.15v.2l.27,0-.09.23-.26,0-.2.29.17.15-.15.13.09.47-.51-.11-.11-.27-.32.23v.24l-.33.09-.18.4-.2.09.1.35H169l.13.31.18,0v.12l-.14.17,0,.13.2.09,0,.42.11.08v.42l.13.06.08-.22.38-.12.12.08-.19.18.14.12.26-.07-.07-.18.27-.15.17.18.36-.12.19-.22.14,0v.25l-.17.07,0,.27.34.13.13.23h.3l.23,0,.1-.37.47.17-.05.26.33.3.22.11.06.27.35.11a1.33,1.33,0,0,1,0,.3c0,.07-.18.07-.18.07l0,.16.28.11,0,.17.45.18.33-.1.17.27-.15.23.22.41.44.19V234h.23l.32-.29.11.17,1-.1.16.35-.11.23.11.27.39.11,0,.19-.13.26h.33l.27.63.44.33-.1.27.47.23h.29l.18.13.15-.44.09-.39-.06-.38.11-.38h.22L180,235v-.3l.07-.08.38,0,0-.13.18-.09.62,0,.13-.13.3.22-.13.19,0,.47-.07,0-.09.19,0,.42.11.19-.09.17-.14.19.08.5.14.25-.1.3-.08.05-.15.51.11.54.51,0,.11.17.4.16.06-.13.25-.09.12-.2.31,0,.55.45,0,1a.29.29,0,0,1,.08.11c0,.06.09.66.09.66a1.42,1.42,0,0,1,.17.33c0,.06,0,.42,0,.42l.22.72.28.28,0,.36-.21.6.18.3,0,.5.18.16.25-.07Z" transform="translate(-109.8 -168.19)" style="fill: rgb(210, 210, 230);"></path>
   <path name="La Llanada" scale="4.3" move="18" data-id="752" id="path2957" class="cls-1" d="M185.87,231.57l-.35,0-.35.09v.19l-.52.19-.28-.13v-.28l-.18-.05-.62.19-.17-.2-.31-.05-.36.17-.21-.14v-.59l-.13-.29.27-.31,0-.22-.5-.28-.91.05-.21-.11-.19.12-.28,0-.06,0,0,.16-.19.2-.16-.09,0-.33-.15,0-.08.14-.36-.05,0-.28-.2-.24v-.34l-.2-.13-.11.14-.4.13-.09-.17-.28-.13-.08-.47-.32,0-.34-.38-.39-.11-.19,0,0-.19-.14-.16-.39-.08.17-.2-.06-.28-.24-.16.25-.17v-.22l-.15,0-.1-.29.21,0,.2-.45-.08-.2,0-.26-.09-.42-.21-.05,0-.26-.14-.06-.1-.11.13-.11h.12l.13-.23-.13-.19h-.2l-.1-.25,0-.25-.17,0-.11.22-.1,0-.17-.13.13-.28-.18,0-.34-.1-.13.08,0,.16-.25.08-.13-.24.08-.08,0-.17.22-.08-.23-.14-.22.08-.29-.17-.19,0-.22.15.19.12-.28.13-.09.36-.38.37-.09-.17-.68,0-.16.22-.12-.15-.41,0,.05.18-.21.21-.15-.16-.12-.35,0-.28-.24,0,0,.18-.26.13-.31-.13-.07-.36-.18-.13,0-.57-.14-.09.12-.16.17,0,.34-.26.09-.51.42-.18.13-.27.22,0-.06-.22-.23,0,.07-.18h.18l.2-.09-.07-.27.16-.17.33,0,.16-.24-.2-.16.13-.07h.24l-.15-.26.46-.27.47,0,.56.42.11-.11-.11-.26.33.09.11.35-.07.33h.29l.07-.4,0-.22.18-.17.09.44h.31l.36.27,0,.22-.17.11-.07.31.31.06.2.27.36,0,.11.26-.16.05v.08l-.15.07-.16.11.07.14.42.08.16.25.31.06.22.29-.27,0-.11.18.31.09.18.09.22,0-.07.4-.15.11.13.18h.36l.15-.22.2.24h.31l0-.31.31.16.42-.18.51.33,0,.33.25.14,0,.26.33,0,.38-.16.4.07.38.44.51.07,0,.33.4.82.51,1,.37.15,0,.51.42.56-.09.29.18.17.49.14.22.46.13.07.45.33,0,.35.07.63.25.5.42.05.51.31.22.34-.07.19-.15.05-.16.24Z" transform="translate(-109.8 -168.19)" style="fill: rgb(210, 210, 230);"></path>
   <path name="Los Andes" scale="3" move="16" data-id="757" id="path2959" class="cls-1" d="M186.24,231.09l-.21-.34-.51-.31-.42-.05-.25-.5-.07-.63,0-.35-.45-.33-.13-.07-.22-.46-.49-.14-.18-.17.09-.29-.42-.56,0-.51-.37-.15-.52-1-.39-.82,0-.33-.51-.07-.38-.44-.4-.07-.38.16-.33,0,0-.26-.25-.14,0-.33-.51-.33-.42.18-.31-.16,0,.31h-.31l-.2-.24-.15.22h-.36l-.13-.18.15-.11.07-.4-.22,0-.18-.09-.31-.09.11-.18.27,0-.22-.29-.31-.06-.16-.25-.42-.08-.07-.14.16-.11.15-.07v-.08l.16-.05-.11-.26-.36,0-.2-.27-.31-.06.07-.31.17-.11,0-.22-.36-.27h-.31l-.09-.44-.18.17,0,.22-.07.4h-.29l.07-.33-.11-.35-.33-.09.11.26-.11.11-.56-.42-.47,0-.46.27.15.26h-.24l-.13.07.2.16-.16.24-.33,0-.16.17.07.27-.2.09h-.18l-.07.18.23,0,.06.22-.22,0-.13.27-.42.18-.09.51-.34.26-.17,0-.13.17-.15.1h-.13l-.17-.21-.11,0-.17.22h-.27v-.13l-.19-.22-.05.13-.25,0-.14-.15.06-.14-.14-.47-.19-.23,0-.27-.12-.19-.29,0-.48-.24-.35-.42,0-.27-.31-.25-.27.14-.13.16-.55-.06,0-.41-.32-.47-.34,0,0-.25-.25-.12,0-.25.11-.11.07-.19h.14l.11-.17.42-.1.19.08,0,.13.22.14.19.2h.39l.1-.2.11-.06.06-.71-.06-.27.15-.15v-.22l.27-.21.21.07.17-.29.28.08.16-.2-.13-.24,0-.12h.54l.08-.1-.16-.2V215l.19-.11,0,.13.22,0,.06-.31-.14-.11-.13-.55.08-.2-.22-.22-.17,0v-.17l.27-.27h.31l.47-.27.94-.08.22-.17.84,0,.14.26.16-.12.36-.05,0-.36.26-.16.12.13.16-.22,0-.25.41-.42v-.27l.22-.19,0-.33.5-.2h.47l.64.15,1.05.6.2,0,.78.4.17.38.66.23.67-.15.32-.32.24.11c.09,0,.07.41.07.41l.62.45.46-.37.22,0,.13.32.41.28-.24.72.41.23.37,0,.15.24-.32.35V215l-.39.22,0,.1.29.24.05.38-.05.48,0,1.36.31.48a.54.54,0,0,1,0,.4l.27.49.42.38.16.42s-.11.22-.14.31a5.93,5.93,0,0,0,.16.8l.6.73,0,.46.34.42.53.71,1.15.36.8.11.42-.29.4,0h.25l.62-.34.58-.28h.2l.62-.2.57.2-.06.06-.31-.05-.13.22.2.22.22-.15.11.09.27,0,.09.31h.17l.25.26h.57l.33-.3.22.17v.3l.12.36.3.24s-.16.75-.16.81-.14.13-.14.13l.07.3-.26.31-.29,0-.08.28.12.24-.23.31-.36.17-.55.6-.09.19h-.61l-.15.23-.31.11-.34.33v.44l.07.22-.18.31-.15.56-.38.06-.58.54,0,.15-.47,0-.32.16Z" transform="translate(-109.8 -168.19)" style="fill: rgb(210, 210, 230);"></path>
   <path name="Cumbitara" scale="4" move="13" data-id="736" id="path2961" class="cls-1" d="M189.33,222.93l-.57-.2-.62.2h-.2l-.58.28-.62.34h-.25l-.4,0-.42.29-.8-.11-1.15-.36-.53-.71-.34-.42,0-.46-.6-.73a4.77,4.77,0,0,1-.15-.8,2.21,2.21,0,0,1,.13-.31l-.16-.42-.42-.38-.27-.49a.54.54,0,0,0,0-.4l-.31-.48,0-1.36.05-.48-.05-.38-.29-.24,0-.1.39-.22v-.43l.32-.35-.15-.24-.37,0-.41-.23.24-.72-.41-.28-.13-.32-.22,0-.46.37-.62-.45s0-.37-.07-.41l-.24-.11-.32.32-.64.15-.07-.39,0-.22.17-.09.14-.51-.16-.4.27-.62.22-.06.33-.36.25-.09.09.18.35-.33,0-.47-.24-.42-.4-.22-.13-.36.42-.57.08-.31.26-.08.56,0,.3.32.54.21.23.39.38,0,.18.26.37.25h.38l.39.38.12.13-.09.59.18.14,0,.19-.49.62v.18l-.38.42v.33l-.07.2.16.18.22.33-.09.27.47.2.44.39.33.2.18-.06.16,0-.16.38h-.2l0,.22-.2.11.36.09.06.31-.24.15v.29l.49.44.39.07.31.2.16-.18.2,0,.18.19.11-.28.46,0,.09.14-.18.31.25.17h.15l.14.14.22-.14h.37v.16l.14.44.17.05.25.44,0,.31.28.51.38.26-.22.25h-.27l-.11.24-.24,0v.13l.33.07-.11.33.27.13.24-.26v.31l.13.06.23-.3.28,0,.4.4H189l.15.55-.2.13v.47l.31.28v.22l-.2.12.05.17-.22.2.26.16v.39c0,.09.2.14.2.14l0,.39.15.31-.16.17Z" transform="translate(-109.8 -168.19)" style="fill: rgb(210, 210, 230);"></path>
   <path name="Policarpa" data-id="764" id="path2963" class="cls-1" d="M193.87,222.83l.13-.42,0-.31.49-.16.11-.18.22.05.07-.25.49-.44-.21-.31.4-1,.44-.24.19.1-.09-.52.05-.31-.16-.31s-.07.14-.18.11a1.48,1.48,0,0,1-.31-.13l0-.2-.31,0-.4.18h-.87l-.31-.27s0,0,0-.15-.31-.51-.31-.51l.06-.51-.08-.85-.29-.31.06-.93.18-.37,0-.38.29-.4-.76-1.28-.51-.18-.31.06-.07.2-.22.25-.16,0-.17-.49-.36-.14-.46.18-.52-.09-.26-.24-.31.29-.2-.14-.2-.24-.16.11-.49.09-.42-.18-.27-.15-.4-.05-.06-.33-.36-.18-.15-.51,0-.24.16-.11-.09-.38-.89-.37-.2-.25-.24,0-.51,0-.23-.17,0-.38-.45,0-.29-.37s.09-.36,0-.36a1.5,1.5,0,0,1-.42-.2l-.38.22.09.29-.27,0-.4.3.13.12-.09.59.18.14,0,.19-.49.62v.18l-.38.42v.33l-.07.2.16.18.22.33-.09.27.47.2.44.39.33.2.18-.06.16,0-.16.38h-.2l0,.22-.2.11.36.09.06.31-.24.15v.29l.49.44.39.07.31.2.16-.18.2,0,.18.19.11-.28.46,0,.09.14-.18.31.25.17h.15l.14.14.22-.14h.37v.16l.14.44.17.05.25.44,0,.31.28.51.38.26-.22.24h-.27l-.11.25-.24,0v.13l.33.07-.11.33.27.13.24-.26v.31l.13.06.23-.31.28,0,.4.4H189l.15.55-.2.13v.47l.31.28v.22l-.2.11.05.18-.22.2.26.16v.39c0,.09.2.14.2.14l0,.39.15.31-.16.17-.06.06-.31-.05-.13.22.2.22.22-.15.11.09.27,0,.09.3h.17l.25.27h.57l.32-.29.75-.16h.49l.2.13.15-.3h.13l.38-.25.29.13.45-.3Z" transform="translate(-109.8 -168.19)" ></path>
   <path name="El Rosario" data-id="740" id="path2965" class="cls-1" d="M197.29,218.79l.11-.37.17-.56.35-.37.31-.58.17-.28,0-.35.18-.3.17-.11v-.5l.11-.32.15-.16-.17-.15v-.19l-.18-.41-.28-.18,0-.19.14-.2.06-.47-.06-.22v-.28l.19-.32.05-.22.32-.24v-.3l0-.35.11-.28.11-.17.06-.35-.16-.25-.28-.27-.42,0-.77-.67-.18-.24,0-.33.38-.22-.18-.18-.22-.27-.73.09-1.31-.38-1.05-.2-1.13-.48h-1l-.22-.16.18-.35L193,205l.82-.86.18-.29,0-.31-.41,0-.11.15-.24,0-.8-.09-.19-.14-.34.08-.14.15-.35.07-.31-.15-.24-.36-.14-.09-.1-.11-.28,0-.12.15-.46.14-.09.22-.73,1.29-.23.22-.3.63-.24.39-.5.15-.15-.06-.32,0-1.3-.39-.25-.2-1.76-1.18-.3-.33-.77-.26-.75,0-.35.17-.16.11-.15,0-.22.11-.46.41-.22.11.11.26-.06.52-.17.17,0,.38-.56.61v.2l.3.32.54.21.23.39.38,0,.18.26.37.25h.38l.39.38.39-.29.27,0-.09-.29.38-.22a1.5,1.5,0,0,0,.42.2c.11,0,0,.36,0,.36l.29.37.45,0,0,.38.23.17.51,0,.24,0,.2.25.89.37.09.38-.16.11,0,.24.15.51.36.18.06.33.4.05.27.15.42.18.49-.09.16-.11.2.24.2.14.31-.29.26.24.52.09.46-.18.36.14.17.49.16,0,.22-.25.07-.2.31-.06.51.18.76,1.28-.29.4,0,.38-.18.37-.06.93.29.31.08.85-.06.51s.31.35.31.51,0,.15,0,.15l.31.27h.87l.4-.18.31,0,0,.2a1.48,1.48,0,0,0,.31.13c.11,0,.18-.11.18-.11l.16.31-.05.31.09.53.28-.22.18.07.07-.13h.17l.4-.21Z" transform="translate(-109.8 -168.19)" style="fill: rgb(210, 210, 230);"></path>
   <path name="Leiva" scale="5.5" move="10" data-id="755" id="path2967" class="cls-1" d="M199.59,210.29h.13l.14-.52v-.19l.48-.15h.3l.38-.18.24-.39.24-.19.19-.33-.11-.15,0-.06.07-.13,0-.28.13-.13-.15-.18v-.34l.11-.22.26,0,.5-.25.32,0,.18.08.11-.06v-.28l-.2-.28v-.13l.18-.09.37-.24.09-.43.17-.24-.09-.15-.2-.4-.05-.42-.21-.4-.38-.28h-.22l-.31-.15-.17,0-.18.11-.44.06-.56-.58-.46-.33v-.3l-.24-.33-.44-.19-.68,0-.24-.26-.13-.41-.5-.31-.68-.21-.15-.35.17-.33.26-.82L198,198l.53-1,.24-.8-.55.29-.7.71-.27-.12-.22.08-.08.25-.4.38-.13.78-.28.63-.3.28.09.33.24.26.28.49.28.23.89.5.54.65-.19.78.07.79.1.63-.58.28-.47-.11-.6.06-.23.19-.44.05-.44-.31-.17-.57-.41-.85-.47.23-.36.33,0,.31-.18.29L193,205l-.6,1.47-.18.35.22.16h1l1.13.48,1.05.2,1.31.38.73-.09.22.27.18.18-.38.22,0,.33.18.24.77.67.42,0,.28.27.16.25Z" transform="translate(-109.8 -168.19)" style="fill: rgb(210, 210, 230);"></path>
   <path name="XXXX" data-id="" id="path2971" class="cls-1" d="M155.85,257.3l.3-.63.48-.55,3-1.1.61-.11L162,254l.16-.39.47-.39,0-.3-.35-.15,0-.26.37-.49,3-.19,2.75-.68.07.33.42.39.39.07.43.25.36,1,.49.44,1.19.08.09-.16.25-.12.48.22,0,.23.34.28.36,0-.12.26-.35,0-.3.25v.28l-.3.25-.28-.08-.14.08-.18.28-.2.08.09.58.47.32h.49l.39.25.3.47.32.26.48.77.57.3h.27l.35.17-.14.28.05.24.2.22-.25.31-.37.07-.17.27-.17.11.07.39.19.08.5.72.32.1v.25l.12.14-.22.12-.07.21H175l-.25-.27-.36.21-.22,0-.28.15-.31,0-.19.39H173l-.17-.14-.36.09-.47.65-.19,0v.36l-.38.25-.22.21-.25,0-.39-.13-.35.11-.68,0-.37-.21h-.26l-.06-.11-.58-.09-.09-.07-.81-.06-.12.09-.28-.06-.63-.3,0-.08h-.09l-.15.17-.32-.09,0-.14-.1-.08-.79-.07,0-.06-.42,0-.13-.2v-.18l-.15-.05H164l-.14-.08-.52-.62-.07-.17-.3-.06,0-.08-.1-.14-.11-.1-.59-.24-.05-.13-.19-.21-.29-.06-.13-.1-.09-.15-.43-.25h-.54l-.17-.12v-.1l-.25-.17-.24,0-.17,0-.27-.13-.07-.19.05-.08-.07-.07-.26.07-.22,0-.05-.08-.06,0-.09.15-.4-.06-.23-.19-.08-.15-.31-.1-.06-.22-.34-.07,0-.25.09-.24-.13-.39-.78-.46Z" transform="translate(-109.8 -168.19)" disabled="disabled" style="pointer-events: none;"></path>
   <path name="XXXX" data-id="" id="path2973" class="cls-1" d="M147.31,246.21l9.37-1.84.25-.35-.19-.11.14-.29.42-.23-.07-.21-.16-.11.06-.07.18-.1.05-.26.1-.09-.1-.24-.34,0-.31-.1,0-.33.12-.09.18.12.13-.15-.08-.1.22-.06v.17l.17,0,.05.16h.1v-.27l.14-.08v-.11h.19l.07-.09-.09-.14-.17,0-.13-.44h.08l0-.12-.12-.14.23,0,.44.09v.16l.16.16.55-.05.28-.28,1.12-.35.73-.22.14-.43.08-.08,0-.24-.44-.48-.17-.6.09-.55-.11-.48,0-.61.23-.84-.2-.25.14-.12-.06-.58-.14-.35h-.36l-.07-.2.22-.11.24-.28,0-.14.18-.11.22.08.14-.16-.21-.22.07-.24.36-.17,0-.23.13-.08.11.08.26-.08,0-.1.09-.1.14,0,.11.33h.13l0-.19.15-.09-.11-.25,0-.41.19.17h.24l.11-.2.14,0,0,0,.17.07.08.22.16.14.09-.18.19,0,.05-.09.14,0,.09.23.25.13.85.1.51.44.36-.23.28.2h.16l.14.22.11-.17H167l.25.13-.05-.19.26-.24.36-.11.44-.48v-.74l-.16-.14.11-.11.12-.55,0-.56.22-.54.25-.26.05-.46H169l.13.31.18,0v.12l-.14.17,0,.13.2.09,0,.42.11.08v.42l.13.06.08-.22.38-.12.12.08-.19.18.14.12.26-.06-.07-.19.27-.15.17.19v.29l.23.14-.07.07-.31,0,0,.17.24.2h.34l.24.32-.1.28-.26.15.08.11.18.07,0,.29.13.05.31-.27.2.11,0,.22.12.11-.13.12-.19-.21-.09.21-.21.14.21.17.09.23-.19.08-.19-.12-.47.23-.32.53v.38l.17.22v.94l-.25.75-.43.66,0,.17a10,10,0,0,1-.55.85c-.06,0-.42.37-.42.37l-.26-.32-.31-.16h-.36l-.19-.24-.06.07-.16.07-.08.38.19.13v.58l-.14.18,0,.24.26.12.29,0,.06.05-.14.2v.25l.5.43.14.31.19-.14.06-.14.4,0,.33.25,0,.45.3.38v.75l-.17.22-.15.44.05.55-.26.41-1.06,1-.58.44-.39.4-.25.52-.43.47-.34.16-.11.22.17.31.25.33.29.28-.1.47.19.27,0,.34-.23.35-.14.22.09.23,0,.16.16.08.41-.06.33-.15.09.07-.12.17.08.16.18.06,0,.11.21.09.15.32v.4h0l-2.75.68-3,.19-.37.49,0,.26.35.15,0,.3-.47.39L162,254l-1.77.91-.61.11-3,1.1-.48.55-.31.64h0l-.22,0-.36.34-.53.24-.95-.34-.27-.36-.47-.09-.29-.31-.41-.26v-.22l.36-.07.1-.64-.17-.34,0-.57-.41-.43,0-.3-.36-.31-.15,0-.86-.46-.32-.05-.15-.2v-.1l.13-.05-.05-.13-.25-.29-.19.14,0,0-.17-.05-.1-.06,0-.24-.35-.29-.24,0-.23-.26-.16,0-.23-.37-.27-.08V251l0,0,.2-.07,0-.14-.14-.14,0-.19.28-.22.33-.08.06-.28.35-.1.4.18.18-.29-.35-.26.28-.3-.24-.28-.3.21-.39-.28.28-.11-.13-.21-.3-.2-.24.22-.34-.19.13-.33-.45-.36-.22-.43.13-.33Z" transform="translate(-109.8 -168.19)" disabled="disabled" style="pointer-events: none;"></path>
   <path name="XXXX" data-id="" id="path2977" class="cls-1" d="M150.32,216.31l-.14-.39-.34-.44-.3-.18.07-.21,0-.31-.14-.1-.09-.27.16-.11.13-.32-.07-.11v-.26l-.26-.22-.21-.27-.12-.63.13-.05.17-.1-.25-.06-.1-.24-.16-.11.1-.4.18-.18h.11l.18-.22-.26-.1L149,211l.22-.11.05-.3-.31,0-.05.07-.33.09-.08-.42.11-.23-.12-.16-.07-.21.24-.06v-.36l-.23-.59-.22-.1-.06-.13.15-.06-.09-.11-.21-.44-.12-.1,0-.18.09,0,.17.06.1,0,0-.22-.15-.13.12-.14-.09-.1.11-.2.09,0,.19-.26-.15,0-.08-.21v-.28l.15-.09.16-.3.16-.68.2-.28,0-.38-.2-.2-.36-.5.13-.18v-.72L149,202l-.14-.21-.29,0-.34-.18-.62-.07-.22-.22,0-.48.2-.38-.45-.13-.27.15-.5.05-.26-.44.31-.4-.39-.11-.46.23-.25-.29v-.36l.3-.31-.36-.37h-.51l-.14-.09.06-.18.1,0,0,.07.13-.05v-.12l-.09-.1.18-.18-.18-.13,0-.23.29-.05L145,197l-.33-.06-.21,0h-.18l-.23-.13,0-.21,0-.24-.26-.15-.27,0h-.16l-.2-.16.12-.35.11,0-.05-.17-.14-.12h-.25l-.23-.12.1-.28.47.12v-.23l.08,0-.06-.12-.18,0-.14-.18v-.23l-.13,0,.12-.11-.11-.32h-.18l.07-.14v-.11l-.24-.07-.19.23V194l-.17.22-.19-.07v-.45l.31-.3v-.3l-.22,0-.28.11-.63-.45-.09-.46-.41-1.06-.17-.16,0-.3.22-.06,0-.24.13-.14,0-.14-.6-.22-.08.21-.14.17h-.18l-.17.45-.64,1-.22,1.2-.17.57.11,1.36.19.19-.1.55-.16.2,0,.52-.32.72-.08.58-.22.39-.23.88-.08.75-.09.38-.13,1.11-.16,1.57v1.45l.17.25.22,1.08.09,1,.33,1.35.85,1.43,1.18,1.14.09.34.19.24,0,.69-.4.44-.8.33,0,.2-.19.14.11.16-.09.36.5.31,1.05.13.24.25.38.12,1,1.57.67,2.4v.59l.27,1-.06,1.23.33,1.74.23.48v.36l-.14.17-.08.57-.46.55-.11.44-.3,1.11-.06.91.28.11.22.19.33,0,.65-.44,1-1.07,0-.26.22,0,.43-.36V225l.11-.12.31.12.19-.08-.1-.15-.12,0-.14-.09.09-.18-.23-.15,0-.21.59.11.13-.17-.19-.13.1-.18.22.2h.15l0-.09.11,0-.06.22.15.3,0,.11.19,0,.22,0-.11-.18,0-.24.17-.06.35.06.08-.2-.16-.07-.09-.18.23,0,.18.08.06-.19-.05-.11v-.26l-.33-.11,0-.31-.13-.11.1-.22.14.22.37-.08.18-.24h.11l.09.25.44.19.06-.3.27-.22.11-.25-.13-.14.3-.36h.1l.28-.24V221l.17-.32,0-.33h.11l.25-.23h.24l.34-.42v-.31l-.15-.27,0-.27-.16-.09-.17-.56-.24-.07-.08-.28h.29l.15-.22v-.24l.22,0,.11-.16-.22-.07.21-.22,0-.29-.12-.15-.05-.19-.24.18Z" transform="translate(-109.8 -168.19)" disabled="disabled" style="pointer-events: none;"></path>
   <path name="XXXX" data-id="" id="path2987" class="cls-1" d="M141.2,173.54h-.12l-.25-.31h-.19l-.22-.15h-.28l0,.07-.3.16-.06.19-.17-.2-.2-.08-.13-.3-.14-.2,0-.11.14-.11.53-.59.38-.1.09-.14h.2l.28.15.49.53.22.52-.1.15.06.26-.12.12Zm1.39,3.88h-.11l-.17-.15-.2,0-.1.06-.22-.17-.12-.38-.2-.14,0-.23-.11-.06-.23,0-.38-.17,0-.12h.23l.15-.22.2-.11-.09-.07-.16.15h-.18l-.22.1-.2-.05-.13-.29-.15-.12-.12-.62-.34-.25-.49,0-.56-.5-.21-.32.13-.1.05-.14.22-.11.07-.07.14,0,.18.1.51.23.3,0,.19.16.32-.08.12-.21.18,0,.06.17-.11.13.06.06.1,0,.09.08h.15l.19.13-.14.14,0,.61.14.13.07.32-.08.29.22.11,0-.1.09-.08,0-.37-.22-.19v-1.21l.07-.05,0-.08.1,0,.07.1.18,0,.16.19V174l.42.42.45.28h.27l.29.27,0,.21-.05.09.14.1-.09.35-.49.46-.07.39.25,0v.14l-.47.22,0,.28Zm2.76,2.37-.2-.52.53-.36-.05-.39-.19-.13-.36.06-.13-.29.13-.13,0-.68.16-.55-.48-1.1-.35-.13-.18-.2-.42,0-.22.72-.22.14.06.7-.44.26-.11.29.6.4,0,.44-.44-.51-.95-.09-.4-.24-.19.16.19.28-.19.2.33.24-.18.4,0,.44-.11.4-.29-.49.11-.22,0-.48-.15-.18-.05-.44-.48-.4.15-.28-.18-.09-.22,0-.39-.57-.09-.91-.31-.39L139,175l-.49-.44-.29-.42-.26.18-.44.39-.1.28.16.4-.19,0-.23-.22-.28.34-.25.53,0,.28.4.08.1.1.23,0,.11.21-.48-.05-.57.28-.15,0,.26-.32-.6-.21-.25.16-.38.52,0,.91.72.48.11.77-.26-.31-.15-.44-.2.11-.14.36-.17.15.68.46.2.4v.26l.55.42.78.29-.23.09-.9-.4-.49-.22,0-.53-.69-.5-.11-.51.11-.27-.13-.15-.24,0-.25.66v.18l-.2.31h-.35l0,.29-.07-.31.51-.53-.13-.11-.71.77-.57.37,0,.53.51,0,.44.16.38.55.08-.38.14-.13.24.15-.35.42.24.16,0-.22.22-.22.07.41-.29.67,0,.24.27.31-.11.53-.22-.53-.67-.14.27-.26.26,0,.09-.33-.35-.48-.09-.18-.22-.33-.6,0-.17.24.15.15.4,0,.11.31-.29.33-.37.06-.09.29.4.07,0,.3-.25.18,0,.2-.09.09.18.28-.25.09,0,.23-.15.06.33.22.31-.06,0-.16.25.12-.09.23-.31.1,0,.17v.11l.38,0,.13-.11.12.11,0,.23-.16.13,0,.22.14.23-.07.31-.14.06-.35.26.15.22h.35l0,.1-.18.12,0,.18.13-.05.47.08V187l-.1.08.11.14h.28l.12-.28.3,0,.19-.14,0,.35.19.27,0,.37.5.23.43-.13.17.07v.16l.15.22h0l.39,0,.37.11.29.56,0,.58.6.38h.86l.38.11.09.19.14.08h.2l.14-.17.08-.21.6.22,0,.14-.13.14,0,.24-.22.06,0,.3.17.16.41,1.06.09.46.63.45.28-.11.22,0v.3l-.31.3v.45l.19.07.17-.22v-.29l.19-.23.24.07.37-.16.53,0,.1-.11-.42-.21h-.58l-.33-.4-.33-.91.11-.12-.13-.19-.08-.28.12-.17-.14-.28,0-.58-.09-.31.14-.18-.22-.17.23-.22v-.4l.82-1.18.32-.68.27-.25-.07-.72.36-.29,0-.23.22-.14v-.11l-.2-.2-.07-1.2.27-.81.16-.35.1-1m-2.68-4.56h-.26l0,.13-.09.07-.13-.1,0-.28-.23-.18h-.2l-.41-.43L140,176l.17-.11.09.17.52.27.23.22.4.15.15.28Z" transform="translate(-109.8 -168.19)" disabled="disabled" style="pointer-events: none;"></path>
   <path name="XXXX" data-id="" id="path2989" class="cls-1" d="M134.78,207.88l.17-.14h.1l.07.17.2,0-.06-.26.29-.12v-.29l-.14-.08-.18-.27,0-.06.17.11.16-.13-.13-.15h-.15l0-.41.11-.05v-.13h-.25l-.16-.15,0-.24.18,0,0-.37-.12-.2.09-.13.16,0,.1-.21-.14-.19.13-.12.17,0,.14-.2-.08-.19-.16,0,0-.12.24-.06.11.08.17-.07,0-.26.17-.12.08,0,.11-.16-.12-.23.2-.09.17-.67.14-.1.08-.59.13-.17v-.18l-.31-.19-.09-.11-.11,0v-.11l.15-.08.12.07.27,0-.05-.17,0-.35-.29-.24.07-.23.38-.15,0-.23.2-.16.17.35.08-.75.23-.88.22-.39.08-.58.32-.72,0-.52.16-.2.1-.55-.19-.19-.11-1.36.17-.57.22-1.2.64-1,.16-.44-.15-.09-.09-.19-.38-.11h-.86l-.6-.38,0-.58-.29-.56-.37-.11-.39,0-.09.2-.3.17,0,1,0,.26-.12.22h-.22l-.2.3v.26l-.2,0-.11-.13-.22,0L135,191l.09.18-.25.41-.49.27-.21.27-.27-.07-.16.23.16.35.46.15.06.35s-.21.19-.27.23,0,.28,0,.28l-.28.1-.25-.28-.4.13-.47.27-.59.07-.16-.08-.19.13,0,.27-.25.2-.23-.11-.17-.34-.45-.42-.3.1-.32.35,0,.24.52.55-.13.34h-.27l-.54-.7-.82-.54h-.21l.07.17-.11.5.13.18,0,.77.24.24V196l-.26,0-.66.49.31-.07.08.15-.11.23.45.59.11.59-.18.18-.35-.53.22-.26-.16-.09-.2.13-.11-.26-.7-.09-.11.15.13.44,0,1.08.71,1.28.53.22,1-.17.55-.31.27.26-.36,0-.73.36-.92.06-.16-.15h-.15v.42l.44.7.11,1.13-.13.77-.22.61.33.33.28,0,0-.31.33.24.2,0,.06-.77.53-.51,0-.4.06,0h.18l.07-.31.11.22v.38l1,.3.36.34.15.57.33.09.07.11-.13.11.17.19,0,.14.07.17-.18,0-.13.15.13,0,0,.24-.22,0-.22.22,0,.73.26.24,0,1,.38.66H133l.44-.41.22.08h.84Zm-8.47-13.27.17.13h.26l.17-.26.55-.09h.38l.41-.17.08-.23-.16-.32,0-.31,0-.05h-.22l-.1-.12-.06-.24h-.55l-.22.2-.42.28-.18.72v.18l-.09.15Zm.67,2.12-.19-.2,0-.32-.33-.79-.09-.13.08-.2h0l.1.2.16.1v-.47h.17l.4-.16.1-.19.52-.05.09.15.11-.12h.14v-.17l.1-.05.05-.19.13-.08,0,.45.08.11,0,.91.21.12.09.17h-.22l-.36.35h-.17l-.09.11-.1,0-.1-.12h-.13l-.09.26-.38.22-.11.21H127Z" transform="translate(-109.8 -168.19)" disabled="disabled" style="pointer-events: none;"></path>
   <path name="El Tabl칩n de Gomez" scale="3.8" move="10" data-id="741" id="path2993" class="cls-1" d="M218.05,238.14l-.44,0-.14-.16-.37.07,0,.26-.38.43h-.24l-.07-.31-.13-.18-.4,0s0-.29-.13-.31l-.34,0,0-.36-.58-.15-.66.26s-.07.18-.16.18-.38-.29-.38-.29l-.11-.24-.13-.18-.29-.75-.49-.38-.24-.37-.14-1-.15-.06-.65-.82-.77-.23-.34-.75H210l-.66-.31-.47-.13,0-.29.53-.34.54.12.67-.07.17-.46.12,0,.42,0,.13-.25.29-.13.58-.66,0-.36.16-.38,1.4-1.13.31-.33.6-.37,1.35.06.16.31,1.07.36.18-.05.06.12.34,0,.12.34L218,229l.17.16h.11l.12.2-.06.14h.44l.72-.34.23.21.19.86.28.8-.19.42-.34.53-.06.61.15.3-.12.46-.06.71.06.34-.23.47.08.52-.37.32-.16.37-.28.19,0,.25-.21.11-.05.11.1.23.15.27.25.12.09.35-.16.18-.16,0-.1.19-.37.32Z" transform="translate(-109.8 -168.19)" style="fill: rgb(210, 210, 230);"></path>
   <path name="XXXX" data-id="" id="path2995" class="cls-1" d="M189.66,257.67l-.37.45-.28,0-.25,0-.19.2-.15.26-.46.14-.21,0-.44.52,0,.31-.29.21h-.33l-.34-.27-.33-.2-.22-.38-.44-.3-.05-.19.22-.19,0-.45-.23-.25.18-.17-.07-.24L185,257l-.25-.31-.11-.22.61,0,.35-.2.73.14.68.34.39.1.24.19h.18l.3-.22.38,0,.25.13.38-.44h.3l.34.2.17.25,0,.18-.23.17-.05.31Z" transform="translate(-109.8 -168.19)" disabled="disabled" style="pointer-events: none;"></path>
   <path name="Bel칠n" scale="13.4" move="14" data-id="728" id="path6892" class="cls-1" d="M210.64,223.37l.27.32.51.17.48-.48-.15-.17-.81-.06-.27-.55.93-.14.44-.11h.81l.41.28.62-.15.12,0-.08.86-.32.9,0,.38-.37,0-.89.39-.22-.05-1.17.5-.46.15.12-.51-.44-.37.14-.27-.26-.34,0-1,.24.23Z" transform="translate(-109.8 -168.19)" style="fill: rgb(210, 210, 230);"></path>
   <path name="Col칩n" scale="9.2" move="17" data-id="730" id="path6894" class="cls-1" d="M210.29,223.34l.35,0,.27.32.51.17.48-.48-.15-.17-.81-.06-.27-.55.93-.14.44-.11h.82l.42-.09.83-.71,0-.16.45-.2.27-.54.24-.2-.48-.37-.62.14-.13,0-.06-.33-.44-.19-.66.49-.54-.21,0-.3-.48-.09-1,.47h-.36l-.27-.09-.45,0-.11.14-.13.57-.36.5-.08.29h.26l.09.64.78,1Z" transform="translate(-109.8 -168.19)" style="fill: rgb(210, 210, 230);"></path>
   <path name="XXXX" data-id="" id="path6937" class="cls-1" d="M159.42,178.17l-.28.25-.31.16-.16-.08-.13.3.16.39.13.12v.33l-.18.1-.23,0-.24.26v.49l.24.28v.76l-.1.13-.25-.13v.14l.21.16-.07.14-.14,0L158,182l0,.27-.15-.35,0-.12.15,0-.15-.21.07,0,.05-.26.1,0,.25.2,0-.2-.08-.17,0-.46-.19-.09,0-.16.09-.15.16-.5.21-.1.2-.11-.08-.31-.11-.45.16-.43.15.05.33,0,.27-.24-.09-.26-.35.14h-.27l-.24.14-.32.44-.07,0,.07-.25.58-.65.25-.07.07-.23-.32-.32-.26-.12,0-.53-.19-.51-.32-.25,0-.92-.21-.33-.05-1.15-.28-.44-.2,0-.19.09-.09.37-.37.27-.28,0-.18.16,0,.25.19-.11.32,0,.23.46.09.33-.2.37-.19.27,0-.64.14-.16-.07-.26-.48-.23-.21-.11-.12-.42.28-.23.23,0,.33-.27.16-.33-.23-.18-.1-.35,0-.23-.26-.25,0-.49.19-.27-.1-.35-.14-.09-.42.16h-.4l-.11,0-.25.13-.15.46.07,1.15-.09.36v.51l.2.39v1l-.14.25v.84l.05.51.49.77.13.6,0,.73-.15,0,0,.24-.2.09-.16-.6v-.2l-.11-.13-.06-.24.26,0,.11-.14-.15-.15-.29,0-.22-.24.06-.18.11,0,.14-.11.06-.22-.11-.09,0-.56-.11-.15,0-1.35L154.4,173l0-.71.15-.24-.13-.6.15-.51.22-.64.47-.48.11-.27-.2-.38-.29,0-.42,0-.22-.2-.24-.28-.09.22.15.17v.25l-.15.08-.07-.15,0-.18-.14-.13,0-.26-.14,0-.35.18-.89.22-.44,0-.42.11-.05.18.14.26.26,0,.14.24-.07.13.22.16,0,.17.11.07.18-.13.07.17v.4h-.2v.36l-.16.09v.17l.25.38.15.6.31.68.11,1.06.05.62.6.24.11.36-.23.25.16.3.4.18-.19.68.23.19-.15.18.17.61V178l.1.49.08.57.21.53v3.2l-.08.27.06.28,0,.89.06.57-.11.31-.18.21.17.88-.18.6-.06,1.74-.2.94-.3,3.17-.19.36.21,1.42-.33.41-.1.29.24.62-.14.43,0,.76.34-.15.11.09.55-.09.08-.17.26.19V197l.48.28.48-.08.3.14-.06.13-.16.06,0,.12-.14.07.24.1.39.08,0,.22h.24l.17.14.13-.09-.06-.16.23,0,.11.13.16-.14.19.3.29-.3.11,0,0,.15-.22.15,0,.17.14,0,.17.19.37,0,0,.23.09.19h.22l.14-.41-.07-.24-.33,0,.19-.15,0-.28.21.25.14,0,.15-.25.27-.08.2,0,.16-.08.28.11.08.47h.32l.26-.27v-.23h.18l-.05.35.11.15.2-.17,0-.28.12,0,.11.14.16.25.14-.25-.09-.17h.12l.18.25.34.05.14.2.15,0,.07.12.19,0,0,.14-.27.19,0,.11.22-.11.24-.05.27-.07.06-.24.17.1.28-.21.07-.52-.07-.11.13-.06.2,0,.16-.09-.08-.16.13-.14.11.14.33-.23-.06-.22-.18-.06.21-.15.14,0v.35l.09.2,0,.3-.11.09,0,.11.42-.05,0,.1L165,198l-.09.22.11.16.29-.21.13.05,0,.31.22-.07.26.15.37-.06v-.19h.24l.15-.06.52,0,.14.12.33,0,.13.26,0,.21.1.17.26,0,.16,0v.15l-.45,1,.15.27.42.41.15.07,0,.27.18.08-.15.3.34.26.42.14v.09l-.15.26.14.07.06.44.14.14-.06.25-.31.29.15.4.13.26v.22l.39.3h.19V205l-.2,0,0,.2.4.34.19,0,.53.47.11.34.28.11.19,0,.11.05.05.33.41.15.55-.08.76-.33h.4l.49-.08.39-.28.58-.07.69-.2.16.12.57.08a.89.89,0,0,1,.25.16l.44.08,1,.56.63.07.23-.08.55,0v-.2l.56-.61,0-.38.17-.17.06-.52-.11-.26.22-.11.46-.41.22-.11.15,0,.16-.11.35-.17.75,0,.77.26.3.33,1.76,1.18.25.2,1.3.39.32,0,.15.06.5-.15.24-.39.3-.63.23-.22.73-1.29.09-.21.46-.15.12-.15.28,0,.1.11.14.09.24.36.31.15.35-.07.14-.15.34-.08.19.14.8.09.24,0,.11-.15.41,0h0l.37-.33.47-.23.4.84.19.59.44.29.44,0,.22-.19.6-.06.47.11.58-.28-.1-.63-.07-.79.19-.78-.54-.64-.89-.5-.28-.24-.28-.49-.24-.26-.09-.33.3-.28.28-.63.13-.78.4-.38.08-.25.22-.08.27.12.7-.72.55-.28.27-.41-.09-.66-.2-.17,0-.65-.46,0-.28-.69v-.45l.45-.24,0-.65-.66-.49-.37-.64-.29-.4-.34.14-.05.25-.32.07L196,191h-.22l-.4-.26-.2-.09-.37.09-.53-.22-.4.07-.34-.11-.15-.12-.82.08-.21.22-.2,0-.46.36-.06.46-.38.25-.42,0-.27.27-.25.06-.09.11-.59.37h-.31l-.1-.12-1.36.25-.19-.13-.23,0-.6.4-.43-.19-.59,0-.19-.22-.33,0-.18.27-.44.21-.27.3-.37.1-.51-.1-.17.14-.44,0-.89.57-.08.54.23,1,.27.94.22.11,0,.22-.19.09-.05.13.3.11.17.23-.22.28.07.43.28-.07.12-.15.24.09-.16.45.29.11-.16.18.12.11,0,.12.06.36.23.17-.14.1v.14l-.11.09.23.16.07.19.12.11,0,.47.15.16.3.18v.2l-.72,0-.06-.08-.48-.08h-.62l-.14-.25-.14,0-.43.34-.07.19-.36,0-.05.14-.27-.14-.26-.11-.25.12v.24l-.14.23-.3.17,0,.45-.61.75-.36,0,0,.12-.27,0-.24-.31-.21,0-.14.11-1.16-.06-.26-.19h-.32l-1.09-.66-.75-.67-.24,0-.3-.24-.11-.16-.32-.14-.21,0,0-.16-.33-.23-.21-.3-.12.08,0,.11h-.21l0-.11-.45-.11v-.11l-.08,0-.22.19-.24-.11-.33-.47v-.51l-.62-1-.66-.66-1.54-.89-1-.15-.5-.27-.26-.57,0-.34-.61-.72-.16-.12,0-.16L166,194v-.33l.39-.32.17-.06V193l-.14-.13v-.08l.25-.19v-.1l-.26-.09.14-.27L167,192l.22-.31-.11-.57-.3-.31-.1-.7-1.08-1.1-.12-.22-.22-1.05-.77-1.55-1.22-.9-1.54-.45-.67-1-.08-.69-.2-.19,0-.67-.1-.16v-.18l.33-.14v-.13l-.14-.24.1-.47-.39-.28-.5-.12v-1l.2-.14.09-.37-.32-.27-.4-.06v-.42l-.18-.31ZM155.27,169l-.22-.24h-.19l0,.07h-.66l-.15-.25-.17,0,0-.11.37-.12h.59l.1.09.48.24.11.24V169Z" transform="translate(-109.8 -168.19)" disabled="disabled" style="pointer-events: none;"></path>
   <path name="XXXX" data-id="" id="path6953" class="cls-1" d="M184,201l.3.17v.21l-.72,0-.06-.08-.48-.08h-.62l-.14-.25-.14,0-.43.33-.07.2-.36,0-.05.14-.27-.14-.26-.11-.25.12v.24l-.14.23-.3.17,0,.45-.61.75-.36,0,0,.12-.27,0-.24-.31-.21,0-.14.11-1.16-.06-.26-.19h-.32l-1.09-.66-.75-.67-.24,0-.3-.24-.11-.16-.32-.15-.21,0,0-.16-.33-.23-.21-.3-.12.08,0,.11h-.21l0-.11-.45-.11v-.11l-.08,0-.22.2-.24-.12-.33-.46v-.51l-.62-1-.66-.66-1.54-.89-1-.15-.5-.27-.26-.57,0-.34-.61-.72-.16-.12,0-.16L166,194v-.33l.39-.32.17-.06V193l-.14-.13v-.08l.25-.19v-.1l-.26-.09.14-.27L167,192l.22-.31-.11-.57-.3-.31-.1-.7-1.08-1.1-.12-.22-.22-1.05-.77-1.55-1.22-.9-1.54-.45-.67-1-.08-.69-.2-.19,0-.67-.1-.16v-.18l.33-.15v-.12l-.14-.24.1-.47-.39-.28-.5-.12v-1l.2-.14.09-.37-.32-.27-.4-.06v-.42l-.18-.3.06-.24-.19-.2.08-.12-.07-.16h-.25l-.26-.27,0-.88-.14-.28-.28-.14-.18-.27-.07-.44,0-1.2-.23-.72-.21-.23-.05-.3,0-.18-.3-.28H157l-.28-.3-.07-.28.14-.16.19-.48.07-.14-.21-.23,0-.22L157,170l.33,0,.18.15.33.11h.35l.14.14,0,.13-.33-.05-.07.11.11.07.22.31v.2l.34.16-.07.2-.16.11.07.13.22-.13.18,0,.25.44.46.47.18.37-.11.31-.53.36-.14.38.2.48.56.51.42.09.07.27.46.46.31,0,.14-.31h.2l.44.31h.18l.38.24.24.35.6.51h.24l.16-.06,0-.2.2-.16.17.09.27,0-.29-.13h-.22l-.22.15h-.22l-.29-.26-.58-.58-.42-.16-.29-.17-.24-.05-.29.09-.34,0-.31-.22-.09-.33.14-.24.44-.36.25-.27v-.42l-.12-.4-.13-.15h-.33l-.36-.16-.2-.13-.06-.44-.12-.27-.17-.29,0-.2.07-.2,0-.22.24-.29.31-.82.16-.46.29-.16.07-.13.31,0,.2.13-.11.15-.27.07-.11.13.15.2.34.05.11.18,0,.66.22.27,0,.33-.38.42.35-.22.16-.18.11-.35-.09-.74-.27-.37v-.29l.2-.13.18-.07h.31l.05-.15.17-.16h.18l.18-.11,0-.13.15-.16.45-.2.15,0,.29.31.4.22,0,.16-.27.15-.35.05-.11.2.15.13.16-.2H164l.44.48h.31l.16.24.28.14.08.3.27.25.13.46.42.4.09.39-.3.16-.3-.07-.14.26v.28l.19.2.17.22-.36.27-.3.1v.09h.35l.22-.13.28.08.13-.26-.19-.35-.4-.24,0-.3.31,0,.29,0,.18-.22V172l-.18-.21-.37-.55v-.42l.25-.14.23-.3.7.67v.47l.42.39.57,1.78.3.48.23,1.54-.31.61.23,1.53L169,179l.37.27.06.21-.14.34.25.71-.06.17.26.57-.15.5.34.51.83.62,0,.53.25.86.65.67,0,.34.26.56-.23.54.34.55.07.37.2.22.07.45.36.28.15.44.49.61.35.09.05.8v.15l.12.63.22.39.4,0,.38.37.57.7.58-.07,1.08.27.43.48.61.27.1.57.54,0,1.11.4.58.24.43,0,.68-.44H182l-.07.54.23,1,.27.94.22.11,0,.22-.19.09-.05.12.3.11.17.24-.22.28.07.42.28-.06.12-.15.24.09-.16.45.29.11-.16.18.12.11,0,.12.06.36.24.17-.15.1v.14l-.11.09.23.16.07.19.12.11,0,.47Zm-23.46-26.67-.44.21h-.25l-.11-.19-.58-.39v-.17l.21-.08.26-.22.24-.06.13-.3.15-.11.15.13.49.1.15.13.07.56-.15.07-.05.21Z" transform="translate(-109.8 -168.19)" disabled="disabled" style="pointer-events: none;"></path>
   <path name="XXXX" data-id="" id="path7017" class="cls-1" d="M153.37,197l-.32.26.09.24.34-.05.16.13.06.19-.33,0,.06.31,0,.66-.27,0v.15l.22.22v.23l.42.15.07.4-.38.22h-.22l-.18.11.09.31-.29.45-.22.08-.28,0-.3-.26-.36-.62.15-.32V199l.19-.17v-.22l-.24-.19-.09-.45.16-.16H152l.16-.33-.21-.07-.12-.31.24-.37.14,0v-.17l-.17,0,0-.51-.26-.08.07-.85-.15-.13,0-.64-.19-.1-.1-.15.26-.11v-.2l-.16-.16-.12,0-.15-.7.17-.15,0-.25.17-.11,0-.37-.24-.15v-.27l.25-.19.22,0,.14-.28,0-1-.32-1.48-.24-.14,0-.09.16,0v-.27l-.16-.23.11-.46.31-.09.27-.42-.47-.73.09-.43.24-.17.12-.48-.29-.29-.23-.29,0-.29-.14-.43-.19-.2-.08-.31.15-.1.19-.51.22-.4.2-.93.22-.24.17-.61.13-.14,0-.22-.37-.25-.07-.31.16,0,.13.06.18-.16-.16-.25-.14,0-.11-.29H152l-.11.34-.22-.19s-.23-.18-.23-.18l-.08.08-.05.33-.2,0-.18-.28h-.09l-.16.15-.26,0-.13-.25v-.67l-.14-.57,0-.4-.19-.19,0-.13.16-.24-.36,0-.12-.32-.29-.17.14-.19h.31l.08-.38.41-.28.2.07.12-.34-.43-.6-.1-1,.66-1.2.2,0,.14.14.37,0,.1.12.29,0,.35.38.2.33v.22l.18.07.11.28,0,.16.17.2,0,.24-.11.11-.07.29,0,.37-.18.54,0,.46,0,.57-.31.25.09.18h.15l.2.08,0,.16.14.15.22,0,0-.11-.27-.29,0-.38.06-.77.38-.82,0-.42.61.24.11.36-.23.25.16.3.4.18-.19.68.23.19-.15.18.17.61V178l.1.49.08.57.21.53v3.2l-.08.27.06.28,0,.89.06.57-.11.31-.18.21.17.88-.18.6-.06,1.74-.2.94-.3,3.17-.19.36.21,1.42-.33.41-.1.29.24.62-.14.43Zm-5.59-27.37-.41-.06-.38-.37h-.16l-.24.34.06.77.38.89.51.78,0,.49.08.1H148l.1.1h.17l0-.56.3-.26h.21l.18.3.11-.06,0-.24.36-.15.14-.17.36-.08.13-.21-.25-.21-.09-1.45.23-.25.05-.23-.22-.06-.15-.13-.34,0-.14.12h-.38l-.66.56-.32.06Zm1.66,5.92.35-.18.08-.22.29-.06.1-.15-.29-.36-.25-.85v-.45l.14-.08.25-.48.32-.41.14-.39.21-.18-.19-.34-.26-.19-.11-.22h-.1l0,.53-.29.38h-.55l-.23.32,0,.18h-.24l-.13-.28-.2,0-.09.44.2.3.11.63-.08.37.12.16.31,0,.07.7.08.06.2,0,0,.18-.22.12-.06.14.22.1.07.12Z" transform="translate(-109.8 -168.19)" disabled="disabled" style="pointer-events: none;"></path>
   <path name="XXXX" data-id="" id="path7012" class="cls-1" d="M151.55,201h-.27l-.2,0-.17,0-.57.22-.42,0-.41-.12-.49.14-.12.44-.29,0-.34-.18-.62-.07-.22-.22,0-.48.2-.38-.45-.13-.27.15-.5.05-.26-.44.31-.4-.39-.11-.46.23-.25-.29v-.36l.3-.31-.36-.37h-.51l-.14-.09.06-.18.1,0,0,.07.13-.05v-.12l-.09-.1.18-.18-.18-.13,0-.23.29-.05L145,197l-.33-.06-.21,0h-.18l-.23-.13,0-.21,0-.24-.26-.15-.27,0h-.16l-.2-.16.12-.35.11,0-.05-.17-.14-.12h-.25l-.23-.12.1-.28.47.12v-.23l.08,0-.06-.12-.18,0-.14-.18v-.23l-.13,0,.12-.12-.11-.31h-.18l.07-.14v-.12l.37-.15.53,0,.1-.11-.42-.21h-.58l-.33-.4-.33-.91.11-.12-.13-.19-.08-.28.12-.17-.14-.28,0-.58-.09-.31.14-.18-.22-.17.23-.22v-.4l.82-1.18.32-.68.27-.25-.07-.72.36-.28,0-.24.22-.14v-.11l-.2-.2-.07-1.2.27-.81.16-.35.1-1,.3-.79.29-.14.24-.4,0-.29.32-.33.11-.42.27-.05.15-.59-.1-.71-.26.09-.22-.17,0-.19.11,0-.05-.38.18-.27-.08-.79-.4-.64-.46-.2v-.11l-.24,0,0-.23.19-.06,0-.16-.38.07V175l-.7-.18-.63-.6-.15-.88-.55-.94-.12-.26-.2-.1,0-.08.17-.06,0-.25,1.23-1.1.29-.06.07-.11,1.28-.52.45-.05.14.14-.07.29h-.1l-.08.32-.42.34v.46l-.41.11-.16.18-.21,0-.06.11.33.06.37-.2.24,0,.12-.15h.19l0,.66.3.28,0,.48-.33.1-.13.11-.16,0v.22l.17,0,.16-.11.4.06.38,1.25,0,.59-.23.1.23.34.52.12-.1.2-.23.09-.05,1,.13.24-.09.08.23,0,.55.58,0,.52-.11.12.08.41.11.08,0,.22-.09,0-.13.34-.14.09.14.26,0,.67-.38.24-.43-.28-.2-.39-.1.14.22.29.41.45v.43l-.12.05-.08.19.27.09-.11.15-.22,0-.26.18h-.2l.05.27h.18l.5.31.09.52.18.12.1.75-.14.3.09.14.12,0v-.12l.24-.32-.13-.39-.19-.37-.07-.77-.13-.07-.19.14-.41-.31.18-.15h.27l.24-.09.11-.36,0-.36-.21-.2.08-.21.3.06.26.63.32.12.28-.23-.11-.44h-.08l-.16.27h-.18l-.21-.43,0-1.2.24-.35,0-.76.13-.18-.11-.52-.42-.31-.32-.43,0-.91,0-.17.43,0-.06.43.09.33.35-.36,0-.27-.23-1-.71-1.16-.14-.65-.09-.07.09-.19.26,0,.22.46.4.34.22.74.16.71.56.47.44.34.1.58h.15l0-.39h.27l.31.59.51.73.15,0,.14.56v.67l.13.25.26,0,.16-.15h.09l.18.28.2,0,.05-.33.08-.08s.23.14.23.18l.22.19L152,179h.14l.11.29.14,0,.16.25-.18.16-.13-.06-.16,0,.07.31.37.25,0,.22-.13.14-.17.61-.22.24-.2.93-.22.4-.19.51-.15.1.08.31.19.2.14.43,0,.29.23.29.29.29-.12.48-.24.17-.09.43.47.73-.27.42-.31.09-.11.46.16.23v.27l-.16,0,0,.09.24.14.32,1.48,0,1-.14.28-.22,0-.25.19v.27l.24.15,0,.37-.17.11,0,.25-.17.15.15.7.12,0,.16.16v.2l-.26.11.1.15.19.1,0,.64.15.13-.07.85.27.08-.05.51.17,0v.17l-.13,0-.25.37.12.31.21.07-.16.33h-.14l-.16.16.09.45.24.19v.22l-.19.17v.88l-.15.32.36.62Zm-4.81-28.5-.1.1-.18,0v-.23l-.16-.2,0-.2.08,0,.06.11.26.1.1.23Zm0,2.76-.1.05-.2-.06-.2,0,0-.15.15-.12v-.27l.08-.06.11.15.06.13.22.13.05.14Zm1.13-1,.12-.08.1-.32.17-.21,0-.25h-.33l-.2-.1-.25.1v.28l.25.16,0,.27Zm.51,1.23-.32-.26-.12-.74.14-.1.06-.15.3,0v.24l-.1.11v.36l.11.15.11.28Zm.34-.57-.18-.16v-.4l.13-.19.18.14-.11.11Zm.37,1-.16-.07,0-.21-.11,0-.05-.29.2-.12.13,0,0,.13.26.29v.19Z" transform="translate(-109.8 -168.19)" disabled="disabled" style="pointer-events: none;"></path>
   <path name="XXXX" data-id="" id="path7024" class="cls-1" d="M157.8,216.34l1,.16.69-.33,0-.25.6-.26.47-.09.57-.31,1.31-.07.6.11,1.27-.13.84-.24.47-.07.47-.47.26-.4.49-.17.16-.31.82-.45.89-.28.71-.43.49-.06.62,0,.51-.34.26-.53.69-.33.87-.22.25-.13,0,.33-.22.19v.27l-.41.42,0,.25-.16.22-.12-.13-.26.16,0,.36-.36.05-.16.12-.14-.26-.84,0-.22.17-.94.08-.47.27h-.31l-.27.27v.17l.17,0,.22.22-.08.2.13.55.14.11-.06.31-.22,0,0-.13-.19.11v.22l.16.2-.08.1h-.54l0,.12.13.24-.16.2-.28-.08-.17.29-.21-.07-.27.21v.22l-.15.15.06.27-.06.71-.11.06-.1.2h-.39l-.19-.2-.22-.14,0-.13-.19-.08-.42.1-.11.17h-.14l-.07.19-.11.11,0,.25.25.12,0,.25.34,0,.32.47,0,.41.55.06.13-.16.27-.14.31.25,0,.27.35.42.48.24.29,0,.12.19,0,.27.19.23.14.47-.06.14.14.14.25,0,.05-.13.19.22v.13h.27l.17-.22.11,0,.17.22h.13l.15-.11.15.09,0,.57.18.13.07.36.31.13.26-.13,0-.18.24,0,0,.28.12.36-.35-.09-.26,0V224l.2.36-.18.2h-.36l-.15.2.24.26,0,.31.66-.09.18.18-.18.16-.33,0-.13.29-.32.15v.2l.27,0-.09.23-.26,0-.2.29.17.15-.15.13.09.47-.51-.11-.11-.27-.32.22v.25l-.33.09-.18.4-.2.08.1.35h0l-.05.47-.25.26-.22.54,0,.56-.12.55-.11.11.16.14V232l-.44.48-.36.11-.26.24.05.18-.25-.12h-.27l-.11.17-.14-.22h-.16l-.28-.2-.36.23-.51-.44-.85-.1-.25-.13-.09-.24-.14,0-.05.09-.19,0-.09.18-.16-.14-.08-.22-.17-.07,0,0-.14,0-.11.2h-.24l-.19-.17,0,.41.11.25-.15.09,0,.19h-.13l-.11-.33-.14-.05-.09.11,0,.1-.26.08-.11-.08-.13.08,0,.23-.36.17-.07.24.21.22-.14.16-.22-.08-.18.11,0,.14-.24.28-.22.11.07.2h.36l.14.35.06.58-.14.12.21.25-.24.83,0,.62.11.48-.09.55.17.6.44.48,0,.24-.08.07-.14.44-.73.22-1.12.35-.28.28-.55.05-.16-.16v-.16l-.44-.09-.23,0,.12.14,0,.12h-.08l.13.44.17,0,.09.14-.07.09h-.19v.11l-.14.08v.27h-.1l-.05-.16-.17,0v-.17l-.22.06.08.09-.13.16-.18-.12-.12.09,0,.32.31.11.34,0,.1.24-.1.09-.05.26-.18.1-.06.07.16.11.07.21-.42.23-.14.29.19.11-.25.35-9.38,1.84.11-1-.3-.15-.22,0-.43-.52.07-.43-.24-.17H146l-.13-.13-.09.24v.26l-.32.15h-.11l-.09.3h-.15l-.19-.19h-.44l-.3.36h-.56l-.54.24,0,.47-.82.48-.34,0-.07-.17-.13,0v-.29l-.56.11-.11.24-.19.18.41.32h-.33l-.15.44h-.47l-.2-.39-.24-.43v-.32l.3-.31-.13-.18L140,245l.22-.1.17.22h.22l-.09-.36-.27-.18,0-.39L140,244l-.18.06.09.36-.2.15-.27-.12-.17,0,0,.2-.82.19-.36-.33,0-.29-.15-.11-.44.47-.36-.16.22-.17-.22-.21,1.38-7-.08-.34.13-.13.19,0,.08-.23-.3,0-.1-.12.22-.22,0-.22-.28-.19.23-.11-.09-.34h.31l.13-.17,0-.22.11,0,.28.13.18-.21h.12l.13.14.19.06,0-.23.18-.07.15.08h.25v-.33l.26-.14.07.13.08-.08.33-.11.16-.25.09,0,.18.13.09-.24H142l.13-.31.09,0,.11.17.19-.13.19,0,.38.33.25-.08-.19-.3-.21,0v-.14l.19-.11-.06-.2.35.14.12-.25,0-.16.2-.15.18.15-.11.35.22.2,0-.17.08,0,.07-.21.1,0,.16.32.07-.18.16-.11-.2-.23.11-.11.2.28.17,0,.22-.11.27,0,.33.36-.25.11-.06.21.34,0,.05.11-.13.13.11.07H146l.08.05-.06.11.09.25.28,0,.15.11-.07.1.18.19.31.09.08-.09.33.18.09.1.22.05.08.11-.13.1.05.22.24,0,.08.06.17.16.16-.1.28.07-.08-.18.19-.11.2.1v-.24l.19-.11-.21-.17,0-.47-.17-.13.2-.07.1-.25-.16-.13-.15-.54.14-.14.2-.59-.06-.17L149,231l.08-.49,0-1.15v-1.18l0-.68-.13-1-.09-.59.2-.52.16-.41.06-.14v-.14l.13-.47,0-1.39-.1-.52-.14-.14.11-.25-.13-.14.3-.36h.1l.28-.24V221l.17-.32,0-.33h.11l.25-.23h.24l.34-.42v-.31l-.15-.27,0-.27-.16-.09-.17-.56-.24-.07-.08-.28h.29l.15-.22v-.24l.22,0,.11-.16-.22-.08.21-.21,0-.29-.12-.15-.05-.19-.23.17-.25-.16L151,216l.27-.4.3-.29.21.13,0,.32-.12.07,0,.72.64.77v.59l.17.11.83,0,.48-.58.17-.07.09.16h.29l.52-.85.63-.24.19.32.59.15.57-.21.37-.3Z" transform="translate(-109.8 -168.19)" disabled="disabled" style="pointer-events: none;"></path>
   <path name="XXXX" data-id="" id="path7026" class="cls-1" d="M157.8,216.34l1,.16.69-.33,0-.25.6-.26.47-.09.57-.31,1.31-.07.6.11,1.27-.13.84-.24.47-.07.47-.47.26-.4.49-.17.16-.31.82-.45.89-.28.71-.43.49-.06.62,0,.51-.34.26-.53.69-.33.87-.22.25-.13h0l.5-.21h.47l.64.16,1.05.6.2,0,.78.4.17.38.69.24-.07-.4,0-.22.17-.09.14-.51-.16-.4.27-.62.22-.06.33-.36.25-.09.09.18.35-.33,0-.47-.24-.42-.4-.22-.13-.36.42-.57.09-.31-.6-.07-1-.56-.44-.08a.89.89,0,0,0-.25-.16l-.57-.08L176,206l-.69.2-.58.07-.39.28-.49.08h-.4l-.76.33-.55.08-.41-.15-.05-.33-.11-.05-.19,0-.28-.11-.11-.34-.53-.47-.19,0-.39-.34,0-.2.2,0v-.27h-.18l-.4-.3v-.22l-.13-.26-.15-.4.31-.29.06-.25-.14-.14-.06-.44-.14-.08.15-.25V202l-.42-.14-.34-.26.15-.31-.18-.07,0-.27-.15-.07-.42-.41-.15-.27.45-1v-.14l-.16,0-.26,0-.1-.17,0-.21-.13-.26-.33,0-.14-.12-.52,0-.15.06h-.24v.19l-.37.06-.26-.15-.22.07,0-.31-.13-.05-.29.21-.11-.16L165,198l.19-.09,0-.1-.42.05,0-.11.11-.09,0-.3-.09-.21v-.34l-.14,0-.21.15.18.06.06.22-.33.23-.11-.14-.13.14.08.16-.16.09-.2,0-.13.06.07.11-.07.52-.28.21-.17-.1-.06.24-.27.07-.24.05-.22.11,0-.11.27-.19,0-.14-.19,0-.07-.12-.15,0-.14-.2-.34-.05-.18-.25h-.12l.09.17-.14.25-.16-.25-.11-.14-.12,0,0,.28-.2.17-.11-.15.05-.35h-.18v.23l-.26.27H160l-.08-.47-.28-.11-.16.08-.2,0-.27.08-.15.25-.14,0-.21-.25,0,.28-.19.15.33,0,.07.24-.14.41h-.22l-.09-.19,0-.23-.37,0-.17-.19-.14,0,0-.18.22-.14,0-.15-.11,0-.29.3-.19-.3-.16.14L157,198l-.23,0,.06.16-.13.09-.17-.14h-.24l0-.22-.39-.08-.24-.1.14-.07,0-.12.16-.06.06-.13-.3-.14-.48.08-.47-.28v-.11l-.27-.19-.08.17-.55.09-.11-.09-.34.16-.32.26.09.24.34-.05.16.13.06.19-.33,0,.06.31,0,.66-.27,0v.15l.22.22v.22l.42.16.07.4-.38.22h-.22l-.18.11.09.31-.29.44-.22.09-.28,0-.3-.26-.5.19h-.27l-.2,0-.17,0-.57.22-.42,0-.41-.12-.49.14-.12.45.15.2-.47.58v.72l-.13.18.36.5.2.2,0,.38-.2.28-.16.68-.16.3-.15.09v.28l.08.21.15,0s-.12.18-.19.26-.09,0-.09,0l-.11.2.09.1-.12.13.15.14,0,.22-.1,0-.17-.06-.09,0,0,.18.12.1.21.44.09.11-.15.06.06.13.22.1.23.59v.36l-.24.06.07.21.12.16-.11.23.08.42.33-.09.05-.07.31,0-.05.3L149,211l.05.09.26.1-.18.22h-.11l-.18.18-.1.4.16.11.1.24.25.06-.17.1-.13.05.12.63.21.28.26.2v.26l.07.12-.13.32-.16.12.09.26.14.1,0,.31-.06.21.3.18.34.44.14.39L151,216l.28-.41.28-.27.21.12,0,.32-.12.07,0,.72.64.77v.59l.17.11.83,0,.48-.58.17-.07.09.16h.29l.52-.85.63-.24.19.32.59.15.57-.21.37-.3Z" transform="translate(-109.8 -168.19)" disabled="disabled" style="pointer-events: none;"></path>

</svg>