<svg data-id="" id="Capa_1" data-name="Capa 1" xmlns="http://www.w3.org/2000/svg" viewBox="0 0 88.41 134.17">
   <defs>
      <style>.cls-1{fill: #ebebef;;stroke:#fff;stroke-miterlimit:3.86;stroke-width:0.25px;}</style>
   </defs>
   <path name="La Playa" scale="4.5" move="10" data-id="805" id="path2793-6" class="cls-1" d="M176,200.8l.09.24.39,0,.31.18,0,.34.28.17V202h.25l.13-.08.39.07.48-.37.29,0,.13-.16.38-.14.2.07.47-.14V201l.11,0-.1-.16-.25-.08.1-.14.2,0,.16-.14.29.06-.06.18-.08,0,.11.11.18-.09v-.24l.35-.21.17.17.33-.34-.12-.14.21-.15.05-.32.27-.11.18.11-.09.24h.26l.21-.27v-.12l.09-.05.2.16.18-.26,0-.28h.17l.06.09.46-.07.11.16.33-.33H184l.07.09h.42l.42.12.16.19,1,.6v.41l.23.27h.31l.17-.19,0-.19-.15-.09.07-.16.52-.45.21,0,0-.2.13-.18.29,0,.15-.28h.21l.08-.25-.08-.09h-.16v-.22l-.1-.1.21,0,.13-.17,0-.27-.17-.09.06-.16-.05-.13-.12,0-.11-.27v-.35l-.22-.15.06-.48.1-.13.06-.3-.46.25-.45,0-.93.52-.12,1.11-.56.44a1.37,1.37,0,0,1-.29,0l-.23.1-.92-.25-.57-.5V197h-.2l-.1.07-.37-.41-.26-.07,0-.18-.11-.16.1-.07v-.29l.17-.08,0-.14h-.11l0-.71-.23-.22-.15.17v.2h-.19l0-.1h-.26l-.3-.23.07-.09-.18-.24h-.3l.14-.36h.28l0-.13.23.11.21-.3-.31-.32h-.28l-.26-.3.25-.29,0-.17-.07,0v-.08l.12-.13,0-.11-.18-.12.19-.14,0-.07-.16-.16,0-.27-.13-.05,0-.54-.4,0-.06-.05-.21.09v.46l-.42.54.24.67.22.29,0,.58-.12.07-.07.24-.23-.18-.07-.53-.88-.34-.11-.14-.94-.2,0-.08h-.19l-.6.6-.28,0,0,.27-.18.06-.09.25h-.13l-.06-.05-.29.11v.09l-.09,0,.17.09,0,.36h.08l.11-.11h.08l0,.12h.11l.28-.34.64.18.08.18-.19.19v.2l.13.1-.09.26-.23.13v.39l.23.22-.06.23s-.2.14-.2.14l-.09.19.08.08v.53l-.37.23h-.24l-.11.19H176l-.13.27.17.37h.23l.24.12.14.52.13.18-.1.47h-.09l-.24.34,0,.24-.34,0V200l.11.1v.06l-.15,0v.25l0,.4Z" transform="translate(-155.2 -139.87)" style="fill: rgb(210, 210, 230);"></path>
   <path name="Hacarí" scale="4.2" move="15" data-id="801" id="path2795-6" class="cls-1" d="M191.48,195.64l-.24-.14-1.18-.06-.37.14v.14l-.31.29-.19-.12-.41,0-.16.05-.29-.09,0-.15-.22,0-.14-.21-.46.25-.45,0-.93.52-.12,1.11-.56.44a1.37,1.37,0,0,1-.29,0l-.23.1-.92-.25-.57-.5V197h-.2l-.1.07-.37-.41-.26-.07,0-.18-.11-.16.1-.07v-.29l.17-.08,0-.14h-.11l0-.71-.23-.22-.15.17v.2h-.19l0-.1h-.26l-.3-.23.07-.09-.18-.24h-.3l.14-.36h.28l0-.13.23.11.21-.3-.31-.32h-.28l-.26-.3.25-.29,0-.17-.07,0v-.08l.12-.13,0-.11-.18-.12.19-.14,0-.07-.17-.16,0-.27-.13-.05,0-.56.36-.22,0-.27.25-.26,0-.14-.13-.08v-.44l-.16-.21.08-.18-.08-.46-.35-.07,0-.11.41-.05.4-.7.32-.5.63.06,0,.11.52-.2.48.1.19.33h.32l.25.25.38,0,.39.25.45-.23.16-.36.23-.3V187l-.11-.15.19-.3.14-.17v-.23l.31,0,.22-.32v-.2l.16-.24.4-.2.3-.51.13,0,.52-.42.23,0,.1.24.56.1.15.23.3.11.59.5.09.34-.09.38.3.43.66.44.35,0,.14.21v.27l.39.68.35.09.06.18-.24.17h-.2l-.11-.13h-.16l-.33.31V189l.13.08,0,.2-.15.08-.29.39.18.2-.15.29.3.59.39.27.26.41-.17.15,0,.44.35.55.22.15-.1.18.11.21-.13.26-.14.1-.12,0-.05.33-.19.19.21.36.23.15v.31l-.12,0-.29,0-.33.25,0,.24-.08.25-.1,0Z" transform="translate(-155.2 -139.87)" style="fill: rgb(210, 210, 230);"></path>
   <path name="Sardinata" scale="2.4" move="10" data-id="818" id="path2799-8" class="cls-1" d="M202.1,211.16h.68l.1.16.52,0,.1.22.26-.13v-.34l.22-.53.38-.09h.21l.31-.16.29-.56,0-.26.19-.06,0-.18-.22-.12v-.08l.31,0,1.07-1,.32-.65.4-1.28.08-.08v-.47l.24-.41a.14.14,0,0,0,.21,0c.09-.13.22-.29.22-.29l.16-.51v-.42l.34-.39.54.06.21-.23h.49l.08-.26.26-.05.35-.4.06-.69-.1-.1.15-.31-.23-.27-.31.14-.19,0,0-.23.12-.13.06-.28-.21-.11.2-.13.05-.67.27-.3V199l.25,0,.55-.05.28-.17.34-.05.39-.17h.15l.05.13h.33l0-.24.1-.38.38-.14.09-.34,0-.48-.42-.31-.36.07-.44-.36,0-.08h.21l0-.16-.16-.13.08-.2.12.11.44-.09,0-.23-.13-.07.35-.23-.24-.25V195l-.12-.06v-.18l.25,0,.21-.25-.15-.1-.13-.55.18-.06.08-.23-.15-.11-.3.1,0,.19-.14,0-.09-.1-.15.07-.26.32c-.05.07-.18,0-.18,0l-.07-.16-.16.1-.1.28-.31-.05v-.08l-.11-.12-.2.05-.16-.05-.15.2.09.32-.15.36-.44.07-.18-.28-.29-.07,0-.17h-.26l-.13.14-.23.15-.07.57-.29.15-.18-.13-.18,0s-.24.24-.24.31a1.91,1.91,0,0,0,.06.27l-.1.23h-.19l-.1-.21-.33-.08v-.15l-.3.25,0,.26-.17.19h-.08l-.4.22,0,.42-.16.24h-.19l-.17-.27-.11-.26-.32-.18-.25,0-.13-.11.09-.06v-.06l-.22-.23.11-.31,0-.23.18-.09.06-.23-.06-.18,0-.15.12,0,.18-.24.41-.12,0,.1h.29l.07.11.25,0,0-.12.21-.08.08-.09-.26-.08-.11-.18.16,0,.21-.11H207l.08-.17h-.24l-.12-.1-.18,0-.18-.14.2-.06,0-.13-.08-.18-.25-.12,0-.15.15-.05,0-.09h.14l.22.11v-.24l.16-.06.2-.29.21-.06.15.07h.21l.34-.26.69,0,.11.12.15,0,.05-.2.46,0,.29-.15.05-.22.56-.34.22,0,.1-.27.31-.08.1-.12.11,0,0,.07.24,0,.27.27h.12l0-.19.2-.28v-.18l.2-.19.17,0,.07-.09-.21-.11,0-.26.17-.13.21-.36.32,0,.07-.12h.13l.07-.15-.15,0-.23-.43-.14.08-.07,0h-.15l-.06-.14.17,0,.11-.17v-.17l-.16,0V188l.16-.08v-.16a.53.53,0,0,1-.2-.09,2.24,2.24,0,0,1-.09-.3l-.1,0-.09.11-.14,0-.15-.21.15-.06.08-.18-.2-.15,0-.19-.14,0-.08-.25-.21.3,0,.14-.29.43-.19,0-.16.09v.18l-.2.07-.13.22.17.08-.13.08,0,.3-.24.08-.27-.09-.25,0-.24.18-.62-.57v-.22l-.35-.15-.19.21-.2-.06,0-.19-.4-.18-.15-.28-.21-.05-.15.25-.4.22-.25-.2-.49.19,0,.14-.41.23h-.36l-.88.44-.26-.21,0-.16-.3-.1h-.53l-.37-.37-.36,0-.41.25-.07.18h-.76l0-.1-.12,0-.23.2H201l-.24.26-.16,0-.07-.1h-.3l.08.19-.19.11-.26-.07,0-.16-.42-.1-.19-.27.06-.22-.22-.38-.25.1-.28-.24-.13,0-.67.09-.26.06-.47,0-.16-.42.19-.13v-.24l.22,0,.06-.19-.21,0S197,186,197,186a2,2,0,0,0-.33-.06v-.43l.22-.26.15-.33-.13-.18.33-.36h.07l.1-.23,0-.17.11,0v-.22l-.33-.11-.11-.48-.34,0,0-.37-.62-.26-.28.19-.33-.06-.07.24-.35.07-.09-.2-.19.31h-.42l-.22.37.35.22-.14.62-.22.17,0,.67-.17.13-.22,0-.31.09-.11.14-.09-.12-.23,0-.21.25,0,.31.19.37,0,.4-.22.17,0,.67.18.09-.18.64-.24.23.05.19-.24.17h-.2l-.11-.13h-.16l-.33.31V189l.13.08,0,.2-.15.08-.29.39.18.2-.15.29.3.59.39.27.26.41-.17.15,0,.44.35.55.22.15-.1.18.11.21-.13.26-.14.1-.12,0-.05.33-.19.19.21.36.23.15v.31l-.12,0-.29,0-.33.25,0,.24-.08.25-.1,0,.07,0,.1.15,0,.26-.34.21-.08.15.11.06.21.36.05.31.33.43.37.29.34.1,0,.62-.06.11-.28,0-.1.09.17,0,.06.3.62.45,0,.25.15.5.34.34,0,.05-.29,0-.19.08.19.16h.14l.22.21.05.2.21,0,.26.26.33.08V202l.23-.09.31.33v.25l0,.1h.24l.1-.2.27.29,0,.29.21.15.05.26.24-.2h.25l.24.36.07.23.63,0,.07.25.11.05.24-.24.13.08v.46l.15.15-.22.18.16,0-.07.35.2,0,.25-.17.18.28v.19l.24.16,0,.36-.07,0,.11.3.2.11.11-.06.38-.09.12-.13.11.28-.16.19.15.11.31-.05.3.22v.23l-.12,0-.13.29-.21.05v.07l.21.18,0,.2.21.18,0,.1-.11,0-.08.36-.62.7-.15,0-.05.18-.06.06-.23.34.1.19.19,0,.07.18-.07.26.44,0,.13.13V211l.32.11.17-.13.35.27,0,.48.19,0,.5-.31h.41l.4-.29Z" transform="translate(-155.2 -139.87)" style="fill: rgb(210, 210, 230);"></path>
   <path name="El Zulia" scale="3.8" move="10" data-id="799" id="path2801-4" class="cls-1" d="M212.88,195.46l-.34.22.13.07,0,.23-.44.09-.12-.11-.08.2.16.13,0,.16h-.21l0,.08.44.36.36-.07.42.31,0,.48-.09.34-.38.14-.1.38,0,.24h-.33l-.05-.13h-.15l-.39.17-.34.05-.28.17-.55.05-.25,0v.47l-.27.3-.05.67-.2.13.21.11-.06.28-.12.13,0,.23.19,0,.31-.14.23.27-.15.31.1.1-.06.69-.35.4-.26.05-.08.26h-.49l-.21.23-.54-.06-.34.39v.42l-.16.51s-.13.16-.22.29a.14.14,0,0,1-.21,0l-.24.41V206l-.08.08-.4,1.28-.32.65-1.07,1-.31,0v.08l.22.12,0,.18-.19.06,0,.26-.29.56-.31.16h-.21l.1.34.26.1,0,.46.18,0-.13.43-.48.44h-.19v.45l.18.05-.07.45.28,0,.34-.22.75.08.22.22.55-.37v-.11l.24-.18.75-.06.35.28.4-.19.2,0,0,.26-.19.09-.14.49v.37l-.15.2-.75.31h-.24l-.24.35.19.42.33,0,.13.2.42-.48.64.08.09.22h.29l.31.18,0,.33-.2.07.07.29H209l.33-.12.31.11.12.42.23.05.08-.13h.2l.07.22h.33l.26-.33h.25v.17h.15l.35-.17.07.08.42,0,.26-.22-.08-.23.41,0,.22-.13.47.22v-.29l.21-.19.13-.33,0-.65-.31-.26v-.21l0-.12v-.19l-.39-.62.13-.2.23-.7.11-.13-.21-.6-.16-.2.13-.44.21-.24v-.44l.23-.2.11-.49,0-.23-.26-.15-.12-.27,0-.05,0-.51.21-.16,0-.21.15,0-.1-.24v-.16l-.13-.23v-.15L214,207l0-.16-.28-.25v-.34l.14-.13.07-.26-.17-.15v-.16l.24-.14.13-.35.13,0,.23-.17.26-.08,0,.15.14-.08.18,0,.3-.15.26-.47L216,204h.14l.15-.26.13-.1s.06-.24,0-.26a.44.44,0,0,1-.16-.08v-.21l.19-.05,0-.18.21-.36.18-.06,0-.26.13-.08-.16-.17-.16.1-.18-.18.13-.1,0-.26-.21-.1v-.09l.32-.15-.24-.21.28-.16,0-.15-.21-.2.1-.27.29-.07v-.11l-.19-.13-.08-.26.16-.43.18-.05L217,199l-.16-.08-.12-.2-.28.3h-.22l-.05.17-.45.3-.36,0,0-.22-.13-.07,0-.32.11-.09v-.21l-.11-.05.15-.24v-.1l-.12-.06-.07-.71.22-.25.27-.6v-.42l.06-.07.12-.4-.25.05-.18-.25-.28-.13-.05.26-.57.05-.25,0-.66,0-.11-.1-.53,0Z" transform="translate(-155.2 -139.87)" style="fill: rgb(210, 210, 230);"></path>
   <path name="Bucarasica" scale="4.5" move="16" data-id="789" id="path2805-6" class="cls-1" d="M198,211.64l.2-.2-.17-.2.39-.56.5,0-.14-.42v-.15l.15-.18.23-.35.06-.06.05-.18.15,0,.62-.7.08-.36.11,0,0-.1-.21-.18,0-.2-.21-.18v-.07l.21-.05.12-.29.13,0V207l-.3-.22-.31.05-.15-.11.16-.19-.11-.28-.12.13-.38.09-.11.06-.2-.11-.11-.3.06,0,0-.36-.24-.16v-.19l-.18-.28-.25.17-.2,0,.07-.35-.16,0,.22-.18-.15-.15V204l-.13-.08-.24.24-.11-.05-.07-.25-.63,0-.07-.23-.24-.36h-.25l-.24.2-.05-.26-.21-.15,0-.29-.27-.29-.1.2h-.24l0-.1v-.25l-.31-.33-.23.09v-.18l-.33-.08-.26-.26-.21,0-.05-.2-.22-.2h-.14l-.19-.17-.09.16,0,.26-.85.1-.22-.08-.43.21-.32.42h-.27l-.09.3-.59.36.11.89.13.28-.11.42-.16.17.27.47.35,0,.11.31-.16.39v.18l.23.05.27,0,.32-.22h.16l.15.23.34.08.17.27-.11.39-.17,0-.16.5-.15,0,0,.36-.3,0,0,.13.17.17,0,.2-.18.11-.08,0-.18.07.07.24.28.11.24.6.14.32.48.16.16.48.24.16-.18.44-.15.07-.11.19-.31,0,.22.14v.17l.33.05.37.66,0,.26.53,0s.48-.28.55-.3a1.69,1.69,0,0,1,.28,0l.25-.23.37.22.14.29.28-.07,0-.11.55-.15.31,0,.15.18h.17l.29-.17h.27l.86-.27Z" transform="translate(-155.2 -139.87)" style="fill: rgb(210, 210, 230);"></path>
   <path name="Pamplonita" scale="7.3" move="10" data-id="811" id="path2813-2" class="cls-1" d="M214.65,244.77l-.1.25h-.13l-.19.25-.28-.07,0-.55-.11-.11v-.27l.3-.2.05-.35-.66-.37-.58,0-.72.46-.55,0-.44.15-.27.51-.62.15-.06-.5-.46-.53.08-.27-.19-.64-.16,0-.06.25-.31.17.13-.46-.24-.24.2-.22,0-.35-.44,0-.13-.15-.56-.15-.3-.33.1-.14.09-.26-.24-.12.09-1.07-.18-.54-.2-.18-.06-.26.17-.16-.13-.1-.36-.32,0-.35.34,0,.18-.28.51,0,.09-.37.19-.05.31-.64.54-.26.07.19.71,0,.05-.38h.2l.59-.48h.18l.24-.26.3.07v.28l.3.75.49,0,.11.19-.23.2-.08.23.21.17,0,.65.17.19.23.1.21.33-.3.18v.22h.27l.18.19.31.11,0,.13,0,.11.4,0,0,.15-.24.11v.33l.35.07-.06.3.16.17h.22l.12.33-.1.33-.16.13.12.22-.15.2-.78-.1-.13-.14h-.16l0,.33.32.09.91,1,.62.16.41.41-.19.18-.16-.08-.37.44,0,.78Z" transform="translate(-155.2 -139.87)" style="fill: rgb(210, 210, 230);"></path>
   <path name="Pamplona" scale="6" move="10" data-id="810" id="path2815-9" class="cls-1" d="M214.24,245.27l0,.21-.1.36-.14,0-.06.67a.93.93,0,0,1-.18.13c-.07,0,.07.55.07.55l.2.26v.42l-.1.11.07.2.33.16v.28l.09.18.2,0,.35.48,0,.38.23.19.24,0,.13.24,0,.22.51.53.17-.17.25.11V251l-.14.09-.06.62h-.49l-.19,0-.6.18-.31.35-.41.11-.3-.1-.35-.42-.32,0,0-.53-.24-.83-.35-.11-.23-.64h-.39l0-.19.16-.16,0-.42-.75-.37-.41.26-1.08.14-.27.22-.53.09-.07-.18-.66.08-.19.43.06.33-.18.37-.26-.24-.28,0,.11-.26-.4-.24.13-.29-.21-.19-.08-.29,0-.53.15-.34-.33-.55-.44-.22,0-.31.14-.08-.05-.27-.44-.24,0-.16h-.29l-.3.16-.54-.16-.1-.24-.23.07-.1.28-.29-.06-.15.2h-.25l-.17.39-.42.29-.29,0-.39.14-.6,0-.38-.35.05-.15h-.2l-.17,0-.22-.18.06-.26-.29-.08-.08-.14.13-.29-.14-.07.38-.55-.07-.28.23-.22.11-.45.48-.28.06-.29.69-.4.2-.31.26,0,.84-.44v-.22l.68-.56.4-.08.15-.42h.4l.44-.16,1-.13.22.13.29-.29.24.12L208,241l-.1.14.3.33.56.15.13.15.44,0,0,.35-.2.22.24.24-.13.46.31-.17.06-.25.16,0,.19.64-.08.27.46.53.06.5.62-.15.27-.51.44-.15.55,0,.72-.46.58,0,.66.37-.05.35-.3.2v.27l.11.11,0,.55.29.07Z" transform="translate(-155.2 -139.87)" style="fill: rgb(210, 210, 230);"></path>
   <path name="XXXX" data-id="" id="path2817-1" class="cls-1" d="M207.72,253.27l.35,0,.13-.27,0-.26.28-.14.14.66h.26l0,.28.28.13-.06.64-.22.12.22.57.26,0,.24.25.07.37.35.33.2.44h.2l.06-.33.11-.13.16.16.35-.33,0-.36.23-.42.13,0,.33-.37,0-.55.07-.22.22.06.37-.48.33,0,.44-.57.36-.09.08.18.2,0,0-.47.18-.29-.34-.41-.32,0,0-.53-.24-.83-.35-.11-.23-.64h-.39l0-.19.16-.16,0-.42-.75-.37-.41.26-1.08.14-.27.22-.53.09-.07-.18-.66.07-.19.44.06.33-.19.37-.25-.24-.28,0,.11-.26-.4-.24.13-.29-.22-.2-.28.18,0,.5-.22.12.06.3.33.23-.17.33-.16,0-.11.2,0,.49h-.46l-.13-.07-.12.15.11.23-.22.15h-.17l-.13.33.17.07,0,.5.18.07v.22l-.06.09.17.13.4,0,.22-.09.2,0v.15l.24.18.17-.18.27.16Z" transform="translate(-155.2 -139.87)" disabled="disabled" style="pointer-events: none;"></path>
   <path name="Labateca" scale="5" move="10" data-id="803" id="path2821-5" class="cls-1" d="M214.24,245.27l.19-.25h.13l.1-.27.31,0,.39.26.4-.24.18.06.15.13.48-.08.34-.34.42.07.11.2.32,0,.31.6v1.25l.42.22-.08.8-.16,0,.13.29.22.13a1.87,1.87,0,0,1,0,.27.49.49,0,0,1-.15.22l.19.72.47.44s0,.45,0,.62-.11.07-.11.07l.06.24.64.77h.22l.46,1,.36.1.06.86.49.49.26,0-.11.44-.2.13,0,.35L221,255l0,.67-.2.17.13.57.18.12,0,.22-.46.26-.11-.05-.16.23-.13.41H220l-.21.28-.32,0-.65-.21-.33-.3-.73,0-.49.42h-.37l-.57.33-1,0-.16-.38-1-.22-.55.49-.33,0,.15-.19-.17-.29,0-.2.2,0,.11-.31.36,0,.52-.29.09-.75.29-.33-.09-.33.06-.22.22-.15v-.42l.12,0,.1-.35-.32-.16,0-.59-.2-.49h-.44l-.08-.28.19-.16-.1-.31.41-.11.31-.35.6-.18.19,0h.49l.06-.62.14-.09v-.19l-.25-.11-.17.17-.51-.53,0-.22-.13-.24-.24,0-.23-.19,0-.38-.35-.48-.2,0-.09-.18v-.28l-.33-.16L214,248l.1-.11v-.42l-.2-.26s-.14-.51-.07-.55a.93.93,0,0,0,.18-.13l.06-.67.14,0,.1-.37,0-.2Z" transform="translate(-155.2 -139.87)" style="fill: rgb(210, 210, 230);"></path>
   <path name="Bochalema" scale="6" move="10" data-id="788" id="path2827-8" class="cls-1" d="M210.94,235.41l-.59.47h-.2l-.05.38-.71,0-.07-.19-.54.26-.31.64-.19.05-.09.37-.51,0-.18.28-.34,0v-.35l-.13-.12.1-.18-.16-.22h-.37l-.39-.39v-.22l-.32-.43-.13.09-.17-.06-.17-.38-.16-.13.29-.63.21-.09.21-.27-.07-.31-.13-.07,0-.28.17-.17-.12-.18-.1,0-.1-.43-.27-.14h-.2l-.09-.13.08-.26.22-.28.09-.34.31.09.22.59.41.11.83-.26.22-.45.26-.09.22.08.35-.2.31-.4-.08-.15.16-.15h.22l.57-.68.16-.12v-.22l.4-.35.2-.06.12-.68.62-1,.2-.74.16-.24,0-.26-.23-.12v-.43l-.17-.07.13-.15.43.07.46-.52,0-.27.53-.28.35.12,0,.2.26.13,0-.27.35-.21.21.05,0,.27-.17.08.05.19-.27.13.47,1.11.32.1-.22.49-.18.66-.32.33-.69.38-.1-.08-.2.22.09.08-.07.44-.16.14.16.17-.16.44-.19.09,0,.22.28.18-.35.47h-.2l-.07-.13h-.1l-.45.44,0,.63-.15.12.06.21.2.19v.5l0,.35v.64l-.36.62-.18.09-.08.48Z" transform="translate(-155.2 -139.87)" style="fill: rgb(210, 210, 230);"></path>
   <path name="Chinacota" scale="6.3" move="10" data-id="792" id="path2829-4" class="cls-1" d="M216.51,239.64l-.22.25-.36,0-.25.28.07.17-.05.83-.57.12-.33-.11-.19.24-.27,0-.13-.24.16-.13.1-.33-.12-.33h-.22l-.16-.17.06-.3-.35-.07v-.33l.24-.11,0-.15-.4,0,0-.12,0-.12-.31-.11-.18-.19h-.27v-.22l.3-.18-.21-.33-.23-.1-.17-.19,0-.65-.21-.17.08-.23.23-.2-.11-.19-.49,0-.3-.75v-.28l-.3-.07-.24.26h-.18l-.22-.41.08-.48.18-.09.36-.62v-.64l0-.35v-.5l-.2-.19-.06-.21.15-.12,0-.63.45-.44h.09l.08.13h.2l.35-.47-.28-.18,0-.22.19-.09.16-.44-.16-.17.16-.14.07-.44-.09-.08.2-.22.1.08.68-.37.25.43,0,.34-.17.1-.11.21.26.08.11.53.23,0,0-.23.46-.35.31,0,0,.65.5.77.89.3.56,0,.27.25v.21l-.82.37h-.43s-.17.95-.17,1-.18.2-.18.2l.07.29.44.37-.09.15-.14,0-.24.34-.26.2,0,.79s.58.79.58.84a3.68,3.68,0,0,0,0,.41l-.2.32-.36.2.25,1.05.28.14.09.37.2.22-.2.11,0,.18.31.17.29.42Z" transform="translate(-155.2 -139.87)" style="fill: rgb(210, 210, 230);"></path>
   <path name="Los Patios" scale="7.5" move="3" data-id="806" id="path2835-6" class="cls-1" d="M217,231.24l-.25-.24-.56,0-.89-.3-.49-.77,0-.65-.31,0-.45.35,0,.23-.23,0-.11-.53-.26-.08.11-.21.17-.1,0-.34-.25-.43.33-.34.18-.66.22-.47.21-.1.38-.48.18,0,0-.11.39-.31.35-.08,0,.07.09-.12.46-.21.21-.36-.07-.43.38-.39.27-1-.13-.2-.05-.44.2-.89-.06-.27.14-.54.39-.37.17-.06.23-.32.11-.52.12-.48.37-.21.08-.06h.11l.17.17.26-.06-.28.59.3.43h.2l.06.18-.12.19,0,.46a1.27,1.27,0,0,0-.17.27s.09.43.09.43l.13.07.06.25.09.11.07.35-.11.31.15.2-.33.37,0,.25-.18,0-.24.13-.2-.06-.15.06-.18.2-.17,0-.11.09.32.35h.29l.13.27.23,0-.12.26-.39.16-.09,1.17-.15-.05-.12.24v.67l-.16.13v.39l.11.16-.07,1.06-.21.17-.31.27-.29,0s0,.27,0,.38.13.18.13.18l0,.63-.22.14.08.46.09.26-.29.18Z" transform="translate(-155.2 -139.87)" style="fill: rgb(210, 210, 230);"></path>
   <path name="Durania" scale="7.2" move="10" data-id="796" id="path2839-6" class="cls-1" d="M207.74,231.65l0-.27.09-.11,0-1.07-.23-.34.09-.45-.09-.5-.4-.21h-.33l-.1-.25-.75-.16-.23-.35v-.21l-.18,0,.12-.66-.06-.37.3-.33.31-.57.23-.23.26-.18-.13-.26.24-.54.1-.06.21-.12-.18-.19.07-.2.34-.34,0-.26-.24-.13.16-.36-.18-.16-.08-.15.13-.23,0-.24.47-.2.6-.42.25-.46.42-.16h.31l.31-.23.7-.08.18.08.05-.29.25-.19.49.52-.06.66.09.35.24.23,0,.33-.24.22.09.17.55.38.32.36-.44.57-.18.37.2.31.17-.06,0,.16-.12.27,0,.27-.46.52-.43-.07-.13.15.17.07v.43l.23.12,0,.26-.16.24-.2.74-.62,1-.12.68-.2.06-.4.35V230l-.16.12-.57.68h-.22l-.16.15.08.15-.31.4-.35.2Z" transform="translate(-155.2 -139.87)" style="fill: rgb(210, 210, 230);"></path>
   <path name="San Cayetano" scale="6.5" move="10" data-id="816" id="path2843-5" class="cls-1" d="M213.71,224.74l-.2-.05-.35.21,0,.27-.26-.13,0-.2-.36-.12-.51.26.11-.25,0-.16-.17.06-.2-.31.18-.37.44-.57L212,223l-.55-.38-.09-.17.24-.22,0-.33-.24-.23-.09-.35.06-.66-.49-.52-.25.19-.05.29-.18-.08-.35,0-.41-.45-.49-.44-.18-.46-.24-.13-.17-.49.66-.42.33-1.41.33-.29.22.05.08-.13h.2l.07.22h.33l.26-.33h.25v.17h.15l.35-.17.07.08.42,0,.26-.22-.08-.23.41,0,.22-.13.47.22.09.32.29,0,0,.16-.26.22.13,0-.12.34-.16.19.36.24h.17l.14.15.38-.48h.11s0,.21,0,.21l.15.07.19,0,.22-.32.13.15.42.23.14-.15.21.17-.21.11,0,.12h.34l0,.28-.33.17,0,.3-.16-.12-.14.1v.3h-.1l-.17-.05-.14.22-.06.49-.35.11-.22.36-.42.21-.11-.07-.23.39.13.72h-.05l-.07.35.47.25,0,.3.32.27.29,0,.16.13-.08.2-.13.07,0,.59-.26.2-.22.39-.25.36-.29,0Z" transform="translate(-155.2 -139.87)" style="fill: rgb(210, 210, 230);"></path>
   <path name="Salazar" scale="3.5" move="15" data-id="814" id="path2845" class="cls-1" d="M205.67,226.65l.3-.32.31-.57.23-.23.26-.18-.13-.26.24-.54.1-.06.21-.12-.18-.19.07-.2.34-.34,0-.26-.24-.13.16-.36-.18-.16,0-.06-.24.15-.2-.16-.84-.06-.18.07-.85-.14-.31-.24-.29,0-.05-.17.16-.07.2-.26-.25-.2-.15-.44.33-.57,0-.34.09-.17-.13-.07-.23.05-.16-.13v0l-.37,0-.14-.24-.28-.07-.49.48-.5.31h-.2l-.58.07-.26.29-.28,0-.23.15-.28,0-.16.2h-.09l-.13-.48.09-.12.05-.26-.12-.16,0-.48-.18,0-.3-.29h-.49l0-.24-.42-.57-.24.13-.2,0-.66-.87-.6-.32-.29-.17-.06-.33-.36.07-.14.22.05.43-.28.06-1,.75h-.46l-.12.14.14.13-.12.27.13.18.19,0,.32.24-.19.19-.08.22.18.05-.05.33h-.34l-.35.58-.44.18-.58.78-.21,0-.15.34.2.15,0,.19-.27.17-.35.51,0,.32-.27.36-.32.11-.21-.48-.22-.05-.16.14-.43,0-.15.15v.26l-.23.13.18.4.38.34.27,1.07-.09.49.06.95.33.35.06.51.1,0,.19-.18.22,0,.47.52h.3l.05.37.51.24,0,.23-.14.06,0,.35.18.22.15-.18h.2l.2.24.15-.25h.2l.2.24.59-.09.05-.24.55-.47.22-.08.13-.27.35-.24.09.09-.06.17.13.24,1,.11.69-.26.77-.79h.24l.22.19.28-.15.31,0,.56-.24-.05-.25.31-.35h.46l.14.29.37.11.79-.16,0-.26.13-.15-.13-.16.31-.13,0-.27.41.29.29,0,.13.36.47-.47h.09l.37.33.37,0,.35-.49.27,0Z" transform="translate(-155.2 -139.87)" style="fill: rgb(210, 210, 230);"></path>
   <path name="Santiago" scale="6.2" move="10" data-id="817" id="path2847" class="cls-1" d="M207.15,222.67l-.24.15-.2-.16-.84-.06-.18.07-.85-.14-.31-.24-.29,0-.05-.17.16-.07.2-.26-.25-.2-.15-.44.33-.57,0-.34.09-.17-.13-.07-.23.05-.16-.12.05-.21.14-.22,0-.29-.16-.09.22-.24.09-.27-.17-.11.11-.31-.27-.37-.24-.18.09-.9.13-.16-.06-.24-.44-.17-.34-.44-.06-.56L203,215l0-.15.15-.18.27-.7.41-.29.38-.43.28,0,.34-.22.75.08.22.22.55-.37v-.11l.24-.18.75-.06.35.28.4-.19.2,0,0,.26-.19.09-.14.49v.37l-.15.2-.75.31h-.24l-.24.35.19.42.33,0,.13.2.42-.48.64.08.09.22h.29l.31.18,0,.33-.2.07.07.29H209l.33-.12.31.11.12.42-.32.29-.33,1.41-.66.42.17.49.24.13.18.46.49.44.41.45-.35,0-.31.23H209l-.42.16-.25.46-.6.42-.47.2,0,.24-.13.23Z" transform="translate(-155.2 -139.87)" style="fill: rgb(210, 210, 230);"></path>
   <path name="Lourdes" scale="8" move="10" data-id="807" id="path2851" class="cls-1" d="M197.57,214.92l-.24-.22-.12-.34-.46-.24-.41,0-.06-.14,0-.1.33-.13.17-.53.58-.65.28,0,0-.37.26-.08.08-.23,0-.16.22-.23-.17-.2.39-.56.5,0-.14-.42v-.15l.15-.19.1.19.19,0,.07.18-.07.26.44,0,.13.13V211l.32.11.17-.13.35.27,0,.48.19,0,.5-.32h.41l.39-.29.18.4-.11.51-.17.17v.65l-.18.18-.06.26.17.08v.51l-.81,1.34v.45l-.37.14h-.2l-.3.13-.13-.27h-.26l-.21.18h-.07l-.11-.25H199v.21l-.33.34-.47,0-.23.14,0,.12-.29.3-.29-.09-.19.09-.35.14h-.17l-.16-.1.6-.38.43-1.07,0-.43Z" transform="translate(-155.2 -139.87)" style="fill: rgb(210, 210, 230);"></path>
   <path name="Gramalote" scale="6.5" move="10" data-id="800" id="path2853" class="cls-1" d="M204,219.84l-.37,0-.14-.24-.28-.07-.49.48-.5.31h-.2l-.58.07-.26.29-.28,0-.23.15-.28,0-.16.2h-.09l-.13-.47.09-.13.05-.26-.12-.16,0-.48-.18,0-.3-.29h-.49l0-.24-.42-.57-.24.13-.2,0-.66-.87-.6-.32-.29-.17-.06-.32.15.1h.17l.35-.14.19-.09.29.09.29-.3,0-.12.23-.14.47,0,.33-.34v-.21h.43l.11.25h.07l.21-.18h.26l.13.27.3-.13h.2l.37-.14v-.45l.81-1.34v-.51l-.17-.08.06-.26.18-.18v-.65l.17-.17.11-.51-.17-.4h.68l.1.16.52,0,.1.22.26-.13v-.34l.22-.53.38-.09.1.33.26.1,0,.46.18,0-.13.43-.48.44h-.19v.45l.18.05-.07.46-.38.43-.41.29-.27.7-.15.18,0,.15.14.13.06.56.34.44.44.17.06.24-.13.16-.09.9.24.18.27.37-.11.31.17.11-.09.27-.22.24.16.09,0,.29-.14.22,0,.17Z" transform="translate(-155.2 -139.87)" style="fill: rgb(210, 210, 230);"></path>
   <path name="XXXX" data-id="" id="path2855" class="cls-1" d="M224.41,196.24l-.28,0-.06.17-.17.11-.28,0v-.07l-.34.14-.05.2-.23-.1.09-.2.31-.27v-.23l-.1-.05-.08-.15.12-.17-.21-.16-.23.09-.12-.07.07-.16h.2l0-.16.1-.08-.13-.21h-.2l-.15-.24v-.22l.19-.12-.06,0h-.26l-.11-.11.05-.15-.18-.1-.2.11-.28-.12v-.22l.15-.11-.05-.1-.45.08-.11.16h-.09l-.11-.14.15-.3.31,0,.39-.25-.09-.33.19-.18,0-.19.16-.19-.08-.13-.13.16h-.14l0-.4.41-.06,0-.25-.23-.08-.31.09-.19-.13-.05-.22.3-.12.12.09.22.08.28-.22-.15-.38.07-.25.71.38-.07.25-.46.18.34.3.23-.25h.16l0,.34.69,0,.06.28.27.1,0,.27-.44,0,.16.37-.07.36.53.07.27.55-.24.16.32.53v.16l-.36,0,0,.42-.29.31.29.19.21.45-.29.14Z" transform="translate(-155.2 -139.87)" disabled="disabled" style="pointer-events: none;"></path>
   <path name="San Calixto" scale="4.5" move="19" data-id="815" id="path2866" class="cls-1" d="M189.41,181.09l-.36.18-.25-.06-.7.31-.3.3.18.12.13.44-.13.45.09.43-.42.27-.82,0-.13-.22-.48.06-.21.3-.37.06-.57-.41-.16-.41-.64-.92-.43,0-.28-.1-.12-.42-.52-.28-.32-.47-.38-.34,0-.23-.1-.24-.29.24-.2.67H181l-.3-.15-.2.09h-.38l-.18.2,0,.26-1.22.9-.21.81.53.41,0,.46-.44.35-.43.1-.24.44.18.38-.17.29-.32.06-.15,0-.35.18.32.36-.13.67-.19,0-.11-.24-.37-.23-.11-.17-.49.14-.12.3.67.82-.11.4h-.21l-.38.65.18.52h-.36l-.07.46.22.1v.16l-.09,0v.27l.15.12-.07.14-.19,0-.25-.1-.25.25-.09.57-.41.48-.18.12-.08.41-.07.12.15.06v.62l.29.25-.07.25.22.28.29,0,.47-.36.17.05,0,.22.15,0,.14-.13.34-.09.28,0,.6-.6h.19l0,.08.94.2.11.14.88.34.07.53.23.18.07-.24.12-.07,0-.58-.22-.29-.24-.67.42-.54V191l.21-.09.06.05.37,0,.39-.24,0-.27.25-.26,0-.14-.13-.08v-.44l-.16-.21.08-.18-.08-.46-.35-.07,0-.11.41-.05.4-.7.32-.5.63.06,0,.11.52-.2.48.1.19.33h.32l.25.25.38,0,.39.25.45-.23.16-.36.23-.3V187l-.11-.15.19-.3.14-.17v-.23l.31,0,.22-.32v-.2l.16-.24.4-.2.3-.51.13,0,.52-.42.23,0,.1.24.56.1.15.23.3.11.59.5.09.34-.09.38.3.43.66.44.35,0,.14.21v.27l.39.68.35.09.25-.24.18-.64-.18-.09,0-.67.22-.17,0-.4-.19-.37,0-.31.2-.25-.36-.2-.22-.48,0-.2-.17-.09-.26.14-.26,0-.4-.76,0-.16-.07-.72-.68-.7,0-.18-.23-.38-.31-.12v-.13l-.14-.08v0l-.54,0Z" transform="translate(-155.2 -139.87)" style="fill: rgb(210, 210, 230);"></path>
   <path name="XXXX" data-id="" id="path2868-4" class="cls-1" d="M189.41,181.09l-.36.18-.25-.06-.7.31-.3.3.18.12.13.44-.13.45.09.43-.42.27-.82,0-.13-.22-.48.06-.21.3-.37.06-.57-.41-.16-.41-.64-.92-.43,0-.28-.1-.12-.42-.52-.28-.32-.47-.38-.34,0-.23-.1-.24.09-.22-.23-.1.18-.14,0-.29L182,179l0-.13.15-.1.06-.54.11-.07-.23-.13h-.18l-.14-.16.14-.1.08-.28-.23-.1.06-.32L182,177l.23-.42.23-.05,0-.22-.12-.16v-.29l.15-.14-.07-.38.13-.25h.17l0-.32-.2-.1,0-.08.15-.07v-.33l.11-.16.05,0,.4-.28,0-.3.39-.26.07-.16.12-.11.16.06.3-.09v-.3l.42-.32.1-.34.16,0,.42-.39.06-.06-.08-.14-.11-.37.07-.15v-.26l.15-.05,0-.17-.16-.1,0-.2.15-.06,0-.12.18-.34.24-.09.14,0,.09-.07.17,0,.34.33.21,0,.07-.29-.1-.12v-.11l.24-.18.11.05.18-.14.2,0,.37-.34,0-.35-.14-.09V168l-.16-.08v-.13l.22-.06,0-.21-.13-.06.12-.28,0-.27.19-.16,0-.38-.18-.19,0-.29-.16-.12-.06-.58-.26-.14-.28-.34-.15-.33.14-.3,0-.29.17-.32h.24v.13l.12.07.21-.11.4,0,.22-.22.57-.24h.39s.59-.22.68-.27.07-.21.07-.21l.18-.25.24,0v.18l.16.19h.24l.14-.19.16.07v.15l.53-.22h.38l.07.17-.17.19,0,.26.14.17-.2.08-.05.24-.11.07.39.18h.29l.1.13-.07.11.23.16.28,0,.31.37,0,.51-.29.41-.29.24-.1.33-.26.19.05.3.16.06.08.1.2,0,.31.28v.23l.13.11h.28l.11.34-.11.3-.21,0-.12-.16h-.24l-.21.31v.62l-.19.13v.16l.13.08,0,.2.26.23h.18l.25-.18H194l.07.11-.08,0v.21l.18.13v.34l-.12.15c-.11.15.07.29.07.29l.24.07.17.21.27,0,.17.06,0,.18.17.46.23.15.09.18-.09.11,0,.24h-.19l-.05.22.23.21-.07.1.23.17.15,0v.22l-.16.12-.23-.15-.06-.1-.13.12,0,.34.11.08.17.26-.07.28.23.28h.26l0,.13-.17.13-.19,0V175l.08.13-.17.16.11.21.23,0-.08.26.18.06.13.21-.15.22-.31,0,.18.18,0,.26.16.11V177l.15.19.11.49-.2.08.05.25.18.09-.05.27-.11.11-.21.42-.39.3-.18,0-.18.2-.22-.07-.26.15-.14.18-.26-.25-.33-.1-.21-.22,0-.2-.25,0-.11-.05-.3.1-.14.13-.64.13-.18.12-.24,0-.53.24-.06.28-.23,0-.24.27-.61.43v.37l-.13.08.12.19-.55,0Z" transform="translate(-155.2 -139.87)" disabled="disabled" style="pointer-events: none;"></path>
   <path name="Villa Caro" scale="4" move="10" data-id="" id="path2870" class="cls-1" d="M197.57,214.92l-.24-.22-.12-.34-.46-.24-.41,0-.06-.14,0-.1.33-.13.17-.53.58-.65.28,0,0-.37.26-.08.08-.23-.05-.18-.83.26h-.27l-.29.17h-.17l-.15-.18-.31,0-.55.15,0,.11-.28.07-.14-.29-.37-.22-.25.23a1.69,1.69,0,0,0-.28,0c-.07,0-.55.3-.55.3l-.53,0,0-.26-.37-.66-.33-.05v-.17l-.22-.14.31,0,.11-.19.15-.07.18-.44-.24-.16-.16-.48-.48-.16-.14-.32-.24-.6-.28-.11-.07-.24.18-.07.08,0,.18-.11,0-.2-.17-.17,0-.13.3,0,0-.37H192l.16-.5.17,0,.11-.39-.17-.27-.34-.08-.15-.23h-.16l-.32.22-.27,0-.23-.05-.16.2-.22,0-.18.39,0,1.26-.19.15-.12.53-.17.2,0,.35-.32.12-.11-.11-.22.22-.16,0-.64.31-.17,0-.16.36v.26l-.29.11-.13-.11-.18,0,0-.13L187,210l-.06.09-.27-.11,0-.18-.07,0-.13.33-.24.16v.11l.2.31-.14,1-.39.37-.27.07-.17.26-.14.07.16.11.59,0,.38,0,.26.35.51.38s.17.68.17.77a.31.31,0,0,1-.09.18l.11.21h.23l.22.32h.31l.5.34.22.3v.27l-.13.15,0,.23.22.17.05.86-.16.35-.15,0,0,.42-.12.11,0,.64.18.4.3.07.38.2.09.26.28,0-.29.57-.21.09-.05.5.37.14.31.83,0,.33.58.64.06.54.41,0,.16-.14.22.05.21.48.32-.11.27-.36,0-.32.35-.51.27-.17,0-.19-.2-.15.15-.34.21,0,.58-.78.44-.18.35-.58h.34l.05-.33-.18-.05.08-.22.19-.19-.32-.24-.19,0-.12-.18.11-.27-.14-.13.12-.14h.46l1-.75.28-.06-.05-.43.14-.22.35-.06.6-.38.43-1.07,0-.43Z" transform="translate(-155.2 -139.87)" style="fill: rgb(210, 210, 230);"></path>
   <path name="Teorama" scale="2" move="9" data-id="820" id="path6126" class="cls-1" d="M171.65,189.62l.41.14.28,0,.65-.44,0-.18.21-.09.23.21,0,1-.11.18.36.21.07.23.25-.24.44-.09.26-.53.22-.27.05-.22h.15l.14.06.26-.14.1-.25.07-.45h.36l-.18-.52.38-.65h.21l.11-.4-.67-.82.12-.3.49-.14.11.17.37.23.11.24.19,0,.13-.67-.32-.36.35-.18.15,0,.32-.06.17-.29-.18-.38.24-.44.43-.1.44-.35,0-.46-.53-.41.21-.81,1.22-.9,0-.26.18-.2h.38l.2-.09.3.15h.69l.2-.67.28-.24.1-.22-.23-.1.18-.14,0-.29L182,179l0-.13.15-.1.06-.54.11-.07-.23-.13h-.18l-.14-.16.14-.1.08-.28-.23-.1.06-.32L182,177l.23-.42.23-.05,0-.22-.12-.16v-.29l.15-.14-.07-.38.13-.25h.17l0-.32-.2-.1,0-.08.15-.07v-.33l.11-.16.05,0,.4-.28,0-.3.39-.26.07-.16.12-.11.16.06.3-.09v-.3l.42-.32.1-.34.16,0,.42-.39.07-.06-.09-.14-.11-.37.07-.15v-.26l.15-.05,0-.17-.16-.1,0-.2.15-.06,0-.12.18-.34.24-.09.14,0,.09-.07.17,0,.34.33.21,0,.07-.29-.1-.12v-.11l.24-.18.11.05.18-.14.2,0,.37-.34,0-.35-.14-.09V168l-.16-.08v-.13l.22-.06,0-.2-.13-.07.12-.28,0-.27.19-.16,0-.38-.18-.19,0-.29-.16-.12-.06-.58-.26-.14-.28-.34-.15-.33.14-.3,0-.29.16-.31.22-.22,0-.14.31,0-.08-.15-.15-.26.13-.44-.34-.08,0-.23-.19-.14.08-.46-.25-.37v-.3h-.39l-.08-.26.15,0h.21l.06-.29-.13-.38.07-.48-.15-.17.15-.18,0-.4.31-.2-.23-.11-.07-.26.18-.1-.16-.18.1,0,.06-.57,3.88-3.16.21.19,0,.3.11.18.31-.05h.13l.2.23v.17h.24l.07.13s.19-.25.26-.26.55,0,.55,0l.13.08.15,0,.24-.21-.06-.15.15-.13.19-.23.46-.26v-.14l.16,0-.16-.37-.15-.1-.2-.34-.3,0-.15-.11-.36-.07-.07-.18-.27-.09V152l-.16-.31.21-.18,0-.31.52-.14-.05-.35.39-.21,0-.27-.48-.18-.2-.32.07-.18-.64-.58.13-.21-.27-.22h-.43l-.09-.28-.24-.16h-.19l-.36-.12-.18.05v.16l-.37-.15-.1-.14h-.31l.08.21.15.08,0,.16-.2.15.13.15-.1.24H190v.12l.16.16v.11l-.29.1.34.24.13-.08.13.12.12.68-.13.21.17.08v.2l-.2.16.05.28.25.11.11.23-.31.05,0,.12.14.13,0,.21-.31-.1-.15.29.08.23-.26.21,0,.23-.54,0-.08-.11-.41,0-.07-.13-.16-.08-.15-.53,0-.19-.37-.29-.23.11-.22.34-.24-.05-.52.23,0,.28,0,.21v.28l-.25,0-.34.08-.15.11-.21,0-.18-.12-.67.18-.44.38-.23.06-.35.51v.47l-.23.18-.36.29,0,.34s-.25.13-.26.22a.51.51,0,0,0,.06.24l0,.29-.16.23.13.28-.18.11a4.09,4.09,0,0,1-.25.33.56.56,0,0,1-.18.1l-.05.26.18.24-.19.18-.16-.08-.18.11v.36l-.41.2v.55l.12.12,0,.44-.2.22.36.54.29-.06.17.29V161l.21.09.26-.08.36.16v.46l-.15.21-.36,0-.39.28,0,.27.22.33v.2l-.13,0-.2-.19-.26.19.08.38.1.18v.19l-.2.2v.18l-.26-.08-.58.4-.16.31-.32.1-.41.49-.18.26,0,.26s-.29.25-.29.31,0,.25,0,.25l-.22-.08-.74.47v.1l.15.14,0,.33-.13.15.08.22L179,168l-.24,0,0,.18-.21.23-.24.39v.37l-.29.1v.23l.18.28-.07.32-.05.13,0,.25h-.22l-.24.34-.23.08-.06.31.11.18,0,.41a.93.93,0,0,0-.24.14c-.05.07,0,.08,0,.08l.08.07.07.57.19.15v.49l.06.18-.37.11-.07.39,0,.62L177,175l-.39.33-.13.34-.38,0-.31.42,0,.37-.18,0-.15.26-.29.08-.08.15-.56,0,0,.33-.09.09-.12.62-.21.17.23.16-.13.47-.38.33-.1.65-.19.13,0,.28.22.18-.05.35.12.25.6.13.33.31-.15.11V182l-.1.12v.5h.2l.24.08-.24.36.11.21.26,0s-.09.42-.09.49a2.57,2.57,0,0,0,.26.42l.06.21-.16-.11-.47,0c-.08,0-.22.52-.22.52l-.27,0-.07-.21-.13.12v.16l-.33.24,0,.25-.26.26-.05.42-.32.17c-.1.05-.15.52-.15.52l.05.37-.43.43,0,.28-.1.24-.52,1.07-.15.16Z" transform="translate(-155.2 -139.87)" style="fill: rgb(210, 210, 230);"></path>
   <path name="Ocaña" scale="3" move="10" data-id="809" id="path6137" class="cls-1" d="M173.4,210.83l-.21-.09,0-.16-.21-.28-.3.07-.26.32-.34-.09-.77.06-.33.28-.2,0,.13-.24,0-.18,0-.26-.27-.32v-.21l.1-.3-.18-.58-.15-.08,0-.25.2-.2.12-.28-.07-.3-.15-.08.12-.58-.22-.43.12-.12v-.13l-.22-.23.12-.28-.22-.32-.67-.13-.05-.23-.23,0-.42.3-.33-.25-.22-1-.68-.53-.57-.26v-.1l.25-.28.13-1-.18-.25.28-.33.37.1.37-.2v-.48l-.27-.15.3-.26.25-.57.12-.31-.12-.22.2-.21L169,199l.24-.45-.06-.25-.17-.09.32-.7.35-.11.53-.53.22.08.26-.14v-.26l-.34-.5-.07-.63-.16-.17.1-.19.18-.07-.18-.28.43-.25-.13-.41-.14-.11.83-.61.61-.08-.4-.33.18-.07.12-1.48-.12,0,.1-.72.26-.16v-.17l-.2-.13-.09-.55.41.14.28,0,.65-.44,0-.18.21-.09.23.21,0,1-.11.18.36.21.07.23.25-.24.44-.09.26-.53.22-.27.05-.22h.15l.14.06.26-.14.09-.24.23.1v.16l-.09,0v.27l.15.12-.07.14-.19,0-.25-.1-.25.25-.09.57-.41.48-.18.12-.08.41-.07.12.15.06v.62l.29.25-.07.25.22.28.29,0,.47-.36.17.05,0,.22.15,0,.14-.13.34-.08,0,.26-.18.06-.09.25h-.13l-.06-.05-.29.11v.09l-.09,0,.17.09,0,.36h.08l.11-.11h.08l0,.12h.11l.28-.34.64.18.08.18-.19.19v.2l.13.1-.09.26-.23.13v.39l.23.22-.06.23s-.2.14-.2.14l-.09.19.08.08v.53l-.37.23h-.24l-.11.19H176l-.13.27.17.37h.23l.24.12.14.52.14.18-.11.47h-.09l-.24.34,0,.24-.34,0V200l.11.1v.06l-.15,0v.25l0,.39-.3,0-.06,0v.37l-.46.33.07.83.24.2,0,.65.27.23,0,.13-.08,0,0,.57-.32.44-.26,0,0,.13-.37.42h-.22l-.34.47-.34-.14-.12-.2h-.26l-.32.33.14.47-.22.25.16.11v.19l.32.18v.46l.15.41.19.08.15.41.19.08-.18.55-.24.25,0,.19.23.12-.15.84-.14.32,0,.25Zm-5.59-23.13-.69.48-.45-.06-.14-.16-.24.06-.13.2-.15.08v.12l-.45.22-.06.46-.3.06-.44-.37v-.26l.15-.08,0-.52-.21-.08-.58.35-.12-.08-.2.28v.38l-.68.69-.45.16-.13.43-.62.4.06.21.75-.32,1.32,0,.55.64-.19.27.34.25.36-.11h.26l.08.25h.38l-.16.26.14.53.61.21.08.1.25,0,.06-.53.23-.16-.08-.5.41-.34,0,.42.29,0,.09-.45.53.09.38-.5.57,0,.24-.39-.18-.84-.08-.12-.3,0-.45-.84.14-.5-.25-.36.16-.11-.13-.09Z" transform="translate(-155.2 -139.87)" style="fill: rgb(210, 210, 230);"></path>
   <path name="Abrego" scale="2" move="10" data-id="786" id="path6143" class="cls-1" d="M173.61,210.77l.17.08,0-.07h.24L174,211l.36.26v.29l-.14.11.13.24.27,0,0,.55.22,0,.58-.46.18.05.32,1.3v1.41l-.18.09v.41l-.21,0-.28.18v.19l-.45.23-.26,0-.18.5,0,.43-.42,0-.16.18-.23-.29-.38.07-.15.24h-.14l-.07-.13-.13,0-.22.22-.14-.13-.34.12-.07,0,0,.08.06.13-.15.18-.2.09.08.33.2.09,0,.24-.11.18-.14,0,.08.16.18.08-.06.17h-.11l0,.43h-.1v.16l.11.18.27.08.06.48-.06.19.15.29h.24l0,.13.07.05h.28l0,.28.37.33.25-.13.22-.4.33-.13V221h.24l.22-.37.7-.12.23.22.35.12.19-.16.32,0,0,.27.18.17.26.05.26.39h.33l.6-.14v-.51l.31.11.15.18.69.55.57.11.2.16v.22l.44.17.08.34-.06.32-.22.05-.29.35.6-.06.5.61.27-.17-.07-.35.33-.58.25-.29.22-.32.46-.07.26-.2,0,.35-.41.08-.15.2.39-.06.7.13.31.54.22.08.25-.06.28,0,0,.25.45.41.26-.11,0-.24.17-.09.16,0,.59,0,0,.24.13.2.38.13V224l.26-.16,0-.19.16-.22.17,0,.14-.11v-.18l.09-.15.13,0,.08-.15v-.84l-.17-.29.26-.28,0-.27-.24-.06-.06-.16.41-.29.31.05.64-1,0-.27-.08-.13.08-.16.33,0h0l-.19-.41,0-.64.12-.11,0-.42.15,0,.16-.35-.05-.86-.22-.17,0-.23.13-.15v-.27l-.22-.3-.5-.34h-.31l-.22-.32h-.23l-.11-.21a.31.31,0,0,0,.09-.18c0-.09-.17-.77-.17-.77l-.51-.38-.26-.35-.38,0-.59,0-.16-.11.14-.07.17-.26.27-.07.39-.37.14-1-.2-.31v-.11l.24-.16.13-.33.07,0,0,.18.27.11L187,210l.22-.11,0,.13.18,0,.13.11.29-.11v-.26l.16-.36.17,0,.64-.31.16,0,.22-.22.11.11.32-.12,0-.35.17-.2.12-.53.19-.15,0-1.26.18-.39.22,0,.16-.21v-.17l.16-.39-.11-.31-.35,0-.27-.47.16-.17.11-.42-.13-.28-.11-.89.59-.36.09-.3h.27l.32-.42.43-.21.22.08.85-.1,0-.26.09-.16.19-.08.29,0,0-.05-.34-.34-.15-.5,0-.25-.62-.45-.06-.3-.17,0,.1-.09.28,0,.06-.11,0-.62-.34-.1-.37-.29-.33-.43-.05-.31-.21-.36-.11-.06.08-.15.34-.21,0-.26-.1-.15-.31-.18-1.18-.06-.37.14v.14l-.31.29-.19-.12-.41,0-.16.05-.29-.09,0-.15-.22,0-.14-.21-.06.3-.1.13-.06.48.22.15v.35l.11.27.12,0,.05.13-.06.16.17.09,0,.27-.13.17-.21,0,.1.11v.22h.16l.08.09-.08.25h-.21l-.15.28-.29,0-.13.18,0,.2-.21,0-.52.45-.07.16.15.09,0,.19-.17.19h-.31l-.23-.27v-.41l-1-.6-.16-.19-.42-.12h-.42l-.07-.09h-.15l-.33.33-.11-.16-.46.07-.06-.09h-.17l0,.28-.18.26-.2-.16-.09.05v.12l-.21.27h-.26l.09-.24-.18-.11-.27.11-.05.32-.21.15.12.14-.33.34-.17-.17-.35.21v.24l-.18.09-.11-.11.08,0,.06-.18-.29-.06-.16.14-.2,0-.1.14.25.08.1.16-.11,0v.23l-.47.14-.2-.07-.38.14-.13.16-.29,0-.48.37-.39-.07-.13.08h-.25v-.25l-.28-.18,0-.33-.31-.18-.39,0-.11-.25-.28-.06-.06,0v.37l-.46.33.07.83.24.19,0,.66.27.23,0,.13-.08,0,0,.57-.32.44-.26,0,0,.13-.37.42h-.22l-.34.47-.34-.14-.12-.2h-.26l-.32.33.14.47-.22.24.16.12v.19l.32.18v.46l.15.41.19.08.15.41.19.08-.18.55-.24.25,0,.19.23.12-.15.84-.14.32Z" transform="translate(-155.2 -139.87)" style="fill: rgb(210, 210, 230);"></path>
   <path name="La Esperanza" data-id="804" id="path6149" class="cls-1" d="M170.79,235.84l.15,0,.18-.15h.38l.18.15-.09.2.11.14.38.15.11-.15.63,0,.13-.13-.13-.14.13-.21s.19,0,.23-.09l.18-.55-.11-.14.13-.62.09,0,.06-.37-.15-.07,0-.16.28-.17.17.07.34-.36L174,233l.09-.15.17.07.2-.29-.15-.29.23-.06.18.06.25-.13h.15l0-.11-.09-.24.3-.36,0-.31.11-.22.16,0,.17-.13-.18-.26,0-.09.31-.14.21-.35.06-.88-.19-.29v-.37l.54-.33.09.26.19-.24.32,0,.37-.11.11-.14.11,0,.3-.31.23-.08.07-.2-.2-.13v-.11l.41-.2.14.15.34-.13.32,0,.2-.14.1.16.33.07.21-.2.2,0,.58-.18.11-.29h.17l.19-.28-.13-.11v-.18l.16,0,.34-.2,0-.46L182,225l.11-.35-.3-.82-.16-.15.05-.51.24-.42.16-.21.41-.08,0-.35-.26.2-.46.07-.22.32-.25.29-.33.58.07.35-.27.17-.5-.61-.6.06.29-.35.22-.05.06-.32-.08-.34-.44-.17v-.22l-.2-.16-.57-.11-.69-.55-.15-.18-.31-.11v.51l-.6.14h-.33l-.26-.39-.26-.05-.18-.17,0-.27-.32,0-.19.16-.35-.12-.23-.22-.7.12-.22.37H174v-.18l-.33.13-.22.4-.25.13-.37-.33,0-.28h-.28l-.07-.06-.17.23-.13-.05-.16.2.19.35.17.17,0,.22.14,0,0,.11-.66,0v.28l.13,0,0,.23-.11,0-.11.31.17.13-.35.32-.12-.19-.5.71h-.1l-.29.71-.36.21H170l-.17.32,0,.26-.7.65.07.21-.45.22-.1.29-.24.06.34.08.18,0-.15.29h-.22v.17l-.88.64-.21-.1-.27.32h-.12l-.16.29-.29.05-.08-.07-.15.15-.44.11-.24-.1-.12.15-.06.33-.65.3-.16,0-.23.21-.37,0-.13-.14-.8-.16-.11-.1.1-.14-.27-.27-.21-.07-.12-.14.05-.26-.18-.44-.34,0-.08.13-.51-.12-.18-.24h-.17l-.18.09-.55-.7.11-.11-.1-.14h-.3l-.11-.19.07-.05-.15-.21-.76-.18-.11-.12-.34.16-.89-.17,0-.16h-.15l-.47.07-.46-.24h-.4l-.88-.31.34.52.26.07.18.32,0,.11.13.09.59.13.46.34,0-.23.25.09.5,0,.48.27.18.2.55-.11.08-.27.39.36v.41l.36,0,.09.14.16.36h.21l.16.36-.07.2.29.55.16,0-.16.3-.34,0-.13.11-.23.07.29.25.43.09.28.36.18,0,.22.31-.09.16.34.36.5.25.14.32,0,.54h-.09l0,.16.16.3.18,0,.14.29.24.09,0,.26-.2.1.15.16V234l.15.08.11-.24h.09l0,.26.22,0L164,234l.05.19.19-.09.09,0,.09.33.3.11.19,0,.31.25-.05.19.64.1v.15l.25,0,.24-.15,0-.11.23-.07.26.23h.3l.11-.16.16.16-.05.15.28.14.26,0,.23,0,.31.26.64-.05.06-.15.17.09.24-.1,0-.1-.34-.21,0-.1.28-.15.16-.19.33,0,.13.31.39.47Z" transform="translate(-155.2 -139.87)" style="fill: rgb(210, 210, 230);"></path>
   <path name="Cachirá" scale="3.5" move="16" data-id="791" id="path6155" class="cls-1" d="M170.79,235.84l-.07.2.13.23.23.11,0,.18-.11.2.15.08.37-.11.18.08.07.24.24-.14v-.15l.13-.07.46,0,.1.26.18-.24.44,0v-.13h.33l.15.16H174v.2l.31-.13.22-.3.24.07.2.23.14,0,.1-.19.41.06.19.41-.16.2.38-.07.05-.11h.29l.11.29-.09.08.31.23.19,0,0-.21.16.06.13-.22-.13-.33.13-.55.39-.33,0-.15h-.15l0-.28-.2,0-.34-.67-.11-.18.16-.29.33,0,.05-.18-.1-.07,0-.11.49-.33L178,233l0-.13.08-.25.48-.26.11-.34.23-.08.36.15.05.29.26.16.18-.11-.07-.13.13-.1.51,0,.11.26.54.08v.23l.56-.36,0-.13.16-.08.5.23,0,.21.35.1.13,0,.6.18h.47l.38.25-.1.06.26.31.13-.34.17-.08.35,0,.41-.33,0-.23.31.25-.09.14.37.3.65,0,.13-.16h.58l.11.25.16-.13.46.09.08.17h.26l.17-.24.24,0,0-.28-.07-.15H189l.05-.13-.1-.16.18-.1.15.12.09-.07.36.07.08.24.23-.11,0-.17.43,0,.26.16,0,.13.18.07.26-.1,0-.13.18,0,.1.18.18,0,.08-.16.19-.07.15.08.3-.28v-.24l-.18-.09-.06-.12.3,0,.24-.5.09,0,.38-.45-.11-.13.24-.44.24-.07.2.18h.16l.13-.33-.29-.37h-.2l-.15.18-.18-.22,0-.35.14-.06,0-.23-.51-.24-.05-.37h-.3l-.47-.52-.22,0-.19.18-.1,0-.06-.51-.33-.35-.06-.95.09-.49-.27-1.07-.38-.34-.18-.4.23-.13v-.26l.17-.17-.06-.52-.58-.64,0-.33-.31-.83-.37-.14.05-.5.21-.09.29-.57-.28,0-.09-.26-.38-.2-.29-.06-.33,0-.08.16.08.13,0,.27-.64,1-.32-.05-.4.29.06.16.24.06,0,.27-.26.28.17.29v.84l-.08.15-.13,0-.09.15v.18l-.14.11-.17,0-.16.22,0,.19-.26.16v.17l-.38-.13-.13-.2,0-.24-.59,0-.16,0-.17.09,0,.24-.26.11-.45-.41,0-.25-.28,0-.25.06-.22-.08-.31-.54-.7-.13-.39.06-.25.43-.05.51.16.15.3.82L182,225l-.19.15,0,.46-.34.2-.16,0v.18l.13.11-.19.28h-.17l-.11.29-.58.18-.2,0-.21.2-.33-.07-.1-.16-.2.14-.32,0-.34.13-.14-.15-.41.2v.11l.2.13-.07.2-.23.08-.3.31-.11,0-.11.14-.37.11-.32,0-.19.24-.09-.26-.54.33v.37l.19.29-.06.88-.21.35-.31.14,0,.09.18.26-.17.13-.16,0-.11.22,0,.31-.3.36.09.24,0,.11H175l-.25.13-.18-.06-.23.06.15.29-.2.29-.17-.07L174,233l.15.31-.34.36-.17-.07-.28.17,0,.16.15.07-.06.37-.09,0-.13.62.11.14-.18.55c0,.11-.23.09-.23.09l-.13.21.13.14-.13.13-.63,0-.11.15-.38-.15-.11-.14.09-.2-.18-.15h-.38l-.18.15Z" transform="translate(-155.2 -139.87)" style="fill: rgb(210, 210, 230);"></path>
   <path name="Arboledas" data-id="786" id="path6160" class="cls-1" d="M196.78,241.08l.18,0,.19.22.25-.11.09-.3.38-.55.2,0,0-.6.32-.29.25.07.21-.23-.19-.24.17-.33-.06-.31s.33,0,.36-.1l.19-.49v-.53l.28-.09.2-.48.13,0,.13-.29-.1-.35-.12,0-.11-.38.13-.05.09-.58-.28-.31-.06-.27-.22-.12.14-.26.33.07.59-.43.07-.41.32-.51,0-.36-.13-.09v-.27l.19,0,.57-.22.29-.45a.57.57,0,0,1,0-.22,3,3,0,0,1,.35-.27v.21l.23.44.39.09.08.18.39.12.49.45-.05.23.4.13.12-.23.31,0,.23-.26.25-.1.15,0,.21-.26.09-.34.31.09.22.59.41.11.83-.26.22-.45.27-.09,0-.27.09-.11,0-1.07-.23-.34.09-.45-.09-.5-.4-.21h-.33l-.1-.25-.75-.16-.22-.31v-.24l-.18-.06.1-.62,0-.41-.27,0-.35.49-.37,0-.37-.33h-.09l-.47.47-.13-.36-.29,0-.41-.29,0,.27-.31.13.12.16-.12.15,0,.26-.79.16-.37-.11-.14-.29h-.46l-.31.35.05.25-.56.24-.31,0-.28.15-.22-.19h-.24l-.77.79-.69.26-1-.11-.13-.24.06-.17-.09-.09-.35.24-.13.27-.22.08-.55.47-.05.24-.59.09-.2-.24H194l-.15.25.09.13-.13.33h-.16l-.2-.18-.24.07-.24.44.11.13-.38.45-.1,0-.23.5-.3,0,.06.12.18.09v.24l-.3.28-.06.2.13,0V233l-.18.29-.16,0-.1.27.07.13-.23.09,0,.16-.13,0,0,.13.29.16v.31l-.11.07.23.55.16.2-.16,0,.08.29.23.43v.4l-.07.09.42.3v.64l-.1,0,.49.47.43-.06.71.33.14-.1.33.41-.11.18.54.37.06.34.45,0,0-.08.18.05.54.56-.06.18.26.19.34-.15.17.31Z" transform="translate(-155.2 -139.87)" style="fill: rgb(210, 210, 230);"></path>
   <path name="XXXX" data-id="" id="path6164" class="cls-1" d="M200.6,247l.24-.15-.13-.37,0-.25.4-.12-.07-.14.13-.29-.14-.07.38-.55-.07-.28.23-.22.11-.45.48-.28.06-.29.69-.4.2-.31.26,0,.84-.44v-.22l.68-.56.4-.08.15-.42h.4l.44-.16,1-.13.22.13.29-.3.09-1.06-.18-.54-.2-.18-.06-.26.17-.16-.13-.1-.36-.32,0-.35v-.35l-.13-.12.1-.18-.16-.22h-.37l-.39-.39v-.22l-.32-.43-.13.09-.17-.06-.17-.38-.16-.13.29-.63.21-.09.21-.27-.07-.31-.13-.07,0-.28.17-.17-.12-.18-.1,0-.1-.43-.27-.14h-.2l-.09-.13.09-.28-.15,0-.25.1-.23.26-.31,0-.12.23-.4-.13.05-.23-.49-.45-.39-.12-.08-.18-.39-.09-.23-.44V231a3,3,0,0,0-.35.27.57.57,0,0,0,0,.22l-.29.45-.57.22-.19,0v.27l.13.09,0,.36-.32.51-.07.41-.59.43-.33-.07-.14.26.22.12.06.27.28.31-.09.58-.13.05.11.38.12,0,.1.35-.13.29-.13,0-.2.48-.28.09v.53l-.19.49c0,.08-.36.1-.36.1l.06.31-.17.33.19.24-.21.23-.25-.07-.32.29,0,.6-.2,0-.38.55-.09.3-.25.11-.19-.22-.17,0-.08.45-.34.53,0,.42.57,1.06.47.19.34.64-.07.33.46.71.63.15.48.58-.11.36.46.22.16-.07.19.16,0,.17Z" transform="translate(-155.2 -139.87)" disabled="disabled" style="pointer-events: none;"></path>
   <path name="XXXX" data-id="" id="path6172" class="cls-1" d="M200.54,250.18l.46,0,.24.18-.06.15-.12,0-.13.24.42.36v.39l.22.21.24,0,.25.28-.05.24.22.31.09.36.35.09.12-.11h.3l0-.34.22-.22.09.11.28,0,.05.21.42.22.18-.2.37-.11.06.19.45.2v-.13l.35-.26.11.09.27-.12v-.5l-.17-.07.13-.33H206l.22-.15-.11-.23.12-.15.13.07h.46l0-.49.11-.2.16,0,.17-.33L207,250l-.06-.3.22-.12,0-.5.29-.18-.08-.28,0-.53.15-.34-.33-.55-.44-.22,0-.31.14-.08-.05-.27-.44-.24,0-.16h-.29l-.3.16-.54-.16-.1-.24-.23.07-.1.28-.29-.06-.15.2h-.25l-.17.39-.42.29-.29,0-.39.14-.6,0-.38-.35.05-.15h-.2l-.17,0-.22-.18.06-.26-.3-.08-.4.12,0,.25.13.37-.24.15H200l0,.21-.32.25.16,1.73-.23.09.23.56.33.12.08.21Z" transform="translate(-155.2 -139.87)" disabled="disabled" style="pointer-events: none;"></path>
   <path name="XXXX" data-id="" id="path6170" class="cls-1" d="M205.58,267l-.37-.31,0-.53-.17-.6-.33-.13.06-.13,0-.29.13,0,0-.16-.33-.06-.18-.2,0-.37.18-.07.46-.66-.07-.38.07-.19.11,0,.11-.73.06-1.25.2-.24v-.4l.32-.31,0-.24.15-.09.09-.22-.18-.13-.08-.58-.11-.09v-.15l.26,0,0-.46.24-.18.09-.35.38-.29.26.15.15-.08.11-.25.23-.2.15.05.18-.07v-.5l.15-.07,0-.31-.22-.17,0-.33.17-.14.05-.7-.31-.12-.17-.33,0-.5.17-.05,0-.27-.24-.15-.17.18-.24-.18V253l-.2,0-.22.09-.4,0-.17-.13.06-.09v-.22l-.19-.07-.27.12-.11-.09-.35.26V253l-.45-.2-.06-.19-.37.11-.18.2-.42-.22-.05-.21-.28,0-.09-.11-.22.22,0,.34h-.3l-.12.11-.35-.09-.09-.36-.22-.31.05-.24-.25-.28-.24,0-.22-.21v-.39l-.42-.36.13-.24.12,0,.06-.15-.24-.18-.46,0-.32,0-.5.29h-.16l-.47.46-.07.24-.2.09-.35-.07-.46.37-.1.46-.16.14.07.63.76.52,0,.33-.21.22.12.26.42.33-.12.53.58.11.21.45.34.07.14-.16.26.14-.07.39-.33.14,0,.58.13.89.49.16,0,.1h-1l-.45.35.18.58-.1,1.69-.68.41-.37.89-.21.23-.23.51V263l.26.42,0,.35.1.2.3-.11.57,0,.37.24.42-.1.14.36H200l.21-.11.38.07.52.74.91.1.31-.19.58.4-.14.46.21.19,1,.41.59.47.35.56.11.6h.28l.44-.63Z" transform="translate(-155.2 -139.87)" disabled="disabled" style="pointer-events: none;"></path>
   <path name="Chitagá" scale="2.6" move="10" data-id="793" id="path6178" class="cls-1" d="M229.73,266.63l-.2-1.26-.51-.22,0-.31-.57-1.36-1.09-.91-.53,0-.19-.15,0-.33-.59-.47-.53-.81-.23-.11-.35.26-.09-.13-.21,0-.2.31h-.14l-.19-.53-.38-.18-.18.2-.41,0-.4-.38v-.33l-.24-.08-.18,0-.18-.15a.91.91,0,0,0,.07-.23c0-.08-.53-1.12-.53-1.12l-.44-.11-.29.33-.81,0,0-.19-.42-.14-.27-.31-.65-.22-.33-.3-.73,0-.49.42h-.37l-.57.33-1,0-.16-.38-1-.22-.55.49-.33,0,.15-.19-.17-.29,0-.2.2,0,.11-.31.36,0,.52-.29.09-.75.29-.33-.09-.33.06-.22.22-.15v-.42l.12,0,.1-.35-.32-.16,0-.59-.2-.49h-.44l-.08-.28.19-.16-.1-.31-.3-.11-.19.29,0,.47-.2,0-.08-.18-.36.09-.44.57-.33,0-.37.48-.22-.06-.07.22,0,.55-.33.37-.13,0-.23.42,0,.36-.35.33-.16-.16-.11.13-.06.33h-.2l-.2-.44-.35-.33-.07-.37-.24-.25-.26,0-.22-.56.22-.13.06-.64-.28-.13,0-.28h-.26l-.14-.66-.28.14,0,.26-.13.27-.37,0,0,.27-.17.05,0,.5.17.33.31.12-.05.7-.17.14,0,.33.22.17,0,.31-.15.07v.5l-.18.07-.15-.05-.23.2-.11.25-.15.08-.26-.15-.38.29-.09.35L206,258l0,.46-.26,0v.15l.11.09.08.58.18.13-.09.22-.15.09,0,.24-.31.31,0,.4-.2.24-.06,1.25-.11.73-.11,0-.07.19.07.38-.46.66-.18.07,0,.37.18.2.33.06,0,.16-.13,0,0,.29-.06.13.33.13.17.6,0,.53.37.31.18.37.5-.13.18-.54.25-.16.77,0,.12.2.42-.11.21-.26.35-.14.42.15-.1.57.26.42.34,1.16.17,0,.21-.61.18-.3.21-.55.44-.07.63.51.79-.07.06-.24.35,0,.49.18.39,0,.46-.44.84-.24.42.12.15.3.45.35-.1.21.13.32-.08.37-.12.15v.29l.29.18.32.13.08.46.17.67-.27.24v.21l-.35.32,0,.88-.14.23.21.14.15.53-.1.52.27,0,.33-.3.21.35.34-.05.4-.34.46.11.23-.09-.34-.35.16-.26.61-.19h0l.29-.55-.2-.18v-.24l.74-.18,0,.25.32.4.4.11.43.63,1.35.44.05.26,1.39.65.48,0,.07.1.74,0,.22-.33,1-.74.41-.09.17.12.36-.07,0-.49.46-.19.89-1.16.51-.18.64-1.42,0-.81.86-1.72Z" transform="translate(-155.2 -139.87)" style="fill: rgb(210, 210, 230);"></path>
   <path name="Toledo" scale="2.3" move="10" data-id="" id="path6183" class="cls-1" d="M230.23,266.84l-.5-.21-.2-1.26-.51-.22,0-.31-.57-1.36-1.09-.91-.53,0-.19-.15,0-.33-.59-.47-.53-.81-.23-.11-.35.26-.09-.13-.21,0-.2.31h-.14l-.19-.53-.38-.18-.18.2-.41,0-.4-.38v-.33l-.24-.08-.18,0-.18-.15a.91.91,0,0,0,.07-.23c0-.08-.53-1.12-.53-1.12l-.44-.11-.29.33-.81,0,0-.19-.42-.14-.27-.31.33,0,.2-.28h.16l.13-.41.16-.23.11.05.46-.26,0-.22-.18-.12-.13-.57.2-.17,0-.67.18-.22,0-.35.2-.13.11-.44-.26,0-.49-.49-.06-.86-.36-.1-.46-1h-.22l-.64-.77-.06-.24s.1.09.11-.07,0-.62,0-.62l-.47-.44-.19-.72a.49.49,0,0,0,.15-.22,1.87,1.87,0,0,0,0-.27l-.22-.13-.13-.29.16,0,.08-.8-.42-.22V245.4l-.31-.6-.32,0-.11-.2-.42-.07-.34.34-.48.08-.15-.13-.18-.06-.4.24-.39-.26-.33,0,0-.76.37-.44.16.08.19-.18-.41-.41-.62-.16-.91-1-.32-.09,0-.33h.16l.13.14.78.1.15-.19h.28l.19-.24.33.11.57-.12.05-.83-.07-.17.25-.28.36,0,.22-.25.31.07.11.26.13.13-.16.18.26.52h.21l.15-.36.23.05.06.59.23.21.41-.16h.21l.36.34-.1.26.05.44.47.21.28.62.7.49,0,.31.28.16.31.85h.13l.37-.34.7.11,1.49,0,1.12.17.53.4,1.31,0,.47.19.86.78.28,0,.73-.59.11-.34h.63l.68.42.55,0,.23.15.78-.08.28-.23,0-.13.21-.11h.71l.22-.29.74.08.31.42.45-.1,0,0,.21.12.15.53.36.09.14.95.79.87.61.35.21.4-.11.3-.17,0-.17.19.17.3-.4.93-.21.25,0,.34.19.34-.17.59-.14,0-.17.49,4.25,7L243,263.6l.42,1.23-1.44-.46-.12-.21h-.35l-.55.44-.37,0-.39.41h-.51l0-.14h-.28l-.42.21-.28-.22-1.13-.09-.32-.34,0-.21-.74-.47-.74.05-.56.37,0,.63-.42.55v.7l.21.33-.23.15-.17-.06-.46.32-.26.75-.34.22,0,.32-.94,0-.18-.21-.28-.07-.16-.16.16-.29.09-.43.12-.11,0-.25-.47-.15h-.53l-.17-.18-.65.26Z" transform="translate(-155.2 -139.87)" style="fill: rgb(210, 210, 230);"></path>
   <path name="Rangovalia" scale="8.5" move="14" data-id="813" id="path6193" class="cls-1" d="M220,230.87v.22l-.25.19-.09.31.18,0,.18.8.06.67.39.76.37.54.23,1.26-.41.62-.42-.24-.37.15-.24-.19-1.31-.14L218,236l-.37-.09-.22.06-.09.13-.4,0-.24-.44-.18.08,0,.6-.3.15-.32-.1s0-.33,0-.38-.58-.84-.58-.84l0-.79.26-.2.24-.34.14,0,.09-.15-.44-.37-.07-.29s.18-.15.18-.2.17-1,.17-1h.43l.82-.37v-.24l.27-.15-.1-.29.64.07.17-.21.25.09.14.39.25.06.77-.44.32,0Z" transform="translate(-155.2 -139.87)" disabled="disabled" style="pointer-events: none;"></path>
   <path name="Herrán" scale="8.3" move="10" data-id="802" id="path6188" class="cls-1" d="M220.65,236.29l-.42-.24-.37.15-.24-.19-1.31-.14L218,236l-.37-.09-.22.06-.09.13-.4,0-.24-.44-.18.08,0,.6-.3.15-.29-.09-.22.34-.36.2.25,1.05.28.14.09.37.2.22-.2.11,0,.18.31.17.29.41.31.08.11.26.13.13-.16.18.26.52h.21l.15-.36.23.05.06.59.23.21.41-.16h.21l.36.34-.1.26.05.44.47.21.28.62.7.49,0,.31.28.16.31.85h.13l.37-.34.68.11-.54-1v-1.19l-.32-1.23-.45-.28-.12-.52-.3-.23-.43-.05-.3-.39,0-.14.1-.09.11-1-.12-.21-.17-.41.34-.34.36-.53.14-.56Z" transform="translate(-155.2 -139.87)" style="fill: rgb(210, 210, 230);"></path>
   <path name="Villa del Rosario" scale="7" move="3" data-id="" id="path6198" class="cls-1" d="M219.91,230.59l0-1,.12-.08-.08-.41-.24-.41.1-.19,0-.6.32-.52-.24-.68-.12-.07.08-.22.22-.22,0-.19-.06-.14v-.64l-.16-.65L220,224l.16-.29V223l-.08-.09.1-.45.55-.57.33-.55.13-.69-.07-.37.09-.76.11-.29.12-.08-.12-.24-.21-.08v-.17l0-.05-.07-.31-.35-.27-.18-.64-.14.34.1.5-.25.13h-.15l-.27.47,0,.23-.11,0-.26-.4-.17.16-.12.09-.27.58.3.43h.2l.06.18-.12.19,0,.46a1.27,1.27,0,0,0-.17.27s.09.43.09.43l.13.07.06.25.09.11.07.35-.11.31.15.2-.33.37,0,.25-.18,0-.24.13-.2-.06-.15.06-.18.2-.17,0-.11.09.31.35h.3l.13.27.23,0-.12.26-.39.16-.09,1.17-.15-.05-.12.24v.67l-.16.13v.39l.11.16-.07,1.06-.21.17-.31.27-.29,0s0,.27,0,.38.13.18.13.18l0,.63-.22.14.07.44.64.07.17-.21.25.09.14.39.25.06.77-.44.33,0Z" transform="translate(-155.2 -139.87)" style="fill: rgb(210, 210, 230);"></path>
   <path name="Cúcuta" scale="2" move="10" data-id="785" id="path6131" class="cls-1" d="M219.42,187.87l-.12-.13-.38-.06.05.21-.19.33-.59.15.08.16,0,.23-.41.17-.08.15.17.18-.06.15s-.25-.14-.29-.15a3.7,3.7,0,0,1-.4-.34l-.12.21.14.4.23.09-.09.16,0,.64-.17.51-.25.13-.15.68.16.16-.18.2,0,.76.32.32v.35l-.25.14,0,.35s-.13-.11-.18-.11h-.24l-.86-.89-.18-.6-.32-.39-.36-.17v-.1l.2-.17-.2-.37-.14,0V191l-.28-.23-.21,0-.22-.09-.08.2.11.16.14.32-.14.09.11.22-.19.28-.1,0-.13.2.21,0v.21l-.13.06.17.19-.13.37h-.14l-.23-.29-.17,0L213,193h-.23l0,.16.16.2.15.12-.08.23-.18.06.13.55.15.1-.21.25-.25,0v.18l.12.06v.24l.25.26.51,0,.11.1.66,0,.25,0,.57-.05.05-.26.28.13.18.25.25-.05-.12.4-.06.07v.42l-.27.6-.22.25.07.71.12.06v.1l-.15.24.11.05v.21l-.11.09,0,.32.13.07,0,.22.36,0,.45-.3.05-.17h.22l.28-.3.12.2.16.08.07.11-.18.05-.16.43.08.26.19.13v.11l-.29.07-.1.27.21.2,0,.14-.28.17.24.21-.32.15v.09l.21.1,0,.26-.13.1.18.18.16-.1.16.16-.13.09,0,.26-.18.06-.21.36,0,.18-.19.05v.21a.44.44,0,0,0,.16.08c.06,0,0,.26,0,.26l-.13.1-.15.26H216l-.36.36-.26.47-.3.15-.18,0-.14.08,0-.15-.26.08-.23.17-.13,0-.13.34-.24.15v.16l.17.15-.07.26-.14.13v.34l.28.25,0,.16-.32.18v.15l.13.23v.16l.1.24-.15,0,0,.21-.21.16,0,.51,0,.05.11.27.26.15,0,.23-.11.49-.23.2v.44l-.21.24-.13.44.16.2.21.6-.11.13-.23.7-.13.2.39.62v.19l0,.12v.21l.31.26,0,.65-.13.33-.21.18v.29l.09.33.3,0,0,.16-.26.21.13,0-.11.34-.17.19.36.24h.17l.14.15.38-.48h.11s0,.21,0,.21l.15.07.19,0,.22-.32.13.15.42.23.14-.15.21.17-.21.11,0,.12h.34l0,.28-.32.17,0,.3-.16-.12-.14.1v.3h-.1l-.17-.05-.14.22-.06.49-.35.11-.22.36-.42.21-.11-.07-.23.39.13.72h-.05l-.07.35.47.25,0,.3.31.27.29,0,.16.13-.08.2-.13.07,0,.59-.26.2-.22.39-.25.36-.29,0-.08.25,0,.27-.17.08.05.19-.27.13.47,1.11.33.11.2-.09.38-.48.18,0,0-.11.39-.31.35-.08,0,.07.09-.12.46-.21.21-.36-.07-.43.38-.39.27-1-.13-.2-.05-.44.2-.89-.06-.27.14-.54.39-.37.17-.06.23-.32.11-.52.12-.48.37-.21.08-.06h.11l.17.17.26,0,.11-.09.17-.16.26.4.11,0,0-.23.27-.47h.15l.25-.13-.11-.49.15-.35-.23-.75-.06-.32.15-.13,0-.1-.17,0-.42-.56-.39-.09,0-.2h-.21l-.36-.43.44-.52.19-.24.34-.22.12-.22.21-.16h.23l.47-.1.27,0,.27-.13.17-.33.22-.14v-.32l-.11-.07,0-.1.17-.13.13-.33.36.17.12.17.37-.51.14,0,0-.15-.15-.25-.08-.05,0-.25.29-.58.16-.06v-.13l-.08-.1v-.26l-.08-.05.21-.16.57,0,.21.14.23,0,.22-.19.32,0,.14.14.24,0V210l.4.33h.26l.12.19.05.25.63.27.1.23.13-.26-.19-.57-.32-.32V210l.34-.48.09-.09V209l-.14-.51.2-.36-.34-.62.11-.3-.24-.66s-.33-.16-.51-.27-.54-.35-.54-.35l0-.52-.18-.09.27-.44.66-.21-.34-.82-.27-.34.22-.52.58-.21v-.53l-.71-1.38.3-.11-.21-.3-.62,0-.06-.21.47-.05V200a1.35,1.35,0,0,1-.52-.44l.09-.52-.3-.37.18-.25-.25-.34-.22-.21.34-.2-.05-.28-.3.07v-.38l-.28.09-.13-.23.32-.53v-.15l-.28,0-.06.17-.17.11-.28,0v-.07l-.34.14-.05.2-.23-.1.09-.2.31-.27v-.23l-.1-.05-.08-.15.12-.17-.21-.16-.23.09-.12-.07.07-.16h.2l0-.16.1-.08-.13-.21h-.2l-.15-.24v-.22l.19-.12-.06,0h-.26l-.11-.11.05-.15-.18-.1-.2.11-.28-.12v-.22l.15-.11-.05-.1-.45.08-.11.16h-.09l-.11-.14.15-.3.31,0,.39-.25-.09-.33.19-.18,0-.19.16-.19-.08-.13-.13.16h-.14l0-.4.41-.06,0-.25-.23-.08-.31.09-.19-.13-.05-.22.3-.12.12.09.22.08.28-.22-.15-.38.08-.27h-.45l-2.25-2.59Z" transform="translate(-155.2 -139.87)" style="fill: rgb(210, 210, 230);"></path>
   <path name="XXXX" data-id="" id="path6104" class="cls-1" d="M193.06,151.24l0,.31-.21.18.16.31v.31l.27.09.07.18.36.07.14.11.31,0,.2.34.15.1.16.37-.16,0v.14l-.46.26-.2.23-.14.13.06.15-.24.21-.15,0-.13-.08-.55,0c-.07,0-.26.27-.26.27l-.07-.14h-.24v-.16l-.2-.23h-.13l-.31.05-.11-.18,0-.3-.21-.19L187.29,157l-.06.57-.1,0,.16.18-.18.09.07.27.23.11-.31.2,0,.4-.15.18.15.16-.07.49.13.38-.06.29h-.21l-.15,0,.08.27h.39v.3l.25.37-.08.46.19.14,0,.23.34.08-.13.44.15.26.08.15-.31,0,0,.14-.21.2.24,0v.13l.12.07.21-.12.4,0,.22-.22.57-.24h.39s.59-.22.68-.27.07-.21.07-.21l.18-.25.24,0v.18l.16.19h.24l.14-.2.16.08v.14l.53-.21h.37l.07.17-.16.19,0,.26.13.17-.19.08-.05.24-.11.07.39.18h.29l.1.13-.07.11.23.16.28,0,.31.37,0,.51-.29.41-.29.24-.1.33-.26.19.05.3.16.06.08.1.2,0,.31.28v.23l.13.11h.28l.11.34-.11.3-.21,0-.12-.16h-.24l-.21.31v.62l-.19.13v.16l.13.08,0,.2.26.22h.18l.25-.17H194l.07.11-.08,0v.21l.18.13v.34l-.12.15c-.11.15.07.29.07.29l.24.07.17.21.27,0,.17.06,0,.18.17.46.23.15.09.17-.08.12h0l-.05.24h-.19l-.05.21.23.22-.07.09.23.18.15-.05v.23l-.16.12-.23-.15-.06-.1-.13.12,0,.34.11.08.17.26-.07.28.23.28h.26l0,.13-.17.13-.19,0V175l.08.13-.17.16.11.21.23,0-.08.26.18.06.13.21-.15.22-.31,0,.18.18,0,.26.16.11V177l.15.19.11.49-.2.08.05.25.18.09-.05.26-.11.12-.21.42-.39.3-.18,0-.18.19-.22-.06-.26.15-.14.18-.26-.25-.33-.1-.21-.23,0-.19-.25,0-.11-.05-.3.1-.14.13-.64.13-.18.11h-.24l-.53.24-.06.28-.23,0-.24.27-.61.43v.37l-.13.08.1.15.14.09v.13l.31.12.23.38,0,.18.69.7.06.72,0,.16.4.76.26,0,.26-.15.17.1,0,.2.22.48.33.19.27.05.09.12.11-.14.31-.09.22,0,.17-.13,0-.67.22-.17.14-.62-.35-.22.22-.37h.42l.19-.31.09.2.35-.07.07-.24.33.06.28-.19.62.26,0,.37.34,0,.11.48.33.11v.22l-.11,0,0,.17-.1.23h-.07l-.33.36.13.18-.15.33-.22.26v.43s.27,0,.33.05.11.18.11.18l.21,0-.06.19-.22,0v.23l-.19.14.16.42.47,0,.26-.07.67-.08.13,0,.28.24.25-.1.22.38-.06.22.19.27.42.1,0,.16.26.07.19-.11-.08-.19h.3l.07.1.16,0,.24-.26h.2l.23-.2.12,0,0,.1h.76l.07-.18.41-.25.36,0,.37.37h.53l.3.1,0,.16.26.21.88-.44h.36l.41-.23,0-.14.49-.19.25.2.4-.22.15-.25.21.05.15.28.4.18,0,.19.2.06.19-.21.35.15v.22l.62.57.24-.18.25,0,.27.09.24-.08,0-.3.13-.08-.17-.08.13-.22.2-.07v-.18l.16-.09.19,0,.29-.43,0-.14.21-.3.08.25.14,0,0,.19.2.15-.08.18-.15.06.15.21.14,0,.09-.11.1,0a2.24,2.24,0,0,0,.09.3.78.78,0,0,0,.2.09v.16l-.16.08v.21l.16,0v.17l-.11.17-.17,0,.06.14h.15l.07,0,.14-.08.23.43.15,0-.07.15h-.13l-.07.12-.32,0-.21.36-.17.13,0,.26.21.11-.07.09-.17,0-.2.19v.18l-.2.28,0,.19h-.12l-.27-.27-.24,0,0-.07-.11,0-.1.12-.31.08-.1.27-.22,0-.56.34-.05.22-.29.15-.46,0-.05.2-.15,0-.11-.11-.69,0-.34.26h-.21l-.15-.07-.21.06-.2.29-.16,0v.25l-.22-.11h-.14l0,.09-.15.05,0,.15.25.12.08.18,0,.13-.2.06.18.13h.18l.12.1h.24l-.08.17h-.16l-.21.11-.16,0,.11.18.26.08-.08.09-.21.08,0,.12-.25,0-.07-.11h-.29l0-.1-.41.12-.18.24-.12,0,0,.15.06.18-.06.23-.18.09,0,.23-.11.31.22.23v.06l-.09.06.13.11.25,0,.32.18.11.26.17.27h.19l.16-.24,0-.43.4-.21h.08l.17-.19,0-.26.29-.25v.15l.33.08.1.21h.19l.1-.23a1.91,1.91,0,0,1-.06-.27c0-.07.24-.31.24-.31l.18,0,.18.14.29-.15.07-.57.23-.15.13-.15h.26l0,.18.29.07.18.28.44-.07.15-.36-.09-.32.15-.2.16.05.2-.05.11.12v.08l.31.05.1-.28.16-.1.07.16s.13.07.18,0l.26-.32.15-.07.09.1.14,0,0-.19.31-.11-.17-.2,0-.16H213l.07-.23.17,0,.23.29h.14l.13-.37-.17-.19.13-.06v-.21l-.21,0,.13-.2.1,0,.19-.28-.11-.22.14-.09-.14-.32-.11-.16.08-.2.22.09.21,0,.28.23v.23l.14,0,.2.37-.2.17v.1l.36.17.32.39.18.6.86.89h.24c.05,0,.18.11.18.11l0-.35.25-.14v-.35l-.32-.32,0-.76.18-.2-.16-.16.15-.68.25-.13.17-.51,0-.64.09-.16-.23-.09-.14-.4.12-.21a3.7,3.7,0,0,0,.4.34s.29.15.29.15l.06-.15-.17-.18.08-.15.41-.17,0-.23-.08-.16.59-.15.19-.33-.05-.21.38.06.12.13.28-.29-7.53-8.69-.15-.34-.46.12-.12-.16-.39-.07.42-.23-.07-.28-.37-.09v.41l-.36-.43-.37-.09-.53-.25-.08-.39-1.12-4.56-.18-1.31.2-.48-.16-1-.27-.3-2-10-2.59-8-.34-.21.09-.25.46-.22v-.12l-.58.07-.13-.18.63-.17-.18-.29-.39.14,0-.12v-.43l-.59-.09.06.64-.61,0-.12-.28.25-.43-.07-.23h-.36l-.21.25-.31-.18.38-.46-.38-.43-.32-.05-.32-.16-.05.34.18.48-.38.3-.58-.18-.13-.48-.42,0-.11.26-1-.07-.55-.32-.34.23.14.34-.23.48.55.22-.43.55-.37-.13-.14.36-.47-.07-.51.32-.39-.13v.38l-.48.32-.21,0v-.37L194,151l-.39.14Z" transform="translate(-155.2 -139.87)" disabled="disabled" style="pointer-events: none;"></path>
   <path name="Convención" data-id="794" id="path6099" class="cls-1" d="M172.53,187.85l0-.28.43-.43-.05-.37s.05-.47.15-.52l.32-.17.05-.42.26-.26,0-.25.33-.24v-.16l.13-.12.07.21.27,0s.14-.52.22-.52l.47,0,.16.11-.06-.21a2.57,2.57,0,0,1-.26-.42c0-.07.09-.49.09-.49l-.26,0-.11-.21.24-.36-.24-.08h-.2v-.5l.1-.12v-.49l.15-.11-.33-.31-.6-.13-.12-.25.05-.35-.22-.18,0-.28.19-.13.1-.65.38-.33.13-.47-.23-.16.21-.17.12-.62.09-.09,0-.33.56,0,.08-.15.29-.08.15-.26.18,0,0-.37.31-.42.38,0,.13-.34L177,175l.21-.37,0-.62.07-.39.37-.11-.06-.18v-.49l-.19-.15-.07-.57-.08-.07s-.05,0,0-.08a.93.93,0,0,1,.24-.14l0-.41-.11-.18.06-.31.23-.08.24-.34h.22l0-.25.05-.13.07-.32-.18-.28v-.23l.29-.1v-.37l.24-.39.21-.23,0-.18.24,0,.13-.28-.08-.22.13-.15,0-.33-.15-.14v-.1l.74-.47.22.08s0-.18,0-.25.29-.31.29-.31l0-.26.18-.26.41-.49.32-.1.16-.31.58-.4.26.08v-.18l.2-.2v-.19l-.1-.18-.08-.38.26-.19.2.19.13,0v-.2l-.22-.33,0-.27.39-.28.36,0,.15-.21v-.46l-.36-.16-.26.08-.21-.1v-.24l-.17-.29-.29.06-.36-.54.2-.22,0-.44-.12-.12v-.55l.41-.2v-.36l.18-.11.16.08.19-.18-.18-.24.05-.26a.56.56,0,0,0,.18-.1,4.09,4.09,0,0,0,.25-.33l.18-.11-.13-.28.16-.23,0-.29a.51.51,0,0,1-.06-.24c0-.09.26-.22.26-.22l0-.34.36-.29.23-.18v-.47l.35-.51.23-.06.44-.38.67-.18.18.12.21,0,.15-.11.34-.08.25,0v-.28l0-.21,0-.28.52-.23.24.05.22-.34.23-.11.37.29,0,.19.15.53.16.08.07.13.41,0,.08.12.54,0,0-.23.26-.21-.08-.23.15-.29.31.1,0-.21-.14-.13,0-.12.31-.05-.11-.23-.25-.11-.05-.28.2-.16v-.2l-.17-.08.13-.21-.12-.68-.13-.12-.13.08-.34-.24.29-.1v-.11l-.16-.17v-.11h.24l.1-.24-.13-.15.2-.15,0-.16-.15-.08-.08-.21h.31l.1.14.37.15v-.16l.18-.05.36.12h.19l.47-.44.72-.34s0-.62.05-.71.41-.36.41-.36V146l-.43-.14.05-.79-.4-.37.19-.32-.78-.25-.27-.37-.32.11,0-.34.35-.14-.14-.8.18-.25-.07-.23h-.54l-.09-.43.25-.37-.1-.29-.59-.13-.73.4-.19.23-.3.18v.21l.25.2-.15.27-.2,0,0,.16.1.24-.29.25h-.59l-.15-.15-.36.18v.24l-.3.17-.11.34-.39.08-.13-.08-.22.21.07.51-.21.09.11.46-.14.49.16.06-.13.51-.18.13.1.1-.05.24.34.23h.15s.31.39.39.41.1.44.1.44l.29.16,0,.08h-.44l-.09.15.11.13,0,.26h-.17l-.24-.08-.18.15-.05.14-.24,0c-.22,0,0-.18,0-.18h-.21l-.49.49h-.21l-.16-.16-.33.11-.18.34-.34-.19-.07-.13h-.16l-.08.22-.26.11v.18l.28.15-.09.11-.45-.05,0-.08-.15,0-.13.14-.13-.18-.24-.11-.12.16.13.2-.31.08,0,.1-.13.18-.23-.18-.11.08.08.26-.41.1-.09.22-.17.09.12.34-.17.1-.23,0-.37.21,0,.16-.29.18,0,.36h-.23l-.21.13,0,.19-.06.2.14.19-.06.12-.21-.15v-.16l-.54.1,0,.21-.28-.13-.14.06,0,.34-.13.09,0,.35-.23.27-.26.08v.18h-.13l-.17-.22-.11.23v.21l-.38.18v.2l.19.11V155l-.21.07,0,.14-.34.1.17.23,0,.19-.3.08V156l.11.2,0,.39.41.6.11.39-.31.1v.13l.11.15-.19.18v.14l.22.17,0,.19-.32.12,0,.19-.13.1.15.36-.28.06-.08.35-.26.39.18.09v.22l.17,0,.18-.21,0,.36.41.28-.2.13.08.28.26.06.09.2-.28.14.06.13.12.09v.39l.15.11V163l.13,0v1.24l-.23,0-.05.1.08.16-.38.07-.08.13,0,.14-.23.25-.15,0-.15-.24-.32.13v.13l-.13.08-.18,0-.26.11-.13.11-.39,0-.12-.11-.34.09-.12.22-.27.19,0,.18.16.13-.1.44-.16.12v.34l.33.37-.1.2.05.44,0,.37-.35.23.28.12.08.26-.15.44h-.14l-.39.33v.5l-.13.08.3.33-.07.15L174,171l-.1.23-.21.1,0,.23.28.13-.15.22-.16.1.11.3.18,0,.22.16-.25.23,0,.34.13,0,.09.22-.1,0-.08.26.16.23-.29,0-.51.31-.39.69-.46.26h-.16l0,.11h-.16L172,175h-.06l-.13.16-.26,0,0,.19h-.13l-.22-.14-.09.21-.37.28-.34-.05,0-.17h-.08l-.25.35-.06.66-.17.12.18.29.25.13v.26l.48.62-.09.52.15,0,.25.22-.15.17h-.2l-.14.26.06.2-.11.13h-.25l-.08.41-.28.21-.32,0-.18.27v.28l-.69.49.05.55-.1.1V182l-.31.24.33.15,0,.7.31.2-.35.27-.1.54-.2.16,0,.43.16.11-.11.52-.23.17.24.46-.07.19.11.21.5.08,1.08-.31,0-.26.15-.12V186l.34.23.75,0,.31.33,0,.24.6.77.15,0Z" transform="translate(-155.2 -139.87)" style="fill: rgb(210, 210, 230);"></path>
   <path name="El Carmen" data-id="797" id="path6054" class="cls-1" d="M164,188.12l.12.08.58-.35.21.08,0,.52-.15.08v.26l.44.37.3-.06.06-.46.45-.22v-.12l.15-.08.13-.2.24-.06.14.16.45.06.69-.48.56,0-.24-.18-.12-.9.26-.41.08-.2-.24-.46.23-.17.11-.52-.16-.11,0-.43.2-.16.1-.54.35-.27-.31-.2,0-.7-.33-.15.31-.24v-.23l.1-.1-.05-.55.69-.49v-.28l.18-.27.32,0,.28-.21.08-.41h.25l.11-.13-.06-.2.14-.26h.2l.15-.17-.25-.22-.15,0,.09-.52-.48-.62V177l-.25-.13-.18-.29.17-.12.06-.66.25-.35h.08l0,.17.34.05.37-.28.09-.21.22.14h.13l0-.19.26,0,.13-.16H172l.12.16h.16l0-.11h.16l.46-.26.39-.69.51-.31.29,0-.16-.23.08-.26.1,0-.09-.22-.13,0,0-.34.25-.23-.22-.16-.18,0-.11-.3.16-.1.15-.22-.28-.13,0-.23.21-.1.1-.23.13-.11.07-.15-.3-.33.13-.08v-.5l.39-.33h.14l.15-.44-.08-.26-.28-.12.35-.23,0-.37-.05-.44.1-.2-.33-.37v-.34l.16-.12.1-.44-.16-.13,0-.18.27-.19.12-.22.34-.09.12.11.39,0,.13-.11.26-.11.18,0,.13-.08V165l.32-.13.15.24.15,0,.23-.25,0-.14.08-.13.38-.07-.08-.16.05-.1.23,0V163l-.13,0v-.51l-.15-.11V162l-.12-.09-.06-.13.28-.14-.09-.2-.26-.06-.08-.28.2-.13-.41-.28,0-.36-.18.21-.17,0v-.22l-.18-.09.26-.39.08-.35.28-.06-.15-.36.13-.1,0-.19.32-.12,0-.19-.22-.17v-.14l.19-.18-.11-.15v-.13l.31-.1-.11-.39-.41-.6,0-.39L177,156v-.15l.3-.08,0-.19-.17-.23.34-.1,0-.14.21-.07v-.15l-.19-.11v-.2l.38-.18v-.21l.11-.23.17.22h.13V154l.26-.08.23-.27,0-.35.13-.09,0-.34.14-.06.28.13,0-.21.54-.1v.16l.21.15.06-.12-.14-.19.06-.2,0-.19.21-.13h.23l0-.36.29-.18,0-.16.37-.21.23,0,.17-.1-.12-.34.17-.09.09-.22.41-.1-.08-.26.11-.08.23.18.13-.18,0-.1.31-.08-.13-.2.12-.16.24.11.13.18.13-.14.15,0,0,.08.45.05.09-.11-.28-.15v-.18l.26-.11.08-.22h.16l.07.13.34.19.18-.34.33-.11.16.16h.21l.49-.49h.21s-.18.15,0,.18l.24,0,.05-.14.18-.15.24.08h.17l0-.26-.12-.13.1-.15h.44l0-.08-.29-.16s0-.43-.1-.44-.39-.41-.39-.41h-.15l-.34-.23.05-.24-.1-.1.18-.13.13-.51-.16-.06.14-.49-.11-.46.21-.09-.07-.51.22-.21.13.08.39-.08.11-.34.3-.17v-.24l.36-.18.15.15h.59l.29-.25-.1-.24,0-.16.2,0,.15-.27-.25-.2v-.21l.3-.18.19-.23.73-.41.09-.61-.29-.24-.9.32-.08.33-.35-.26-.29.14.09.16-.42.57.16.5-.56,0-.19.07-.11-.2-.62-.07-.21-.09-.31.86.54.37-.63.09-.51.37,0,.64-.23.06-.17-.27-.92-.07-.3-.16-.18.23-.61.09-.05.5-.78.32-.41-.06-.09.2.32.19-.11.43-.58.28-.2.54-1.48.48-.66-.3-.11-.11-.41.06-.4.28-.52.09-.91.6-.09.24-1-.06v-.16l-.43,0-.27.23-.82-.5,0-.27-.23-.07-1.08.31-.07-.16h-.45l-.5-.25,0-.09H172l-.75.44-.35-.3-.25.27.08.44-1,.52-.73-.65-.61.58-.08,1.15-.49.31-.29,1,.09.56.48.34.29,1.17-.21.62.33.22,0,.18-.39.25,0,.91-.35.3.19.69-.37.38-.66.78.12.31-.12.41,0,.21.13.15v.63l.26.61-.12.21.2.3v.44l-.07.15,0,.37-.11.55-.27.12,0,.32.6.21v.58l-.17.14-.09.83-.26.27-.57-.15-.07.33.34,1,.78.67-.27.73.11.74.16.18.12.58.36.58h.33l.11.34-.35.16-.07.35.09.15s-.14.31-.19.32-1,0-1,0l-.84.59-.45.11-.45.77-.35,1,.16.4-.23.4h-.26l-.34.3-.14-.22-.3.66-.24.09-.2-.08-.26.2.06.33-.33.34-.14.05-.1.14.1.06.07.41-.11.1-.36,0,.07.56.16,0V176l-.38.64-.62.47h-.28l-.4.52.17.09,0,.22-.2.11.2.22-.15.4.35.11.11.2-.48.39-.1.32.2.12.05.37-.14.16.13.21h.44l-.06.31.23.34.25,0,.27.24-.07.15.14.23.39,0-.11.3.25.24-.07.14h-.38l-.32-.19-.26.06-.18.28L161,183l-.59.63-.78.1-.19-.2-.34.2-.13.49.27.08,0,.18.33.17.13-.2H160l.14.54.31,0h.17v.41l.3.13.92-.3.17-.23.71-.07.29.24.23-.1h.31l.66.61.19-.12h.2l.18.27-.07.15.16.12v.75l-.9.84Z" transform="translate(-155.2 -139.87)" style="fill: rgb(210, 210, 230);"></path>

</svg>