<svg id="Capa_1" data-name="Capa 1" xmlns="http://www.w3.org/2000/svg" viewBox="0 0 210.3 127.61">
   <defs>
      <style>.cls-1{fill: #ebebef;;stroke:#fff;stroke-miterlimit:3.86;stroke-width:0.25px;}</style>
   </defs>
   <path name="XXXX" id="path3716" class="cls-1" d="M123.11,198.33l1.47-3.05-.25-.11s-.32-.07-.3.05a1.38,1.38,0,0,1,0,.14l-.11.14-.47,0-.33-.19,0-.28-.21-.12-.24.16-.51,0-.38-.35.19-.12-.16-.25,0-.26,0-.12h-.21l-.37-.37,0-.52.21,0,.17-.33-.26-.21,0-.28-.18-.14-.28.19-.29,0-.35-.35.17-.16-.07-.35-.21.07-.33-.26-.23-.09.09-.21-.19-.33-.28.12-.37-.1-.19.1-.4,0-.12-.37-.11-.08-.19,0v-.24l15.39.55.64.11.46,0,.4-.24,0-.21.21-.12.09-.74,4-.14,4.23.14.14.19.23-.08.3.4h.53l.39.51.09-.05.29.18.09.35.19.18,0,.3.15,0,.48.53.25-.07.3.4,0,.15.23.16.23-.07.38.37.23,0,.62.67.11.5.43.53.22,0,.11.25,0,.25.13.4-.08.29,0,.48.33.35-.1.6.21.18-.16.38-.18.13.11.23-.16.25-.15-.05-.1.23-19.89,4.12-.19-.28-.49-.1v.28l-.44.28-.28-.11.14-.4,0-.12-.37-.07-.28-.18.07-.57h-.52l-.19-.35.45-.16v-.54l.21-.07.12-.3-.52-.12,0-.28-.35-.19-.3.12-.23-.16-.43-.05-.46.07-.24-.26,0-.28-.47-.19-.19-.3-.28-.07-.26.16Z" transform="translate(-90.66 -147.29)" disabled="disabled" style="pointer-events: none;"></path>
   <path name="XXXX" id="path3272" class="cls-1" d="M124,218.4l-2.63-10.68-.49.1-.53-.14-.33.14,0,.19-1,.4-.1.27-.9-.14-.66.24-.56-.14-.23-.49-.73-.15,7.18-9.67h.4l.26-.16.28.07.19.3.47.19,0,.28.24.26.46-.07.43.05.23.16.3-.12.35.19,0,.28.52.12-.12.3-.21.07v.54l-.45.16.19.35h.52l-.07.57.28.18.37.07,0,.12-.14.4.28.11.44-.28v-.28l.49.1.19.28L149,198.44l.42.18.13.31-.22.47.27.27.87-.11.18-.18.63.38,0,.38.47,0,.18-.25.49.27.12.29.44,0,.07-.31-.22-.18.09-.22.31-.14-.11-.18h-.27l-.29-.31.18-.74.2,0,.25.31h.26l0-.31.53,0,.23.36h.45l.06.4.34,0,.16.42.29-.25.4.3,0,.26.25.16.11-.47-.25-.29.3-.18.29.14.2,0-.09-.45.38,0,.25.34.31-.12.31.16-.09.22-.36.05.25.16-.16.2.21.15.42-.2.27.25-.25.29.47,0,.29-.13.56.27.16.53-.27.27.16.14.31-.16.16.16,0,.22.34.23v.33l-.34.18.14.22.49-.09.27.3.22-.16,0-.2.27-.07.38.09.06.29h.32l.11.2-.25.16-.49,0,0,.27.65,0,.38-.18.32.07-.05-.41-.27-.22.07-.27.6-.11.25.36-.34.49.21.2.38-.16-.18-.29h.47l.33.34.25-.29.36,0,.27.4-.32.14.14.24h.36l.06.38-.18.23H166l.07-.11.24-.05.09.57,0,.25.45.17.11-.19-.26-.12,0-.14.54-.09.6.49.19-.07.26.12v-.31l-.28,0,0-.21.42-.26.28.19.17-.07,0-.33H169l.14-.1-.14-.21.17-.14.23.24,0-.33-.24-.16.14-.24.47.1-.12-.24.17-.16.32-.05.07-.14.4.21-.12.19.08.4.25-.21H171l0,.51.17.05,0,.28.38-.1.28.31-.05.26.28.21L172,205l.18.14.24,0-.1-.25.24,0,.07-.18.39,0,0,.33h.35l.26-.19.16.05-.07.4.33.14-.1.42.26.19h.28l.35.37-.16.24.33.21.3-.12.21.33.28-.12.31.42-.19.07.14.49.35.19.26-.28.28.65-.16.5.16.09.47-.21.14.37-.26.12.09.42-.39.23.3.24.37-.14.24.28-.24.19,0,.42-.19.28.52.23.47-.3.32.21.05.3.42.24h0l-23.44,3.66-.3-.43-.74.18-.3.45-.6.29-1,.13.09-.64-.58-.43-.85.7H151l-.31-.35.26-1-.51-.59-.62.63-.66-.37-.35-.68-.09-.71-1-.56-.42-.14-.39.4,0,.28-.54.19-.39-.5-.43-.07-.74.78-.31,1.42-.54.87-.72.21-.54-.37,0-.52-.75-.3-.42.49-1.08.37h-.7l-.21-.33-.14,0v9.31l-.31.33-.63.23-.51.07-.1-.35.29-.21.25-.42,0-.44-.47-.26-.47.31.1.35-.52.58-1,.19-.75,0-.82-.33-.44,0-.26.23-.8-.12-.67-.54,0-.51-.64-.27-.44.33-.53.46-1,.32-.29.37,0,.41-.3.54h-.45l-.56-.61-.91-.26-.52-.4v-.56l-.15-.33-.3-.28-.6.06-.38.25Z" transform="translate(-90.66 -147.29)" disabled="disabled" style="pointer-events: none;"></path>
   <path name="XXXX" id="path3290" class="cls-1" d="M199.1,208.88,179.29,212l-.42-.24-.05-.3-.32-.21-.47.3-.52-.23.19-.28,0-.42.24-.19-.24-.28-.37.14-.3-.24.39-.23-.09-.42.26-.12-.14-.37-.47.21-.16-.09.16-.5-.28-.65-.26.28L176,208l-.14-.49.19-.07-.31-.42-.28.12-.21-.33-.3.12-.33-.21.16-.24-.35-.37h-.28l-.26-.19.1-.42-.33-.14.07-.4-.16-.05-.26.19H173l0-.33-.39,0-.07.18-.24,0,.1.25-.24,0L172,205l.11-.28-.28-.21.05-.26-.28-.31-.38.1,0-.28-.17-.05,0-.51h-.17l-.25.21-.08-.4.12-.19-.4-.21-.07.14-.32.05-.17.16.12.24-.47-.1-.14.24.24.16,0,.33-.23-.24-.17.14.14.21-.14.1h-.23l0,.33-.17.07-.28-.19-.42.26,0,.21.28,0v.31l-.26-.12-.19.07-.6-.49-.54.09,0,.14.26.12-.11.19-.45-.17,0-.25-.09-.57-.24.05-.07.11h-.52l.18-.23-.06-.38h-.36l-.14-.24.32-.14-.27-.4-.36,0-.25.29-.33-.34h-.47l.18.29-.38.16-.21-.2.34-.49-.25-.36-.6.11-.07.27.27.22.05.41-.32-.07-.38.18-.65,0,0-.27.49,0,.25-.16-.11-.2H162l-.06-.29-.38-.09-.27.07,0,.2-.22.16-.27-.3-.49.09-.14-.22.34-.18v-.33l-.34-.23,0-.22-.16-.16-.31.16-.16-.14.27-.27-.16-.53-.56-.27-.29.13-.47,0,.25-.29-.27-.25-.42.2-.21-.15.16-.2-.25-.16.36-.05.09-.22-.31-.16-.31.12-.25-.34-.38,0,.09.45-.2,0-.29-.14-.3.18.25.29-.11.47-.25-.16,0-.26-.4-.3-.29.25-.16-.42-.34,0-.06-.4h-.45l-.23-.36-.53,0,0,.31h-.26l-.25-.31-.2,0-.18.74.29.31h.27l.11.18-.31.14-.09.22.22.18-.07.31-.44,0-.12-.29-.49-.27-.18.25-.47,0,0-.38-.63-.38-.18.18-.87.11-.27-.27.22-.47-.13-.31-.45-.19.09-.21.15.05.16-.25-.11-.23.18-.13.16-.38-.21-.18.1-.6-.33-.35,0-.48.08-.29-.13-.4,0-.25-.11-.25-.22,0-.43-.53-.11-.5-.62-.67-.23,0-.38-.37-.23.07-.23-.16,0-.15-.3-.4-.25.07-.48-.53-.15,0,0-.3-.19-.18-.09-.35-.29-.18-.09.05-.39-.51h-.53l-.3-.4-.23.08-.15-.21-.1-.3-.32-.1-.14-.31-.24-.15h-.15l0-.25s0-.1-.07-.1h-.35l-.21-.1.05-.1-.15-.2,0-.16-.52-.23-.13-.3-.25-.13-.16-.35-.32-.22-.08-.36.12-.1.06-.16-.18-.14,0-.56-.23-.38-1-.56-.07-.23-.91-.67h-.26v-.4l-.36,0-.17-.23-.41.1v-.16l-.7-.4-.48.11-.1-.29-.46-.22-.15-.38-.64-.45-.27-.47-.28-.19-.53-.72-.08-.34-.22-.11-.15-.66.2-.3.15,0,.12-.43.53-.28.13-.25.61-.29L135,176l.09.41.57.61.36-.09.22.09.14.25.62.37.05.24.39.15.07.18-.11.18.08.46.22.07h.41l.29.31.33.12,0,.08h.16l.28-.29h.15l.11.24.18,0,.07-.11,0-.38.14-.05.11-.2,0-.33.2-.19.33,0,0,.14.46.27h.38l.27-.24.06-.2.24-.21h.56l.19.27.47-.05.22.14.12.21.38,0,.29-.13.13.32-.13.21.24.26,0,.3.45.21.19-.14.2-.27.37-.08.24-.24h.27v.13l.35.19.29-.13.39.34.35-.16,0-.29.21-.4.1-.3.26-.11.28.17,0,.26.21.22.46-.17.38-.25.29-.12.39.66.37.11.29-.09-.36-.54.3-.32h.32l.92,0,1-.48.35-.4-.11-.37-.48.08-.58-.48V176l.21-.19.29.16.78.34h.66l.29-.18v-.29l-.4-.27-.08-.21.32-.16.64,0,.7.43.58.56.83.18.24.13.48.06.64-.27.31-.53.59-.18.33.16.51-.24.61-.56-.45-.69v-.37l-.72-.18,0-.34.41-.14.57.23.2,0,.57,0,.56.38.61.09.6-.34.75.23.42,0,.37-.42.38-.18.4.54-.22.55.22.94.59,0,.4-1.11-.33-1-.66-.24-.18-.29.44-.32.93.34,1.45,1.8,1.06.71.84-.31.55.27,0,.66-.4.27-.53.64.38.36,0,.73-.5.24-.58,0-.16.34.54.39.27.34.35-.5.54-.11.62.58.61.07.31.5-.19.47v.34l.27.66h.31l.19.31.07.38.58.12.81.3.44.54-.27.5,0,.63.92,1,1,0,.1-.4.73-.86.63,0,.62.24-.19.39.23.43h.46l.53.33-.13.27.46.69.17.93.53.4.29-.3,0-.3.53-.73.79,0,.63-.3.73-.06.46.1.3.43.53.13.2-.33,1-.3,1.16-.79,1.09-.37.23.13.86.7.2.59-.06.24v.59l.69.56.66-.1.66,0,.27.43.43.2.33-.33,1.12-.1.77.36v.57l.26.26v.56l-.26.43-.14.43.3.43.66.14.27.2-.17.36.2.23-.07.36.47.2v-.16l.69-.27,1-.39v-.33l.63-.24.33.47-.17.39.53.76.5,0,.69.36.13.27.47-.1.43.16.4.53.92.17.23-.27,1.1-.33.46-.36.56-.07.4.3h.43s.59-.27.59-.4.07-.69.07-.69l.33-.27.53,0,.17.39-.14.23.4.73.46.17.57-.17.46.1,0,.37.26.43.6.39Z" transform="translate(-90.66 -147.29)" disabled="disabled" style="pointer-events: none;"></path>
   <path name="XXXX" id="path3288" class="cls-1" d="M155.84,215.66l23.3-3.63,20-3.15L209.68,194l.46-.2.93.34.67.25.26.58,0,.82-.64.61,0,.49-.66.33v.65l.87.61.33-.23,1,0,1,.73,0,.79.54.19.56.59,0,.56-.18.23.07,1-1,.73h-.33l-.49.67.12.78.3.07.42.37v.89l.35.54.66.09.77.59,0,1-.84.4-.28-.1-.33.21.07.54,1,.21.86.16.71.46,1-.1,1-.49.42-.61,1.24-.87.72-.4.91.29a3.62,3.62,0,0,1,.12.84.26.26,0,0,1-.23.25l.19.57-.5.25-.11.45.35.28,1.28-.66.87-.25,1.22.21.89-.54.6.14v.33l.46.79.22,1.18.11.82,1,.62.38.6-.09.77-1.15.65-.56-.11-.46.91.44.56V217l-.26.65.31.45.77.84.44-.05.49.59,0,1s-.87.51-1,.58-.59,0-.59,0l-.18.44.25.75.59.26,1.64,1.19.53.92.75.11,1.06-.53.18-.4.94-.21,2.13.58,1.33,1.76,1.87.58.47-.28.09-.37,1.48.11,1.07.73.64,0,.21-.37.89-.26,2.64,1,.47.89.93.3,1.27,1.55.09,1-.33-.55-.07,1.54.56.52-.47,1.33-.65.4-.92-.45-.28-.39-.37,0-.19.59.82.79,1.15.21,1-.56.89.45,0,1.1s-1.1,1.05-1.21,1.17a3.82,3.82,0,0,1-1.1,0l-.61-.18-.19.91,1.24,1.19.68.05,1.55,1.85-.07.86-1,.8-.75.23v.84l.52.26.75-.47.47-1,.56-.23,1.61.61.34,1-.5,1-.79.4.36.66.9-.17,2.54,1.1,1-.07.9.56.43-.06.16-.43-.69-1.2V245l.73-.37.76.53.39,2.12.9.43,1.22-.1.63-1.19.26-2,.53-.3,1,.23.86.9-.27.92-1.19.5-.26.79.26.47,1.09-.14.43-.63.43-.16.47.2-.14.49-.69.43-.2.53.1.33h.59l.68-.4.52-1.15.65-.64,1-.41,1.17-.27,1,.09,1.23,1.49.39,1,.67.17,1.68-.73.66.56-.13.8-.89.49-.56.73.12,1.4,1.32,1,.2.66.7.26.76.5h.92l.17-.6v-.51l.4-.73.92.12,1,1.29-.23,1.85.76.58.86-.11.49-.33.23-.83,1.66-1.26.46.07,1.79,2.12.2,1.12,1.12.1.63-.63.69-.06.34.19.06,1.06.37.23-.34.67.36.48.67.14.09.84.78.7,3.9.8.36.33,2.65.76.53-.3.6.2h.23l2.15,1.75-34.09,9.64-.5-.53-.34-.2-.4.91-.68.33-.55-.31-.14-.91.37-1.79-.3-.9-.9-.42-1.13.26-.77-.31-.08-1.25-.62.05-.31,1.14h-.78l-.37-.67.58-1-.47-.36-.52.52-.58.25-.83-.44-.56-.81-.09-.54.17-.3-.26-.76-.54-.28-1.23-.23-.24-.9.22-.53-1-.7-.53-.21-.43.21-.8-.16L252,263l.37-.43-.21-.85-1.76.53-.37.69-1.12.22-.48-.27-.71-.68-.05-.67.44-.57v-.43l-.16-.21-.9.32-.22.64-.53.53-.69-.1-.7-1.18,0-.95.53-.54-.21-.69-1.22-1.28-.06-1.54-.67-1.73-.64-.48a8,8,0,0,1-.53-1c-.06-.22-1.52-.68-1.52-.68l-1-.71-.05-.43h-.37l-.06.38.32.58-.05.8-.59.32-.53,1-.8,1.12-1.12.21-.42-.21-.43-.05-.78-.38-.5-1,0-1-.48-.16-.48.43.1.58-.1.55-.51-.06-.45-.59-.18-.75-1.27-.21-.69-.7-.53-.15.38-.75-.27-1.22-.48-.32-1.17.26-1.22-.37-1.18-1.12-.26-1.22-1.55-.86-.58-.9-.7-.27-.58.11-2.67-.54-1-1.17-.91-.8-.8-.05-1.81,1v.54l-.21,1.22-1.23,1-.91.91-1.75.53-.54-.21-1.28-.86-2.05-.21-.85-.53-.91-.27-.37.43-1.28.53-2.24-.64-1.11-1.17-.7-.16-.42-.8-1.07-.43-1.17,0-1.12-.75-.69-.85L193.7,241l-.64.37-.88-.1-.74-.64.32-.85-.16-1-.59-.21-.58.1-1.34-.8-.74-1.06-.54-.11-.37.48.27.32-.53.32-.7-.16-.64-.53-2.1.26-1-.33-.5.2-1.32,0-.89.13-.56-.36-.14-.63-1-.34-.87.34-.43-.4.19-.6-.29-1.22-1.16-.66-1-1.26-.1-.69-.5-.24-.4.07v.23l-.53.4-.46-.1-.26-.5,0-.29-.1-.3-.36-.07-.47-.3.17-.29-.13-.76-.37-.5h-.49l-.67-.7v-.43l-.46-.53-.53-.33h-.82l-.41-.42.1-.51.83-.19.07-.5-.2,0-.13.13-.56-.16-.57-.47-1.42-.26-.26-.27-.37-.1-.3-.49.3-.2.17.1.53-.17,0-.46h-.29l-.4-.4-.25-.88.13-.36-.73-.73-.63-.23-.69.2-.86-.43-.33-.76.13-.17-.26-.59-.47,0-1.16-.13-.46.23,0,.36-.7.66-.46.3-.66-.46-.27-.56.27-.6.1-.83-.53-.36-.23-.43.1-.46-.2-.34-.57-.06-.61,0Z" transform="translate(-90.66 -147.29)" disabled="disabled" style="pointer-events: none;"></path>
   <path name="XXXX" id="path8170" class="cls-1" d="M116.47,217.74l7.56.66-2.63-10.68-.49.1-.53-.14-.33.14,0,.19-1,.4-.1.27-.9-.14-.66.24-.56-.14-.23-.49-.72-.14-.47-.22-.09-.3-.48.24-.41.64-.83.17h-.28l-.38.15-.36.38-1,.21-.92-.06-.17-.26-.73.09-1.19-.32-.13-.15-1.34.38-.3.19-.32-.06-.62-.25-.49-.28-1.17-.22-.4.11-.75-.3-.6-.79-.25-1.06.08-.15-.17-.26-.13-.17-.15-.55-.29-.28L97.13,213l-.2.31-.39.27-.05.35.28.07,0,.44.4.4-.13.19-.14,0-.16-.21h-.24l-.11.35.43.35,0,.1-.13.06-.24.32-.19-.21-.38,0,0,.3.28.47-.45.1.2.44.07,1,.47.15.17.61,0,.31,1.07.45,0,.59-.54.32-.08.26.45.28.28.68.37.2.4-.4.59.13.61-.43.53-1.67.32-.12,0,.16.66.19.25-.17.14-.2.18,0,.22-.22-.16-.2,0-.23.16,0s0-.48,0-.57a4.71,4.71,0,0,0-.48-.66l-.37-.09.14-.34-.14-.1v-.31l.41,0,.44-.32V216l-.18-.18.9-.28.59,1.9,2,.15.81-2.07,1.59.18.64.45.06.4.43.12.1-.18.48,0,.3.35.4,0,.27.36.16.08.12-.22.18,0,0,.28.22.14.2-.12.24.15v.32l-.24.14-.26,0-.08.16.16.06.48-.06.41.17,0,.42.36.45,0,.4-.14.15,0,.18.16,0,.16.55Z" transform="translate(-90.66 -147.29)" disabled="disabled" style="pointer-events: none;"></path>
   <path name="XXXX" id="path8172" class="cls-1" d="M99.67,221.19l.53-1.69.32-.12,0,.16.66.19.25-.17.14-.2.18,0,.22-.22-.16-.2,0-.23.16,0s0-.48,0-.57a4.71,4.71,0,0,0-.48-.66l-.37-.09.14-.34-.14-.1v-.31l.41,0,.44-.32V216l-.18-.18.9-.28.59,1.9,2,.15.81-2.07,1.59.18.64.45.06.4.43.12.1-.18.48,0,.3.35.4,0,.27.36.16.08.12-.22.18,0,0,.28.22.14.2-.12.24.14v.33l-.24.14-.26,0-.08.16.16.06.48-.06.41.17,0,.42.36.45,0,.4-.14.15,0,.18.16,0,.16.55,4-2.7,7.56.66,1.15,5.18-.3.3-.4-.11-.39-.38.21-.44-.1-.13-.34,0-.29-.19-.17-.39-.42.07-.1.36-.51-.06-.61-.39-.09-.28-.63.23-.07.42-.49-.07-.26-.51-.37-.21,0-.24h-.44l-.56.31-.29.51-.46.38-.38-.1-.54.5.38.32.63,0v.28l-.28.09-.26.23-1-.21-.19-.21-.61-.23-.21-.26-1.51.39-.42.31h-.86l-.14-.16-.21.11-.07.24-.59.32-.26-.23-.65.16-1.26-.49,0-.19-.33.29.1.18-.71.33-.41-.05-.41-.56-.73-.15-.39-.5,0-.3.23-.19-.15-.3-.64.3,0,.33-1-.14-.09-.21-.63.19-.24.23-.44-.25-.28-.52-.74-.61v-.33l-.23-.27-.3-.09-.47.19-.25.34-.49.51-.43-.15-.13-.29-.48-.19Z" transform="translate(-90.66 -147.29)" disabled="disabled" style="pointer-events: none;"></path>
   <path name="XXXX" id="path8186" class="cls-1" d="M97.29,178.07l-.57.92.32-.05.47.11.27.34v.18l.18.06.29.52-.09.18v.36l.09.16.06.2.89.76.67.2h.34l.51.45,1.47.45.33.2.38-.09.09-.24.76-.39.22-.17h.18v.31l.67.43.73,0,.18-.09.18,0,.44.68-.17.4v.13l.75.54.09.72-.29.18.14.14-.14.13,0,.16.22,0,0,.4-.23.18.34.34,0,.76V188l-.25.21,0,.13.47,0,.1.4.39.29.45.06v.18l.65.93.29-.08,0,.34.26.64.34.18.53-.58.76-.13.31-.19h.11l.08.16.92.08.19-.11.55-.45.56,0,.36-.15.22-.28.45,0,.16.33,1.21,0v-.14l.3,0,.54.09.09-.14.26-.13.41.24,15.4.54.63.11.46,0,.4-.24,0-.21.21-.12.09-.74,4-.14,0-.61-.2-.18.1-.15-.2-.4-.25-.13-.12-.18.14-.33-.09-.35-.16-.12,0-.19.14-.2-.05-.38-.31-.27,0-.18-.2-.22-.3.05-.15-.29,0-.17-.1-.25-.28-.15-.09-.23,0-.16-.18-.33,0-.25-.51-.38,0-.15-.33-.15-.43-.08-.49-.33-.14-.19-.76-.44-.92-.88-.67-.84-.84-1-.91-.74-.38-.41-.2-.4-.66-.33-2-2.3-.07-.45-.46-.29-.24-.8-.26-.71V172l-2.48,1.19-.93.55-2.23.91-.88.86-.23.53-.25.26.13.53.52.15.29-.23.14-.23.41.2.36.05,0,.38.13.23.27.07,0,.31-.15.33.23.41.38.43.17.44-.09.31-.16.13.1.23.11.19,0,.57-.17.27.1.16.22.24-.08.48.31.51,0,.26.25.28.14,0,.07.15-.07.31.12.24-.31,0-.12-.31-.23,0-.12-.1V183l-.14-.1h-.29l-.09-.4-.11-.19,0-.3a.22.22,0,0,0,.1-.08c0-.07.1-.67.1-.67l-.32-.49-.3-.07,0-.25-.26-.29-.36-.17-.09-.5,0-.24-.22-.33-.59-.09-.27.22-.58,0-.25.23-.66-.1-.26.14-.91.11-.2-.3-.66-.15s-.23-.33-.32-.34l-1.16-.32-.43.1-.06.17-.55.13-.43.33-15.62-1.22Z" transform="translate(-90.66 -147.29)" disabled="disabled" style="pointer-events: none;"></path>
   <path name="XXXX" id="path8192" class="cls-1" d="M117.76,189.89l-.41-.24-.26.13-.09.14-.54-.09-.3,0V190L115,190l-.16-.33-.45,0-.22.28-.36.15-.56,0-.55.45-.19.11-.92-.08-.08-.16h-.11l-.31.19-.76.13-.53.58-.34-.18-.26-.64,0-.34-.29.08-.65-.93v-.18l-.45-.06-.39-.29-.1-.4-.47,0,0-.13.25-.21v-.29l0-.76-.34-.34.23-.18,0-.4-.22,0,0-.16.14-.13-.14-.14.29-.18-.09-.72-.75-.53V184l.17-.4-.44-.68-.18,0-.18.09-.73,0-.67-.43v-.31H104l-.22.17-.76.39-.09.24-.38.09-.33-.2-1.47-.45-.51-.45h-.34l-.67-.2-.89-.76-.06-.2-.09-.16v-.36l.09-.18-.29-.52-.18-.06v-.18l-.27-.34-.47-.11-.32.06-.11.76.19.8-.15.65-.27.35-.07.52h0l-.12.55-.54,1.05-.08.73-1,1.13-.86.35-.44.35.14.49.43.54-.16.31.09.52-.19.26.12.37-2.94,11,.36.3,1,1.21.9.55h1.39l.71.1.54.59,0,.19h-.2l0,.47-.24.15v.34l.41.36-.1.24-.16.14v.34h-.28l-.36-.4-.31.45,0,1.59,1,.9-.11.46-.14.22.55.54v.33l-.23.19,0,.2.42.23.2.56.29.16,0,.38-.13.32V211l-.3.4,0,.43.23.67.17.11.36-.1.15.15.31.28,4.46-8.08.29.28.15.55.13.17.17.26-.08.15.25,1.06.6.79.75.3.4-.11,1.17.22.49.28.62.25.32.06.3-.19,1.34-.38.13.15,1.19.32.73-.09.17.26.92.06,1-.21.36-.38.38-.15h.28l.83-.17.41-.64.48-.24.09.3.46.21,7.2-9.68,1.47-3-.25-.11s-.32-.07-.3.05a1.38,1.38,0,0,1,0,.14l-.11.14-.47,0-.33-.19,0-.28-.21-.12-.24.16-.51,0-.38-.35.19-.12-.16-.25,0-.26,0-.12h-.21l-.37-.37,0-.52.21,0,.17-.33-.26-.21,0-.28-.18-.14-.28.19-.29,0-.35-.35.17-.16-.07-.35-.21.07-.33-.26-.23-.09.09-.21-.19-.33-.28.12-.37-.1-.19.1-.4,0-.12-.37-.11-.08-.19,0v-.23" transform="translate(-90.66 -147.29)" disabled="disabled" style="pointer-events: none;"></path>
   <path name="XXXX" id="path8221" class="cls-1" d="M119.1,176.19V176l-.3-.17-.1-.25-.24,0v-.34l-.39-.21,0-.32-.31-.08,0-.21.24-.15-.05-.34h-.19l-.13.22-.21,0,0-.18.1-.13,0-.24-.37.08-.58-.35,0-.08.24-.14,0-.74.24-.63.32-.05.09-.26-.29-.46v-.33l.18-.11-.08-.35-1-.51-.1-.31-.24-.14,0-.18.34-.35.06-.22-.19-.24.08-.16.72-.22.16-.27.26-.1.77-1.41.43-.42v-.2l-.22-.21v-.09h.24l.17-.32,0-.52.48-.47h.33l.18-.35-.22-.13h-.35l-.17.17h-.5l-.06-.24-.55,0-.14.19-.17,0,0-.14h-.12l-.09.14-.11-.13-.31,0-.36-.47-.18-.08-.66.1-.33.26h-.51l-1.17-1.52-.54,0-.46-.11-.13-.21-.18,0,0,.13-.53-.15-.07-.26-.1-.11.12-.05.06-.62-.05-.47-.35,0-.29-.25,0-.65-.21-.12-.42.06-.14.25-.17,0,0,.62-.75.94.07.36.09,0,0,.21.34.67v.9l.6.76v.29l.48.25v.19l-.2.16,0,.58-.82.93-.7.37-.33,0-.15-.18-.24.05-.67.32-.59-.06-.19-.16-.85.32-.14.34-.11.07h-.26l-.11.32-.71-.26-.09.17-.14.08.2.21-.15.13-.28.1,0,.16.19.29,0,.22-.13,0-.09.27.33.21-.09.29-.15.05v.38l-.37.2a6.93,6.93,0,0,0-.46.7l0,.55.42,0,.16.16h.3l.05-.39.3,0,.16-.14.07.13.36.05.18-.26.16,0v.24l.16.13.11-.1.14,0,.2.37.06-.1h.19l.21.23.16-.21h.33l.26.27.18,0,.14.35.35.19.37.12.13.29.32.12-.12.09v.17l.12.05.06.18-.16.06,0,.11.38-.06.32.27.37-.16h.17l.07.13.54.21.8.15.33.25,0,.13.37.13.12-.18.34,0,.06.13.18.27h.33l.26.28.41,0,.12.16,0,.34.43.27v.26l.44.27.22.07.08.21h.21l.22-.12,0-.12L116,176l.58.2.27.32-.17.13.24.11h.26l.29.16.37-.12,0-.15.26,0v-.12l.21-.14.25.23-.12.11.12.12.19-.08.17-.48Z" transform="translate(-90.66 -147.29)" disabled="disabled" style="pointer-events: none;"></path>
   <path name="XXXX" id="path8231" class="cls-1" d="M97.52,177.42l.46-.27.58-.84,0-.61-.26-.19-.27-.54-.19-.19-.16-.73-.3-.46-.73-.11-.38-.42-.3-.92-.19-.15.3-.5,0-1.11.08-.58-.35-1-.07-.92.07-.65-.19-.34.34-.35.39-.61-.42-.38-.27-.54.33-.26.36.23.14.24.44,0,.33.24.24-.3,1,0,.18-.09.44-.57.38-.13.24.06.36-.08.23-.18.21,0,.12.12.58.26h.23l0-.1.12-.11.56.09,1.06,1.05.08.42.32.32.21,0L104,166h.17v.19l.64.72-.1.16-.14.08.2.21-.15.13-.28.09,0,.17.19.29,0,.22-.13,0-.09.27.33.21-.09.29-.15.05v.38l-.37.2a6.93,6.93,0,0,0-.46.7l0,.55.42,0,.16.16h.3l.05-.39.3,0,.16-.14.07.13.36.05.18-.26.16,0v.24l.16.13.11-.1.14,0,.2.37.06-.1h.19l.21.23.16-.21h.33l.26.27.18,0,.14.35.35.19.37.12.13.29.32.12-.12.08v.18l.12.05.06.18-.16.06,0,.11.38-.06.32.27.37-.16h.17l.07.13.54.21.8.14.33.26,0,.13.37.13.12-.18.34,0,.06.13.18.27h.33l.26.27.41.05.12.16,0,.34.43.27v.26l.44.27.22.07.08.21h.21l.22-.12,0-.12L116,176l.58.19.27.33-.17.13.24.11h.26l.29.16.37-.12,0-.15.26,0v-.12l.21-.14.25.23-.12.11.12.11.18-.06.23.15.26,0,.2,0,.5.15.29-.23.14-.23.41.2.36.05,0,.38.13.23.27.07,0,.31-.15.33.23.42.38.43.17.43-.09.31-.16.13.1.23.11.19,0,.57-.17.27.1.16.22.24-.08.48.31.51,0,.26.25.28.14,0,.07.15-.07.31.12.24-.31,0-.12-.31-.23,0-.12-.1V183l-.14-.1h-.29l-.09-.39-.11-.2,0-.3a.22.22,0,0,0,.1-.08c0-.07.1-.67.1-.67l-.32-.49-.3-.07,0-.25-.26-.29-.36-.17-.09-.5,0-.24-.22-.33-.59-.09-.27.22-.58,0-.25.23-.66-.1-.26.14-.91.11-.2-.3-.66-.15s-.23-.33-.32-.34l-1.16-.32-.43.1-.06.17-.55.13-.43.33-15.6-1.23Z" transform="translate(-90.66 -147.29)" disabled="disabled" style="pointer-events: none;"></path>
   <path name="XXXX" id="path8246" class="cls-1" d="M104.86,166.91l-.65-.71V166H104l-.15.11-.21,0-.32-.32-.08-.42-1.06-1.05-.56-.09-.12.11,0,.1h-.23l-.58-.26-.12-.12-.21,0-.23.18-.36.08-.24-.06-.38.13-.44.57-.18.09-1,0-.24.3-.33-.24-.44,0-.14-.24-.35-.23v-.58l.73-.8.27.07,1.33-.53.35-.54.61-.76.38-.31.11.19.69-.08.57-.57.77-.23.69-.88.61-.45.4.16.32-.24.08-.46.24-.2.67.28.1.3v.32l.49.18.79-.15.62-.57.37.46v.38l-.48.49-.38.28-.06.37.12.32.22.08v.28l-.13.1-.1.28.16.12.14.41-.23.37v.94l-.3,0-.28.29-.06.58.19.27v.32l-.59.4-.09.48-.24.37-.32.42" transform="translate(-90.66 -147.29)" disabled="disabled" style="pointer-events: none;"></path>
   <path name="Mocoa" data-id="1077" id="path8251" class="cls-1" d="M134.64,175.63l-.06-.45-.69-.29-.4,0-.32.06-.57-.17-.51-.19-.15-.26-.38-.23-.33,0-.38-.34,0-.37-.27-.56-.22-.3-.23-.79-.07-.26,0-.38-.42-.41.34-.26-.07-.49-.15-.34.56-.52.34-.68.23-.63-.19-.38v-.6l.37-.64-.07-.26.07-.3.42-.9v-.37l.26-.49.15-.64h-.28l-.36-.56-.58-.45-.89-.53.15-.42-.34-.11-.07-.56.34-.56-.36-.64v-.56l-.64-.27-.15-.67.49-.45,0-.67.3-.45-.3-.49-.42-.23,0-.33.38-.27.07-.71.11-.49-.37-.2.36-.6-.15-.6-.9-.07,0-.51-.38-.06-.25-.3,0-.42-.55-.52-.46-.13-1.09-.64-.11-.3.11-.52-.22-.37-.83-.42-.45-.15-.08-.33-.34-.23-.64.08-.56.48-.46.6-.83.52L121,149l-.34.3-.87.49L119,150l-.92.42-.83.52h-.91l-.26-.07-.41.33-1,.23-1.36.82-.9.38-.34.26-1,.08-.34,0-.49.11-.49-.3h-.26l-.29.58.1.63-.44.39-.19.46-.35.23,0,.31-.25.13-.06.13.12.28.18.33.3.15.12.43-.2.22-.2,0-.09.24.56.11.06.64.07.08.25-.19.59,0,.11-.1H110l.1.34.35.43.43-.05.21.12,0,.65.29.25.35,0,.05.47-.06.62-.12.05.1.11.07.26.53.15,0-.13.18,0,.13.21.46.11.54,0,1.17,1.52h.51l.33-.26.66-.1.18.08.36.47.31,0,.11.13.09-.14h.12l0,.14.17,0,.14-.19.55,0,.06.24H119l.18-.17h.35l.22.13-.18.35h-.33l-.48.47,0,.52-.17.32h-.24v.09l.22.21v.2l-.43.42-.77,1.41-.26.1-.16.27-.72.22-.08.16.19.24-.06.22-.34.35,0,.18.24.14.1.31,1,.51.08.35-.18.11V171l.29.46-.09.26-.32.05-.24.63,0,.74-.24.14,0,.08.58.35.37-.08,0,.24-.1.13,0,.18.21,0,.13-.22H118l.05.34-.24.15,0,.21.31.08,0,.32.39.21v.34l.24,0,.1.25.3.17v.17l-.11.1-.17.49.21.15.27,0,.19,0-.14-.55.25-.26.23-.53.88-.86,2.23-.91.93-.55,2.48-1.19v.5l.26.71.24.8.46.29.07.45,2,2.3.66.33.2.4.38.41.91.75.84,1,.67.84.92.88.76.44.14.19.49.33.43.08.33.15,0,.15.51.38,0,.25.18.33,0,.16.09.23.28.15.1.25,0,.17.15.29.3-.05.2.22,0,.18.31.27.05.38-.14.2,0,.19.16.12.09.35-.14.33.12.18.25.13.2.4-.1.15.2.18,0,.61,4.2.14-.1-.32-.32-.1-.14-.31-.24-.15h-.15l0-.25s0-.1-.07-.1h-.35l-.21-.1.05-.1-.15-.2,0-.16-.52-.23-.13-.3-.25-.13-.16-.35-.32-.22-.08-.36.12-.1.06-.16-.18-.14,0-.56-.23-.38-1-.56-.07-.23-.91-.67h-.26v-.4l-.36,0-.17-.23-.41.1v-.16l-.7-.4-.48.11-.1-.29-.46-.22-.15-.38-.64-.45-.27-.47-.28-.19-.53-.72-.08-.34-.22-.11-.15-.66.2-.3.15,0,.12-.43.53-.28.13-.25.61-.29L135,176Z" transform="translate(-90.66 -147.29)" style="fill: rgb(210, 210, 230);"></path>
   <path name="XXXX" id="path8261" class="cls-1" d="M105.15,166.49l.24-.37.09-.48.59-.4v-.32l-.19-.27.06-.58.28-.29.3,0v-.94l.23-.37-.14-.41-.16-.12.1-.28.13-.1v-.28l-.22-.08-.12-.32.06-.37.38-.28.48-.49v-.38l-.37-.46.3-.29v-.5l.94-.79.57.11.06.64.07.08.25-.19.59,0,.11-.1H110l.1.34.36.42-.14.27-.17,0,0,.62-.75.94.07.36.09,0,0,.21.34.67v.9l.6.76v.29l.48.25v.19l-.2.16,0,.58-.82.93-.7.37-.33,0-.15-.18-.24.05-.67.32-.59-.06-.19-.16-.85.32-.14.34-.11.07h-.26l-.11.32-.72-.27Z" transform="translate(-90.66 -147.29)" disabled="disabled" style="pointer-events: none;"></path>

</svg>