<svg id="Capa_1" data-name="Capa 1" xmlns="http://www.w3.org/2000/svg" viewBox="0 0 98.52 106">
   <defs>
      <style>.cls-1{fill: #ebebef;;stroke:#fff;stroke-miterlimit:3.86;stroke-width:0.25px;}</style>
   </defs>
   <path name="Santa Rosa de Cabal" data-id="849" scale="2.3" move="1" id="path5982" class="cls-1" d="M162.24,241.35l.63.08.08.4.71.48.5-.23.71,0,1,.24,1.52-.24,1.14-.28.16-1.25.66-.4.39-.72.57.13.3-.13-.36-.44-.41-.1.55-.39.67.57.19-.43.32.45.58-.25.28.27-.28.14-.19.37.43.26.25-.08.14.26-.27.51.64.35,0,.69.26.22-.08.57L173,243l.29.47.29-.06.16-.37H174c.1,0,.53.51.53.51l.75.06.22.41h.33l.43-.6,1.36,0,.66-.47.5.1.19-.21.37,0,.63,1.59.43.16.75-.58.55,0,.22.33,0,.68.57.4.15-.15.87,0,1.12-.72,1.17,0,.81.57,1.16-.06.37.33.86,0,.2.21-.49.53.08.39.55.33.49,0,.31.61-.37.48v.53l.57.21,1.16.06.72.41.08.42-.37.3v.15l.17.14.14.5.61,1,1.28.92.21.76-.51.19-.18.31.42.2,0,.54,1,.35,0,1.59.15.45,1.24.49.83.95.55.06.64-.35.59.06.67.69,1.14.15v.47l-.45-.05-.36.4-.55,0,.11.19v.36l-.27,0-.28.27-.16-.27-.28,0-.28-.44-.4-.27-.2.2-.32.11-.32.44-.64,1.14,0,.44-.43.43-.76.48-1,.71-.28.47-.36.32-.36.63-.27.83-.24.51-.44.2-.32.32-.24-.36-.32-.16-.52.52-.32.71.08.75-.24,0-.4-.08-.27.35H189l-.4.12-.28.67-.76.2-.76.51-.55,0-.52-.43-.6,0-.64.91-.48.12-.79-.12-.24.08-.24-.63-1-.32-.84-.24-.4-.63-1-.39-1-1-1.08-.44-.67-.11-.52-.32-.6-.63-.72-.24-.2-.63-.2-.16.08-.47-.2-.63-.95-.28-.32-.2-.68-.24-.56-.9-.28-.24-.48.16-.24-.48-.47-.15-.28,0-.6-.49.16-.27,0-.32.5,0,.4-.42.76-.08.17-.59-.17-.59.39-.36.06-.59.53-.36.2-1.2-.31.08H172l-.48.4h-.17l0-.56.51-.45-.06-.89.26-.28v-.28l-.6-.7-.87-1.4-.45-.64-.4-1.26-1.43-.53h-.48v.39l-.34.17-.43-.47h-.25l-.17.39-.51.08-.5-.42v-.3l-.45.08-.23-.26v-.66l-.16-.36.12-.27.48-.12.12-.43-.48-.28-.28-.59-.79-.12-.92-1.07v-.51l-.64-.08-.44-.47-.08-.87-.36-.48.2-.63-.22-1.82Z" transform="translate(-102.79 -168.74)" style="fill: rgb(210, 210, 230);"></path>
   <path name="Pereira" data-id="837" scale="1.5" move="5" id="path5987" class="cls-1" d="M200.84,260.36l.34,1.23-.2,1.31-1,.81-.31.84.08.84.9,1,.09.95-.43.42-.53.42-.06.61-1,.17-.33.33-.39-.27-.42.22v.85l-.61.67-1,.11-.26.38-.25.17-.78-.88-.61.16-.17.44.17.83-.64.75H192l-1.49.35-.88.44-.64.84-.79.23-.93-.81-.71-1.15-1.1-.84-.22-.42L184,271l-.9.14-2.46-.71-.51-.45-.65-.11-.62.36-.25-.17-.63,0-.36-.17-.4-.53-.87,0-1,.56h-.51l-.59-.78-.65.19-.69.89-.76,0-.68-.34-.76.2-1-.34-.56-.45-.29.26-.56.11v.42l-.54.55-.62-.53-.73-.05,0-.34-.31-.25h-.59l-.2-.39-.51-.36-.59,0-.45-.44h-.64l-.35.22-.71.26-.55-.08-.81.48h-.88l-1.05-.4-.51.42-1.3-.06-.61-.41-1.08.23-.62-.79-.56.16-.65-.24v.4h-.32l-.48.4-.73-.48-.4-.08.08-.64-1.13-.32-.81-.57-.4-.48-.89.32-.48-.4-.65.56-.24.65h-.48l-.24-.81-.65.73-.68-.33.11-.28.57-.12v-.39l.34-.57-.06-1.48.4-.56-.46-1.08.12-1.36-.46-.23-.8.8h-.57l-.45-.29h-.52l0,1.36-.4-.11-.4-.51-.12.23.17.79-.57.28-.62.8-.69-.57h-.34l-.8.62h-1l-.57-.51.46-.34.06-.39-1.37.11.28-.57-.17-.39-.63-.06.18-.62-.23-.17.57-.06.23-.34-.75-.51.06-.23.74-.17-.68-.4,1.14-.05-.34-.4.17-.62-.34-.29-.75.4-.58-.75.26-.26-.17-.37.36-.24.49.2.28-.48.48-.32.05.68.32-.36h.52l0-1.32,1.09-.93-.12-.8-.44-.48,0-.12.48,0,.44-.4-.72-.76-.69-.24-.12-1-.43-.52.43-.51-.28-.36.15-.3L139,249l.33.87.37-.1.22-.45.4-.12.71-1h.54l1.11.42.6.68,1,.23.52.36.88.28.64.67.64-.39.6-1.51.49-.6-.16-.83.44-.44.8.08.76-.27.66.34.36.71.2.83,1.11,0,1,.12.72.79.4.87.55.51h.52l.64-.43h.4l.8-.48.79-.79h.24l1-.87,1.12.2.79.55.84.32.15,1.07.13.35-.2.91-.28.16v.75l-.32.23.16,1-.48,1,.12,1,.24.31V257l.16.12.6-.55.68-.12.8.32.75.12.52.59.36.16.76.11.64.32.71.83.72.4.88.31.56.71,0,.32-.16.27.6.49.28,0,.47.15.24.48.48-.16.28.24.56.91.68.23.32.2.95.28.2.63-.08.47.2.16.2.63.72.24.6.63.52.32.67.12,1.08.43,1,1,1,.39.4.63.84.24,1,.32.24.63.24-.08.79.12.48-.12.64-.91.6,0,.52.44.55,0,.76-.52.76-.2.28-.67.4-.12h.68l.27-.35.4.08.24,0-.08-.75.32-.71.52-.52.32.16.24.36.32-.32.44-.2.24-.51.27-.83.36-.63.36-.32.28-.47,1-.71.76-.48.43-.43,0-.44.64-1.14.32-.44.32-.11.2-.2.4.28.28.43.28,0,.16.28.28-.28.27,0V260l-.12-.19.56,0,.36-.4.46.05Z" transform="translate(-102.79 -168.74)" style="fill: rgb(210, 210, 230);"></path>
   <path name="Balboa" data-id="839" scale="6" move="1.5" id="path4951" class="cls-1" d="M137.58,250.86h-.37l-1,.72h-.4l-1.05.68-.76-.32L133,251.1h-.2l-.69.8-1.25,0-.56-1-1.13-.89.1-.78.3-.86-.16-.8.56-.56-.16-1.21-.56-.09.19-.45-.13-.52.1-.37.4-.11.06-.42v-.4l.34-.05,0-.63-.4-.74-.59-.66-.08-.29.85,0,.4-.58,0-.52h.18l.3-.19h.9l.54.32.21-.24,0-.29.24-.37v-.18l-.24-.21-.18-.43.26-.31v-.87l.32-.11.14-.18.26-.11.27.26.32,0,.37-.16.41-.34.49.11.11.26.37-.12.17.42.22.17,0,.22-.11.2-.06.64.2.31h.48l.14.19.4.23.08.36.45-.17.06.51h.25l0,.11.06.14v.33l.39,0,.14.26.17.08,0,.28.2.53.33.17.15.39.56,0,.11.19.28,0,0,.5.14.17-.05.41.39,0,.34,0,.09.28-.17.2.05.2.57,0,0,.22-.14.14v.45l.39.14.2.3.18.45-.15.19-.17-.17-.22.19.18.48-.16.22-.38-.5-.18.2.36.45-.28.22-.24-.08,0,.46.4.41.06.45-.56,0-.68,1-.42.13-.22.42-.37.12L139,249l-.66.1-.16.33.28.36-.44.51Z" transform="translate(-102.79 -168.74)" style="fill: rgb(210, 210, 230);"></path>
   <path name="la Celia" data-id="843" scale="5.5" move="1.5" id="path4966" class="cls-1" d="M120.52,233.33l1.21.65.08.8.81.64.26,1-.16.88,1,.88v1l.73.88-.24.73.4.24v1.12l.57.4.16.72.8.24.65.48.46.68.81.4,1.21.61.19-.47-.13-.52.1-.37.4-.11.06-.42v-.4l.34-.05,0-.63-.4-.74-.59-.66-.08-.29.85,0,.4-.58,0-.52h.18l.3-.19h.9l.54.32.21-.24,0-.29.24-.37v-.18l-.24-.22-.18-.42.26-.31v-.87l.32-.11.14-.18.26-.11.27.26.32,0,.37-.16.41-.33-1-.7L133,235l-.36-1.46-.51-.32-.44-.31-.84.43-.64-.08L130,233l-.28-1.42-.55-.56-.48-.27-1.48.39-1,.52-.43.71-1,.47-1.28-.59-.83-.24-1.72.16h-.72Z" transform="translate(-102.79 -168.74)" style="fill: rgb(210, 210, 230);"></path>
   <path name="Mistrató" data-id="846" scale="2.5" move="1" id="path4988" class="cls-1" d="M147.73,193.45l-.28-.61-.69-.48-.24.28-.6-.72-.36.28-1.08,0,.64-.88.2-1.13.36-.69v-1.93l-.08-1.08-.54-.5.08-1-.34-.85-.4-.42,0-.73.28-.13.19-.44-.35-.16-.19-.43.44-.28,0-.44-.26-.07-.11-.86.09-.37-.36-.34-.38-.8.32-.67-2.29,1.53-.74-.21-.6.32-.49-.25-.31.38H139l.11-.62-.46-.42h-.63l-.73-.58-1.07-1.09-.19-.57-1.47-.11-.36.3-.46-.21-.6.59h-.24l-.33-.76-1-.53-1.25-.14-.82-1.37,0-.89-1.25-.92-.38-.78,0-1-.6-.41-.39-.45-1.11,0h-.61l-.87-.55-1.37-.36-1.56.1-.71.17-.59,1.11-.68.58-1.32.09-.46.59.1.58-.77.94-.54.3,0,.41.3.15v.5l.82,1.21.56.66v1.86l-.35.66.1,1.81.61.76-.46,1.61.08.7.21,1.23.32.91-.07.93.76.91.6,1.46.84,1.46.16.83.79-.39,2.34-.44h.64l.24.63.64.32.35,1.34,2.32.61.56,0,1.54,1.29,2.54.05.24.31.48.2.16.59-.36.83.48,1.11-.24.55-.27.09-.27.87-.44.91.32,1.3,1.08.91,0,1.06-.32.36.72.51.2.83.83,1.38,1,.42.26-.88.94-.93h.49l.64-.22.9,0,.34.26.6-.15.53-1.12.3,0,.19-.07.64-.6.83.11.6.12.08.52.81-.76,1.35.38-.13-1.11-.22-.49v-2.13L145,199l-.26-1.08.83-1.16,1.21-.68.43-1,.06-.78.56-.07.44-.57Z" transform="translate(-102.79 -168.74)" style="fill: rgb(210, 210, 230);"></path>
   <path name="Quinchía" data-id="848" scale="6" move="2" id="path4981" class="cls-1" d="M157.52,202.19l-.24-.71.15-1.12-.49-.49-.49-.11-.86-1.64-.12-.75-.34-.37-.82-.11.49-1.23.6-.6.26-.93.64-.3-.19-1,.61-.94.3-1,.74-.27.56.41.92-.28.32-1-.16-.29.08-.28h0l.58.29.44-.08.08.6,1.4.67.48-.28.2.2V191l.76-.44.44.24v.68l-.44.31.4.12,0,.52.88,0V193l1,1.43,1.2.24.64-.24.68.28.08.52-.76.61-.08.64.28.61-.16.8.56.69h.52l.76.45-.32.52-.52.89-.6.77-.24,1.21-.44.32.44.81-.65.64-.76.29-.76.56-1.08.32-.48-.72-1.25.16-.48-.16-1.24.16-.32-.37-.65-.2-.6.25-.12-.65-.92-.44-.52-1.37Z" transform="translate(-102.79 -168.74)" style="fill: rgb(210, 210, 230);"></path>
   <path name="Guática" data-id="842" scale="6" move="3" id="path4976" class="cls-1" d="M149.05,203.79l-.54.15-.87-.38h-1.51l-.15-1.11-.22-.49v-2.13L145,199l-.26-1.08.83-1.16,1.21-.68.43-1,.06-.78.56-.07.43-.55.43-.46,1.16.2.72.31.69-.52,1.4.09,1.13-.73,1.24-.53.4-1.08,1-.73.53.73-.32,1-.61.94.19,1-.64.3-.26.93-.6.6-.49,1.23.82.11.34.37.12.75.86,1.64.49.11.49.49-.15,1.12.24.73-.81.68-.12.49-.32,0-.6.12-.84-.08-1-1.46-.33-1-.76.32-.24.44.08.69-.68.4-.68-.2-.12.6-.84.77-.65,0-.36-.4Z" transform="translate(-102.79 -168.74)" style="fill: rgb(210, 210, 230);"></path>
   <path name="Belén de Umbria" data-id="840" scale="5" move="1.5" id="path4971" class="cls-1" d="M141.87,220.6l0-.55-.41-.14-.11-.75-.68-.19-.57.56h-.33v-.86l-.31-.78h-.3l-.3-.78-.71-.41-.23-.41-.41-.38-.27-.44-.83-1.2-.07-.78.22-.45-.49-1.08.08-.49.68-.74.22-1.2-.41-.44v-.38l-.28-.71.25-1,.22-.9.94-.93h.49l.64-.22.9,0,.34.26.6-.15.53-1.12.3,0,.19-.07.64-.6.83.11.6.12.08.52.81-.76,1.35.38h1.53l.87.38.53-.15V205l.4.6v.69l.36.89.61.72.92-.12.08.24.16,1.78-.6.89v.56l.52.4.12.77-.72.85-.56-.12-.09.8.29.2-.61.85-.52.36-.16.69-.44.52.28.37-.44.48-.64.4.48.29-.2.48,0,.16-.2,1.05-.36.56.2.57-.36,1.45-.56.16-.65-.68,0-.77-.76-.32-.88-.32-.72.32h-.4l-.57-.65-.56.49Z" transform="translate(-102.79 -168.74)" style="fill: rgb(210, 210, 230);"></path>
   <path name="Santuario" data-id="850" scale="3" move="1.5" id="path4956" class="cls-1" d="M137.63,231.46l.4.16.43.72,1.19,1.24.12.52.36.36-.44.16,0,.56-.23.32.35.24,0,.8-.2.28.4.76.67.88,0,.72.6.76-.16.48.32.48.83.12.59.44,0,.36.6-.08.16.76.83.48.75.2-.58.36-.49.16-.53,0,0,.18.28.18.06.31-.18.1-.22.36-.44-.1,0,.24.2.15.14.14.54-.08-.22.32-.26.06-.26.37-.22,0-.06-.23-.12-.16-.14.12.16.39h-.2l-.14-.29-.15-.08-.18-.45-.2-.3-.39-.14v-.45l.14-.14,0-.22-.57,0-.05-.2.16-.2-.08-.28-.34,0-.39,0,.05-.41-.14-.17,0-.5-.28,0-.11-.19-.56,0-.15-.39-.33-.17-.2-.53,0-.28-.17-.08-.14-.26-.39,0v-.33l-.06-.14,0-.11h-.25l-.06-.51-.45.17-.08-.36-.4-.23-.14-.19H136l-.2-.31.06-.64.11-.2,0-.22-.22-.17-.17-.42-.37.12-.11-.26-.51-.1-1-.7L133,235l-.36-1.46-.51-.32-.44-.31-.84.43-.64-.08L130,233l-.28-1.42-.55-.56-.48-.27-1.48.39-1,.52-.43.71-1,.47-1.28-.59-.83-.24-1.72.16h-.73l-.58-.14-.74-1,.17-2.26-.72-2.2.37-.78-.16-.83.44-.63.08-2.61.2-1.18-.36-1.74.12-.59.36-.22.16.45.55.24.68.08.08.55.6,0,0,.59.24.48.52.12.32.39h.28l.55-.79.32,0,.6.36.44-.32h1.08l1.07-.39,1.16.47.6.48.52.94.67.16.28.16.16.63.32.08.36.67.4.08.16.4.24.23.28.67.51.16.92.56h.36L134,225h.2l.4.43.6.12-.32.56,0,.59-.64,1,0,.27-.24.36.24.35.52.91,1,.55.8.08.2.71.77.34Z" transform="translate(-102.79 -168.74)" style="fill: rgb(210, 210, 230);"></path>
   <path name="La Virginia" data-id="844" scale="11" move="1" id="path5992" class="cls-1" d="M149.83,245.16l-.25.89.3.82-.76.27-.8-.08-.45.44.17.83-.49.6-.6,1.5-.64.4-.64-.67-.88-.28-.52-.36-1-.24-.6-.67-1.1-.42-.06-.45-.4-.41,0-.46.24.08.28-.22-.36-.45.18-.2.38.5.16-.22-.18-.48.22-.19.17.17.16-.21.14.1.14.29h.2l-.16-.39.14-.12.12.16.06.23.22,0,.26-.37.26-.06.22-.32-.54.08-.14-.14-.2-.15,0-.24.44.1.22-.36.18-.1-.06-.31-.28-.18,0-.18.55,0,.46-.15.39.47,1.35-.43,1.54.88h.56l1,.24.43.44" transform="translate(-102.79 -168.74)" style="fill: rgb(210, 210, 230);"></path>
   <path name="Marsella" data-id="845" scale="4.7" move="0" id="path5949" class="cls-1" d="M161.54,241.28l.16,1-.2.63.36.48.08.87.44.47.64.08v.51l.92,1.07.79.12.28.59.48.28-.12.43-.48.12-.12.27.16.36,0,.67-.38.48-1.23.35-.44.4-.66.11-.14-1.06-.84-.32-.79-.55-1.12-.2-1,.87H158l-.79.79-.8.47H156l-.64.44h-.52l-.55-.51-.4-.87-.72-.79-1-.12-1.11,0-.2-.83-.36-.71-.64-.28-.32-.88.26-.89.35-.61,1-.76,0-.48.2-.28.47.24.68-.28.24-.84.43-.2-.16-.39-.51-.32-.28-.32V239.8l-.39-.2.11-.32.52-.28.16-.24-.2-.48-.36-.28.84-.36.31-.84.87-.24-.23-.32-.56-.08-.08-.28.6-.64-.08-1,.79.68.59-.36-.55-.36.16-.76.31-.4h.52l.79-.56v-1.16l.56-.4.51-.56.48,0,.19.92.4.36v.52l.48.6.47.28-.08.24-.47.16,0,.12.75.6v.44l.44.56.07.48.4.4-.08.32.24.4-.16.48.32.56h.24l.15.48.24.24-.39.4.39.64-.08.88Z" transform="translate(-102.79 -168.74)" style="fill: rgb(210, 210, 230);"></path>
   <path name="Dosquebradas" data-id="841" scale="8.5" move="0.4" id="path2426" class="cls-1" d="M169.72,260.28l.5,0,.4-.42.76-.08.17-.59-.17-.59.39-.36.06-.59.53-.36.2-1.2-.31.08H172l-.48.4h-.17l0-.56.51-.45-.06-.89.26-.28v-.28l-.6-.7-.87-1.4-.45-.64-.4-1.26-1.44-.53h-.47v.39l-.34.17-.43-.47h-.25l-.17.39-.51.08-.5-.42v-.3l-.45.08-.22-.27-.4.5-1.23.35-.44.4-.64.12.12.35-.2.91-.28.16v.75l-.32.23.16,1-.48,1,.12,1,.24.31V257l.16.12.6-.55.68-.12.8.32.75.12.52.59.36.16.76.11.64.32.71.83.72.39.88.32.56.71Z" transform="translate(-102.79 -168.74)" style="fill: rgb(210, 210, 230);"></path>
   <path name="Apía" data-id="838" scale="4" move="1.5" id="path4348" class="cls-1" d="M136.68,209.09l.41.44-.22,1.2-.68.74-.08.49.49,1.08-.22.45.07.78.83,1.2.27.44.41.38.23.41.71.41.3.78h.3l.31.78v.86h.33l.57-.56.68.19.11.75.41.14,0,.54-1.2,1-.89,1.78.33,1.33-.89.81-1.48.48,0,.65.52.72.6,1.49-.51,1.16-.52,1.08-.32.17-.77-.34-.2-.71-.8-.08-1-.55-.52-.91-.24-.35.24-.36,0-.27.64-1,0-.59.32-.56-.6-.12-.4-.43H134l-.24.36h-.36l-.92-.56-.51-.16-.28-.67-.24-.23-.16-.4-.4-.08-.36-.67-.32-.08-.16-.63-.28-.16-.67-.16-.52-.94-.6-.48-1.16-.47-1.07.39h-1.08l-.44.32-.6-.36-.32,0-.55.79h-.28l-.32-.39-.52-.12-.24-.47,0-.6-.6,0-.08-.55-.68-.08-.55-.24-.18-.45.81-.38,1.52-.07,1.83.11,1-.31.68.12,2.24-.46.77-.33h.76l.64-.23,1.23-2-.2-2.07-.73-.53-.27-.46.17-.33.63-.27.73-1.08h.43l.54-1,.13-1,.33-.4.34.1.46.73,1.5.69.57-.13h1.28Z" transform="translate(-102.79 -168.74)" style="fill: rgb(210, 210, 230);"></path>
   <path name="Pueblo Rico" data-id="847" scale="2" move="1" id="path5123" class="cls-1" d="M125.1,217.39l-.68-.12-1,.31-1.83-.11-1.52.07-.8.38-.35.22-.12.59.36,1.74-.2,1.18-.08,2.61-.44.63.16.83-.35.84-2.85-1.38-.85-1.43.17-.92-.42-1.59-.42-1.43,1.1-1.51.59-2L114,212.36l-1.6-2-1.17-1,.31-.93-1-1.22-1.09,0-.54-.65.11-.73-1.27-.5-.12-.54.27-.46-.73-.65.15-1.53-2.09-3.46-.7-.38.78-.65-.2-.31-1-.27.43-.76,0-.35-1.43-1,1.12-.42.12-1-.2-.46.93-.42s-.19-.88-.19-1.07.35-1.69.35-1.69l.77-.81-.35-1.84.9-.23.69,1.84.85-.76,1.86-.42.62.65.55-1.34.69.23.66-.54,1.16-.19.47.3.81-.84.89-2.07,1-.54.5.5.93-.26.2,1.26.32.91-.07.93.76.91.6,1.46.84,1.46.16.83.79-.39,2.34-.44h.64l.24.63.64.32.35,1.34,2.32.61.56,0,1.54,1.29,2.54.05.24.31.48.2.16.59-.36.83.48,1.11-.24.55-.27.09-.27.87-.44.91.32,1.3,1.08.91,0,1.06-.32.36.72.51.2.83.83,1.38,1,.42-.21,1,.25.73h-1.3l-.57.13-1.5-.69-.46-.73-.34-.1-.33.4-.13,1-.54.95h-.43l-.73,1.09-.63.27-.17.33.27.46.73.53.2,2.07-1.23,2-.64.23h-.76l-.77.33Z" transform="translate(-102.79 -168.74)" style="fill: rgb(210, 210, 230);"></path>
   <filter id="dropShadow" height="130%">
      <feGaussianBlur in="SourceAlpha" stdDeviation="3"></feGaussianBlur>
      <!-- stdDeviation is how much to blur -->
      <feOffset dx="0" dy="0.2" result="offsetblur"></feOffset>
      result="offsetblur"/&gt; <!-- how much to offset -->
      <feComponentTransfer>
         <feFuncA type="linear" slope="0.3"></feFuncA>
      </feComponentTransfer>
      <feMerge>
         <feMergeNode></feMergeNode>
         <!-- this contains the offset blurred image -->
         <feMergeNode in="SourceGraphic"></feMergeNode>
         <!-- this contains the element that the filter is applied to -->
      </feMerge>
   </filter>
   <path name="Santa Rosa de Cabal" data-id="849" id="path5982" class="cls-1" d="M162.24,241.35l.63.08.08.4.71.48.5-.23.71,0,1,.24,1.52-.24,1.14-.28.16-1.25.66-.4.39-.72.57.13.3-.13-.36-.44-.41-.1.55-.39.67.57.19-.43.32.45.58-.25.28.27-.28.14-.19.37.43.26.25-.08.14.26-.27.51.64.35,0,.69.26.22-.08.57L173,243l.29.47.29-.06.16-.37H174c.1,0,.53.51.53.51l.75.06.22.41h.33l.43-.6,1.36,0,.66-.47.5.1.19-.21.37,0,.63,1.59.43.16.75-.58.55,0,.22.33,0,.68.57.4.15-.15.87,0,1.12-.72,1.17,0,.81.57,1.16-.06.37.33.86,0,.2.21-.49.53.08.39.55.33.49,0,.31.61-.37.48v.53l.57.21,1.16.06.72.41.08.42-.37.3v.15l.17.14.14.5.61,1,1.28.92.21.76-.51.19-.18.31.42.2,0,.54,1,.35,0,1.59.15.45,1.24.49.83.95.55.06.64-.35.59.06.67.69,1.14.15v.47l-.45-.05-.36.4-.55,0,.11.19v.36l-.27,0-.28.27-.16-.27-.28,0-.28-.44-.4-.27-.2.2-.32.11-.32.44-.64,1.14,0,.44-.43.43-.76.48-1,.71-.28.47-.36.32-.36.63-.27.83-.24.51-.44.2-.32.32-.24-.36-.32-.16-.52.52-.32.71.08.75-.24,0-.4-.08-.27.35H189l-.4.12-.28.67-.76.2-.76.51-.55,0-.52-.43-.6,0-.64.91-.48.12-.79-.12-.24.08-.24-.63-1-.32-.84-.24-.4-.63-1-.39-1-1-1.08-.44-.67-.11-.52-.32-.6-.63-.72-.24-.2-.63-.2-.16.08-.47-.2-.63-.95-.28-.32-.2-.68-.24-.56-.9-.28-.24-.48.16-.24-.48-.47-.15-.28,0-.6-.49.16-.27,0-.32.5,0,.4-.42.76-.08.17-.59-.17-.59.39-.36.06-.59.53-.36.2-1.2-.31.08H172l-.48.4h-.17l0-.56.51-.45-.06-.89.26-.28v-.28l-.6-.7-.87-1.4-.45-.64-.4-1.26-1.43-.53h-.48v.39l-.34.17-.43-.47h-.25l-.17.39-.51.08-.5-.42v-.3l-.45.08-.23-.26v-.66l-.16-.36.12-.27.48-.12.12-.43-.48-.28-.28-.59-.79-.12-.92-1.07v-.51l-.64-.08-.44-.47-.08-.87-.36-.48.2-.63-.22-1.82Z" transform="translate(-102.79 -168.74)" style="fill: rgb(210, 210, 230);"></path>
   <path name="Pereira" data-id="837" id="path5987" class="cls-1" d="M200.84,260.36l.34,1.23-.2,1.31-1,.81-.31.84.08.84.9,1,.09.95-.43.42-.53.42-.06.61-1,.17-.33.33-.39-.27-.42.22v.85l-.61.67-1,.11-.26.38-.25.17-.78-.88-.61.16-.17.44.17.83-.64.75H192l-1.49.35-.88.44-.64.84-.79.23-.93-.81-.71-1.15-1.1-.84-.22-.42L184,271l-.9.14-2.46-.71-.51-.45-.65-.11-.62.36-.25-.17-.63,0-.36-.17-.4-.53-.87,0-1,.56h-.51l-.59-.78-.65.19-.69.89-.76,0-.68-.34-.76.2-1-.34-.56-.45-.29.26-.56.11v.42l-.54.55-.62-.53-.73-.05,0-.34-.31-.25h-.59l-.2-.39-.51-.36-.59,0-.45-.44h-.64l-.35.22-.71.26-.55-.08-.81.48h-.88l-1.05-.4-.51.42-1.3-.06-.61-.41-1.08.23-.62-.79-.56.16-.65-.24v.4h-.32l-.48.4-.73-.48-.4-.08.08-.64-1.13-.32-.81-.57-.4-.48-.89.32-.48-.4-.65.56-.24.65h-.48l-.24-.81-.65.73-.68-.33.11-.28.57-.12v-.39l.34-.57-.06-1.48.4-.56-.46-1.08.12-1.36-.46-.23-.8.8h-.57l-.45-.29h-.52l0,1.36-.4-.11-.4-.51-.12.23.17.79-.57.28-.62.8-.69-.57h-.34l-.8.62h-1l-.57-.51.46-.34.06-.39-1.37.11.28-.57-.17-.39-.63-.06.18-.62-.23-.17.57-.06.23-.34-.75-.51.06-.23.74-.17-.68-.4,1.14-.05-.34-.4.17-.62-.34-.29-.75.4-.58-.75.26-.26-.17-.37.36-.24.49.2.28-.48.48-.32.05.68.32-.36h.52l0-1.32,1.09-.93-.12-.8-.44-.48,0-.12.48,0,.44-.4-.72-.76-.69-.24-.12-1-.43-.52.43-.51-.28-.36.15-.3L139,249l.33.87.37-.1.22-.45.4-.12.71-1h.54l1.11.42.6.68,1,.23.52.36.88.28.64.67.64-.39.6-1.51.49-.6-.16-.83.44-.44.8.08.76-.27.66.34.36.71.2.83,1.11,0,1,.12.72.79.4.87.55.51h.52l.64-.43h.4l.8-.48.79-.79h.24l1-.87,1.12.2.79.55.84.32.15,1.07.13.35-.2.91-.28.16v.75l-.32.23.16,1-.48,1,.12,1,.24.31V257l.16.12.6-.55.68-.12.8.32.75.12.52.59.36.16.76.11.64.32.71.83.72.4.88.31.56.71,0,.32-.16.27.6.49.28,0,.47.15.24.48.48-.16.28.24.56.91.68.23.32.2.95.28.2.63-.08.47.2.16.2.63.72.24.6.63.52.32.67.12,1.08.43,1,1,1,.39.4.63.84.24,1,.32.24.63.24-.08.79.12.48-.12.64-.91.6,0,.52.44.55,0,.76-.52.76-.2.28-.67.4-.12h.68l.27-.35.4.08.24,0-.08-.75.32-.71.52-.52.32.16.24.36.32-.32.44-.2.24-.51.27-.83.36-.63.36-.32.28-.47,1-.71.76-.48.43-.43,0-.44.64-1.14.32-.44.32-.11.2-.2.4.28.28.43.28,0,.16.28.28-.28.27,0V260l-.12-.19.56,0,.36-.4.46.05Z" transform="translate(-102.79 -168.74)" style="fill: rgb(210, 210, 230);"></path>
   <path name="Balboa" data-id="839" id="path4951" class="cls-1" d="M137.58,250.86h-.37l-1,.72h-.4l-1.05.68-.76-.32L133,251.1h-.2l-.69.8-1.25,0-.56-1-1.13-.89.1-.78.3-.86-.16-.8.56-.56-.16-1.21-.56-.09.19-.45-.13-.52.1-.37.4-.11.06-.42v-.4l.34-.05,0-.63-.4-.74-.59-.66-.08-.29.85,0,.4-.58,0-.52h.18l.3-.19h.9l.54.32.21-.24,0-.29.24-.37v-.18l-.24-.21-.18-.43.26-.31v-.87l.32-.11.14-.18.26-.11.27.26.32,0,.37-.16.41-.34.49.11.11.26.37-.12.17.42.22.17,0,.22-.11.2-.06.64.2.31h.48l.14.19.4.23.08.36.45-.17.06.51h.25l0,.11.06.14v.33l.39,0,.14.26.17.08,0,.28.2.53.33.17.15.39.56,0,.11.19.28,0,0,.5.14.17-.05.41.39,0,.34,0,.09.28-.17.2.05.2.57,0,0,.22-.14.14v.45l.39.14.2.3.18.45-.15.19-.17-.17-.22.19.18.48-.16.22-.38-.5-.18.2.36.45-.28.22-.24-.08,0,.46.4.41.06.45-.56,0-.68,1-.42.13-.22.42-.37.12L139,249l-.66.1-.16.33.28.36-.44.51Z" transform="translate(-102.79 -168.74)" style="fill: rgb(210, 210, 230);"></path>
   <path name="la Celia" data-id="843" id="path4966" class="cls-1" d="M120.52,233.33l1.21.65.08.8.81.64.26,1-.16.88,1,.88v1l.73.88-.24.73.4.24v1.12l.57.4.16.72.8.24.65.48.46.68.81.4,1.21.61.19-.47-.13-.52.1-.37.4-.11.06-.42v-.4l.34-.05,0-.63-.4-.74-.59-.66-.08-.29.85,0,.4-.58,0-.52h.18l.3-.19h.9l.54.32.21-.24,0-.29.24-.37v-.18l-.24-.22-.18-.42.26-.31v-.87l.32-.11.14-.18.26-.11.27.26.32,0,.37-.16.41-.33-1-.7L133,235l-.36-1.46-.51-.32-.44-.31-.84.43-.64-.08L130,233l-.28-1.42-.55-.56-.48-.27-1.48.39-1,.52-.43.71-1,.47-1.28-.59-.83-.24-1.72.16h-.72Z" transform="translate(-102.79 -168.74)" style="fill: rgb(210, 210, 230);"></path>
   <path name="Mistrató" data-id="846" id="path4988" class="cls-1" d="M147.73,193.45l-.28-.61-.69-.48-.24.28-.6-.72-.36.28-1.08,0,.64-.88.2-1.13.36-.69v-1.93l-.08-1.08-.54-.5.08-1-.34-.85-.4-.42,0-.73.28-.13.19-.44-.35-.16-.19-.43.44-.28,0-.44-.26-.07-.11-.86.09-.37-.36-.34-.38-.8.32-.67-2.29,1.53-.74-.21-.6.32-.49-.25-.31.38H139l.11-.62-.46-.42h-.63l-.73-.58-1.07-1.09-.19-.57-1.47-.11-.36.3-.46-.21-.6.59h-.24l-.33-.76-1-.53-1.25-.14-.82-1.37,0-.89-1.25-.92-.38-.78,0-1-.6-.41-.39-.45-1.11,0h-.61l-.87-.55-1.37-.36-1.56.1-.71.17-.59,1.11-.68.58-1.32.09-.46.59.1.58-.77.94-.54.3,0,.41.3.15v.5l.82,1.21.56.66v1.86l-.35.66.1,1.81.61.76-.46,1.61.08.7.21,1.23.32.91-.07.93.76.91.6,1.46.84,1.46.16.83.79-.39,2.34-.44h.64l.24.63.64.32.35,1.34,2.32.61.56,0,1.54,1.29,2.54.05.24.31.48.2.16.59-.36.83.48,1.11-.24.55-.27.09-.27.87-.44.91.32,1.3,1.08.91,0,1.06-.32.36.72.51.2.83.83,1.38,1,.42.26-.88.94-.93h.49l.64-.22.9,0,.34.26.6-.15.53-1.12.3,0,.19-.07.64-.6.83.11.6.12.08.52.81-.76,1.35.38-.13-1.11-.22-.49v-2.13L145,199l-.26-1.08.83-1.16,1.21-.68.43-1,.06-.78.56-.07.44-.57Z" transform="translate(-102.79 -168.74)" style="fill: rgb(210, 210, 230);"></path>
   <path name="Quinchía" data-id="848" id="path4981" class="cls-1" d="M157.52,202.19l-.24-.71.15-1.12-.49-.49-.49-.11-.86-1.64-.12-.75-.34-.37-.82-.11.49-1.23.6-.6.26-.93.64-.3-.19-1,.61-.94.3-1,.74-.27.56.41.92-.28.32-1-.16-.29.08-.28h0l.58.29.44-.08.08.6,1.4.67.48-.28.2.2V191l.76-.44.44.24v.68l-.44.31.4.12,0,.52.88,0V193l1,1.43,1.2.24.64-.24.68.28.08.52-.76.61-.08.64.28.61-.16.8.56.69h.52l.76.45-.32.52-.52.89-.6.77-.24,1.21-.44.32.44.81-.65.64-.76.29-.76.56-1.08.32-.48-.72-1.25.16-.48-.16-1.24.16-.32-.37-.65-.2-.6.25-.12-.65-.92-.44-.52-1.37Z" transform="translate(-102.79 -168.74)" style="fill: rgb(210, 210, 230);"></path>
   <path name="Guática" data-id="842" id="path4976" class="cls-1" d="M149.05,203.79l-.54.15-.87-.38h-1.51l-.15-1.11-.22-.49v-2.13L145,199l-.26-1.08.83-1.16,1.21-.68.43-1,.06-.78.56-.07.43-.55.43-.46,1.16.2.72.31.69-.52,1.4.09,1.13-.73,1.24-.53.4-1.08,1-.73.53.73-.32,1-.61.94.19,1-.64.3-.26.93-.6.6-.49,1.23.82.11.34.37.12.75.86,1.64.49.11.49.49-.15,1.12.24.73-.81.68-.12.49-.32,0-.6.12-.84-.08-1-1.46-.33-1-.76.32-.24.44.08.69-.68.4-.68-.2-.12.6-.84.77-.65,0-.36-.4Z" transform="translate(-102.79 -168.74)" style="fill: rgb(210, 210, 230);"></path>
   <path name="Belén de Umbria" data-id="840" id="path4971" class="cls-1" d="M141.87,220.6l0-.55-.41-.14-.11-.75-.68-.19-.57.56h-.33v-.86l-.31-.78h-.3l-.3-.78-.71-.41-.23-.41-.41-.38-.27-.44-.83-1.2-.07-.78.22-.45-.49-1.08.08-.49.68-.74.22-1.2-.41-.44v-.38l-.28-.71.25-1,.22-.9.94-.93h.49l.64-.22.9,0,.34.26.6-.15.53-1.12.3,0,.19-.07.64-.6.83.11.6.12.08.52.81-.76,1.35.38h1.53l.87.38.53-.15V205l.4.6v.69l.36.89.61.72.92-.12.08.24.16,1.78-.6.89v.56l.52.4.12.77-.72.85-.56-.12-.09.8.29.2-.61.85-.52.36-.16.69-.44.52.28.37-.44.48-.64.4.48.29-.2.48,0,.16-.2,1.05-.36.56.2.57-.36,1.45-.56.16-.65-.68,0-.77-.76-.32-.88-.32-.72.32h-.4l-.57-.65-.56.49Z" transform="translate(-102.79 -168.74)" style="fill: rgb(210, 210, 230);"></path>
   <path name="Santuario" data-id="850" id="path4956" class="cls-1" d="M137.63,231.46l.4.16.43.72,1.19,1.24.12.52.36.36-.44.16,0,.56-.23.32.35.24,0,.8-.2.28.4.76.67.88,0,.72.6.76-.16.48.32.48.83.12.59.44,0,.36.6-.08.16.76.83.48.75.2-.58.36-.49.16-.53,0,0,.18.28.18.06.31-.18.1-.22.36-.44-.1,0,.24.2.15.14.14.54-.08-.22.32-.26.06-.26.37-.22,0-.06-.23-.12-.16-.14.12.16.39h-.2l-.14-.29-.15-.08-.18-.45-.2-.3-.39-.14v-.45l.14-.14,0-.22-.57,0-.05-.2.16-.2-.08-.28-.34,0-.39,0,.05-.41-.14-.17,0-.5-.28,0-.11-.19-.56,0-.15-.39-.33-.17-.2-.53,0-.28-.17-.08-.14-.26-.39,0v-.33l-.06-.14,0-.11h-.25l-.06-.51-.45.17-.08-.36-.4-.23-.14-.19H136l-.2-.31.06-.64.11-.2,0-.22-.22-.17-.17-.42-.37.12-.11-.26-.51-.1-1-.7L133,235l-.36-1.46-.51-.32-.44-.31-.84.43-.64-.08L130,233l-.28-1.42-.55-.56-.48-.27-1.48.39-1,.52-.43.71-1,.47-1.28-.59-.83-.24-1.72.16h-.73l-.58-.14-.74-1,.17-2.26-.72-2.2.37-.78-.16-.83.44-.63.08-2.61.2-1.18-.36-1.74.12-.59.36-.22.16.45.55.24.68.08.08.55.6,0,0,.59.24.48.52.12.32.39h.28l.55-.79.32,0,.6.36.44-.32h1.08l1.07-.39,1.16.47.6.48.52.94.67.16.28.16.16.63.32.08.36.67.4.08.16.4.24.23.28.67.51.16.92.56h.36L134,225h.2l.4.43.6.12-.32.56,0,.59-.64,1,0,.27-.24.36.24.35.52.91,1,.55.8.08.2.71.77.34Z" transform="translate(-102.79 -168.74)" style="fill: rgb(210, 210, 230);"></path>
   <path name="La Virginia" data-id="844" id="path5992" class="cls-1" d="M149.83,245.16l-.25.89.3.82-.76.27-.8-.08-.45.44.17.83-.49.6-.6,1.5-.64.4-.64-.67-.88-.28-.52-.36-1-.24-.6-.67-1.1-.42-.06-.45-.4-.41,0-.46.24.08.28-.22-.36-.45.18-.2.38.5.16-.22-.18-.48.22-.19.17.17.16-.21.14.1.14.29h.2l-.16-.39.14-.12.12.16.06.23.22,0,.26-.37.26-.06.22-.32-.54.08-.14-.14-.2-.15,0-.24.44.1.22-.36.18-.1-.06-.31-.28-.18,0-.18.55,0,.46-.15.39.47,1.35-.43,1.54.88h.56l1,.24.43.44" transform="translate(-102.79 -168.74)" style="fill: rgb(210, 210, 230);"></path>
   <path name="Marsella" data-id="845" id="path5949" class="cls-1" d="M161.54,241.28l.16,1-.2.63.36.48.08.87.44.47.64.08v.51l.92,1.07.79.12.28.59.48.28-.12.43-.48.12-.12.27.16.36,0,.67-.38.48-1.23.35-.44.4-.66.11-.14-1.06-.84-.32-.79-.55-1.12-.2-1,.87H158l-.79.79-.8.47H156l-.64.44h-.52l-.55-.51-.4-.87-.72-.79-1-.12-1.11,0-.2-.83-.36-.71-.64-.28-.32-.88.26-.89.35-.61,1-.76,0-.48.2-.28.47.24.68-.28.24-.84.43-.2-.16-.39-.51-.32-.28-.32V239.8l-.39-.2.11-.32.52-.28.16-.24-.2-.48-.36-.28.84-.36.31-.84.87-.24-.23-.32-.56-.08-.08-.28.6-.64-.08-1,.79.68.59-.36-.55-.36.16-.76.31-.4h.52l.79-.56v-1.16l.56-.4.51-.56.48,0,.19.92.4.36v.52l.48.6.47.28-.08.24-.47.16,0,.12.75.6v.44l.44.56.07.48.4.4-.08.32.24.4-.16.48.32.56h.24l.15.48.24.24-.39.4.39.64-.08.88Z" transform="translate(-102.79 -168.74)" style="fill: rgb(210, 210, 230);"></path>
   <path name="Dosquebradas" data-id="841" id="path2426" class="cls-1" d="M169.72,260.28l.5,0,.4-.42.76-.08.17-.59-.17-.59.39-.36.06-.59.53-.36.2-1.2-.31.08H172l-.48.4h-.17l0-.56.51-.45-.06-.89.26-.28v-.28l-.6-.7-.87-1.4-.45-.64-.4-1.26-1.44-.53h-.47v.39l-.34.17-.43-.47h-.25l-.17.39-.51.08-.5-.42v-.3l-.45.08-.22-.27-.4.5-1.23.35-.44.4-.64.12.12.35-.2.91-.28.16v.75l-.32.23.16,1-.48,1,.12,1,.24.31V257l.16.12.6-.55.68-.12.8.32.75.12.52.59.36.16.76.11.64.32.71.83.72.39.88.32.56.71Z" transform="translate(-102.79 -168.74)" style="fill: rgb(210, 210, 230);"></path>
   <path name="Apía" data-id="838" id="path4348" class="cls-1" d="M136.68,209.09l.41.44-.22,1.2-.68.74-.08.49.49,1.08-.22.45.07.78.83,1.2.27.44.41.38.23.41.71.41.3.78h.3l.31.78v.86h.33l.57-.56.68.19.11.75.41.14,0,.54-1.2,1-.89,1.78.33,1.33-.89.81-1.48.48,0,.65.52.72.6,1.49-.51,1.16-.52,1.08-.32.17-.77-.34-.2-.71-.8-.08-1-.55-.52-.91-.24-.35.24-.36,0-.27.64-1,0-.59.32-.56-.6-.12-.4-.43H134l-.24.36h-.36l-.92-.56-.51-.16-.28-.67-.24-.23-.16-.4-.4-.08-.36-.67-.32-.08-.16-.63-.28-.16-.67-.16-.52-.94-.6-.48-1.16-.47-1.07.39h-1.08l-.44.32-.6-.36-.32,0-.55.79h-.28l-.32-.39-.52-.12-.24-.47,0-.6-.6,0-.08-.55-.68-.08-.55-.24-.18-.45.81-.38,1.52-.07,1.83.11,1-.31.68.12,2.24-.46.77-.33h.76l.64-.23,1.23-2-.2-2.07-.73-.53-.27-.46.17-.33.63-.27.73-1.08h.43l.54-1,.13-1,.33-.4.34.1.46.73,1.5.69.57-.13h1.28Z" transform="translate(-102.79 -168.74)" style="fill: rgb(210, 210, 230);"></path>
   <path name="Pueblo Rico" data-id="847" id="path5123" class="cls-1" d="M125.1,217.39l-.68-.12-1,.31-1.83-.11-1.52.07-.8.38-.35.22-.12.59.36,1.74-.2,1.18-.08,2.61-.44.63.16.83-.35.84-2.85-1.38-.85-1.43.17-.92-.42-1.59-.42-1.43,1.1-1.51.59-2L114,212.36l-1.6-2-1.17-1,.31-.93-1-1.22-1.09,0-.54-.65.11-.73-1.27-.5-.12-.54.27-.46-.73-.65.15-1.53-2.09-3.46-.7-.38.78-.65-.2-.31-1-.27.43-.76,0-.35-1.43-1,1.12-.42.12-1-.2-.46.93-.42s-.19-.88-.19-1.07.35-1.69.35-1.69l.77-.81-.35-1.84.9-.23.69,1.84.85-.76,1.86-.42.62.65.55-1.34.69.23.66-.54,1.16-.19.47.3.81-.84.89-2.07,1-.54.5.5.93-.26.2,1.26.32.91-.07.93.76.91.6,1.46.84,1.46.16.83.79-.39,2.34-.44h.64l.24.63.64.32.35,1.34,2.32.61.56,0,1.54,1.29,2.54.05.24.31.48.2.16.59-.36.83.48,1.11-.24.55-.27.09-.27.87-.44.91.32,1.3,1.08.91,0,1.06-.32.36.72.51.2.83.83,1.38,1,.42-.21,1,.25.73h-1.3l-.57.13-1.5-.69-.46-.73-.34-.1-.33.4-.13,1-.54.95h-.43l-.73,1.09-.63.27-.17.33.27.46.73.53.2,2.07-1.23,2-.64.23h-.76l-.77.33Z" transform="translate(-102.79 -168.74)" style="fill: rgb(210, 210, 230);"></path>

</svg>