<svg data-id="" id="Capa_1" data-name="Capa 1" xmlns="http://www.w3.org/2000/svg" viewBox="0 0 111.31 129.5">
   <defs>
      <style>.cls-1{fill: #ebebef;;stroke:#fff;stroke-miterlimit:3.86;stroke-width:0.25px;}</style>
   </defs>
   <path name="El Carmen" scale="4" move="1" data-id="876" id="path5804-7" class="cls-1" d="M229.35,247.31h.49l.32-.2.44,0,.17-.38h.57l.74.18.33-.3.51-.07,0-.34.21-.32.56.46.51.16h.83l.37-.21.07-.3-.14-.39.1-.45.37-.35,0-.39.21-.32-.14-.57.35-.48.37-.3v-.59l.39-.51.26-.13V241l.32-.42.74-1,.3-.59,0-.49-.14-.84-.05-.92.47-.64h-.61l-.44-.11-.78.13-.68-.39-.57-.16-.54-.38-.41,0-.61.39-.13-.34v-.55l-.28-.83.32-.27.07-.55-.28-.14-.37.23-.55.12-.58-.35-.12-.27-1-.64-.07-.28-.44.32-.39.12v.2l-.32.28-.37,0,.16-.46-.19-.3-.3-.11.17-.53-1.13.47-.57-.35-.26.15-1.26-.9-.28-.09-.23-.43-.54.08,0,.23-.32-.15h-.24l-.18-.18-.17.18-.25-.09.82,3.43-.15.68-.42.39h-.37l-.6-.42-.64,0-.06.35-.55.38-.56-.22h-.54l-.37-.42-.26,0-.14-.44-.4,0-.33-.06-.17.34-.24.09.17.2-.25.2.39.3-.08.25.29.24,0,.5-.22.31-.24-.15-.19.07-.06.46.25.49-.3.32.37.35-.13.31.29.39-.16.34.1.61.61.18-.32.17.09.23.31.06-.08.31-.57.19.07,1.13.88.51-.14.3.27.19.68,0,.14-.35.33.37,0,.44.87.09.21.22-.27.12.06.34-.36.67.53.62.38-.12.23.17.31-.12.47.16.49-.16.65.35L226,245l.46.29.42-.14.51.14.35.24.42,0,.37.39.65-.1.24.75,0,.72Z" transform="translate(-176.25 -160.64)" style="fill: rgb(210, 210, 230);"></path>
   <path name="San Vicente de Chucurí" scale="3.7" move="1" data-id="924" id="path5834" class="cls-1" d="M238.92,236.13l.44-.22,0-.38-.23-.4.12-.46-.2-.39.18-.86.28-.36.13-.46,0-.34.34-.73,0-.89.31-.87.46-.44,0-.65.2-1.48.2-.43-.37-.66,0-.47-.46-.23-.37.17-.4-.34.28-.24.06-.4-.34-.18.23-.41-1,0-.28-.29-.08-.35-.43-.27,0,.33-.43.2-.23-.18-.26.07-.47-.3-.54.24-.64.11-.75-.23-.33-.21-.39,0-1.16-1h-.32l-.42-.42-.08-1.41.42-.81-.05-.88.24-.78-.67.29-.12.31-.67.38-.41,0-.06-1.71-.16-.53.31-1.19v-.86l-.26-.7-.37-.62-.36-.34L221.17,224l.35.35.24,0,.19.41.42.35.4.2v.27l.54.25-.39.17,0,.21-.45,0,.17.31-.27.21-.44.47-.32-.26-.17.05-.14-.32L221,227l-.12-.41-.34.05-.42-.22-.44,0-.19-.16-.31.09.08.29-.23.12.06.2-.16.18.36.37-.26.27,0,.41h-.28l-.28.47,0,.44-.45.25.07.58-.19.3.17.37-.4.32.25.53.27-.13.31.07.16.45-.14.33.41.11.27.2v.32l.34.2-.09.3.15.44.33.06.4,0,.14.44.26,0,.37.42h.54l.56.22.55-.38.06-.35.64,0,.6.42h.37l.42-.39.15-.68-.82-3.43.25.09.17-.18.18.18h.24l.32.15,0-.23.54-.08.23.43.28.09,1.26.9.26-.15.57.35,1.13-.47-.17.53.3.11.19.3-.16.46.37,0,.32-.28v-.2l.39-.12.44-.32.07.28,1,.64.12.27.58.35.55-.12.37-.23.28.14-.07.55-.32.27.28.83v.55l.13.34.61-.39.41,0,.54.38.57.16.68.39.78-.13.44.11Z" transform="translate(-176.25 -160.64)" style="fill: rgb(210, 210, 230);"></path>
   <path name="Betulia" scale="4" move="1" data-id="858" id="path5839" class="cls-1" d="M234.71,223.32l.13-.26.32-.05.36-.5,0-.41.23-.21.37,0,.57-.18.43.09.39-.17,1-.64.35.17.46-.08.42.28.37,0,.5.3.26.35-.13.38-.24.14.2.34-.25.41-.35.63-.1.38.22.15.6.14.31.38,0,.49.23.18.23.11,0,.56.31.28.08.82h.4l.48-.23-.14.33.44.67.42-.09.2.22.33.1.49.7.71-1,0-.67.63-.75.17-.46.48-.13.26-.35.07-.26.35-.51-.37-.53-.23-.58-.53-.58-.71-.24-.5-.31-.9-.93-.28-.89-.48-.61-.41-.42-.45-.19-.43-.07-.37-.28h-.39l-.68-.35-.25-.41v-.31l.22-.27-.28-.43-.4.15-.88,0-.74-.58-.54-.67,0-.4-.4-.3-.48-.11-.69-.55-.59-.29-.17-.4v-.29l-.23-.23-.36.11-.66-.44-.63-.22-.54,0-.31-.23-.79.15-.68.31-.54-.55-.38-.15h-.47l.36.34.37.62.26.7v.86l-.31,1.19.16.53.06,1.71.41,0,.67-.38.12-.31.67-.29-.24.78.05.88-.42.81.08,1.41.42.42h.32l1.16,1,.39,0,.33.21Z" transform="translate(-176.25 -160.64)" style="fill: rgb(210, 210, 230);"></path>
   <path name="XXXX" data-id="" id="path5841" class="cls-1" d="M229.85,212.85l.81-.38.07-.26.43-.11.21.16.63-.16.62.34.43-.38.35.24.34-.3.16.42.41.16.16-.51.29.22.42-.08-.11-.41.17-.34.32,0,.2-.51.5-.36.51-.13.24-.26.51-.19,2.29-3.86-.25-.69,0-.47-.49-.63,0-.69.29-.49-.2-.33.08-.31-.31-.29.18-.16-.2-.34.11-.59-.32.19-.33-.35.4-.68.3-.17-.93-.78-.79.35L237,199l-.66.41-.76-.9-.21-.58-.4-.38.26-.49-.12-.2-.39.11-.19-.28.19-.33-.14-.25-.45.19-.26-.17.05-.23.34-.41-.25-.18-.4.15-.22-.15.25-.42-.82-.77-.89-.22-.44.29-.3-.46h-.3l-.32-.29-.05-.41-.34-.42-.43-.27.22-.4-.19-.12-.37,0-.25-.23-.06-.61.12-.23-.23-.18-.54-.9-1-.14-.63-.18-.25-.26h-.46l-.52-.44-.34.32-.28-.22-.26.19-.34-.2-.5.11,0-.49-.46,0v-.46l.31.06.09-.23-.23-.55-.23.19-.17-.25.18-.4-.13-.19-.34.33-.22-.27-.39.16.08-.48-.4.09.06-.29-.31,0-.12-.43-.29-.46-.59-.1-.17-.37.08-.31-.4-.24-.79.35-.17.38-.4-.07-.28-.23-.39.13-.26-.58-.17.34.12.29-.37.57.39.39,0,.69-.17.43.3.45.43.2.51,1-.11.38,1,1.07-.27.38-.55.29-.6.79-.59.1-.09.35-.54-.14.07.63-.24.33.32.72-.15.87.13.76-.2.49.11,1.22-.11,1.59.33.36.55.06.53.42v.5l.57.21.51-.1,1,.7.37.06.18.52-.32.37.72.48.59-.23h.59l.18.5.67.64.49.11-.28.41.26.2-.23.66.34.52.45-.06.22.42.48.23-.07.26.56.52.32.09,0,.34.38.39.56,1.27.4,1.37.87,1.91.13.58.65.34.68.5Z" transform="translate(-176.25 -160.64)" disabled="disabled" style="pointer-events: none;"></path>
   <path name="Landázuri" data-id="896" id="path5856" class="cls-1" d="M216.14,244.53l.6.22.34.33-.14.18.15.32,0,.38-.24,1,.14.38-.14.49.23.61.35-.15.3-.34.27.06.14.7.33.11.41.93.4.58.62.49.11.23.52.41.34,0,.33.33,1,.48.19.38,0,.38-.38.29-.34-.23-.37,1.2-.43.11.09.43-.15.38-.39.38-.35.75-.39.27-.63,1-.11.64-.34.56.39.16.32.41.11-.29.46-.09.06.36-.24.25-.19-.06-.35.41-.05.39.37.17.26.31v.42l.25.49-.09.47-.43.4-.25.09-.37.37,0,.24-.12.07-.33.34-.56,0-.17-.24-.46-.19-.33,0-.29-.2-.52.09-1,.44L213.58,265l-.48.06-.33.29,0,.32-.24.09-.28-.36-.07-.62-.43-.07-.23-.35-.47-.11-.41-.21-.19-.58-.19-.4v-.51l-.63-.38-.55.33-.41-.24-.81.62-.19-.14-.3.14-.22-.38-.42.21-.2-.1-.89.56-.05.21-.52.31-.56-.11-1.4,1.24-.69-.17-.42.06-.24-.18h-.28l-.19-.31H201l-.17.21-.15-.05-.06-.22-.32.06-.51-.76-.07-.53h.32l.31.38.43,0,.68.31.26-.38L202,263l.48-.1.87,0,.39-.33.33,0,.43-.28.47,0,.2-.35.5-.18.81-.65.78-.19.91-.85.1-.49.42,0,.66-.23.54-.38.2-.46.45.47.24-.32.12-.61,1.11.38.49-.18.05-.33.33-.24,0-.78-.12-.5.22-.68.4-.51.57-.3.53-.63-.16-.42.58-.91v-.67l.37-.61,0-.36.49-.51-.13-.35-2.41-1.91-1.09-1.36.36-.49.34.25.33-.09.29.32.8-1,1-.88,0-.41.15-.25.7-.09Z" transform="translate(-176.25 -160.64)" style="fill: rgb(210, 210, 230);"></path>
   <path name="Sucre" data-id="930" id="path5859" class="cls-1" d="M216.72,277.57l.71.09.4.07.25.64,0,.36.27.09,0,.22-.07.38H218l-.31-.26-.48-.16-.25.15-.13.26-.23.25-.4.22-.2.26-.52.13.32.38.17.46-.45.12-.23.19L215,282l-.34.23-.24.26-.33.19-.38,0-.2-.25-.32-.16v-.26l-.29-.18-.42.15-.3-.14-.14-.26-.29-.09-.3.1-.28-.23-.41.09-.39.33-.27.07-.65-.2-.29-.51-.77-.42-.1-.32.27-.3v-.28l.32,0-.25-.36.12-.24.22-.06.09-.16h-.23l-.31-.32.31-.18,0-.22-.35-.08-.42.17-.29-.08-.28.16h-.36l-.27.29-.48-.35-.46-.11-.16-.38.23-.49,0-.61-.3-.43-.35-.32h-.49l-.33-.25-.54-.14-.31-.33-.2.06,0,.3-.39.63v.55l-.83.82-.34.69-.42-.23-.38.19-.42-.16-.37.23-1.05-.82-.28-.19.54-.64-.06-.42.34-.29.23-.39-.22-.35,0-.38-.35-.27-.26-.48-.11-.45.17-.26-.31-.16V273l-.31.15-.33-.42.52-.42.17-.17.46,0,.2-.07V272l-.23-.23-.17-.12v-.26l-.1-.17,0-.18.23-.12,0-.19-.14-.19-.27-.15-.2-.16.05-.47.09-.21.18-.19.25-.15.13-.17-.48-.38-.11-.15v-.3l.19-.33.35-.1.51,0,.15-.2.19-.16-.1-.12-.2-.16-.24-.17-.21-.17,0-.15.17-.18,0-.26v-.22l-.15-.09,0-.18.22,0,.14,0,.27-.18V266l.15.35.65,0,0,.48.38.18.54-.13.48.11.4.29.19,0,.35.17,0,.21-.34.35,0,.3.32.53.31.1.25.26-.07.33-.21.33-.26.29-.06.34.2.33.33.16.46.14.38,0,.13-.25.63-.16h.44l.24.39,0,.2.31-.14.32-.33.17.13.26-.14.42,0,.3.16.24-.19-.25-1.15.4-.37.3-.4.49.5.05.42.16.33v.39l.46.42.47.27.65.66v.31l.31.18.08.24.63.5.49.13.41.25h.33l.29.31-.16.58.12.2-.09.35-.43.34.15.24h.2l.46.5.5.61,0,.31.61-.25.23.19.43.12.34.27.94.37Z" transform="translate(-176.25 -160.64)" style="fill: rgb(210, 210, 230);"></path>
   <path name="El Peñon" data-id="878" id="path3888-4" class="cls-1" d="M209.13,266.6V267l.15.56.22,0,.4-.1.42-.22.32-.21.33-.35.4-.11.26.2.37.06.2.32,0,.44.21.35.36.15.35,0,.36.09.29.26.37.06.28-.13.88-.67.31.61.4.48v.4l.28.5,0,.54.28.43.4.27.17.35-.12.7-.05.71-.52.47-.48.15h-.43l-.62.29-.5.28h-1l-.29-.31h-.33l-.41-.25-.49-.13-.63-.5-.08-.24-.31-.18v-.31l-.65-.66-.47-.27-.46-.42v-.39l-.16-.33-.05-.42-.49-.5-.3.4-.4.37.25,1.15-.24.19-.3-.16-.42,0-.26.14-.17-.13-.32.33-.31.14,0-.2-.24-.39h-.44l-.63.16-.13.25-.38,0-.46-.14-.33-.16-.2-.33.06-.34.26-.29.21-.33.07-.33-.25-.26-.31-.1-.32-.53,0-.3.34-.35,0-.21-.35-.17-.19,0-.4-.29-.48-.11-.54.13-.38-.18,0-.48.4-.3.31.17.4-.2.05-.34h.34l.25-.23.38-.06,1.14-.78.79,0,.29-.2.76.05.25-.2.32.29.25-.17.32.29-.17.41.53.32.15.41v.54l.34.07.25-.19.17.39.25,0,.21-.16.16.15Z" transform="translate(-176.25 -160.64)" style="fill: rgb(210, 210, 230);"></path>
   <path name="Santa Helena del Opón" data-id="926" id="path3914" class="cls-1" d="M227,257.35l-.22.06-.21-.14-.38.31-.29.08-.13-.13-.62.35-.29-.1v.2l-.12.08.07.26h-.13l0,.38,0,.38-.34,0-.18.12-.4,0-.17.36,0-.28-.2-.36-.06-.43.2-.25-.28-.16-.23-.06-.08-.23.13-.4.2-.47.29-.34v-.41l-.28-.37v-.44l.2-.35-.19-.86-.21-.06-.31-.19.26-.17.29,0,.11-.85-.18-.37,0-.41.26-.37.24,0,0-.26.66-.76-.25-.43.28-.1-.43-.22-.08-.45-.4-.42-.45,0-.56-.18.09-.24.39-.34.2.25.86.06.53-.78-.05-.35.65-.66.07-.32.61.28.43.35.35-.49.65,0,.93.34.68.55-.19.48.05.38.64.59.33-.13.55,0,.55.21.11.27.41.06.33.26.11.27.47.12.51.36.59,0,.7-.34-.3.66-.08.59-.35.76-.16,1.7.22.43-.48.11-.38.29-.66-.24-.34.09-.31.16-.22.26v.45l-.18.39-.19.31-.05.37-.18.3-.16.08v.28l-.4.35-.08.26-.32.27-.3.13L229,258h-.27l-.23-.18v-.25l-.31-.05-.18-.24-.15,0-.11-.13-.37.13-.13.12Z" transform="translate(-176.25 -160.64)" style="fill: rgb(210, 210, 230);"></path>
   <path name="Vélez" data-id="934" id="path5865" class="cls-1" d="M220.23,275.12l.24.15,0,.33.43.19.11-.12.23.22.63,0H222l.13.16v.39l.48.59.08.32.22.05.18.23-.08.46-.09.22.43.24,0-.32.17-.22.18-.5.19-.28.43-1.07.19-.31.17-.08.33-.35.32-.1.18-.25.28-.22-.08-.32.11-.15.2,0,.37-.32.36-.1.15-.31-.28-.33-.27-.48L226,273l-.46.43-.48.14-.47,0-.88-.58L223,273l-.51-.38-.63,0-.21-.21.27-.4.06-.32.59-1.08.51-.49.07-.17.47-.46.32-.71.1-.39.14-.16.17-.7.25.05.44-.46L225,267l-.51.08-.36-.07-.28-.13h-.3l-.44-.35-.23-.31-.28,0-.19-.28-.12-.52-.15-.39.08-.14-.08-.69,0-.41.2-.54.17-.36-.09-.43.07-.57-.07-.38-.13-.33.07-.22H222l-.17-.35-.06-.78-.35-.09-.5-.39-.23-.64-.17.23-.32-.15.38-.55-.09-.35.23-.37.05-.33.2-.08.2-.47v-.37l.4-.33v-.28l.47-.38.05-.23.22,0,.85-1-.31-.19.26-.17.29,0,.11-.85-.18-.37,0-.41.26-.37.24,0,0-.26.66-.76-.25-.43.28-.1-.43-.22-.08-.45-.4-.42-.45,0-.56-.18-.36.18.16-.68-.33-.19.17-.39-.28-.28-.23.11-.51-.2-.21-.24-.36.12-.06-.61-.46.09h-.71l0-.4h-.35l-.46-.39-.47.2h-.35l0-.66.25-.53-.23-.06-.22.29-.6-.17-.14.18.15.32,0,.38-.24,1,.14.38-.14.49.23.61.35-.15.3-.34.27.06.14.7.33.11.41.93.4.58.62.49.11.23.52.41.34,0,.33.33,1,.48.19.38,0,.38-.38.29-.34-.23-.37,1.2-.43.11.09.43-.15.38-.39.38-.35.75-.39.27-.63,1-.11.64-.34.56.39.16.32.41.11-.29.46-.09.06.36-.24.25-.19-.06-.35.41-.05.39.37.17.26.31v.42l.25.49-.09.47-.43.4-.25.09-.37.37,0,.24-.12.07-.33.34-.56,0,0,.32-.15.6.13.53.52.22.25.33.16.46.37.14.44,0,.28.38v.45l-.05.37.13.23v.44l-.32.31-.38,0-.39.42,0,.23-.12.44.09.2.14,0,.14.19-.13.22.3.4,0,.37.11.65.15.45.13.49.39.14.31.32-.34.63-.21.22-.19-.05-.23.08-.16.3-.53.29.1.22.75.14.55.36.15-.07Z" transform="translate(-176.25 -160.64)" style="fill: rgb(210, 210, 230);"></path>
   <path name="La Paz" data-id="897" id="path3121" class="cls-1" d="M224.62,267.57l0,.12.23,0,.31.08,0,.17.29.18.14-.13.22,0,.23.25.27.09.25.53.22.12.4.08,0,.26.23.48.39.16h.41l.18-.19h.26l-.08-.21.07-.15.28,0,0-.19.28-.27.3-.11.22-.2-.2-.25-.16-.31v-.2l-.33-.28v-.18l.21-.43-.28-.23-.06-.19.19-.07v-.13l-.27-.25,0-.16.19-.44,0-.18.16,0,.05-.28.12-.15v-.22l-.27-.28,0-.19-.16-.12,0-.46.2-.44,0-.57-.22-.29-.34-.06h-.25l-.13-.51-.14-.15.14-.39-.09-.39h-.23l-.3-.23-.56-.19-.23-.25-.27-.08-.33-.51-.23,0-.29-.26-.15,0-.13-.25-.35-.16-.15.18-.34,0-.18.12-.4,0-.17.36,0-.28-.19-.36-.06-.43.2-.25-.28-.16-.23-.06-.08-.23.13-.4.2-.47.29-.34v-.41l-.28-.37v-.44l.2-.35-.19-.86-.21-.06-.85,1-.22,0-.05.23-.47.38V256l-.4.33v.37l-.2.47-.2.08-.05.33-.23.37.09.35-.38.55.32.15.17-.23.23.64.5.39.35.09.06.78.17.35h.4l-.07.22.13.33.07.38-.07.57.09.43-.17.36-.18.48-.06.47.08.69-.08.14.15.39.12.52.19.28.28,0,.23.31.44.35h.3l.28.13.36.07L225,267l.11.07-.44.46Z" transform="translate(-176.25 -160.64)" style="fill: rgb(210, 210, 230);"></path>
   <path name="Chipatá" data-id="869" id="path3123" class="cls-1" d="M227.9,270.25l-.29.25-.07.32-.17.09.12.26-.41.46-.12.3,0,.4.1.22-.71.22L226,273l-.46.43-.48.14-.47,0-.88-.58L223,273l-.51-.38-.63,0-.21-.21.27-.4.06-.32.59-1.08.51-.49.07-.17.47-.46.32-.71.1-.39.14-.16.17-.7.25.05,0,.12.23,0,.31.08,0,.17.29.18.14-.13.22,0,.23.25.27.09.25.53.22.12.4.08,0,.26.23.48.39.16.07.28Z" transform="translate(-176.25 -160.64)" style="fill: rgb(210, 210, 230);"></path>
   <path name="Jesus Maria" data-id="893" id="path3127" class="cls-1" d="M218.33,279.42l.16.38.21.11v.33l.6.83-.35.13v.34l-.51.32-.37-.15v.48l-.27.22h-.47l-.69.49-.4,0-.3.45v.44l-.16.47-.47.06-.38.51-.42.35-.21.29-.55-.23.12-.4-.43-.07-.2-.2-.29.08v-.26l-.14-.31-.22,0-.5.32-.12-.18,0-.26-.15-.26,0-.27,0-.3-.16-.23.12-.16,0-.29.08-.16.33-.08.25.07,0-.27.42-.15.29.18v.26l.31.16.21.25.38,0,.31-.16.26-.29L215,282l.24-.62.23-.19.45-.12-.17-.46-.32-.38.52-.13.2-.26.4-.22.23-.25.13-.26.25-.15.47.16.32.26Z" transform="translate(-176.25 -160.64)" style="fill: rgb(210, 210, 230);"></path>
   <path name="Guavatá" data-id="890" id="path3131" class="cls-1" d="M218.71,280.24l.45-.06.6-.7.31.09.25-.35.26-.05.39.81.49,0,.45-.64.8-.58.25,0,.42-.31-.44-.23.09-.22.08-.46-.18-.23-.22-.05-.08-.32-.48-.59V276l-.13-.16h-.16l-.63,0-.23-.22-.11.12-.43-.19,0-.33-.24-.15-.15.07-.26-.14-.29-.22-.75-.14-.1-.22-.34,0,0,.58-.12.29.1.42,0,.38.34.64-.32.26-.19.43-.31.23.25.64,0,.36.27.09,0,.22-.07.38.16.38.21.11v.33Z" transform="translate(-176.25 -160.64)" style="fill: rgb(210, 210, 230);"></path>
   <path name="Aguada" data-id="852" id="path5881" class="cls-1" d="M229.9,261.43l.31.12.19.16.14.27-.06.31.06.39.28.34.54.31h.34l.48.21.35.62.32.22,0,.3-.22.39.06.21.08.35-.13,0,0,.1-.19-.17-.27.32-.31.24-.07.15-.14,0-.07.17-.29.19-.4-.15-.2.26-.22.12.13.4,0,.28-.36.22-.12.19-.07.45-.35.24-.2-.25-.16-.31v-.2l-.33-.28v-.18l.21-.43-.28-.23-.06-.19.19-.07v-.13l-.27-.25,0-.16.19-.44,0-.18.16,0,.05-.28.12-.15v-.22l-.27-.28,0-.19-.16-.12,0-.46.2-.44,0-.57-.22-.29-.34-.06h-.25l-.13-.51-.14-.15.14-.39-.09-.39.42.31.34.11.2.13.22.33.23-.14.21-.33.33-.09v.27Z" transform="translate(-176.25 -160.64)" style="fill: rgb(210, 210, 230);"></path>
   <path name="Lebrija" scale="4.5" move="1" data-id="898" id="path5892" class="cls-1" d="M250.11,209.72l.13.91.36.45-.21.5,0,.5.14.41-.48.56-.6.52-.31.17.18.54v.62l-.19.51-.5.91-.2.46,0,.52-.21.18.16.36-.13.21.1.24-.11.16.11.21-.34.18-.28,0-.34-.08-.38.19-.37,0-.25-.35-.4-.19-.56-.06-.1-.33-.24-.3,0-.34-.13-.1,0-.53h-.22v-.28l-.68-.41-.72-.76-.33,0,.1-.35-.45-.32-.41,0-.3.18,0,.37-.48-.32-.44-.08-.54-.3-.31-.36,0-.44-.14-.12-.57-.09-.34-.21h-.37l-.2-.19-.44-.21h-.44l-.28.18-.21-.19-.25-.37-.36.59-.47-.18.13-.27-.26-.18.09-.31-.24-.31,0-.18-.23-.19.2-.51.5-.36.51-.13.24-.26.51-.19,2.29-3.86-.25-.69,0-.47-.49-.63,0-.69.29-.49-.2-.33.08-.31-.31-.29.18-.16-.2-.34.11-.59-.32.19-.33-.35.4-.68.3-.17-.93-.78.34-.24.22.06.28-.13.09-.16-.06-.2.11-.15.21-.07.43.05.11-.26.25.15.15.4,0,.6.06.39.22.15.1.36-.07.36-.24.29,0,.28.14.32.05.41.25.15,0,.2-.23.2-.11.26.11.24.28.14.63,0,.23-.35.45-.44.39-.14,0-.32.21,0,0,.31.34,0,.2.2.31-.05.15.18,0,.25-.28.14,0,.22.33.13.17.21,0,.46.18.2,0,.55.17.18.09.47.36.43.37.09.07.29.28.44,0,.37.13.5,0,.69.07.23.15.09.15-.11.19,0,.42.32.29.42.22,0,.23.2.4-.05.4,0,.42.12.35.29.3.05.29.18.35-.27.36,0Z" transform="translate(-176.25 -160.64)" style="fill: rgb(210, 210, 230);"></path>
   <path name="Matanza" scale="6.7" move="0" data-id="902" id="path5901" class="cls-1" d="M260.1,204.18l-.34.37-.5.79-.48-.07-.32.21-.45.06-.7.66-.38.05-.32-.14-.22.07-.3.35-.21.41,0,.53-.12.15.21.34.27.19,0,.25.08.18-.21.28.06.6-.22.19-.3.08-.08.38-.26.15-.14-.19H255l-.69-.47,0-.22.13-.27.23-.24.1-.27,0-.42.11-.18,0-.49-.18-.26.15-.2.14-.27,0-.45-.5-.61-.34-.15h-.72l-.17-.14.31-.37-.3-.43,0-.62.14-.23v-.21l-.35-.39-.06-.19-.31-.11-.25.09.2-.47-.05-.64.25-.17,0-.24.23-.26.07-.26.18-.2,0-.52.44-.44.37-.63.07-.33.4-.57.18-.56-.06-.39-.34-.32-.09-.27.05-.34.43-.33.19-.17,0,.21.17,0,.08.3.19.2.55,0h.53l.23.07.2.11.65.69.29.06.45.39.21,0,.13.27,0,.22.17,0,.22.21.23.12-.15.28v.88l-.17.34.06.37-.17.41-.23.36-.28.22,0,.29.54.44.34.49-.18.29.29-.15.14-.17.23.2.29,0,.28.26-.11.29.1.23-.06.38Z" transform="translate(-176.25 -160.64)" style="fill: rgb(210, 210, 230);"></path>
   <path name="XXXX" data-id="" id="path5920" class="cls-1" d="M266.18,200.9l-.26.06-.53-.21-.35.06.15.3-.15.25h-.27l-.66.59-.68.17-.39.34-.06.41-.29,0v.31l-.16.29.1.67.37.15.37.37v.73l-.56-.49h-.17l-.21-.23-.17,0-.44-.44-.29,0-.38-.43-.39-.35h-.15l-.59-.76.06-.09-.05-.35.33-.17.25.09.49.26h.55l.28-.17.37-.65.16-.49.36-.27.15-.22.2-.23.2.11.09-.2.28-.34H264l.25-.25h.2l.09-.12.14.06.14-.11.28.12.15.37.25-.09.47.68.25.08-.07.23Z" transform="translate(-176.25 -160.64)" disabled="disabled" style="pointer-events: none;"></path>
   <path name="XXXX" data-id="" id="path5936" class="cls-1" d="M265,207.05l-.57-.56-.29-.09-.23-.43-.2-.05-.09-.24-.25-.26v-.73l-.37-.37-.37-.15-.1-.67.16-.29v-.31l.29,0,.06-.41.39-.34.68-.17.66-.59H265l.15-.25-.15-.3.35-.06.53.21.26-.06.07-.25.38.1.47.55-.11.34.45.22.16-.07.2.16,0,.35-.32.24.16,1.65-.23.09.24.54.33.12.08.2-.5.29h-.17l-.46.42-.07.24-.19.08-.36-.06-.44.35-.1.44-.16.13Z" transform="translate(-176.25 -160.64)" disabled="disabled" style="pointer-events: none;"></path>
   <path name="Charta" scale="8.5" move="2" data-id="867" id="path5941" class="cls-1" d="M265.61,207.16l-.65.33-.25-.07-.18.33-.27.32-.43-.38-.25-.06-.54.2-.68.14-.6.36-.35,0-.17.11-.2-.17-.25,0-.31-.38-.15-.29-.48,0-.76.61-.29.06-.2.29,0,.25-.31.1-.1.12,0,.49-.22.61-.41.51-.28,0-.31.45h-.22l-.24-.32-.2,0-.36.37-.28,0-.47-.21,0-.31.18-.3.26-.15.08-.38.3-.08.22-.19-.06-.6.21-.28-.08-.18,0-.25L256,208l-.21-.34.12-.15,0-.53.21-.41.3-.35.22-.07.32.14.38-.05.7-.66.45-.06.32-.21.48.07.5-.79.34-.37.33-.23.28,0,.45.34.2.26.16-.08.3.09.05.19.19.09.41.47.19-.06.14.09.57,0,.24.26.1.24.2.05.23.43.29.09.57.56h.62Z" transform="translate(-176.25 -160.64)" style="fill: rgb(210, 210, 230);"></path>
   <path name="Piedecuesta" scale="5" move="1" data-id="911" id="path5946" class="cls-1" d="M258.84,230.35V230l-.3,0-.14-.2-.17-.33-.21,0-.53-.32,0-.35-.16-.05-.14.18-.33-.1-.22-.37-.06-.29-.39-.35h-.32l-.4-.42-.53-.2h-.18l-.2-.15-.16,0-.22-.2,0-.23-.31-.2-.36-.27-.17-.29.4-.38-.18-.37.06-.49.54-.26-.23-.21-.36-.08-.06-.23-.2-.1v-.52l-.08-.14.19-.29-.12-.06-.27.2-.23-.23v-.37l.35-.49-.21-.71,0-.78.35-.31.48,0,0-.35.19-.11.11-.27.71.63.26-.42-.14-.35.46,0,.47-.14.27-.24.3-.08v-.32l.4-.35.33-.52.41-.27.13-.69V216l.16-.17.21.05.3-.26.29.1H259l0-.23.15-.21.2-.17.21.22h.2l.21-.14h.43l.19.2.34.09.29-.1-.12.29.12.14v.44l.11.24-.19.29.39.4h.4l.11-.35-.13-.38.46-.68.61.45.71.3.2.38.15.39-.08.35-.46.76.22.38-.13.43,0,.81-.42.73.09.56-.77,1.21-.43,1.05-.22-.1-.57.39-.56,0-.35-.45-.33,0-.29.76-.37.55-.14.55H259l.19.32-.17.23,0,.41.22.9.14,0,.17-.33.43-.41.11-.83.26-.26h.26l.36-.2-.08.32.09.2-.2.2.22.26.49,0,.19.19-.48.9.2.2.28.09.38.38-.2.29-.06.29.26.06.26-.26.28.11.63-.37.35-.38.18,1.32-.33.73-.63.83-.07.53-.24.48-.5-.43-.15.62-.24.1-.23.51-.62.07-.72-.12-.08-.92-.57-.34-.55-.5Z" transform="translate(-176.25 -160.64)" style="fill: rgb(210, 210, 230);"></path>
   <path name="Los Santos" scale="8" move="1" data-id="899" id="path5948" class="cls-1" d="M249.82,227.32l.71-.41.89-.31.46-.26.27.11.95-.58.31-.06.17.29.67.47,0,.23.22.2.16,0,.2.15H255l.53.2.4.42h.32l.39.35.06.29.22.37.33.1.14-.18.16.05,0,.35.53.32.21,0,.17.33.14.2.3,0v.38l-.21.23v.36l-.26.21-.14.42-.44.79v.46l-.57.42-.33.58-.39.09-.46.61-.34.1-.47.66-1.36.14-.43.32-.4-.25-.76.12-.37-.1-.77,0-1.26-.41-.3-1-.32,0-.26-.37h-.48l-.16-.34-.07-.87.14-.75.74-.62.18-.76.3-.11.07-.37.28-.34.05-.73-.12-.65-.11-.89Z" transform="translate(-176.25 -160.64)" style="fill: rgb(210, 210, 230);"></path>
   <path name="Floridablanca" scale="10" move="1" data-id="883" id="path5951" class="cls-1" d="M256.85,213.66l-.49.2-.2.17,0,.19-.28.16,0,.45-.4,0-.26-.24-.39,0-.26.38v.37l-.19-.06-.68.71-.32.14-.07.17-.44.56-.14.35-.53.54-.32.06-.08.15.28.19.14.31-.13.16.2.09-.07.41.15.14.21-.11.17.11-.26.21.25.28.13.17,0,.12.14.26.35-.31.48,0,0-.35.19-.11.11-.27.71.62.26-.41-.14-.35.46,0,.47-.14.27-.24.3-.08v-.32l.4-.35.33-.52.41-.27.13-.69V216l.16-.17.21.05.3-.26.29.1H259l0-.23.15-.21-.29-.12-.14-.44-.62-.43-.17-.37,0-.38-.37-.12-.33-.21-.1.3-.24.2Z" transform="translate(-176.25 -160.64)" style="fill: rgb(210, 210, 230);"></path>
   <path name="Bucaramanga" scale="8" move="1" data-id="851" id="path3279" class="cls-1" d="M250.51,209.48l.14.44.11.06,0,.35.1.08-.06.32.17.46-.1.24.07.24.19.49h.18l0,.45-.59.68v.35l-.12.36-.22.43,0,.3-.21.33v.26l-.36.38.44.41.6.17.09.35.44.11.41.25.32-.19.34,0-.11.29,0,.24.16.1.25-.25.14-.35.44-.56.07-.17.32-.14.68-.71.19.06V215l.26-.38.39,0,.26.24.4,0,0-.45.28-.16,0-.19.2-.17.49-.2-.49-.35-.56-.05-.32-.15-.06-.63V212l.3-.38.18-.44-.28,0-.47-.21,0-.31.18-.3-.14-.19H255l-.69-.47,0-.22.13-.27.23-.24.1-.27,0-.42.11-.18,0-.49-.17-.27-.26,0-.32.1-.76.73v.3l-.23.4-.4,0-.14.31.05.23-.48.4h-.28l-.14.32-.26-.05-.56-.35-.29-.09Z" transform="translate(-176.25 -160.64)" style="fill: rgb(210, 210, 230);"></path>
   <path name="Girón" scale="4" move="1" data-id="886" id="path5955" class="cls-1" d="M249.82,227.32l-.79-1-.58-.09-.27-.22-.84-1-.37-.53-.23-.58-.53-.58-.71-.24-.5-.31-.9-.93-.28-.89-.48-.61-.41-.42-.45-.19-.43-.07-.37-.28h-.39l-.68-.35-.25-.41v-.31l.22-.27-.28-.43-.4.15-.88,0-.74-.58-.54-.67,0-.4-.4-.3-.48-.11-.69-.55-.59-.29-.17-.4v-.29l-.23-.23-.36.11-.66-.44-.63-.22-.54,0-.31-.23-.79.15-.68.31-.54-.55-.38-.15h-.47l.81-.38.07-.26.43-.11.21.16.63-.16.62.34.43-.38.35.24.34-.3.16.42.41.16.16-.51.29.22.42-.08-.11-.41.17-.34.32,0,.23.19,0,.18.24.31-.09.31.26.18-.13.27.47.18.36-.59.25.37.21.19.28-.18h.44l.44.21.2.19h.37l.34.21.57.09.14.12,0,.44.31.36.54.3.44.08.48.32,0-.37.3-.18.41,0,.45.32-.1.35.33,0,.72.76.68.41v.28H245l0,.53.13.1,0,.34.24.3.1.33.56.06.4.19.25.35.37,0,.38-.19.34.08.28,0,.34-.18-.11-.21.11-.16-.1-.24.13-.21-.16-.36.21-.18,0-.52.2-.46.5-.91.19-.51v-.62l-.18-.54.31-.17.6-.52.48-.56-.14-.41,0-.5.21-.5-.36-.45-.14-.91.41-.24.14.44.11.06,0,.35.1.08-.06.32.17.46-.1.24.07.24.19.49h.18l0,.45-.59.68v.35l-.12.36-.22.43,0,.3-.21.33v.26l-.36.38.44.41.6.17.09.35.44.11.41.25.32-.19.34,0-.11.29,0,.24.16.1-.28.29-.32.06-.08.15.28.19.14.31-.13.16.2.09-.07.41.15.14.21-.11.17.11-.26.21.25.28.13.17,0,.12.14.26,0,.78.21.71-.35.49v.37l.23.23.27-.2.12.06-.19.29.08.14v.52l.2.1.06.23.36.08.23.21-.54.26-.06.49.18.37-.4.38-.31.06-.95.58-.27-.11-.46.26-.89.31-.71.41Z" transform="translate(-176.25 -160.64)" style="fill: rgb(210, 210, 230);"></path>
   <path name="Mogotes" scale="5.7" move="1" data-id="903" id="path5957" class="cls-1" d="M266,240.82l-.56.09-.82-.19.12-.51-.24-.26-.24.2-.21-.17-.05-.21h-.37l0,.58.1.32-.49.73,0,.31-.37,0-.21.43-.25.12h-.33l-.24-.2v-.41l-.24-.15-.28.32-.67.07-.3.11-.41.47.14.44-.06.19.12.23,0,.45-.74.72,0,.41.12.2-.06.17.11.2-.42.38-.39.09-.27-.11-.07-.19-.23.09-.21-.16-.19.23h-.18l0,.3-.37.1-.46.42,0,.29-.36.37-.48.2-.26.26-.09.35-.22.26,0,.24-.28.09.18.23.05.49.17.24,0,.66-.12.47,0,.75-.18.2-.14.47-.05.35-.23.23-.08.25,0,.21.09.38.17.15,0,.38h.3l.25-.12.24.06.27,0,.26,0,.15-.28.2.07.27-.15.22-.22.11.18.45.06.35-.38.19,0,.14.18.21-.05.17.23v.46l.23.22v.3l.12.09v.34l.45.21.73,0,.24-.21h.22l.23-.25.23,0,.23-.17.45-.2.53.06.38-.24.36-.34.54.25.23,0,0-.37.12-.16-.09-.26-.05-.48.08-.48.2-.31,1-.95.06-.3.42-.4.35-.38-.1-.4.16-.55v-.36l-.24-.08-.22-.09,0-.26.19-.23v-.32l-.38-.06-.34-.4.57-.45.29-.1.31.11.17-.47,0-.55.24-.21,0-.34.39-.41,0-.41.4-.32.35.06.39-.37-.25-.52-.08-.53-.34-.34-.42-.11-.66-.55-.13-.51-.32-.48Z" transform="translate(-176.25 -160.64)" style="fill: rgb(210, 210, 230);"></path>
   <path name="El Guacamayo" data-id="877" id="path5878-7" class="cls-1" d="M229.58,261.24l.32-.08v.27l.31.12.19.16.14.27-.06.31.06.39.28.34.54.31h.34l.48.21.35.62.32.22h0l.26-.24.15,0,.06-.23.41-.46,0-.17.19-.16.06-.18.22-.19-.05-.12.25-.5.06-.07h.12v-.15l-.08-.1-.14,0-.15,0-.16,0h-.21l-.18-.08-.09-.14,0-.17.11-.23,0-.15.13-.37v-.16l-.06-.12a1.12,1.12,0,0,0-.1-.16V260l-.28,0-.19-.08-.31-.06-.31-.1-.11-.08h-.14l-.1.13L232,260l-.23.21-.29,0-.27-.16-.07-.09,0-.09-.07,0-.11-.13-.1-.05h-.1l0-.1-.32,0-.06-.09-.15-.07-.08-.07H230l-.05-.06h-.07l-.19-.15,0-.11-.1-.09-.27-.14-.1-.24-.06-.34-.08.17-.24.26,0,.22-.16.09-.19.25-.25,0-.12-.14h-.26l-.38-.16,0-.27-.46-.3-.17-.31h0l0-.25,0-.28-.21-.14-.38.31-.29.08-.13-.13-.62.35-.29-.1v.2l-.12.08.07.26h-.13l0,.38,0,.38.16-.18.35.16.13.25.15,0,.29.26.23,0,.33.51.27.08.23.25.56.19.3.22H228l.42.31.34.11.2.13.22.32.23-.13.22-.34Z" transform="translate(-176.25 -160.64)" style="fill: rgb(210, 210, 230);"></path>
   <path name="San Joaquín" scale="10" move="1" data-id="921" id="path6020" class="cls-1" d="M268.23,243.86l-.39.37-.35-.06-.4.32,0,.41-.39.41,0,.34-.24.21,0,.55-.17.47-.31-.11-.29.1-.57.45.34.4.38.06v.32l-.19.23,0,.26.22.09.24.08v.37l-.16.54.1.4-.35.38-.42.4-.06.3-1,.95-.2.31-.08.48.05.48.09.26-.12.16,0,.37.17.31.28-.06.35.22.68-.68.57,0,.53-.19.24.06.31.2.42,0,.46-.28.71-.76.45.08.09-.14-.17-.29.19-.18v-.35l-.16-.28.16-.15v-.31l-.18-.32.14-.36-.06-.46v-.73l-.08-.4.14-.4-.11-.18.14-.47.28-.29-.17-.25.09-.26-.05-.2-.2-.15-.14-.26.11-.13-.17-.22.06-.21-.15-.28.14-.35-.48-.36-.23-.5-.08-.74Z" transform="translate(-176.25 -160.64)" style="fill: rgb(210, 210, 230);"></path>
   <path name="Aratoca" scale="9" move="1" data-id="854" id="path6024" class="cls-1" d="M255.43,235l.76.71.56.21.52.46-.08.66-.78-.47-.53.18-.38-.22-.84.31-.34-.08-.46.35-.08.28.34.05.17.13.34,0,.19.26,0,.38.14.17.31,0,.12.26.39.17.41-.08.3.23.07.5.61.51.35-.19.29.16.7-.17.26.1.37-.18.22.35.29.06.23-.36.4-.34.68-.21.56-.44.17-.34.46-.47.49-.3v-.74l-.72-.59-.58-.18-.42-.44-.17-.48.18-.56-.32-.29-.42-.05,0-.47.28-.41-.49-.42-.06-.58.16-.26-.08-.92-.57-.34-.55-.5-.21.23v.36l-.26.21-.14.42-.44.79v.46l-.57.42-.33.58-.39.09-.46.61-.34.1-.27.38Z" transform="translate(-176.25 -160.64)" style="fill: rgb(210, 210, 230);"></path>
   <path name="Curití" scale="6" move="1" data-id="875" id="path6027" class="cls-1" d="M262.59,237.58l-.49.3-.46.47-.17.34-.56.44-.68.21-.4.34-.23.36-.29-.06-.22-.35-.37.18-.26-.1-.7.17-.29-.16-.35.19-.61-.51-.07-.5-.3-.23-.41.08-.39-.17-.12-.26-.31,0-.14-.17,0-.38-.19-.26-.34,0-.17-.13-.34-.05-.09.23-.29.17-.3-.06-.37,0,0,.25-.08.48.23.2-.18.28.34.67.26.23.14.35.23.23.12.42-.26.6v.27l-.17.14.13.34-.2.21.07.23-.24.37.1.64.18.67.22.09.29-.23.54-.26.28.05.09.36.42.46.6,0,.42.47h.28l.5.33.33,0,.25.2h.18l.19-.23.21.16.23-.09.07.19.27.11.39-.09.42-.38-.11-.2.06-.17-.12-.2,0-.41.74-.72,0-.45-.12-.23.06-.19-.14-.44.41-.47.3-.11.67-.07.28-.32.24.15v.41l.24.2h.33l.25-.12.21-.43.37,0,0-.31.5-.73-.11-.32,0-.58H264l.05.21.21.17.24-.2.24.26-.12.51.82.19.56-.09-.19-.7-.3-.64L265,239l-.26-.53-.73-.14-.7-.26-.3-.35-.43-.17Z" transform="translate(-176.25 -160.64)" style="fill: rgb(210, 210, 230);"></path>
   <path name="Jordán" scale="12" move="2" data-id="894" id="path6029" class="cls-1" d="M252.28,235.61l-.37-.1-.7,0,0,.25-.18.54.18.55.18.12.28.38.76.32.41-.08-.13.2.37,0,.3.06.29-.17.09-.23.08-.28.46-.35.34.08.84-.31.38.22.53-.18.78.47.08-.66-.52-.46-.56-.21-.76-.71-.2.28-1.36.14-.43.32-.4-.25-.76.12Z" transform="translate(-176.25 -160.64)" style="fill: rgb(210, 210, 230);"></path>
   <path name="Villanueva" scale="10" move="1" data-id="936" id="path6031" class="cls-1" d="M253.06,239.65l-.33.1,0,.39-.4.38-.45.3v.37l-.21.16-.16.27-.27,0-.17.21-.07.32-.2.2-.06-.22.25-.53-.22-.28-.21,0-.4-.43-.18-.33h-.27l-.19-.26-.25,0L249,240l-.25-.08.05-.44.15-.13-.21-.27-.22-.06.18-.53.17-.14V238l.19-.22-.22-.49-.44-.23,0-.34.09-.32.23-.21-.23-.28-.52-.13-.29-.17-.21-.2h-.15l-.2-.23.28-.38v-.49l.21-.26v-.3l.11-.28.25-.12.38,0,.16.34H249l.26.37.32,0,.3,1,.78.24.55.17,0,.25-.18.54.18.55.18.12.28.38.41.18.35.14.41-.08-.13.2,0,.25-.08.48.23.2-.18.28.34.67Z" transform="translate(-176.25 -160.64)" style="fill: rgb(210, 210, 230);"></path>
   <path name="Zapatoca" scale="5" move="1" data-id="937" id="path6033" class="cls-1" d="M247.13,235.22l-.19.34-.29.2-.14.3-.32.18-.39.07-.4.32,0,.39-.13.38-.67,0-.22-.21-.58-.25-.08-.39-.52-.37-.28-.47,0-.4-.14-.38-.6-.42h-.39l-.46-.14-.51-.35-.06-.43.25-.24,0-.2-.38-.29-.41-.19-.52-.1,0-.34.34-.73,0-.89.31-.87.46-.44,0-.65.2-1.48.2-.43-.37-.66,0-.47-.46-.23-.37.17-.4-.34.28-.24.06-.4-.34-.18.23-.41-1,0-.28-.29-.08-.35-.43-.27,0,.33-.43.2-.23-.18-.26.07-.47-.3-.54.24-.64.11-.75-.23.13-.26.32-.05.36-.5,0-.41.23-.21.37,0,.57-.18.43.09.39-.17,1-.64.35.17.46-.08.42.28.37,0,.5.3.26.35-.13.38-.24.14.2.34-.6,1-.1.38.22.15.6.14.31.38,0,.49.23.18.23.11,0,.56.31.28.08.82h.4l.48-.23-.14.33.44.67.42-.09.2.22.33.1.49.7.71-1,0-.67.63-.75.17-.46.48-.13.26-.35.07-.26.35-.51.84,1,.27.22.58.09.79,1,.11.89.12.65-.05.73-.28.34-.07.37-.3.11-.18.76-.74.62-.14.75.07.87-.38,0-.25.12-.11.28v.3l-.21.26v.49l-.28.38Z" transform="translate(-176.25 -160.64)" style="fill: rgb(210, 210, 230);"></path>
   <path name="Barichara" scale="8" move="1" data-id="856" id="path6037" class="cls-1" d="M250.83,242.4l-.37.27-.31-.06-.43,0-.43.22.09.36-.63.65-.32.15-.53.54-.21.07-.34,0-.24.12-.09-.48-.23-.43-.17-.41-.42-.46,0-.55.12-.49.31-.17-.25-.36-.34,0-.21-.06-.16-.17-.31.2-.48-.43.21-.33-.1-.43.14-.3-.11-.22-.26-.3.05-.61.55-.11.08-.28-.22-.22-.14-.5.21-.18.13-.38,0-.39.4-.32.39-.07.32-.18.14-.3.29-.2.19-.34.2.23h.15l.21.2.29.17.52.14.23.27-.23.21-.09.32,0,.34.44.23.22.49-.19.22v.27l-.13.15-.22.52.22.06.21.27-.15.13-.05.44.25.08.27.31.25,0,.19.26H250l.18.33.4.43.21,0,.22.28-.25.53.06.22Z" transform="translate(-176.25 -160.64)" style="fill: rgb(210, 210, 230);"></path>
   <path name="Valle de San José" data-id="933" id="path6040" class="cls-1" d="M254.71,253.26l-.35.23-.23,0-.22-.16-.54.42-.53.23-.37-.28-.15-.35-.58-.5-.32,0-.26.36-.59-.18-.11-.38.34-.7,0-.77.38-.82.3-.2.26-.41.65-.34.18-.26.47-.32.27.08.53-.18.54,0h.68l.18.23.05.49.17.24,0,.66-.12.47,0,.75-.18.2-.14.47-.05.35-.23.23-.08.25,0,.21Z" transform="translate(-176.25 -160.64)" disabled="disabled" style="pointer-events: none;"></path>
   <path name="San Gil" scale="10" move="1" data-id="920" id="path6042" class="cls-1" d="M253.06,248.77l-.25-.39-.12-.45-.37-.1-.27.06-.34.3-.52,0,.09-.39,0-.52.2-.37-.1-.32.29-.2-.16-.24.08-.23-.26-.26-.12-.35-.36-.2,0-.47-.32.15h-.26l-.2.35-.33.14-.32-.05-.2.2H249l-.2.23-.37,0-.17-.1.09-.14-.14-.27L248,245l-.26-.31.21-.07.53-.54.32-.15.63-.65-.09-.36.43-.22.43,0,.31.06.37-.27.2-.2.07-.32.17-.21.27,0,.16-.27.21-.16v-.37l.45-.3.4-.38,0-.39.33-.1.26.23.14.35.23.23.12.42-.26.6v.27l-.17.14.13.34-.2.21.07.23-.24.37.1.64.18.67.22.09.29-.23.54-.26.28.05.09.36.42.46.6,0,.42.48h.28l.5.32.33,0,.25.2,0,.3-.37.1-.46.42,0,.29-.36.37-.48.2-.26.26-.09.35-.22.26,0,.24-.28.09h-.68l-.54,0-.53.18-.27-.08Z" transform="translate(-176.25 -160.64)" style="fill: rgb(210, 210, 230);"></path>
   <path name="Oiba" data-id="906" id="path6048" class="cls-1" d="M246.65,258h-.46l-.47-.46-.33-.11-.3-.3-.38-.08-.49-.36.05.38-.27.24-.25.27-.31.68-.56,0-.1.37-.4.43-.36-.28-.42-.06.1.34-.16.3.28.34-.39.11-.35,0-.2.32-.28.11-.14-.22-.34,0-.32-.1,0,.45-.36.46.08.48.68.39.51.41.28.34.09.49.21.11-.24.58-.28.25-.31.65h-.28l-.38.61-.25.64-.42.81.36.21.4-.09.4.06.28-.32.31,0L241,266l.24-.18-.07-.23.38-.28.31.26,0,.2.12.21v.29l-.15.16.1.35.27.15h.3l.55.31.35,0,.42-.26,0-.35.34.23.27-.15.21.33.28.28.06.22.37-.09.17.09.45.07.59.19.18-.21-.14-.32L247,267l-.26-.24-.36-.66.54-.2.31-.5,0-.66.42-.58.4-.26v-.78l.08-.47-.25-.29.22-.29.06-.87.39-.61-.27-.15.19-.19-.13-.24,0-.38-.39-.43-.07-.56-.47-.49-.75.06-.08-.21Z" transform="translate(-176.25 -160.64)" style="fill: rgb(210, 210, 230);"></path>
   <path name="Guadalupe" data-id="888" id="path6050" class="cls-1" d="M239.8,259.78l-.26-.16,0-.29-.19-.25-.55-.19-.3-.21.28-.43,0-.46h-.15l-.15-.13-.17.13H238l-.24-.18h-.22l-.18-.16h-.19l-.06.15,0,.22L237,258l-.44.25-.05.27-.22,0-.4.45-.25.31-.08.28h-.2l-.11.28,0,.2-.17.41V261l-.26.37.15.18-.13.39-.26.13h-.12l-.06.07-.25.5.05.12-.22.19-.06.18-.19.16,0,.17-.41.46-.06.23-.15,0-.26.24,0,.3-.22.39.07.21.07.35.14.24.21.2.14.05.32,0,.35-.06.26-.2,0-.44.58-.37.85.08.65-.15.56.06.13.39.44.2.23-.15.06-.5.21-.43-.1-.76.34-.2.26.47.6.57.46,0,.24.3.38-.61h.28l.31-.65.28-.25.24-.58-.21-.11-.09-.49-.28-.34-.51-.41-.68-.39-.08-.48.36-.46,0-.45Z" transform="translate(-176.25 -160.64)" style="fill: rgb(210, 210, 230);"></path>
   <path name="Guapotá" data-id="889" id="path6052" class="cls-1" d="M244.22,256.64h-.47l-.23-.27-.27,0-.31-.24-.18-.26-.19-.5-.33-.27-.27.21-.68-.51-.35.25-.17.34-.29.25-.22,0-.38.44,0,.28-.28.45-.06.26.07.43-.29.39-.31,0-.27-.08,0,.46-.28.43.3.21.55.19.19.25,0,.29.26.16.32.1.34,0,.14.22.28-.11.2-.32.35,0,.39-.11-.28-.34.16-.3-.1-.34.42.06.36.28.4-.43.1-.37.56,0,.31-.68.25-.27.27-.24-.05-.38Z" transform="translate(-176.25 -160.64)" style="fill: rgb(210, 210, 230);"></path>
   <path name="Contratación" data-id="873" id="path6054-7" class="cls-1" d="M237.17,257.82l-.25-.13-.42-.12-.31.32h-.45l-.3.36-.28.14-.73-.51-.32-.32,0-.33.1-.36-.1-.2.13-.33-.27-.26-.28-.05-.14-.27,0-.37-.2-.45v-.21l.16-.16v-.35l-.48.11-.38.29-.66-.24-.34.09-.31.16-.22.26v.45l-.18.39-.19.31-.05.37-.18.3-.16.08v.28l-.4.35-.08.26-.32.27-.3.13L229,258h-.27l-.23-.18v-.25l-.31-.05-.18-.24-.15,0-.11-.13-.37.13-.13.12H227l-.22.06,0,.28,0,.25.17.31.46.3,0,.27.38.16h.26l.12.14.25,0,.19-.25.16-.09,0-.22.24-.26.08-.17.06.34.1.24.27.14.1.09,0,.11.19.15H230l.05.06h.09l.08.08.15.06.06.09.32,0,0,.1h.1l.1.05.11.14.07,0,0,.09.07.09.27.16.29,0L232,260l.22-.19.1-.13h.14l.11.08.31.1.31.06.19.08.28,0v.19l.1.16.06.12v.16l-.13.37,0,.15-.11.23,0,.17.09.14.18.08h.21l.16,0,.15,0,.14,0,.08.1V262l.26-.13.13-.39-.15-.18.26-.37v-.53l.17-.41,0-.2.11-.28h.2l.08-.28.25-.31.4-.45.22,0,.05-.27L237,258l.15-.15Z" transform="translate(-176.25 -160.64)" style="fill: rgb(210, 210, 230);"></path>
   <path name="Chima" data-id="868" id="path6056" class="cls-1" d="M241.29,254.77l.1-.38.09-.27-.11-.28.22-.32.26-.17,0-.29-.2-.12-.19-.24-.31.16-.38-.06-.47.25-.12.32-.43.33h-.33l-.09-.33-.17-.09-.22.22-.21,0v-.14l.17-.14-.3-.29-.4-.24-.21,0-.33.26-.32-.22-.13.26-.27,0-.39-.19-.2.14-.23-.06.14-.21-.26-.31-.41.18-.18-.16.09-.39-.17-.21,0-.44.08-.4.2-.2,0-.55-.33-.39-.47-.31-.25.22h-.3l-.06.34-.3.66-.08.59-.35.76-.16,1.7.22.43v.35l-.16.16v.21l.2.45,0,.37.14.27.28.05.27.26-.13.33.1.2-.1.36,0,.33.32.32.73.51.28-.14.3-.36h.45l.31-.32.42.12.25.13,0-.22.06-.15h.19l.18.16h.22l.24.18h.21l.17-.13.15.13h.15l.27.08.31,0,.29-.39-.07-.43.06-.26.28-.45,0-.28.38-.44.22,0,.29-.25.17-.34.35-.25Z" transform="translate(-176.25 -160.64)" style="fill: rgb(210, 210, 230);"></path>
   <path name="Simacota" scale="2" move="1" data-id="927" id="path5796" class="cls-1" d="M234.77,249.52l.47.31.33.39,0,.55-.2.2-.08.4,0,.44.17.21-.09.39.18.16.41-.18.26.31-.14.21.23.06.2-.14.39.19.27,0,.13-.26.32.22.33-.26.21,0,.4.24.3.29-.17.14v.14l.21,0,.22-.22.17.09.09.33h.33l.43-.33.12-.32.47-.25.38.06.31-.16.18.24.21.12h0l.23-.36,0-.38-.11-.38.34-.46.17-.46,0-.5.25-.4.05-.26-.08-.27.2-.42.28-.42.18-.22h-.24l-.3-.1-.25-.25-.36.16-.33.06-.42.13-.37-.32-.28,0-.39-.36-.18-.09-.26-.23v-.13l-.44-.27-.22.07-.35-.3,0-.19-.12-.16-.35,0-.32-.25-.23,0-.31-.29-.37,0-.4.11-.38.32,0,.19-.26.18,0,.2-.51.35-.09-.61-.23-.42-.37.21h-.83l-.51-.16-.56-.46-.21.32,0,.34-.51.07-.33.3-.74-.18h-.57l-.17.38-.44,0-.32.2h-.49l0-.72-.24-.75-.65.1-.37-.39-.42,0-.35-.24-.51-.14-.42.14L226,245l-.65.46-.65-.35-.49.16-.47-.16-.31.12-.23-.17-.38.12-.53-.62.36-.67-.06-.34.27-.12-.21-.22-.87-.09,0-.44-.33-.37-.14.35-.68,0-.27-.19.14-.3-.88-.51-.07-1.13.57-.19.08-.31-.31-.06-.09-.23.32-.17-.61-.18-.1-.61.16-.34-.29-.39.13-.31-.37-.35.3-.32-.25-.49.06-.46.19-.07.24.15.22-.31,0-.5-.29-.24.08-.25-.39-.3.25-.2-.17-.2.24-.09.17-.34-.15-.44.09-.3-.34-.2v-.32l-.27-.2-.41-.11.14-.33-.16-.45-.31-.07-.27.13-.25-.53.4-.32-.17-.37.19-.3-.07-.58.45-.25,0-.44-.56,0-.32.2-.61-.66-.17-.43-.66.06-.34-.39-.26-.1.25-.5h-.41l-.47.33-.31-.17-.17.19-.25-.13-.09.19-.43,0-.19-.3.34-.49-.23-.31.08-.32-.34-.52-.31-.21v-.4l.17-.36-.31-.37-.29,0-.21-.27-.21.09-.46-.38-.11-.34-.4,0-.05.35-.2.06.17.33,0,.29h-.51l-.38.19-.08.39-.25.31-.35,0-.57.48-.08.26-.39-.2-.14.17.07.26-.23.23-.44,0-.43.47.53.37.52.32-.29.12.34.17-.39.41.34.14.06.52.25.44-.51.37.23.41-.29,0,.26.36-.4,0-.2.48-.25-.05.11.41-.39.29.33.41.11.48.32-.2.11.17-.31.24.15.21.19-.12.31.47h.23l.52.41.31,0,.14.29.37.2.13.36.38.12V235l.28.4.17-.17.31,0,.21-.27.13.23-.06.36.09.34.21-.35.14.41h.36l.06.15-.34.06,0,.25.52.14-.27.22.55.19,0,.29.33.15-.13.41.37.31-.46.44.59.35.52.52-.29.35.35.41-.09.37.34.21.31.38.54-.13.11-.4.34.11.38-.19.39.35-.06.58.35-.3.11.41.19.23-.36.49-.79.35.36.52.05.5.32-.1.12.24.37.12H218l.55.46-.4.64h0l-.25.53,0,.66h.35l.47-.2.46.39h.35l0,.4h.71l.46-.09.06.61.36-.12.21.24.51.2.23-.11.28.28-.17.39.33.19-.16.68.36-.18.09-.24.39-.34.2.25.86.06.53-.78-.05-.35.65-.66.07-.32.61.28.43.35.35-.49.65,0,.93.34.68.55-.19.48.05.38.64.59.33-.13.55,0,.55.21.11.27.41.06.33.26.11.27.47.12.51.36.59,0,.7-.34.06-.34h.3l.25-.22Z" transform="translate(-176.25 -160.64)" style="fill: rgb(210, 210, 230);"></path>
   <path name="Hato" scale="8" move="1" data-id="892" id="path6084" class="cls-1" d="M242.63,248.17V248l-.17-.35.3-.1.13-.16.32-.16.11-.2,0-.39-.17-.64-.07-.6-.09-.29v-.49l-.09-.37L243,244l.2-.3.06-.31-.12-.37-.26-.27-.32,0-.31-.36h-.4l-.36-.18h-.35l-.47-.3-.47-.16H240l-.25-.21-.56-.05-.3-.3-.39-.24-.45-.06-.43-.23-.32.42v.55l-.26.13-.39.51v.59l-.37.3-.35.48.14.57-.21.32,0,.39-.37.35-.1.45.14.39-.07.3.23.42.09.61.51-.35,0-.2.26-.18,0-.19.38-.32.4-.11.37,0,.31.29.23,0,.32.25.35,0,.12.16,0,.19.35.3.22-.07.44.27v.13l.26.23.18.09.39.36.28,0,.37.32.38-.14.37,0,.36-.16Z" transform="translate(-176.25 -160.64)" style="fill: rgb(210, 210, 230);"></path>
   <path name="Galán" scale="8" move="1" data-id="884" id="path3428" class="cls-1" d="M244,244.23l.11-.43v-.44l.34-.54,0-.38-.17-.2,0-.24.23-.25.13-.3,0-.32.13-.25.21-.33-.1-.43.14-.3-.11-.22-.26-.3.05-.61.55-.11.08-.28-.22-.22-.14-.5.21-.18-.67,0-.22-.2-.58-.25-.08-.39-.52-.37-.28-.47,0-.4-.14-.38-.6-.42h-.39l-.46-.14-.51-.35-.06-.43.25-.24,0-.2-.38-.29-.41-.19-.52-.1-.13.46-.28.36-.18.86.2.39-.12.46.23.4,0,.38-.44.22-.47.64.05.92.14.84,0,.49-.3.59-.74,1,.43.23.45.06.39.24.3.3.56.05.25.21h.21l.47.16.47.3h.35l.36.18h.4l.31.36.32,0,.26.27.12.37-.06.31-.2.3-.07.29.52,0,.27.1.33-.14Z" transform="translate(-176.25 -160.64)" style="fill: rgb(210, 210, 230);"></path>
   <path name="Cabrera" scale="11" move="1" data-id="860" id="path3430" class="cls-1" d="M244.43,247.25l.35,0,.25.08.33-.15.4,0,.26-.27.52-.19.22-.31.28,0,.28-.25.4,0,.08-.3.27-.28.21.05.1-.14-.14-.27L248,245l-.26-.31-.34,0-.24.12-.09-.48-.23-.43-.17-.41-.42-.46,0-.55.12-.49.31-.17-.25-.36-.34,0-.21-.06-.16-.17-.31.2-.48-.43-.13.25,0,.32-.13.3-.23.25,0,.24.17.2,0,.38-.34.54v.44l-.11.43,0,.82.34.61.07.49-.06.53.05.57Z" transform="translate(-176.25 -160.64)" style="fill: rgb(210, 210, 230);"></path>
   <path name="Pinchote" scale="12" move="1" data-id="912" id="path3432" class="cls-1" d="M251.19,248.16l0,.42-.45.62-.15.36h-.36l-.5.13-.08-.55-.36-.35-.21-.11-.39-.1-.25-.42,0-.43-.17-.24-.33-.16-.17-.29-.27-.24-.42-.22,0-.22.28-.25.4,0,.08-.3.27-.28.22.05.17.1.37,0,.2-.23h.2l.2-.2.32.05.33-.14.2-.35h.26l.32-.15,0,.47.36.2.12.35.26.26-.08.23.16.24-.29.2.1.32-.2.37,0,.52-.09.39Z" transform="translate(-176.25 -160.64)" style="fill: rgb(210, 210, 230);"></path>
   <path name="Ocamonte" data-id="905" id="path6089" class="cls-1" d="M250.61,253.47l-.09.38-.16.16,0,.36-.06.5.13.32-.06.38.4.5.63.47.22.37v.52l-.22.32.06.53-.17.34.34.27h.45l.29.07.3.2.15-.12-.2-.5.22-.48.52-.41.37-.09v-.47l.34-.19.34-.47V256l.14-.39.24-.43.29-.67.17-.33H255l0-.38-.17-.15-.09-.38-.35.23-.23,0-.22-.16-.54.42-.53.23-.37-.28-.15-.35-.58-.5-.32,0-.26.36-.59-.18,0,.5Z" transform="translate(-176.25 -160.64)" style="fill: rgb(210, 210, 230);"></path>
   <path name="Socorro" data-id="928" id="path3436" class="cls-1" d="M249.69,249.7l-.2.41h-.33l-.27.19-.22.48.14.4-.43.32-.22.28,0,.39-.21.5.06.21-.28,0v-.23l.1-.21-.58-.06-.24-.12-.15.3-.3-.14h-.47l-.62-.37-.42-.13-.41.09-.36-.23-.79-.08-.54.2-.87.45-.11-.38.34-.46.17-.46,0-.5.25-.4.05-.26-.08-.27.2-.42.28-.42.18-.22.51-.47.2-.4.3-.41.35,0,.25.08.33-.15.4,0,.26-.27.52-.19.22-.31.28,0,0,.22.42.22.27.24.17.29.33.16.17.24,0,.43.25.42.39.1.21.11.36.35.08.55Z" transform="translate(-176.25 -160.64)" style="fill: rgb(210, 210, 230);"></path>
   <path name="Páramo" data-id="910" id="path6100" class="cls-1" d="M248,256.74l.2-.52-.15-.56.15-.66.42-.49.08-.38-.19-.26.1-.29-.2-.47-.36-.22-.06-.21.21-.5,0-.39.22-.28.43-.32-.14-.4.22-.48.27-.19h.33l.2-.41.5-.13h.36l.15-.36.45-.62,0-.42.52,0,.34-.3.27-.06.37.1.12.45.25.39-.47.32-.18.26-.65.34-.26.41-.3.2-.38.82,0,.77-.34.7.11.38,0,.5-.09.38-.16.16,0,.36-.06.5.13.32-.06.37-.35.39-.65.05-.73.65-.25-.25-.17.34Z" transform="translate(-176.25 -160.64)" style="fill: rgb(210, 210, 230);"></path>
   <path name="Palmas del Socorro" data-id="909" id="path6153" class="cls-1" d="M246.9,252.53l0,.49-.34.48v.37l-.54.7-.55.16-.22-.1-.31.17h-.4l-.29-.14-.31.17-.32,0-.19-.1-.31.19.14.57-.36.64-.18-.26-.19-.5-.33-.27-.27.21-.68-.51.1-.38.09-.27-.11-.28.22-.32.26-.17,0-.29.23-.36,0-.38.87-.45.54-.2.79.08.36.23.41-.09.42.13.62.37h.47l.3.14Z" transform="translate(-176.25 -160.64)" style="fill: rgb(210, 210, 230);"></path>
   <path name="Confines" data-id="872" id="path3442" class="cls-1" d="M246.9,252.54l0,.48-.34.48v.37l-.54.7-.55.16-.22-.1-.31.17h-.4l-.29-.14-.31.17-.32,0-.19-.1-.31.19.14.57-.36.64.31.24.27,0,.23.27h.47l.49.36.38.08.3.3.33.11.47.46h.46l.08-.26.34-.25.51,0,.37-.38,0-.35.2-.52-.15-.56.15-.66.42-.49.08-.38-.19-.26.1-.29-.2-.47-.36-.22-.28,0v-.23l.1-.21-.58-.06-.24-.12-.15.31Z" transform="translate(-176.25 -160.64)" style="fill: rgb(210, 210, 230);"></path>
   <path name="XXXX" data-id="" id="path3428-9" class="cls-1" d="M243.18,248.52h.24l.51-.47.2-.4.3-.41-.05-.57s.06-.45.06-.53-.07-.49-.07-.49l-.34-.61,0-.82-.33.14-.27-.1-.52,0,.09.37v.49l.09.29,0,.19,0,.41.17.64,0,.39-.11.2-.32.16-.13.16-.3.1.17.35v.17l.25.25.3.1Z" transform="translate(-176.25 -160.64)" disabled="disabled" style="pointer-events: none;"></path>
   <path name="San Andrés" scale="5.7" move="1" data-id="918" id="path3481" class="cls-1" d="M272.1,230.37l.07.66.17.27v.37l.07.35.08.56-.23.34-.06.49.06.53.14.5-.88.92-.22.4-.34-.26-1,0-.33.2-.59.6-.46.19-.33.23-.06.46-.23.67-.42.06-.18-.26-.2,0-.41.29h-.52l-.54-.52-.37-.15-.33.23,0,.19-.34.11-.6.62.2-.65-.1-.49.17-.29.14-.4.56,0,.42-.09a1.71,1.71,0,0,0,.27-.25l0-.39-.8-1.1,0-.72-.09-.17.34-.36.09-.52-.08-.44.14-.58.08-.6-.13-.53-.13-.39.06-.42.21-.25.31-.1.28.15.28,0,.38.16.25,0,.4.32.19,0,.06-.35.32,0,.23-.27,0-.37.27-.38,0-.69.13-.15,0-.32.43-.52.28-.09.63-.57.36,0,.34-.12.23,0,.35-.17.36.06.43-.1.42-.52,0-.37.27-.12.37-.59-.07-.51-.15-.33.08-.39.49.14-.09.32.09.28-.11.42.17.49-.17.37-.21.29.12.61-.08.52.13.29,0,.5-.42.49.41.72,0,.23-.41.24-.43.6-.21.5Z" transform="translate(-176.25 -160.64)" style="fill: rgb(210, 210, 230);"></path>
   <path name="Cepita" scale="11" move="1" data-id="864" id="path6172-3" class="cls-1" d="M264,238.35l-.71-.25-.3-.35-.43-.17v-.74l-.72-.59-.58-.18-.42-.44-.17-.48.18-.56-.32-.29-.42-.05,0-.47.28-.41-.49-.42-.06-.58.16-.26.72.12.62-.07.23-.51.24-.1.15-.62.5.43.85.06.42.45H264l.44-.59.17,0,.33-.49.24,0,.13.53-.08.6-.14.58.08.44-.09.52-.34.36.09.17,0,.72.8,1.1,0,.39-.27.25-.42.09-.56,0-.14.4-.17.29.1.49-.19.64Z" transform="translate(-176.25 -160.64)" style="fill: rgb(210, 210, 230);"></path>
   <path name="Málaga" scale="11" move="1" data-id="901" id="path3489" class="cls-1" d="M275,235.92l-.09.67.12.24-.1.31.11.39-.1.46,0,.36-.45.12-.54-.14-.41-.28.07-.31,0-.24-.89.29h-.38l-.27-.14-.07.27-.35.18-.2-.91.05-.8-.19-.62.22-.4.88-.92-.14-.5-.06-.53.06-.49.23-.34.19.2-.11.29.21.24h.2l.27.3.28.1.88.65.8.78-.25.44,0,.35Z" transform="translate(-176.25 -160.64)" style="fill: rgb(210, 210, 230);"></path>
   <path name="Enciso" scale="11" move="1" data-id="881" id="path3493" class="cls-1" d="M279.42,236.75l.11.13-.24.2-.07.32,0,.55-.27.43a5.83,5.83,0,0,0-.52.44l-.33.58-.39.52-.2.49-.09.44,0,.54-.82.48-.37.45-.35,0-.3.16-.38.21-.5.33-.06.26-.38.13,0-.27.12-.4.4-.56.06-.3.24-.35.1-.62-.17-.43.07-.23-.09-.19v-.41l.12-.67-.08-.65,0-.36.1-.46-.11-.39.1-.31-.12-.24.09-.67.63.11-.1.26.52.47.39.05v.35l.31.15.14-.12.26,0h.64l.43-.24h.26l.36.12.58-.29Z" transform="translate(-176.25 -160.64)" style="fill: rgb(210, 210, 230);"></path>
   <path name="San Miguel" scale="12" move="1" data-id="923" id="path6184" class="cls-1" d="M280.93,244.42l-.27.54.14.32-.22.37,0,.29-.22.27-.89.52-.48.49-.76-.29.27-.51v-.26l-.41-.39-.21-.11,0-.78-.49-.85-.4-.32-.46-.19-.34,0-.14-.41-.47-.26-.09-.32.3-.16.35,0,.37-.45.42-.24.43.09.59-.33h.5l.34.32-.09.38.14.37.28.19.46.42.45,0,.23-.29.34-.12.15.4,0,.64-.08.45.21.29Z" transform="translate(-176.25 -160.64)" style="fill: rgb(210, 210, 230);"></path>
   <path name="XXXX" data-id="" id="path3501" class="cls-1" d="M283.94,243.54l0,.49-.1.07v.39l.61.68-.22.77-.56.42-.09.31.26.17,0,.93.71.29v.22l-.43.19h-.33l-.36.13-.51,0-1.07.44-.83.78-.33.62-1.23.64-.23,0-.51.22h-.62l.53-1-.09-.55.38-.06.62-.4-.12-.38.06-.41.23-.33-.19-.21,0-.5-.29,0-.22-.27.48-.49.89-.52.22-.27,0-.29.22-.37-.14-.32.27-.54.37-.3h.59l.45-.67.31,0v-.23l.5-.53.51.11.62.4Z" transform="translate(-176.25 -160.64)" disabled="disabled" style="pointer-events: none;"></path>
   <path name="Capitanejo" scale="11" move="1" data-id="862" id="path3499" class="cls-1" d="M278.1,251.33l-.85-.71,0-.49-.47-.47v-.17l-.24-.28-.16-1.05-.19-.2,0-.31-1-1.44.05-.24-.22-.31-.45-.13-.19-.46-.49.13-.85-.46,1.08-1.09v-.22l.38-.13.06-.26.5-.33.38-.21.09.32.47.26.14.41.34,0,.46.19.4.32.49.85,0,.78.21.11.41.39v.26l-.27.51.78.3h0l.2.26.29,0,0,.5.19.21-.23.33-.06.41.12.38-.62.4-.38.06.09.55Z" transform="translate(-176.25 -160.64)" style="fill: rgb(210, 210, 230);"></path>
   <path name="San José de Miranda" scale="11" move="1" data-id="922" id="path6180" class="cls-1" d="M272.26,243.58l.07.42.6.29.28.05-.11.39,1.07-1.08,0-.49.12-.4.4-.56.06-.3.24-.35.1-.62-.17-.43.07-.23-.09-.19v-.41l.12-.67-.08-.65h0l-.45.12-.54-.14-.41-.28.07-.31,0-.24-.89.29h-.38l-.27-.14-.07.27-.35.18v.43l.2.37v.36l-.11.38,0,.61-.14.67.05.72.32.38-.08.32-.3.43.13.81Z" transform="translate(-176.25 -160.64)" style="fill: rgb(210, 210, 230);"></path>
   <path name="Molagavita" scale="9.3" move="1" data-id="904" id="path3485" class="cls-1" d="M269.66,245.48l.06-.38-.27-.15v-.13l.92-.66.13,0,.43-.09-.1-.27.42-.28.1.15h.27l.12-.13-.13-.82.3-.43L272,242l-.32-.38-.05-.72.14-.67,0-.61.11-.38v-.36l-.2-.37v-.43l-.2-.91.05-.8-.19-.62h0l-.34-.26-1,0-.33.2-.59.6-.46.19-.33.23-.06.46-.23.67-.42.06-.18-.26-.2,0-.41.29h-.52l-.54-.52-.37-.15-.33.23,0,.19-.34.11-.6.62.73.14.26.53.53.45.3.64.19.7.32.48.13.51.66.55.42.11.34.34.08.53.25.52.08.74.23.5.48.37Z" transform="translate(-176.25 -160.64)" style="fill: rgb(210, 210, 230);"></path>
   <path name="Onzaga" data-id="907" id="path5987-3" class="cls-1" d="M269.66,245.49v.12l-.2.22.55.52.65-.07s.7.21.76.21a3.49,3.49,0,0,1,0,.79l.4.66.39.08.27.36.18-.19.32.05.11.18.5-.2,0,.16-.2.17.15.92.71.6,0,.21-.45.28-.17.58-.26.72.09,1.25.23.19,0,.67.37.23.15.37-.05.25-.27.17-.13.21.13.39-.84.33-.19.78,0,.61.58.41.47.06,0,.43.3.33,0,.26-.43-.13-.49.34-.07.81-.2.13-.11,1.12.29.85-.16.35-.23.06-.4-.07-.69.49-.24.59-.39-.11-.24-.25-1,0v.38l-.39.29-.07.62-.5.62.19.34-.42.4,0,.47-.27.48-.51.12-.23.18-1.14-.05v-.17l-.17.06.3-.69-.08-.35.15-.3-.06-.32-.24-.28-.31.19-.28-.14.21-.37-.24-.38.46-.3-.14-.19-.23-.09.06-.35.13-.34.35-.18-.06-.64-.19-.24-.44-.08-.42-.31h-.28l.2-.25,0-.63-.1-.26.24-.27.33.16.23-.27-.22-.34-.21-.71-.22-.51-.45-.36h-.51l-.32-.52,0-.38-.31-.29.1-.46-.33-.3-.12-.41.45-.55.26-.58.28-.06.35.22.68-.68.57,0,.53-.19.24.06.31.2.42,0,.46-.28.71-.76.45.08.09-.14-.17-.29.19-.18v-.35l-.16-.28.16-.15v-.31l-.18-.32.14-.36-.06-.46v-.73l-.08-.4.14-.4-.11-.18.14-.47.28-.29-.17-.25.09-.26-.05-.2-.2-.15-.14-.26.11-.13-.17-.22.06-.21-.15-.28.14-.34.64,0Z" transform="translate(-176.25 -160.64)" style="fill: rgb(210, 210, 230);"></path>
   <path name="Coromoro" data-id="874" id="path5985" class="cls-1" d="M263.58,269.17l.21-.42.33-.16v.11h.16l.47-.47,0-.28.26-.12,1.09.06.23-.3v-.43l-.16-.18.2-.22.31-.71-.08-.35.15-.3-.06-.32-.24-.28-.31.19-.28-.14.21-.37-.24-.38.46-.3-.14-.19-.23-.09.06-.35.13-.34.35-.18-.06-.64-.19-.24-.44-.08-.42-.31h-.28l.2-.25,0-.63-.1-.26.24-.27.33.16.23-.27-.22-.34-.21-.71-.22-.51-.45-.36h-.51l-.32-.52,0-.38-.31-.29.1-.46-.33-.3-.12-.41.45-.55.26-.58-.17-.31-.23,0-.54-.25-.36.34-.38.24-.53-.06-.45.2-.23.17-.23,0-.23.25h-.22l-.24.21-.73,0-.45-.21-.2.1-.28,0-.35-.11-.17.09-.34-.15-.18-.17-.21.15-.08.22-.19.22,0,.25.09.27-.13.27v.27l-.35.37-.56.29-.07.7-.45.31-.57.62v.52l.16.4-.65.39-.57,0-.62-.07.08.53.2.17v.27l-.24.22-.34.38-.1.28-.26.19-.23.32h-.34l-.17.74-.18.3.26.6v.39l.19,0,.37-.25.19,0,.17.21.09.43.45-.35.38.14.22.41.3.32.46.16.27.37v.43l.65.15.82.08.12.31.57.24.27-.32.44-.15.1.23.26.1.15.26.4.17.54.12.3-.17h.49l.36.28.29-.06.15-.29.42,0,.28.47.62.5.47-.15.2.61.51.3Z" transform="translate(-176.25 -160.64)" style="fill: rgb(210, 210, 230);"></path>
   <path name="Encino" data-id="880" id="path5983" class="cls-1" d="M254.83,276.5l.67.5.31-.25v-.44l.68-.69.16,0,.57.09.33.32,1,0,0,.16.33.14.06-.34.28-.13v-.3l.39-.47.14.06.38-.56-.12-.52.46-.23v-.25l.53-.54.39-.06.17-.53-.17-.07v-.25l.25-.11.13-.33-.11-.18.22-.26-.21-.16V271l.55-.15-.07-.33.19-.18.2.07.2-.14,0-.18.19-.23.19.05.28-.16-.12-.18v-.18l.29-.2-.51-.3-.2-.61-.47.15-.62-.5-.28-.47-.42,0-.15.29-.29.06-.36-.28h-.49l-.3.17-.54-.12-.4-.17-.15-.26-.26-.1-.1-.23-.45.15-.26.32-.57-.24-.12-.31-.82-.08-.65-.15V266l-.28-.37-.45-.16-.3-.32-.22-.41-.38-.14-.45.35-.1-.43-.16-.21-.19,0-.37.25-.19,0v-.39l-.26-.6-.42.57-.26.47,0,.32-.45.4-.49,0,.45.36-.22.75.08.55-.34.56-.28.87v.49l.27.38h.53l.42.32.38.07v.68l.19.26V271l-.33.48.28.23.43.18-.31.12-.26.38.05.47-.16.28.16.59.24.22-.1.46.27.39.42.29h.59l.8.67.56-.16.6.13.09.43-.14.38Z" transform="translate(-176.25 -160.64)" style="fill: rgb(210, 210, 230);"></path>
   <path name="Charalá" data-id="866" id="path3383" class="cls-1" d="M248.57,274.39l.31-.08.05.23,1,.24.14.3,1,.62,0,.51.59.41,2,0,.57-.36.48,0,.06.2.08.05.15-.38-.09-.43-.6-.13-.56.16-.8-.67h-.59l-.42-.29-.27-.39.1-.46-.24-.22-.16-.59.16-.28-.05-.47.26-.38.31-.12-.43-.18-.28-.23.33-.48v-.35l-.19-.26v-.68l-.38-.07-.42-.32h-.53l-.27-.38v-.49l.28-.87.34-.56-.08-.55.22-.75-.45-.36.49,0,.45-.4,0-.32.26-.47.42-.57.18-.3.17-.74h.34l.23-.32L253,262l.1-.28.34-.38.24-.22v-.27l-.2-.17-.08-.53.62.07.57,0,.65-.39-.16-.4v-.52l.57-.62.45-.31.07-.7.56-.29.35-.37v-.27l.13-.27-.09-.27,0-.25.19-.22.08-.22.21-.15.18.17.34.15.17-.09.35.11.28,0,.2-.1v-.34l-.12-.09v-.3l-.23-.22v-.46l-.17-.23-.21.05-.14-.18-.19,0-.35.38-.45-.06-.11-.18-.22.22-.27.15-.2-.07-.15.28-.26,0-.27,0-.24-.06-.25.12-.17.33-.29.67-.24.43-.14.39v.43l-.34.47-.34.19v.47l-.37.09-.52.41-.22.48.2.5-.15.12-.3-.2-.29-.07h-.45l-.34-.27.17-.34-.06-.53.22-.32v-.52l-.22-.37-.63-.47-.4-.5-.35.38-.65.05-.73.65-.25-.25-.17.34H248l0,.35-.37.38-.51,0-.34.25-.08.26.08.21.75-.06.47.49.07.56.39.43,0,.38.13.24-.19.19.26.15-.38.61-.06.87-.22.29.25.29-.08.47v.78l-.4.26-.42.58,0,.66-.31.5-.54.2.36.66.26.24-.31.32.14.32-.18.21.35.43,0,.55-.2.6-.23.47V271l-.08.73.33,0,.41-.1.13.36.51.51.3.44.08.35.54.08-.29.32,0,.63Z" transform="translate(-176.25 -160.64)" style="fill: rgb(210, 210, 230);"></path>
   <path name="Gámbita" data-id="885" id="path5961" class="cls-1" d="M248.57,274.39l-.22.41-.93.64v.71l.31.42-.3.12-.11.19.26.12-.16.41-.32,0a2.33,2.33,0,0,0-.11.55l-.73.73h-.36l-.47.59-.23.81-.18.12-.13.48-.41.17-.09.74.2.09-.06.29-.45.5-.72.21h-1.22l-.06-.14-.86.13-.06-.08-.52.2-.23.59-.09.54.15.11-.29.3-.24,1.12-.32.2-.68,1v.45l-.63.6-.22-.32-.8-.28,0-.17-.56,0-.36.19-.23-.34.25-.19,0-.25-.24-.11.15-.22-.2-.51-.73-.21-.75-.87-.51-.08-.11-.57.46-.63,0-.42.39-.19.06-.35-.2-.09.05-.16.43-.28v-.42l-.26-.24.19-.31.44-.1.68-.43.39.07,0,.21h.48l.39-.2v-.44l.4-.3.22-.39,0-.25-.15-.08.17-.33.47-.17,0-.5-.15-.08.1-.3.32-.22.06-.63.34-.18V276l-.12-.09v-.45l.25-.35v-.43l.12-.39-.18-.15h-.18l-.18-.19-.11-.49-.26-.11-.15-.13.06-.44-.65-.49-.14-.17.57-.2.51-.45.64-.14.47.24.64,0,.43.28.28-.31.27-.52,0-.45.11-.35.32,0,.23-.13.51.08.36.2.35,0,.25.22.32-.13.53.4.11.29h.17l.35.34.25,0,.26.3.4-.18.23.17.67.07.41-.1.13.36.51.51.3.44.08.35.54.08-.29.32h0l0,.63Z" transform="translate(-176.25 -160.64)" style="fill: rgb(210, 210, 230);"></path>
   <path name="Suaita" data-id="929" id="path3539" class="cls-1" d="M232.26,268.84l.44,0,.16.28.73.41H234l.83.8.39.13.43.29.63.09.19-.14.36,0,.13.12-.16.26.69.65,0,.16.18.21.57-.2.51-.45.64-.14.47.24.64,0,.43.28.28-.31.27-.52,0-.45.11-.35.32,0,.23-.13.51.08.36.2.35,0,.25.22.32-.13.53.4.11.29h.17l.35.34.25,0,.26.3.4-.18.23.17.34,0,.08-.73v-1.19l.23-.47.2-.6,0-.55-.35-.43-.59-.19-.45-.07-.17-.09-.37.09-.06-.22-.28-.28s-.15-.32-.21-.33-.27.15-.27.15l-.34-.23,0,.35-.42.26-.35,0-.55-.31h-.3l-.27-.15-.1-.35.15-.16V266l-.12-.21,0-.2-.31-.26-.38.28.07.23L241,266l-.17.27-.31,0-.28.32-.4-.06-.4.09-.36-.21.42-.81.25-.64-.24-.3-.46,0-.6-.57-.26-.47-.34.2.1.76-.21.43-.06.5-.23.15-.44-.2-.13-.39-.56-.06-.65.15-.85-.08-.58.37,0,.44-.26.2-.35.06-.32,0,0,.39-.27.36,0,.21-.09.17-.26.16-.26.25.08.3-.29.4.07.47Z" transform="translate(-176.25 -160.64)" style="fill: rgb(210, 210, 230);"></path>
   <path name="San Benito" data-id="919" id="path3139" class="cls-1" d="M230.36,272l.22-.27.11-.24.05-.4.14-.23.05-.41.55-.51.16-.39-.16-.2.08-.19.7-.31-.07-.48.29-.4-.08-.3.26-.25.26-.16.09-.17,0-.21.27-.36,0-.39-.14-.05-.21-.2-.14-.24-.13,0,0,.1-.19-.17-.27.32-.31.24-.07.15-.14,0-.07.17-.29.19-.4-.15-.2.26-.22.12.13.4,0,.28-.36.22-.12.19h0l-.07.45-.35.24-.22.2-.3.11-.28.27,0,.19-.28,0-.07.15.08.21h-.26l-.18.19h-.41l.07.28.21.39,0,.34.12.22v.15l.58.27v.17l.23,0,.22.19.31.08h.45l.11-.18.2.1Z" transform="translate(-176.25 -160.64)" style="fill: rgb(210, 210, 230);"></path>
   <path name="Guepsa" data-id="891" id="path3137" class="cls-1" d="M227.54,274.74l.16-.34.3-.32h.12l.27-.19.82-.41.12-.31.17-.24.2-.06.33-.35.23-.38.1-.13-.2-.1-.11.18h-.45l-.31-.08-.22-.19-.23,0v-.17l-.58-.27v-.15l-.12-.22,0-.34-.21-.39-.29.25-.07.32-.17.09.12.26-.41.46-.12.3,0,.4.1.22-.71.22.27.48.28.33-.15.31-.36.1-.37.32-.2,0-.11.15.08.32-.28.22.21,0,.4-.07.32-.17.54-.07Z" transform="translate(-176.25 -160.64)" style="fill: rgb(210, 210, 230);"></path>
   <path name="Barbosa" data-id="855" id="path3135" class="cls-1" d="M224.93,279.08l.09-.17.12,0,.25-.2.36-.44.28-.13h.15l.37-.24.28-.38.46-.84.08-.57,0-.31.12-.17v-.49l.17-.19-.07-.24-.52,0h0l-.54.07-.32.17-.4.07-.21,0-.18.25-.32.1-.33.35-.17.08-.19.31-.43,1.07-.19.28-.18.5-.17.22v.31l.32.19.22,0,.38.21.17.22.3.28H225Z" transform="translate(-176.25 -160.64)" style="fill: rgb(210, 210, 230);"></path>
   <path name="Puente Nacional" data-id="913" id="path3133" class="cls-1" d="M218.46,286.51h1.09l.67.24.28-.24.07-.25.28-.11.09.07v.21l.35.15.69.84.37.27,1,.38.24.33.11.73-.07.18.51.47h.31l.37-.28.15-.74.41-.37.11-.84-.05-.24.22-.36.07-.56-.25-.16-.08-.47.18-.29.2-.72.16-.92.58-.93.29-.79.15-.07-.1-.83-.29-.46-.57-.07-.7-.5,0-.56-.21-.19,0-.07h-.22l-.3-.28-.17-.22-.38-.21-.22,0-.32-.19-.42.31-.25,0-.8.58-.45.64-.49,0-.39-.81-.26.05-.25.35-.31-.09-.6.7-.45.06.6.83-.35.13v.34l.47-.2.14.18,0,.35-.28.25.05.4.2.27,0,.37-.33.24-.35.49-.15.55,0,.38-.15.18,0,.16-.17.16.06.29.25.3-.26.6Z" transform="translate(-176.25 -160.64)" style="fill: rgb(210, 210, 230);"></path>
   <path name="Albania" data-id="853" id="path3129" class="cls-1" d="M207.3,288.61l.42-.18.77-.43h.26v.23l.72.36,1.33-.07.54-.12.4.12.14.43v.76l.3.25.49-.27.3-.36,1.47-.82.87.14.39.45.07.52.43.35.26-.26-.23-.51,1-1.39.06-.78.61-.71.37-.06.23.25.26-.6-.25-.3-.06-.29.17-.16,0-.16.15-.18,0-.38.15-.55.35-.49.33-.24,0-.37-.2-.27-.05-.4.28-.25,0-.35-.14-.18-.47.2h0l-.51.32-.37-.15v.49l-.27.21h-.47l-.69.49-.4,0-.3.45v.44l-.16.47-.47.06-.38.51-.42.35-.21.29,0,.45-.35.2-.49-.06-.24-.24-.26-.29h-.33l.16.5,0,.25,0,.32-.43-.27-.18-.21-.42.16-.74,0-.2-.17-.19-.41-.34.1-.34,0-.54,0,.11.4-.14.33-.3.33-.17.5-.83.31-.84.51.16.32-.1.15Z" transform="translate(-176.25 -160.64)" style="fill: rgb(210, 210, 230);"></path>
   <path name="Florián" data-id="882" id="path3125" class="cls-1" d="M207.3,288.61l-.35.14-.25.37-.26-.23-.25-.64h-.31l-.6-.57-.05-.85-.44-1.61-.28-.6-.54-.36-.81.06-.24-.27-.3-.23-.74.18-.07.21-.87-.37,0-.41.47-.22.17-.15.13-.3.12.18.22,0,.45-.11.38-.18.24.3.54,0,.26.42.35-.06.16.16h.5l.16-.18.16.11.25-.16,0-.16.19.05L206,283l.21,0-.07-.13.23-.07.22.1.22-.21.34-.06.12.12.49-.05.12.22.35.1.2.29.2-.14h.16l.3.37.16,0,.13-.14.31-.09.39,0,.16-.1.18-.24.24.15.2,0,.05.09.3-.07,0-.78h.16l.21-.15.17.2,0,.29-.12.16.16.23,0,.57.15.26,0,.26.12.18.5-.32.22,0,.14.31v.26l.29-.08.2.2.43.07-.12.4.55.23,0,.45-.35.2-.49-.06-.5-.53h-.33l.16.5,0,.25,0,.32-.43-.27-.18-.21-.42.16-.74,0-.2-.17-.19-.41-.34.1-.34,0-.54,0,.11.4-.14.33-.3.33-.17.5-.83.31-.84.51.16.32-.1.15Z" transform="translate(-176.25 -160.64)" style="fill: rgb(210, 210, 230);"></path>
   <path name="La Belleza" data-id="895" id="path3912" class="cls-1" d="M200.94,283.83l-.46-.19-.3-.75-.1-1.38.1-.38-.24-.21h-1.25l-.77-.14-1.49-1.53V279l-.31,0-.51.43-.38-.42.59-.34-.14-.22h-.34v-.25l.35-.23.3-.52-.05-.32.18-.52-.34-.13-.09-.16.47-.15.2-.23,0-.36.5-.37,0-.32.23-.17.17-.38.37,0,0-.23H198l.29-.26,0-.26-.25-.42.06-.31.2-.1.33.42L199,273v.39l.31.16-.17.26.11.45.26.48.35.27,0,.38.22.35-.23.39-.34.29.06.42-.54.64.28.19,1.05.82.37-.23.42.16.38-.19.42.23.34-.69.83-.82v-.55l.39-.63,0-.3.2-.06.31.33.54.14.33.25h.49l.35.32.3.43,0,.61-.23.49.15.38.47.11.48.35.27-.29h.36l.28-.16.29.08.42-.17.35.08,0,.22-.31.18.31.32h.23l-.09.16-.22.06-.12.24.25.36-.32,0v.28l-.27.3.1.32.77.42.29.51.65.2h0l.27-.07.39-.33.41-.09.28.23.3-.1.29.09.14.26.3.14,0,.27-.25-.07-.33.08-.08.16-.17-.2-.21.15h-.16l0,.78-.3.07-.06-.09-.19,0-.24-.15-.18.24-.16.1-.39,0-.31.09-.13.14-.16,0-.3-.37h-.16l-.2.14-.2-.29-.35-.1-.12-.22-.49.05-.12-.12-.34.06-.22.21-.22-.1-.23.07.07.13-.21,0-.33.22-.19-.05,0,.16-.25.16-.16-.11-.16.18h-.5l-.16-.16-.35.06-.26-.42-.54,0-.24-.3-.38.18-.45.11-.22,0-.12-.18-.13.3-.17.15-.47.22,0,.4Z" transform="translate(-176.25 -160.64)" style="fill: rgb(210, 210, 230);"></path>
   <path name="XXXX" data-id="" id="path3495" class="cls-1" d="M284.56,243.18l.62-.57.07-1,.31-.48.8-.22.12-.15-.28-.19.09-.22.47-.15.08-.43.18,0v-1.19l-.28-.22V238l.28-.15.1-.59-.21-.41,0-.46-.69-.53v-.3l-.32.19-.47,0-.41-.32-.38,0-.25-.44-.17-.49-.74,0-.31.18-.54,0-.29.18-.9-.92-.09.69.15.4-.07.33-.34.31-.26,0-.31.23h-.65v.35l-.26,0-.17.17v.39l.13.12-.24.2-.07.32,0,.55-.27.43-.52.44-.33.58-.39.52-.2.49-.09.44,0,.54-.4.24.43.09.59-.33h.5l.34.32-.09.38.14.37.28.19.46.42.45,0,.23-.29.34-.12.15.4a4.06,4.06,0,0,1,0,.64,2.39,2.39,0,0,0-.08.45l.21.29.37-.3h.59l.45-.67.31,0v-.23l.5-.53.51.11.61.4Z" transform="translate(-176.25 -160.64)" disabled="disabled" style="pointer-events: none;"></path>
   <path name="XXXX" data-id="" id="path5475" class="cls-1" d="M200,231.85l.54-.55.3-.84.07-.48.23-.25.36-1.15.21-.25.49-.12.6,0,.82-.61.54-.9.15-.39.41-.43.3-.2.59-.3.66-.63,1.86-1.07.41.05.69-.55.13-.3.74-.5h.2l.15-.45.41-.4.41-.23.36-.95v-.5l-.36-.68-.13-1-.05-.82-.28-.65-.43-.18-.67-.42-.07-.65-.1-.43-.3-.35v-.75l.12-.22.08-.7-.13-.65.14-.51-.05-.42-.5-.7.35-.77-.07-.65,1,1.52.6.18,1-.11.49-.58.54-.5,1.73-1.07.8-.12.17.26-.48.5v.31l.34.07.57-.44.31-.46.05-.65.6-.11h.48l.32.18.28-.13.26.09.33.55.41,0,.67-.45.74-.76.6.08.59-.17.48.53.41,0,.31.4.33.09v.46l.16.15h.39l.49.44.31-.13.28.39.29-.09.17.12.11.45.34-.08.26.18.25.38L226,211l.47.25.26-.11.57.28.32,0,.41-.23.37.27.13.58.65.34.68.5h0L221.17,224l.35.35.24,0,.19.41.42.35.4.2v.27l.54.25-.39.17,0,.21-.45,0,.17.31-.27.21-.44.47-.32-.26-.17.05-.14-.32L221,227l-.12-.41-.34.05-.42-.22-.44,0-.19-.16-.31.09.08.29-.23.12.06.2-.16.18.36.37-.26.27,0,.41h-.28l-.28.47-.56,0-.32.2-.61-.66-.16-.43-.67.06-.34-.39-.26-.1.25-.5h-.41l-.47.33-.31-.17-.17.19-.25-.13-.09.19-.43,0-.19-.3.34-.49-.23-.31.08-.32-.34-.52-.31-.21v-.4l.17-.36-.31-.37-.29,0-.21-.27-.21.09-.46-.38-.11-.34-.4,0-.05.35-.2.06.17.33,0,.29h-.51l-.38.19-.08.39-.25.31-.35,0-.57.48-.08.26-.39-.2-.13.17.06.26-.23.23-.44,0-.43.47.53.37-1.92,1.3-1.33.71-.72.05-.26.23-.17.52-.3-.14-.26-.09-.11.23.23.23-.54-.05.17.6.37.21v.2l-.49-.06-.32.32-.47,0,0,.29.29.23-.46.15-.34-.29.31-.41-.31-.08-.48.43-.79.17Z" transform="translate(-176.25 -160.64)" disabled="disabled" style="pointer-events: none;"></path>
   <path name="XXXX" data-id="" id="path5488" class="cls-1" d="M209.38,209l.08-.42-.26-.23.08-.45-.13-.27v-1l.41-.6,0-.35.12-.18.05-.47,0-.61.3-.2.28-1.08.1-.06,0-.42.1,0,.06-.49-.29-.35-.1-.66.14-.18v-.31l.48-.45.46-1.1h.1l.05-.16-.46-.58-.15-.42-.22-.16-.12-.56-.21-.46.13-.28-.15-.38L210,196l0-.33.15-.14.11-.78.2-.25.51-.07.91-.61.74-1,.61-.7.36-.49.07-.43.26-.48.05-.48.27-.28.24-.53,0-.42.18-.11h.4l.34-.18.12-.44-.22-.37-.13-.5-.11-.06-.05-.49h.1l0-.36.41-.55,0-.67-.49-.76,0-.26-.14-.23v-.49l.24-.23.07-.45.53-.71.49-1.49-.09-.8-.32-.59-.15-.74-.24-.72-.29-.41,0-.32.16-.16.13-.58-.33-.69-.36-.38-.33-.86,0-.51-.17-.41-.3-.89,0-.72-.3-.49v-.74l-.46-.81-.56-1.29-.36-.81-.1-1.22h.19l.1-1.3.6-1.38.17-.44.31-.18.44-.58,1-.32.36-.36.13-.42.12-.36.47-.41h.1l.17.13.19-.16.24.16.39.14-.1.39.13.31-.2.28-.13.56-.36,0-.24-.18-.18.11,0,.17.2.23.37,0,.28.1.1.56.26.31,0,.25.18.49.34.17.23.06.18.07.22.36h.37l-.11.15-.33.11.28.38.31.15.18-.05.16,0,0,.51-.31.18,0,.16h.42l.33.33.05.43.21.33-.23.38,0,.21-.18.18.29.15.05.38-.11.38.24.13.54-.13h.21v.33l.2.44.39.2.21,0,.28.07.08.49.28,0,.11.31.21.27-.44.55.07.37.4.32.1.52-.27.39-.61.22-.23.41-.06.4-.56.16-.34.13-.33.5-.18.49-.34.34-.47.09-.47.34-.13.2-.31.3V178l.12.58.42.06,0,.33v.23l.21.43-.36.34-.52.1-.33,0-.08.23.13.36-.05.23.2.25.06.14,0,.76-.28.32.16.23L218,183l.26.21-.28.44v.51l-.17.34.12.29-.37.57.39.39,0,.69-.17.43.3.45.43.2.51,1-.11.38,1,1.07-.27.38-.55.29-.6.79-.59.1-.09.35-.54-.14.07.62-.24.34.32.72-.15.87.13.76-.2.49.11,1.22-.11,1.59.33.36.55.06.53.42v.5l.57.21.51-.1,1,.7.37.06.18.52-.32.37.72.48.59-.23h.59l.18.5.67.64.49.11-.28.41.26.2-.23.66.34.52.45-.06.22.42.47.23-.06.26.56.52.32.09,0,.34.38.39.56,1.27.4,1.37.87,1.91h0l-.37-.27-.41.23-.32,0-.57-.28-.26.11L226,211l.11-.26-.25-.38-.26-.18-.34.08-.11-.45-.17-.12-.29.09-.28-.39-.31.13-.49-.44h-.39l-.17-.15v-.46l-.32-.09-.31-.4-.41,0-.48-.53-.59.17-.6-.08-.74.76-.67.45-.41,0-.33-.55-.26-.09-.28.13-.32-.18h-.48l-.6.11-.05.65-.31.46-.57.44-.34-.07v-.31l.48-.5-.17-.26-.8.12-1.73,1.07-.54.5-.5.58-1,.11-.6-.18-.9-1.4-.09-.13Z" transform="translate(-176.25 -160.64)" disabled="disabled" style="pointer-events: none;"></path>
   <path name="Rionegro" data-id="916" id="path5493" class="cls-1" d="M224,181.33l.34.5.26.06.18.31,0,.11.13.08.59.13.44.33,0-.23.25.09.49,0,.47.26.18.19.53-.1.09-.27.38.35v.39l.36,0,.09.13.15.34h.21l.15.35-.07.2.3.52.15,0-.15.28-.34,0-.13.11-.23.07.29.24.43.08.27.35.17,0,.23.3-.09.15.33.35.5.24.13.31,0,.52h-.09l0,.15.15.28.18,0,.13.29.24.08,0,.25-.19.09.14.16,0,.26.14.08.11-.23h.08l.05.25.23,0,.14-.08,0,.19.19-.09.08,0,.1.31.29.11.19,0,.31.24-.05.19.63.09v.14l.24,0,.24-.14,0-.11.23-.06.25.22h.29l.12-.16.16.16,0,.14.27.14.26,0,.22,0,.31.25.63,0,.06-.14.16.07.24-.09V191l-.34-.21,0-.09.28-.14.16-.19.32,0,.13.3.38.45.37.24-.06.18.13.22.22.11,0,.17-.11.19.15.08.37-.11.17.08.07.23.24-.14v-.14l.13-.06.45,0,.09.25.18-.24.44-.05v-.12h.32l.15.16h.22v.18l.31-.12.21-.28.24.06.18.21-.12.22.05.25-.63.19-.55.43-.19.44.14.18-.32.23-.1.3.22.32.35.14.17.2,0,.21.17,0,.37.44.05.18.32.28.05.24-.19.17h-.34l-.23.21v.43l.2.23.2,0,.09.34h.44l.37.11.14-.16.35,0,.19-.11.4,0,.14.12.31,0,.2.15.18,0,.06-.21.34-.52.2-.18-.06-.26.37-.23.46,0,.56.6.25-.14.32.05.26.19.24.83.24.7.27,0,.18-.12.28.11.2-.06,0-.48L250,198l.28.06.22-.26.23.06.12-.15.28.06.08-.16.26,0,.42-.1.21-.19.36-.16.08-.24.18,0,.36-.63.26-.13.25-.31.34-.15.35,0,.28.17.14.15-.43.33-.05.34.09.27.34.32.06.39-.18.56-.4.57-.07.33-.37.63-.44.44,0,.52-.18.2-.07.26-.23.26,0,.24-.25.17.05.64-.2.47.25-.09.31.11.06.2.35.38v.21l-.14.23,0,.62.3.43-.31.37.17.14H254l.34.15.5.61,0,.45-.14.27-.15.2-.25-.05-.32.1-.76.73v.3l-.23.4-.4,0-.14.31.05.23-.48.4h-.28l-.14.32-.26-.05-.56-.35-.29-.09-.4.24-.36,0-.35.27-.29-.18-.3-.05-.35-.29-.42-.12-.4,0-.4.05-.23-.2-.22,0-.29-.42-.42-.32-.19,0-.15.11-.15-.09-.07-.23,0-.69-.13-.5,0-.37-.28-.44-.07-.29-.37-.09-.36-.43-.09-.47-.17-.18,0-.55-.18-.2,0-.46-.17-.21-.33-.13,0-.22.28-.14,0-.25-.15-.18-.31.05-.2-.2-.34,0,0-.31-.21,0,0,.32-.38.14-.45.44-.23.35-.63,0-.28-.14-.11-.24.11-.26.23-.2,0-.2-.25-.15-.05-.41-.14-.32,0-.28.24-.29.07-.36-.1-.36-.22-.15-.06-.39,0-.6-.15-.4-.25-.15-.11.26-.43-.05-.21.07-.11.15.06.2-.09.16-.28.13-.22-.06-.34.24-.79.35L237,199l-.66.41-.76-.9-.21-.58-.4-.38.26-.49-.12-.2-.39.11-.19-.28.19-.33-.14-.25-.45.19-.26-.17.05-.23.34-.41-.25-.18-.4.15-.22-.15.25-.42-.82-.77-.89-.22-.44.29-.3-.46h-.3l-.32-.29-.05-.41-.34-.41-.43-.28.22-.4-.19-.12-.37,0-.25-.23-.06-.61.12-.23-.23-.18-.54-.9-1-.14-.63-.18-.25-.26h-.46l-.52-.44-.34.32-.28-.22-.26.19-.34-.2-.5.11,0-.49-.46,0v-.46l.31.06.09-.23-.23-.55-.23.19-.17-.25.18-.4-.13-.19-.34.33-.22-.27-.39.16.08-.48-.4.09.06-.29-.31,0-.12-.43-.29-.46-.59-.1-.17-.37.08-.31-.4-.24-.79.35-.17.38-.4-.07-.28-.23-.39.13-.26-.58v-.51l.28-.44L218,183l.19-.34-.16-.23.28-.32,0-.74Z" transform="translate(-176.25 -160.64)" style="fill: rgb(210, 210, 230);"></path>
   <path name="El Playon" scale="6.3" move="1" data-id="879" id="path5498" class="cls-1" d="M243,192.53l.05.25-.63.19-.55.43-.19.44.14.18-.32.23-.1.3.22.32.35.14.17.2,0,.21.17,0,.37.44.05.18.32.28.05.24-.19.17h-.34l-.23.21v.43l.2.23.2,0,.09.34h.44l.37.11.14-.16.35,0,.19-.11.4,0,.14.12.31,0,.2.15.18,0,.06-.21.34-.52.2-.18-.06-.26.37-.23.47,0,.55.6.25-.14.32.05.26.19.24.83.24.7.27,0,.18-.12.28.11.2-.06,0-.48L250,198l.27.06.22-.26.23.06.12-.15.28.06.08-.16.26,0,.42-.1.21-.19.36-.16.08-.24.18,0,.36-.63.26-.13.25-.31.34-.15.35,0,.28.17.14.15.19-.17,0,.21.17,0,.08.3.19.2.55,0h.53l.23.07,0-.44-.15-.18-.29-.8h-.34l-.33-.23-1.42,0,.34-.24.57-.23.39-.64-.08-.26-.6.18-.05-.32-.48-.59-.29-.08,0-.23.38-.42c.12-.42.08-.75.5-.89l.38-.17.13-.59.42-.06.37-.58.14-.43.16-.19-.25,0L256,189l-.45-.1-.16.13-.12-.24h-.56l-.13.16-.64,0-.37-.28.1-.14-.31-.23,0,.22-.4.31-.36,0-.16.08-.13.33-.25-.3.09-.06-.37-.24h-.46l-.6-.17-.13,0-.33-.09,0-.2-.49-.22-.16.07v.13l-.56.34v-.22l-.53-.07-.11-.25-.5-.05-.13.09.07.13-.18.11-.26-.16,0-.28-.35-.14-.23.08-.11.33-.46.25-.08.23v.13l-.29.65-.48.31,0,.11.1.07-.05.17-.32,0-.16.28.11.17.34.64.19,0,.05.27h.14l.05.14-.38.32-.13.53.13.31-.13.22-.16-.06-.05.2-.19.05-.31-.22.1-.08-.12-.28h-.29l0,.11-.37.06.16-.19-.2-.39-.4-.06-.09.19-.17,0Z" transform="translate(-176.25 -160.64)" style="fill: rgb(210, 210, 230);"></path>
   <path name="Surata" scale="5" move="1" data-id="931" id="path5503" class="cls-1" d="M256.52,188.93l.24,0,.05-.26-.07-.14H257l0-.13-.1-.15.18-.1.15.11.09-.06.36.06.08.24.22-.11,0-.16.42,0,.26.15,0,.13.18.06.26-.09,0-.13.18,0,.1.17.17,0,.09-.15.19-.07.14.08-.06.19.13,0v.13l-.17.28-.16,0-.1.26.06.13-.22.08v.15l-.12.05,0,.13.29.15v.3l-.12.06.23.53.16.19-.16,0,.08.28.23.42v.38l-.07.08.42.3v.61l-.1,0,.48.44.42,0,.71.31.13-.09.32.39-.11.17.54.36.06.33.44-.05,0-.07.18,0,.53.53-.06.18.26.18.33-.14.17.29-.17.86-.34.51v.4l.56,1,.47.18.33.62-.08.3-.26.09-.15-.37-.28-.12-.14.11-.14-.06-.09.12h-.2l-.25.25h-.29l-.28.34-.09.2-.2-.11-.2.23-.15.22-.36.27-.16.49-.37.65-.28.17h-.55l-.28-.15-.21-.11-.25-.09-.33.17.05.35-.06.09.59.76h.15l.39.35.38.43.29,0,.44.44.17,0,.21.23h.17l.56.49-.57,0-.14-.09-.19.06-.41-.47-.19-.09-.05-.19-.3-.09-.16.08-.2-.26-.45-.34-.27,0-.34.23.06-.38-.1-.23.11-.29-.28-.26-.29,0-.23-.2-.14.17-.29.15.18-.29-.34-.49-.54-.44,0-.29.28-.22.23-.36.17-.41-.06-.37.17-.34V199l.15-.28-.23-.12-.22-.21-.17,0,0-.22-.13-.27-.21,0-.45-.39-.29-.06-.65-.69-.2-.11,0-.44-.15-.18-.29-.8h-.34l-.33-.23-1.42,0,.34-.24.57-.23.39-.64-.08-.26-.6.18-.05-.32-.48-.59-.29-.08,0-.23.38-.42.23-.8.27-.09.38-.17.13-.59.42-.06.37-.58.14-.43.16-.19Z" transform="translate(-176.25 -160.64)" style="fill: rgb(210, 210, 230);"></path>
   <path name="Tona" scale="7" move="0" data-id="932" id="path5508" class="cls-1" d="M267.72,211.4l.12.86.49.15,0,.1h-1l-.44.34.18.55L267,215l-.67.39-.37.86-.21.22-.13.28h-.8l-.23.1h-.69l-.2-.38-.71-.3-.61-.45-.46.68.13.38-.11.35h-.4l-.39-.4.19-.29-.11-.24v-.44l-.12-.14.12-.29-.29.1-.34-.09-.19-.2H260l-.21.14h-.2l-.21-.22-.2.17-.29-.12-.14-.44-.62-.43-.17-.37,0-.38-.37-.12-.33-.21-.1.3-.24.2-.49-.35-.56-.05-.32-.15-.06-.63V212l.3-.38.18-.44.36-.37.2,0,.24.33h.22l.31-.46.28,0,.41-.51.22-.61,0-.49.1-.12.31-.1,0-.25.2-.29.29-.06.76-.61.48,0,.15.29.31.38.25,0,.2.17.17-.11.35,0,.6-.36.68-.14.54-.2.25.06.43.38.27-.32.18-.33.25.07.7-.31,0,.47.76.51,0,.32-.21.2.12.26.42.32-.12.49.58.1.2.45.33.07.15-.16.25.13-.07.37-.36.17Z" transform="translate(-176.25 -160.64)" style="fill: rgb(210, 210, 230);"></path>
   <path name="Santa Bárbara" scale="6.4" move="1" data-id="925" id="path5513" class="cls-1" d="M267,218.51l-.37-.23-.56,0-.29.11-.1-.19,0-.34-.26-.4V217l.09-.21h-.8l-.23.1h-.69l.15.38-.08.36-.46.76.22.38-.13.43,0,.81-.42.73.09.56-.77,1.21-.43,1.05-.22-.1-.57.39-.56,0-.35-.45-.33,0-.29.76-.37.55-.14.55H259l.19.32-.17.23,0,.41.22.9.14,0,.17-.33.43-.41.11-.83.26-.26h.26l.36-.2-.08.32.09.2-.2.2.22.25.49,0,.19.19-.48.9.2.2.28.09.38.38-.2.29-.06.29.26.06.26-.26.28.11.63-.37.35-.38.2-.31.48,0,.47-.4.29-.07.35-.4,0-.44-.09-.46.44-.32.3-.47,0-.76-.25-.26.28-.71.68-1,.21-.8-.35-.36-.06-.47.57-.25.34-.55-.26-.48.07-.54Z" transform="translate(-176.25 -160.64)" style="fill: rgb(210, 210, 230);"></path>
   <path name="Guaca" scale="5" move="1" data-id="887" id="path5519" class="cls-1" d="M267.45,218.41l.14.35h.26l.21-.1.38.06.51.71.9.1.31-.19.57.39-.14.44.21.18,1,.4.58.45.35.54.11.57.16,0-.1.14-.08.54.07.36h0l-.08.39.15.33.07.51-.37.59-.27.12,0,.37-.42.52-.43.1-.36-.06-.35.17-.23,0-.34.12-.36,0-.63.57-.28.09-.43.52,0,.32-.13.15,0,.69-.27.38,0,.37-.23.27-.32,0-.06.35-.19,0-.4-.32-.25,0-.38-.16-.28,0-.28-.15-.31.1-.21.25-.06.42.13.39-.24,0-.33.49-.17,0-.44.59h-.22l-.42-.45-.85-.06.24-.48.07-.53.63-.83.33-.73-.18-1.32.2-.31.48,0,.47-.4.29-.07.35-.4,0-.44-.08-.46.44-.32.3-.47,0-.76-.25-.26.28-.71.68-1,.21-.8-.35-.36-.06-.47.57-.25.34-.55-.26-.48.06-.54Z" transform="translate(-176.25 -160.64)" style="fill: rgb(210, 210, 230);"></path>
   <path name="XXXX" data-id="" id="path5525" class="cls-1" d="M273.11,222.3l.43-.61.48-.11.19-.53.24-.15.76,0,.12.19.41-.1.21-.26.35-.13.41.15-.1.54.26.4.33,1.12.17,0,.21-.59.17-.28.21-.53.43-.06.63.48.78-.06.05-.24.35,0,.48.17.38,0,.45-.42.84-.23.41.11.14.29.45.33-.1.21.13.31-.07.35-.13.15V223l.29.18.32.12.07.44.17.64-.26.24v.2l-.34.3,0,.84-.14.22.21.14.15.51-.1.49-.25.18-.08.53.22.37-.06.29-.25.12.09.37-.18.14v.29l-.09.24.16.37-.39.38-.32.11-.1.36-.51.67-.68-.15-.51.06-.29-.15-.31-.05-.41.57-.17-.38-.11-.54-.37-.41-.33.34h-.23l-.09-.26-.45-.4-.49-.06-.42.09-.34-.17-.4.35.15.32-.1.23-.34.09-.1.36h-.3l-.81-.39-.29-.06-.26-.42-.16-.37-.28-.38h-.24l-.13.26L273,230l-.34.1-.57.31.2-.5.43-.6.41-.24,0-.23-.41-.72.42-.49,0-.5-.13-.29.08-.52-.12-.61.21-.29.17-.37-.17-.49.11-.42-.09-.28.09-.32-.49-.13-.06-.37.07-.54.1-.15Z" transform="translate(-176.25 -160.64)" disabled="disabled" style="pointer-events: none;"></path>
   <path name="XXXX" data-id="" id="path7448" class="cls-1" d="M283.79,227.36l.33-.28.21.33.33,0,.4-.32.45.1.22-.08-.33-.34.16-.25.61-.18.21.31v.66l.14.16-.15.17-.18-.06-.32.5.39.35.35-.08.22.24.06.8.53.44v.52l-.42.4,0,.35.19.41-.37,0-.45.56-.14.22.18.14v1.41l.53.2-.26.09.25,1.07-.71.34-.32.19-.47,0-.41-.32-.38,0-.25-.44-.17-.49-.74,0-.31.18-.54,0-.29.18-.9-.92-.09.69.15.4-.07.33-.34.31-.26,0-.31.23h-.65v.35l-.26,0-.17.17v.38l-.58.29-.36-.12h-.26l-.43.24h-.64l-.26,0-.14.12-.31-.15v-.35l-.39-.05-.52-.47.1-.26-.63-.11,0-.35.25-.44-.81-.78-.87-.65-.28-.1-.27-.3h-.2l-.21-.24.11-.29-.19-.2-.08-.56-.07-.35v-.37l-.17-.27-.07-.66.58-.31.34-.1.3.27.13-.26h.24l.28.38.16.37.26.42.29.06.81.39h.3l.1-.36.34-.09.1-.23-.15-.32.4-.35.34.17.42-.09.49.06.45.4.09.26h.23l.33-.34.37.41.11.54.17.38.41-.57.31.05.29.15.51-.06.68.15.51-.67.1-.36.32-.11.39-.38-.16-.37.09-.24v-.29l.18-.14-.09-.37.25-.12.06-.29-.22-.37.08-.53.26-.17Z" transform="translate(-176.25 -160.64)" disabled="disabled" style="pointer-events: none;"></path>
   <path name="Bolivar" data-id="859" id="path7453" class="cls-1" d="M195.7,280.26l-.53.64,0,1-.3.32-.84.16-.32.48h-.28l-.28-.27-.58-.1-.36-.49v-.46l.11-.26.15-.68.32-.19.16-.5.1-.86.14-.2,0-.26-.09-.07v-.21l-.12-.21v-.22l-.1-.12-.16-.05-.28.23h-.18l-.07-.23-.12-.12v-.25l.14-.14.09-.29.49-.49.07-.18H193l.07-.18-.37-.39-.12-.28-.37-.09-.14-.41-.54-.23v-.3l-.35-.39-.19-.34-.09-.3.21-.09v-.09l-.21-.16v-.14l-.16-.18.14-.19,0-.2-.12-.12.07-.25.1,0,0-.19-.11,0h-.1l.12-.25.26-.16,0-.37-.32-.07-.17-.13h-.25l-.24-.19.07-.46-.33.1-.23-.16h-.07l0,.18h-.24l-.14-.23H189l-.07.09-.21,0v.3l-.19.21,0-.23-.11.16-.12,0-.09.19-.17.11-.09-.22-.15.06-.07.2,0-.09-.18.05-.14.2-.22-.13-.21.05-.16.4-.2.2-.15.73-.27.09-.13-.16-.07.16-.3,0-.21-.14,0-.13-.08-.2-.18,0-.11.14-.2,0-.27.2-.17,0,0-.25.18-.13-.14-.16-.13,0,0-.15-.51-.19-.18-.17-.08-.27-.16-.07.09-.1.06-.31-.08-.32-.27-.07-.19-.29,0-.11-.18.07,0,.11-.22,0-.2.16-.11-.19h-.33l-.13-.16-.33,0-.24-.24-.38-.12-.16-.25.12-.22v-.3l-.18-.22,0-.54-.12,0,0-.25.19-.15-.11-.23-.72-.5,0-.31-.4-.11-.18-.41.18-.37.26-.47-.13-.68.29-.38-.4-.16-.18.07h-.4l-.57-.63-.48,0-.31-.47,0-.52-.24-.09-.37-.61.09-.52-.14-.34-.28-.11.12-.36.34-.31.11-.12.5-.33.8.77,1.07,1.1,1.11.32.65.64.26-.07.17.29.23-.05.08.34.87-.05.19.21-.05.36-.2.07-.17.36,0,.31-.14.25-.25.05,0,.15.38.16.22.29-.11.38-.09.09-.07.41.16.06v.46l.12.09.25.52-.11.13v.28l.18.16,0,.19h.54l.35.41.37,0,.13-.09.23,0,.12.29.47.07.3.1.36-.24.22.05.18-.12.65.35.05.05.37,0,.21.23h.13l.23-.23.17,0,.09.05h.42l.23-.31.57-.5h.1l.32.27h.49l.3.17.23,0,.33.32.18,1.06.39.26.24-.19.53.15.3,1,.37.07.58-.29.3-.5.44-.05,0-.16.07-.19-.06-.43.25,0,0-.29-.14-.22.3-.4,0-.48.19-.19,0-.66-.24-.19-.09.12-.37-.16-.72-1,0-.65.48-.24.24,0v-.28l-.44-.2.23-.14.07-.38.09-.09.18.3,1.21.05-.11-.3.08-.22.19,0,.14.12.28-.07-.07-.37.88-.58.73-.75v-.41l.22.26.2.18.18.13.08.31.07.28.12.11.37-.24.22.08.26.19.09.23.07.53.12.15.24.38.15.23.32-.06.06.22.15.05.17-.21h.23l.19.31h.28l.24.18.42-.06.69.17,1.4-1.24.56.11.52-.31.05-.21.89-.56.2.1.42-.21.21.38.31-.14.19.14.81-.62.41.24.55-.33.63.38v.51l.19.4.19.58.41.21.47.11.23.35.43.07.07.62.28.36.24-.09,0-.32.33-.29.48-.06,1.43-1.33,1-.44.52-.09.29.2.33,0,.46.19.17.24,0,.32-.15.6h0l.13.53.52.22.25.33.16.46.37.15.44,0,.28.38v.45l-.05.37.13.23v.44l-.32.31-.38,0-.39.42,0,.23-.12.44.09.2.14,0,.14.19-.13.22.3.4,0,.37.11.65.15.45.13.49.39.14.31.32-.34.63-.21.22-.18-.08-.24.11-.16.3-.53.29-.34,0,0,.58-.12.29.1.42,0,.38.34.64-.32.26-.19.43-.31.23-1.11-.16-.94-.37-.34-.27-.43-.12-.23-.19-.61.25,0-.31-.5-.61-.46-.5H213l-.15-.24.43-.34.09-.35-.12-.2.16-.58h1l.5-.28.62-.29H216l.48-.15.52-.47.05-.71.12-.7-.17-.35-.4-.27-.28-.43,0-.54-.28-.5v-.4l-.4-.48-.31-.61-.88.67-.28.13-.37-.06-.29-.26-.36-.09-.35,0-.36-.15-.21-.35,0-.44-.2-.32-.37-.06-.26-.2-.4.11-.33.35-.3.2-.44.23-.4.1-.22,0-.15-.56v-.36l-.16-.15-.21.16-.25,0-.17-.39-.25.19s-.35,0-.34-.07a4.83,4.83,0,0,0,0-.54l-.15-.41-.53-.32.17-.41-.32-.29-.25.17-.32-.29-.25.2-.76-.05-.29.2-.79,0-1.14.78-.38.06-.25.23h-.34l-.05.34-.4.2-.31-.17-.4.3-.65,0-.15-.35v-.47l-.27.18-.14,0h0l-.22,0,0,.18.15.09v.22l0,.26-.17.18,0,.15.21.17.24.17.2.16.1.12-.19.16-.15.2-.31,0h-.2l-.35.1-.19.33v.3l.11.15.29.22.19.16-.13.17-.25.15-.18.19-.09.21,0,.24,0,.23.2.16.27.15.14.19,0,.19-.23.12,0,.18.1.17v.26l.17.12.23.23v.09l-.2.07H199l-.17.17-.31.26-.21.16-.2.1-.06.31.25.42,0,.26-.29.26h-.34l0,.23-.37,0-.17.38-.23.17,0,.32-.5.37,0,.36-.2.23-.47.15.09.16.34.13-.18.52.05.32-.3.52-.35.23v.25h.34l.14.23-.59.33.38.43Z" transform="translate(-176.25 -160.64)" style="fill: rgb(210, 210, 230);"></path>
   <path name="XXXX" data-id="" id="path7463" class="cls-1" d="M201.72,242.59l-.09-.26-.15-.38-.26-.2-.19,0-.16-.16v-.16h.25l.21.12.26-.16-.06-.57.08-.13v-.13l-.18-.11,0-.11.19-.17,0-.11-.25-.22,0-.2-.06-.24-.2-.09-.34.19-.23.24-.27,0-.16-.08-.15.15-.08.16-.24,0-.23-.26.09-.26.16,0,.25.07.14-.13,0-.41.3-.14.06-.37-.31-.25.08-.24.31-.2-.14-.24-.46-.09-.1-.13.07-.23.36-.05.07-.25-.1-.15-.44,0-.21-.18.05-.26.1-.08-.1-.18-.35,0-.13-.19.08-.25.39-.22.24.13.31,0,.11-.14v-.18l-.25-.07-.31-.2-.36.06L199,235l-.23-.14.13-.21.32-.06.12-.11v-.11l-.16-.06v-.2l.21-.15.29,0,0-.25-.34-.06-.08-.26-.22-.19-.23,0,.48-.67.56-.31.06-.29.79-.17.48-.43.31.08-.31.41.34.29L202,232l-.29-.23,0-.29.47,0,.32-.32.49.06V231l-.37-.21-.17-.6.54.05-.23-.23.11-.23.26.09.3.14.17-.52.26-.23.72-.05,1.33-.71,1.92-1.3.52.32-.29.12.34.17-.39.41.34.14.06.52.25.44-.51.37.23.41-.29,0,.26.36-.4,0-.2.48-.25-.05.11.41-.39.29.33.41.11.48.32-.2.11.17-.31.24.15.21.19-.12.31.47h.23l.52.41.31,0,.14.29.37.2.13.36.38.12V235l.28.4.17-.17.31,0,.21-.27.13.23-.06.36.09.34.21-.35.14.41h.36l.06.15-.34.06,0,.25.52.14-.27.22.55.19,0,.29.33.15-.13.41.37.31-.46.44.59.35.52.52-.29.35.35.41-.09.37.34.21.31.38.54-.13.11-.4.34.11.38-.19.39.35-.06.58.35-.3.11.41.19.23-.36.49-.79.35.36.52.05.5.32-.1.12.24.37.12H218l.55.46-.4.64-.23-.06-.22.29-.6-.17-.34-.33-.6-.22-.7.09-.15.25,0,.41-1,.88-.8,1-.29-.32-.33.09-.34-.25-.36.49-.3-.24.23-.53-.23-.37.18-.38-.08-.43h-.44l-.54-.41-.25.07-.36-.21-.52.41-.49,0-.37.31-.37,0-.29-.37v-.47l-.35-.26-.33,0V244l-.43-.34-.57-.07-.48-.43h-.53l-.74-.45-.64-.05-.24-.21-.75.21h-.43l-.31-.28h-.34l-.2.22Z" transform="translate(-176.25 -160.64)" disabled="disabled" style="pointer-events: none;"></path>
   <path name="XXXX" data-id="" id="path7465" class="cls-1" d="M178.15,258.58l1.26-.72.7-.58.4-.85.46-.81.1-.56.63-1.22.57-.5.47-.15.42,0,.11.12h1l.47-.29.17-.76-.24-.65-.9-.8-.6-1.11.06-.68.27-.39.2-.53.14-.06,0-.33-.08-.09-.05-.76-.18-.49-.4-.29-.2-.64-.17-.09.06-.4.19-.15.11-.72-.19-.67.51-.52.47-.43.37-.13.15-.5.05-.22.13-.13.08.1.35-.17.36-.45.05-.23.79-.07.54.12.15.2.43,0v-.28l.08-.2.23-.07.13-.2V240l.35-.45.28-.08.33.05h.34l.17-.25.49-.1.3,0,.51-.33.41-.1.61-.85.28-.67.85-.75,1.3-.43h.3l.21.1.38-.15.48-.05.31-.35.41-.22.28,0,.51-.58.1-.35.38-.2.44-.41.62-.34.37-.25.23,0,.22.18.08.26.34.06,0,.25-.29,0-.21.15v.2l.16.06v.11l-.12.11-.32.06-.13.21.23.14.24-.18.36-.06.31.2.25.07v.18l-.11.14-.31,0-.24-.13-.39.22-.08.25.12.19.36,0,.1.18-.1.08-.05.26.21.18.44,0,.1.15-.07.25-.36.05-.08.23.11.13.46.09.14.24-.31.2-.08.24.31.25-.06.37-.3.14,0,.41-.14.13-.25-.07-.16,0-.09.26.23.26.24,0,.08-.16.15-.15.16.08.27,0,.23-.24.34-.19.2.09.06.24,0,.2.25.22,0,.11-.19.17,0,.11.18.11v.13l-.08.13.06.57-.26.16-.21-.12h-.25v.16l.16.16.19,0,.26.2.15.38.09.26.33,0,.2-.22h.34l.31.28h.43l.75-.21.24.21.64.05.74.45h.53l.48.43.57.07.43.34v.29l.33,0,.35.26v.47l.29.37.37,0,.37-.31.49,0,.52-.4.36.2.25-.07.54.41H212l.08.43-.18.38.23.37-.23.53.3.24,1.09,1.36,2.41,1.91.13.35-.49.51,0,.36-.37.61V253l-.58.91.16.42-.53.63-.57.3-.4.51-.22.68.12.5,0,.78-.33.24-.05.33-.49.18-1.11-.38-.12.62-.24.31-.45-.47-.2.46-.54.38-.66.23-.42,0-.1.49-.91.85-.78.2-.81.64-.5.18-.2.35-.48,0-.42.28-.33,0-.4.33-.86,0-.48.1-.26.23-.26.38-.68-.31-.43,0-.31-.38h-.32l-.09-.23-.26-.19-.22-.08-.37.24-.12-.11-.07-.28-.08-.31-.18-.13-.2-.18-.22-.26v.41l-.73.75-.88.58.07.37-.28.07-.14-.12-.19,0-.08.22.11.3-1.21-.05-.18-.3-.09.09-.07.38-.23.14.44.2v.28l-.24,0-.48.24,0,.65.72,1,.37.15.09-.12.24.19,0,.66-.19.19,0,.48-.3.4.14.22,0,.29-.25,0,.06.43-.07.19,0,.16-.44.05-.3.5-.58.29-.37-.07-.3-1-.53-.15-.24.19-.39-.26-.18-1.06-.33-.32-.23,0-.3-.17h-.49l-.32-.27h-.1l-.57.5-.23.31h-.42l-.09-.05-.17,0-.23.23h-.13l-.21-.23-.37,0-.05-.05-.65-.35-.18.12-.22-.05-.36.24-.3-.1-.47-.07-.12-.29-.23,0-.13.09-.37,0-.35-.41h-.54l0-.19-.18-.16v-.28l.11-.13-.25-.52-.12-.09v-.46l-.16-.06.07-.41.09-.09.11-.38-.22-.29-.38-.16,0-.15.25-.05.14-.25,0-.31.17-.36.2-.07.05-.36-.19-.21-.87.05-.08-.34-.23.05-.17-.29-.26.07-.65-.64-1.11-.32-1.07-1.1h0l-.79-.78Z" transform="translate(-176.25 -160.64)" disabled="disabled" style="pointer-events: none;"></path>

</svg>