<svg data-id="" id="Capa_1" data-name="Capa 1" xmlns="http://www.w3.org/2000/svg" viewBox="0 0 94.58 142.77">
   <defs>
      <style>.cls-1{fill: #ebebef;;stroke:#fff;stroke-miterlimit:3.86;stroke-width:0.25px;}</style>
   </defs>
   <path name="Armero" data-id="967" id="path9895" class="cls-1" d="M212.83,174.86l.19.13-.29.21-.12.36-.18-.24-.32.08v.24h-.19l-.22-.22-.33.1-.22-.1-.41.3v.2l-.28-.14-.1.22-1-.16-.12-.16-.41.12-.1.2-.28-.08-.37.22v.34l.2.18-.08.44h.09l.54-.2H209l.22-.1.08.08-.24.36.08.59.26.28,0,.17-.3-.05-.36.1-.29-.08-.25,0-.27.23-.23-.25-.22,0-.25-.15-.77,0-.15.19-.23.09-.31,0v-.3l-.27-.34-.1-.4-.4-.27-.06-.21,0-.27-.23-.26v-.29l-.1-.09-.23-.08.13-.25-.11-.19-.27-.21-.43-1-.36-.3-.2,0-.25-.06-.27.11-.48.25-.46,0-.35-.07-.09-.1-.33,0-.48.06-.6-.4-.08-.21-.19-.17h-.39l-.11-.19-.76-.4-.15-.36-.21-.23-.18,0,.08-.39.22-.23.43,0,.17-.36.3,0,.51-.64.24,0,0,.34.23-.14.14,0,.1.4.18-.16.39.08,0-.22.53-.18.22.16.28-.34.63-.14,0-.16.46.46.14-.34.7-.14.14-.38.1-.08,0,.12.16,0,.25.38.32-.08v-.66l-.22-.22.24-.24,0-.58-.32-.24.36,0-.06-.22.28,0,.19.24.1-.3h.14v-.22l-.36.1-.11-.14.11-.06,0-.16-.35-.16.12-.16,0-.22-.28,0,0-.26h.36l.08-.28-.2-.22-.32.34h-.29l.1-.52-.18-.14.12-.69.16-.12-.34-.14.12-.18-.08-.82,0-.18.14.06.18,0,.25,0,.44-.47.39.35.25,0,0,.38.61.44h.28l0,.24.53.12,0,.24-.18.32.38.41-.06.26.14.14.27-.06.81.32h.79l.29.26.24-.18h.18l.08.14.53-.42.1-.14h.31l.16-.41.35-.2.3.2-.06.23h-.22l.1,1.34-.26.1.2.9-.12.16.63.7-.06.6.44-.22,0-.26.31-.16.14.32.34-.16v-.36h.54v.63l-.25.55.08.33-.37.58-.15.84.89.18,1,.56.15.43-.23.39h-.45l-.35-.22-.34,0-.54.5-.43.45-.09.74Z" transform="translate(-134.41 -153.15)" style="fill: rgb(210, 210, 230);"></path>
   <path name="XXXX" data-id="" id="path4848" class="cls-1" d="M211.29,229.09l-.79-.16v-.51l-.25.14-.05-.79.25-.11-.39-.79.25-.31-.14-.26.3-.31v-.9l-.33-.12.36-.31-.19-.42v-.56l.25-.37.05-.76L211,222v-.62l.05-.25-.39-1.1.09-.37.72-1.1.11-1,.89-1.41.28-.14.37-.16V216l.22.15,0,.57.11.1-.11.24-.24.12-.24.34.4.12v.3l-.26.06-.2-.1-.15.2.41.22.18-.16.21,0,.32.3-.14.24.18.14.18-.1.23,0-.06.1.28.14,0,.24.14,0V219l.17-.1.34.06,0,.16h-.22l-.16.18H215l.22.29-.12.08.22.22.27,0,.14.16.12-.16.23,0,0,.14h.18l.1.24.16-.2.37.22v.14h-.18v.16l.26.12v-.22h.22l0,.3.13.28.2,0v.28l-.25,0-.4.28,0,.34h.34v.14l-.2.1-.16,0-.27.3v.42l.25.2v.26l-.45.36-.06.46.24.12h.19l0,.18-.22.48-.58.14-.23-.16-.22.08,0,.38-.81.71-.86.2-.45.54,0,.44-1.05.82-.25.42h-.24l-.53.6Z" transform="translate(-134.41 -153.15)" disabled="disabled" style="pointer-events: none;"></path>
   <path name="Prado" data-id="995" id="path4834" class="cls-1" d="M209.94,249l-.28.23-.28.37-.17,0-.34.16-.37.08-.14-.08h-.28l0,.16h-.7l-.48-.28-.55.54-.08-.18h-.45l.1-.22-.3-.18-.33.32h-.81l-.18-.46-.57-.13-.27.17v.3l-.38.52-.23.1-.06.22.21.28.16.08.1.34-.47.6-.11.14-.06.2h-.17l-.06.12-.14-.34.1-.28-.18-.3h-.41l-.08.12-.47,0,0-.18h-.46l-.25-.42.15-.14-.09-.44h-.3l-.06-.2h-.25l-.22.1-.06-.36-.45-.32.15-.18,0-.41h-.12l0-.16-.48-.42H198l-.29-.16,0-.18.5-.63.69-.33.19,0,.49-.29.06-.36.07-.31.37-.06.21-.44-.39-.16-.1-.5.22-.3-.05-.19-.19-.19v-.33l.31-.29v-.39l.19-.67.43-.33.18.1,0-.48.27-.2.5-.78v-.21l.33-.23.07-.12.51.08.27.31.28-.22.23-.2.11.36.33,0v-.28H204l0-.23h.3l.09-.17.3.11,1-.08.05-.28.42.11v.25l-.19.31h.47l.42.17v.34l-.2.23,0,.39-.28.48.14.2h.42l.39-.48h.25l.14-.48,0-.2.25-.34.47.06,0,.42-.17.23.2.28.22,0,.28.26.11.45.73.11.25-.22h.19l.45.53h.53l.05.29h1.09l.42-.12.33.37.5-.34.17,0,.14.2.39-.28.14.17.44-.26,0-.19.46-.3.07.21-.19.23-.46.42-.27.45-.21.2.14.17h.15l.12.29-.13.23-.17,0-.05.11s-.06.14-.07.18-.24.14-.24.14l-.08.24.11.12-.15.25-.09,0-.05.15h-.42l0-.07-.36.12-.07.21-.24.16.17.25-.22.3h-.2l-.07-.09-.13.08,0,.22-.16.12.07.12-.1.43-.2.15v.18l.13.09-.09.1-.24.07h-.11l-.14.1-.1.41-.14.06-.4.39-.19,0-.38-.25-.27.06Z" transform="translate(-134.41 -153.15)" style="fill: rgb(210, 210, 230);"></path>
   <path name="Coyaima" data-id="974" id="path5433" class="cls-1" d="M197.74,248l-.28,0v.28l-.3,0,0-.25-.58.31v.32l-.55.48.25.37L196,250c-.12-.05-.38-.42-.38-.42l-.19.37-.22-.31-.84.2-.45-.48-.47.16L193,249l.33-.34-.39-.45-.47-.12-.56-.45-.5.14-.56,0-.27.22.14.2-.37.31-.11,1-.39-.2-.47.65-.31,0L189,250l.3.11-.33.31-.31.68h-.16l-.09.28-.25.09-.83.68-.09-.14,0-.48-.59-.34-1.25.17-.19.28.25.11-.39.4-.11.34.19,0,.42.48-.36.4-.45-.23v.26h-.25l.06.28-.42-.11-.08.56.33.14-.31.23.17.17-.22.56-.39-.45-.34-.27-.11-.18-.31-.23-.63-.31h-.42v-.39h.25l-.47-.88-.56,0-.11-.14-.47.26-.56-.31.14-.48-.25-.46-.39,0,.19-.62-.08-.37-.31-.11.26-.28-.2-.28.07,0v-.12l.13-.11.07.18.23,0,.15-.19h.43l.08-.25.25-.14,0-.22v-.3l.16-.67.15,0,.51-.4.08-.26.28-.48.07-.36.12-.66.33-.64.45-.71.32-.17.09-.25.49-.15,0-.17.15-.09.07.12h.24l.07-.09-.23-.28L184,243l.22-.16.24,0h.31l.3.28.07.31.38.14.35-.05,0-.32.4-.63.08-.26.41,0,.12-.15-.19-.07-.15-.33.26-.12.06-.36.2-.15.13-.44-.16-.21v-.12l.22-.06.15-.35-.23-.13,0-.42.19-.25.15,0,.11-.22a.71.71,0,0,1,0-.17c0-.06.08-.4.08-.4h.27l.45-.36.18-.05.09.14.24-.05.15-.24-.18-.16.11-.56.21-.36.35-.07.09.15.34,0,.1-.27.5-.26.84.16.61-.21-.09-.18v-.24h.1l.23-.28,0-.25.11-.28.22.06,0,.24,0,.61.25.4-.14.2.17.28,0,1,.28,0,.58.37.2-.37h.28l-.09.23.23.25-.17.14-.17.6.42.25.19-.14.42.11,0,.34h.28l.17.34H196l.22.31.39,0,0,.06,0,.17.16.51.48.31.95,1.49,1.3,1.58.35.07.19.19.05.19-.22.3.1.5.39.16-.21.44-.37.06-.07.31-.06.36-.49.29-.19,0-.69.33-.51.64Z" transform="translate(-134.41 -153.15)" style="fill: rgb(210, 210, 230);"></path>
   <path name="Villarrica" data-id="1008" id="path9248" class="cls-1" d="M224.68,239.28l-.67.43L223,241l-.59,1.72-1.78,2.2v.34l-1,.88-.75.48-.92.84-.73.17-.27-.14h-.59l-.5-.34.17-.51-1.1-1.06-.2-.6.31-.68.47-.37.14-.5-.19-.15-.21.12-.25.36-.23,0,0-.08-.18,0,.27-.45.46-.42.19-.23-.06-.21,0-.82.67-.44.22.14.16-.26-.4-.3V240l.14-.58h.14l.06-.3-.45-.16-.12-.32.39-.42-.2-.14,0-.24-.29-.26,0-.29.37-.34.16.12.57-.18.1-.32.22.06.39-.22.16.16,0-.76.18-.24.13.18.3-.16-.12-.46.2-.46.14.12.11-.08-.27-.32.16-.3-.36-.34v-.64l-.24-.12-.23,0v-.22l.63-.5.18,0,.86-.58-.19-.2v-.21l.19-.14v-.24l.2.12.06.18h.27l.59-.38,0-.22.67-.26.3.3.29,0,.26.34,1,0,.26.28.22-.14H224l0,.16,1,.29.32-.12v.07l.34.53h.3l.55.31.12.37-.12.16v.73l-.21.12.17.21-.07.3-.63.21-.11,1.43.23.49,0,.24-.39.23,0,.54-.35.56-.16.1-.1.71.5.27Z" transform="translate(-134.41 -153.15)" style="fill: rgb(210, 210, 230);"></path>
   <path name="Villahermosa" data-id="1007" id="path5832" class="cls-1" d="M192.19,177.85l.08-.17-.25-.4.09-.13.22.13.19-.11-.08-.25.27-.36.1-.17-.12-.14-.21-.09V176l.08-.25.48-.19.6-.27.27-.21.29-.15.31-.57.19-.4.11-.23.16-.15.19-.52.31-.19.25-.34,0-.42.12-.11.15.11h.31l.19-.09.12.09.25,0,.25-.13.21,0v.19l.14.06.25-.1h.07l.08-.39.21-.21-.17-.46-.26.08-.24-.14-.35.24-.28-.42h-.29l-.26.18-.41-.36.12-.34-.42-.18-.17.14-.06-.14-.42,0-.33-.34-.49-.06-.65.28-.22-.6.26-.14v-.18l-.53-.36-.44-.64-.49,0-.39.36.09.34-.06.18-.51-.14,0-.2-.69.3.18.28-.1.26-.25.18.19.28-.09.4-.6.78-.45.75-.61.34-.1-.16-.17-.06-1.28.72-.2.24-.36,0-.11-.08-.16.22,0,.22-.53.22h-.46l-.11-.22-.12,0-.08.06-.36,0v.24l-.61.64,0,.3-.25.26-.26-.1-.2.08.06.3-.7.66-.2-.14-.16.28,0,.2-.94.46-.08.34-.79.52-.13.72,0,.21,1.14.08.23-.14.27,0,.72-.06.38,0,.23,0,.14-.13.48-.1.29.19h.21l.16-.36.4-.38.41-.38.5-.12h.29l.23-.15.11,0h.37l.41-.08h.27l.27,0,.17-.19.21-.09.73.26.41.33.44.09.68-.07.6.17.07.15,0,.42.1.06.29-.08.29.06h.38Z" transform="translate(-134.41 -153.15)" style="fill: rgb(210, 210, 230);"></path>
   <path name="Palocabildo" data-id="992" id="path4658" class="cls-1" d="M195.91,168.71l-.1-.78-.24-.1-.21.06-.67-.38.31-.24.43-.84.24,0,.45-.62-.23-.06.23-.31,0-.34-.11-.3.09-.1.28,0,.06-.36.29-.18.12.18h.18v-.18l.35-.46.42,0,.06-.26.33,0,.28.38.15-.22.3,0,0,.62.55.36.08.3-.2.1.08,1.47-.23.22,0,.28.41.26,0,.3-.41.44-.06.36.11.18v.32l-.28-.26-.39.08-.18-.16-.34.3-.13-.12-.69.1-.24.56-.32,0-.53-.4-.27-.12Z" transform="translate(-134.41 -153.15)" style="fill: rgb(210, 210, 230);"></path>
   <path name="Falan" data-id="978" id="path4650" class="cls-1" d="M204.12,163.59l.26-.29.07-.46-.29,0-.18-.24-.31.2-.26.44-.37-.06-.32.14-.33-.46-.79-.1-.1-.48.1-.16-.22-.36-.41.3-.08-.1h-.37l0,.38.17.28-.57,0,.14.64-.18.06-.17-.26h-.3l-.08.28-.22-.14-.23.08-.1.25,0,.63.55.36.08.3-.2.1.08,1.47-.23.22,0,.28.41.26,0,.3-.41.44-.06.36.11.18v.32l-.28-.26-.39.08-.18-.16-.34.3-.13-.12-.69.1-.24.56-.32,0-.53-.4-.27-.12.1.46-.24,0-.22-.16-.67.76,0,.3.41,0,.06.14.17-.14.42.18-.12.34.41.36.26-.18h.29l.28.42.35-.24.24.14.26-.08.17.44.44,0,.17-.36.3,0,.51-.64.24,0,0,.34.23-.14.14,0,.1.4.18-.16.39.08,0-.22.53-.18.22.16.28-.34.63-.14,0-.16.46.46.14-.34.7-.14.14-.38.1-.08,0,.12.16,0,.25.38.32-.08v-.66l-.22-.22.24-.24,0-.58-.32-.24.36,0-.06-.22.28,0,.19.24.1-.3h.14v-.22l-.36.1-.11-.14.11-.06,0-.16-.35-.16.12-.16,0-.22-.28,0,0-.26h.36l.08-.28-.2-.22-.32.34h-.29l.1-.52-.18-.14.12-.69.16-.12-.34-.14.12-.18-.08-.82,0-.19Z" transform="translate(-134.41 -153.15)" style="fill: rgb(210, 210, 230);"></path>
   <path name="XXXX" data-id="" id="path9866" class="cls-1" d="M209,187.28l-.24.68.07.1-.34-.08-.24.18h-.21l0-.34.25-.2,0-.56h-.17l-.22.26,0,.2-.28.4-.37-.12-.12.16-.08.38-.31-.2-.53.58-.48-.12-.27-.36.06-.26-.57-.34v-.34l.19,0,.53-.26.22.1.34-.24v-.24l-.26.08-.28-.3.24-.62-.06-.4.32-.32.08-.52-.44-.66-.1-.49.16-.12-.12-.42.34-.22-.12-.26h.31l.36-.52.69-.38.16.06.29-.26.22,0,.08.18.39-.14,0-.2h-.37l-.2-.1-.41.1-.22-.2.41-.22.55-.76.46-.08.39-.38.2,0,.12-.48-.16-.38.06-.46-.26-.28-.08-.59.24-.36-.08-.08-.22.1h-.21l-.54.2h-.09l.08-.44-.2-.18v-.34l.37-.22.28.08.1-.2.41-.12.12.16,1,.16.1-.22.28.14v-.2l.41-.3.22.1.33-.1.22.22h.19v-.24l.32-.08.18.24.12-.36.3-.21.25.16.41.21.34.9,0,.29-.5.33v.67l.43.29,0,.18,0,.46-.41.18-.57-.36-.24.09,0,.59.17.67-.11.44-.86.84v.21l.16.24.7.19.35.13.18.27-.15.9.12,1-.52.54-.8.44-.3.12-.05.34-.21.37.14.41-.16.29H210.2l-.77.64-.41.23Z" transform="translate(-134.41 -153.15)" disabled="disabled" style="pointer-events: none;"></path>
   <path name="Venadillo" data-id="1006" id="path9828" class="cls-1" d="M209,194.38l-.23.06-.19.21-.23-.27H208l-.12-.22-.11.16-.21,0,.15-.22-.36-.29-.06.29-.14.16-.23-.21-.05-.18.13-.06,0-.27-.25-.09-.24.29-.13,0-.23-.19-.16.1h-.45l-.1-.16-.45,0-.28-.18.16-.22-.2,0-.16.08h-.13l-.22-.2-.14.24-.29.1-.14-.08-.22,0-.18-.26H203l-.22-.22h-.16l.16-.34,0-.1-.47,0,.1-.24-.22-.32H202l-.25-.42.23-.16-.61-.3-.21.12-.06-.32.15,0v-.16l-.16,0,0-.3-.06-.4h-.2v-.16l-.49-.31-.63-.06V189l-.3.34,0,.25-.11.06-.22-.37-.18.19-.37,0-.26.24-.18-.2-.31.12-.12.29-.28-.3v-.25l-.14,0-.22.23v-.26l-.2.34-.14-.54-.11,0-.08.24-.62,0-.14.2h-.16l-.25-.34-.39,0-.11-.28,0-.48.56-.54v-.28l.45-.85h.41l.12-.28.27-.14.31-.71-.2-.08v-.2l.2-.17-.11-.45.36-1,.61-.19-.08-.29.14-.26h.21l.12-.1.32.24-.1.34.23.17.18-.08v-.09l.24.08.29.41h.26l.18-.18.15.1.18-.1.22.24h.12l.1-.2.15.1-.06.16.44.4.13,0h.2l.2.16.31-.44v-.2h.16l0,.14h.47l.16-.14.57.32v.22h.26l.12.14v.24l.17.14.22-.28.28.06-.14.18.12,0,.25-.14.18.12.22-.24.15.1v.34l.3-.1v-.16l.08,0,.06.3.37-.24.27.11,0,.08-.29.29.06.4-.24.62.28.3.26-.08v.24l-.34.24-.22-.1-.53.26-.19,0v.34l.57.34-.06.26.27.36.48.12.53-.58.31.2.08-.38.12-.16.37.12.28-.4,0-.2.22-.26h.17l0,.56-.25.2,0,.34h.21l.24-.18.34.08.35.58.56.51.14.66-.35.44-.14.57.65.51.71.28.07.52-.2.19-.42.16-.28.21.05.77-.49.35-.3,0-.25.54Z" transform="translate(-134.41 -153.15)" style="fill: rgb(210, 210, 230);"></path>
   <path name="Lérida" data-id="985" id="path4695" class="cls-1" d="M206.25,185l.08-.47-.44-.66-.1-.49.16-.12-.12-.42.34-.22-.12-.26h.31l.36-.52.69-.38.16.06.29-.26.22,0,.08.18.39-.14,0-.2h-.37l-.2-.1-.41.1-.22-.2.41-.22.55-.76.46-.08.39-.38.2,0,.12-.48-.16-.38,0-.28-.3-.06-.36.1-.29-.08-.25,0-.27.23-.23-.25-.22,0-.25-.15-.77,0-.15.19-.23.09-.31,0v-.3l-.27-.34-.1-.4-.4-.27-.06-.21,0-.27-.23-.26v-.29l-.1-.09-.23-.08.13-.25-.11-.19-.27-.21-.43-1-.36-.3-.2,0-.25-.06-.27.11-.48.25-.46,0-.35-.07-.09-.1-.33,0-.48.06-.48-.32-.3.18.18.62,0,.38-.28-.06-.39.06-.36.52-.19-.18-.22.54.22.28-.08,0,0,.4-.32.1.43.22.28-.06.24.4.21.14,0,.22-.15.1.13.15a3.66,3.66,0,0,1,.38,0c.12,0,.14-.17.14-.17l.09.23.52.08-.06.58.27.3-.17.2.07.5h-.19l-.38.6v.2h-.25l-.48.38-.53.08-.08-.08-.19.2.12.28-.44.34-.57-.08,0,.28.2.2-.12.3.14.36.22,0-.14.33h.21l.12-.1.32.24-.1.34.23.18.18-.08v-.1l.24.08.29.41h.26l.18-.18.15.1.18-.1.22.24h.12l.1-.2.15.1-.06.16.44.4.13,0h.2l.2.16.31-.44v-.2h.16l0,.14h.47l.16-.14.57.32v.22h.26l.12.14v.24l.17.14.22-.28.28.06-.14.18.12,0,.25-.14.18.12.22-.24.15.1v.34l.3-.1v-.16l.08,0,.06.3.37-.24.28.11Z" transform="translate(-134.41 -153.15)" style="fill: rgb(210, 210, 230);"></path>
   <path name="Líbano" data-id="986" id="path4691" class="cls-1" d="M197.75,182.56l-.2.4-.89.73h-.17l-.11.23-.22,0-.31.39.31.17v.14l-.25.14.22.2-.16.37h-.26l.2.22-.25.2h-.31l-.11.26-.36,0-.32.19-.5-.27.06-.18-.34-.16-.16-.26h-.37l-.16.26-.41,0-.08-.06-.49,0-.06-.14.27-.18,0-.24.14-.1,0-.2-.28,0,.06-.32-.25-.2.16-.34-.24-.16.12-.35.19-.26.06-1-.31-.36.18-.64.31-.06,0-.34.24-.24.06-.38h-.22l0-.54-.28,0,0-.46h-.15l-.18.16-.32-.06.16-.28.83-.58v-.14h-.22l0-.28h-.25l.08-.17-.25-.4.09-.13.22.13.19-.11-.08-.25.27-.36.1-.17-.12-.14-.21-.09V176l.08-.25.48-.19.6-.27.27-.21.29-.15.31-.57.19-.4.11-.23.16-.15.19-.52.31-.19.25-.34,0-.42.12-.11.15.11h.31l.19-.09.12.09.25,0,.25-.13.21,0v.19l.14.06.25-.1.25,0,.21.23.15.36.76.4.11.19h.39l.19.17.08.21.12.09-.3.17.18.62,0,.38-.28-.06-.39.06-.36.52-.19-.18-.22.54.22.28-.08,0,0,.4-.32.1.43.22.28-.06.24.4.21.14,0,.21-.15.1.13.16a3.66,3.66,0,0,1,.38,0c.12,0,.14-.18.14-.18l.09.24.52.08-.06.58.27.3-.17.2.07.5h-.19l-.38.6v.2h-.25l-.48.38-.53.08-.08-.08-.19.2.12.28-.44.34-.57-.08,0,.28.2.2-.12.3.11.35Z" transform="translate(-134.41 -153.15)" style="fill: rgb(210, 210, 230);"></path>
   <path name="San Antonio" data-id="1001" id="path4747" class="cls-1" d="M176.08,227.15l-.61.23-.28,0-.2.39.17.4-.14.48-.69.59-.06.73.28.43-.36.48-.5.7.13.17.45-.31.22.17v1l-.69.68-.48,1.33.5.67-.8,1.47,0,.7,0,.35-.17.14-.06.76-.13.42-.09.14-.3.68h-.37l-.22-.59h-.22l-.53-.54-.28.26-.36-.14-.78.25-.2.23-.5-.63-.56.12-.19-.37-.89-.2-.17-.39-.17.28-.44-.17-.42.17v-.28l-.39-.4-.25-.17-.14-.36.17-.26-.28-.56-.56-.26-.58.09,0-.29-.25-.28.16-.28-.19-.59,0-.37-.56.06-.36-.54-.17.28-.3-.11v-.28l.09-.37-.25-.28.25-.71.55-.51h.34l.14.2,1.67-1.07v-.31l.44,0,.62.42.66.09.81-1.05-.19-.51.33-.14.42.09.11-.26.36,0,.5.28.39-.26h.7l.47-.22.28,0,.42-.26-.53-1.52.25-.37.34.06.19.34.42-.82h.56l.38.25.31,0,0-.25-.31-.06-.7-.7,0-1.13.67-.71v-.23l.64-.11v-.28l.61-.14.31.08.61-.19.09.33.54-.22.49.14.11.28-.31,1,.06.34-.23.17-.14,1-.75.48-.08.31.86,0,.17-.2h.25l.06.31-.2.26Z" transform="translate(-134.41 -153.15)" style="fill: rgb(210, 210, 230);"></path>
   <path name="Rovira" data-id="999" id="path4687" class="cls-1" d="M188.16,213.85l.29-.42.3-.2.09-.37-.12-.08.12-.26.36,0v-.17l.69-.51.25.14.26-.25-.45-.25v-.22l-.23-.12-.14,0-.39.25-.45.06-.05.28-.28-.17-.22.14V212l-.48.28-.08.51h-.34l-.11-.14-.86.05,0,.14-.3-.11-.26.2-.36-.17,0-.57-.16,0v-.34l-.2-.09.36-.11,0-.17-.31-.09-.16-.31.08-.31-.08-.19-.26,0,0-.17-.22-.17.11-.28-.42-.34-.33.08-.31.4-.14-.17h-.44v-.11l-.22.05-.17.2-.25-.2-.36.11,0,.37-.17-.22-.22.14H181l-.39-.62.11-.17h-.3l-.78.59,0,.51-.7.39,0,.26-.44.42v.2l-.34.42-.39-.05-.11-.17h-.28l-.11.22-.3-.39-.34.05,0,.26-.5.36-1.19.4-.39.34-.42-.11-.2.11-.22.17h-.22l-1.9.84-1.25.17-.81.57-.5-.09-.25.12,0,.22-.34-.12-.47.26-.25.37-.39.14-.44.34-.45,0-.16.09,0,.16.1.57,1.14,1,.16-.22H168l.22.45.14-.14.81.22.3.93.78.26.17.22.7,0V220l1.05.29.34.62.17-.23.22.11-.11.29.11.11.16-.06.48.45-.2.06.39.42.2-.16,0-.26.36-.31h.36l.12-.2.16,0v.17l.7.23,0,.31.31,0,.25.26v.31l-.28.17-.13.45.5.14.11.28-.31,1,.06.34-.23.17-.14,1-.75.48-.08.31.86,0,.17-.2h.25l.06.31-.18.25v.29l.13.1.06-.12h.18l.24.28.25,0,.08-.12.34-.2.21,0,.18-.16-.12-.18.57-.42.14.12.61-.56.06-.44.38-.32.15-.35.18-.06,1.16-.94.2-.32.18,0,.19.1.46-.18.23-.28,0-.18.51-.18.18.08h.49l.2.38.47.3.18-.1.18.08.17-.11.18-.58-.28-.25-.14-.28V222l.23-.14.28-.74,0-.22.14-.14.08-1.27.72-1.13v-.2l.42-.28-.11-.23.25-.34.25,0,.11-.28-.22-.2v-.37l.25-.08.06.22.44.23,0-.59.39-.79-.25-.26.31-.9.22-.06v-.19l.27-.23Z" transform="translate(-134.41 -153.15)" style="fill: rgb(210, 210, 230);"></path>
   <path name="Valle de San Juan" data-id="1005" id="path4755" class="cls-1" d="M187.57,223.73l.32,0,.31.36.25-.19,0-.2.23-.4.22.06.7-.48v-.11l.72-.74h.14l1.81-1.81.14-.79.42-.59.44-1.19v-.28l.48-.7-.42-.23-.39.2-.25-.11,0-.32.34-.19-.06-.45h-.3l-.42-.26-.22.34-.14,0v.42l-.34.06-.16.11.22.11-.09.4-.22-.06,0-.22-.25-.34-.08.14-.22.06-.06-.26-.44-.53-.14.14-.37-.06-.25-.2v-.25l-.78-.88-.27,0-.27-.47-.29.25v.19l-.22.06-.31.9.25.26-.39.79,0,.59-.44-.23-.06-.22-.25.08v.37l.22.2-.11.28-.25,0-.25.34.11.23-.42.28v.2L185,219.5l-.08,1.27-.14.14,0,.22-.28.74-.23.14v.51l.14.28.28.25-.18.59,0,.05.19-.07.14,0,0,.18.85-.06.29.38.32.12.15-.34.52-.32h.45Z" transform="translate(-134.41 -153.15)" style="fill: rgb(210, 210, 230);"></path>
   <path name="Ortega" data-id="991" id="path4735" class="cls-1" d="M187.57,223.73l0-.13h-.45l-.52.32-.15.34-.32-.12-.29-.38-.85.06,0-.18-.14,0-.19.07,0-.05-.16.1-.18-.08-.18.1-.47-.3-.2-.38h-.49l-.18-.08-.51.18,0,.18-.23.28-.46.18-.19-.1-.18,0-.2.32-1.16.94-.18.06-.15.35-.38.32-.06.44-.61.56-.14-.12-.57.42.12.18-.18.16-.21,0-.34.2-.08.12-.25,0-.24-.28h-.18l-.06.12-.13-.1v-.28l-.63.23-.28,0-.2.39.17.4-.14.48-.69.59-.06.73.28.43-.36.48-.5.7.14.17.44-.31.22.17v1l-.69.68-.48,1.33.51.67-.81,1.47,0,.71.75.14,0,.25,1.73.29.64.62L176,239l.08.25h.56c.14,0,.27.37.27.37l.43.25.19.48.78.43-.17.28.48.25v.2l.72-.22.2-.43.36-.14v.48l.44.28.53-.34.11.2-.44.34.19,1.33-.22.56-.06.51.37-.06.28.26.11-.31.28.11.08-.2.33,0,.2-.17.14.17h.64l-.22.36.19.17.33-.18.09-.25.49-.15,0-.17.15-.09.07.12h.24l.07-.09-.23-.28L184,243l.22-.16.24,0h.32l.29.28.07.31.38.14.35-.05,0-.32.4-.63.08-.26.41,0,.12-.15-.19-.07-.15-.33.26-.12.06-.36.2-.15.13-.44-.16-.21v-.12l.22-.06.15-.35-.23-.13,0-.42.19-.25.15,0,.11-.22a.71.71,0,0,1,0-.17c0-.06.08-.4.08-.4h.27l.45-.36.18-.05.09.14.25-.05.14-.24-.18-.16.11-.56.21-.36.35-.07.09.15.34,0,.1-.27.5-.26.12,0,.72.13.61-.21-.09-.18v-.24h.1l.23-.28,0-.25.11-.28.22.06,0,.24.24,0v-.32l.28-.24.18.12.27-.1.18-.46-.18-.28.36-.4.16,0,.07.1.26,0-.67-.54v-.48l-.1-.1-.16.1-.37-.46v-.36l-.26-.28-.21,0-.69-.37-.3-.06-.9-.82-.06-.4,0-.26-.18-.12-.37.14L190,230l-.39.12-.24.22h-.22l-.39-.4-.61-.08v-.22l-.61-.56-.3-.14.08-.24-.18-.12-.23.06-.18-.28h-.27l-.3-.44-.06-.2.14-.1,0-.58-.26-.22-.15-.5.29-.12.32-.44,0-.34.29-.53h.18l.2-.32v-.2l.17-.3h.14l.13-.35Z" transform="translate(-134.41 -153.15)" style="fill: rgb(210, 210, 230);"></path>
   <path name="Alvarado" data-id="964" id="path4785" class="cls-1" d="M206.4,193.67l-.29.18V194l-.34,0v.1l.4.16-.32.14,0,.26-.19-.2-.1.28.08.14-.08.1-.26,0-.18.22.14.41-.43.24v.3l.16.14-.61.4-.1-.12-.08.24,0,.32L204,197l-.1.12,0,.26-.39.26-.18,0-.19.44-.38.12,0,.18.14.08v.38l-.34-.24-.27.34-.16-.14-.21.12v.18l-.34.32-.31.08-.14.2.21.12-.15.24-.36.16-.33.32-.08.58-.3.18-.37.49-.18-.16-.18.56-.74.28-.32-.06-.14.16,0,.28-.61.58h-.18l-.43.44-.21-.1-.3.12-.37,0-.22-.44.3-.17-.25-.22-.19-.43-.37-.14V202l-.3-.17v-.14l-.22-.25.08-.23.28-.17-.2-.2,0-.28.45-.25-.31-.23,0-.28.36-.14v-.2l.37-.37-.45-.31.33-.2-.52-.31-.42.2-.25-.28v-.4l.3-.31-.28-.11.06-.28-.22-.13.25-.52.61-.4h.31l0-.45-.2-.2.23-.62.33-.31h.22v-.17l-.25,0,.28-.36.28.08,0-.45.17-.11-.2-.09v-.22l.14-.09.25.23.31-.37h.36l0-.11-.95-.12-.45-.31,0-.25.31,0-.14-.56-.36-.09.44-.39.2.08.33-.11.17-.28.69-.34,0-.23v-.2l.12-.3.31-.11.18.19.26-.23.37,0,.18-.2.22.37.11-.06,0-.25.3-.34v.14l.63.06.49.32v.15h.2l.06.4,0,.3.16,0v.16l-.15,0,.06.32.21-.12.61.3-.23.16.25.42h.18l.22.32-.1.24.47,0,0,.1-.16.34h.16l.22.22h.23l.18.26.22,0,.14.08.29-.1.14-.24.22.2h.13l.16-.08.2,0-.16.22.28.18.45,0,.1.16H206l.16-.1.23.2Z" transform="translate(-134.41 -153.15)" style="fill: rgb(210, 210, 230);"></path>
   <path name="San Luis" data-id="1002" id="path4761" class="cls-1" d="M197.11,233.71l0-.25h-.4l0,.18h-.27l-.47-.48v-.5l-.16-.12.22-.32,0-.18-.61-.4-.08-.3.15-.25-.34-.33-.27-.13.22-.24-.18-.16-.23-.18.1-.44-.24-.22-.18,0-.14-.16.14-.12-.1-.14-.33,0,0-.2.24-.16-.24-.14,0-1,.18-.22L194,227l-.06-.5.16-.26h.33l-.06-.26-.23-.14.11-.12.18.16.41,0-.11-.34-.32-.15.1-.34.67-.58v-.16l.22,0,0-.22-.51-.52h-.1v.2l-.15.06v-.34l-.42.06-.23.12,0-.3.19-.12.08-.24-.13-.14.21-.12-.1-.08h-.17v-.14l.21-.12-.15-.06-.12-.18.29-.2-.21-.12-.18.16-.16-.08.93-.92.47-1.81.29-.58.28-.66-.14-.14.22-.58.35-.32,0-.44.24,0,0-.18-.2-.1v-.2l.2-.18-.2-.14.2-.32,0-.34.22-.2.16.12-.14.24.1.74.25.26,0,.38h.24l.14.24.27-.3.61-.14.1-.24.32-.08.07-.34.12-.05-.19-.28,0-.51-.17-.14-.33.28-.56-.48.17-.25-.17-.08-.17.11,0-.62-.42-.14-.23.16h-1.13l-.2-.17h-1.28l-.58-.31.11-.2-.2-.4-.39,0-.69-.42.14-.31-.7-.54v.2H191l-.09-.12.09-.16-.34-.29-.19.29-.25.11H190l0,.21.45.25-.26.25-.25-.14-.69.51v.17l-.36,0-.12.26.12.08-.09.37-.3.2-.27.4.27.47.27,0,.78.88v.25l.25.2.37.06.14-.14.44.53.06.26.22-.06.08-.14.25.34,0,.22.22.06.09-.4-.22-.11.16-.11.34-.06v-.42l.14,0,.22-.34.42.26h.3l.06.45-.34.2,0,.31.25.11.39-.2.42.23-.48.7v.29l-.44,1.18-.42.59-.14.79L190.48,222h-.14l-.72.74v.11l-.7.48-.22-.06-.23.4,0,.2-.25.19-.31-.36-.32,0-.13.35h-.14l-.18.3v.2l-.19.32h-.18l-.29.53,0,.34-.32.44-.3.12.16.5.26.22,0,.58-.14.1.06.2.29.44h.28l.18.28.23-.06.18.12-.08.24.3.14.61.56v.22l.61.08.39.4h.22l.24-.22L190,230l.22-.38.37-.14.18.12,0,.26.06.4.9.82.3.06.69.37.21,0,.26.28v.36l.37.46.16-.1.1.1v.48l.67.54h.14l.16-.2.65.44-.12.22.27.22.36-.3,0,0,.8-.08.32-.25Z" transform="translate(-134.41 -153.15)" style="fill: rgb(210, 210, 230);"></path>
   <path name="XXXX" data-id="" id="path9385" class="cls-1" d="M204.75,213.08l-.37.31.09.14-.19.16,0,.2.31.12.06.12-.18.08v.28l-.13.08-.12.2.25,0,0,.16-.19.26L204,215l-.24.18,0,.3-.28,0-.12.18h.14l.27.4-.23.2-.3-.24-.14.12v.24l.1.08v.16l-.19.26-.16-.1-.2.14.14.12-.55.54-.26-.08-.25.12-.14.26-.22-.22-.18.14-.21-.12v-.22l-.53-.1-.16.12,0,.14-.26.18-.22-.24.14-.28-.12-.48-.21-.12-.06-.64-.32-.08,0-.26H199l0-.18-.21,0,0,0-.19-.28,0-.51-.17-.14-.33.28-.56-.48.17-.25-.17-.08-.17.11,0-.62-.42-.14-.24.16-.23-.33.11-.54.22-.34.23-.37-.25-.08v-.23l.27-.17-.11-.25.17-.4.22.32.11-.17h.73l.17.33-.06.32.2,0v.17l-.48.43.2.42.25-.23.3-.05.09-.43.55-.22-.11-.31.31-.76,0-.17.31-.23-.06-.2L200,210l.25.12.11-.15,0-.33.19-.2.06-.52.39-.07.14.1.41-.08.41-.36v-.18l.32-.44h.1l.14.42,0,.3h-.2l-.2.4.08,0,.18-.28.19,0,.2.16.38-.36-.24-.14v-.44l.14-.32.1.12.43-.4-.24-.11.28-.44.31-.12v-.34l-.15-.14.21-.32v-.24l-.14,0,.16-.5.26-.26.27-.62-.25,0,.1-.26-.26-.42.16-.32.39-.36,0-.36-.19-.34h-.44l-.81.64-.17-.14.23-.32v-.24h.16l1.1-.62.08-.11.48-.16.27.06.34-.26.17-.2.42-.14.33.14.08.1.26-.34.19-.14,0-.16.32-.18,0,.32-.18.26-.2.1-.13.3.31,0,.12-.24.59-.46.26-.1v.28l-.14.06,0,.38.12.14,0,.18h.38l.16.31.09-.29.42-.18.1.2.23,0,.14-.12h.36l-.37,1,0,.82-.51.77-.51.14-.39-.09-.39.21-.07.91.3.31-.25.21-.12.44.14.17,0,.35-.3.14-.07.82.12.26-.14.37-.76.21-.16.35.3.54-.3.49v.85l-.28,0-.42.21-.48.66-.33.14-.13.28.09.14h.53v.28l-.16.14h-.16l-.56.52-.11.34Z" transform="translate(-134.41 -153.15)" disabled="disabled" style="pointer-events: none;"></path>
   <path name="XXXX" data-id="" id="path9478" class="cls-1" d="M206.4,193.66l.13,0,.24-.29.25.09,0,.27-.13.06.05.18.23.21.14-.16.06-.29.36.29-.15.22.21,0,.11-.16.12.22h.32l.23.27.19-.21.22-.06.38.37,1,.4.18.44-.25.19-.46-.28-.49.14-.2.35.09.47.51.12.09.37-.16.26-.1.49.4.35,0,.26-.25.38v.25l.46.19.19.82.43.37-.07.24-.36.19-.16.41h-.37l-.14.12-.23,0-.1-.2-.42.18-.09.29-.16-.31h-.38l0-.18-.12-.14,0-.38.14-.06v-.28l-.26.1-.59.46-.12.24-.31,0,.13-.3.2-.1.18-.26,0-.32-.32.18,0,.16-.19.14-.26.34-.08-.1-.33-.14-.42.14-.17.2-.34.26-.27-.06-.48.16-.08.12-1.1.61h-.16v.24l-.23.32.17.14.81-.64h.44l.19.34,0,.36-.39.36-.16.32.26.42-.1.26.25,0-.27.62-.26.26-.16.5.14,0v.24l-.21.32.15.14v.34l-.31.12-.28.44.24.12-.43.39-.1-.12-.14.32v.44l.24.14-.38.36-.2-.16-.19,0-.18.28-.08,0,.2-.4h.2l0-.3-.14-.42h-.1l-.32.44v.18l-.41.36-.41.08-.14-.1-.39.07-.53.35-.28,0-.3.42-.2-.25h-.42l-.11-.25.23-.23,0-.48-.16-.25.08-.57.33-.45-.61,0-.11-.17-1.28-.17-.34.17-.14-.17h-.5l-.36-.26H195l0-.25-.33-.37.08-.56-.41-.59,0-.15.28-.11.39.17.39-.59.53-.27.4,0,.3-.12.21.1.43-.44h.18l.61-.58,0-.28.14-.16.32.06.74-.28.18-.56.18.16.37-.49.3-.18.08-.58.33-.32.36-.16.15-.24-.21-.12.14-.2.31-.08.34-.32v-.18l.21-.12.16.14.27-.34.34.24v-.38l-.14-.08,0-.18.38-.12.19-.44.18,0,.39-.26,0-.26.1-.12.2.08,0-.32.08-.24.1.12.61-.4-.16-.14v-.3l.43-.24-.14-.41.18-.22.26,0,.08-.1-.08-.14.1-.28.19.2,0-.26.32-.14-.4-.16V194l.34,0v-.12l.29-.19Z" transform="translate(-134.41 -153.15)" disabled="disabled" style="pointer-events: none;"></path>
   <path name="XXXX" data-id="" id="path4731" class="cls-1" d="M200.58,233.38l-.18-.12-.46-.38.1-.1-.47-.14-.24.08-.31-.44,0-.48-.22.08-.13-.14-.08-.53-.14,0-.24-.46v-.44l-.12-.16-.25,0-.63-.44-.2-.06-.77.34-1.06.78.33.34-.15.25.08.3.61.4,0,.18-.22.32.16.12v.5l.47.48h.27l0-.18h.4l0,.26-.32.24-.8.08,0,0-.36.3-.27-.22.11-.22-.64-.44-.16.2h-.15l-.25,0-.08-.1-.15,0-.36.4.18.28-.18.46-.27.1-.18-.12-.28.24,0,.32-.23,0,0,.61.25.4-.14.2.17.28,0,1,.28,0,.58.37.2-.37h.28l-.09.23.23.25-.17.14-.17.6.42.25.19-.14.42.11,0,.34h.28l.17.34H196l.22.31.39,0,0,.06,0,.17h.31l.08.2.26,0,.25-.38,0-.32.1-.2.2-.1,0,.16.23,0v-.26l.26-.18v-.28l.14-.34h.31l.26-.24-.41-.42,0-.36.21-.18,0-.53h-.23l-.18-.26.35-.36.26,0,.71-.36,1,0,.52.26.67-.58-.06-.22.67-.6.35.28.1-.18.18,0,0-.22.25-.4.32.26,0-.26.19-.18-.19-.4h-.24l-.06-.18.49-.4-.15-.18h-.26l.08-.24-.14-.22-.31,0-.25-.05v.27l-.24.26-.17.14-.22-.18-.53.06-.36.24H201l-.43.24Z" transform="translate(-134.41 -153.15)" disabled="disabled" style="pointer-events: none;"></path>
   <path name="Icononzo" data-id="984" id="path9341" class="cls-1" d="M225.31,231.5l-.31.12-.12-.35-.1-.38-.2-.08,0-.2.2-.12.11-.66-.19-.1,0-.18.08-.06L225,229l-.06-.46-.25-.14-.3-.84-.37-.3.06-.32h-.18l-.16-.1.16-.3.24-.16-.3-.1,0-.38-.43-.16-.32-.36v-.18l-.15-.15-.38.08v.13l-.23-.06-.1-.23H222l-.2.16-.39-.28-.1-.32-.41-.26h-.3l-.45-.08.15-.16.16,0,.08-.08-.09-.48.17-.24.24,0v-.44l.61-.56h.26l.82-.74-.06-.16.14-.1h.24l1.1-2,.12-1-.26-.2,0-1.26-.35-.52.08-.74.21-.44v-.2l.44-.43.11.05.1.26.3,0,.14.07-.17.14.07.26H225l.14.19v.11l.33.19.64.17.1.56.32.33.11.28-.11.37.28.68-.07.33.41.05.14.16-.09.16,0,.26.49.12,0,.11H228l.27.31,0,.56-.16.09.13.22,0,.28-.19,0,0,.16.27.12,0,.21-.18.14.13.17v.35l.37.07.14.28-.32.12.11.82-.11.23-.32,0,0,.35-.23.19.07.31-.28.28h-.12l-.06.14-.44.28-.35.26,0,.3-.23,0-.44.61.1.12-.1.26-.3.21V227l-.25,0-.12.26.23-.07.07.14-.3.35-.07.14.33.12,0,.14-.16.09.07.26h.23l.14.14-.16.1-.1.6-.16.1v.28l-.27.26v.65l.13.05Z" transform="translate(-134.41 -153.15)" style="fill: rgb(210, 210, 230);"></path>
   <path name="Cunday" data-id="975" id="path4838" class="cls-1" d="M220.28,224.06l-.27-.28,0-.4-.2-.06.1-.22.24,0-.08-.18-.37-.06v-.38l.23-.14-.1-.12-.25.1-.14.2h-.26l-.84.88-.36.38-.82.5-.1.14-.34,0-.23.49-.57.14-.24-.16-.22.08,0,.37-.8.72-.87.2-.45.54,0,.44-1.05.82-.25.42h-.24l-.54.6v.32l-.53.5v.48l-.69.8h-.2l-.2.27.14.2-.25.24.19.18v.32l.26.16-.22.14,0,.5-.22,1-.37.7-.06.38-.35.48-.09.3.24.14.25.43-.25.28.39.25.11-.39.53.2.25.31.28-.2,0-.14.31-.48.22-.09.53-.59,0-.37.45,0,.11.19-.31.14.17.26.14,0,.19.67.36.15V237l-.38.31.16.2,0,.34.48.57h.3l.06.31.36.25.39,0,.48.79v.42l.44.31.46.9.66-.42.22.14.16-.26-.4-.3V240l.14-.58h.14l.06-.3-.45-.16-.12-.32.39-.42-.2-.14,0-.24-.29-.26,0-.3.37-.33.16.12.57-.18.1-.32.22.06.39-.22.16.16,0-.76.18-.24.13.18.3-.16-.12-.46.2-.46.14.12.11-.08-.27-.32.16-.3-.36-.34v-.64l-.24-.12-.23,0v-.22l.63-.5.18,0,.86-.58-.19-.2v-.22l.19-.13v-.24l.2.12.06.18h.27l.59-.38,0-.22.67-.26.3.3.29,0,.26.34,1,0,.26.27.22-.13H224l0,.15,1,.3-.12-.35-.1-.38-.2-.08,0-.2.2-.12.11-.66-.19-.1,0-.18.08-.06L225,229l-.06-.46-.25-.14-.3-.84-.37-.3.06-.32h-.18l-.16-.1.16-.3.24-.16-.3-.1,0-.38-.43-.16-.32-.36v-.18l-.15-.15-.38.08v.13l-.23-.06-.1-.23H222l-.2.16-.39-.28-.1-.32-.41-.26h-.3l-.45-.08.15-.16Z" transform="translate(-134.41 -153.15)" style="fill: rgb(210, 210, 230);"></path>
   <path name="Purificación" data-id="996" id="path9228" class="cls-1" d="M208.69,236l-.57,0-.26-.28.06-.18-.12-.12-.25,0-.22-.24-.45.1-.85-.46-.2-.74.2-.22,0-.5.2-.14v-.38l-.42-.22v-.56l-.35-.18.23-.36h.16l.22-.37-.1-.6.43-.42.16-.32-.22-.24v-.3l.16-.2-.07-.1-.4.34-.24.08-.1.32.22.22v.26l-.43.2-.63-.1-.12-.14-.75.52-.25.48-.42.07h-.12l-.19.07v.2l-.14.06-.06.36.08.18-.11.21.25.05.31,0,.14.22-.08.24h.26l.15.18-.49.4.06.18h.24l.19.4-.19.18,0,.26-.32-.26-.25.4,0,.22-.18,0-.1.18-.35-.28-.67.6.06.22-.67.58-.52-.26-1,0-.71.36-.26,0-.35.36.18.26h.23l0,.53-.21.18,0,.36.41.42-.26.24h-.31l-.14.34v.28l-.26.18v.26l-.23,0,0-.16-.2.1-.1.2,0,.32-.25.38-.26,0-.08-.2h-.31l.17.51.47.31.95,1.49,1.3,1.58.34.06v-.32l.31-.29v-.39l.19-.67.43-.33.18.1,0-.48.27-.2.5-.78v-.21l.33-.23.07-.12.51.08.27.31.28-.22.23-.2.11.36.33,0v-.28H204l0-.23h.3l.09-.17.3.11,1-.08.05-.28.42.11v.25l-.19.31h.47l.42.17v.34l-.2.23,0,.39-.28.48.14.2h.42l.39-.48h.25l.14-.48,0-.2.25-.34.47.06,0,.42-.17.23.2.28.22,0,.28.25.11.45.73.11.25-.22h.19l.45.53h.53l.05.29h1.09l.42-.12.33.37.5-.34.17,0,.14.2.39-.28.14.17.44-.26,0-.19.47-.31v-.83l-.46-.9-.44-.31v-.42L214,239l-.39,0-.36-.25-.06-.31h-.3l-.48-.57,0-.34-.16-.2.38-.31v-.19l-.36-.14-.19-.68-.14,0-.17-.25.31-.15-.11-.19-.45,0,0,.37-.53.59-.22.09-.31.48,0,.14-.28.2L210,237l-.53-.2-.11.4-.39-.26.25-.28-.25-.42-.25-.15Z" transform="translate(-134.41 -153.15)" style="fill: rgb(210, 210, 230);"></path>
   <path name="XXXX" data-id="" id="path4811" class="cls-1" d="M202.9,232.14l-.11.21v.27l-.24.26-.17.14-.22-.18-.53.06-.36.24H201l-.42.23-.19-.11-.46-.38.1-.1-.47-.14-.24.08-.31-.44,0-.48-.22.08-.13-.14-.08-.53-.14,0-.24-.46v-.44l-.12-.16-.25,0-.63-.44-.2-.06-.77.34-1.06.78-.28-.12.22-.24-.18-.16-.23-.18.1-.44-.24-.22-.18,0-.14-.16.14-.12-.1-.14-.33,0,0-.2.24-.16-.24-.14,0-1,.18-.22L194,227l-.06-.5.16-.26h.33l-.06-.26-.23-.14.11-.12.18.16.41,0-.11-.34-.32-.16.1-.33.67-.58v-.16l.22,0,0-.22-.51-.52h-.1v.2l-.15.06v-.34l-.42.06-.23.12,0-.3.19-.12.08-.24-.13-.14.21-.12-.1-.08h-.17v-.14l.21-.12-.15-.06-.12-.18.29-.2-.21-.12-.18.16-.16-.08.93-.92.47-1.81.29-.58.28-.66-.14-.14.22-.58.35-.32,0-.44.24,0,0-.18-.2-.1v-.2l.2-.18-.2-.14.2-.32,0-.34.22-.2.16.12-.14.24.1.74.25.26,0,.38h.24l.14.24.27-.3.61-.14.4.1.09.22-.07.2,0,.4.37.4.39.8,0,.38.42.44v.33l.49.56.28,0,.68.76,0,.34.17.28h.26l.14.12-.06.38.29.24-.11.16.31.18,0,.28.26.26.63,0,.06.2.72,0,.34.38,0,.12.16.22.47,0,.1.2.27,0,.18-.1.06.14.47.16.22-.14.14,0,0,.28h.25l.16.18h.28l.07-.12h.22l.08-.18.26,0,0,.16.59,0,.29.26-.25.53,0,.4-.36.52v.2l.4.58-.08.34-.63.7-.24-.16-.39.08-.38.56,0,.18-.12.3-.39.34-.24.08-.1.32.22.22v.26l-.43.2-.63-.1-.12-.14-.75.52-.25.48-.42.07h-.12l-.19.07v.2l-.14.06-.06.36.08.18Z" transform="translate(-134.41 -153.15)" disabled="disabled" style="pointer-events: none;"></path>
   <path name="Suárez" data-id="1004" id="path4717" class="cls-1" d="M213.07,215.84l0-.58-.14-.21,0-.35-.28,0-.23.3-.35,0-.11.19-.1-.23.14-.1.05-.23-.23,0-.1.11-.13-.16.32-.17-.19-.14-.27,0-.14.09-.24-.13,0,.34-.18.56-.41.16-.22.3.1.32.12.44-.22.1.1.42,0,.3-.25.14-.18.22.14.08-.16.1.16.36-.18.32-.37.38h-.24l-.16.22-.23.3.21.43.44.3.29.76-.14.66-.33.46,0,.86.31.28-.19.52-.73.46-.2.72-.25.54,0,.39-.36.52v.2l.4.58-.08.34-.63.7-.24-.16-.39.08-.38.56,0,.18-.11.29.07.11-.16.2v.3l.22.24-.16.32-.43.42.1.6-.22.37h-.16l-.23.36.35.18v.56l.42.22v.38l-.2.14,0,.5-.2.22.2.74.85.46.45-.1.22.24.25,0,.12.12-.06.18.26.28.58,0,.09-.3.35-.48.06-.38.37-.7.22-1,0-.5.22-.14-.26-.16v-.32l-.19-.18.25-.24-.14-.2.2-.27h.2l.69-.8v-.48l.53-.5,0-.32-.79-.16v-.51l-.25.14-.05-.79.25-.11-.39-.79.25-.31-.14-.26.3-.31v-.9l-.33-.11.36-.32-.19-.42v-.56l.25-.37.05-.76L211,222v-.62l.05-.25-.39-1.1.09-.37.72-1.1.11-1,.89-1.41.28-.14.37-.16Z" transform="translate(-134.41 -153.15)" style="fill: rgb(210, 210, 230);"></path>
   <path name="XXXX" data-id="" id="path4864" class="cls-1" d="M198.83,215.52l0,0-.12.05-.08.34-.31.09-.1.22.4.11.09.22-.07.2,0,.4.37.4.39.8,0,.38.42.44v.33l.49.56.28,0,.68.76,0,.34.17.28h.26l.14.12-.06.38.29.24-.11.16.31.18,0,.28.26.26.63,0,.06.2.72,0,.34.38,0,.12.16.22.47,0,.1.2.27,0,.18-.1.06.14.47.16.22-.14.14,0,0,.28h.25l.16.18h.28l.07-.12h.22l.08-.18.26,0,0,.16.59,0,.29.26.2-.72.73-.46.19-.52-.31-.28,0-.86.33-.46.14-.66-.29-.76-.44-.3-.21-.44.23-.29.16-.22,0-.05-.41.17-.2-.3h-.33l-.64.38-.45,0-.21-.44-.28-.08v.22l-.2.24-.33-.3.14-.48.19-.2,0-.46.28-.36v-.48l-.53-.1-.18.12-.32-.32,0-.38-.43-.22-.45.18-.12.54-.35,0,0-.24,0-.4-.4,0,0-.34-.17-.1-.28,0-.12.18h.14l.27.4-.23.2-.3-.24-.14.12v.24l.1.08v.16l-.19.26-.16-.1-.2.14.14.12-.55.54-.26-.08-.25.12-.14.26-.22-.22-.18.14-.21-.12v-.22l-.53-.1-.16.12,0,.14-.26.18-.22-.24.14-.28-.12-.48-.21-.12-.06-.64-.32-.08,0-.26H199l0-.18-.21,0Z" transform="translate(-134.41 -153.15)" disabled="disabled" style="pointer-events: none;"></path>
   <path name="XXXX" data-id="" id="path4858" class="cls-1" d="M211,214.28l.27-.37.12-.33-.21-.33-.37-.07,0-.14h-.72l-.25.21-.46-.19-.07-.35-.74.54-.37.54-.35.07-.23-.12-.6.42-.51.07-.11,0-.37.23-.51,0-.49-.72,0-.28-.32-.29-.37.32.09.13-.19.16,0,.2.31.12.06.12-.18.08v.28l-.13.08-.12.2.25,0,0,.16-.19.26L204,215l-.24.18,0,.3.17.1,0,.34.4,0,0,.4,0,.24.35,0,.12-.54.45-.18.43.22,0,.38.32.32.18-.12.53.1v.48l-.28.36,0,.46-.19.2-.14.48.33.3.2-.24v-.22l.28.08.21.44.46,0,.63-.38h.33l.2.3.41-.17,0,.05h.24l.37-.38.18-.32-.16-.36.16-.1-.14-.08.18-.22.25-.14,0-.3-.1-.42.22-.1-.12-.44-.1-.32.22-.3.41-.16.18-.56,0-.35Z" transform="translate(-134.41 -153.15)" disabled="disabled" style="pointer-events: none;"></path>
   <path name="Casabianca" data-id="971" id="path6367" class="cls-1" d="M180.43,177.44l.79-.52.08-.34.94-.46,0-.2.16-.28.2.14.7-.66-.06-.3.2-.08.26.1.25-.26,0-.3.61-.64v-.24l.36,0,.08-.06.12,0,.11.22h.46l.53-.22,0-.22.16-.22.11.08.36,0,.2-.24,1.28-.72.17.06.1.16.61-.34.45-.75.6-.78.09-.4-.19-.28.25-.18.1-.26-.18-.28.69-.3,0,.2.51.14.06-.18-.09-.34L192,168l.49,0,.43.64.54.36v.18l-.26.14.22.6.65-.28.49.06.34.34,0-.3.67-.76.22.16.24,0-.1-.46-.1-.78-.24-.1-.21.06-.67-.38.31-.24.43-.84.24,0,.45-.62-.23-.06.23-.31,0-.34-.11-.29-.28-.05-.08.3-.31-.18h-.2l-.1.32-.39-.5-.63.06-.06.2-.44.14-.05-.2h-.16l-.14.18-.34,0-.17-.14-.3.28.12.2-.43.14-.08.57-.38.26,0,.3-.32-.19-.25,0-.15.22.05.26h-.39l-.16-.2-.23.26,0,.5-.2.36.34.22-.48.26-.31.06-.08.3h-.3l-.25.16-.24-.06,0,.28,0,.18a1.57,1.57,0,0,0-.16.36,4.17,4.17,0,0,1-.74.52l-.16,0,0,.42h-.36l-.29.34-.06.42-.53.33-.12.34-.34.08-.05.24-.85-.18-.12-.18-.16.12.16.12h-.28l-.13-.1-.28.12-.08-.18-.23.12-.1.2-.48.24-.11-.08-.24.08-.06.18-.25,0-.46.3,0,.14h-.31l-.2.16-.16-.14-.47.1-.31.38-.52.16-.21-.12-.12.14.06.32-.14,0-.26.28.06.18-.25.14-.26,0-.16.24.12.12-.29.16.06.26,0,.08,0,.28-.16.11.19.13v.44l.47,1.24.46,0,.58.4Z" transform="translate(-134.41 -153.15)" style="fill: rgb(210, 210, 230);"></path>
   <path name="Murillo" data-id="989" id="path6372" class="cls-1" d="M180.07,179.71l-.87.69-.45.61-.4-.06-.09.84-.39.56-.71.27-.17.4,0,.19-.31.21h.25l.74.3.53.73v.4l.28.25.25,0v.2l.44.14h.39l.42.37.22.28.37,0,.16-.22.67-.14h.75l.23.16.64-.67.19.34h.2l.92-.57h.3l.14.28h.2l.36-.28.28,0,.19.14.39-.33.5.56.64.11.17.17v.26l.42.25h.47l.09.4.58.53.31-.31.22.23H190l.08.34.37,0,.44-.57h.5v.2l.17.09.28-.15.19.17,0,.4.78-.62.25,0-.11-.25.16-.09h.28v-.11h.89l.17.14.2-.21-.49-.27.06-.18-.34-.16-.16-.26h-.37l-.16.26-.41,0-.08-.06-.49,0-.06-.14.27-.18,0-.24.14-.1,0-.2-.28,0,.06-.32-.25-.2.16-.34-.24-.16.12-.35.19-.26.06-1-.31-.36.18-.64.31-.06,0-.34.24-.24.06-.38h-.22l0-.54-.28,0,0-.46h-.15l-.18.16-.32-.06.16-.28.83-.58v-.14h-.22l0-.28h-.25l-.06.12h-.38l-.29-.06-.29.08-.1-.06,0-.42-.07-.15-.6-.17-.68.07-.44-.09-.41-.33-.73-.26-.21.09-.17.19-.27,0h-.27l-.41.08h-.37l-.11,0-.23.15h-.29l-.5.12-.41.38-.4.38-.16.36h-.21l-.29-.19-.48.1-.14.13-.23,0-.38,0-.72.06-.27,0h0l-.23.14-1.14-.08Z" transform="translate(-134.41 -153.15)" style="fill: rgb(210, 210, 230);"></path>
   <path name="Santa Isabel" data-id="1003" id="path6390" class="cls-1" d="M176.65,184.15l.17.61-.1.66-.48.41-.15.42,0,.42.44.52,0,.47-.2.21-.27.21,0,.31.24.15v.12h.22l1.06,0,.31-.14.41,0,0,.23.73.39.16-.17,1-.14.05.09h.48l.14-.2.53.08.3-.22.34.2.16-.17h.23l.11-.2.19-.09.09.12.5,0,.41.6.26-.23.61-.05v-.2l.22-.14.06.25.5,0,.3-.26.28-.14v.14l.28.09v-.17l.22.14.09-.25h.19l.17.34.22-.15h.34v.15h.33l.11.14-.08.14.28.25h.19l.31.26-.08.19.13,0,.14-.14.28.06-.08.36.25.09,0,.54h.16v-.2l.25,0,.06.11-.11.09.47.51.2-.12.28.14,0,.2.5.2h.44v-.17l.45-.14.25.28h.42l.28.31.55.11.42-.31v-.25l.22-.06,0-.25-.19-.23.39-.53.3,0,.25-.32h.7l.25-.28h.42l.17-.28-.62,0-.14.2h-.16l-.25-.34-.39,0-.11-.28,0-.48.56-.54v-.28l.45-.85h.41l.12-.28.27-.14.31-.71-.2-.08v-.2l.2-.17-.11-.45.36-1,.61-.19-.08-.29.17-.31.1-.28-.24,0-.2.4-.89.73h-.17l-.11.23-.22,0-.31.39.31.17v.14l-.25.14.22.2-.16.37h-.26l.2.22-.25.2h-.31l-.11.26-.36,0-.34.2-.19.2-.17-.14h-.89v.11H193l-.16.09.11.25-.25,0-.78.62,0-.4-.19-.16-.28.14-.17-.09v-.2h-.5l-.44.57-.37,0L190,187h-.39l-.22-.23-.31.31-.58-.53-.09-.4h-.47l-.42-.25v-.26l-.17-.17-.64-.11-.5-.56-.39.33-.19-.14-.28,0-.36.28h-.2l-.14-.28h-.3l-.92.57h-.2l-.19-.34-.64.68-.23-.17h-.75l-.67.14-.16.22-.37,0-.22-.28-.42-.37h-.39l-.44-.14v-.2l-.25,0-.28-.25v-.4l-.53-.73-.73-.31h-.26Z" transform="translate(-134.41 -153.15)" style="fill: rgb(210, 210, 230);"></path>
   <path name="Anzoátegui" data-id="966" id="path6395" class="cls-1" d="M176.25,189.35l.44.22.11.25,0,.34.75.65.28,0,.39.56-.2.23.14.11.31-.11.19,0,.09.25.39-.31,1.11.23v.42l.5.37.31.48,0,.45.14.25.22-.11v.31l.34-.39.25.19v.46l.5.28,0,.25-.25.37,0,.76-.44.6.3.36.2-.08.39,0,.64.81.58-.05v-.34l.48-.09.66.37.45,0,.61.57v.28l-.22.23.39.45h.56l.14.22.64-.31.11-.31h.3v-.17l.64.12.37.19.25,0,.19-.25.09.17.3.11.17-.37h.25l.22.2.06-.14.61.08.22-.28-.16-.17.22-.17.14.12.47-.46,0-.33h.81l.14-.09.16.23.87,0,.08-.28.31-.12.25-.53.61-.4h.31l0-.45-.2-.2.23-.62.33-.31h.22v-.17l-.25,0,.28-.36.28.08,0-.45.17-.11-.2-.09v-.22l.14-.09.25.23.31-.37h.36l0-.11-.95-.12-.45-.31,0-.25.31,0-.14-.56-.36-.09.44-.39.2.08.33-.11.17-.29.69-.33,0-.23v-.2l-.28-.31v-.25l-.14,0-.22.23v-.26l-.2.34-.14-.54-.11,0-.09.28-.16.25h-.42l-.25.28h-.7l-.25.31-.3,0-.39.53.19.23,0,.25-.22.06v.25l-.42.31-.55-.11-.28-.31h-.42l-.25-.28-.45.14v.17h-.44l-.5-.2,0-.2-.28-.14-.2.12-.47-.51.11-.09-.06-.11-.25,0v.2h-.16l0-.54-.25-.09.08-.36-.28-.06-.14.14-.14,0,.09-.19-.31-.26h-.19l-.28-.25.08-.14-.11-.14h-.33v-.15h-.34l-.22.15-.17-.34h-.19l-.09.25-.22-.14v.17l-.28-.09v-.14l-.28.14-.3.26-.5,0-.06-.25-.22.14v.19l-.61.06-.26.23-.41-.6-.5,0-.09-.12-.19.09-.11.2h-.23l-.16.16-.34-.19-.3.22-.53-.08-.14.2h-.48l-.05-.09-1,.14-.16.17-.73-.39,0-.23-.41,0-.31.14-1.06,0h-.22v.15l.12.24Z" transform="translate(-134.41 -153.15)" style="fill: rgb(210, 210, 230);"></path>
   <path name="Ibagué" data-id="962" id="path6400" class="cls-1" d="M170.64,196.05l.28.15,0,.41-.15.17-.18.82.09.16.49.34.06.2.3.12,0,.58.92.5.16.22.18-.3.51-.14,1.16-.06.69.4,0,.72.1.12,0,.3-.18,0,.12,1.07.4.18.07.66.46.22.15.6.54.36.31,0,.22.32v.68l.23.2-.21.34h-.08l-.26.2,0,.34.28-.22h.2l-.06.26.21.88-.23.65-.53,0-.63.78-1.66.48,0-.18-.81.2-.45.72-.21-.18-.91.32-.24,0-.59.76-.51.08-.28.18v.46l-.15.4-.4-.06-.45.68,0,.62-.43.3v.45l-.24.14,0,.24.12.32-.47.34-.2.58.35.12,0-.22.25-.12.5.09.81-.57,1.25-.17,1.9-.84h.22l.22-.17.2-.11.42.11.39-.34,1.19-.4.5-.36,0-.26.34-.05.3.39.11-.22h.28l.11.17.39.05.34-.42v-.2l.44-.42,0-.26.7-.39,0-.51.78-.59h.3l-.11.17.39.62h.42l.22-.14.17.22,0-.37.36-.11.25.2.17-.2.22-.05v.11h.44l.14.17.31-.4.33-.08.42.34-.11.28.22.17,0,.17.26,0,.08.19-.08.31.16.31.31.09,0,.17-.36.11.2.09v.34l.16,0,0,.57.36.17.26-.2.3.11,0-.14.86-.05.11.14h.34l.08-.51.48-.28v-.23l.22-.14.28.17.05-.28.45-.06.39-.25.14,0,.23.12.27,0,.25-.11.19-.29.34.29-.09.16.09.12h.86v-.2l.7.54-.14.31.69.42.39,0,.2.4-.11.2.58.31h1.28l.2.17h1.12l-.23-.33.11-.54.22-.34.23-.37-.25-.08v-.23l.27-.17-.11-.25.17-.4.22.32.11-.17h.73l.17.33-.06.32.2,0v.17l-.48.43.2.42.25-.23.3-.05.09-.43.55-.22-.11-.31.31-.76,0-.17.31-.23-.06-.2L200,210l.25.12.11-.15,0-.33.19-.2.06-.51h0l-.53.34-.28,0-.3.42-.2-.25h-.42l-.11-.25.23-.23,0-.48-.16-.25.08-.57.33-.45-.61,0-.11-.17-1.28-.17-.34.17-.14-.17h-.5l-.36-.26H195l0-.25-.33-.37.08-.56-.41-.59,0-.15.28-.11.39.17.39-.59.55-.28-.21-.43.3-.17-.25-.22-.19-.43-.37-.14V202l-.3-.17v-.14l-.22-.25.08-.23.28-.17-.2-.2,0-.28.45-.25-.31-.23,0-.28.36-.14v-.2l.37-.37-.45-.31.33-.2-.52-.31-.42.2-.25-.28v-.4l.3-.31-.28-.11.06-.28-.22-.12-.31.12-.08.28-.87,0-.16-.23-.14.09H192l0,.34-.47.45-.14-.12-.22.17.16.17-.22.29-.61-.09-.06.14-.22-.2H190l-.17.37-.3-.11-.09-.17-.19.25-.25,0-.37-.19-.64-.12v.17h-.3l-.11.31-.64.31-.14-.22h-.56l-.39-.45.22-.23V198l-.61-.57-.45,0-.66-.36-.48.08v.34l-.58.06-.64-.82-.39,0-.2.08-.3-.36.44-.6,0-.76.25-.37,0-.25-.5-.28v-.46l-.25-.19-.34.39v-.31l-.22.12-.14-.26,0-.45-.31-.48-.5-.37v-.42l-1.11-.23-.39.31-.09-.25-.19,0-.31.11-.14-.11.2-.23-.39-.56-.28,0-.75-.65,0-.34-.11-.25-.44-.22-.58.24-.35.43-.3.57-.58.42-.28.89.45,1.35-.12.62-.3.66-.42,0-.07.3-.45.14h-.78l-.23.11L172,195l-.13.07-.41.09-.07.5L171,196Z" transform="translate(-134.41 -153.15)" style="fill: rgb(210, 210, 230);"></path>
   <path name="Cajamarca" data-id="969" id="path6405" class="cls-1" d="M164.22,213.85v.39l.58-.11v.37l.64.22-.3.54.25.31-.17.76.5.37.49-.25,0-.17.16-.09.45,0,.44-.34.39-.14.25-.37.44-.24.22-.6.47-.34-.12-.32,0-.24.24-.14V213l.43-.3,0-.62.45-.68.4.06.15-.4v-.46l.28-.18.51-.08.59-.76.24,0,.91-.32.21.18.45-.72.81-.2,0,.18,1.66-.48.63-.78.53,0,.23-.65-.21-.88.06-.26h-.2l-.28.22,0-.34.26-.2h.08l.21-.34-.23-.2v-.68l-.22-.32-.31,0-.54-.36-.15-.6-.46-.22-.07-.66-.4-.18L175,200.8l.18,0,0-.3-.1-.12,0-.72-.69-.4-1.16.06-.51.14-.18.3-.16-.22-.92-.5,0-.58-.3-.12-.06-.2-.49-.34-.09-.16.18-.82.15-.17,0-.41-.27-.15-.29.6-.65.6-.94.3-.25.39,0,.23-.15.24.1.44,0,.45-.28.15.05.34-.15.13v.21l.11.37.17.31-.22.25-.45,0-.56.5L167,202l-.21.22-.55.29h-.22l-.41.87.11.24-.42,0-.13.1.13.55-.12.17v.39l-.31.19,0,.35.15.21v.35l-.11.1.19.28-.24.72,0,.32-.38.49-.14.24.09.25,0,.49-.23.19h0l-.12.19,0,.21.16.23-.16.61-.23.23.22.55-.08.28.13.2-.2.23.07.19,0,.2-.11.06-.25.4,0,.58.41.3,0,.21Z" transform="translate(-134.41 -153.15)" style="fill: rgb(210, 210, 230);"></path>
   <path name="Roncesvalles" data-id="998" id="path6410" class="cls-1" d="M164,213.82l-.26.06-.09.18h-.73l-.21.28,0,.42-.54.34,0,.18.11.28-.09.33-.28.39-.4.19-.62,0-.32.38.05.31.31.12v.58l-.27.31-.47.12v.27l-.21.46-.39.2-.31.55-.35.18-.17.31.15.34-.23.33v.31l.08.48-.12.32-.43,0-.2.36-.16-.2-.39.17-.22.32,0,.47H157l-.31,0-.4-.24-.2.2.24.35,0,.32-.52,0-.31.26-.17.53.12.27-.24.39.26.36,0,.41.48.31-.05.31-.37.19v.37l-.11.12.55.39.13.5.51.09v.39l-.39.06.14.73.5.34.55,1.19.76.08.47.34.31.54.61,0,.36-.2.42.17v.2h.47l.36.5-.05.71-.23.45h.62l.14-.22.3.25.39-.14v-.28l.09-.37-.25-.28.25-.71.55-.51h.34l.14.2,1.67-1.07v-.31l.44,0,.62.42.66.09.81-1.05-.19-.51.33-.14.42.09.11-.26.36,0,.5.28.39-.26h.7l.47-.22.28,0,.42-.26-.53-1.52.25-.37.34.06.19.34.42-.82h.55l.39.25.31,0,0-.25-.31-.06-.7-.7,0-1.13.67-.71v-.23l.64-.11v-.28l.61-.14.31.08.61-.19.08.33.53-.22.14-.45.28-.17v-.31l-.25-.26-.31,0,0-.31-.7-.23v-.17l-.16,0-.12.2h-.36l-.36.31,0,.26-.2.16-.39-.42.2-.06-.48-.45-.16.06-.11-.11.11-.29-.23-.11-.16.23-.34-.62L171.1,220v-.31l-.7,0-.17-.22-.78-.26-.3-.93-.81-.22-.14.14-.22-.45h-.37l-.16.22-1.14-1-.1-.56-.49.25-.5-.37.17-.76-.25-.31.3-.54-.64-.22v-.37l-.58.11v-.39l-.13-.19Z" transform="translate(-134.41 -153.15)" style="fill: rgb(210, 210, 230);"></path>
   <path name="Chaparral" data-id="972" id="path6416" class="cls-1" d="M145.86,244.6l.17.45.5-.54.45.4.42-.25,0-.26.28.06.33-.31.2.17.39,0,.08-.28.59-.51.25.11.19-.62.48-.11.19.25.34-.28.19.28,0,.4.28.19,0,.4-.05.2.22.14v.39l-.19.23.11.11-.17.93.78.77.25,0,.33.53.17,0,.25.54,0,.31.64.39.28-.17,0-.14h.33l.39-.22.67.14.22.53v.82l.25.28,0,.46.25.17.36-.29.39.37.36.09.47-.37.53,0,.45-.29h.19l.25.23h.12l.5.23.69.93.28.11.17.45.39-.36.19.05.11.26.62.19.33.74.06.65.14.08.16.45-.11.46.31-.17.39,0,.14.43.25-.06.19.2.59-.28v-.32l.22-.22.31.22-.14.54.39.23-.06.28-.22.2.25.9-.14,1,.28.39-.22.31-.19.09-.17.45.36.26-.17.36.17.28-.14.29.11.36-.11.23.06.4.38-.22.47.16H166l.27.1.47-.11.32-.11.33,0,.35-.22.33-.07.27.06.26-.11.09-.17.38,0,.51-.08.48-.22.09-.14.69-.13.29.05.23.21.26.12,0,.19.3.13.08-.2-.12-.39.26-.25.09,0,.44-.38.13-.32.35.06.26-.47.15-.55.27-.53.22-.19h.11l.15-.29-.19-.26-.13-.44v-.42h.22l.27-.41v-.28l.2-.56h.13l.32-.21.07-.38.32-.42.1.11.6-.19.15-.16.33-.15.21-.31.2-.07.05-.19-.13-.09,0-.28.12-.1,0-.39.19-.18v-.33l.19-.13.05.1h.22l.08-.22-.26-.1-.08-.27.29-.16.06-.33-.13-.09,0-.17.3-.09,0,.08h.27l.11.17.08-.13.63-.09h.08v-.13l.13-.11.07.18.23,0,.15-.19h.43l.08-.25.25-.14,0-.22v-.3l.16-.67.15,0,.51-.4.08-.26.28-.48.07-.36.12-.66.33-.64.44-.7-.19-.17.22-.36h-.64l-.14-.17-.2.17-.33,0-.09.2-.27-.11-.12.31-.27-.25-.37.05.06-.51.22-.56-.19-1.33.44-.34-.11-.19-.53.33-.44-.28v-.48l-.36.14-.2.43-.72.22v-.2l-.48-.25.17-.28-.78-.43-.19-.48-.43-.25s-.14-.37-.27-.37h-.56L176,239l.12-.28-.64-.62-1.73-.29,0-.25-.74-.14,0,.34-.17.14-.06.76-.13.42-.09.14-.3.68h-.37l-.22-.59h-.22l-.53-.54-.28.26-.36-.14-.78.25-.2.23-.5-.63-.56.12-.19-.37-.89-.2-.17-.39-.17.28-.44-.17-.42.17v-.28l-.39-.4-.25-.17-.14-.36.17-.26-.28-.56-.56-.26-.58.09,0-.28-.25-.29.16-.28-.19-.59,0-.37-.56.06-.36-.54-.17.28-.31-.11-.39.14-.3-.25-.14.22h-.62l.23-.45.05-.7-.36-.51h-.47v-.2l-.42-.17-.36.2-.61,0-.31-.54-.47-.34-.76-.08-.55-1.19-.5-.34-.14-.73.39-.06v-.39l-.51-.09-.13-.5-.55-.39-.37.4-.42.57-.45.21,0,.39-.16.52-.39.09-.45-.35-.28.26V230l-.27.26.2.38,0,.66-.15.66-.5.45-.06.48-.17.3,0,.39-.09.71-.73.68,0,.35-.39,0-.27-.41-.31.19-.26.69-.86.78-.17.31,0,.87.45.28,0,.37-.53.23-.05.48-.57,1-.56.39-.57.09.11.44-.12.36h-.28l-.16.2V242l-.08.64-.39.4,0,.32-.59,1.26Z" transform="translate(-134.41 -153.15)" style="fill: rgb(210, 210, 230);"></path>
   <path name="Rioblanco" data-id="997" id="path6423" class="cls-1" d="M145.41,244.67l-.36.36-.83.4H144l-.1.27.16.23-.22.33h-.39l-.24.87.08.21-.24.21.38.38.05.47.31.09-.09.29h-.21l-.23.54-.17,0-.26-.12-.24.15-.16-.14-.21.07-.11.24.11.56-.39.4h-.28l-.31.4.3.52v.67l-.31.22.07.46,0,.41.55.48-.1.48-.28.19.05.43.31.42-.41.62,0,.44-.48.56-.11.82-.86.75-.05.37-.6.66.34.7-.29.48-.11.79-.46.12-.18.64-.12.85.22.3,0,.41-.36.64.13.53.49.09.21.21-.09.35-.38.29-.4.19-.19.29,0,.47-.62.28-.13.29.21.25.26.26,0,.67.15.38.42.48,0,.51.47.36-.06.26-.26.18-.17.42-.25.31v.2l.2.17,0,.84.22.41.07.38-.36.33-.47.42-.2.43.35.33-.2.35-.09.58-.46.37-.31.3-.23-.32-.38-.17-.44,0-.19.26.5.19.16.31,0,.28.13.28.38.12.7.43.44.07.63-.19.21-.16.61.16.27.31h.14l.08-.13,1-.48.75-.22.35-.18V277l.28,0,.16.11.89,0,.49.11.1.16.12,0,.14-.27h.31l1.13-.53.4.05.32-.3-.06-.2.47-.33.28,0,.27-.53.35-.36.17.21.16,0,.15-.22h.24l0-.23-.17-.05v-.1l.12-.11.27-.35.09.32.19,0,.65-.8.77-.34.23-.37.26-.17,0-.12.62-.64.32-.06,0-.19-.11-.31.47-.38.61-.08.41-.26.09-.32.27-.28,0-.16.19-.31.65,0,.31.16.48-.56h.26l0,.19.28.06L156,269l.08-.21h.17l.21-.22v-.75l.18,0,.07-.1-.11-.25.27-.27v-.35l.1-.2.06-.25-.1-.19.37-.24.19-.31v-.45l.38-.42-.09-.28.28-.13.14-.58,0-.28.25-.29.19,0,.07-.11,0-.24.2-.35,0-.27.13-.25.29-.14.33-.33-.12-.27h-.17l.15-.21h.25l.4-.24.19.25,0-.15h.33l.75.29.19.31.23-.08,0-.19.15-.06.5.27.67,0,.16.14.21-.14.17.06,0,.29h.35l.21-.21.23-.06.23.27h.32l.14-.17-.12-.18-.14-.2V261l-.06-.39.11-.23-.11-.36.14-.29-.17-.28.17-.36-.36-.26.16-.45.2-.09.22-.31-.28-.39.14-1-.25-.9.22-.2.06-.28-.39-.23.14-.54-.31-.22-.22.22v.31l-.59.29-.19-.2-.25.06-.14-.43-.39,0-.31.17.11-.46-.16-.45-.14-.08-.06-.65-.33-.74-.62-.19-.11-.26-.19-.05-.39.36-.17-.45-.28-.11-.69-.93-.5-.23h-.12l-.25-.23h-.19l-.45.29-.53,0-.47.37-.36-.09-.39-.37-.36.29-.25-.17,0-.46-.25-.28v-.82l-.22-.53-.67-.14-.39.22h-.33l0,.14-.28.17-.64-.39,0-.31-.25-.54-.17,0-.33-.54-.25,0-.78-.77.17-.93-.12-.11.2-.23v-.39l-.22-.14.05-.2,0-.4-.28-.19,0-.4-.19-.28-.34.28-.19-.25-.48.11-.19.62-.25-.11-.59.51-.08.28-.39,0-.2-.17-.33.31-.28-.06,0,.26-.42.25-.45-.4-.5.54-.17-.45-.41,0Z" transform="translate(-134.41 -153.15)" style="fill: rgb(210, 210, 230);"></path>
   <path name="Planadas" data-id="994" id="path6428" class="cls-1" d="M135.63,276.94l-.19.22,0,.44.59.24V278l.17.22,0,.19-.39.23-.06.29.45.06.19.24.07.23.21.21,0,.16h-.08l-.17.31.19.15v.47l-.31.23h-.19l-.17.2-.83.25h-.42l-.07.1.09.1,0,.4.21.33.31-.13.35,0,.4.31.25.08,0,.13.25.64.21.57v.6l-.2.06.12.29.31.15.19,0,.42.07.29.29.21-.15.27.06-.15.4.53.64-.22.47.5.47.89.21,0,.43-.49.72-.29.83.92,0,.3-.51h.3l.65-.3.6.2.2.46-.3.45.3.71.45.71.45-.05v.46l.46.25,0,.82.6-.21.45.21.5-.11.1.31.3.25h.5l.45.05-.1.31.35.66.4-.31.6,0,.1.26.45.61.8.76.4.3.8-.25h.41l.4.1.25-.56.45-.46.6-1.16.45-1.58-.3-1.27.05-.81.65-.2.9-.81,1.1-1,.95-.25,1.17-.57.51-.06,1.22-.88.42-.82.8-.63h.24l2.42-1.24,1.05-2,.33-.18.24.06s.38-.3.41-.48.06-.82.06-.82l.3-.27-.27-.21-.3-.52-.12-.63.36-.09.06-.61.48-.54-.39-.49.48-.27-.21-.24v-.42l.3-.21-.06-.34-.35.06-.53.3-.5.51-.53-.62-.18,0-.08-.38.22-.14.12-.5-.2-.2.26-.3-.18-.62,0-.51-.45-.16.23-.44-.14-.22-.07-.26.17,0,0-.48.14-.12-.12-.26-.47.1h-.41l-.2.3h-1.1l-.63.68-.46.12-.15-.2-.38-.14-.49.18-.28.18-.57-.44,0-.24.1-.22-.14-.6-.11-.12-.08-.28.13-.14,0-.18-.55-.12H157l-.06-.18-.2.06-.26-.18.07-.14-.51-.08-.52.42-.28-.06,0-.19H155l-.48.56-.31-.16-.65,0-.19.31,0,.16-.27.28-.09.32-.41.26-.61.08-.47.38.12.31-.05.19-.32.06-.62.64,0,.12-.26.17-.23.37-.77.34-.65.8-.19,0-.09-.32-.27.35-.12.11v.1l.17.05,0,.23H148l-.15.22-.16,0-.17-.21-.35.36-.27.53-.28,0-.47.32.06.2-.32.3-.4-.05-1.13.53H144l-.14.27-.12,0-.1-.16-.49-.11-.89,0-.16-.11-.28,0v.09l-.35.18-.75.22-1,.48-.08.13h-.14l-.27-.31-.61-.16-.21.16-.63.19-.44-.07-.7-.43-.38-.12-.13-.28,0-.28-.16-.31-.5-.2Z" transform="translate(-134.41 -153.15)" style="fill: rgb(210, 210, 230);"></path>
   <path name="Ataco" data-id="968" id="path6433" class="cls-1" d="M165.17,275.14,165,275l.57-.54v-.52l.95-.9.24.06.39-.4-.18-.45.42-.58.71-.24.06-.18-.41-.24.18-.12.32-.21.16-.82-.45-.45.05-.25.33,0,.72-.3.27.21.65.18.39-.23-.21-.34.12-.66.33-.3-.18-.31.33-.33.12.18.63.18.08.12.63,0,.09-.21.42-.09.21.21-.15.31.12.36.39-.24.41-.12,0-.37.48-.45-.06-.33.42-.24.12.33h.27l.35-.21a.43.43,0,0,1-.06-.22c0-.12.42-.27.42-.27l.3.27.87,0-.15-.21v-.33l.32-.09-.14-.51.26-.19-.18-.21v-.45l.33.12.33-.12.27.06-.06.09.36.18.33-.2h.26v.26l.5.34.24-.47.38-.11-.22-.24,0-.38.31-.15.15.28.4.13.06.32.21.13h.32l.19.27-.19.13.17.24.36,0,.12.23.36,0,.21.06-.16.26.31.21.15-.24.27,0,0-.65-.42-.11.17-.4,0-.45-.23,0,.17-.31-.08-.28-.48-.28v-.74l-.27-.22-.45.22-.14-.14,0-.2-.25-.28,1.42-1.3v-.17l.33-.22.56.14L183,260l.39-.51.34.09-.2-.51.17-.23.17-.22-.23-.29-.41,0L183,258l.22-.31-.42-.12,0-.28-.89-.62-.47-.7h.33l-.17-.48.42-.82.31.22.72.08.24-.37h0l-.13-.19-.31-.23-.63-.31h-.42v-.39h.25l-.47-.88-.56,0-.11-.14-.47.26-.56-.31.14-.48-.25-.46-.39,0,.19-.62-.08-.37-.31-.11.26-.28-.2-.28-.64.09-.08.13-.11-.17h-.27l0-.08-.3.09,0,.17.13.09-.06.33-.29.15.08.28.26.1-.08.22h-.22l-.05-.1-.19.13v.33l-.19.18,0,.39-.12.1,0,.27.13.1-.05.19-.2.07-.21.3-.33.16-.15.16-.6.19-.1-.11-.32.42-.07.38-.32.21h-.13l-.2.56v.28l-.27.41h-.22v.42l.13.44.19.26-.15.29h-.11l-.22.19-.27.53-.15.55-.26.47-.35-.06-.14.32-.43.38-.09,0-.26.25.12.39-.08.2-.3-.13,0-.19-.26-.12-.23-.21-.29-.05-.69.13-.09.14-.48.22-.51.08-.38,0-.09.17-.26.11-.27-.06-.33.07-.35.22-.33,0-.32.11-.47.11L166,261h-.26l-.47-.16-.38.22v.26l.14.2.12.18-.14.17h-.32l-.23-.27-.23.06-.21.21h-.35l0-.29-.17-.06-.21.14-.16-.14-.67,0-.5-.27-.15.06,0,.19-.23.08-.19-.31-.75-.29h-.33l0,.15-.19-.25-.4.24h-.25l-.15.21h.17l.12.27-.33.33-.29.14-.13.25,0,.27-.2.35,0,.24-.07.11-.19,0-.25.29,0,.27-.14.59-.28.13.09.28-.38.42v.45l-.19.31-.37.23.1.2-.06.25-.1.2v.35l-.27.27.11.25-.07.1-.18,0v.75l-.21.22h-.17L156,269l.52.08-.07.14.26.18.2-.06.06.18h.46l.55.12,0,.18-.13.14.08.28.11.12.14.6-.1.22,0,.24.57.44.28-.18.49-.18.38.14.15.2.46-.12.63-.68h1.1l.2-.3h.41l.47-.1.12.26-.14.12,0,.48-.17,0,.07.26.14.22-.23.44.45.16,0,.51.18.62-.26.3.2.2-.12.5-.22.14.08.38.18,0,.53.62.51-.51Z" transform="translate(-134.41 -153.15)" style="fill: rgb(210, 210, 230);"></path>
   <path name="Natagaima" data-id="990" id="path6438" class="cls-1" d="M183,265.81l0,.23.17.13h.23l.25.2-.12.14.46.37.21-.26-.23-.13,0-.36.44-.32-.06-.47-.21-.15.1-.34.34-.09,0-.32.67-.73.24.2.65,0,0,.15.34.19.44-.11.17.17-.17.24v.19l.34.24-.36.15,0,.45.32.23.06-.23h.34l.17.38H188l0-.26h.34l.13-.44-.32-.45,0-.5.63-.51.25.15.76-.32,0-.24-.34-.23.06-.3.36,0,.17.15.31-.28.3,0,0,.17.28.21.35-.23,4.43.1.17.13.09-.06.45.2.28-.18.1-.42.18,0,.18-.36-.06-.2.71-.6.23,0,.22-.24-.22-.13,0-.3.28-.16.12,0,.15-.16.22.06.14-.18-.34-.24,0-.42.22-.26-.1-.26-.25.12-.42-.4.12-.2h.2l.22-.34h0l.11-.26.2-.08-.12-.24h-.18v-.2l.2-.24-.18,0L199,257l.14-.12.06-.32h.19l.77-.86-.06-.2.26-.14.27,0,.28-.31v-.22l.16-.06.16.18.37-.06.39-.62.16,0,0-.18-.22-.08,0-.2.16-.38h.14l0-.3.51-.52,0-.39h-.17l-.06.12-.14-.34.1-.28-.18-.3h-.41l-.08.12-.47,0,0-.18h-.46l-.25-.42.15-.14-.09-.44h-.3l-.06-.2h-.25l-.22.1-.06-.36-.45-.32.15-.18,0-.41h-.12l0-.16-.48-.42H198l-.29-.16,0-.18-.29,0v.28l-.3,0,0-.25-.58.31v.32l-.55.48.25.37L196,250c-.12-.05-.38-.42-.38-.42l-.19.37-.22-.31-.84.2-.45-.48-.47.16L193,249l.33-.34-.39-.45-.47-.12-.56-.45-.5.14-.56,0-.27.22.14.2-.37.31-.11,1-.39-.2-.47.65-.31,0L189,250l.3.11-.33.31-.31.68h-.16l-.09.28-.25.09-.83.68-.09-.14,0-.48-.59-.34-1.25.17-.19.28.25.11-.39.4-.11.34.19,0,.42.48-.36.4-.45-.23v.26h-.25l.06.28-.42-.11-.08.56.33.14-.31.23.17.17-.22.56-.39-.45-.32-.27-.24.38-.72-.08-.31-.22-.42.82.17.48h-.33l.47.7.89.62,0,.28.42.12L183,258l.17.31.41,0,.23.29-.17.22-.17.23.2.51-.34-.09L183,260l.31.34-.56-.14-.33.22v.17l-1.42,1.3.25.28,0,.2.14.14.45-.22.27.22v.74l.48.28.08.28-.17.31.23,0,0,.45-.17.4.42.11,0,.65Z" transform="translate(-134.41 -153.15)" style="fill: rgb(210, 210, 230);"></path>
   <path name="Alpujarra" data-id="963" id="path6444" class="cls-1" d="M196.54,263.23l-.56.46,0,.59.32,0,.44.56.07.34-.36.06.15.22-.45.1-.23-.06-.27.39-.49-.09,0,.66-.15.15.23.24.09.3-.42.28.06.32.17.06.12.36-.14.15.17.13,0,.32-.29.32,0,.26.21.17v.3l-.47,0-.14.24.1.13-.31.19,0,.47.4.19.36,0,.12.11.53.19.3-.13h.33v.13l.26.08.14-.23.83-.09.21.13v.19l.44.56.53-.06,0-.18.36-.36H200l.49.19.1.22.36.17.21-.37h.15l.19.11.31,0,.41-.34h.21l.12.19.4,0,.28-.43.27.17.34-.11.74-.91.28,0,.69-.73-.06-.36.23-.47.19.17.36-.06.63-.58.34,0,.09-.39-.21-.21.4-.63.25-.06.63-.77-.08-.5.48-.44.21,0,.15-.26-.17-.09,0-.36.23-.17.15-.3h-.39l-.16-.5-.28-.3.2-.18-.79-.66-.1-.32-.61-.34,0-.36.44-.31,0-.18.49-.46.08-.32.37-.38-.08-.2,0-.18-.51-.38-.43-.44-.5-.22h-.31l0,.16-.28.16-.23-.14s.06.2-.1.2h-.47l-.18.08v.2l-.1.08-.33-.14-.24.24,0,.18-.22.16-.09.18h-.18l-.16-.28-.16.14-.45,0-.06-.14-.41,0-.28-.42-.25.36.09.3-.19.18-.08.34-.43.18-.16,0-.22.16-.14-.38-.51,0v-.2l-.12-.18-.11,0-.14-.28-.2-.1,0-.34-.08-.1-.14,0h-.45l-.06-.16h-.37l-.35-.33-.22.35h-.2l-.12.2.42.4.25-.12.1.26-.22.26,0,.42.34.24-.14.18-.22-.06-.15.16-.12,0-.28.16,0,.29.22.14-.22.24-.23,0-.71.6.06.2-.18.36-.18,0-.1.42Z" transform="translate(-134.41 -153.15)" style="fill: rgb(210, 210, 230);"></path>
   <path name="Dolores" data-id="976" id="path6449" class="cls-1" d="M209.75,263.79l.06.06.72-.6h.25l.38-.42.08-.3.45,0,.48-.38-.13-.17.17-.13v-.32l-.21-.07v-.36l-.4-.09-.21-.47-.34-.19-.08-.36.19-.11-.17-.36-.08-.43.19-.17-.07-.75.47-.34,0-.37.4-.34.63-.06.17.25.32.05.21-.39.14.05.32-.35,0-.44.39-.32-.09-.31.15-.11,0-.21-.45-.09-.06-.28.15-.13-.17-.42-.28-.22,0-.47.72-.4.17-.37,0-.25.5-.41.34.32.21-.21.34,0,.15-.19-.15-.23.13-.3.1-.41-.19-.15.17-.34.19.15.32-.5,0-.36.7-.56,0-.45.17-.13.17.17.59-.31v-.28l.34-.28.17.15.69-.25,1-.95.81-.79.58-.22.51-.55.09-.43.55-.6,1-.68.24-.46,0-.45.25-.58.36-.17-.08-.67.35-.61.45-.46-.22-.22.13-.34v-.28l.28,0-.06-.43-.65.19-.66.43L223,241l-.59,1.72-1.78,2.2v.34l-1,.88-.75.48-.92.84-.73.17-.27-.14h-.59l-.5-.34.17-.51-1.1-1.07-.2-.59.31-.68.47-.37.14-.5-.19-.15-.2.12-.26.36-.22,0-.06-.08-.17,0-.21.2.14.17h.15l.12.29-.13.23-.17,0-.05.11a.84.84,0,0,0-.07.18s-.24.14-.24.14l-.08.24.11.12-.15.25-.09,0-.05.16h-.42l0-.07-.36.12-.07.21-.24.16.17.25-.22.3h-.2l-.07-.1-.13.09,0,.22-.16.12.07.12-.1.43-.2.15v.18l.13.08-.09.11-.24.07h-.11l-.14.1-.1.41-.14.06-.4.39-.19,0-.38-.25-.27.06-.28.22-.28.38-.17,0-.34.16-.37.08-.14-.08h-.28l0,.16h-.7l-.48-.28-.55.54-.08-.18h-.45l.1-.22-.3-.18-.33.32h-.81l-.18-.46-.57-.14-.27.18v.3l-.38.52-.23.1-.06.22.21.28.16.08.1.34-.47.6-.11.14-.07.2.05.38-.51.52,0,.3H202l-.16.38,0,.2.22.08,0,.18-.16,0-.39.62-.37.06-.16-.18-.16.06V255l-.28.32-.27,0-.26.14.06.2-.77.86h-.19l-.06.32L199,257l-.18.42.18,0-.2.24v.2h.18l.12.24-.2.08-.12.25.36.33h.37l.06.16H200l.14,0,.08.1,0,.34.2.1.14.28.11,0,.12.18v.2l.51,0,.14.38.22-.16.16,0,.43-.18.08-.34.19-.18-.09-.3.25-.36.28.42.41,0,.06.14.45,0,.16-.14.16.28h.18l.09-.18.22-.16,0-.18.24-.24.33.14.1-.08v-.2l.18-.08H206c.16,0,.1-.2.1-.2l.23.14.28-.16,0-.16H207l.5.22.43.44.51.38,0,.18.08.2-.37.38-.08.32-.49.46,0,.17-.44.32,0,.36.61.34.1.32.79.66-.2.18.28.3.16.5h.39Z" transform="translate(-134.41 -153.15)" style="fill: rgb(210, 210, 230);"></path>
   <path name="Melgar" data-id="988" id="path6362" class="cls-1" d="M213.27,215.76l.37-.12,0-.26.24,0,0,.33.42.42.11.28.14-.17h.51l.35.36s-.35.14-.24.16l.42.09,0,.12-.25.21.35.47.11-.21.19.09.1.33.43-.1.06.46h.22l.28-.47.43,0,.06-.23.14-.16h.41l.2.34-.26.4.1.26.3-.14,0-.33.65-.19-.14-.32.76-.57.07.19.3-.21-.12-.52.28-.16.14-.16-.25-.14,0-.59.35,0,.14.1L221,215l.37-.17,0-.23.11-.05.12.31.2.11,0-.39.34-.36.58.05.44-.14.05-.16.39,0,.05.19.55.29-.44.44v.2l-.21.44-.08.74.35.52,0,1.26.26.2-.12,1-1.1,2h-.24l-.14.1.06.16-.83.74h-.25l-.61.56v.44l-.24,0-.18.24.1.48-.08.08-.16,0-.27-.28,0-.4-.2-.06.1-.22.24,0-.08-.18-.37-.06v-.38l.23-.14-.1-.12-.25.1-.14.2h-.26l-.84.88-.36.38-.82.5-.1.14-.35,0,0-.17h-.19l-.24-.12.06-.46.45-.36v-.26l-.25-.2v-.42l.27-.3.16,0,.2-.1v-.14h-.34l0-.34.4-.28.25,0V221l-.2,0-.13-.28,0-.3h-.22v.22l-.26-.12v-.16h.18v-.14l-.37-.22-.16.2-.1-.24H216l0-.14-.23,0-.12.16-.14-.16-.27,0-.22-.22.12-.08-.22-.29h-.24l.16-.18h.22l0-.16-.34-.06-.17.1v.2l-.14,0,0-.24-.28-.14.06-.1-.23,0-.18.1-.18-.14.14-.24-.32-.3-.21,0-.18.16-.41-.22.15-.2.2.1.26-.06v-.3l-.4-.12.24-.34.24-.12.11-.24-.11-.1v-.58Z" transform="translate(-134.41 -153.15)" style="fill: rgb(210, 210, 230);"></path>
   <path name="XXXX" data-id="" id="path6357" class="cls-1" d="M206.88,154.29l.11-.18h.32l0,.34h.26l.47.18,0,.3.18.1.09-.18.56.08.07.18-.15.22.37.08v.12l-.51.2-.24.38.4.3.11.44.32.06.2.68.33.62.67.36,0,.24-.51.18,0,.26-.3.35-.39,0-.08.3-.33.12-.42.42h-.17l-.18.28.14.32-.4,0-.55.32-.33-.06-.38.38-.25,0-.22.24.37.1,0,.24-.35,0-.39.32.23.14-.21.28h-.3l-.22.23.38.35.25,0,0,.38.61.44h.28l0,.24.53.12,0,.24-.18.32.38.41-.06.26.14.14.27-.06.81.32h.79l.29.26.24-.18h.18l.08.14.53-.42.1-.14h.31l.16-.42.35-.19.3.19-.06.24h-.22l.1,1.34-.25.1.19.9-.12.16.63.7-.06.6.44-.22,0-.26.31-.16.14.32.34-.16v-.36h.54l.5-.27.22-.84-.33-.72.52-.74,0-.52.18-.69-.38-.39-.3-.53-.23-.62.11-.51.62-.65.35-1.17-.3-.88-.28-.18h-.38l-.36,0-.06-.29.2-.24.26-.25,0-.18-.14-.2,0-.52.14-.29.35-.19-.29-.9.15-.7-.69-1.11-.38,0,0-.4-.72.57a.78.78,0,0,0-.25-.25,1.56,1.56,0,0,0-.41-.11l-.46-.64-.78.15-.33-.4-.08.23-.19-.06,0-.21-.19,0-.14.12-.25-.23h-.35l0-.23-.21-.11-.06-.13-.11-.34h-.26l-.27.24-.19-.15-.16.1-.15-.08,0,.17-.29.13-.12-.15-.25,0-.19-.11-.1.11.06.23-.25.22-.07.13Z" transform="translate(-134.41 -153.15)" disabled="disabled" style="pointer-events: none;"></path>
   <path name="Mariquita" data-id="987" id="path6351" class="cls-1" d="M198.51,155.37l.31.24,0,.3-.69.56.12.16v.22L198,157l0,.14.21.12-.16.16v.84l.26.12.32.6.29,0,.14-.16.53.12.16.3-.2.18.38.87.07-.18.26,0v.12l-.31.2-.1.48.31.08.1.3-.31.22-.08.18.43,0,.24.3h.39l.08.1.41-.3.22.36-.1.16.1.48.79.1.33.46.32-.14.37.06.26-.44.31-.2.18.24.29,0-.07.46-.26.29.13.07.21,0,.23,0,.45-.47h0l.22-.23h.3l.21-.28-.23-.14.39-.32.35,0,0-.24-.37-.1.22-.24.25,0,.38-.38.33.06.55-.32.4,0-.14-.32.18-.28h.17l.42-.42.33-.12.08-.3.39,0,.3-.35,0-.26.51-.18,0-.24-.67-.36-.33-.62-.2-.68-.32-.06-.11-.44-.4-.3.24-.38.51-.2v-.12l-.37-.08.15-.22-.07-.18-.56-.08-.09.18-.18-.1,0-.3-.47-.18h-.26l0-.34H207l-.11.18-.37-.14-.41-.05-.13.07.17.17H206v.34l-.24,0-.25-.19h-.44l-.16-.19-.15,0,0,.15h-.08l-.14-.07h-.33l-.48-.47-.31-.17-.06.11-.17,0-.1.06-.12,0-.48-.32-.33.09-.1-.06-.35.4-.31,0-.27.36-.31-.11-.47.12,0,.25-.18.11-.29-.06-.5.4-.8-.18Z" transform="translate(-134.41 -153.15)" style="fill: rgb(210, 210, 230);"></path>
   <path name="Fresno" data-id="980" id="path6345" class="cls-1" d="M190.67,163.4l-.18.24,0,.14.4.26-.16.18.12.16-.12.24.24.28.29,0,.08.08-.08.32-.08.08v.43l.16.1v.59l.29.17,0-.3.38-.26.08-.57.43-.14-.12-.2.3-.28.17.14.34,0,.14-.18h.16l.05.2.44-.14.06-.2.63-.06.39.5.1-.32h.2l.31.18.08-.3.27,0,.1-.1.28,0,.06-.36.29-.18.12.18h.18v-.18l.35-.46.42,0,.06-.26.33,0,.28.38.15-.22.29,0,.11-.26.23-.08.22.14.08-.28h.3l.17.26.18-.06-.14-.64.57,0-.17-.28V162h0l-.25-.32-.43,0,.08-.18.31-.22-.1-.3-.31-.08.1-.48.31-.2v-.12l-.26,0-.07.18-.38-.87.2-.18-.16-.3-.53-.12-.14.16-.29,0-.32-.6-.26-.12v-.84l.16-.16-.21-.12,0-.14.29-.14v-.22l-.12-.16.69-.56,0-.3-.31-.24,0-.45-.41-.09-.19-.13-.16.37-.55.05-.15-.16-.23.16v.52l-.39.2-.2-.15-.84.15-.26.28L195,156l-.11.2.05.55.14.49-.31.24-.22-.06-.64.32,0,.33.47.22-.09.33-.45,0-.32.29-.13.42-.25,0-.69,1.32.16.41-.41.16-.26.8.28.29-.44.27-.19-.14-.38.32-.52-.1Z" transform="translate(-134.41 -153.15)" style="fill: rgb(210, 210, 230);"></path>
   <path name="Herveo" data-id="982" id="path6336" class="cls-1" d="M178.76,175.82l0-.28,0-.08-.06-.26L179,175l-.12-.12.16-.24.26,0,.25-.14-.06-.18.26-.28.14,0-.06-.32.12-.14.21.12.52-.16.31-.38.47-.1.16.14.2-.16h.31l0-.14.46-.3.25,0,.06-.18.24-.08.11.08.48-.24.1-.2.23-.12.08.18.28-.12.13.1h.28l-.16-.12.16-.12.12.18.85.18.05-.24.34-.08.12-.34.53-.33.06-.42.29-.34h.36l0-.42.16,0a4.17,4.17,0,0,0,.74-.52,1.57,1.57,0,0,1,.16-.36l0-.18,0-.28.24.06.25-.16h.3l.08-.3.31-.06.48-.26-.34-.22.2-.36,0-.5.23-.26.16.2h.4l-.06-.26.15-.22.28,0v-.57l-.16-.1v-.43l.08-.08.08-.32-.08-.08-.29,0-.24-.28.12-.24-.12-.16.16-.18-.4-.26,0-.14.18-.24,0-.7-.11,0-.24-.33-.32,0-.07-.36-.2-.09-.63.27-.21-.16-.37-.07,0,.3-.45.12-.54-.06-.68.62.16.08v.13l-.2,0-.09.38-.26-.08.12.25-.41.37-.13-.15-.45.17-.42.44h-.27l-.22-.17-.71-.12-1.17-.51h-.56l0,.29-.38.45-.16,0-.12.13.14.15-.41.1,0,.22-.34.57-.47.09,0,.15L180,166l-.13.19v.24l-.22.06-.31.38-.31,0-.23.38.14.13,0,.26-.39.93.39.24.09.13,0,.26.1.17.41,0,.21.16.39.51.25.11-.14.63-.07,1.15-.39.75-.43.32.1.49h-.37l-.89.51.27.72-.21.25,0,.88.29.19Z" transform="translate(-134.41 -153.15)" style="fill: rgb(210, 210, 230);"></path>

</svg>