<svg data-id="" id="Capa_1" data-name="Capa 1" xmlns="http://www.w3.org/2000/svg" viewBox="0 0 119.7 126.07">
    <defs>
        <style>.cls-1{fill: #ebebef;;stroke:#fff;stroke-miterlimit:3.86;stroke-width:0.25px;}</style>
    </defs>
    <path data-id="1047" id="path2631" name="VIJES" class="cls-1" d="M238.06,211.39l-.33,0-.17.29-.36-.11-.59-.09-.38-.25h-.49l-.22-.14h-.44l-.53-.3-.12-.27-1.22-.19-.63.26-.26-.1.12-.2-.1-.32-.31-.35-.72-.68,0-.56-.18-.19v-.43l-.3-.44-.3,0,.19-.21.87-.48.34-.42.5-.19.95,0,.43-.3-.12-.24-.06-.2.35-.42.24-.31-.14-.42.35-.65.43-.5.13-.79.17-.18.4.33H236l.27.19h.38l.4-.19.4.24-.34.42-.11.34-.13.4-.27.25-.42.22-.23.51v.79l.06.39.22.22-.14.26.33.52h.36l-.16.22.11.34.51.23.66.53.27.31.33-.05.44-.44.31-.19-.06.93-.28.34v.53l-.94.5-.1.56.28.31-.09.46Z" transform="translate(-165.23 -123.46)" style="fill: rgb(210, 210, 230);"></path>
    <path data-id="1022" id="path2693-7" name="DAGUA" class="cls-1" d="M220.08,229.2l0-.76-.16-.11-.13-.49-.18-.13,0-.31.17-.11-.08-.33.11-.12.05-.19h.35l.17-.18.2-.15v-.38l.1-.3.27-.14.19-.15,0,.16h.16l.23-.08.15.18.32-.14.3-.31.59.13.59-.17.37-.75.46-.34.42-.2.39-.92-.07-.53.08-.39.25-.28,0-.56.27-.12.26-.33.22-.34.31-.34.25-.6.14-.44-.25-.58L226,218l-.35-.21-.14-1v-1.16l-.12-.32-.29.05-.17-.16-.26.11-.29,0,0-.29-.12-.12-.17.3-.36-.11,0-.38-.26,0-.15-.15v-.85l.11-.62.13-.4-.35-.33-.11-.5.08-.44.53-.44.11-.34-.28-.52.16-.52V209l-.2-.35.05-.61.15-.51v-1l.11-.49-.42-.08v-.8l.24-.39.56-.4.31-.54.7-.6-.14-.42.18-.31-.13-.38-.36-.24-.18-.33,0-.46-.51-.13h-.34l-.31-.4-.1-.84-.21-.47-.6-.13-.46.21-.41.44H221l-.43.12-.72.29-.45.35-.27.61-.19.64-.35.81-.3.7-.49,0-.53,0-.41.16-.27.79.08.55-.48.29-.45-.43-.3-.09-.4-.38-.05.4,0,.45-.38.17.25.39h-.3l-.44.39-.91-.16-.66.24-.39.28,0,.45.16.46.33.56-.15.63-.41.33,0,1,.29.44.69.27.56.44.29.6-.22.37.14.64-.34.46v.47l-.59.24-.08.6-.93.74-.36-.2-.5,0-.62-.32-.24.22-.34-.17h-.37l-.61.23-.75.64-.26.5.53.45.53,0,.45.57.55.26.46.6,0,.52-.39.53V220l.62,0,.48.32.62.27.69.27.29-.22.31.66,0,.53.5.43-.11.37.13.25.38,0,.51.43.46,1,0,.56.23.35.92.12.52.27-.14.28.58.58-.08.6.1.37.66.09.39.19.64,0,.36.32.07.37.37.3.09.52.11.39h.7l-.23-.45Z" transform="translate(-165.23 -123.46)" style="fill: rgb(210, 210, 230);"></path>
    <path data-id="1037" id="path3533-7" name="RESTREPO" class="cls-1" d="M230.69,207.05l-.51.5-.3-.07-.64-.09-.26-.17-.09-.15-.22,0-.19.11-.2-.19h-.22l-.13.14h-.28l-.18-.11-.09-.22-.31-.06-.11.3-.46.08-.35-.09-.32-.22-.08-.23-.07-.48-.47-.08-.3.27-.35.14-.34-.33-.82-.16v-.8l.24-.39.56-.4.31-.54.7-.6-.14-.42.18-.31-.13-.38-.36-.24-.18-.33,0-.46-.51-.13,1-.9.87-.11.93,0,.56-.34.51-.09.42-.27.25.07,0,.31.21.12.19-.23.24.08.27-.28.4-.21.54.36.23.16.14.31.31-.09.69-.38.25,0,0,.31.43.39.29-.33.51-.14.18.29,0,.38.45.12.09.24-.28.16.09.23.39,0,.16.1-.28.37.17.17h.45l.32.24-.17.18-.13.79-.43.5-.35.65.14.42-.24.31-.35.42.06.2.12.24-.43.3-.95,0-.5.19-.34.42-.87.48Z" transform="translate(-165.23 -123.46)" style="fill: rgb(210, 210, 230);"></path>
    <path data-id="1048" id="path2621" name="YOTOCO" class="cls-1" d="M235.13,201.91l-.32-.24h-.45l-.17-.17.28-.37-.16-.1-.39,0-.09-.23.28-.16-.09-.24-.45-.12,0-.38.51-.34.28-.08h.71l.56-.08.15-.65.08-.74.48-.66.07-.46-.07-.52.92-1,.46-.49.33-.16-.44-.52.45-.16.7-1,.4-.27.3-.16.38-.07-.66-.61h-.27l-.33,0-.34-.3.11-.35.24-.25-.09-.3.08-.71.7.43.31-.1.28,0,.39-.25.67,0,.37-.4.55-.17.07-.31.34-.22-.31-.68,0-.3.18-.29.52-.26.35.08.66,0,.59-.24.44-.1.67,0,.6-.45.38.18.07.37-.25.42-.51.11-.26.18.18.47.42,0,.08.24-.19.2.42.31-.23.17.34.44h-.36l-.15-.33-.42,0-.14.24.23.58.39.42,0,.27-.35-.32,0,.28-.22,0,0,.4h-.25l-.16-.18-.24.34.16,0h.41l.33.27-.25.25-.31.12L245,192h-.25l0,.4-.34.31.31.15v.19l-.34.09.25.22.31.09,0,.19-.44.12-.22.53.32.22.12.18h-.41l-.34-.09.12.22.38.22-.31.12h-.35l-.19.34.35.09.43.36-.1.27-.62-.12-.57.16v.24h.44l.06.16-.18.12.06.28-.41.28.06.28-.37.34v.22l-.25.19.15.31-.5,0-.22.21.22.13-.34.28v.21l-.19.71-.53.4v.62l.31.4-.12.25-.47,0-.16.25.47.31.29.38-.11.53-.19.44-.28-.07-.19-.55-.28-.07-.16.25.34.47-.18.18.44.44V205l-.41.1-.32-.44h-.37l-.16.37.35.49-.07.5-.37.18-.06.59.06.59-.19.39-.31.17-.44.48-.33,0-.27-.31-.66-.53-.51-.23-.11-.34.16-.22h-.36l-.33-.52.14-.26-.22-.22-.06-.4v-.78l.23-.51.42-.22.27-.25.24-.74.34-.42-.4-.24-.4.19h-.38l-.27-.19h-.47l-.4-.33Z" transform="translate(-165.23 -123.46)" style="fill: rgb(210, 210, 230);"></path>
    <path data-id="1029" id="path2653" name="GUACARI" class="cls-1" d="M253.32,203.85l-.66.46-.5.11-.14.25-.24.07-.41.39-.07.46-.07.33-.63.1-.54.09-.51.17-.57-.19-.5.15-.76.09-.54-.11-.71.33-.56-.11-.13.35,0,.48-.4.15-.43.46-.39.16v.9l.19.92-.79-.43-.45-.35-.73-.29-.6-.45-.54-.09-.6-.31-.54-.42-.33-.76-.38-.75.06-.51-.34-.47.16-.37h.37l.32.43.4-.09v-.47l-.44-.43.19-.2-.35-.46.16-.25.28.06.19.56.28.06.19-.43.1-.54.33.36.16.91.26.09.31-.31h.34l.27.18.43,0L244,204h.53l.53-.05.25-.29h.24l.18.22H246l.12-.16.47-.12.27-.4.14-.51.35-.52v-.43l.24-.32.22-.09.35-.54.55-.17.15.45.14.31.55.26.44-.06.4-.29h.79l.61.42.55.2.67.52.42.71-.2.3,0,.4Z" transform="translate(-165.23 -123.46)" style="fill: rgb(210, 210, 230);"></path>
    <path data-id="1020" id="path2629" name="CANDELARIA" class="cls-1" d="M247.19,225.1l-.34,1-.63.72-.06.62-.6.65-.06.72L245,229l-.11.41.15,0-.22.61,0,.2-.17-.16-.65,0-.09.31.41.46.85.19.1.46.44,0,.32.32-.95,2.4-.4,1.38v.3l-.39-.13.05-.23-.51-.18-.68-.06.29.53-.52.79.4.42L243,237l-.19-.08-.45-.26-.25,0-.19.13-.82,0-.22-.25h-.22l-.41.09-.38-.34h-.28l-.15-.13h-.35v-.34l-.47-.12-.28-.38v-.28l-.66,0-.19-.15h-.41l-.28.06-.16-.16-.28,0-.32-.28,0-.31-.25-.2-.42-.77.16-.25,0-.71-.25-.28,0-.44-.31-.77.15-.16.19-.09.13-.66-.35-.74,0-.31.35-.41.18-1-.31-.37-.19-.61.1-.27.53-.4h.34l.1.27.53.28.16-.21.37-.1.44-.06.59.14.36-.27.28.15.38-.09.6.05.44.2.6,0,.25-.22,1.23-.29.3-.33.34.14.41.1.21.21.58,0,.22-.2.29-.07.65-.65.5-.12.34.18.33-.2.49.26Z" transform="translate(-165.23 -123.46)" style="fill: rgb(210, 210, 230);"></path>
    <path data-id="1049" id="path2696" name="YUMBO" class="cls-1" d="M237.2,211.53l-.59-.09-.38-.25h-.49l-.22-.14h-.44l-.53-.3-.12-.27-1.22-.19-.63.26-.26-.1-.25.23-.58,1,.16.39-.35.4-.11.68-.41.53-.17.54-.34.1-.22-.13h-.27l-.19.3-.14,1-.24.31-.38.32,0,.4-.1.35,0,.53-.21.43-.22.34-.08.32-.42.37,0,.3-.23.22-.28.08-.12.2L227,220l.34.34,0,.55.18.5.44.35.56.17.4.36.64.12.39.52.49.21.48,0,.56.39.15,0,.18,0,.68.23.07-.29.69-.27.43-.06-.13-1,.25-.5v-.78l.47-.31.28.07.16.24h.35l.09-.24-.41-.44-.72-.28-.12-.31.25-.47.66-.18.28.09.37,0,.13-.5v-.62l.22-.49-.29-.57,0-.31.25.18.31-.12-.25-.34,0-.72-.09-.31.19-.31h.28l0-.62.22-.21-.12-.31.15-.16H237l.06-.22-.47-.37,0-.34.85-.34.12-.71-.34-.1Z" transform="translate(-165.23 -123.46)" style="fill: rgb(210, 210, 230);"></path>
    <path data-id="1028" id="path2634-3" name="GINEBRA" class="cls-1" d="M260.17,205.72l-.38.31-.33.88-.56.61-.37.75-.11.4-.39.75,0,1.14-.34.37-.68,0-1.05-.53-.75-.11-.29.29-.39,0-.47.15-.38,0-.28.17-.11.68-.31.82-.45.28-.64-.05-.59-.37-.06-.56-.31-.36-.41-.22h-.62l-.45.22L249,211l-.36,0-.75-.15-.38-.21-.86-.13-.27-.22H246l-.79-.41-.39-.09-.19-.92V208l.4-.16.42-.46.4-.15,0-.48.13-.35.56.11.71-.33.54.11.76-.09.5-.15.57.19.51-.17,1.17-.19.14-.79.41-.39.24-.07.14-.25.5-.11.66-.46,0-.4.2-.31.52.6.25-.44.46-.12.28-.28.31-.38.32-.28.45-.19.13-.25.32,0,.31.14.19.34.4.09.22-.24.53.26.35.44.28,0,.48.25.37.46.13.55.4.05.15.3-.19.51.3.36-.26.47Z" transform="translate(-165.23 -123.46)" style="fill: rgb(210, 210, 230);"></path>
    <path data-id="1017" id="path2647" name="BUGALAGRANDE" class="cls-1" d="M268.68,179.51l-.27-.3-.45-.5-.36-.31.1-.33-.25-.27.13-.44-.36-.48-.76-.17-.3-.34-.63-.13-.31-.39-.41-.07-.35-.22-.32-.34-.69-.14-.34-.34-.17-.11-.69,0-.5-.21.37-.55-.28-.39-.08-.48-.68-.08,0-.18-.34.05-.19.76,0,.8-.27.31-.42-.13-.64.25-.5-.06-.63-1.13-1.49-1-.51-.91-.7-.49-.7-.8-.23.14.13.53h-.48l-.06-.28-.29.28-.35.5v.34l-.82.32-.22.41v.4l-.26.16v.19l-.28.36v.5l.22.49-.4.1-.44-.1-.22.16,0,.4-.19.44-.29.4-.12.51.39.41.58,0,.44.5.6.22.31.25.28-.13.19.06.29-.18h.44l.87.71.26.32.37.12.29.37.5.06.43.48.31.61-.1.78.31.2.46.65.54.41.29.65.53.11.71.53v.37L260,184l.16.1,0,.49.39.42.49.44.24.14,1-.53L263,185l.59-.06.41-.36.17.07.28,0,.48-.27.28.16.37,0,.52-.47,0-.27.3-.09.33-.75,0-.35.17-.19.28-.65.28-.72.44-.43.06-.34h.22l.41-.32.08-.38Z" transform="translate(-165.23 -123.46)" style="fill: rgb(210, 210, 230);"></path>
    <path data-id="1011" id="path2651" name="ANDALUCIA" class="cls-1" d="M261,185.41l-.41-.4-.39-.42,0-.49L260,184l-.38.16v-.37l-.71-.53-.53-.11-.29-.65-.54-.41-.46-.65-.31-.2.1-.79-.3-.59-.44-.49-.5-.06-.29-.37-.37-.13-.25-.31-.89-.71h-.44l-.28.19-.19-.07-.28.13-.32-.25-.59-.22-.44-.5-.57,0v.2l-.33.68-.67.79-.17.58-.11.45-.22.53.31.43.55-.06.22,0,.3.28.15.35-.13.16.19.21.13-.07h.2l.16.2h.17l.2.22H252l.43.26h.29l.23.07.2.23.2,0,.19-.16.5,0,.32.24v.28l.2.26,0,.2.67-.08.14.13.3,0,.39-.12.26.28.45.09.36.3.09.27.33.49,0,.32.14.32,0,.67.59.79.83-.41h.32l.36.05v.37l.16,0,.2-.49.78-.9Z" transform="translate(-165.23 -123.46)" style="fill: rgb(210, 210, 230);"></path>
    <path data-id="1040" id="path2649-8" name="SAN PEDRO" class="cls-1" d="M246,190.77l-.4-.42-.22-.58.13-.24.42,0,.16.33h.35l-.33-.44.22-.18-.42-.3.2-.2-.09-.24-.42-.05-.18-.46.28-.18.51-.12.18.3.31.35.11.24h.37l.45-.16.48,0,.42.3.64,0,.28.16H250l.69.19.24-.26.32-.09.55-.2.69,0,.65.19.59,0,.19.09,0,.93.22.45.74.11.57.22.73.47.58.88.18.63.51.49.47.11,1.21.64-.36.49-.05.41-1,1.09-.31.68-.79.58h-.53l-.5-.53-.19-.53h-.72l-.32-.12-.38.21-.22.22-.25-.37-.25.28H253v-.53l-.69-.56h-.44l-.35-.08-.34,0-.39-.2-.19.21-.15-.36-.53,0-.15-.61-.29-.33-.6-.06-.58.09-.63-.11-.36-.24-.34-.19-.27-.56-.2-.24-.36-.29-.53-.28-.29-.26h-.41l-.15,0,.22-.34.15.18h.25l0-.4.22,0,0-.28.35.28.05-.23Z" transform="translate(-165.23 -123.46)" style="fill: rgb(210, 210, 230);"></path>
    <path data-id="1032" id="path2680" name="LA UNION" class="cls-1" d="M259.87,158.64l-.84-.18-.85.28-.77.13-.7.82-.4-.18-.42.43-.47.21-.22-1.29-.16-.19-.16-.35-.3-.45,0-.35-.25-.56-.08-.54-.36-.21-.34-.41.35,0,.6-.29.7-.53.44-.39.11-.57.36.16v.36l.06.38.44.22.47-.38.28-.15.32-.32h.46l.18-.2h.31l.22.13.41-.21.27-.39.6-.48.55-.22.31-.4.52.1.11.44h.7l.68.28.07.38.28,0,.29.25,0,.46-.33.2v.38l-.35.15v.24l-.22.35.26.22-.1.22-.44.06v.28l.47.1-.12.25-.38.22-.29.76-.57.47,0,.66-.82-.15-.88-.29Z" transform="translate(-165.23 -123.46)" style="fill: rgb(210, 210, 230);"></path>
    <path data-id="1039" id="path2684" name="ROLDANILLO" class="cls-1" d="M261,159.78l-.78.61-.42.09.22.19.29-.12h.38v.18l-.25.13-.11.43.28,0,.29,0,.44.72-.22.41-.22.41h-.25l-.14-.41-.45,0v.18l.26.29,0,.35-.48.09-.37.21.1.85-.35.12-.34.24v.57l-.69-.16-.22-.25h-.76l.22.59-.19.38L257,166l-.09.32.25.34-.28.35-.48-.32-.41.07-.11.19,0,.34,0,.24-.87-.33L254,167l-.94-.72-.34.34-.49-.27-.41,0-.28-.2-1-.2-.51-.25-.5-.83-.28-.39.2-.54.15-.65.73-.22.54-.23.29-.26-.15-.6.09-.41-.47-.34-.33-.46-.37-.13.36-.26,0-.44.51.1.22-.25-.16-.41.51-.28.12-.43.8-.32.54-.53.61-.13,1.09.14.3.45.16.35.16.19.22,1.29.47-.21.42-.43.4.18.7-.82.77-.13.85-.28.84.18.88.29.77.14-.45.43,0,.28Z" transform="translate(-165.23 -123.46)" style="fill: rgb(210, 210, 230);"></path>
    <path data-id="1026" id="path2662" name="EL DOVIO" class="cls-1" d="M244.22,160h1.05l.32-.25.44.06,1.36-.8.34.26v.56l0,.38-.18.41-.21.34.2.35-.16.45.69,0,.27.71h0l.74.29.57.54.73-.22.54-.23.29-.26-.15-.6.09-.41-.47-.34-.33-.46-.37-.13.36-.26,0-.44.51.1.22-.25-.16-.41.51-.28.12-.43.8-.32.54-.53.61-.13,1.09.14,0-.35-.25-.56-.08-.54-.36-.21-.34-.41-.38.08-.46-.4-.05-.36-.39-.07-.19-.2-.38,0-.39.21-.36-.14-.06-.31-.25.15-.36,0-.27.17-.7,0,.84-.75,0-.47.48-.23v-.5l.58-.69-.16-.38h-.57l-.48-.16-.25-.31-.57.28-.48.6-.59.43-.31.7-.24-.37-.39-.22-.32-.73-.28-.21-.13-.58-.22-.26,0-.36.12-.2-.12-.26-.82-.2-.15.34-.58.78.13.36-.11.47-.43.45-.1.53-.3.48-.48.2-.23.47.46.45-.1.36-1.26.43s-.54-.23-.59-.24-.66,0-.66,0l-.31.32,0,.52-1,.43-.15.34.67.84.74.2,0,.54.51.65v.61l.25.07.38-.32h.31l.24.28.58.07.1.12.26.4Z" transform="translate(-165.23 -123.46)" style="fill: rgb(210, 210, 230);"></path>
    <path data-id="1013" id="path2682" name="ARGELIA" class="cls-1" d="M258.42,146.9l.74-.55.43-.58-.15-.4-.06-.44.1-.59.31-.34.06-.39-.57-.11-.38-.26-.66-.2-.44-.1-.23-.56-.15-.22-.61-.28-.41-.41-.55-.84-.12.58.13.48v.44l.16.44-.22.5-.6.34-.86.73-.21.08-.23.19.1.66-.22.63-.41.75-.48.52.19.39,0,.76-.16.26-.06.26.23.16.75-.12.55-.29.54-.34.56.2.23.29.46.27.4,0,.6.07.25-.27H258l.41-1.68Z" transform="translate(-165.23 -123.46)" style="fill: rgb(210, 210, 230);"></path>
    <path data-id="1042" id="path2678" name="TORO" class="cls-1" d="M264.31,148.44V149l-.15.22,0,.37-.38.07-.22.18.32.25v.22l-.57.48,0,.31.48-.06.72.12.13.46.38.47-.25.16-.51-.35-.41.1.22.53.31.19V153l-.57.16h-.54l-.23.23-.67-.28h-.7l-.11-.44-.52-.1-.31.4-.55.22-.6.48-.27.39-.41.21-.22-.13h-.31l-.18.2h-.46l-.32.32-.28.15-.47.38-.44-.22-.06-.38v-.36l-.36-.16-.34-.45-.33-.31.12-.72,0-.36.39-.46.55-.2.31-.66.57-.37.06-.39.47-.89.45-.68.26-1,.15-.72.74-.55.43-.58-.15-.4-.06-.44.1-.59.31-.34.38.44.48.14.32.6.39-.35,1.17.44.31.55.48.22-.08.38.63-.34.67-.09,0,.35-.13.2.26.88v.51l-.41.51Z" transform="translate(-165.23 -123.46)" style="fill: rgb(210, 210, 230);"></path>
    <path data-id="1031" id="path3569" name="LA CUMBRE" class="cls-1" d="M227.09,219.63l.12-.2.28-.08.23-.22,0-.3.42-.37.08-.32.22-.34.21-.43,0-.53.1-.35,0-.4.38-.32.24-.31.07-.48.07-.52.19-.3h.27l.22.13.34-.1.17-.54.41-.53.11-.68.35-.4-.16-.39.58-1,.37-.43-.1-.32-.31-.35-.72-.68,0-.56-.18-.19v-.43l-.32-.45h-.28l-.33.31-.29-.09-.34,0-.29,0-.26-.18-.1-.15-.22,0-.19.11-.2-.19h-.22l-.13.14h-.28l-.18-.1-.09-.23-.31-.06-.11.3-.46.08-.35-.09-.32-.22-.08-.23-.07-.48-.47-.08-.3.27-.35.14-.34-.33-.4-.08-.11.49v1l-.15.51-.05.61.2.35v.65l-.16.52.28.52-.11.34-.53.44-.08.44.11.5.35.33-.13.4-.11.62v.85l.15.15.26,0,0,.38.36.11.17-.3.12.12,0,.29.29,0,.26-.11.17.16.29-.05.12.32v1.16l.14,1,.35.21.6.41.25.58-.15.44-.24.6.5-.07.09-.33Z" transform="translate(-165.23 -123.46)" style="fill: rgb(210, 210, 230);"></path>
    <path data-id="1050" id="path6668" name="ZARZAL" class="cls-1" d="M272.41,164.45l-.07-.17.41-.26-.37-.19.16-.15-.35,0L272,164l-.11.35-.39.05h-.34l-.58.11-.55,0-.28-.22v.38l-.15.09-.1-.27-.24,0,0,.25-.21.45h-.39l-.34-.25-.05-.76-.47-.13-.26.11,0,.59-.22.31-.5.1-.53-.15-.2.18-.31-.32,0-1.18-.23-.09v-.52l-.32-.35-.37-.12-.22-.13-.19-.31L264,162l-.4-.16-.31-.4-.18-.27-.66-.17-.41.18-.27.41-.57,0h0l.22.35-.22.41-.22.4h-.25l-.16-.4-.44,0v.19l.25.28,0,.34-.47.09-.38.22.1.84-.35.13-.34.25v.56l-.69-.16-.22-.25h-.76l.22.59-.18.38L257,166l-.09.32.25.34-.29.34-.47-.31-.4.06-.13.21,0,.32,0,.25.75.22v.44l-.44.25-.56-.13,0,.31.15.31-.37.28h-.22v.57l-.25.25-.15.34.67.82.7.49.51.91,1.49,1,.62,1.13.51.06.64-.25.41.13.28-.3,0-.8.19-.77.34-.05,0,.18.68.08.08.48.28.4-.37.54.5.21.69,0,.19.13h0l.1-.46.18-.11,0-.17.14-.12,0-.31.06-.18.14-.08.18-.19.07-.28v-.32l-.09-.24.29-.46.14-.48.36.19.56.2.44-.06.21-.12h.23l.06-.21.33-.24,0-.29.12-.18.3,0,.06-.52.46.41.51.1.18-.29.43,0,.15-.75.26-.53.1-.57,0-.73-.31-.53.62-.69,0-.28.24-.24.34.07.36-.39.65-.32.17.06.28-.13,0-.21.24-.13.24-.27.36,0,.44.07.18-.1Z" transform="translate(-165.23 -123.46)" style="fill: rgb(210, 210, 230);"></path>
    <path data-id="1033" id="path6673" name="LA VICTORIA" class="cls-1" d="M272.94,163.49l-.15-.6.37-.15-.34-.31h.5l.31-.25h.25l.32-.35-.69-.28v-.43l-.25-.1.53-.28.06-.28.16-.12-.16-.25h-.22l-.31-.19.25-.4v-.32l.37-.06-.12-.4.27-.25-.19-.41.16-.09,0-.25-.35-.16.25-.25-.28-.09-.06-.12-.38.09.22-.38-.59-.14-.7,0-.12.4.13.2h-.32l-.18-.1-.06.23-.51,0-.06-.19-.34,0-.23.17-.47,0L270,157l-.53-.15-.35.2-.39-.07-.27-.62-.76-.13-1.17-.4L265,155.2l-1.29-.69-.33.21v.37l-.34.16v.25l-.22.34.25.22-.09.22-.44.06v.28l.47.1-.13.24-.38.22-.28.75-.56.47,0,.62-.51.47,0,.3-.78.6-.41.1.22.18.28-.12h.38v.19l-.25.12-.1.44.28,0,.29,0,.22.36h0l.57,0,.27-.41.41-.18.66.17.18.27.31.4.4.16.6.13.19.31.22.13.37.12.32.35v.52l.23.09,0,1.18.31.32.2-.18.53.15.5-.1.22-.31,0-.59.26-.11.47.13.05.75.34.26h.39l.21-.45,0-.25.24,0,.1.27.15-.09v-.38l.28.22.55,0,.58-.11h.34l.39-.05L272,164l.18-.31.31,0Z" transform="translate(-165.23 -123.46)" style="fill: rgb(210, 210, 230);"></path>
    <path data-id="1034" id="path6678" name="OBANDO" class="cls-1" d="M273.49,156.35l.28-.22.22.09.19-.18-.32-.31-.34-.34.58-.31v-.27h.22v-.26l.27-.18-.4-.17-.05-.27-.13,0-.22-.22.35-.31.09-.22.49-.13-.27-.31.13,0-.44-.49.24-.43-.24-.25-.28-.11,0-.25.14-.4-.51-.44-.88-.31-.9,0-.37-.15-.22-.37-.72-.25-.57-.24-.67,0-.43-1h-1.43l-.79.08-1.11.08-.64-.1-.41.53V149l-.16.22,0,.38-.38.06-.22.19.32.24v.22l-.57.47,0,.31.47-.06.72.12.13.47.38.47-.25.16-.51-.35-.4.1.22.53.31.18V153l-.57.15h-.53l-.24.22.08.41.29,0,.28.25,0,.44,1.3.69,1.54.66,1.18.4.76.13.27.62.39.07.35-.2.53.15.07.29.47,0,.23-.17.34,0,.06.19.51,0,.06-.23.18.1h.32l-.13-.2.12-.4.7,0,.59.15Z" transform="translate(-165.23 -123.46)" style="fill: rgb(210, 210, 230);"></path>
    <path data-id="1045" id="path6693" name="ULLOA" class="cls-1" d="M283.65,147.27l-.4-.13h-.71l-.62-.09-.27-.13-.8-.26-.26-.4-.85.05-.26-.31h-.67l-.23-.09-.39.13-.4-.22-.92.05-.23-.57.16-.32-.58,0-.15.22h-.37l-.52,0-.28-.61.18-.18.37.18.35-.4.14.45h.26l.14-.36.35-.31.27.22.49-.18.22.27.45.31.62.18,0,.36.22,0,.4.27.27-.23h.17v-.22l.36.14.31-.09.34.43.59-.12.34.23.72,0,.28-.23.58.22h.49l.35-.22.33.26-.14.86.23.68Z" transform="translate(-165.23 -123.46)" style="fill: rgb(210, 210, 230);"></path>
    <path data-id="1010" id="path6688" name="ALCALA" class="cls-1" d="M284.54,147.1l-.89.17-.4-.13h-.71l-.62-.09-.27-.13-.8-.26-.26-.4-.85.05-.26-.31h-.67l-.23-.09-.39.13-.4-.22-.92.05-.23-.57.16-.32-.58,0-.15.22h-.37l-.52,0v.36l.22.49,0,.84.22.17.62-.22h.22l.18.31.53.49-.24.57.06.29.49.14h.27l.35.4h.49l.71-.27h.31l.71.27h.36l.49.4.62-.09.31-.27.44-.08.71.22.8,0,.45-.09.27-.31.08-.62-.37-.62Z" transform="translate(-165.23 -123.46)" style="fill: rgb(210, 210, 230);"></path>
    <path data-id="1021" id="path4484" name="CARTAGO" class="cls-1" d="M270.2,139.17l-.14.14.32.42.41-.22.19.16-.09.34.18.22-.62,0,.37.22-.41.1,0,.12.41.29-.12.19-.32,0,.13.09-.1.35.35,0,.09.22-.15.31.75-.06,0,.22-.25.19.31.28H272l.44-.34h.19l.37.31.35-.44.31-.16-.09-.44.06-.12.22.28.22.06,0-.75h.29l.25.16h.31l.44-.44.25.12-.06.76.25.59-.22.32,0,.82-.18.31v.22l-.32.06-.06.17-.17.17.27.62v.35l.22.49,0,.84.22.17.62-.22h.22l.18.31.53.49-.24.55.06.31-.19.35v.37l-.6.75-.72.28-.19.25,0,.33-.22,0-.09.53-.27.44h-.3l-.25-.25-.28-.11,0-.25.14-.4-.51-.44-.88-.31-.9,0-.37-.15-.22-.37-.72-.25-.57-.24-.67,0-.43-1h-1.43l-.79.08-1.11.08-.64-.11h0v-.49l-.27-.91.14-.15-.09-.63.25-.28.25-.06,0-.53.47-.19.22-.21.66-.07-.07-.34-.34-.41.06-.4.41-.09h.53l.25-.22-.31-.41-.16-.22v-.21l.85-.19.28-.53-.59-.72.06-.28h.28l.76.34.4-.15-.56-.78-.16-.44.41-.46.35.15v.38l.28.24.31,0,.25-.4.5-.26Z" transform="translate(-165.23 -123.46)" style="fill: rgb(210, 210, 230);"></path>
    <path data-id="1012" id="path5257" name="ANSERMANUEVO" class="cls-1" d="M270.31,138.83l.27.11.15-.26.27-.18,0,.38.18-.2h.29l0-.74.6-.51-.06-.44-.25-.27,0-.07.27,0,.24-.22-.4-.43-.37-.13-.07-.55-.24-.29-.23.33h-.2l-.53.4h-.22l-.58.38-.42-.18-.58-.47h-.11l-.38.45-.69,0-.31-.58-.63-.49.06-.44.05-.15h-.55l-.19.24-.1.51-.31.25-.21.47-.14.87-.2.3-.66-.38-.67,0-.48.12-.34.24-.64-.11-.38-.18L261,137l-.39-.15-.67,0-.46-.29h0l-.55.09-.32.33h-.29l-.31.21-.28.39-.65-.26,0,.53.13.57-.51.61-.07.36.24.49-.69.38-.32.38.55.84.41.41.61.28.15.22.23.56.44.1.68.22.38.26.55.09-.06.39.38.44.48.14.32.6.39-.35,1.17.44.31.55.48.22-.08.38.63-.34.66-.09,0-.25.25-.28.25-.06,0-.52.48-.19.22-.22.65-.06-.05-.34-.35-.41.06-.41.41-.09h.54l.25-.22-.32-.39-.16-.22v-.22l.86-.19.28-.54-.6-.72.06-.28h.29l.76.35.41-.16-.57-.79-.16-.44.4-.45.35.16v.37l.28.25.32,0,.24-.4.5-.27Z" transform="translate(-165.23 -123.46)" style="fill: rgb(210, 210, 230);"></path>
    <path data-id="1023" id="path5262" name="EL AGUILA" class="cls-1" d="M254.72,131.86l.59-.81.27-1.08.27-.25v-.41l-.09-.29.34-.83.13-.23,0-.33.29-.27h.14l.81-.39.82-.31.9-.45.36-.43.09-.54-.06-.59.18-.29,0-.38.16-.14h.23l.22-.18.26,0-.06.7.4.57.33.08.23.66.66.36.05.44.44.36.15.56-.09.49.53.49v.53l.4.49-.13.4.22.13v.63l.31.22.09.4.45.13.35.27.26.37.44.23.67.33.31,0,.09.67-.31.31.09.45-.12.32h-.55l-.19.24-.1.51-.31.25-.21.47-.14.87-.2.3-.66-.38-.67,0-.48.12-.34.24-.64-.11-.38-.18L261,137l-.39-.15-.67,0-.46-.29-.55.09-.32.33h-.29l-.31.21-.28.39-.65-.26-.49-.66h0l-.5-.33,0-.35-.42-.89-.29-.87-.66-1.09-.06-.87Z" transform="translate(-165.23 -123.46)" style="fill: rgb(210, 210, 230);"></path>
    <path data-id="1024" id="path5270" name="EL CAIRO" class="cls-1" d="M243.92,142.07l.78-.95.31-.23.3,0,.55-.91.16-.78.31-.05.15.06.62-.16.78-.57.44-.83.09-.54.35-.46.64-.23.4.11,1-.54.76,0,.21-.27,1.05-.38.57-.45,0-.44.23-.18.1-.46-.27-.21.42-.8.84-.55.06.87.66,1.08.3.9h0l.41.88,0,.34.5.32.49.67,0,.53.13.57-.51.61-.07.36.24.49-.69.39-.32.37-.12.58.13.48v.44l.16.44-.22.5-.6.34-.86.73-.21.08-.23.19.1.66-.22.63-.41.75-.48.5-.37.1-.51.32h-.43l-.39.17h-.68l-.89-.58h-.41l-.92-.43-.65-.17-.53-.67-.23-1.22-1.24-1.61-.85-.2h-.56l-.08.16-.37-.18-.46-.25Z" transform="translate(-165.23 -123.46)" style="fill: rgb(210, 210, 230);"></path>
    <path data-id="1043" id="path5338" name="TRUJILLO" class="cls-1" d="M235.21,181.24l.74,0,.21-.29,1.05.33.53.31.28-.3h.48l0-.16.31,0,.08.1h.29V181l-.15,0,.11-.09h.2l.22-.39.29.08.12-.17.23-.1.11.11v.27l.26.06v.16l.14,0,.17-.17.34-.07.59.08.62.11.43.06.11-.25.25,0,.14-.17,0-.36h.35l.2-.09.19,0,.4-.15.24-.19.19-.49h.22l.15.22.42.22,0-.18h.53l.53.24.36-.14.31,0,.3,0,.28-.12.54.13.25-.07.33-.14.35.08.22-.7.69-.81.31-.65V177l-.39-.4.13-.49.28-.41.19-.43,0-.41.22-.15.44.09.41-.09-.23-.48-.48-.11-.14-.25-.46-.1-.19-.35-.54-.05.16-.53-.19-.26-.16-.93-.37-.34-.69.7-.15.3-.74.56-.18.43-.4.07-.26.2-.42-.08-.25.16-.72-.2-.55,0-.21.27-.26,0-.29.3-.27-.51-.28,0-.32.15-.23-.16,0,.44-.35.09-.25-.1v.3l-.23.24-.49-.58v-.29l-.22-.19-.09-.32-.4-.41L241,173l0,.73-.29.4h-.5l-.72.32-1,0-1.11.18-.32.13-.05.53-.46.3-.19.52-.43.32.16.35v.42l.2.18.47.5-.06.61.3.71,0,.23.21.54-.31.38-.43.14-.49.37-.6-.08-.54.46Z" transform="translate(-165.23 -123.46)" style="fill: rgb(210, 210, 230);"></path>
    <path data-id="1038" id="path5333" name="RIOFRIO" class="cls-1" d="M230.3,184h.2l.58-.31.4-.27.91.1,1,.91.23,1.41h0l-.3.81.41.87.47.39.84,0,.34.19.11.26.34-.23.42.14.92-.61.32.29.41,0-.26.5.07.1,0,.19.42-.15.42.14-.32.34.54.33-.18.64.7.43.31-.1.28,0,.39-.25.67,0,.37-.4.55-.17.07-.31.34-.22-.31-.68,0-.3.18-.3.52-.25.35.08.66,0,.58-.24.45-.1.67,0,.62-.45-.24-.28.11-.33.51.13.16-.2-.49-.55-.18.11-.2.46h-.33l-.18-.35.47-.44-.36-.31v-.24l.74-.09.31-.64.35-.16v-.13l-.49-.11,0-.2.64-.28.29-.27,0,.66.22.2v.44h.29l.15-.37,0-.55L248,183l.46,0,.76-1.1.51-.4.42-.79-.56.07-.31-.44.22-.53.06-.33-.35-.07-.33.14-.25.07-.54-.13-.28.12-.3,0-.31,0-.36.14-.53-.24h-.53l0,.18-.42-.22-.15-.22h-.22l-.19.49-.24.19-.4.15-.19,0-.2.09h-.35l0,.36-.14.17-.25,0-.11.25-.43-.06-.62-.11-.59-.08-.34.07-.17.17-.14,0v-.16l-.26-.06v-.27l-.11-.11-.23.1-.12.17-.29-.08-.22.39h-.2l-.11.09.15,0v.22h-.29l-.08-.1-.31,0,0,.16H238l-.28.3-.53-.31-1.05-.33-.2.28-.76,0-.49,0-.46.45-.7.12-.56.07-.45.4-.57-.08-.6.44-.17.08-.09.35-.46.21-.29.4v.19Z" transform="translate(-165.23 -123.46)" style="fill: rgb(210, 210, 230);"></path>
    <path data-id="1019" id="path5324" name="CALIMA (DARIEN)" class="cls-1" d="M230.21,184.14l-.33.21.16.23.05.56-.19.17.06.29.29.17,0,.31-.29.32-.65,0-.3.18-.18-.08-.09.19.27.31,0,.48-.53.42-.5,0-.25.31-.05.23-.27,0-.25.25-.21.16-.42.1-.34.53-.14.23-.7.17-.12,0-.3.16-.27.53-.67.31-.19,0-.63.61.09.43-.28.13-.4.5-.67.13-.27.37-.34.17-.88-.52-.12-.19-.3-.21-1.61-.1-1-.25-.35-.35-.92-.28-.29.23-.48-.29-.62-.75-.76-.19-.69.19-.67-.18-.5-.69h-.5l.38-.5-.88-.62-1.06.07-.22.4-.49.26.16.25.22.27,0,.25-.58.78-.45.42-.53,0-.26.44v.58l.28.65.35.33.17.24.33.15.53-.27-.17.41.13.13.18-.11.12.15-.06.24.14.09,0,.27.16.16-.08.43.08.47.4.15,0,.53.17.22V197l-.19.29.11.25.34.05.27.5.37.23.59.2.63.26.46.23.56-.1.54.46.13.37.48.13.74-.05.25.17-.14.42.16.5.52.71.36.12.44.35.39.48.71.64.3-.7.35-.81.19-.64.27-.61.45-.35.72-.29.43-.12h.67l.41-.44.46-.2.6.12.21.47.1.84.31.4h.34l1-.9.87-.11.93,0,.56-.34.51-.09.42-.27.25.07,0,.31.21.12.19-.23.24.08.27-.28.4-.21.54.36.23.16.14.31.31-.09.69-.38.25,0,0,.31.43.39.29-.33.51-.14.18.29.51-.34h0l.28-.08h.71l.56-.08.15-.65.08-.74.48-.66.07-.46-.07-.52.45-.54.93-1,.33-.16-.44-.52.45-.16.7-1,.4-.27.3-.16.38-.07-.66-.61-.6,0-.34-.3.11-.35.24-.25-.09-.3.08-.71.18-.64-.54-.33.32-.34-.42-.14-.42.15,0-.19-.07-.1.26-.5-.41,0-.32-.29-.92.61-.42-.14-.34.23-.1-.26-.35-.19-.84,0h0l-.47-.39-.41-.87h0l.29-.8-.23-1.42-1-.92-.9-.09-.4.27-.58.31h-.2Z" transform="translate(-165.23 -123.46)" disabled="disabled" style="pointer-events: none;"></path>
    <path data-id="1030" id="path5311" name="JAMUNDI" class="cls-1" d="M216.8,246.27l.57.59.63.19.37.34,1.51.34.25.28.47.13.54.65.34.1.32-.25.28.18.22,0,.19-.25.19.25H223l.06-.21.47-.25.22-.28,0-.53.25-.07.22-.43.35-.06.25.28v.43l.19.22,0,.65.41.47,0,.19.34.12.25-.28.13.1.5.06.16-.22-.38-.44.13-.15.25.22.38-.16.06-.28L227,248l.25-.31h.22l.22-.15.19.12.19-.09-.1-.41.22-.22.25.07-.09.56h.41l-.13.56.44.5.32-.22.4.09.26-.15-.6-.38,0-.37h.25l0,.28.72.31.32-.19-.1-.28.1-.37.22,0,.06.5.32-.25h.5l.28-.25-.13-.13h-.59l0-.37-.6-.44.41,0,.22.13.31-.16-.25-.34.32-.06v-.19l-.32-.19.25-.18.07.09h.44l.34.41.32,0v-.47l-.41-.34.38-.32.21-.81h.26l.22.07.15-.28-.44-.35.29-.09.15-.13H234l0-.24h-.38v-.41l-.28-.09-.13-.22.44-.44,0-.47.13-.06.19.19.31-.13.09-.37h.16l.19.28.19,0v-.47l.31-.09.19-.16-.19-.15h-.63l-.09-.19.31-.19-.15-.34.15-.22.22.22.35,0-.13-.31.29-.12-.07-.29h-.59l-.16-.24.28-.25.38.31h.25l.13-.47-.44-.42-.42,0,0-.2.3-.2-.16-.19h-.67l-.2-.22.14-.18.32,0,.1-.34-.66.12-.39-.22-.13.37.31.27-.05.48-.31-.44-.22,0,.4.75-.6-.36v-.13h-.49l0-.09h-.36l-.26-.22-.32-.27-.35,0h0l-.95.51-.13-.27-.42-.27-.43.26-.47-.41-.08-.31,0-.31-.39-.08-.38-.26-.24-.93-.2-.3-.44.16-.3-.08-.24.18-.1.37-.52.18h-.26l-.37.37-.58-.12L224,236l-.57.07-.63-.34-.44-.63-.62.07-.61-.09-1,.17v-.51l.18-.77,0-.68-.4-.45,0-.3-.54,0-.31.5-.41.48-.51.09-.17.48-.31.54,0,.76-.48.21-.26.48,0,.63-.28.33,0,.54-.68,1-.54.07-.44.09-.47.52.17.78-.44.44.26.45.07-.08.12-.33.56-.15v-.12h.14v.1l.46.35,0,.34.16.22.17.13,0,.1.38.25v.12l-.13,0,0,.32-.06,0v.16l.69.32.07.17-.2.1v.16l.57.22v.14l-.29.07,0,.05.16.09.1.25-.12.11v.13l.19.12L217,245l-.12.38-.22.32Z" transform="translate(-165.23 -123.46)" style="fill: rgb(210, 210, 230);"></path>
    <path data-id="1009" id="path5304" name="CALI" class="cls-1" d="M235.38,233.37l.16-.24,0-.72-.24-.27,0-.44-.31-.77.15-.15.19-.09.12-.66-.34-.75,0-.31.34-.41.19-1-.32-.37-.2-.61-.33.24-.22-.17v-.4l-.17-.65.22-.48-.22-.57-.34-.44-.06-.49-.21-.14v-.23l-.16-.12-.42,0-.69.27-.07.29-.68-.23-.18,0-.15,0-.56-.39-.48,0-.49-.21-.39-.52-.64-.12-.4-.36-.56-.17-.44-.35-.18-.5,0-.55L227,220l-.5.07-.31.34-.22.34-.26.33-.27.12,0,.56-.24.28-.08.39.07.53-.21.47-.18.45-.42.2-.46.34-.16.33-.21.41-.59.18-.59-.13-.3.31-.32.14-.15-.18-.23.08h-.16l0-.16-.19.15-.27.13-.1.31v.38l-.2.15-.17.18h-.35l-.05.19-.11.12.08.33-.17.11,0,.31.18.13.13.49.16.11,0,.76.23.45.39.43-.07.55-.21.36v.54l-.28.48-.23.18,0,.34,0,.3.4.45,0,.68-.18.77v.51l1-.17.61.09.62-.07h0l.44.63.63.34L224,236l.68-.41.59.12.37-.37h.26l.52-.18.1-.37.24-.18.3.08.44-.16.2.3.24.93.38.26.39.08,0,.31.08.31.47.41.43-.26.42.27.13.27.95-.52.35.05.31.26.27.22h.35l.05.09H233v.13l.6.37-.4-.74.22-.05.31.44.05-.48-.31-.26.13-.38,0-.44.1-.41.15-.12.13.43.41.35.25-.16.06-.31.13-.25v-.41l-.41-.31.13-.22h.21v.22l.32.25.09-.12v-.31l.19-.07.19.07-.06-.41.19,0,.15-.2Z" transform="translate(-165.23 -123.46)" style="fill: rgb(210, 210, 230);"></path>
    <path data-id="1027" id="path5298" name="FLORIDA" class="cls-1" d="M243.08,237.41l.35-.21.28.09.44-.19.38.19.53-.13.28.1.13-.28,1-.06.25.12.07.16h.44l.12.12,0,.19.19.18.06-.12.48,0,.09-.22.22-.25.19.22h.15l.1.22.19-.13.28.1.09.21.22-.12h.57l.22-.12.38.09.18.31.35.16.31.43.29.13.31.59.09.65.35.5.28.31.1.25.18-.18h.32l.25-.44.09.13.32.12.28,0,.16.09v-.24l.22-.16.15.12.41-.15.19.06v.31l.13.31H256l0,.13.31,0,.35-.12.12.12.29-.16.25,0,.09.16.35.06.31-.15.16-.19.34,0,0,.18.6.25,1.1.28.53.22.16.22.16-.12.37-.13.38-.1.22-.38-.39-.36.22-.48.54-.47.4-.37-.08-.41-.25-.45,0-.94-.22-.18v-.22l.28-.35.19-.46.3-.21.06-.28-.53-.4,0-.57-.47-.53L262,234l0-.75-.29-.28-.23-.28-.36-.27-.12-.34-.31-.33-.43.08-.3-.23.17-.92-.28-.31-1.16-.09-.64.36-.58.11-.18-.21-1.13.05-.51.11.06.24-.48.41-.43.12-.72.6-.72.27-.75.09-.88-.19-.4-.2-.38-.56-.63-.16-.78.27-.35.47-.28,0-.44.46-.57.07-.36-.11-.38.17-.28-.25-.89-.59-.95,2.4-.4,1.38v.3l-.39-.13.05-.23-.51-.18-.68-.06.29.53-.52.79.4.42h0l-.33,0Z" transform="translate(-165.23 -123.46)" style="fill: rgb(210, 210, 230);"></path>
    <path data-id="1036" id="path5293" name="PRADERA" class="cls-1" d="M261.67,232.38l.7-.3,0-.53.21-.31.45-.21.44-.33.1-.38-.25-.24-.55-.1-.14-.59.4-.7,0-.46-.24-.33L263,227l.2-.72-.2-.39-.69-.33-.32.25-.6-.08-.53-.55.09-.38-.22-.34-.5-.06-.94-.17-.31-.27-.44-.15-.5.53-.42.48-1.05-.21-.48.11-.59-.27v.47l-.33-.07-.3.14-.61-.17-.58-.33-.58.25-.92-.11h-1.41l-.44-.22h-.63l-.53-.22-.39.17-.47.11-.32.18-.59-.05-.49.19-.16.09.5.26-.35,1-.63.72-.06.62-.6.65-.06.72L245,229l-.09.38.15,0-.22.62,0,.19-.17-.16-.64,0-.1.31.41.46.85.19.1.46.44,0,.32.32.89.59.28.25.38-.17.36.11.57-.07.44-.46.28,0,.35-.47.78-.27.63.16.38.56.4.2.88.19.75-.09.72-.27.72-.6.43-.12.48-.41-.06-.23.51-.12,1.13-.05.18.21.58-.11.64-.36.54,0,.62.08.28.3-.17.92.3.23.43-.08.31.34.12.33.36.26Z" transform="translate(-165.23 -123.46)" style="fill: rgb(210, 210, 230);"></path>
    <path data-id="1035" id="path5287" name="PALMIRA" class="cls-1" d="M263.69,226.12l.12-.87.33-.53-.39-.78.68-.73.06-.4,1-.84.13-.91.54-.62,0-.48.47-.69-.36-.46,0-.48.32-.21.11-.53-.62-.53,0-.46-.09-.51.35-.24v-.75l-.34-.57.36-.44h.31l.45-.44L267,213l.14-.26.23-.08.18.15.27-.17.3.13.18,0,.26-.59.24,0,.1-.32-.35-.09-.05-.53-.43-.42.26-.23-.08-.23.11-.4-1.43-.81-.74.13-.86-.07-1.39,1.18-.09.32-.56.44,0,.31-.27.23-.33.05-.66.7-.07.37-.22.23h-.27l-.27.36-.07.27-.37.24-.14.5,0,.53-.3-.07-.33.43-.48,0-1.13.48h-.85l-.37-.21-1.35.31-1.3.28-.56-.48-.8-.2-1.9-.11h-1.41l-.49.13-.76.53-.52.1-.69.37-.52.05-.18-.15-.78-.09-.33-.21-.44,0-.84.05-.38-.36-.22.06-.22.22-.25-.25h-.32l-.21-.28-.51-.13-.4-.52-.16-.29-.31-.27.06-.31-.44-.25v-.28l-.6.07-.37-.41-.59-.47-.35-.15-.33-.37,0-.28-.4,0-.18-.51h-.31l-.18.29-.14.7-.84.33,0,.34.47.37-.07.22h-.34l-.16.15.13.31-.22.23,0,.62H236l-.19.31.09.31,0,.71.25.34-.32.13-.25-.19,0,.31.28.56-.21.5v.62l-.12.49-.38,0-.28-.09-.66.19-.25.46.13.31.72.29.4.43-.09.25h-.35l-.15-.25-.28-.06-.47.31v.79l-.25.49.13,1,.15.13v.21l.22.16.06.48.33.43.24.57-.22.49.16.65v.4l.22.17.34-.24.11-.27.53-.41h.33l.09.26.53.28.16-.21.38-.1.44-.05.59.14.36-.27.28.15.38-.09.6.05.44.2.6,0,.25-.22,1.23-.29.3-.33.34.14.41.1.21.21.58,0,.22-.2.29-.07.65-.65.5-.12.34.18.33-.19.16-.09.49-.19.59.05.32-.18.47-.11.39-.17h0l.53.22h.63l.44.22h1.4l.93.11.58-.25.58.33.61.17.3-.14.32.07,0-.47.59.27.48-.11,1.05.21.42-.48.5-.53.44.15.31.27.94.17.5.07.22.34-.09.37.53.56.59.06.32-.25.69.33.21.41Z" transform="translate(-165.23 -123.46)" style="fill: rgb(210, 210, 230);"></path>
    <path data-id="1025" id="path5280" name="EL CERRITO" class="cls-1" d="M269.56,208.15l-.48-.16-.75-.55-.5-.12-.81-.61-.29-.47-.1-.48.17-.37,0-.43-.12-.52-.23-.45-.38-.35-.48-.39-.11-.24-.79-.44-.4-.26-.17-.44-.64.95,0,.6-.19.59v.7l-.42.68h-.69l-.19.17,0,.34-.2.15h-.33l-.17-.17-.07-.43-.7-.19-.26.47-.38.31-.33.88-.56.61-.37.75-.11.4-.39.75,0,1.14-.34.37-.68,0-1.05-.53-.75-.11-.29.29-.39,0-.47.15-.38,0-.28.17-.11.68-.31.82-.45.28-.64-.05-.59-.37-.06-.56-.31-.36-.41-.22h-.62l-.45.22L249,211l-.36,0-.75-.15-.38-.21-.86-.13-.27-.22H246l-.79-.41-.39-.09-.79-.43-.45-.35-.73-.29-.6-.45-.54-.09-.6-.31-.54-.42-.33-.76-.39-.76-.37.18-.06.59.06.59-.19.39-.06.95-.28.34v.53l-.94.49-.1.55.29.31h0l-.11.47.17.5.4,0,0,.27.33.37.35.15.59.46.37.42.6-.07v.28l.44.25-.06.31.31.27.16.29.4.52.51.13.21.28h.32l.25.25.22-.22.22-.06.38.36.84-.05.44,0,.33.21.78.09.18.15.52-.05.69-.37.52-.1.76-.53.49-.13h1.41l1.9.11.8.2.56.48,1.3-.28,1.35-.31.37.21h.85l1.13-.48.48,0,.33-.43.3.07,0-.53.14-.5.37-.24.07-.27.27-.36h.27l.22-.22.07-.37.66-.7.33-.05.27-.23,0-.31.56-.44.09-.32,1.39-1.18.86.07.74-.14,1.43.82.15-.57h.44l.25-.36-.17-.26.1-.3h.27l.28-.13Z" transform="translate(-165.23 -123.46)" style="fill: rgb(210, 210, 230);"></path>
    <path data-id="1016" id="path5275" name="BUGA" class="cls-1" d="M270.29,208l.4-.39.71-1.5.05-.36.44-.44.09-.7v-.4l.18-.22h.32l.14-.4-.13-.48.64-.1.63-.43.65-1,0-.53.6-.26,0-.41-.5-.31,0-1,.19-.35,1-.86.21-.56h-.4l-.58-.47-.59-.48-.46-.66h-1l-.85.25-.75.31-.34.47-.41.31h-.91l-.19.15-.82-.09-.19-.09-1-.1-.6.1-.41.55-.58.28-.58-.07-.66,0-.39-.29-.39-.06h-.47l-.51-.07-.53.07-.25-.16-.41.07-.36-.06-.38.14-.25-.25-.51-.17-.19-.72-.08-.42.21-.57-.2-.93-.38-.05-.15-.19-.28-.34-.36.49-.05.41-1,1.09-.31.68-.79.58h-.53l-.5-.53-.19-.53h-.72l-.32-.12-.38.21-.22.22-.25-.37-.25.28H253v-.53l-.69-.56h-.44l-.35-.08-.34,0-.39-.2-.19.21-.15-.36-.53,0-.15-.61-.29-.33-.6-.06-.58.09-.63-.11-.36-.24-.34-.19-.27-.56-.2-.24-.36-.29-.5-.28-.26.25-.31.13L245,192h-.25l0,.4-.35.32.31.15v.19l-.34.09.25.22.31.09,0,.19-.44.12-.22.53.32.22.12.19h-.41l-.34-.1.12.22.38.22-.31.12h-.35l-.19.34.35.1.44.34-.09.28-.63-.12-.57.15v.25h.44l.07.16-.19.12.06.28-.41.28.07.28-.38.34v.22l-.25.19.16.29-.5,0-.22.22.22.12-.34.28v.22l-.19.68-.54.41v.66l.32.4-.13.25-.47,0-.15.25.47.31.27.35.36.4.14.88.26.09.31-.31h.34l.27.18.43,0L244,204h.53l.53-.05.25-.29h.24l.18.22H246l.12-.16.47-.12.27-.4.14-.51.35-.52v-.43l.24-.32.22-.09.35-.54.55-.17.15.45.14.31.55.26.44-.06.4-.29h.79l.61.42.55.2.67.52.42.71.52.59.25-.44.46-.12h0l.28-.28.31-.38.32-.28.45-.19.13-.25.32,0,.31.15.19.33.4.09.22-.24.53.26.35.44.28,0,.48.25.37.46.13.55.4.05.15.3-.19.51.3.36.7.19.07.43.17.17h.33l.2-.15,0-.34.19-.17h.69l.42-.68V204l.19-.59,0-.61.64-.94.17.44.4.26.79.44.11.24.48.39.38.35.23.45.12.52,0,.43-.17.37.1.48.29.47.81.61.5.12.43.33.32.22.48.16.08.16Z" transform="translate(-165.23 -123.46)" style="fill: rgb(210, 210, 230);"></path>
    <path data-id="1044" id="path6658" name="TULUA" class="cls-1" d="M276.88,197l.07-.28-.35-.68.12-.79.13-.68-.26-.47-.62-.51,0-.53-.11-.9-.23-.47.42-.81,0-.35-.56-.54-.23-.47-.37-.36.28-.47-.1-.93v-.31l-.28-.4v-.44l-.56-.68-.66-.35-.38.1-.43-.14-.42.12-.21-.19v-.71l-.21-.5v-.67l-.09-.62-.16-.18-.06-.53.44-.56.22,0,0-.19-.47-.68-.53-.25,0-.25.15-.16v-.34l-.44-.25-.22,0-.25-.25-.75-.12-.06-.22-.54.25-.12.19-.3.14-.08.38-.41.32H268l-.06.34-.44.43-.28.72-.28.65-.17.2,0,.34-.33.75-.3.09,0,.27-.52.47-.37,0-.28-.16-.48.27-.28,0-.17-.07-.41.36L263,185l-.68.09-1,.53-.32-.18-.78.9-.2.49-.16,0v-.37l-.36-.05h-.32l-.83.41-.59-.79,0-.67-.14-.32,0-.32-.33-.49-.09-.27-.36-.3-.45-.09-.26-.28-.39.12-.3,0-.14-.13-.67.08,0-.19-.2-.26v-.29l-.32-.24-.5,0-.19.16-.2,0-.2-.23-.23-.07h-.29L252,182h-.26l-.2-.22h-.17l-.16-.2H251l-.13.07-.08.12,0-.49-.15-.35-.3-.28-.22,0h0l-.42.79-.51.41-.76,1.1-.46,0-.16.26,0,.55-.15.38h-.29v-.44l-.22-.2,0-.66-.29.26-.64.29,0,.2.49.11v.13l-.36.15-.3.64-.73.09V185l.36.31-.47.44.18.35h.33l.2-.46.18-.11.49.55-.16.2-.51-.14-.11.33.22.29.37.18.07.38-.25.4.19.3.31.35.11.24h.37l.45-.16.48,0,.42.3.64,0,.28.16H250l.69.19.24-.26.32-.09.55-.2h.69l.65.18.59,0,.19.09,0,.93h0l.22.45.74.11.57.22.73.47.58.88.18.63.51.49.47.11,1.21.65.28.33.15.19.38.05.2.93-.21.57.08.42.21.71.49.18.25.25.38-.14.36.06.41-.07.25.16.53-.07.51.07h.47l.39.06.39.29.66,0,.58.07.58-.28.41-.55.6-.1,1,.1.19.09.82.09.19-.15h.91l.41-.31.34-.47.75-.31.85-.25h1l.46.66,1.17.95h.4l.08-.2.35-.21.31.45.44-.06,0-.37Z" transform="translate(-165.23 -123.46)" style="fill: rgb(210, 210, 230);"></path>
    <path data-id="1041" id="path6651" name="SEVILLA" class="cls-1" d="M275.22,164.85l-.21-.09-.22-.37-.43.22h-.16l-.1.18-.18-.06-.73,0-.09-.19-.09.1-.15,0-.19.1-.44-.07-.36,0-.24.27-.24.14,0,.2-.28.13-.17-.05-.65.31L270,166l-.34-.06-.24.24,0,.28-.62.69.31.53,0,.73-.1.57-.26.53-.15.75-.43,0-.18.29-.51-.1-.46-.41-.06.52-.3,0-.12.18,0,.29-.33.24-.06.21h-.23l-.21.12-.44.06-.56-.2-.36-.19-.14.48-.29.46.09.24v.32l-.07.28-.18.19-.14.08-.06.18,0,.31-.14.12,0,.17-.18.1-.05.19-.05.28.32.31.69.15.32.34.35.22.41.07.31.39.63.13.3.34.76.17.36.48-.13.44.25.27-.1.33.36.31.45.5.25.31h0l.32-.15.12-.19.54-.25.06.22.75.12.25.25.22,0,.44.25v.34l-.15.16,0,.25.53.25.47.68,0,.19-.22,0-.44.56.06.53.16.18.09.62v.67l.21.5v.71l.21.19.42-.12.43.14.38-.1.66.35.56.68v.44l.28.4v.31l.1.93-.28.47.37.35.23.48.56.54,0,.35-.42.81.23.47.1.9,0,.53.62.52.26.47-.13.67-.13.79.36.69-.07.26.26-.1.83-.77.1-.78,0-.44.2-.33.07-.52.55-.5.18-.74,0-.72-.22-.42.3-.3v-.49l.32-.29.5.38.45-.09.17-.58.06-.43.51-.23.47-.63.54-.58V188l.42-.21.05-.35-.53-.34,0-.45-.31-.4-.61-.15-1.15.08-.13-.26-.05-.49-.27-.21v.2l-.58,0-.52-.32-.64-.06-.79-.4h-.53l-.09.12-.3,0,0-.44.4-.33v-.43l-.31,0-.31-.67.2-.19-.22-.51.08-.19h.09l.07-.17-.15-.11,0-.53.37-.41,0-.34.72-1.42.26-.3.18-.62-.23-.3-.23-.43-.33.05-.35.2-.18.46h-.52l-.22.14-.19-.12-.16-.31-.21-.13-.13-.28-.37-.07-.34-.38v-.39l.23-.46v-.35l.09-.51v-.41l-.47-.49-.19-.35-.53-.23,0-.35-.16-.26,0-.22-.13-.2,0-.28-.21-.41.19-.31.31-.23.17-.41.2-.22.17-.56.34-.24.26-.49v-.24l.25-.35.07-.66.24-.35.38-.2.13-.27-.12-1.37-.25-.1-.22-.59-.13-.19.38-.06.28-.29" transform="translate(-165.23 -123.46)" style="fill: rgb(210, 210, 230);"></path>
    <path data-id="1018" id="path6567" name="CACEDONIA" class="cls-1" d="M275.2,164.85l-.28.28-.38.06.13.19.22.59.25.1.12,1.37-.13.27-.38.2-.24.35-.07.66-.25.35v.24l-.26.49-.34.24-.17.56-.2.23-.17.4-.31.23-.19.31.21.41,0,.28.13.2,0,.22.16.26,0,.35.53.23.19.35.47.49v.41l-.09.51V176l-.23.46v.39l.34.38.37.07.13.28.21.13.16.31.19.12.22-.14h.52l.18-.46.35-.2.32,0,.17-.7.44-.36-.1-.15V176l.09,0,0-.33.28-.11.27-.49v-.46l.45-.32h0l.18-.46v-.31l.25-.15,0-.53.16-.13.09-.31.09-.09.07-.16-.22-.22.08-.23-.41-.13.12-.34-.27-.26.21-.51.17-.29.14-.44-.21-.5-.1-.28.41-.24-.09-.22-.38-.19.16-.4-.25-.19-.16,0-.19-.19,0-.37-.26-.18.2-.21,0-.51.24-.12.07-.22-.38-.33-.41-.13-.16-.12-.38.21-.08-.36-.22.13-.11-.19-.32-.28-.12.34-.38.18-.17-.48h-.25l-.26.08" transform="translate(-165.23 -123.46)" disabled="disabled" style="pointer-events: none;"></path>
    <path data-id="1015" id="path6533" name="BUENAVENTURA" class="cls-1" d="M191.53,211.07l.25-.14.19-.25-.14-.22-.29,0,0,.22-.08.06Zm-2.61,3.37-.2-.13-.22-.33-.4-.27h-.24l-.14.2-.26.18-.05.44-.18.26-.17,0,0-.18.2-.13,0-.51.14-.35.17-.07-.24-.22v-.17l.18-.22,0-.22-.17.2h-.25l0-.16.2-.22.51,0,.33.06v.16l-.31.09.13.17.05-.13.42-.11.58.26.17.14.25.08,0,.33-.24.47-.18,0ZM193,203.76l.11-.11,0-.45.39-.25-.23-.13.25-.12.27.3.21-.09-.23-.34-.43,0-.14-.16h-.18l-.11.14-.18-.05.11-.18v-.11l-.41,0-.36.16h-.36l-.14.15.18.05,0,.25-.16.13.16.32.18.11.11.16.16-.27.18-.2h.14l0,.11.25.18v.22Zm-1.55-.81-.36.07-.16-.11-.25.24-.18,0,0-.32.39-.18-.11-.38.22-.18.18.13v.34l.32.21Zm.41-.81-.32.09-.22-.23-.39,0-.07-.14h.5l.18-.22.32,0v.15l-.16.14.41-.05.48.14v.27l-.41-.07Zm-1.78,3.64h-.33l-.16-.16-.2.09-.38,0-.08-.17-.14,0-.15.13h-.56l-.15.09h-.2l-.07-.13.27,0,.26-.25.27.11.2-.08,0-.34.14,0,0,.29.11.11,0-.24.11-.18v-.7l-.22-.91-.36-.37v-.22l.11-.18H189l.22.31-.05.28-.13.07v.13l.22.31.16-.11-.25-.26.11-.4.4-.11.09.11.51,0,.07.14-.18.15,0,.18h.18l0-.14.25,0,.15.2.13.4.27.44-.09.28,0,.42-.49.4h-.15l-.07-.31.31-.4v-.48l-.07-.05-.06.36-.43.57.07.24.09.14Zm1-.53-.36.28-.06.16.13.09.46,0,.58-.14h.79l.15,0-.28-.06h-.66l0-.08.28,0,0-.18h-.25l0-.25-.44-.44-.16,0,0,.42.23,0,.33,0-.22.06,0,.15.24.17-.1.07Zm-1.74.89-.32.07-.28,0h-.44l-.1-.09h.19l.16-.16h.72l.16.08Zm2,.6-.32,0-.36-.3-.55-.11-.22-.16.21-.14.17.07.05.07.26.07v-.11l.18-.14.18.08,0,.32.14.11,0,.06.33.07Zm.69,3.71.23-.16,0,.1h.38l0-.08-.44-.49h-.22l-.2-.09,0-.09-.58,0-.13-.09-.16.11h-.47l-.31.23v.31l.3.21.19-.13.21-.28h.39l.16-.12.33,0-.15.11,0,.1h-.16l.11.22.3,0Zm-2.14.78.25,0,.11-.49.22-.09,0-.16-.41,0-.3-.22h-.19l-.14.12-.22.19,0,.31.15.24.22-.08.07-.13.07.05v.2Zm1.87-2-.53-.17-.19,0L191,209l-.28.2-.16.24-.6.17-.31.2-.19-.12.16-.25-.14-.19v.27l-.11.11,0,.09.2.12v.1l-.25.15-.08.16H189l-.3-.21.21-.25v-.21l-.21-.09-.06-.16.14-.12-.14-.06-.16-.36-.16,0,0,.11.13,0,0,.32.13.09v.22h-.22l0,.1.19,0-.07.22.16.42.11.09,0,.22-.18.12-.4.67-.55.32-.15.09-.17-.13-.55-.31,0-.12.17,0,.06-.09.14,0,.28.36h.15l.23-.53.25,0-.11-.14v-.23l-.22-2.22-.15-.23.26-.08.05-.16-.17-.2,0-.61.22-.2-.15-.2-.33,0-.1-.12.17-.11.53.14.57.51v.27l-.42.08.28.06.35-.14.08,0v.17l.23.09v.13h-.25l-.33.26.06.39,0-.31.37-.17.06.08v.25l.11.09,0-.4.13-.15.31,0,.5.28.24.48.41.36.45.07.1-.14v-.16l.16-.09.15,0,.08.18-.08.18,0,.17Zm-.06.19h-.61l-.35,0-.09-.15.29-.21.35.13.61.12Zm2.34-4.32-.31-.11-.23-.29v-.23l.07-.11-.16-.31-.21-.21v-.27l.23-.09-.11-.22.06-.14.25.16v.25l-.18.2.05.2.27.27,0,.39.06.18.3.2Zm-.69-5.91.2,0,.42-.46.48-.2.12-.34-.34-.33-.26-.36h-.22l0,.26v.53l-.3.42-.18.16-.06.22Zm2.48.35h-.62l-.54-.24.16-.11,0-.14L195,199l.2.24.26.11.44,0,.2.14Zm.52,0,.12-.14v-.35l.34-.32,0-.44-.5-.51-.68-.2-.24.14H195l-.12.12.1.1.2.06.14.15v.22l.1.08h.28l.1.18.4.18.1.22v.27Zm17.85,40.92.44-.44-.17-.78.47-.52.44-.09.54-.07.68-1,0-.54.28-.33,0-.63.26-.48.48-.21,0-.76.31-.54.17-.48.51-.09.41-.48.31-.5.54,0,0-.34.23-.18.28-.48V231l.21-.36.07-.55-.39-.43h-.7l-.11-.39-.09-.52-.37-.3-.07-.37-.36-.32-.64,0-.39-.19-.66-.09-.1-.37.08-.6-.58-.58.14-.28-.52-.27-.92-.12-.23-.35,0-.56-.46-1-.51-.43-.38,0-.13-.25.11-.37-.5-.43,0-.53-.31-.66-.29.22-1.31-.54-.48-.32-.62,0v-1.08l.39-.53,0-.52-.46-.6-.55-.26-.45-.57-.53,0-.53-.45.26-.51.75-.63.61-.23h.37l.34.17.24-.22.62.32.5,0,.36.2.93-.74.08-.6.59-.24v-.47l.34-.46-.14-.64.22-.37-.29-.6-.56-.44-.69-.27-.29-.44,0-1,.41-.33.15-.63-.33-.56-.16-.46,0-.45.39-.28.66-.24.91.16.44-.39h.3l-.25-.39.38-.17.08-.85.4.38.3.09.45.43.48-.29-.08-.55.27-.79.41-.16,1-.07-.71-.64-.39-.48-.44-.35-.36-.12-.52-.71-.16-.5.14-.42-.25-.17-.74.05-.48-.13-.13-.37-.54-.46-.56.1-.46-.23-.63-.26-.59-.2-.37-.23-.27-.5-.34-.05-.11-.25.19-.29v-.48l-.17-.22,0-.53-.4-.15-.08-.47.08-.43-.16-.16,0-.27-.14-.09.06-.24-.12-.15-.18.11-.13-.13.17-.41-.53.27-.33-.15-.17-.24-.35-.33-.28-.65v-.58l.26-.44.53,0,.45-.42.58-.79,0-.24-.22-.27-.16-.26.49-.25-.77-.44-.09-.78h-.21l-.27-.24.15-.63-.8-.51-.4-.1-.23-.11v-.64l-.28-.18-.41.16-.26-.25.13-.29-.23-.39-1.12-.38-.46.15-.59-.55.15-.72-.87.06-.6.34-.89-.06-.25-.44-.38-.18-.5,1-1.31.75-1.44-.06-.87-.31-.44.37-.75-.19-.44-1.05-.49.29-.1.55-1.09.07-.06-.82-.94-.83-.2-1.27-.44-.66-.75-.56-.69-.94h-.36l-1.5.63-.75-.13-.56.19-.25.5-.38.31-.87-.38-.06-.31-.44-.12-.74-.93v-2.8l-.7-.31-1,.19-.81,1.24.06,1.61-.5.44-.32.56h-.93l-1.25-1.31-.94-.37-1.32.4-.75,1.4-.64.64-.11.48h-.94l-.61.58-.92.07.2.34-.43,0-.65-.15-.15.35.05.61.75,1,.22.36.26.49-.16.46-.24.74-.1.51.2.5.29.13,0,.4.82.22.52.51.13-.62,0,.75.22.18h.43l.37-.31.23,0,0-.38-.14-.15-.13-.05,0-.26.22-.18h.29l.09-.17.35-.07-.15.11,0,.2h.34l.55-.2.25-.33.11.18-.36.33-.15.22h-.49l-.31-.07-.34.09v.22l.25.07,0,.24-.22.39.18.34-.07.39-.15.17v-.6l-.18-.13-.46.09-.18.2-.52-.11-.61-.53H174l-.35-.22h-.8l-.29,0,.11-.16,0-.22h-.25l-.17.4,0,.61.43.51v.49l.66.9,1.05.62.51.44-.11-.4.35.4.16.31.15-.05.09-.64-.09-.48-.31-.13.33-.2.23.15-.05,1,.47.35,0,.38.2.06.27-.24-.05.31.18.13-.18.11v.18l.45.37,0,.22-.53-.42v-.33l-.13-.06-.18.2-.07-.27-.09.2v.38l.62.66.14.77.6.66h.2l.24-.18.27,0,.44-1.37.2-.22,0-.13-.25-.18V193l.18.17h.2l0-.28-.13-.16.42-.48h.16l.15.13.27-.24-.2-.16.13-.28.25-.2v-.09l-.22-.09.22-.18-.07-.15-.2-.11,0-.2.18-.15.11-.31h.29l0-.11-.31-.16,0-.13.15-.09.33-.35-.15-.37h-.13l.13-.27h.29l.18-.11-.12-.09,0-.35-.29,0-.16-.16h.4l.18-.26.16.26h.26l0-.26-.27-.29.07-.24.4.37,0,.25h.16l.17-.25-.11-.15.29,0,.33-.11-.26-.24-.29,0-.22-.13.06-.29.29-.06-.13-.11h-.16l-.11-.13.23-.16h.35l.16-.15.22.08.2-.24.15.13H183l.22-.3-.09-.2-.13-.07.37-.4.14.09.09.53.48.31,0,.24.09,0,.17-.53V185l-.22-.2h-.47l-.24-.2.07-.18-.09-.2-.4,0-.29.26v.16l-.13-.07v-.22l-.14,0L183,184h.2l-.07-.24-.24-.2v-.11l.31-.2-.07.33.2.47h.42l.29-.18h.31l.45-.35v.13l-.47.42H184l-.09.13-.29.07.26.28.51.09.29.53-.17.38.13.55h.13l.09-.31.13,0-.13.42h-.33l-.16.22v.22l-.31,0,0,.35-.4.36.13.22.27-.13.29-.47.82-.5.42-.51,0-.4h-.23l-.06-.09-.34.09.11-.2h.38l.09-.15.42.13,0,.13-.2.11.22.33-.22.27,0,.24-.69.42-.38.4.16.11.15-.11h.2l.53-.36h.4l.45-.19h.26v-.44l-.13-.09v-.36l.11,0,.16-.28-.11-.14-.36-.08,0-.09.4-.05.13.2.24,0,.25-.29-.11-.2,0-.13h.49l.2-.42-.13-.18,0-.06.27.13-.18.64-.51.11-.05.2.16.24-.67.22-.09.31.18.4-.09.46.18.29.18-.11-.05-.36.28-.63.07.47-.16.15.05.24.31,0,0,.11-.22.13-.18,0-.16.15.4.07.34-.14h.93l.31.34h.27l.17-.27.63-.29.26.11.09.36.22.06.2.31-.11.11,0,.2-.16-.18.09-.17-.26-.16-.11-.48h-.23l-.13.24-.38,0-.22.36.13.22-.15.11.09.17h-.16l0-.35-.4-.33-.56-.07-.91.14-.68.44h-.34l-.38.13.2.13.14-.11.86-.22.27,0,.69,0,.42,0,0,.06h-.58l-.27.11-.4-.13-.2.22-.64,0-.09.19.14.16-.34-.1-.34.46.27.14.38-.17-.44.46v.18l-.44.15-.12.29.27-.07.27-.17.33-.05,0-.11-.29-.06.23-.11.33-.23.64-.72.27,0,.11.29.22.11v.22l-.11-.14-.18-.08-.2-.25h-.11l-.2.33-.09.34-.28.08,0,.14.27.13v.33l-.22.17v.36l-.14-.2.12-.24-.05-.31h-.22l-.51.39-.36,0-.33.29.16.06.35-.2.13.07-.15.13-.47.09-.33.44h-.27l-.33.09v.18l.16.13-.18.18.06.13H185l.47.48.35-.09.36-.46h.33l.27-.46.51-.07-.05.11H187l-.23.16v.31l.2.11,0,.33-.13.13.13.18.29-.16.15.16.11.3.25,0,.27-.22.15.07-.22.15v.16l.38,0v.18l.2.15-.14,0-.26-.28h-.25l-.11-.2-.35.22,0,.15.33.25,0,.17.11.07.11.33.43.44h.31l.11-.11.13.11.4,0,.22.09-.06.11-.18,0,.11.22-.2-.09,0-.2-.29.07-.27-.11-.4,0,0-.18-.38-.26-.05-.2-.2,0,.12.38.2.28-.16.25-.2,0-.22.29-.11-.2.11,0,.35-.31-.11-.2,0-.27-.2-.11-.22.18.06-.26.4-.18.07-.13-.4-.31,0-.33.2-.38,0-.15-.33,0-.06.24-.18,0,0-.29-.17-.06.06-.2.14-.07-.07-.28-.29.22-.44.59-.4.22-.49,0-.13.08-.18-.17.24-.09h.31l.38-.15.18,0,0-.22-.29,0,0,.11-.17.07-.11-.31h-.25l-.2-.17-.42.08,0,.31-.4.31-.09.38-.22.19-.18.31,0-.26.29-.31-.11-.07-.13.07h-.25l0,.15-.11-.15.22-.33.33-.07,0-.15-.22-.07.06-.13.47,0,.24-.26-.17-.11v-.11l.2-.13-.45,0v-.29l-.22.18,0-.42-.16.13,0,.24-.33,0-.14-.09V192l.16.11-.14.16-.17-.13-.14-.31v.37l-.13,0-.09.22-.15-.17.06-.2.09-.09-.24-.13-.14.2,0,.42-.27.37,0,.42.22-.07.22-.46.29-.09.2.22.18-.11,0,.2h-.24v.4h-.2l-.05-.42h-.09l-.22.4-.49.3,0,.25.22.15.09.29.2,0,.24.24,0,.27L182,195l-.06-.5-.18,0-.11.27-.42.35.2.09v.15l-.2.2-.07.24-.24,0,0-.55-.11-.2.69-.55v-.33l-.16-.05-.31.31-.11.2-.11-.18.13-.22.27-.11-.13-.33-.16,0-.09.24-.11,0,0-.4H181l.34-.29-.07-.15-.22,0-.18.16-.38,0,.25.29-.14.29-.09-.05-.06-.35-.38.15-.07.27.47.7,0,.67-.26.19-.31.05,0,.22.16.15,0,.27-.27.11-.09.17.18.11-.14.25.25.13.29-.18.17,0-.08-.2-.18,0-.11-.07.26-.11.23.22.2-.15,0,.13-.18.11.4.35h.27l.11-.24.06.31.27,0,.2.22.33.18.2-.11-.06-.2-.34-.07-.29-.19,0-.14H182l-.06-.13-.29,0-.05-.27.14,0,.2.15v-.28l-.27-.14.22-.24.18.09,0,.31.11.13.42.05.26-.14.16.09-.07.4-.22-.16h-.26v-.13l-.16,0,0,.18-.14.07.49.26h.4l.54.4,0,.11-.22,0-.11-.14h-.24l0-.11-.15.22.06.11-.26.11.2.09.2,0,.22.11-.24.17v.45l-.14.15-.2-.18V198h-.29l0-.24h-.15l-.14-.2-.2.26,0,.25-.16.26.13.24h-.2l-.11.16,0,.15-.22-.28-.4,0V199l.18.2-.07.17.2.11.55.49.07.2.13,0,.14.15,0,.44.38.27h.62l.15.08.32.4.28,0,0-.1.18.06.34.32.2-.06,0-.16.42-.26h.56l.26.2h.36l.12-.12.48-.08h.46l.44-.24.3,0,.24.28.24.12.22.2.34-.26-.08-.24-.34-.14.12-.12.4,0-.08-.3-.26,0,.18-.09.26.13.3-.17.22.19.34-.1.24-.27.18,0,.18.1.16-.3h.38l.15-.24.34-.22.24-.16,0-.27-.22-.3h-.24l0-.16.34.1.26.36h.16l.16-.24h.14l.22-.2.26-.08.28,0,.12-.4.18-.1,0-.55,0-.14.24-.14.3.14.2.28.18-.14v-.24l0-.24-.28-.29-.32,0,0-.28-.24-.32-.5-.34H193l0-.16h-.06l-.1.34-.06-.1-.24.06,0,.22-.1.14-.08.42-.22,0-.14.27.12.12-.06.3-.28.1.1.14-.1.18.14.23h-.3l-.08.12-.49.08-.1.14-.2.06v.12l-.16,0,0-.2.26-.18-.14-.19-.44,0-.32.17h-.14l.18-.19.51-.14.34,0,.31.28.37,0,.08-.22.17-.42-.06-.42.15-.23-.17-.08v-.08l.36.08.31-.39,0-.4-.15-.14.54-.08,0-.14.2-.08,0-.17-.4-.23-.08-.36-.14-.2.11-.11.2.25.14.37.4.17v.36l.31,0,.31-.31h.48l.25,0,.28.22.26,0,.2-.23h.48l.53-.25.37-.48v-.22l-.17-.28.26-.17H197l.28-.28.17.11-.2.23-.31.11h-.28l-.09.14,0,.36-.45.62-.43.31.06.17h.23l.19.19-.14.06-.34-.11-.17-.17-.25-.11-.34,0-.2.2-.25-.06-.06-.16-.14-.12-.17.14-.22.09-.34,0-.14.08.62.34.39.34.31.31.2-.14.26.11.45,0-.48.08-.2,0-.09.14.26.25.42,0,.2.09.37-.28.17.08v.31h.17l.28-.31H197v-.17l-.2-.17.14-.25.4.37.28,0,.14-.25.31.19.23-.22h.25l.51-.34.45,0,.2-.08.28,0,.09.31.42.33-.14,0-.42-.28,0-.14-.37-.06-.59.09-.06.33.23.17-.37,0-.34-.08-.08.19.2.2h-.15l-.25-.23-.17.06-.11.14-.37.08.06.15h.31l.39.39.43-.11v-.26l.14-.08.05.2.51.11.14.22-.25-.08h-.34l-.28.14.45.14v.14h-.25l-.2-.17-.26.22-.14.29-.08-.31h-.2l-.08.14-.12-.2.12-.34-.2.17-.14.09-.14-.34h-.18l-.14.14h-.24l0,.11.25.11.09.52h.25l.16-.11.27.09.43.45.25.13.18-.15H199l.2-.09.21.13-.18.11-.43-.06-.07.22.18.11.2.3h.48l.16-.12h.16l0,.19-.39,0,.1.16.27,0-.09.14-.14-.09h-.23l-.13.18-.07-.21-.43-.24-.64-.66-.63-.36-.07-.11-.23.11V199l-.2.42-.41.23-.11.25-.21,0-.09-.16-.18.09.11.13.34.3-.18.11-.13,0-.07-.18-.23-.18h-.36l-.18-.21-.07.14.34.34-.09.11-.23,0-.07-.36-.25-.23-.24.09v.23l-.32.11-.37,0,0,.14.12,0,.27.34.5.09.34-.14.27.07-.52.2-.37,0v.2l.32.32-.09.22h-.11l-.14-.38-.29-.23-.28-.18v-.27l-.2-.24-.29.11v.13l-.16.23H193l0,.2.23.29-.23-.11-.2.14v.29l.14.13.15-.13,0,.13.05.39.4.07.3.33.2,0,.14-.54.11,0,0,.25.11.18H195l.12-.2.31.07v.18l-.4.07-.3-.05-.27.07-.07.16-.27,0,.11.09.32,0,.11.12-.11.13.11.18.3,0,.13.18h.23l.27-.18.28.16h-.21l-.27.18-.21,0-.2-.13-.48.13-.13-.38,0-.14-.11-.09-.34.09,0,.18-.27.14.18.16,0,.15-.23.07.05.25.18.07.32.24-.07.12-.32,0,.05.25.81.43-.11.13-.18,0-.23.11-.48-.24-.29-.39,0-.56-.52-.23h-.59l-.34-.2-.2-.34-.18-.33-.41,0-.14.12-.2.09,0,.2.3.2V204l.11.18.36,0,.21-.16.13.13h.68l.3.46.5.4v.2l.25.27-.12.16-.07.07-.34-.38-.38-.54-.16-.34-.18-.16-.21.09-.47,0,0,.22.27.36.29,0-.11.15.09.12.45.06.46.45.2,0,.39.22-.39-.06,0,.2-.15,0-.14-.24-.31-.15h-.49l-.13.08-.42,0-.16.11.05.09.22-.11.31,0v.29l-.15.11-.12-.16-.35-.06-.07-.13-.17,0v.35l.22.09.26.18.45-.16.13.09h.38l.33.49.13.06.14.22h-.22l-.07-.13-.38-.51-.31.05-.18.11-.06-.14h-.29l-.25.09,0,.18h-.26l-.27-.2-.62-.07-.16-.26-.44-.13,0-.2-.29.11-.22.26-.33.09-.09-.15h-.18v.2l.4.24,0,.33.18.07,0,.11.25-.07.2-.2.11.11.31.05-.07.13h-.31l0,.13.51.2V208l.24.22.2-.06.25,0v-.17H191l0,.26-.24,0-.18,0-.07.11.27.35h.25l.26-.46.29-.33.18.16.31-.07.18-.13.06.15h.36l.09.18-.2.09-.18-.07-.22.09-.09.22-.31.11.09.13h.24l.25-.2.42-.2.22-.22-.09-.2.27,0,.06-.11.09.2-.22.15-.67.57-.4.24h-.26v.12l.46.22,0,.28.13,0,.27-.22.15,0h.22l.27-.24.11.26.42,0,0,.17-.33.07-.38-.18-.47.13v.18l.18.11,0,.27.17.17,0,.2-.2,0-.11.09-.11-.22-.4.33-.29.35-.29,0,0,.12-.16-.14,0-.46.14,0-.09-.18-.31,0,0-.11-.06.37.17.13-.15.2-.07-.26-.13-.11-.22.26-.22.38-.32.09v.11l-.24-.09-.2-.22-.38,0-.06.35-.11.22.06.44.16.16.42.73.2.08.18-.26-.16-.2-.15-.22.17-.31h.23l.13-.24h.13l.16.11.24,0,0-.2.48-.31h.23v.11l-.27.07-.2.55h-.18l-.13-.14h-.18l-.18.07.11.13-.33,0-.11.18v.2l.13.17,0,.38.33-.07.65-.81.46-.29.56,0,.35.27.2,0,0-.31-.2-.09,0-.26.06-.13.07.11.29.26-.07.35.2,0,.22-.2,0-.33.11-.08,0-.25-.17-.06v-.16l.22-.17.15.17.25,0,0,.22-.29-.07-.05.2.27.16.31.19.07.29h.11l.06-.31-.22-.24.14-.18.24.31.07.18-.18.13.09.22-.11,0-.4,0-.22.31-.23.16.2.13-.13.28-.24.09-.07-.46-.4-.18h-.76l-.2-.11-.51.11-.33.62-.31.33.16.16.44,0,.09-.15h.22l.24.33v.35l.18,0,.4-.25.18,0,.73,0,.31-.11.22-.31-.08.4-.27.2h-.36l-.24.28,0-.3-.55,0-.25.24-.22.07-.22-.22-.05-.29-.22-.18-.46,0-.27.15v.22l-.09,0-.18-.44-.31-.15-.06-.07-.38.09-.18.35-.18.07-.28.37.08.4.34.13H190l-.2.11-.44,0-.11-.09-.2,0,0,.26.29.2,0,.18-.4,0-.13-.2,0-.66-.09-.22-.37-.17-.09-.25L188,214l-.24.17-.07.24-.24.25-.07.21.17-.06.17-.21.24,0v.1l-.28.15-.24.64-.31.15.11.22.51.31,0,.37.36,0,.22.2,0,.57.16.26-.22-.13-.09-.44-.22-.29-.27,0-.2-.16,0-.3-.18,0-.13.11h-.07l0-.48h-.23l-.17.18v.3h-.25l-.33.2-.4.58-.29,0-.11-.15-.22.07v.13l.15,0,.09.18-.31.24v.13l.16.05.06.26.45.09.13.15H186l.27-.44.13,0,.11.37.27.11,0,.31-.36.22-.09.18-.06-.2.31-.27v-.15l-.16-.07,0-.22-.16.05,0,.17h-.13l-.16.09-.29-.22h-.26l-.29.27-.09.24-.42.15-.13.47h-.29l-.2.11-.18-.16H184l.29-.17.18-.49.58-.33.11-.29-.2-.15,0-.44-.29-.22v-.18l-.16.05,0,.28-.8,0-.11.11-.24-.08-.16-.18-.2.09v.35l-.24.2,0,.24-.2-.2.26-.28v-.29h-.15l-.22.29-.87.39-.35.07-.11.13.37.13.42-.06.17.21-.05.15.08.08.11.2.33.17.24-.11.14-.18v.29l-.22.07-.16.14-.38-.27-.28-.23v-.24l-.11-.12-.11.09.05.19-.17.14-.32.23.06.44.11.06.35.49h.33l.25.1.39-.21.47,0,.24.33v.36l.53.37,0,.42.33.14,0,.16-.27.06-.24.39-.37.06-.08.2-.25-.07-.1-.25-.34-.22-.08-.48-.3-.22h-.36l-.28.17-.52.45-.2,0-.21.19.1.2.23.16.2.62.22.09.3-.32.46,0,.17-.1.57-.09-.07.12-.77.19-.29.28-.24.13v.2l.19.15,0,.66-.18-.11-.09-.3-.16-.09-.4,0-.22-.19v-.53l-.11-.11-.22-.53h-.24l-.27-.11,0-.14-.18.05,0,.12.17.16,0,.11-.11.17.08.36-.14.15,0-.17-.11-.36-.09-.17v-.48h-.17l-.14.31-.25.11,0,.19.25.12.13.27-.3.26v.36h-.27l-.12-.14.17-.08.08-.29.13-.1-.08-.18h-.19l-.19-.1.14-.09.36-.67.25-.11,0-.19-.67-.25-.25-.22-.22.11,0-.25-.45-.2-.13-.2v.3l.47.46.06.33-.14.09-.19.36-.07.67-.62.38-.4.46-.16.3-.24.3,0,.37.65.5.44,0,.39.36h.2v-.28l.32-.14,0-.39.32-.13.31.38-.16.09v0h-.3l0,.25-.14.11,0,.17h.31l.14-.14.1.17h.17l.13-.35-.08-.59-.14-.17.07-.33h.22l.29.3.31.17v.11l-.44-.11-.17-.22-.08.13.25.32-.14.11.06.18-.06.15.13.25-.26.14,0,.11-.53-.09-.38.06v.26l.36.09.05.29-.09.06,0,.17.34.34.19.4-.34.2v.19l-.22,0-.38.36-.25.62-.17,0-.1-.17-.31,0-.24,0,.07-.14.32-.15.09-.23-.05-.26-.27-.29h-.31l-.15-.27.13-.08h.55l.17-.18,0-.16-.28-.13h.16v-.21l.15,0-.09-.28,0-.22-.13-.07-.72.88-.25.71-.28.5-.6.63-.93,1.91-.09.65-.69.63-.07.4-.25-.06v-.13h-.25V232l.28-.16-.06-.15-.53.12-.88.87-.5.66-1.32.5-.32.28-.12.37-.19.25v.56l.19.22h.5l.6.31.37,0,.47.35.44.09.32.4.25.1.5,0,.28.34,0,.19.13.09-.13.22,0,.34-.34.66-.26.09.13.16.17.18.31.06.31.41,0,.58.34.41.28.09v.83l.32.13.52-.15.78.65,0,.36-.31.29.25.48-.25.5.19.25h.37l.32.06.34.53v.66l-.12.37,0,.35.63-.06h.41l.22.16h.25v-.5l.5-.09.34-.28,0-.49.41-.1.31-.25-.13-.43.35-.13.32.41.37.1.11.36.62.41.88,0,.25.34-.22.25h-.5l-.32.38.19.25h.72v.46l.41,0v-.5L183,246l.16.47.53,0v.37l.29.16,0,.37.13.28.38-.15v-.47l.22-.16.15.41-.15.28.19.12.18.35.25.12.19-.22-.06-.31.19,0,.22.31.28,0,.1-.4.18,0-.09-.44.31-.38,0-.21h.54l.25-.13.13-.4.31.11.23-.15.1-.31.25,0,.36-.24L189,245l.28-.07.07-.47.34.24.36-.21.3.41h.32l.25-.34-.09-.26.13-.34.37,0,.41.28.19.48.43,0,.31-.31.31-.27.41-.14.13-.43.51-.2.26.18.28-.18h.16l.28.4.21-.11h.28l.38.31.88.44.5-.06.63.12,1.22.56.5.32.47,0h.57l.44.25.06.5.35.44.59.12.12.19-.24.31.09.19.73.33.75.11.68.05.22.14h.15l.16-.21.66-.69h0l0-.32-.19-.12,0-.38.24-.26h.23l.3-.45.08,0,.05-.75.06-.12,0-1.39.18-.34v-.56l.25-.1.3,0,.09-.11.16,0,.06.1h.51l.36-.39.85,0,.19-.19.44-.06.1.11.49.27h.21l.09.05.16,0,.12-.26.12,0,.07.12.22.05.15-.12.42,0,.07-.06.07.09.82.05.09.17.23,0,.77-.77.42,0,.22-.24Zm-33.74-47.61h.24l.09-.11H181l.31-.39.24,0,.05-.24-.16,0-.26.33-.16,0-.18-.09-.22.22v.13l-.2.11Zm4.19-3.46.29,0,.16-.13V189l.64-.4.11-.37,0-.31.35-.15h.38l.4-.27-.09-.2-.18.13-.4.05.29-.31,0-.26-.2.13-.22.35-.31.15h-.31l-.09.12.24,0,.05.35-.29-.13-.18.11h-1l-.2.13.11.13.33,0,0,.24v.18l.15.13,0,.2-.24.26-.16-.31.07-.51-.09,0-.09.35-.24-.2v-.24l-.36.13.2.27h-.13l-.4.44-.4.07,0-.18h-.18l-.09.22-.49.44h.31l-.13.11-.24.11,0,.13.27,0-.13.26h.18l.08-.15.23-.14.51-.48.64.09.27,0-.31.13h-.54l-.6.44-.35.31.09.16h.35l.56-.31.37.06.16-.26.33-.29.29-.17v-.31Zm.09.91.22-.09.52-.53.28-.22.05-.46-.2-.11-.33.22,0,.37-.11.11-.26-.11-.31.18-.07.26.18,0,.11-.18.35,0v.13l-.46.27Zm-1-3.39.09-.15,0-.31.2-.13v-.22l-.33-.11-.18-.29-.13.09-.13.46.13,0,.31.38Zm-.76.56-.18.08-.22.31-.31-.28,0-.27.29,0,0-.22.27-.2.17,0,.29-.15.18,0-.07.33-.29.18-.13-.26-.27,0,0,.16.07.11Zm0-1.2.09.23-.13.22-.18-.18-.22.13,0,.16-.15.13-.11-.2-.38,0v-.13h.35l.05-.15-.25,0v-.16l.32.07.26-.16Zm-3.89,34v.44l.13.09.14-.75.51-.81.51-.71,0-.48.16-.09.31.11,0,.33.2.06.11.22-.47.27-.16,0-.13.13h.49l.07.15-.07.25,0,.37.34.24.17.16.94,0,.13.15.18-.26.4.13v.51l.13,0,.4.26,0,.49.16.07v.17l-.16.09-.09.11h-.51l-.2-.11,0-.42-.38-.46-.22-.11-.2.11h-.35l-.27-.18h-.11l-.38.29h-.29l-.13-.09,0,.24-.17.2h-.18l-.2.11h-.36l-.06-.17-.27-.09v-.11l.25-.16,0-.24.2-.13.2,0,0,0h.22l-.29-.17-.4.06-.14.36-.15,0v.23l-.11.05-.14-.2.12-.08-.19-.06-.36-.28-.09-.19.19-.22.12,0v.22l.19.06.05-.33Zm-10.45,20.57-.31-.75-.94-.26h-.66l-1.11.39-.27-.08.09-.53.31-.36.09-.44.44-.75.4-.48.31-.53.54-.35.22-.44L168,236l.62-.22.4.09.09-.09.4-.09.18.22H170l0,0,.31,0,.54.22.4.44h.48l.36.18.31.31h.44l.18,0,.13.18v.35l-.13.22v.31l-.31.44-.31,0-.09.22.13.26.27.09-.13.09h-.18l-.36-.4-.26.18v.22l-.22.22H171l-.09.39-.35.22-.23-.22-.31-.08-.35.52.22.49-.22.13v.31l-.18.18-.53-.09Z" transform="translate(-165.23 -123.46)" style="fill: rgb(210, 210, 230);"></path>
    <path data-id="1014" id="path5365" name="BOLIVAR" class="cls-1" d="M237.47,162.74l.23-.5.21,0,.1.17.5-.12.2-.7.4,0,.11-.12-.2-.13.49-.47.05-.22.52,0,.62-.51-.08-.67.38-.24.12.23.43.14.26.07.38-.32h.31l.24.28.58.07.1.12.26.4.56-.23h1l.32-.25.44.06,1.34-.8.34.26v.56l0,.38-.18.41-.21.34.2.35-.16.45.69,0,.27.71.74.29.57.54-.15.65-.2.54.28.39.5.83.51.25,1,.2.28.2.41,0,.49.27.34-.34.94.72.92.21.87.32.76.22v.44l-.45.25-.57-.11,0,.31.16.32-.37.26h-.22v.56l-.25.25-.16.35-.25.16.12.52h-.47l-.07-.28-.28.28-.35.51v.34l-.82.32-.23.4V173l-.25.16v.19l-.29.38,0,.49-.46-.11-.14-.25-.46-.09-.19-.35-.54-.06.16-.53-.19-.25-.16-.94-.37-.34-.69.7-.15.3-.74.56-.18.44-.39.06-.26.2-.43-.07-.24.15-.73-.2-.55,0-.21.26-.26,0-.29.3-.27-.51-.27,0-.33.16-.23-.17,0,.45-.35.08-.24-.09v.3l-.23.23-.49-.58v-.28l-.22-.2-.09-.32-.4-.41L241,173l0,.73-.28.4h-.51l-.72.31-1,.05-1.11.17-.32.14h0l-.05.51-.46.3-.19.54-.43.31.16.36v.4l.2.18-.45.22-.34-.18-.21,0-.37.18-.21-.18.06-.64-1.13-.58.06-.18-.24-.27.1-.59-.39-1.17v-.79l.19-.48-.22-1,.55-.59.3-.29-.24-.35-.49-.3-.53-.41-.68-.17-.2-.39.06-.82-.39-.23-.56-.56.06-.38.18-.18.09-.7.26-.24-.23-.47.2-.38.39,0,.38.26.26.09.3-.26.8-.18.71,0,0-.32.64-.31.67-.07.29-.44.49-.18.37-.8Z" transform="translate(-165.23 -123.46)" style="fill: rgb(210, 210, 230);"></path>
    <path data-id="1046" id="path5373" name="VERSALLES" class="cls-1" d="M243.09,142.51l-.39.47-.47.34-.21,1.12.07,1.19-.44.81-.45.79-1.16.71-.82.37-.68.75L238,150l-.72.91-.27.92-.61,1.7-.31.51-.27,1.8.1.85-.34,1-.55.53-.56.35-.26.45,0,.6L234,160l0,.41.27.5.15.41.77.41.56.16.32.47.39.09.24.5.73-.23.23-.5.21,0,.1.17.5-.12.2-.7.4,0,.11-.12-.2-.13.49-.47.05-.22.52,0,.62-.51-.08-.67.38-.24.12.23.44.14V159l-.51-.65,0-.54-.74-.2-.67-.84.15-.34,1-.43,0-.52.31-.32s.61-.06.66,0,.59.24.59.24l1.26-.43.1-.36-.46-.45.23-.47.48-.2.3-.48.1-.53.43-.45.11-.47-.13-.36.58-.78.15-.34.82.2.12.26-.12.2,0,.36.22.26.13.58.28.21.32.73.39.22.24.37.31-.7.59-.43.48-.6.57-.28.25.31.48.16h.57l.16.38-.58.69v.5l-.48.23,0,.47-.84.75.7,0,.27-.17.36,0,.25-.15.06.31.36.14.39-.21.38,0,.19.2.39.07.05.36.46.4.38-.08.35,0,.63-.29h0l.67-.53.44-.39.11-.57-.34-.45-.33-.31.12-.72,0-.36.39-.46.55-.2.31-.66.57-.37.06-.39.47-.89.45-.68h-.55l-.25.27-.6-.07-.4,0-.46-.27-.23-.29-.56-.2-.54.34-.55.29-.75.12-.23-.16.06-.26.16-.26,0-.76-.19-.41-.37.1-.51.32h-.43l-.39.17h-.68l-.89-.58h-.41l-.92-.43-.65-.17-.53-.67-.23-1.22-1.24-1.61-.85-.2h-.56l-.08.16-.37-.18-.46-.25Z" transform="translate(-165.23 -123.46)" style="fill: rgb(210, 210, 230);"></path>
</svg>