<svg version="1.1" id="Capa_1" xmlns="http://www.w3.org/2000/svg" xmlns:xlink="http://www.w3.org/1999/xlink" x="0px" y="0px" viewBox="0 0 92.1 93.1" style="enable-background:new 0 0 92.1 93.1;" xml:space="preserve">
<style type="text/css">
	.st0{fill:#EBEBEF;stroke:#FFFFFF;stroke-width:0.25;stroke-miterlimit:3.86;}
	.cls-1{fill: #ebebef;;stroke:#fff;stroke-miterlimit:3.86;stroke-width:0.25px;}
</style>
    <path id="path7606_5_" class="st0" d="M12.5,30.1l0.2-0.2l0.3-0.1l0.2,0l0.3-0.2l0.1-0.3l0.4-0.2l0.3,0l0.1,0.1l0.1,0l0.1-0.2
	l0.3-0.1l0.1-0.2l-0.1-0.1l0.1-0.2h0.2l0.3-0.1l0.1-0.2l0.3-0.1l0.2,0l0.3-0.1l0.1,0.1l0.3-0.1l0.3-0.1l0.1-0.2l0.1-0.1l0.1-0.1
	l0.3-0.1l0,0.1l0.4-0.3l0.2-0.2l0.4-0.1l0.4,0.1l0.1,0.1l0.4,0.2l0.6,0.1l0.2,0l0.2-0.1l0.4,0l0.3-0.1l0.2,0l0.1-0.1l0.2,0l0.2-0.1
	l0.1-0.2l0.4-0.2l0.1-0.1l0.4-0.1l0.5,0l0.1,0.1l0.3,0.1l0.1-0.2l0.2-0.1l0.1-0.2l0.2-0.3l0.2,0l0.2-0.3l0.3-0.2l0.1-0.3l0.2-0.1
	c0,0,0.1,0,0.2,0c0,0,0.2-0.2,0.2-0.2l0.1-0.2l0.3-0.2l0.1,0l0.3-0.3l0-0.2l0.3-0.4l0.2-0.2l0-0.1l0.1,0l0.3-0.2l0.3-0.1l0-0.2
	l0.1-0.2c0,0,0.2,0,0.2-0.1c0,0,0.1-0.2,0.1-0.2l-0.1-0.1v-0.2l0.1-0.3l0.1,0l0.4-0.3l0.1,0l0.1-0.2l0.1-0.2l0.1-0.3l0.1,0l0.2-0.2
	l0.1-0.2l0.2-0.1l0.1,0l0.2-0.2l0.1-0.1l0-0.1l0.1-0.3l0.2,0l0.1-0.1l0-0.2l0.2-0.5l0.2-0.2l0.1-0.1l0-0.1l0.2-0.2l0.1-0.2l0.4-0.2
	l0.1,0l0.5-0.1l0.3,0L33,17l0.6,0.2l0.5,0l0.2,0l0.1,0.1l0.2,0.1l0.1,0.1l0.5-0.1l0.1-0.1l0.4,0l0.3,0.1l0.4,0l0.2,0l0.4,0l0.1,0
	l0.5,0l0.1,0.1l0.5,0l0.2-0.1l0.4-0.1l0.3,0l0.1-0.1l0.2-0.1l0.1,0l0.3-0.1l0.1-0.3l0.4-0.1l0.2,0.1l0.3-0.2l0.1,0l0.3-0.2l0.4-0.1
	l0.3,0l0.3-0.1l0.3-0.1l0.5-0.1l0.1,0l0.4,0.2l0.3,0.4l0,0.2l0.4,0.3l0,0l0.6,0.2l0.1,0l0.4,0l0.1-0.2l0.2-0.1l0.3-0.1l0.2-0.6
	l0.9-0.5l0.5-0.1l0.2-0.3l0.3-0.3l0-0.1l0.7-0.2l0.3-0.3l0.4-0.3l0.4,0l0.5,0.1l0.2,0.3l0.2,0.2l0.6,0.2l0.2-0.2l0.4-0.1l0.7,0.3
	l0.3,0.2h0.3l0.1,0l0.3,0l0.1,0.1l0.4-0.1l0.6-0.2l0.5,0l0.1,0.1l0.3,0l0,15.1l-0.2,0.1l-0.2-0.2l-0.2,0v0.1l0.2,0.1l0,0.2l-0.2,0.2
	l-0.2,0l0-0.1l-0.3-0.2l-0.3-0.1l-0.2,0.1l-0.1,0.1l0.1,0.1l0.1-0.1l0.1,0l0,0.1l-0.2,0l-0.2,0.2v0.2l-0.2,0.1l0,0.2l-0.3,0.1L54,31
	l-0.1,0l0,0.1l0.1,0.1l-0.1,0.2l-0.2,0l-0.2-0.1l0-0.2L53.2,31l-0.1,0.1c0,0,0,0.1,0.1,0.1c0.1,0,0.1,0.2,0.1,0.2l-0.3,0l-0.2,0.2
	l-0.2-0.2l-0.2,0l-0.2,0.1l0.1,0.1L51.8,32l-0.1,0l-0.2-0.2l0-0.1l-0.1-0.1l-0.3,0.1L51,31.8l-0.3,0.1l-0.2-0.1l0.1-0.1
	c0,0,0-0.1,0-0.1c0,0-0.2,0-0.2,0l-0.1,0.1l-0.4,0l0,0.2l-0.2,0.1c0,0-0.1,0.1,0,0.1c0.1,0,0.3,0,0.3,0l0,0.1l0.1,0l0-0.1l0.1,0l0,0
	l0.3,0.1l0,0.1l-0.3,0.2l-0.2,0l-0.1-0.1l-0.3,0l-0.4,0.1l-0.1,0.2l0.2,0.1l0.1,0.2l-0.2,0.1l-0.4,0c0,0,0-0.1,0-0.1
	c0,0-0.5,0.1-0.5,0.1l-0.2,0.1l0.2,0.1H49l0.3,0.1l0,0.2l-0.3,0l-0.4,0l-0.3,0.1l-0.1,0.1l0.1,0L48.1,34V34l0.4,0.1l0,0.1l-0.1,0.1
	l0,0.1l0.1,0.1l0,0.1l-0.3-0.1l-0.2,0l-0.2,0l0.1-0.2l-0.3-0.2l-0.3,0.1l0,0.1l0.1,0.1l0,0.2l-0.3,0.1L47,34.5l0-0.2l0-0.1l-0.1,0
	l-0.1,0.2l-0.1,0l-0.2-0.2l-0.1,0.1l-0.3,0.1l-0.4,0l-0.1-0.1l-0.2,0l-0.3,0.2l-0.1,0.1l-0.2,0.1l-0.1,0.1l-0.2,0l-0.2,0.1l-0.1,0
	l0.1-0.2l-0.1-0.1h-0.2L44,34.6l-0.1,0.1l-0.3-0.1l0.2-0.1v-0.2l-0.1,0l-0.1,0.1l-0.6,0l-0.3,0.2l-0.5,0.1l0-0.1l0.1,0l0.1-0.1
	l-0.2-0.1l-0.1,0.1h-0.5l0,0.1l-0.1,0.1l0.2,0.1v0.1l-0.2,0.1l0.1,0l0.2,0l0.1,0.1l-0.1,0l0,0.1l0.1,0l0-0.1h0.1l0.1,0.1l-0.1,0.1
	l-0.1,0l-0.1,0.1l0.1,0.1l0,0.1l-0.2,0.1l-0.1,0.2l0.3,0l0.1,0.2l-0.1,0l0,0.1l-0.1,0.2l-0.1,0.1l-0.1,0.1l0.1,0l0,0.1l-0.2,0.1
	l0.1,0.1h0.1l0.1,0.1l0,0.1l-0.1,0l-0.1,0c0,0,0.1,0,0.1,0c0,0.1,0,0.1,0,0.1l-0.1,0l-0.1,0.2l-0.1,0l0.1-0.1l-0.1-0.1l-0.1,0
	l0.1,0.1l-0.2,0.2l-0.1,0l-0.1,0.1l-0.1,0l0-0.1l0.1-0.2l-0.2,0l-0.1,0.1l-0.1,0.2l0.1,0.1l0,0.1l-0.1,0l0,0.1l-0.1-0.1l-0.2,0.1
	L40,37.9l-0.1,0.1l0.2,0.1l0,0.1l-0.1,0l-0.1,0.1l0.2,0.1l0,0.1L40,38.5l-0.1-0.1l-0.2,0l-0.2,0.1l-0.1-0.2l0,0l-0.2,0.1l-0.2,0l0,0
	l0.1,0l-0.1,0.1l-0.1,0L39,38.7l0.2,0l0,0.1l0.1,0.1h0.3V39l-0.2,0.1l-0.1,0L39.1,39H39l-0.2,0.1l0.1,0.1l-0.1,0.1l-0.1,0l-0.2,0.1
	l-0.1-0.1l-0.3,0l-0.1,0.1l0.2,0l0,0.1l-0.1,0L38,39.7H38l-0.1-0.1l-0.3-0.1l-0.1,0.1l0.1,0l-0.2,0.1l0,0l-0.1,0v-0.1l-0.1,0
	l-0.1,0.1l-0.1,0l-0.1-0.1l-0.2,0l0.1,0.1L37,39.9l-0.1,0l-0.1-0.1l0-0.1l-0.1-0.2l-0.4-0.2L36.2,39l-0.1,0L36,39.2l0,0.1l0.1,0
	l0,0.3c0,0-0.1-0.1-0.1-0.1c0,0-0.1,0-0.1,0l-0.1,0.1l-0.1-0.1l-0.2,0l-0.2,0.1l0.1,0.1l0.2-0.1l0.1,0l0,0.2l0.1,0.1l0,0.2l-0.2,0.1
	l-0.2,0l0-0.2L35.3,40l-0.2,0l0,0.1l0.2,0.1l0,0.1l-0.1,0.1l-0.2-0.1l0.1-0.2L34.8,40L34.7,40L34.5,40l0,0.1l0.3,0l0.1,0.1l-0.1,0.1
	l-0.1,0c0,0-0.2-0.3-0.2-0.3c0,0-0.2,0-0.2,0L34,40.2v0.1l0.1,0l0.1,0.1l-0.1,0.1l-0.2,0l0-0.1l-0.1,0l-0.1,0.1l-0.1,0l0-0.1l-0.1,0
	l-0.2,0.1l-0.1-0.1l-0.1,0.1l-0.2,0l0,0.1l-0.2,0.1l-0.2-0.1l0-0.1L32.3,40l0-0.1l0.1-0.1l-0.2-0.1l0-0.1l0.1,0l0-0.2l-0.2,0
	l0.1-0.1v-0.1L32.1,39l-0.1,0l-0.1,0l0-0.2l-0.2-0.1l-0.1,0.1h-0.1l0,0l0.1,0l0,0.1l-0.2,0L31.3,39l0.1-0.2l-0.1-0.2l-0.2,0
	l-0.1,0.1l0.1,0l0,0.2l-0.1,0l0,0.1l-0.1,0v-0.4l-0.2-0.1l-0.1,0.1l-0.1,0.1l-0.2-0.1l0.1-0.1l0-0.2l0.2-0.1l-0.1-0.1l-0.1,0.1
	l-0.2,0l-0.1,0.1l0.1,0.1l-0.1,0.1l-0.1-0.1l-0.1,0l-0.1,0.1l0.2,0l0,0.2L29.7,39l-0.1,0l0.1-0.1l-0.1,0l-0.1,0.2l-0.1,0l0,0
	l0.1,0.1l0,0.1l-0.1,0l0,0l0.1,0l-0.1-0.1l-0.1,0l0,0.2l-0.1,0l-0.1-0.1l0-0.1l-0.1,0l-0.1,0.1l0.1,0.1l0,0.1l-0.2,0.1l0.1-0.2
	L28.3,39l-0.1,0.1l0,0.1l0.1,0l0,0.1l-0.1,0l-0.1-0.1l-0.2,0l-0.1,0l0.2,0.1l0,0.1L28,39.6l-0.1,0l0.1-0.1l-0.1-0.2l-0.1,0l0.1,0.1
	l0,0.1v0.2l-0.1,0l0-0.2l-0.2,0l-0.1,0.1l-0.2,0l0,0.1l-0.1,0.1L27,39.6l-0.2,0l-0.1-0.1l0.1,0l0-0.1l-0.2-0.1l0,0.2l0.2,0.1
	l0.1,0.2l-0.1,0.1l-0.1-0.1l-0.1,0l0-0.1l-0.2-0.1l-0.1,0.1l-0.2-0.1l-0.1,0l0.1,0.1L26,39.8l-0.1,0l-0.1,0.1h-0.1l0.1-0.1l-0.1-0.1
	l-0.2,0c0,0-0.1,0.1-0.1,0.2c0,0-0.1,0.1-0.1,0.1l0-0.1l-0.1,0c0,0-0.1,0.1-0.1,0.1c0,0,0.4,0.1,0.4,0.1l0,0.1l-0.1,0.1L25.3,40
	l-0.2,0L25,40l0,0.1l0.2,0l0.1,0.1l-0.1,0.1c0,0-0.1,0-0.1,0c0,0-0.2,0-0.2,0l0-0.1l-0.1-0.1l-0.1,0.1l0.1,0.1l-0.1,0.1l-0.2,0
	l0.1-0.1l-0.1-0.1l-0.1,0.1c0,0,0,0,0,0c0,0-0.3,0-0.3,0l0,0.1l-0.2,0.1l-0.2,0l0-0.1l0.1,0l0.1-0.2L23.5,40l-0.1,0.1l0.1,0l0.1,0.1
	l-0.2,0.1l-0.2,0l-0.1-0.1l0.1-0.1L23.1,40L23,40l-0.1,0.1l-0.1-0.1l-0.1,0l-0.1,0.1h0.2l0.1,0.1l-0.2,0.2L12.1,30.2L12.5,30.1z" ></path>
    <path id="path7611_5_" class="st0" d="M81.3,30.8l-0.3-0.2l-0.2,0l-0.3,0.1l-0.2-0.1l0-0.1l0.1,0l0-0.2l-0.2-0.2l-0.2,0l-0.2,0.1
	h-0.2l-0.8,0.2l-0.2,0.2l0.1,0.1l0,0.1l-0.1,0l-0.2-0.1l-0.1,0.1v0.3l-0.2,0.2l-0.1,0.3l-0.1,0.1l-0.2-0.1l-0.2-0.4l-0.2-0.1l0-0.5
	l-0.3-0.3l-0.5,0l-0.1,0.1l-0.2,0.1l-0.4-0.2l-0.1-0.2l-0.6-0.3L74.8,30V30l0.3,0.2l0.1,0.2l-0.2,0.1l-0.3-0.1l-0.2-0.2l-0.3-0.1
	l0-0.2l0.1-0.1l0-0.6l-0.2-0.2l-0.5,0l-0.2,0.1l0,0.1l0.3,0.1l0.1,0.1l-0.2,0.2l-0.4,0l-0.1-0.2l0-0.2l-0.3-0.2L71.7,29l-0.3,0.1
	l0,0.2l0.2,0.1l0.4,0.1l0.2,0.3L72.2,30L71.9,30l-0.3-0.1l-0.2-0.4l-0.3-0.4L70.9,29l-0.2,0.1h-0.2l0-0.4l-0.2-0.2h-0.1l-0.1-0.1
	l-0.1,0l0.1,0.1l0,0.2l-0.1,0.1l0,0.1l0.2,0.1l0.1,0.1l-0.1,0.1l-0.3,0l-0.3-0.2L69.1,29L69,28.8l0.1,0L69,28.5l-0.2-0.1l-0.3,0.1
	l-0.1-0.1l-0.2,0l-0.1-0.1l0.1,0l0.1-0.1L68.3,28c0,0,0-0.1,0-0.1c0,0,0.1-0.1,0.1-0.1v-0.1l-0.2,0l-0.2-0.1l-0.4-0.1l-0.2,0.1
	l-0.2-0.1l-0.2-0.2l0.1-0.1l-0.1-0.1L67,27c0,0-0.1,0-0.2,0c0,0-0.5,0.2-0.5,0.2l0,0.1l-0.1,0.1L66,27.4v-0.2l-0.2-0.1l-0.3,0.2
	l-0.1,0.2h-0.2l-0.3-0.1l-0.1-0.2l0.1-0.1l0-0.4l-0.2,0l-0.4,0.3h-0.2l-0.1-0.1h-0.3L63.6,27l0,0.3l0.4,0.1l0.1,0.2l-0.2,0.1
	l-0.2,0.2l-0.3-0.1l0-0.4l-0.4-0.3l-0.1,0l0.1,0.1l-0.2,0.1l-0.1,0l-0.1,0.1l0,0.1l-0.2,0.1l-0.2-0.1l-0.3,0.1l-0.1,0l-0.2,0.1
	l-0.1-0.1l-0.2,0l-0.1,0l0,0.1l0.1,0.1l0,0.2l-0.2,0.2l0,0.2l0.2,0.2l0,0.3l-0.3,0l-0.5-0.3l0-0.2L60,28.4l-0.3,0v0.1l0.3,0.2
	l-0.1,0.1h-0.3L59.4,29l0.1,0.1l0,0.2l0,0.1l-0.1,0.1l-0.1-0.1l0-0.2L59.3,29h-0.1L59,29.1l0,0.2l-0.1,0.1l-0.2,0l-0.1,0.3h-0.1
	l-0.1-0.1l-0.2,0.1v0.1l0.2,0.1l-0.2,0.3l-0.2,0l-0.2-0.1l0.1-0.1l-0.1-0.1l-0.1,0L57.6,30l-0.1,0l0-0.1l-0.3-0.3H57l-0.1,0.1
	l0.1,0.2L56.8,30l-0.3-0.2v-0.2l-0.2,0l-0.1,0.2l0-15.1l0.2,0l0,0.1l0.4,0.5l0.2,0.1l0.3-0.1l0.2,0l0.2-0.1l0.2,0l0.1,0.1l0.3,0
	l0.4,0l0.1,0.1l0.4,0.2l0.2,0.2l0.1,0l0.1-0.1l0.6-0.1l0.4,0.1l0.1,0l0.1-0.2l0.3-0.3l0.5-0.2l0.1-0.1l0.4-0.1l0.3,0.2l0.4,0.2
	l0.2,0l0.2-0.2l0.3-0.1L64,15l0.1-0.1l0.1-0.2l0.3-0.1h0.2l0.1,0l0.1,0l0.2-0.1l0.4,0l0,0.1l0.3,0.1l0-0.1l0.3,0l0,0l0.3,0.1
	l0.2-0.1l0.1,0l0,0.1l0.2,0.1l0.1,0v-0.1l0.2-0.1l0.3,0l0.2,0.2l0.3,0l0.2,0.1l0.2,0.1l0.1-0.1l0.5-0.1l0.1,0.1l0.3,0.1l0.2,0
	l0.1-0.1l0.3-0.2l0.1-0.2l0.2-0.2l0.1,0l0.3,0l0.4-0.2l0.4-0.1l0.1,0.1l0.2,0l0.2-0.1l0.4-0.2l0.5-0.1l0.2,0.1l0,0l0.2,0.1l0.1-0.1
	l0.5-0.2l0.6,0.1l0,0.1l0.4,0.3L75,14l0.1,0l0.4,0l0,0.1l0.5,0.1l0.4-0.1l0.1-0.1l0.1,0l0.5-0.4l0.3-0.1l0.2-0.1h0.1l0.6-0.2l0-0.3
	l0.7-0.3l0.5-0.1l0.5-0.3l0.1-0.2l0.4-0.2l0.2,0l0.4,0.2l0.1,0l0.2,0.1l0.1,0.1l0.4,0l0.1-0.1l0.3,0l0,0.1l0.8,0.1l0.1,0.1l0.2,0.1
	l0.1-0.1l0.5-0.1l0.5-0.2l0.1-0.1l0.4-0.1l0.1,0.1l0.5,0.1l0.3,0.2l0,0.1l0.2,0.2l0.3,0.2l0.3,0l0.2-0.1l0.3,0l0.2,0l0.3,0.1
	l0.1,0.2L88,13l0.5,0.1l0.1,0.1v0.1l0.2,0.1l0,0.1l0,0.1l0.2,0.2l0.1,0l0.3,0.1l0.1,0.1l0.2,0.2l0,0.2l-0.3,0.2l-0.1,0.1l-0.3,0.1
	L88.7,15l0.1,0.1l0,0.2l-0.1,0.1l0,0.1l0.1,0.1l0.2,0.2l0,0.1L89,16l0,0.3l0.3,0.1l0.2,0.1l0.4,0.2l0,0.1l0.4,0.3l0,0.3l0.2,0.1h0.1
	l0.3,0.2l0.1,0.3l-0.2,0.2l-0.2,0l-0.4,0.2l-0.1,0.1l-0.6,0.3l-0.2,0.1l-0.1,0.3l-0.2,0.2l-0.5,0.1l-0.7,0.2l-0.2,0.1l-0.5,0.3
	l-0.1,0.3l0,0.1L87,20.7l-0.4,0.1l-0.4,0.5l0,0.3l-0.2,0.3L86,22.3l-0.2,0.2L85.6,23l-0.2,0.2l-0.2,0.1l-0.3,0.3l-0.1,0.3L85,24
	l0.3,0.1l0.1,0.1l0,0.5l0.1,0.3v0.2l0.2,0.3l-0.1,0.2l0.1,0.3v0.3l0.2,0.2l0.2,0.1l0.1,0.2l-0.1,0.2l-0.1,0.2L86,27.5l-0.2,0.4
	l0.1,0l0,0.3l-0.2,0.1l0,0.2l-0.3,0.2l-0.2,0l-0.4,0.3l-0.3,0.1l-0.3,0.1L84,29.4l-0.5,0.2L83.2,30l-0.5,0.2l-0.4,0.1l-0.3,0.3
	l-0.3,0L81.3,30.8z" ></path>
    <path id="path7590_5_" class="st0" d="M1.2,43.5l0.4-0.2l0.2-0.1l0.2,0l0.1,0.1h0.2l0.2-0.1l0.3,0l0.1-0.1H3l0.2,0.2l0,0.1l0.3,0.1
	l0-0.1l0.1,0l0.1-0.1l0-0.2l-0.1-0.1l0-0.2l-0.1,0v-0.1l0.2-0.1l0.1,0L4,42.3l0.5,0l0.1,0l0.1-0.1l0-0.2L5,42l0.1,0l0.1-0.2l0.2,0
	l0.2,0.1l0.1-0.1l0.1,0l0,0h0.1l0.1,0.1h0.2l0.1,0.1l0.1-0.1l0.1,0l0.1,0.1l0.2,0l0.2-0.1l0.3,0l0,0.1L7.4,42l0,0.1l0.2,0.1l0,0.1
	l0.1,0l0-0.1l0.1,0.1l0.2,0l0-0.1h0.1l0.1-0.1l0.2,0l0.1-0.1L8.3,42l0.1-0.1l0.1,0l0.2-0.1l0.1,0l0.1,0l0.1,0l0.3-0.1l0.2,0.1
	L9.6,42l0.2,0l0.1-0.1l0.1,0.1l0.3,0l0.1-0.1h0.2l0.2,0.2l-0.1,0.1l0.2,0.1l0,0.3l-0.1,0l0.4,0.2l0.4,0l0.1,0.1c0,0,0.2-0.1,0.2-0.1
	c0,0,0.1-0.1,0.1-0.1s0.2,0,0.2,0c0,0,0.1,0.1,0.1,0.1l0.4,0l0.1,0.2l0.3,0l0.2,0.2l0.3,0l0.1,0.1l0.1,0l0.4,0.1l0.1,0.1l0.4-0.1v0
	l0.2,0l0,0.1h0.3l0.1,0.2l0.1-0.1l0.1,0l0,0.1l0.2,0l0.1-0.1l-0.1,0l0.2-0.1l0.1,0v0.1l0.2-0.1l0,0.2l-0.1,0l0,0l0.1-0.1l0-0.1h0.1
	l0.1,0l0.1-0.2l0.2,0l0.1,0.1l0.2-0.1l0-0.1l-0.2-0.1l0.1-0.1l0-0.1c0,0,0.2,0,0.2,0c0,0,0.1,0.1,0.1,0.1l0.4-0.4l-0.1-0.1l0.2,0
	l0.1,0.1l0.2,0l0.1,0.1l0.2-0.1h0.2l0.1,0.1l0,0.1l0.2,0l0.1-0.1l0.1,0l0,0.1l0.2,0l0.2-0.1l0.1-0.1l-0.1,0l0.2-0.1l0.1,0l0.1,0.1
	l0.2-0.1l0-0.1l-0.2-0.1l0.2-0.2l0.2,0l0.1-0.1l0.1,0l0,0.1h0.2l0.2,0l0-0.2l0.1-0.1c0,0,0.1,0,0.2,0c0,0,0,0.1,0,0.1l0.1-0.1l0-0.1
	l-0.1,0c0,0,0.1-0.1,0.2-0.1c0,0,0.1-0.1,0.1-0.1l0,0l0.2,0l0,0l0.1-0.2l0-0.1l0.1-0.1l0.2,0l0,0.1h0.1l0-0.1l0.3,0.1l0.1-0.1
	l-0.1,0l0.1-0.1c0,0,0.3-0.1,0.4-0.1c0.1,0,0.1-0.2,0.1-0.2l0.1-0.1l-0.1-0.2l-0.1,0l0.1-0.1l0.1,0l0.2,0l0.2-0.2l-0.1-0.1h-0.2
	l0.1-0.1l0.1,0l0.1,0.1L23,40l0.1,0l0.1,0.1l-0.1,0.1l0.1,0.1l0.2,0l0.2-0.1l-0.1-0.1l-0.1,0l0.1-0.1l0.2,0.1l-0.1,0.2l-0.1,0l0,0.1
	l0.2,0l0.2-0.1l0-0.1c0,0,0.2,0,0.3,0c0,0,0,0,0,0l0.1-0.1l0.1,0.1l-0.1,0.1l0.2,0l0.1-0.1l-0.1-0.1l0.1-0.1l0.1,0.1l0,0.1
	c0,0,0.1,0,0.2,0c0,0,0.1,0,0.1,0l0.1-0.1l-0.1-0.1l-0.2,0l0-0.1l0.1-0.1l0.2,0l0.1,0.1l0.1-0.1l0-0.1c0,0-0.4-0.1-0.4-0.1
	c0,0,0.1-0.1,0.1-0.1l0.1,0l0,0.1c0,0,0.1-0.1,0.1-0.1c0,0,0.1-0.2,0.1-0.2l0.2,0l0.1,0.1l-0.1,0.1h0.1l0.1-0.1l0.1,0l0.1-0.2
	L26,39.5l0.1,0l0.2,0.1l0.1-0.1l0.2,0.1l0,0.1l0.1,0l0.1,0.1l0.1-0.1l-0.1-0.2l-0.2-0.1l0-0.2l0.2,0.1l0,0.1l-0.1,0l0.1,0.1l0.2,0
	l0.1,0.1l0.1-0.1l0-0.1l0.2,0l0.1-0.1l0.2,0l0,0.2l0.1,0v-0.2l0-0.1l-0.1-0.1l0.1,0l0.1,0.2l-0.1,0.1l0.1,0l0.2-0.1l0-0.1L28,39.3
	l0.1,0l0.2,0l0.1,0.1l0.1,0l0-0.1l-0.1,0l0-0.1l0.1-0.1l0.3,0.1l-0.1,0.2l0.2-0.1l0-0.1l-0.1-0.1l0.1-0.1l0.1,0l0,0.1l0.1,0.1l0.1,0
	l0-0.2l0.1,0l0.1,0.1l-0.1,0l0,0l0.1,0l0-0.1L29.3,39l0,0l0.1,0l0.1-0.2l0.1,0l-0.1,0.1l0.1,0l0.1-0.1l0-0.2l-0.2,0l0.1-0.1l0.1,0
	l0.1,0.1l0.1-0.1l-0.1-0.1l0.1-0.1l0.2,0l0.1-0.1l0.1,0.1l-0.2,0.1l0,0.2l-0.1,0.1l0.2,0.1l0.1-0.1l0.1-0.1l0.2,0.1v0.4l0.1,0l0-0.1
	l0.1,0l0-0.2l-0.1,0l0.1-0.1l0.2,0l0.1,0.2L31.3,39l0.1,0.1l0.2,0l0-0.1l-0.1,0l0,0h0.1l0.1-0.1l0.2,0.1l0,0.2l0.1,0l0.1,0l0.1,0.1
	v0.1l-0.1,0.1l0.2,0l0,0.2l-0.1,0l0,0.1l0.2,0.1l-0.1,0.1l0,0.1l0.2,0.2l0,0.1l0.2,0.1l0.2-0.1l0-0.1l0.2,0l0.1-0.1l0.1,0.1l0.2-0.1
	l0.1,0l0,0.1l0.1,0l0.1-0.1l0.1,0l0,0.1l0.2,0l0.1-0.1l-0.1-0.1l-0.1,0v-0.1l0.1-0.1c0,0,0.2,0,0.2,0c0,0,0.2,0.3,0.2,0.3l0.1,0
	l0.1-0.1l-0.1-0.1l-0.3,0l0-0.1l0.2-0.1l0.2,0.1l0.1,0.2l-0.1,0.2l0.2,0.1l0.1-0.1l0-0.1L35,40.2l0-0.1l0.2,0l0.1,0.1l0,0.2l0.2,0
	l0.2-0.1l0-0.2l-0.1-0.1l0-0.2l-0.1,0l-0.2,0.1l-0.1-0.1l0.2-0.1l0.2,0l0.1,0.1l0.1-0.1c0,0,0.1,0,0.1,0c0,0,0.1,0.1,0.1,0.1l0-0.3
	l-0.1,0l0-0.1l0.1-0.3l0.1,0l0.1,0.4l0.4,0.2l0.1,0.2l0,0.1l0.1,0.1l0.1,0l0.1-0.1l-0.1-0.1l0.2,0l0.1,0.1l0.1,0l0.1-0.1l0.1,0v0.1
	l0.1,0l0,0l0.2-0.1l-0.1,0l0.1-0.1l0.3,0.1l0.1,0.1H38l0.2-0.2l0.1,0l0-0.1l-0.2,0l0.1-0.1l0.3,0l0.1,0.1l0.2-0.1l0.1,0l0.1-0.1
	l-0.1-0.1L39,39h0.1l0.2,0.2l0.1,0l0.2-0.1V39h-0.3l-0.1-0.1l0-0.1l-0.2,0l0.1-0.1l0.1,0l0.1-0.1l-0.1,0l0,0l0.2,0l0.2-0.1l0,0
	l0.1,0.2l0.2-0.1l0.2,0l0.1,0.1l0.1-0.1l0-0.1l-0.2-0.1l0.1-0.1l0.1,0l0-0.1l-0.2-0.1l0.1-0.1l0.2,0.1l0.2-0.1l0.1,0.1l0-0.1l0.1,0
	l0-0.1l-0.1-0.1l0.1-0.2l0.1-0.1l0.2,0l-0.1,0.2l0,0.1l0.1,0l0.1-0.1l0.1,0l0.2-0.2l-0.1-0.1l0.1,0l0.1,0.1l-0.1,0.1l0.1,0l0.1-0.2
	l0.1,0c0,0,0-0.1,0-0.1c0-0.1-0.1,0-0.1,0l0.1,0l0.1,0l0-0.1l-0.1-0.1h-0.1l-0.1-0.1l0.2-0.1l0-0.1l-0.1,0l0.1-0.1l0.1-0.1l0.1-0.2
	l0-0.1l0.1,0l-0.1-0.2l-0.3,0l0.1-0.2l0.2-0.1l0-0.1l-0.1-0.1l0.1-0.1l0.1,0l0.1-0.1l-0.1-0.1h-0.1l0,0.1l-0.1,0l0-0.1l0.1,0
	L41.7,35l-0.2,0l-0.1,0l0.2-0.1v-0.1l-0.2-0.1l0.1-0.1l0-0.1h0.5l0.1-0.1l0.2,0.1l-0.1,0.1l-0.1,0l0,0.1l0.5-0.1l0.3-0.2l0.6,0
	l0.1-0.1l0.1,0v0.2l-0.2,0.1l0.3,0.1l0.1-0.1l0.1-0.1h0.2l0.1,0.1l-0.1,0.2l0.1,0l0.2-0.1l0.2,0l0.1-0.1l0.2-0.1l0.1-0.1l0.3-0.2
	l0.2,0l0.1,0.1l0.4,0l0.3-0.1l0.1-0.1l0.2,0.2l0.1,0l0.1-0.2l0.1,0l0,0.1l0,0.2l0.1,0.1l0.3-0.1l0-0.2l-0.1-0.1l0-0.1l0.3-0.1
	l0.3,0.2l-0.1,0.2l0.2,0l0.2,0l0.3,0.1l0-0.1l-0.1-0.1l0-0.1l0.1-0.1l0-0.1L48.1,34V34l0.2-0.1l-0.1,0l0.1-0.1l0.3-0.1l0.4,0l0.3,0
	l0-0.2L49,33.2h-0.3l-0.2-0.1l0.2-0.1c0,0,0.4-0.1,0.5-0.1c0,0,0,0.1,0,0.1l0.4,0l0.2-0.1l-0.1-0.2l-0.2-0.1l0.1-0.2l0.4-0.1l0.3,0
	l0.1,0.1l0.2,0l0.3-0.2l0-0.1l-0.3-0.1l0,0l-0.1,0l0,0.1l-0.1,0l0-0.1c0,0-0.2,0-0.3,0c-0.1,0,0-0.1,0-0.1l0.2-0.1l0-0.2l0.4,0
	l0.1-0.1c0,0,0.2,0,0.2,0c0,0,0,0.1,0,0.1l-0.1,0.1l0.2,0.1l0.3-0.1l0.1-0.1l0.3-0.1l0.1,0.1l0,0.1l0.2,0.2l0.1,0l0.3-0.3l-0.1-0.1
	l0.2-0.1l0.2,0l0.2,0.2l0.2-0.2l0.3,0c0,0,0-0.1-0.1-0.2c-0.1,0-0.1-0.1-0.1-0.1l0.1-0.1l0.3,0.1l0,0.2l0.2,0.1l0.2,0l0.1-0.2
	l-0.1-0.1l0-0.1l0.1,0l0.1,0.2l0.3-0.1l0-0.2l0.2-0.1v-0.2l0.2-0.2l0.2,0l0-0.1l-0.1,0l-0.1,0.1l-0.1-0.1l0.1-0.1l0.2-0.1l0.3,0.1
	l0.3,0.2l0,0.1l0.2,0l0.2-0.2l0-0.2l-0.2-0.1v-0.1l0.2,0l0.2,0.2l0.2-0.1l0.1-0.2l0.2,0v0.2l0.3,0.2l0.1-0.1l-0.1-0.2l0.1-0.1h0.3
	l0.3,0.3l0,0.1l0.1,0l0.1-0.2l0.1,0l0.1,0.1l-0.1,0.1l0.2,0.1l0.2,0l0.2-0.3l-0.2-0.1v-0.1l0.2-0.1l0.1,0.1h0.1l0.1-0.3l0.2,0
	l0.1-0.1l0-0.2l0.1-0.1h0.1l0.1,0.1l0,0.2l0.1,0.1l0.1-0.1l0-0.1l0-0.2L59.4,29l0.2-0.3h0.3l0.1-0.1l-0.3-0.2v-0.1l0.3,0l0.1,0.2
	l0,0.2l0.5,0.3l0.3,0l0-0.3l-0.2-0.2l0-0.2l0.2-0.2l0-0.2l-0.1-0.1l0-0.1l0.1,0l0.2,0l0.1,0.1l0.2-0.1l0.1,0l0.3-0.1l0.2,0.1
	l0.2-0.1l0-0.1l0.1-0.1l0.1,0l0.2-0.1l-0.1-0.1l0.1,0l0.4,0.3l0,0.4l0.3,0.1l0.2-0.2l0.2-0.1l-0.1-0.2l-0.4-0.1l0-0.3l0.3-0.2h0.3
	l0.1,0.1h0.2l0.4-0.3l0.2,0l0,0.4l-0.1,0.1l0.1,0.2l0.3,0.1h0.2l0.1-0.2l0.3-0.2l0.2,0.1v0.2l0.2,0.1l0.1-0.1l0-0.1
	c0,0,0.4-0.2,0.5-0.2c0,0,0.2,0,0.2,0l0.1,0.3l0.1,0.1l-0.1,0.1l0.2,0.2l0.2,0.1l0.2-0.1l0.4,0.1l0.2,0.1l0.2,0v0.1
	c0,0-0.1,0-0.1,0.1c0,0,0,0.1,0,0.1l0.2,0.1l-0.1,0.1l-0.1,0l0.1,0.1l0.2,0l0.1,0.1l0.3-0.1l0.2,0.1l0.1,0.3l-0.1,0l0.1,0.2l0.2,0.1
	l0.3,0.2l0.3,0l0.1-0.1L69.9,29l-0.2-0.1l0-0.1l0.1-0.1l0-0.2l-0.1-0.1l0.1,0l0.1,0.1h0.1l0.2,0.2l0,0.4h0.2l0.2-0.1l0.3,0.1
	l0.3,0.4l0.2,0.4l0.3,0.1l0.2-0.1l0.1-0.2l-0.2-0.3l-0.4-0.1l-0.2-0.1l0-0.2l0.3-0.1l1.1,0.1l0.3,0.2l0,0.2l0.1,0.2l0.4,0l0.2-0.2
	l-0.1-0.1l-0.3-0.1l0-0.1l0.2-0.1l0.5,0l0.2,0.2l0,0.6L74.2,30l0,0.2l0.3,0.1l0.2,0.2l0.3,0.1l0.2-0.1l-0.1-0.2L74.8,30V30l0.1-0.1
	l0.6,0.3l0.1,0.2l0.4,0.2l0.2-0.1l0.1-0.1l0.5,0l0.3,0.3l0,0.5l0.2,0.1l0.2,0.4l0.2,0.1l0.1-0.1l0.1-0.3l0.2-0.2v-0.3l0.1-0.1
	l0.2,0.1l0.1,0l0-0.1l-0.1-0.1l0.2-0.2l0.8-0.2h0.2l0.2-0.1l0.2,0l0.2,0.2l0,0.2l-0.1,0l0,0.1l0.2,0.1l0.3-0.1l0.2,0l0.3,0.2
	L81.1,31l-0.3,0.3l-0.1,0.1l-0.4,0.3l-0.1,0.4v0.2l0.1,0.1l0.3,0.1l0.2,0.3l-0.1,0.3l0.1,0.5l0,0.2l-0.3,0.2l-0.1,0.3l-0.3,0.4
	l-0.2,0.1l0.1,0.2l0.1,0.2l0.2,0.2l0.2,0.2l0.2,0.2V36l-0.2,0.1l0,0.2l0.3,0.1l0.3,0.1l-0.1,0.4L81,37l-0.1,0.6l0.1,0.1l0.1,0.3
	l-0.2,0.3l-0.3,0.2l-0.1,0.3l0.1,0.4v0.5l0,0.2l0.2,0.3l0.1,0.6l0,0l0,0.1l0.3,0.2l0,0.4l-0.2,0.3l0,0.3l0.2,0.2v0.2L81,42.6l0,0.4
	l0.1,0.2l-0.1,0.5l-0.2,0.3l-0.2,0.3l-0.1,0.4l0.1,0.2l0.1,0.4l-0.1,0.3l0.1,0.3l0.1,0.4l-0.1,0.3l-0.2,0.1l-0.1,0.3l0.1,0.3
	l0.4,0.3l0.6,0.1l0.4,0.2l0.2,0.3l-0.1,0.2l0,0.2l0.1,0.1l0.3,0.1l0.2,0.3l-0.1,0.2l-0.2,0.1l0,0.2l0.3,0.1l0.2,0.4l0.1,0.3
	l-0.2,0.3l-0.1,0.3l-0.3,0.4l-0.1,0.6l-0.1,0.1l-0.3,0.5l0.2,0.3l0.3,0.4L82,53.7l0.3,0.3l0.1,0.2l0.2,0.1l0.5,0.2l0.4,0.5v0.4
	l0.3,0.5l0.3,0.2l0,0.2l0.1,0.2l-1,0.3l-1.7,0.8l-0.7,0.9l-0.4,0.2L79.7,59l-0.8,0.1V59l0-0.4L78.4,58l-0.3,0l-0.5,0l-0.4-0.2
	L77,57.7h-0.2l-0.6,0.1L76,57.6l0.1-0.3l-0.1-0.2l-0.3,0l-0.3,0.2v0.5l-0.3,0.6L75,58.6l-0.3-0.2l0.3-0.3l0.1-0.3l-0.3-0.1h-0.3
	L74.3,58l0,0.3l-0.3,0.3l-0.3,0.1l-0.4-0.3l0.1-0.2l0.2-0.2l0.1-0.3l-0.3-0.2h-0.4l-0.4,0.3l-0.5,0l-0.4-0.2l-0.2,0l-0.2-0.2h-0.3
	l-0.2,0.3l0.3,0l0.5,0.1l0.2,0.3l-0.2,0.2h-0.4l-0.4-0.3h-0.4l-0.3,0.1l-0.4-0.2l-0.2,0.2h-0.5l-0.5-0.4h-0.2l-0.2,0.3l0.1,0.2v0.2
	L68,58.3v0.1l0.3,0.2l-0.1,0.3L68,59h-0.2l-0.4,0.2L67.1,59l-0.3-0.1l-0.3,0L66.1,59L66,59.2l0.1,0.2l0.4,0.1l0.2,0.1l0.4,0.2v0.2
	L67,60.4l-0.3,0L66.4,60l-0.3-0.2l-0.2,0l-0.1,0.2l0.1,0.2l0.2,0.3l0,0.2l-0.3,0l-0.1-0.2l-0.3-0.1l-0.4,0.1l-0.5,0.4l-0.1,0.3
	l0.2,0.3l0.1,0.2l-0.3,0.2l-0.3,0l-0.5-0.6L63.1,61l-0.3,0l-0.1,0.2l0.1,0.2l0.5,0.3l0.2,0.2v0.1l-0.3,0v-0.3l-0.4-0.3l-0.2,0
	l-0.1,0.2l-0.2,0l-0.2-0.1h-0.2l-0.4,0.1h-0.3l-0.3-0.5l-0.5-0.2l-0.3,0l-0.1,0.3l0.3,0.2l0.5,0.1L61,62l-0.3,0.2l-0.3-0.3l-0.5,0
	l-0.3,0.2l-0.5,0L59.1,62l-0.2,0l-0.3-0.1l-0.2-0.1L58,61.8l-0.1,0.2l0,0.5l-0.4,0.3L57,63.1l-0.4-0.2l-0.4-0.3l-0.3,0l-0.2,0.2
	l0,0.3l0.4,0.4l0.1,0.2l0.3,0.3L56.3,64l-0.3-0.1L56,63.6l-0.2-0.2l-0.3-0.1L55,63.5l-0.4,0.3h-0.2L54,63.6l0-0.3l0.2-0.3l0-0.3
	l-0.4-0.1l-0.2,0.1l-0.1,0.2l0.3,0.4l0,0.4l-0.1,0.3l-0.3,0.1l-0.2-0.1l-0.3-0.2h-0.4L52,63.7l-0.4,0.5l-0.2,0.1l-0.1,0.3l-0.4,0.2
	l-0.2-0.1l-0.1-0.2l-0.2,0l-0.1,0.2l-0.2,0.1l-0.2-0.1l-0.2-0.2l0-0.3l-0.2-0.1L49.1,64l-0.4,0.5l-0.6,0.3l-0.4-0.1l-0.1-0.2
	l0.3-0.1l0.2-0.2l0-0.3l-0.3-0.1l-0.2,0.1h-0.3L47.2,64l0.3-0.4l-0.2-0.2l-0.4,0.1l-0.1,0.4L46.6,64l-0.3-0.1l-0.1-0.7L45.8,63
	l-0.4,0l-0.2,0.1l0.1,0.3l0.4,0.4l-0.1,0.6l-0.4,0.3l-0.3-0.1l-0.1-0.4l0.3-0.3l0.1-0.4l-0.2-0.3l-0.3,0l-0.2,0.2l-0.1,0.3l-0.6,0.2
	L43.4,64l-0.3,0.2l-0.2-0.1l-0.1-0.3l-0.2,0l-0.1,0.1l0,0.2l-0.3,0.2l-0.3,0l-0.3-0.5l-0.2-0.4l-0.5-0.1l-0.4,0.2L40.3,64l-0.1,0.4
	L40,64.5l-0.2-0.1l0.2-0.3L39.9,64l-0.3,0L39.2,64L38.6,64l-0.4-0.1l-0.3,0L37.7,64l0,0.1l0.4-0.1l0.1,0.2l-0.3,0.2l-0.1,0.3
	l0.2,0.3L38,65.3l-0.3,0.2l0.1,0.2l-0.2,0.1l-0.2-0.2l-0.2-0.3h-0.3l-0.1,0.1l0.1,0.2l-0.4,0.2l-0.2-0.1l-0.1-0.3l-0.3-0.1l-0.3,0.2
	L35.5,66l-0.4,0.5l-0.2,0l0-0.2l0-0.4l-0.4-0.3l-0.4-0.1l-0.2,0.1v0.2c0,0,0.2,0.1,0.2,0.2c0.1,0,0.2,0,0.2,0l0.2,0.2l0,0.3
	l-0.3,0.1l-0.3-0.1L33.6,66L33.1,66l-0.3,0.1l-0.1,0.4l0,0.4l-0.4,0.3l-0.2-0.1l-0.1-0.2l0.1-0.3v-0.2l-0.4-0.2l-0.4,0l-0.2,0.3
	l0.2,0.4l0.4,0.5l0.3,0.3l-0.1,0.2l-0.2,0l-0.6-0.2l-0.2-0.2L31,67.1l-0.2-0.4l-0.3-0.2l-0.3,0.1l-0.2,0.2l0.1,0.3l0.4,0.3l0.1,0.2
	l0.2,0.1l0,0.3l-0.2,0.2v0.3l-0.1,0.2h-0.4l-0.3,0.1l-0.1-0.3l-0.2-0.3l-0.4-0.2l-0.5,0l-0.2,0.2l0.1,0.3L29,69v0.3l-0.2,0.2h-0.5
	L28,69.7l-0.3,0.2h-0.3l-0.2-0.3l0.1-0.3l-0.1-0.2l-0.4-0.1l-0.2,0.1l-0.3,0.3l-0.5,0.2h-0.2l-0.3,0.1L25,69.6l-0.2-0.1l0-0.2
	l-0.2-0.1l-0.3,0.1l0,0.1l0.1,0.2L24.3,70l-0.5,0.2h-0.2l-0.3,0.1v0.1l0.3,0.1L24,71h0.3l0.3,0.2l0.3,0.1v0.4l-0.2,0l-0.3-0.2
	l-0.5,0.1l-0.2,0.2l0.4,0.4h0.2l0.3,0.2l0.1,0.5v0.4l-0.4,0.2l-0.2-0.1l0-0.4l-0.1-0.3l-0.4-0.1l-0.2,0.1l0.1,0.4l0.4,0.3l-0.1,0.3
	l-0.4,0.1l-0.4-0.2l-0.1-0.4l-0.4-0.1l-0.2,0.2l0.4,0.3l-0.1,0.3h-0.3L22,73.6l-0.5,0.1L21.4,74l0.1,0.2l-0.3,0.3l-0.5,0.1l-0.1,0.4
	l0.2,0.2l-0.1,0.2l-0.2,0.1H20l-0.2,0.2l0.1,0.2l0.9,0l0.5,0.4l0,0.2l-0.5,0.2l-0.5-0.1l-0.2,0.1l0.3,0.2l0.2,0.4l0.1,0.5l0.1,0.3
	l-0.1,0.4l-0.2,0.1l-0.4,0l-0.2,0.2l-0.4,0.2l-0.2,0l-0.3-0.1L18.9,79l0,0.2l0.2,0.4l-0.1,0.3l-0.3,0.3l-0.3,0l-0.4,0.1L18,80.5
	l-0.5,0.2l-1.2,0.1l-0.5,0.2l-0.3,0l-0.1-0.1L15.3,81l0.1,0.2l0.1,0.2l-0.4-0.1L14.5,81l-0.2-0.1l-0.4,0l-0.2-0.3h-0.1l-0.2-0.2
	l-0.3,0.1l-0.2,0.3l0.1,0.1l-0.3,0.4l-0.2,0L12.2,81l0-0.3L12,80.2l-0.4-0.1l-0.2,0.1l0.1,0.2l0.4,0.3l0.1,0.2l-0.1,0.3l-0.2,0.1
	l-0.1,0.2l-0.2,0l-0.2,0L11,81.7l0.1,0.1L10.8,82l-0.5,0.4L10,82.3L10,82.1l0.1-0.2l0-0.2L10,81.3l-0.1-0.1l-0.2,0l-0.3,0.2
	l-0.1,0.2L9,81.8l-0.3,0l-0.4,0.1L7.8,82l-0.1-0.1l0-0.1l0.3,0l0.2-0.2c0,0,0-0.3-0.1-0.3c0,0-0.3-0.3-0.3-0.3l-0.6-0.1l-0.2,0.2
	l-0.4,0.3l-0.1,0.2l-0.2,0.1c0,0-0.2-0.1-0.2-0.1c0,0,0-0.1,0-0.1l0.3-0.3l0-0.2l0.2-0.2l0-0.3l-0.5-0.2L6,80.4l0,0.2l0.3,0.3l0,0.1
	l0,0.2L6,81.3l-0.2-0.1l-0.2-0.3l-0.2-0.5l-0.2-0.2l-0.2,0H4.8l-0.3,0.2l0,0.2l0.3,0.2l0.1,0.2l-0.1,0.3l-0.3,0.2l-0.2,0l-0.3-0.1
	L4,81.1l0.3-0.3l0.1-0.3l-0.2-0.2H4l-0.3,0.1l-0.2,0.1l-0.2,0l-0.1-0.1l-0.1-0.2l-0.1,0l-0.1-0.1l-0.3,0l-0.2,0.2l-0.2,0l0,0
	l-0.1,0.2l0,0.2L2,81l-0.3-0.2l-0.2-0.1l0-0.2l0.3-0.1l0.1,0.1l0.2-0.1c0,0,0-0.1,0-0.1c0,0-0.3,0-0.3,0l-0.3,0L1.4,80l0-0.2
	l-0.1-0.2l-0.2-0.1L1,43.6L1.2,43.5z" ></path>
    <path id="path7592_5_" class="st0" d="M12.1,30.2l10.5,10.3h0l-0.2,0l-0.1,0l-0.1,0.1l0.1,0l0.1,0.2l-0.1,0.1c0,0,0,0.2-0.1,0.2
	S22,41.2,22,41.2l-0.1,0.1l0.1,0l-0.1,0.1l-0.3-0.1l0,0.1h-0.1l0-0.1l-0.2,0l-0.1,0.1l0,0.1l-0.1,0.2l0,0l-0.2,0l0,0
	c0,0-0.1,0.1-0.1,0.1c0,0-0.2,0.1-0.2,0.1l0.1,0l0,0.1l-0.1,0.1c0,0,0-0.1,0-0.1c0,0-0.2,0-0.2,0l-0.1,0.1l0,0.2l-0.2,0H20l0-0.1
	l-0.1,0l-0.1,0.1l-0.2,0l-0.2,0.2l0.2,0.1l0,0.1l-0.2,0.1l-0.1-0.1l-0.1,0l-0.2,0.1l0.1,0l-0.1,0.1l-0.2,0.1l-0.2,0l0-0.1l-0.1,0
	l-0.1,0.1l-0.2,0l0-0.1l-0.1-0.1h-0.2l-0.2,0.1l-0.1-0.1l-0.2,0l-0.1-0.1l-0.2,0l0.1,0.1L17,43.3c0,0-0.1-0.1-0.1-0.1
	c0,0-0.2,0-0.2,0l0,0.1l-0.1,0.1l0.2,0.1l0,0.1l-0.2,0.1l-0.1-0.1l-0.2,0l-0.1,0.2l-0.1,0h-0.1l0,0.1l-0.1,0.1l0,0l0.1,0l0-0.2
	l-0.2,0.1v-0.1l-0.1,0l-0.2,0.1l0.1,0l-0.1,0.1l-0.2,0l0-0.1l-0.1,0L15,43.7l-0.1-0.2h-0.3l0-0.1l-0.2,0v0l-0.4,0.1L14,43.4
	l-0.4-0.1l-0.1,0l-0.1-0.1l-0.3,0l-0.2-0.2l-0.3,0l-0.1-0.2l-0.4,0c0,0,0-0.1-0.1-0.1c0,0-0.2,0-0.2,0s0,0.1-0.1,0.1
	c0,0-0.2,0.1-0.2,0.1l-0.1-0.1l-0.4,0l-0.4-0.2l0.1,0l0-0.3l-0.2-0.1l0.1-0.1l-0.2-0.2h-0.2l-0.1,0.1l-0.3,0l-0.1-0.1l-0.1,0.1
	l-0.2,0l-0.1-0.1l-0.2-0.1L9,41.8l-0.1,0l-0.1,0l-0.1,0l-0.2,0.1l-0.1,0L8.3,42l0.1,0.1l-0.1,0.1l-0.2,0l-0.1,0.1H8l0,0.1l-0.2,0
	l-0.1-0.1l0,0.1l-0.1,0l0-0.1l-0.2-0.1l0-0.1l-0.2-0.1l0-0.1l-0.3,0l-0.2,0.1l-0.2,0l-0.1-0.1l-0.1,0l-0.1,0.1l-0.1-0.1H5.9
	l-0.1-0.1H5.8l0,0l-0.1,0l-0.1,0.1l-0.2-0.1l-0.2,0l-0.1,0.2L5,42l-0.3,0.1l0,0.2l-0.1,0.1l-0.1,0l-0.5,0l-0.1,0.1l-0.1,0l-0.2,0.1
	v0.1l0.1,0l0,0.2L3.8,43l0,0.2l-0.1,0.1l-0.1,0l0,0.1l-0.3-0.1l0-0.1L3,43.1H2.9l-0.1,0.1l-0.3,0l-0.2,0.1H2.1L2,43.2l-0.2,0
	l-0.2,0.1l-0.4,0.2l-0.3,0l0-3.3L1.4,40l0.2,0l0.3-0.2v-0.2L2,39.4l0.2,0l0.2-0.2L2.5,39l0.2-0.4l0-0.2l0.2-0.2l0.2-0.1l0.1-0.2
	l0.1-0.1l0-0.2l-0.1-0.2v-0.2l0.1-0.1l0.2-0.1l0.1-0.2l0-0.1l0.2-0.2L4,36.3l0.1-0.1L4.2,36l0.3-0.3l0.3-0.1l0.4-0.1l0.3-0.1l0.1,0
	l0.1-0.1l0.5-0.1l0.1,0.1l0.2-0.1L6.7,35l0.2,0L7,34.8l0-0.2l0.1-0.2l0.3-0.1h0.1L8,34.1l0.4-0.2l0-0.2l0.5-0.2l0.2-0.1l0-0.1
	l0.1-0.2l0.3-0.2l0.1,0l0.4-0.2l0.2-0.1l0.3-0.2l0.1-0.1l-0.1-0.2l0.2-0.3l0.1,0l0-0.2l-0.1-0.2l-0.1-0.3l-0.2-0.3l0.1-0.2l0.3-0.1
	H11l0.3,0l0.1-0.1l0.3,0L12.1,30.2z" ></path>
</svg>