<?xml version="1.0" encoding="utf-8"?>
<!-- Generator: Adobe Illustrator 25.0.0, SVG Export Plug-In . SVG Version: 6.00 Build 0)  -->
<svg version="1.1" class="icons" id="equipo" xmlns="http://www.w3.org/2000/svg" xmlns:xlink="http://www.w3.org/1999/xlink" x="0px" y="0px"
	 viewBox="0 0 512 512" style="enable-background:new 0 0 512 512;" xml:space="preserve">
<style type="text/css">
	.st0{fill:#717171;}
</style>
<path class="st0" d="M126.8,312.4v-97.8c0-7.1,1-13.9,2.9-20.5h-66c-10.7,0-20.4,4.4-27.4,11.4S25,222.2,25,232.9v77.8
	c0,9.5,3.5,18.2,9.2,25c3,3.5,6.6,6.5,10.6,8.8v113.1c0,8.3,6.7,15,15,15h92V368C136,353.8,126.8,333.6,126.8,312.4z"/>
<path class="st0" d="M105.8,176.4c32.3,0,58.6-26.3,58.6-58.6s-26.3-58.6-58.6-58.6s-58.6,26.3-58.6,58.6S73.5,176.4,105.8,176.4z"
	/>
<path class="st0" d="M307.4,169.7H201.7c-12.4,0-23.6,5-31.7,13.2c-8.1,8.1-13.2,19.4-13.2,31.7v97.8c0,11,4,21.1,10.6,28.9
	c3.9,4.7,8.8,8.5,14.3,11.3V497c0,8.3,6.7,15,15,15h115.8c8.3,0,15-6.7,15-15V352.6c5.5-2.8,10.4-6.6,14.3-11.3
	c6.6-7.8,10.6-17.9,10.6-28.9v-97.8c0-12.4-5-23.6-13.2-31.7C331.1,174.7,319.8,169.7,307.4,169.7z"/>
<path class="st0" d="M254.5,139.7c38.5,0,69.9-31.3,69.9-69.9S293.1,0,254.5,0s-69.9,31.3-69.9,69.9S216,139.7,254.5,139.7z"/>
<path class="st0" d="M474.8,205.4c-7-7-16.7-11.4-27.4-11.4h-68c1.9,6.6,2.9,13.5,2.9,20.5v97.8c0,21.2-9.2,41.4-24.9,55.6v104.5
	c0.6,0.1,1.2,0.1,1.8,0.1h92.2c8.3,0,15-6.7,15-15V344.5c4.1-2.3,7.7-5.3,10.6-8.8c5.7-6.8,9.2-15.5,9.2-25v-77.8
	C486.1,222.2,481.8,212.5,474.8,205.4z"/>
<path class="st0" d="M405.3,176.4c32.3,0,58.6-26.3,58.6-58.6s-26.3-58.6-58.6-58.6c-32.3,0-58.6,26.3-58.6,58.6
	S372.9,176.4,405.3,176.4z"/>
</svg>
