<?xml version="1.0" encoding="utf-8"?>
<!-- Generator: Adobe Illustrator 25.0.0, SVG Export Plug-In . SVG Version: 6.00 Build 0)  -->
<svg version="1.1" class="icons" id="marcador" xmlns="http://www.w3.org/2000/svg" xmlns:xlink="http://www.w3.org/1999/xlink" x="0px" y="0px"
	 viewBox="0 0 512 512" style="enable-background:new 0 0 512 512;" xml:space="preserve">
<style type="text/css">
	.st0{fill:#717171;}
</style>
<path class="st0" d="M422,121c0-16.5-13.5-30-30-30s-30,13.5-30,30s13.5,30,30,30S422,137.5,422,121z"/>
<path class="st0" d="M105,332c-8.3,0-15,6.7-15,15s6.7,15,15,15s15-6.7,15-15S113.3,332,105,332z"/>
<path class="st0" d="M332,332h68.2l89.3-141.1c14.7-20.5,22.5-44.7,22.5-69.9C512,54.8,458.2,0,392,0S272,54.8,272,121
	c0,25.3,7.8,49.5,22,69.3L364.6,302H332c-33.1,0-60,26.9-60,60s26.9,60,60,60h120c16.5,0,30,13.5,30,30s-13.5,30-30,30H135l54-72
	c13.7-18.3,21-40.1,21-63c0-57.9-47.1-105-105-105S0,289.1,0,347c0,22.9,7.3,44.7,21,62.9L97.5,512H452c33.1,0,60-26.9,60-60
	s-26.9-60-60-60H332c-16.5,0-30-13.5-30-30S315.5,332,332,332z M332,121c0-33.1,26.9-60,60-60s60,26.9,60,60s-26.9,60-60,60
	S332,154.1,332,121z M60,347c0-24.8,20.2-45,45-45s45,20.2,45,45s-20.2,45-45,45S60,371.8,60,347z"/>
</svg>
