<?xml version="1.0" encoding="utf-8"?>
<!-- Generator: Adobe Illustrator 25.0.0, SVG Export Plug-In . SVG Version: 6.00 Build 0)  -->
<svg version="1.1" class="icons" id="grafico" xmlns="http://www.w3.org/2000/svg" xmlns:xlink="http://www.w3.org/1999/xlink" x="0px" y="0px"
	 viewBox="0 0 512 512" style="enable-background:new 0 0 512 512;" xml:space="preserve">
<style type="text/css">
	.st0{fill:#717171;}
</style>
<path class="st0" d="M377.7,185.7l-85.3,85.3c-8.3,8.3-21.8,8.3-30.2,0L224,232.8l-59.6,59.6c-4.2,4.2-9.6,6.3-15.1,6.3
	s-10.9-2.1-15.1-6.3c-8.3-8.3-8.3-21.8,0-30.2l74.7-74.7c8.3-8.3,21.8-8.3,30.2,0l38.3,38.3l70.3-70.3c8.3-8.3,21.8-8.3,30.2,0
	C386.1,163.9,386.1,177.4,377.7,185.7L377.7,185.7z"/>
<path class="st0" d="M480,0H32C14.3,0,0,14.3,0,32v21.3c0,17.7,14.3,32,32,32h10.7v256c-11.8,0-21.3,9.6-21.3,21.3
	S30.9,384,42.7,384h179.2l-68.4,94.1c-6.9,9.5-4.8,22.9,4.7,29.8c9.6,7,22.9,4.8,29.8-4.7l46.7-64.3v51.7c0,11.8,9.6,21.3,21.3,21.3
	c11.8,0,21.3-9.6,21.3-21.3v-51.7l46.7,64.3c7,9.6,20.3,11.6,29.8,4.7c9.5-6.9,11.6-20.3,4.7-29.8L290.1,384h179.2
	c11.8,0,21.3-9.6,21.3-21.3s-9.6-21.3-21.3-21.3v-256H480c17.7,0,32-14.3,32-32V32C512,14.3,497.7,0,480,0L480,0z M426.7,341.3H85.3
	v-256h341.3V341.3z"/>
</svg>
